G04 #@! TF.FileFunction,Legend,Top*
%FSLAX46Y46*%
G04 Gerber Fmt 4.6, Leading zero omitted, Abs format (unit mm)*
G04 Created by KiCad (PCBNEW 4.0.4-stable) date 06/27/18 00:46:23*
%MOMM*%
%LPD*%
G01*
G04 APERTURE LIST*
%ADD10C,0.150000*%
%ADD11C,0.070000*%
%ADD12C,0.100000*%
%ADD13C,0.200000*%
%ADD14C,0.090000*%
%ADD15C,0.125000*%
%ADD16C,0.500000*%
%ADD17C,0.120000*%
%ADD18C,0.071120*%
%ADD19C,0.152400*%
%ADD20C,0.127000*%
%ADD21C,0.080000*%
%ADD22C,0.114300*%
%ADD23C,0.092000*%
%ADD24C,0.095000*%
G04 APERTURE END LIST*
D10*
D11*
X290637143Y-145482857D02*
X290665714Y-145397143D01*
X290694286Y-145368571D01*
X290751429Y-145340000D01*
X290837143Y-145340000D01*
X290894286Y-145368571D01*
X290922857Y-145397143D01*
X290951429Y-145454285D01*
X290951429Y-145682857D01*
X290351429Y-145682857D01*
X290351429Y-145482857D01*
X290380000Y-145425714D01*
X290408571Y-145397143D01*
X290465714Y-145368571D01*
X290522857Y-145368571D01*
X290580000Y-145397143D01*
X290608571Y-145425714D01*
X290637143Y-145482857D01*
X290637143Y-145682857D01*
X290780000Y-145111428D02*
X290780000Y-144825714D01*
X290951429Y-145168571D02*
X290351429Y-144968571D01*
X290951429Y-144768571D01*
X290351429Y-144654285D02*
X290351429Y-144311428D01*
X290951429Y-144482857D02*
X290351429Y-144482857D01*
X290351429Y-144197142D02*
X290351429Y-143854285D01*
X290951429Y-144025714D02*
X290351429Y-144025714D01*
X290722857Y-143654285D02*
X290722857Y-143197142D01*
X290951429Y-143425713D02*
X290494286Y-143425713D01*
D12*
X294029286Y-144712857D02*
X294029286Y-145070000D01*
X294386429Y-145105714D01*
X294350714Y-145070000D01*
X294315000Y-144998571D01*
X294315000Y-144820000D01*
X294350714Y-144748571D01*
X294386429Y-144712857D01*
X294457857Y-144677142D01*
X294636429Y-144677142D01*
X294707857Y-144712857D01*
X294743571Y-144748571D01*
X294779286Y-144820000D01*
X294779286Y-144998571D01*
X294743571Y-145070000D01*
X294707857Y-145105714D01*
X294029286Y-144462856D02*
X294779286Y-144212856D01*
X294029286Y-143962856D01*
X290205000Y-142221428D02*
X290169286Y-142292857D01*
X290169286Y-142400000D01*
X290205000Y-142507143D01*
X290276429Y-142578571D01*
X290347857Y-142614286D01*
X290490714Y-142650000D01*
X290597857Y-142650000D01*
X290740714Y-142614286D01*
X290812143Y-142578571D01*
X290883571Y-142507143D01*
X290919286Y-142400000D01*
X290919286Y-142328571D01*
X290883571Y-142221428D01*
X290847857Y-142185714D01*
X290597857Y-142185714D01*
X290597857Y-142328571D01*
X290919286Y-141864286D02*
X290169286Y-141864286D01*
X290919286Y-141435714D01*
X290169286Y-141435714D01*
X290919286Y-141078572D02*
X290169286Y-141078572D01*
X290169286Y-140900000D01*
X290205000Y-140792857D01*
X290276429Y-140721429D01*
X290347857Y-140685714D01*
X290490714Y-140650000D01*
X290597857Y-140650000D01*
X290740714Y-140685714D01*
X290812143Y-140721429D01*
X290883571Y-140792857D01*
X290919286Y-140900000D01*
X290919286Y-141078572D01*
D13*
X288690000Y-132180000D02*
X288690000Y-132020000D01*
X287880000Y-132180000D02*
X288690000Y-132180000D01*
X287880000Y-132020000D02*
X287880000Y-132180000D01*
X288680000Y-132020000D02*
X287880000Y-132020000D01*
D14*
X289628571Y-126232857D02*
X290228571Y-126232857D01*
X289800000Y-126432857D01*
X290228571Y-126632857D01*
X289628571Y-126632857D01*
X289628571Y-126918571D02*
X290228571Y-126918571D01*
X290228571Y-127147143D01*
X290200000Y-127204285D01*
X290171429Y-127232857D01*
X290114286Y-127261428D01*
X290028571Y-127261428D01*
X289971429Y-127232857D01*
X289942857Y-127204285D01*
X289914286Y-127147143D01*
X289914286Y-126918571D01*
X290228571Y-127518571D02*
X289742857Y-127518571D01*
X289685714Y-127547143D01*
X289657143Y-127575714D01*
X289628571Y-127632857D01*
X289628571Y-127747143D01*
X289657143Y-127804285D01*
X289685714Y-127832857D01*
X289742857Y-127861428D01*
X290228571Y-127861428D01*
X289628571Y-128175714D02*
X289628571Y-128289999D01*
X289657143Y-128347142D01*
X289685714Y-128375714D01*
X289771429Y-128432856D01*
X289885714Y-128461428D01*
X290114286Y-128461428D01*
X290171429Y-128432856D01*
X290200000Y-128404285D01*
X290228571Y-128347142D01*
X290228571Y-128232856D01*
X290200000Y-128175714D01*
X290171429Y-128147142D01*
X290114286Y-128118571D01*
X289971429Y-128118571D01*
X289914286Y-128147142D01*
X289885714Y-128175714D01*
X289857143Y-128232856D01*
X289857143Y-128347142D01*
X289885714Y-128404285D01*
X289914286Y-128432856D01*
X289971429Y-128461428D01*
X290171429Y-128690000D02*
X290200000Y-128718571D01*
X290228571Y-128775714D01*
X290228571Y-128918571D01*
X290200000Y-128975714D01*
X290171429Y-129004285D01*
X290114286Y-129032857D01*
X290057143Y-129032857D01*
X289971429Y-129004285D01*
X289628571Y-128661428D01*
X289628571Y-129032857D01*
X290228571Y-129575714D02*
X290228571Y-129290000D01*
X289942857Y-129261429D01*
X289971429Y-129290000D01*
X290000000Y-129347143D01*
X290000000Y-129490000D01*
X289971429Y-129547143D01*
X289942857Y-129575714D01*
X289885714Y-129604286D01*
X289742857Y-129604286D01*
X289685714Y-129575714D01*
X289657143Y-129547143D01*
X289628571Y-129490000D01*
X289628571Y-129347143D01*
X289657143Y-129290000D01*
X289685714Y-129261429D01*
X290228571Y-129975715D02*
X290228571Y-130032858D01*
X290200000Y-130090001D01*
X290171429Y-130118572D01*
X290114286Y-130147143D01*
X290000000Y-130175715D01*
X289857143Y-130175715D01*
X289742857Y-130147143D01*
X289685714Y-130118572D01*
X289657143Y-130090001D01*
X289628571Y-130032858D01*
X289628571Y-129975715D01*
X289657143Y-129918572D01*
X289685714Y-129890001D01*
X289742857Y-129861429D01*
X289857143Y-129832858D01*
X290000000Y-129832858D01*
X290114286Y-129861429D01*
X290171429Y-129890001D01*
X290200000Y-129918572D01*
X290228571Y-129975715D01*
X285328571Y-132910000D02*
X285614285Y-132910000D01*
X285271428Y-133081429D02*
X285471428Y-132481429D01*
X285671428Y-133081429D01*
X285871428Y-133081429D02*
X285871428Y-132481429D01*
X286014285Y-132481429D01*
X286100000Y-132510000D01*
X286157142Y-132567143D01*
X286185714Y-132624286D01*
X286214285Y-132738571D01*
X286214285Y-132824286D01*
X286185714Y-132938571D01*
X286157142Y-132995714D01*
X286100000Y-133052857D01*
X286014285Y-133081429D01*
X285871428Y-133081429D01*
X286442857Y-133052857D02*
X286528571Y-133081429D01*
X286671428Y-133081429D01*
X286728571Y-133052857D01*
X286757142Y-133024286D01*
X286785714Y-132967143D01*
X286785714Y-132910000D01*
X286757142Y-132852857D01*
X286728571Y-132824286D01*
X286671428Y-132795714D01*
X286557142Y-132767143D01*
X286500000Y-132738571D01*
X286471428Y-132710000D01*
X286442857Y-132652857D01*
X286442857Y-132595714D01*
X286471428Y-132538571D01*
X286500000Y-132510000D01*
X286557142Y-132481429D01*
X286700000Y-132481429D01*
X286785714Y-132510000D01*
X287357143Y-133081429D02*
X287014286Y-133081429D01*
X287185714Y-133081429D02*
X287185714Y-132481429D01*
X287128571Y-132567143D01*
X287071429Y-132624286D01*
X287014286Y-132652857D01*
X287585715Y-132538571D02*
X287614286Y-132510000D01*
X287671429Y-132481429D01*
X287814286Y-132481429D01*
X287871429Y-132510000D01*
X287900000Y-132538571D01*
X287928572Y-132595714D01*
X287928572Y-132652857D01*
X287900000Y-132738571D01*
X287557143Y-133081429D01*
X287928572Y-133081429D01*
X288214287Y-133081429D02*
X288328572Y-133081429D01*
X288385715Y-133052857D01*
X288414287Y-133024286D01*
X288471429Y-132938571D01*
X288500001Y-132824286D01*
X288500001Y-132595714D01*
X288471429Y-132538571D01*
X288442858Y-132510000D01*
X288385715Y-132481429D01*
X288271429Y-132481429D01*
X288214287Y-132510000D01*
X288185715Y-132538571D01*
X288157144Y-132595714D01*
X288157144Y-132738571D01*
X288185715Y-132795714D01*
X288214287Y-132824286D01*
X288271429Y-132852857D01*
X288385715Y-132852857D01*
X288442858Y-132824286D01*
X288471429Y-132795714D01*
X288500001Y-132738571D01*
X288728573Y-132538571D02*
X288757144Y-132510000D01*
X288814287Y-132481429D01*
X288957144Y-132481429D01*
X289014287Y-132510000D01*
X289042858Y-132538571D01*
X289071430Y-132595714D01*
X289071430Y-132652857D01*
X289042858Y-132738571D01*
X288700001Y-133081429D01*
X289071430Y-133081429D01*
X266484285Y-144201429D02*
X266827142Y-144201429D01*
X266655713Y-144801429D02*
X266655713Y-144201429D01*
X267027142Y-144801429D02*
X267027142Y-144201429D01*
X267255714Y-144201429D01*
X267312856Y-144230000D01*
X267341428Y-144258571D01*
X267369999Y-144315714D01*
X267369999Y-144401429D01*
X267341428Y-144458571D01*
X267312856Y-144487143D01*
X267255714Y-144515714D01*
X267027142Y-144515714D01*
X267598571Y-144772857D02*
X267684285Y-144801429D01*
X267827142Y-144801429D01*
X267884285Y-144772857D01*
X267912856Y-144744286D01*
X267941428Y-144687143D01*
X267941428Y-144630000D01*
X267912856Y-144572857D01*
X267884285Y-144544286D01*
X267827142Y-144515714D01*
X267712856Y-144487143D01*
X267655714Y-144458571D01*
X267627142Y-144430000D01*
X267598571Y-144372857D01*
X267598571Y-144315714D01*
X267627142Y-144258571D01*
X267655714Y-144230000D01*
X267712856Y-144201429D01*
X267855714Y-144201429D01*
X267941428Y-144230000D01*
X268455714Y-144201429D02*
X268341428Y-144201429D01*
X268284285Y-144230000D01*
X268255714Y-144258571D01*
X268198571Y-144344286D01*
X268170000Y-144458571D01*
X268170000Y-144687143D01*
X268198571Y-144744286D01*
X268227143Y-144772857D01*
X268284285Y-144801429D01*
X268398571Y-144801429D01*
X268455714Y-144772857D01*
X268484285Y-144744286D01*
X268512857Y-144687143D01*
X268512857Y-144544286D01*
X268484285Y-144487143D01*
X268455714Y-144458571D01*
X268398571Y-144430000D01*
X268284285Y-144430000D01*
X268227143Y-144458571D01*
X268198571Y-144487143D01*
X268170000Y-144544286D01*
X268712857Y-144201429D02*
X269084286Y-144201429D01*
X268884286Y-144430000D01*
X268970000Y-144430000D01*
X269027143Y-144458571D01*
X269055714Y-144487143D01*
X269084286Y-144544286D01*
X269084286Y-144687143D01*
X269055714Y-144744286D01*
X269027143Y-144772857D01*
X268970000Y-144801429D01*
X268798572Y-144801429D01*
X268741429Y-144772857D01*
X268712857Y-144744286D01*
X269455715Y-144201429D02*
X269512858Y-144201429D01*
X269570001Y-144230000D01*
X269598572Y-144258571D01*
X269627143Y-144315714D01*
X269655715Y-144430000D01*
X269655715Y-144572857D01*
X269627143Y-144687143D01*
X269598572Y-144744286D01*
X269570001Y-144772857D01*
X269512858Y-144801429D01*
X269455715Y-144801429D01*
X269398572Y-144772857D01*
X269370001Y-144744286D01*
X269341429Y-144687143D01*
X269312858Y-144572857D01*
X269312858Y-144430000D01*
X269341429Y-144315714D01*
X269370001Y-144258571D01*
X269398572Y-144230000D01*
X269455715Y-144201429D01*
X270027144Y-144201429D02*
X270084287Y-144201429D01*
X270141430Y-144230000D01*
X270170001Y-144258571D01*
X270198572Y-144315714D01*
X270227144Y-144430000D01*
X270227144Y-144572857D01*
X270198572Y-144687143D01*
X270170001Y-144744286D01*
X270141430Y-144772857D01*
X270084287Y-144801429D01*
X270027144Y-144801429D01*
X269970001Y-144772857D01*
X269941430Y-144744286D01*
X269912858Y-144687143D01*
X269884287Y-144572857D01*
X269884287Y-144430000D01*
X269912858Y-144315714D01*
X269941430Y-144258571D01*
X269970001Y-144230000D01*
X270027144Y-144201429D01*
X270798573Y-144801429D02*
X270455716Y-144801429D01*
X270627144Y-144801429D02*
X270627144Y-144201429D01*
X270570001Y-144287143D01*
X270512859Y-144344286D01*
X270455716Y-144372857D01*
D12*
X294078572Y-134588095D02*
X294721429Y-134588095D01*
X294114286Y-132012857D02*
X294685715Y-132012857D01*
X294400001Y-132294762D02*
X294400001Y-131730952D01*
D14*
X291099524Y-131695714D02*
X291480476Y-131695714D01*
X291290000Y-131886190D02*
X291290000Y-131505238D01*
D12*
X294094286Y-126912857D02*
X294665715Y-126912857D01*
X294380001Y-127194762D02*
X294380001Y-126630952D01*
D13*
X277550000Y-129140000D02*
X278460000Y-129140000D01*
X277980000Y-128770000D02*
X277980000Y-128700000D01*
X278000000Y-130530000D02*
X278000000Y-129530000D01*
D12*
X294098572Y-129568095D02*
X294741429Y-129568095D01*
X279976667Y-127633332D02*
X279276667Y-127633332D01*
X279243333Y-126799999D02*
X280143333Y-127399999D01*
X279276667Y-126433333D02*
X279276667Y-126300000D01*
X279310000Y-126233333D01*
X279376667Y-126166666D01*
X279510000Y-126133333D01*
X279743333Y-126133333D01*
X279876667Y-126166666D01*
X279943333Y-126233333D01*
X279976667Y-126300000D01*
X279976667Y-126433333D01*
X279943333Y-126500000D01*
X279876667Y-126566666D01*
X279743333Y-126600000D01*
X279510000Y-126600000D01*
X279376667Y-126566666D01*
X279310000Y-126500000D01*
X279276667Y-126433333D01*
D13*
X265900000Y-132000000D02*
X265900000Y-125500000D01*
X272400000Y-132000000D02*
X265900000Y-132000000D01*
X272400000Y-125500000D02*
X272400000Y-132000000D01*
X265900000Y-125500000D02*
X272400000Y-125500000D01*
X284232500Y-149712500D02*
X284332500Y-149612500D01*
X284232500Y-149812500D02*
X284332500Y-149812500D01*
D10*
X285032500Y-149712500D02*
X283332500Y-149712500D01*
X283932500Y-150112500D02*
X283932500Y-149312500D01*
D13*
X284432500Y-149312500D02*
X284032500Y-149712500D01*
X284432500Y-150112500D02*
X284032500Y-149712500D01*
X284432500Y-149312500D02*
X284432500Y-150112500D01*
D15*
X282254286Y-131504762D02*
X281587619Y-131504762D01*
X282159048Y-131504762D02*
X282206667Y-131552381D01*
X282254286Y-131647619D01*
X282254286Y-131790477D01*
X282206667Y-131885715D01*
X282111429Y-131933334D01*
X281587619Y-131933334D01*
X281587619Y-132980953D02*
X282063810Y-132647619D01*
X281587619Y-132409524D02*
X282587619Y-132409524D01*
X282587619Y-132790477D01*
X282540000Y-132885715D01*
X282492381Y-132933334D01*
X282397143Y-132980953D01*
X282254286Y-132980953D01*
X282159048Y-132933334D01*
X282111429Y-132885715D01*
X282063810Y-132790477D01*
X282063810Y-132409524D01*
X282111429Y-133742858D02*
X282111429Y-133409524D01*
X281587619Y-133409524D02*
X282587619Y-133409524D01*
X282587619Y-133885715D01*
X282587619Y-134742858D02*
X282587619Y-134266667D01*
X282111429Y-134219048D01*
X282159048Y-134266667D01*
X282206667Y-134361905D01*
X282206667Y-134600001D01*
X282159048Y-134695239D01*
X282111429Y-134742858D01*
X282016190Y-134790477D01*
X281778095Y-134790477D01*
X281682857Y-134742858D01*
X281635238Y-134695239D01*
X281587619Y-134600001D01*
X281587619Y-134361905D01*
X281635238Y-134266667D01*
X281682857Y-134219048D01*
X282492381Y-135171429D02*
X282540000Y-135219048D01*
X282587619Y-135314286D01*
X282587619Y-135552382D01*
X282540000Y-135647620D01*
X282492381Y-135695239D01*
X282397143Y-135742858D01*
X282301905Y-135742858D01*
X282159048Y-135695239D01*
X281587619Y-135123810D01*
X281587619Y-135742858D01*
D12*
X294257143Y-138263572D02*
X294292381Y-138156429D01*
X294327619Y-138120714D01*
X294398095Y-138085000D01*
X294503810Y-138085000D01*
X294574286Y-138120714D01*
X294609524Y-138156429D01*
X294644762Y-138227857D01*
X294644762Y-138513572D01*
X293904762Y-138513572D01*
X293904762Y-138263572D01*
X293940000Y-138192143D01*
X293975238Y-138156429D01*
X294045714Y-138120714D01*
X294116190Y-138120714D01*
X294186667Y-138156429D01*
X294221905Y-138192143D01*
X294257143Y-138263572D01*
X294257143Y-138513572D01*
X294644762Y-137763572D02*
X293904762Y-137763572D01*
X294433333Y-137442143D02*
X294433333Y-137085000D01*
X294644762Y-137513571D02*
X293904762Y-137263571D01*
X294644762Y-137013571D01*
X294609524Y-136799286D02*
X294644762Y-136692143D01*
X294644762Y-136513572D01*
X294609524Y-136442143D01*
X294574286Y-136406429D01*
X294503810Y-136370714D01*
X294433333Y-136370714D01*
X294362857Y-136406429D01*
X294327619Y-136442143D01*
X294292381Y-136513572D01*
X294257143Y-136656429D01*
X294221905Y-136727857D01*
X294186667Y-136763572D01*
X294116190Y-136799286D01*
X294045714Y-136799286D01*
X293975238Y-136763572D01*
X293940000Y-136727857D01*
X293904762Y-136656429D01*
X293904762Y-136477857D01*
X293940000Y-136370714D01*
X293804286Y-128897857D02*
X293839524Y-128933571D01*
X293874762Y-129040714D01*
X293874762Y-129112143D01*
X293839524Y-129219286D01*
X293769048Y-129290714D01*
X293698571Y-129326429D01*
X293557619Y-129362143D01*
X293451905Y-129362143D01*
X293310952Y-129326429D01*
X293240476Y-129290714D01*
X293170000Y-129219286D01*
X293134762Y-129112143D01*
X293134762Y-129040714D01*
X293170000Y-128933571D01*
X293205238Y-128897857D01*
X293874762Y-128576429D02*
X293134762Y-128576429D01*
X293487143Y-128576429D02*
X293487143Y-128147857D01*
X293874762Y-128147857D02*
X293134762Y-128147857D01*
X293205238Y-127826429D02*
X293170000Y-127790715D01*
X293134762Y-127719286D01*
X293134762Y-127540715D01*
X293170000Y-127469286D01*
X293205238Y-127433572D01*
X293275714Y-127397857D01*
X293346190Y-127397857D01*
X293451905Y-127433572D01*
X293874762Y-127862143D01*
X293874762Y-127397857D01*
X293924286Y-133837857D02*
X293959524Y-133873571D01*
X293994762Y-133980714D01*
X293994762Y-134052143D01*
X293959524Y-134159286D01*
X293889048Y-134230714D01*
X293818571Y-134266429D01*
X293677619Y-134302143D01*
X293571905Y-134302143D01*
X293430952Y-134266429D01*
X293360476Y-134230714D01*
X293290000Y-134159286D01*
X293254762Y-134052143D01*
X293254762Y-133980714D01*
X293290000Y-133873571D01*
X293325238Y-133837857D01*
X293994762Y-133516429D02*
X293254762Y-133516429D01*
X293607143Y-133516429D02*
X293607143Y-133087857D01*
X293994762Y-133087857D02*
X293254762Y-133087857D01*
X293994762Y-132337857D02*
X293994762Y-132766429D01*
X293994762Y-132552143D02*
X293254762Y-132552143D01*
X293360476Y-132623572D01*
X293430952Y-132695000D01*
X293466190Y-132766429D01*
D13*
X270243607Y-139655000D02*
G75*
G03X270243607Y-139655000I-223607J0D01*
G01*
X275033113Y-137010000D02*
G75*
G03X275033113Y-137010000I-403113J0D01*
G01*
D12*
X280000000Y-129816666D02*
X280033333Y-129850000D01*
X280066667Y-129950000D01*
X280066667Y-130016666D01*
X280033333Y-130116666D01*
X279966667Y-130183333D01*
X279900000Y-130216666D01*
X279766667Y-130250000D01*
X279666667Y-130250000D01*
X279533333Y-130216666D01*
X279466667Y-130183333D01*
X279400000Y-130116666D01*
X279366667Y-130016666D01*
X279366667Y-129950000D01*
X279400000Y-129850000D01*
X279433333Y-129816666D01*
X280066667Y-129183333D02*
X280066667Y-129516666D01*
X279366667Y-129516666D01*
X280066667Y-128949999D02*
X279366667Y-128949999D01*
X280066667Y-128549999D02*
X279666667Y-128849999D01*
X279366667Y-128549999D02*
X279766667Y-128949999D01*
X293875000Y-142491428D02*
X293839286Y-142562857D01*
X293839286Y-142670000D01*
X293875000Y-142777143D01*
X293946429Y-142848571D01*
X294017857Y-142884286D01*
X294160714Y-142920000D01*
X294267857Y-142920000D01*
X294410714Y-142884286D01*
X294482143Y-142848571D01*
X294553571Y-142777143D01*
X294589286Y-142670000D01*
X294589286Y-142598571D01*
X294553571Y-142491428D01*
X294517857Y-142455714D01*
X294267857Y-142455714D01*
X294267857Y-142598571D01*
X294589286Y-142134286D02*
X293839286Y-142134286D01*
X294589286Y-141705714D01*
X293839286Y-141705714D01*
X294589286Y-141348572D02*
X293839286Y-141348572D01*
X293839286Y-141170000D01*
X293875000Y-141062857D01*
X293946429Y-140991429D01*
X294017857Y-140955714D01*
X294160714Y-140920000D01*
X294267857Y-140920000D01*
X294410714Y-140955714D01*
X294482143Y-140991429D01*
X294553571Y-141062857D01*
X294589286Y-141170000D01*
X294589286Y-141348572D01*
X269199286Y-137921428D02*
X269949286Y-137671428D01*
X269199286Y-137421428D01*
X269949286Y-137171429D02*
X269199286Y-137171429D01*
X269949286Y-136814286D02*
X269199286Y-136814286D01*
X269949286Y-136385714D01*
X269199286Y-136385714D01*
D16*
X269900000Y-127673000D02*
X269320000Y-127673000D01*
D17*
X297320000Y-140640000D02*
X294660000Y-140640000D01*
X297320000Y-143240000D02*
X297320000Y-140640000D01*
X294660000Y-143240000D02*
X294660000Y-140640000D01*
X297320000Y-143240000D02*
X294660000Y-143240000D01*
X297320000Y-144510000D02*
X297320000Y-145840000D01*
X297320000Y-145840000D02*
X295990000Y-145840000D01*
X294940000Y-135900000D02*
X297600000Y-135900000D01*
X294940000Y-128220000D02*
X294940000Y-135900000D01*
X297600000Y-128220000D02*
X297600000Y-135900000D01*
X294940000Y-128220000D02*
X297600000Y-128220000D01*
X294940000Y-126950000D02*
X294940000Y-125620000D01*
X294940000Y-125620000D02*
X296270000Y-125620000D01*
D18*
X278676000Y-141909000D02*
X278168000Y-141909000D01*
X278168000Y-141909000D02*
X278168000Y-142671000D01*
X278168000Y-142671000D02*
X278676000Y-142671000D01*
X279184000Y-141909000D02*
X279692000Y-141909000D01*
X279692000Y-141909000D02*
X279692000Y-142671000D01*
X279692000Y-142671000D02*
X279184000Y-142671000D01*
D17*
X274250000Y-143870000D02*
X276150000Y-143870000D01*
X275650000Y-141550000D02*
X274250000Y-141550000D01*
X290020000Y-140880000D02*
X289020000Y-140880000D01*
X289020000Y-140880000D02*
X289020000Y-142980000D01*
X290020000Y-140880000D02*
X290020000Y-142980000D01*
D18*
X288506000Y-143629000D02*
X287998000Y-143629000D01*
X287998000Y-143629000D02*
X287998000Y-144391000D01*
X287998000Y-144391000D02*
X288506000Y-144391000D01*
X289014000Y-143629000D02*
X289522000Y-143629000D01*
X289522000Y-143629000D02*
X289522000Y-144391000D01*
X289522000Y-144391000D02*
X289014000Y-144391000D01*
X286726000Y-143629000D02*
X286218000Y-143629000D01*
X286218000Y-143629000D02*
X286218000Y-144391000D01*
X286218000Y-144391000D02*
X286726000Y-144391000D01*
X287234000Y-143629000D02*
X287742000Y-143629000D01*
X287742000Y-143629000D02*
X287742000Y-144391000D01*
X287742000Y-144391000D02*
X287234000Y-144391000D01*
X285004000Y-144401000D02*
X285512000Y-144401000D01*
X285512000Y-144401000D02*
X285512000Y-143639000D01*
X285512000Y-143639000D02*
X285004000Y-143639000D01*
X284496000Y-144401000D02*
X283988000Y-144401000D01*
X283988000Y-144401000D02*
X283988000Y-143639000D01*
X283988000Y-143639000D02*
X284496000Y-143639000D01*
X281759000Y-142444000D02*
X281759000Y-142952000D01*
X281759000Y-142952000D02*
X282521000Y-142952000D01*
X282521000Y-142952000D02*
X282521000Y-142444000D01*
X281759000Y-141936000D02*
X281759000Y-141428000D01*
X281759000Y-141428000D02*
X282521000Y-141428000D01*
X282521000Y-141428000D02*
X282521000Y-141936000D01*
X287109000Y-141274000D02*
X287109000Y-141782000D01*
X287109000Y-141782000D02*
X287871000Y-141782000D01*
X287871000Y-141782000D02*
X287871000Y-141274000D01*
X287109000Y-140766000D02*
X287109000Y-140258000D01*
X287109000Y-140258000D02*
X287871000Y-140258000D01*
X287871000Y-140258000D02*
X287871000Y-140766000D01*
D17*
X284340000Y-140550000D02*
X284340000Y-139550000D01*
X284340000Y-139550000D02*
X282240000Y-139550000D01*
X284340000Y-140550000D02*
X282240000Y-140550000D01*
D18*
X282181000Y-137516000D02*
X282181000Y-137008000D01*
X282181000Y-137008000D02*
X281419000Y-137008000D01*
X281419000Y-137008000D02*
X281419000Y-137516000D01*
X282181000Y-138024000D02*
X282181000Y-138532000D01*
X282181000Y-138532000D02*
X281419000Y-138532000D01*
X281419000Y-138532000D02*
X281419000Y-138024000D01*
X279184000Y-143651000D02*
X279692000Y-143651000D01*
X279692000Y-143651000D02*
X279692000Y-142889000D01*
X279692000Y-142889000D02*
X279184000Y-142889000D01*
X278676000Y-143651000D02*
X278168000Y-143651000D01*
X278168000Y-143651000D02*
X278168000Y-142889000D01*
X278168000Y-142889000D02*
X278676000Y-142889000D01*
X276929000Y-143354000D02*
X276929000Y-143862000D01*
X276929000Y-143862000D02*
X277691000Y-143862000D01*
X277691000Y-143862000D02*
X277691000Y-143354000D01*
X276929000Y-142846000D02*
X276929000Y-142338000D01*
X276929000Y-142338000D02*
X277691000Y-142338000D01*
X277691000Y-142338000D02*
X277691000Y-142846000D01*
X272654000Y-144641000D02*
X273162000Y-144641000D01*
X273162000Y-144641000D02*
X273162000Y-143879000D01*
X273162000Y-143879000D02*
X272654000Y-143879000D01*
X272146000Y-144641000D02*
X271638000Y-144641000D01*
X271638000Y-144641000D02*
X271638000Y-143879000D01*
X271638000Y-143879000D02*
X272146000Y-143879000D01*
D17*
X284610000Y-137620000D02*
X284610000Y-137195000D01*
X288910000Y-133320000D02*
X288910000Y-133745000D01*
X284610000Y-133320000D02*
X284610000Y-133745000D01*
X288910000Y-137620000D02*
X288485000Y-137620000D01*
X288910000Y-133320000D02*
X288485000Y-133320000D01*
X284610000Y-133320000D02*
X285035000Y-133320000D01*
X284610000Y-137620000D02*
X285035000Y-137620000D01*
D18*
X289509000Y-133704000D02*
X289509000Y-134212000D01*
X289509000Y-134212000D02*
X290271000Y-134212000D01*
X290271000Y-134212000D02*
X290271000Y-133704000D01*
X289509000Y-133196000D02*
X289509000Y-132688000D01*
X289509000Y-132688000D02*
X290271000Y-132688000D01*
X290271000Y-132688000D02*
X290271000Y-133196000D01*
X289219000Y-138164000D02*
X289219000Y-138672000D01*
X289219000Y-138672000D02*
X289981000Y-138672000D01*
X289981000Y-138672000D02*
X289981000Y-138164000D01*
X289219000Y-137656000D02*
X289219000Y-137148000D01*
X289219000Y-137148000D02*
X289981000Y-137148000D01*
X289981000Y-137148000D02*
X289981000Y-137656000D01*
X284211000Y-136806000D02*
X284211000Y-136298000D01*
X284211000Y-136298000D02*
X283449000Y-136298000D01*
X283449000Y-136298000D02*
X283449000Y-136806000D01*
X284211000Y-137314000D02*
X284211000Y-137822000D01*
X284211000Y-137822000D02*
X283449000Y-137822000D01*
X283449000Y-137822000D02*
X283449000Y-137314000D01*
X283221000Y-136806000D02*
X283221000Y-136298000D01*
X283221000Y-136298000D02*
X282459000Y-136298000D01*
X282459000Y-136298000D02*
X282459000Y-136806000D01*
X283221000Y-137314000D02*
X283221000Y-137822000D01*
X283221000Y-137822000D02*
X282459000Y-137822000D01*
X282459000Y-137822000D02*
X282459000Y-137314000D01*
X286516000Y-130189000D02*
X286008000Y-130189000D01*
X286008000Y-130189000D02*
X286008000Y-130951000D01*
X286008000Y-130951000D02*
X286516000Y-130951000D01*
X287024000Y-130189000D02*
X287532000Y-130189000D01*
X287532000Y-130189000D02*
X287532000Y-130951000D01*
X287532000Y-130951000D02*
X287024000Y-130951000D01*
X290981000Y-131386000D02*
X290981000Y-130878000D01*
X290981000Y-130878000D02*
X290219000Y-130878000D01*
X290219000Y-130878000D02*
X290219000Y-131386000D01*
X290981000Y-131894000D02*
X290981000Y-132402000D01*
X290981000Y-132402000D02*
X290219000Y-132402000D01*
X290219000Y-132402000D02*
X290219000Y-131894000D01*
X286516000Y-131139000D02*
X286008000Y-131139000D01*
X286008000Y-131139000D02*
X286008000Y-131901000D01*
X286008000Y-131901000D02*
X286516000Y-131901000D01*
X287024000Y-131139000D02*
X287532000Y-131139000D01*
X287532000Y-131139000D02*
X287532000Y-131901000D01*
X287532000Y-131901000D02*
X287024000Y-131901000D01*
D10*
X266670000Y-140525000D02*
X266670000Y-142975000D01*
X269970000Y-139800000D02*
X269970000Y-142975000D01*
D18*
X268186000Y-138589000D02*
X267678000Y-138589000D01*
X267678000Y-138589000D02*
X267678000Y-139351000D01*
X267678000Y-139351000D02*
X268186000Y-139351000D01*
X268694000Y-138589000D02*
X269202000Y-138589000D01*
X269202000Y-138589000D02*
X269202000Y-139351000D01*
X269202000Y-139351000D02*
X268694000Y-139351000D01*
X291004000Y-139714000D02*
X291004000Y-140222000D01*
X291004000Y-140222000D02*
X291766000Y-140222000D01*
X291766000Y-140222000D02*
X291766000Y-139714000D01*
X291004000Y-139206000D02*
X291004000Y-138698000D01*
X291004000Y-138698000D02*
X291766000Y-138698000D01*
X291766000Y-138698000D02*
X291766000Y-139206000D01*
X273689000Y-138854000D02*
X273689000Y-139362000D01*
X273689000Y-139362000D02*
X274451000Y-139362000D01*
X274451000Y-139362000D02*
X274451000Y-138854000D01*
X273689000Y-138346000D02*
X273689000Y-137838000D01*
X273689000Y-137838000D02*
X274451000Y-137838000D01*
X274451000Y-137838000D02*
X274451000Y-138346000D01*
D10*
X287350000Y-129680000D02*
X286950000Y-129680000D01*
X287350000Y-129680000D02*
X287350000Y-129280000D01*
X287350000Y-126480000D02*
X286950000Y-126480000D01*
X287350000Y-126480000D02*
X287350000Y-126880000D01*
X284150000Y-126480000D02*
X284550000Y-126480000D01*
X284150000Y-126480000D02*
X284150000Y-126880000D01*
X284150000Y-129680000D02*
X284150000Y-129280000D01*
D18*
X284984000Y-130991000D02*
X285492000Y-130991000D01*
X285492000Y-130991000D02*
X285492000Y-130229000D01*
X285492000Y-130229000D02*
X284984000Y-130229000D01*
X284476000Y-130991000D02*
X283968000Y-130991000D01*
X283968000Y-130991000D02*
X283968000Y-130229000D01*
X283968000Y-130229000D02*
X284476000Y-130229000D01*
X283721000Y-127556000D02*
X283721000Y-127048000D01*
X283721000Y-127048000D02*
X282959000Y-127048000D01*
X282959000Y-127048000D02*
X282959000Y-127556000D01*
X283721000Y-128064000D02*
X283721000Y-128572000D01*
X283721000Y-128572000D02*
X282959000Y-128572000D01*
X282959000Y-128572000D02*
X282959000Y-128064000D01*
X288456000Y-126209000D02*
X287948000Y-126209000D01*
X287948000Y-126209000D02*
X287948000Y-126971000D01*
X287948000Y-126971000D02*
X288456000Y-126971000D01*
X288964000Y-126209000D02*
X289472000Y-126209000D01*
X289472000Y-126209000D02*
X289472000Y-126971000D01*
X289472000Y-126971000D02*
X288964000Y-126971000D01*
X288771000Y-128156000D02*
X288771000Y-127648000D01*
X288771000Y-127648000D02*
X288009000Y-127648000D01*
X288009000Y-127648000D02*
X288009000Y-128156000D01*
X288771000Y-128664000D02*
X288771000Y-129172000D01*
X288771000Y-129172000D02*
X288009000Y-129172000D01*
X288009000Y-129172000D02*
X288009000Y-128664000D01*
D17*
X277470000Y-128250000D02*
X277470000Y-128750000D01*
X278530000Y-128750000D02*
X278530000Y-128250000D01*
D18*
X275459000Y-129294000D02*
X275459000Y-129802000D01*
X275459000Y-129802000D02*
X276221000Y-129802000D01*
X276221000Y-129802000D02*
X276221000Y-129294000D01*
X275459000Y-128786000D02*
X275459000Y-128278000D01*
X275459000Y-128278000D02*
X276221000Y-128278000D01*
X276221000Y-128278000D02*
X276221000Y-128786000D01*
X273346000Y-129069000D02*
X272838000Y-129069000D01*
X272838000Y-129069000D02*
X272838000Y-129831000D01*
X272838000Y-129831000D02*
X273346000Y-129831000D01*
X273854000Y-129069000D02*
X274362000Y-129069000D01*
X274362000Y-129069000D02*
X274362000Y-129831000D01*
X274362000Y-129831000D02*
X273854000Y-129831000D01*
D19*
X282770000Y-130830000D02*
X280230000Y-130830000D01*
X280230000Y-130830000D02*
X280230000Y-125750000D01*
X280230000Y-125750000D02*
X282770000Y-125750000D01*
X282770000Y-125750000D02*
X282770000Y-130830000D01*
D17*
X280990000Y-137950000D02*
X279990000Y-137950000D01*
X279990000Y-137950000D02*
X279990000Y-140050000D01*
X280990000Y-137950000D02*
X280990000Y-140050000D01*
D18*
X285694000Y-139171000D02*
X286202000Y-139171000D01*
X286202000Y-139171000D02*
X286202000Y-138409000D01*
X286202000Y-138409000D02*
X285694000Y-138409000D01*
X285186000Y-139171000D02*
X284678000Y-139171000D01*
X284678000Y-139171000D02*
X284678000Y-138409000D01*
X284678000Y-138409000D02*
X285186000Y-138409000D01*
X289881000Y-131416000D02*
X289881000Y-130908000D01*
X289881000Y-130908000D02*
X289119000Y-130908000D01*
X289119000Y-130908000D02*
X289119000Y-131416000D01*
X289881000Y-131924000D02*
X289881000Y-132432000D01*
X289881000Y-132432000D02*
X289119000Y-132432000D01*
X289119000Y-132432000D02*
X289119000Y-131924000D01*
X270659000Y-142704000D02*
X270659000Y-143212000D01*
X270659000Y-143212000D02*
X271421000Y-143212000D01*
X271421000Y-143212000D02*
X271421000Y-142704000D01*
X270659000Y-142196000D02*
X270659000Y-141688000D01*
X270659000Y-141688000D02*
X271421000Y-141688000D01*
X271421000Y-141688000D02*
X271421000Y-142196000D01*
X271759000Y-142714000D02*
X271759000Y-143222000D01*
X271759000Y-143222000D02*
X272521000Y-143222000D01*
X272521000Y-143222000D02*
X272521000Y-142714000D01*
X271759000Y-142206000D02*
X271759000Y-141698000D01*
X271759000Y-141698000D02*
X272521000Y-141698000D01*
X272521000Y-141698000D02*
X272521000Y-142206000D01*
X292104000Y-139714000D02*
X292104000Y-140222000D01*
X292104000Y-140222000D02*
X292866000Y-140222000D01*
X292866000Y-140222000D02*
X292866000Y-139714000D01*
X292104000Y-139206000D02*
X292104000Y-138698000D01*
X292104000Y-138698000D02*
X292866000Y-138698000D01*
X292866000Y-138698000D02*
X292866000Y-139206000D01*
X291136000Y-133809000D02*
X290628000Y-133809000D01*
X290628000Y-133809000D02*
X290628000Y-134571000D01*
X290628000Y-134571000D02*
X291136000Y-134571000D01*
X291644000Y-133809000D02*
X292152000Y-133809000D01*
X292152000Y-133809000D02*
X292152000Y-134571000D01*
X292152000Y-134571000D02*
X291644000Y-134571000D01*
X291716000Y-134889000D02*
X291208000Y-134889000D01*
X291208000Y-134889000D02*
X291208000Y-135651000D01*
X291208000Y-135651000D02*
X291716000Y-135651000D01*
X292224000Y-134889000D02*
X292732000Y-134889000D01*
X292732000Y-134889000D02*
X292732000Y-135651000D01*
X292732000Y-135651000D02*
X292224000Y-135651000D01*
X291146000Y-135909000D02*
X290638000Y-135909000D01*
X290638000Y-135909000D02*
X290638000Y-136671000D01*
X290638000Y-136671000D02*
X291146000Y-136671000D01*
X291654000Y-135909000D02*
X292162000Y-135909000D01*
X292162000Y-135909000D02*
X292162000Y-136671000D01*
X292162000Y-136671000D02*
X291654000Y-136671000D01*
X291756000Y-136899000D02*
X291248000Y-136899000D01*
X291248000Y-136899000D02*
X291248000Y-137661000D01*
X291248000Y-137661000D02*
X291756000Y-137661000D01*
X292264000Y-136899000D02*
X292772000Y-136899000D01*
X292772000Y-136899000D02*
X292772000Y-137661000D01*
X292772000Y-137661000D02*
X292264000Y-137661000D01*
D17*
X279740000Y-137950000D02*
X278740000Y-137950000D01*
X278740000Y-137950000D02*
X278740000Y-140050000D01*
X279740000Y-137950000D02*
X279740000Y-140050000D01*
D19*
X293650000Y-145720000D02*
X291110000Y-145720000D01*
X291110000Y-145720000D02*
X291110000Y-140640000D01*
X291110000Y-140640000D02*
X293650000Y-140640000D01*
X293650000Y-140640000D02*
X293650000Y-145720000D01*
D20*
X273313000Y-139255000D02*
X271027000Y-139255000D01*
X271027000Y-139255000D02*
X271027000Y-137985000D01*
X271027000Y-137985000D02*
X273313000Y-137985000D01*
X273313000Y-137985000D02*
X273313000Y-139255000D01*
D10*
X272500000Y-134050000D02*
X272500000Y-134100000D01*
X272500000Y-134050000D02*
X272500000Y-134000000D01*
X270500000Y-134050000D02*
X270500000Y-134100000D01*
X270500000Y-134050000D02*
X270500000Y-134000000D01*
X271500000Y-134850000D02*
X271650000Y-134850000D01*
X271500000Y-134850000D02*
X271350000Y-134850000D01*
X271500000Y-133250000D02*
X271650000Y-133250000D01*
X271500000Y-133250000D02*
X271350000Y-133250000D01*
D18*
X275831000Y-140296000D02*
X275831000Y-139788000D01*
X275831000Y-139788000D02*
X275069000Y-139788000D01*
X275069000Y-139788000D02*
X275069000Y-140296000D01*
X275831000Y-140804000D02*
X275831000Y-141312000D01*
X275831000Y-141312000D02*
X275069000Y-141312000D01*
X275069000Y-141312000D02*
X275069000Y-140804000D01*
X273454000Y-140581000D02*
X273962000Y-140581000D01*
X273962000Y-140581000D02*
X273962000Y-139819000D01*
X273962000Y-139819000D02*
X273454000Y-139819000D01*
X272946000Y-140581000D02*
X272438000Y-140581000D01*
X272438000Y-140581000D02*
X272438000Y-139819000D01*
X272438000Y-139819000D02*
X272946000Y-139819000D01*
X270181000Y-133946000D02*
X270181000Y-133438000D01*
X270181000Y-133438000D02*
X269419000Y-133438000D01*
X269419000Y-133438000D02*
X269419000Y-133946000D01*
X270181000Y-134454000D02*
X270181000Y-134962000D01*
X270181000Y-134962000D02*
X269419000Y-134962000D01*
X269419000Y-134962000D02*
X269419000Y-134454000D01*
X272819000Y-134354000D02*
X272819000Y-134862000D01*
X272819000Y-134862000D02*
X273581000Y-134862000D01*
X273581000Y-134862000D02*
X273581000Y-134354000D01*
X272819000Y-133846000D02*
X272819000Y-133338000D01*
X272819000Y-133338000D02*
X273581000Y-133338000D01*
X273581000Y-133338000D02*
X273581000Y-133846000D01*
X277231000Y-140296000D02*
X277231000Y-139788000D01*
X277231000Y-139788000D02*
X276469000Y-139788000D01*
X276469000Y-139788000D02*
X276469000Y-140296000D01*
X277231000Y-140804000D02*
X277231000Y-141312000D01*
X277231000Y-141312000D02*
X276469000Y-141312000D01*
X276469000Y-141312000D02*
X276469000Y-140804000D01*
D10*
X266645000Y-126673000D02*
X271445000Y-126673000D01*
X271445000Y-126673000D02*
X271445000Y-128673000D01*
X271345000Y-128673000D02*
X266645000Y-128673000D01*
X266645000Y-128673000D02*
X266645000Y-126673000D01*
X271445000Y-128673000D02*
X271345000Y-128673000D01*
D18*
X272654000Y-128081000D02*
X273162000Y-128081000D01*
X273162000Y-128081000D02*
X273162000Y-127319000D01*
X273162000Y-127319000D02*
X272654000Y-127319000D01*
X272146000Y-128081000D02*
X271638000Y-128081000D01*
X271638000Y-128081000D02*
X271638000Y-127319000D01*
X271638000Y-127319000D02*
X272146000Y-127319000D01*
X274381000Y-127846000D02*
X274381000Y-127338000D01*
X274381000Y-127338000D02*
X273619000Y-127338000D01*
X273619000Y-127338000D02*
X273619000Y-127846000D01*
X274381000Y-128354000D02*
X274381000Y-128862000D01*
X274381000Y-128862000D02*
X273619000Y-128862000D01*
X273619000Y-128862000D02*
X273619000Y-128354000D01*
X275854000Y-128081000D02*
X276362000Y-128081000D01*
X276362000Y-128081000D02*
X276362000Y-127319000D01*
X276362000Y-127319000D02*
X275854000Y-127319000D01*
X275346000Y-128081000D02*
X274838000Y-128081000D01*
X274838000Y-128081000D02*
X274838000Y-127319000D01*
X274838000Y-127319000D02*
X275346000Y-127319000D01*
X271926000Y-136889000D02*
X271418000Y-136889000D01*
X271418000Y-136889000D02*
X271418000Y-137651000D01*
X271418000Y-137651000D02*
X271926000Y-137651000D01*
X272434000Y-136889000D02*
X272942000Y-136889000D01*
X272942000Y-136889000D02*
X272942000Y-137651000D01*
X272942000Y-137651000D02*
X272434000Y-137651000D01*
D20*
X273643000Y-136635000D02*
X271357000Y-136635000D01*
X271357000Y-136635000D02*
X271357000Y-135365000D01*
X271357000Y-135365000D02*
X273643000Y-135365000D01*
X273643000Y-135365000D02*
X273643000Y-136635000D01*
D17*
X297540000Y-138670000D02*
X297660000Y-138670000D01*
X297660000Y-138670000D02*
X297660000Y-135890000D01*
X297660000Y-135890000D02*
X297540000Y-135890000D01*
X297540000Y-135890000D02*
X297540000Y-138670000D01*
X296270000Y-138670000D02*
X294880000Y-138670000D01*
X294880000Y-138670000D02*
X294880000Y-137280000D01*
D10*
X274675000Y-130875000D02*
X275275000Y-130875000D01*
X280925000Y-137125000D02*
X280325000Y-137125000D01*
X280925000Y-130875000D02*
X280325000Y-130875000D01*
X274675000Y-137125000D02*
X274675000Y-136525000D01*
X280925000Y-137125000D02*
X280925000Y-136525000D01*
X280925000Y-130875000D02*
X280925000Y-131475000D01*
X274675000Y-130875000D02*
X274675000Y-131475000D01*
D17*
X274950000Y-139650000D02*
X277350000Y-139650000D01*
X277350000Y-139650000D02*
X277350000Y-138050000D01*
X277350000Y-138050000D02*
X274950000Y-138050000D01*
X287810000Y-130810000D02*
X287810000Y-131310000D01*
X288750000Y-131310000D02*
X288750000Y-130810000D01*
D10*
X285835000Y-141015000D02*
X283685000Y-141015000D01*
X286660000Y-143265000D02*
X283685000Y-143265000D01*
D12*
X288590000Y-143080000D02*
X288590000Y-142380000D01*
X288460000Y-143155000D02*
X287460000Y-143155000D01*
D10*
X300252381Y-143348095D02*
X299252381Y-143348095D01*
X299252381Y-142967142D01*
X299300000Y-142871904D01*
X299347619Y-142824285D01*
X299442857Y-142776666D01*
X299585714Y-142776666D01*
X299680952Y-142824285D01*
X299728571Y-142871904D01*
X299776190Y-142967142D01*
X299776190Y-143348095D01*
X299252381Y-142443333D02*
X299252381Y-141824285D01*
X299633333Y-142157619D01*
X299633333Y-142014761D01*
X299680952Y-141919523D01*
X299728571Y-141871904D01*
X299823810Y-141824285D01*
X300061905Y-141824285D01*
X300157143Y-141871904D01*
X300204762Y-141919523D01*
X300252381Y-142014761D01*
X300252381Y-142300476D01*
X300204762Y-142395714D01*
X300157143Y-142443333D01*
D18*
X279108569Y-142370800D02*
X278941654Y-142472400D01*
X279108569Y-142544972D02*
X278758049Y-142544972D01*
X278758049Y-142428857D01*
X278774740Y-142399829D01*
X278791431Y-142385314D01*
X278824814Y-142370800D01*
X278874889Y-142370800D01*
X278908271Y-142385314D01*
X278924963Y-142399829D01*
X278941654Y-142428857D01*
X278941654Y-142544972D01*
X278758049Y-142095029D02*
X278758049Y-142240172D01*
X278924963Y-142254686D01*
X278908271Y-142240172D01*
X278891580Y-142211143D01*
X278891580Y-142138572D01*
X278908271Y-142109543D01*
X278924963Y-142095029D01*
X278958346Y-142080514D01*
X279041803Y-142080514D01*
X279075186Y-142095029D01*
X279091877Y-142109543D01*
X279108569Y-142138572D01*
X279108569Y-142211143D01*
X279091877Y-142240172D01*
X279075186Y-142254686D01*
D14*
X273589048Y-142456190D02*
X273589048Y-142860952D01*
X273612857Y-142908571D01*
X273636667Y-142932381D01*
X273684286Y-142956190D01*
X273779524Y-142956190D01*
X273827143Y-142932381D01*
X273850952Y-142908571D01*
X273874762Y-142860952D01*
X273874762Y-142456190D01*
X274350953Y-142456190D02*
X274112858Y-142456190D01*
X274089048Y-142694286D01*
X274112858Y-142670476D01*
X274160477Y-142646667D01*
X274279524Y-142646667D01*
X274327143Y-142670476D01*
X274350953Y-142694286D01*
X274374762Y-142741905D01*
X274374762Y-142860952D01*
X274350953Y-142908571D01*
X274327143Y-142932381D01*
X274279524Y-142956190D01*
X274160477Y-142956190D01*
X274112858Y-142932381D01*
X274089048Y-142908571D01*
D12*
X289150953Y-142456190D02*
X289150953Y-141956190D01*
X289270000Y-141956190D01*
X289341429Y-141980000D01*
X289389048Y-142027619D01*
X289412857Y-142075238D01*
X289436667Y-142170476D01*
X289436667Y-142241905D01*
X289412857Y-142337143D01*
X289389048Y-142384762D01*
X289341429Y-142432381D01*
X289270000Y-142456190D01*
X289150953Y-142456190D01*
X289865238Y-142122857D02*
X289865238Y-142456190D01*
X289746191Y-141932381D02*
X289627143Y-142289524D01*
X289936667Y-142289524D01*
D18*
X288935186Y-144205943D02*
X288951877Y-144220457D01*
X288968569Y-144264000D01*
X288968569Y-144293029D01*
X288951877Y-144336572D01*
X288918494Y-144365600D01*
X288885111Y-144380115D01*
X288818346Y-144394629D01*
X288768271Y-144394629D01*
X288701506Y-144380115D01*
X288668123Y-144365600D01*
X288634740Y-144336572D01*
X288618049Y-144293029D01*
X288618049Y-144264000D01*
X288634740Y-144220457D01*
X288651431Y-144205943D01*
X288968569Y-143915657D02*
X288968569Y-144089829D01*
X288968569Y-144002743D02*
X288618049Y-144002743D01*
X288668123Y-144031772D01*
X288701506Y-144060800D01*
X288718197Y-144089829D01*
X288768271Y-143741486D02*
X288751580Y-143770514D01*
X288734889Y-143785029D01*
X288701506Y-143799543D01*
X288684814Y-143799543D01*
X288651431Y-143785029D01*
X288634740Y-143770514D01*
X288618049Y-143741486D01*
X288618049Y-143683429D01*
X288634740Y-143654400D01*
X288651431Y-143639886D01*
X288684814Y-143625371D01*
X288701506Y-143625371D01*
X288734889Y-143639886D01*
X288751580Y-143654400D01*
X288768271Y-143683429D01*
X288768271Y-143741486D01*
X288784963Y-143770514D01*
X288801654Y-143785029D01*
X288835037Y-143799543D01*
X288901803Y-143799543D01*
X288935186Y-143785029D01*
X288951877Y-143770514D01*
X288968569Y-143741486D01*
X288968569Y-143683429D01*
X288951877Y-143654400D01*
X288935186Y-143639886D01*
X288901803Y-143625371D01*
X288835037Y-143625371D01*
X288801654Y-143639886D01*
X288784963Y-143654400D01*
X288768271Y-143683429D01*
X287188569Y-144205943D02*
X287021654Y-144307543D01*
X287188569Y-144380115D02*
X286838049Y-144380115D01*
X286838049Y-144264000D01*
X286854740Y-144234972D01*
X286871431Y-144220457D01*
X286904814Y-144205943D01*
X286954889Y-144205943D01*
X286988271Y-144220457D01*
X287004963Y-144234972D01*
X287021654Y-144264000D01*
X287021654Y-144380115D01*
X287188569Y-143915657D02*
X287188569Y-144089829D01*
X287188569Y-144002743D02*
X286838049Y-144002743D01*
X286888123Y-144031772D01*
X286921506Y-144060800D01*
X286938197Y-144089829D01*
X286838049Y-143726971D02*
X286838049Y-143697943D01*
X286854740Y-143668914D01*
X286871431Y-143654400D01*
X286904814Y-143639886D01*
X286971580Y-143625371D01*
X287055037Y-143625371D01*
X287121803Y-143639886D01*
X287155186Y-143654400D01*
X287171877Y-143668914D01*
X287188569Y-143697943D01*
X287188569Y-143726971D01*
X287171877Y-143756000D01*
X287155186Y-143770514D01*
X287121803Y-143785029D01*
X287055037Y-143799543D01*
X286971580Y-143799543D01*
X286904814Y-143785029D01*
X286871431Y-143770514D01*
X286854740Y-143756000D01*
X286838049Y-143726971D01*
X284875186Y-144175943D02*
X284891877Y-144190457D01*
X284908569Y-144234000D01*
X284908569Y-144263029D01*
X284891877Y-144306572D01*
X284858494Y-144335600D01*
X284825111Y-144350115D01*
X284758346Y-144364629D01*
X284708271Y-144364629D01*
X284641506Y-144350115D01*
X284608123Y-144335600D01*
X284574740Y-144306572D01*
X284558049Y-144263029D01*
X284558049Y-144234000D01*
X284574740Y-144190457D01*
X284591431Y-144175943D01*
X284908569Y-143885657D02*
X284908569Y-144059829D01*
X284908569Y-143972743D02*
X284558049Y-143972743D01*
X284608123Y-144001772D01*
X284641506Y-144030800D01*
X284658197Y-144059829D01*
X284558049Y-143624400D02*
X284558049Y-143682457D01*
X284574740Y-143711486D01*
X284591431Y-143726000D01*
X284641506Y-143755029D01*
X284708271Y-143769543D01*
X284841803Y-143769543D01*
X284875186Y-143755029D01*
X284891877Y-143740514D01*
X284908569Y-143711486D01*
X284908569Y-143653429D01*
X284891877Y-143624400D01*
X284875186Y-143609886D01*
X284841803Y-143595371D01*
X284758346Y-143595371D01*
X284724963Y-143609886D01*
X284708271Y-143624400D01*
X284691580Y-143653429D01*
X284691580Y-143711486D01*
X284708271Y-143740514D01*
X284724963Y-143755029D01*
X284758346Y-143769543D01*
X282089200Y-142298569D02*
X281987600Y-142131654D01*
X281915028Y-142298569D02*
X281915028Y-141948049D01*
X282031143Y-141948049D01*
X282060171Y-141964740D01*
X282074686Y-141981431D01*
X282089200Y-142014814D01*
X282089200Y-142064889D01*
X282074686Y-142098271D01*
X282060171Y-142114963D01*
X282031143Y-142131654D01*
X281915028Y-142131654D01*
X282234343Y-142298569D02*
X282292400Y-142298569D01*
X282321428Y-142281877D01*
X282335943Y-142265186D01*
X282364971Y-142215111D01*
X282379486Y-142148346D01*
X282379486Y-142014814D01*
X282364971Y-141981431D01*
X282350457Y-141964740D01*
X282321428Y-141948049D01*
X282263371Y-141948049D01*
X282234343Y-141964740D01*
X282219828Y-141981431D01*
X282205314Y-142014814D01*
X282205314Y-142098271D01*
X282219828Y-142131654D01*
X282234343Y-142148346D01*
X282263371Y-142165037D01*
X282321428Y-142165037D01*
X282350457Y-142148346D01*
X282364971Y-142131654D01*
X282379486Y-142098271D01*
X287334057Y-141145186D02*
X287319543Y-141161877D01*
X287276000Y-141178569D01*
X287246971Y-141178569D01*
X287203428Y-141161877D01*
X287174400Y-141128494D01*
X287159885Y-141095111D01*
X287145371Y-141028346D01*
X287145371Y-140978271D01*
X287159885Y-140911506D01*
X287174400Y-140878123D01*
X287203428Y-140844740D01*
X287246971Y-140828049D01*
X287276000Y-140828049D01*
X287319543Y-140844740D01*
X287334057Y-140861431D01*
X287624343Y-141178569D02*
X287450171Y-141178569D01*
X287537257Y-141178569D02*
X287537257Y-140828049D01*
X287508228Y-140878123D01*
X287479200Y-140911506D01*
X287450171Y-140928197D01*
X287725943Y-140828049D02*
X287929143Y-140828049D01*
X287798514Y-141178569D01*
D12*
X283216190Y-140419047D02*
X282716190Y-140419047D01*
X282716190Y-140300000D01*
X282740000Y-140228571D01*
X282787619Y-140180952D01*
X282835238Y-140157143D01*
X282930476Y-140133333D01*
X283001905Y-140133333D01*
X283097143Y-140157143D01*
X283144762Y-140180952D01*
X283192381Y-140228571D01*
X283216190Y-140300000D01*
X283216190Y-140419047D01*
X282716190Y-139966666D02*
X282716190Y-139657143D01*
X282906667Y-139823809D01*
X282906667Y-139752381D01*
X282930476Y-139704762D01*
X282954286Y-139680952D01*
X283001905Y-139657143D01*
X283120952Y-139657143D01*
X283168571Y-139680952D01*
X283192381Y-139704762D01*
X283216190Y-139752381D01*
X283216190Y-139895238D01*
X283192381Y-139942857D01*
X283168571Y-139966666D01*
D18*
X281584057Y-137895186D02*
X281569543Y-137911877D01*
X281526000Y-137928569D01*
X281496971Y-137928569D01*
X281453428Y-137911877D01*
X281424400Y-137878494D01*
X281409885Y-137845111D01*
X281395371Y-137778346D01*
X281395371Y-137728271D01*
X281409885Y-137661506D01*
X281424400Y-137628123D01*
X281453428Y-137594740D01*
X281496971Y-137578049D01*
X281526000Y-137578049D01*
X281569543Y-137594740D01*
X281584057Y-137611431D01*
X281700171Y-137611431D02*
X281714685Y-137594740D01*
X281743714Y-137578049D01*
X281816285Y-137578049D01*
X281845314Y-137594740D01*
X281859828Y-137611431D01*
X281874343Y-137644814D01*
X281874343Y-137678197D01*
X281859828Y-137728271D01*
X281685657Y-137928569D01*
X281874343Y-137928569D01*
X281990457Y-137611431D02*
X282004971Y-137594740D01*
X282034000Y-137578049D01*
X282106571Y-137578049D01*
X282135600Y-137594740D01*
X282150114Y-137611431D01*
X282164629Y-137644814D01*
X282164629Y-137678197D01*
X282150114Y-137728271D01*
X281975943Y-137928569D01*
X282164629Y-137928569D01*
X279118569Y-143330800D02*
X278951654Y-143432400D01*
X279118569Y-143504972D02*
X278768049Y-143504972D01*
X278768049Y-143388857D01*
X278784740Y-143359829D01*
X278801431Y-143345314D01*
X278834814Y-143330800D01*
X278884889Y-143330800D01*
X278918271Y-143345314D01*
X278934963Y-143359829D01*
X278951654Y-143388857D01*
X278951654Y-143504972D01*
X278768049Y-143229200D02*
X278768049Y-143026000D01*
X279118569Y-143156629D01*
X277154057Y-143225186D02*
X277139543Y-143241877D01*
X277096000Y-143258569D01*
X277066971Y-143258569D01*
X277023428Y-143241877D01*
X276994400Y-143208494D01*
X276979885Y-143175111D01*
X276965371Y-143108346D01*
X276965371Y-143058271D01*
X276979885Y-142991506D01*
X276994400Y-142958123D01*
X277023428Y-142924740D01*
X277066971Y-142908049D01*
X277096000Y-142908049D01*
X277139543Y-142924740D01*
X277154057Y-142941431D01*
X277444343Y-143258569D02*
X277270171Y-143258569D01*
X277357257Y-143258569D02*
X277357257Y-142908049D01*
X277328228Y-142958123D01*
X277299200Y-142991506D01*
X277270171Y-143008197D01*
X277705600Y-143024889D02*
X277705600Y-143258569D01*
X277633029Y-142891357D02*
X277560457Y-143141729D01*
X277749143Y-143141729D01*
X272525186Y-144415943D02*
X272541877Y-144430457D01*
X272558569Y-144474000D01*
X272558569Y-144503029D01*
X272541877Y-144546572D01*
X272508494Y-144575600D01*
X272475111Y-144590115D01*
X272408346Y-144604629D01*
X272358271Y-144604629D01*
X272291506Y-144590115D01*
X272258123Y-144575600D01*
X272224740Y-144546572D01*
X272208049Y-144503029D01*
X272208049Y-144474000D01*
X272224740Y-144430457D01*
X272241431Y-144415943D01*
X272558569Y-144125657D02*
X272558569Y-144299829D01*
X272558569Y-144212743D02*
X272208049Y-144212743D01*
X272258123Y-144241772D01*
X272291506Y-144270800D01*
X272308197Y-144299829D01*
X272208049Y-143849886D02*
X272208049Y-143995029D01*
X272374963Y-144009543D01*
X272358271Y-143995029D01*
X272341580Y-143966000D01*
X272341580Y-143893429D01*
X272358271Y-143864400D01*
X272374963Y-143849886D01*
X272408346Y-143835371D01*
X272491803Y-143835371D01*
X272525186Y-143849886D01*
X272541877Y-143864400D01*
X272558569Y-143893429D01*
X272558569Y-143966000D01*
X272541877Y-143995029D01*
X272525186Y-144009543D01*
D11*
X286342857Y-137901429D02*
X286342857Y-138387143D01*
X286371429Y-138444286D01*
X286400000Y-138472857D01*
X286457143Y-138501429D01*
X286571429Y-138501429D01*
X286628571Y-138472857D01*
X286657143Y-138444286D01*
X286685714Y-138387143D01*
X286685714Y-137901429D01*
X286942857Y-137958571D02*
X286971428Y-137930000D01*
X287028571Y-137901429D01*
X287171428Y-137901429D01*
X287228571Y-137930000D01*
X287257142Y-137958571D01*
X287285714Y-138015714D01*
X287285714Y-138072857D01*
X287257142Y-138158571D01*
X286914285Y-138501429D01*
X287285714Y-138501429D01*
D18*
X289809200Y-133585186D02*
X289794686Y-133601877D01*
X289751143Y-133618569D01*
X289722114Y-133618569D01*
X289678571Y-133601877D01*
X289649543Y-133568494D01*
X289635028Y-133535111D01*
X289620514Y-133468346D01*
X289620514Y-133418271D01*
X289635028Y-133351506D01*
X289649543Y-133318123D01*
X289678571Y-133284740D01*
X289722114Y-133268049D01*
X289751143Y-133268049D01*
X289794686Y-133284740D01*
X289809200Y-133301431D01*
X290084971Y-133268049D02*
X289939828Y-133268049D01*
X289925314Y-133434963D01*
X289939828Y-133418271D01*
X289968857Y-133401580D01*
X290041428Y-133401580D01*
X290070457Y-133418271D01*
X290084971Y-133434963D01*
X290099486Y-133468346D01*
X290099486Y-133551803D01*
X290084971Y-133585186D01*
X290070457Y-133601877D01*
X290041428Y-133618569D01*
X289968857Y-133618569D01*
X289939828Y-133601877D01*
X289925314Y-133585186D01*
X289589200Y-138075186D02*
X289574686Y-138091877D01*
X289531143Y-138108569D01*
X289502114Y-138108569D01*
X289458571Y-138091877D01*
X289429543Y-138058494D01*
X289415028Y-138025111D01*
X289400514Y-137958346D01*
X289400514Y-137908271D01*
X289415028Y-137841506D01*
X289429543Y-137808123D01*
X289458571Y-137774740D01*
X289502114Y-137758049D01*
X289531143Y-137758049D01*
X289574686Y-137774740D01*
X289589200Y-137791431D01*
X289690800Y-137758049D02*
X289879486Y-137758049D01*
X289777886Y-137891580D01*
X289821428Y-137891580D01*
X289850457Y-137908271D01*
X289864971Y-137924963D01*
X289879486Y-137958346D01*
X289879486Y-138041803D01*
X289864971Y-138075186D01*
X289850457Y-138091877D01*
X289821428Y-138108569D01*
X289734343Y-138108569D01*
X289705314Y-138091877D01*
X289690800Y-138075186D01*
X283614057Y-137195186D02*
X283599543Y-137211877D01*
X283556000Y-137228569D01*
X283526971Y-137228569D01*
X283483428Y-137211877D01*
X283454400Y-137178494D01*
X283439885Y-137145111D01*
X283425371Y-137078346D01*
X283425371Y-137028271D01*
X283439885Y-136961506D01*
X283454400Y-136928123D01*
X283483428Y-136894740D01*
X283526971Y-136878049D01*
X283556000Y-136878049D01*
X283599543Y-136894740D01*
X283614057Y-136911431D01*
X283904343Y-137228569D02*
X283730171Y-137228569D01*
X283817257Y-137228569D02*
X283817257Y-136878049D01*
X283788228Y-136928123D01*
X283759200Y-136961506D01*
X283730171Y-136978197D01*
X284005943Y-136878049D02*
X284194629Y-136878049D01*
X284093029Y-137011580D01*
X284136571Y-137011580D01*
X284165600Y-137028271D01*
X284180114Y-137044963D01*
X284194629Y-137078346D01*
X284194629Y-137161803D01*
X284180114Y-137195186D01*
X284165600Y-137211877D01*
X284136571Y-137228569D01*
X284049486Y-137228569D01*
X284020457Y-137211877D01*
X284005943Y-137195186D01*
X282624057Y-137185186D02*
X282609543Y-137201877D01*
X282566000Y-137218569D01*
X282536971Y-137218569D01*
X282493428Y-137201877D01*
X282464400Y-137168494D01*
X282449885Y-137135111D01*
X282435371Y-137068346D01*
X282435371Y-137018271D01*
X282449885Y-136951506D01*
X282464400Y-136918123D01*
X282493428Y-136884740D01*
X282536971Y-136868049D01*
X282566000Y-136868049D01*
X282609543Y-136884740D01*
X282624057Y-136901431D01*
X282914343Y-137218569D02*
X282740171Y-137218569D01*
X282827257Y-137218569D02*
X282827257Y-136868049D01*
X282798228Y-136918123D01*
X282769200Y-136951506D01*
X282740171Y-136968197D01*
X283030457Y-136901431D02*
X283044971Y-136884740D01*
X283074000Y-136868049D01*
X283146571Y-136868049D01*
X283175600Y-136884740D01*
X283190114Y-136901431D01*
X283204629Y-136934814D01*
X283204629Y-136968197D01*
X283190114Y-137018271D01*
X283015943Y-137218569D01*
X283204629Y-137218569D01*
X286915186Y-130660800D02*
X286931877Y-130675314D01*
X286948569Y-130718857D01*
X286948569Y-130747886D01*
X286931877Y-130791429D01*
X286898494Y-130820457D01*
X286865111Y-130834972D01*
X286798346Y-130849486D01*
X286748271Y-130849486D01*
X286681506Y-130834972D01*
X286648123Y-130820457D01*
X286614740Y-130791429D01*
X286598049Y-130747886D01*
X286598049Y-130718857D01*
X286614740Y-130675314D01*
X286631431Y-130660800D01*
X286748271Y-130486629D02*
X286731580Y-130515657D01*
X286714889Y-130530172D01*
X286681506Y-130544686D01*
X286664814Y-130544686D01*
X286631431Y-130530172D01*
X286614740Y-130515657D01*
X286598049Y-130486629D01*
X286598049Y-130428572D01*
X286614740Y-130399543D01*
X286631431Y-130385029D01*
X286664814Y-130370514D01*
X286681506Y-130370514D01*
X286714889Y-130385029D01*
X286731580Y-130399543D01*
X286748271Y-130428572D01*
X286748271Y-130486629D01*
X286764963Y-130515657D01*
X286781654Y-130530172D01*
X286815037Y-130544686D01*
X286881803Y-130544686D01*
X286915186Y-130530172D01*
X286931877Y-130515657D01*
X286948569Y-130486629D01*
X286948569Y-130428572D01*
X286931877Y-130399543D01*
X286915186Y-130385029D01*
X286881803Y-130370514D01*
X286815037Y-130370514D01*
X286781654Y-130385029D01*
X286764963Y-130399543D01*
X286748271Y-130428572D01*
X290429057Y-130765186D02*
X290414543Y-130781877D01*
X290371000Y-130798569D01*
X290341971Y-130798569D01*
X290298428Y-130781877D01*
X290269400Y-130748494D01*
X290254885Y-130715111D01*
X290240371Y-130648346D01*
X290240371Y-130598271D01*
X290254885Y-130531506D01*
X290269400Y-130498123D01*
X290298428Y-130464740D01*
X290341971Y-130448049D01*
X290371000Y-130448049D01*
X290414543Y-130464740D01*
X290429057Y-130481431D01*
X290719343Y-130798569D02*
X290545171Y-130798569D01*
X290632257Y-130798569D02*
X290632257Y-130448049D01*
X290603228Y-130498123D01*
X290574200Y-130531506D01*
X290545171Y-130548197D01*
X290908029Y-130448049D02*
X290937057Y-130448049D01*
X290966086Y-130464740D01*
X290980600Y-130481431D01*
X290995114Y-130514814D01*
X291009629Y-130581580D01*
X291009629Y-130665037D01*
X290995114Y-130731803D01*
X290980600Y-130765186D01*
X290966086Y-130781877D01*
X290937057Y-130798569D01*
X290908029Y-130798569D01*
X290879000Y-130781877D01*
X290864486Y-130765186D01*
X290849971Y-130731803D01*
X290835457Y-130665037D01*
X290835457Y-130581580D01*
X290849971Y-130514814D01*
X290864486Y-130481431D01*
X290879000Y-130464740D01*
X290908029Y-130448049D01*
X286905186Y-131550800D02*
X286921877Y-131565314D01*
X286938569Y-131608857D01*
X286938569Y-131637886D01*
X286921877Y-131681429D01*
X286888494Y-131710457D01*
X286855111Y-131724972D01*
X286788346Y-131739486D01*
X286738271Y-131739486D01*
X286671506Y-131724972D01*
X286638123Y-131710457D01*
X286604740Y-131681429D01*
X286588049Y-131637886D01*
X286588049Y-131608857D01*
X286604740Y-131565314D01*
X286621431Y-131550800D01*
X286588049Y-131449200D02*
X286588049Y-131246000D01*
X286938569Y-131376629D01*
D21*
X266241429Y-140247143D02*
X266727143Y-140247143D01*
X266784286Y-140218571D01*
X266812857Y-140190000D01*
X266841429Y-140132857D01*
X266841429Y-140018571D01*
X266812857Y-139961429D01*
X266784286Y-139932857D01*
X266727143Y-139904286D01*
X266241429Y-139904286D01*
X266841429Y-139304286D02*
X266841429Y-139647143D01*
X266841429Y-139475715D02*
X266241429Y-139475715D01*
X266327143Y-139532858D01*
X266384286Y-139590000D01*
X266412857Y-139647143D01*
D18*
X267598569Y-139020800D02*
X267598569Y-139165943D01*
X267248049Y-139165943D01*
X267598569Y-138759542D02*
X267598569Y-138933714D01*
X267598569Y-138846628D02*
X267248049Y-138846628D01*
X267298123Y-138875657D01*
X267331506Y-138904685D01*
X267348197Y-138933714D01*
X291329200Y-139595186D02*
X291314686Y-139611877D01*
X291271143Y-139628569D01*
X291242114Y-139628569D01*
X291198571Y-139611877D01*
X291169543Y-139578494D01*
X291155028Y-139545111D01*
X291140514Y-139478346D01*
X291140514Y-139428271D01*
X291155028Y-139361506D01*
X291169543Y-139328123D01*
X291198571Y-139294740D01*
X291242114Y-139278049D01*
X291271143Y-139278049D01*
X291314686Y-139294740D01*
X291329200Y-139311431D01*
X291590457Y-139394889D02*
X291590457Y-139628569D01*
X291517886Y-139261357D02*
X291445314Y-139511729D01*
X291634000Y-139511729D01*
X273874057Y-138745186D02*
X273859543Y-138761877D01*
X273816000Y-138778569D01*
X273786971Y-138778569D01*
X273743428Y-138761877D01*
X273714400Y-138728494D01*
X273699885Y-138695111D01*
X273685371Y-138628346D01*
X273685371Y-138578271D01*
X273699885Y-138511506D01*
X273714400Y-138478123D01*
X273743428Y-138444740D01*
X273786971Y-138428049D01*
X273816000Y-138428049D01*
X273859543Y-138444740D01*
X273874057Y-138461431D01*
X273990171Y-138461431D02*
X274004685Y-138444740D01*
X274033714Y-138428049D01*
X274106285Y-138428049D01*
X274135314Y-138444740D01*
X274149828Y-138461431D01*
X274164343Y-138494814D01*
X274164343Y-138528197D01*
X274149828Y-138578271D01*
X273975657Y-138778569D01*
X274164343Y-138778569D01*
X274454629Y-138778569D02*
X274280457Y-138778569D01*
X274367543Y-138778569D02*
X274367543Y-138428049D01*
X274338514Y-138478123D01*
X274309486Y-138511506D01*
X274280457Y-138528197D01*
D14*
X285176190Y-128300952D02*
X285580952Y-128300952D01*
X285628571Y-128277143D01*
X285652381Y-128253333D01*
X285676190Y-128205714D01*
X285676190Y-128110476D01*
X285652381Y-128062857D01*
X285628571Y-128039048D01*
X285580952Y-128015238D01*
X285176190Y-128015238D01*
X285342857Y-127562857D02*
X285676190Y-127562857D01*
X285152381Y-127681904D02*
X285509524Y-127800952D01*
X285509524Y-127491428D01*
D18*
X284908569Y-130805943D02*
X284741654Y-130907543D01*
X284908569Y-130980115D02*
X284558049Y-130980115D01*
X284558049Y-130864000D01*
X284574740Y-130834972D01*
X284591431Y-130820457D01*
X284624814Y-130805943D01*
X284674889Y-130805943D01*
X284708271Y-130820457D01*
X284724963Y-130834972D01*
X284741654Y-130864000D01*
X284741654Y-130980115D01*
X284908569Y-130515657D02*
X284908569Y-130689829D01*
X284908569Y-130602743D02*
X284558049Y-130602743D01*
X284608123Y-130631772D01*
X284641506Y-130660800D01*
X284658197Y-130689829D01*
X284591431Y-130399543D02*
X284574740Y-130385029D01*
X284558049Y-130356000D01*
X284558049Y-130283429D01*
X284574740Y-130254400D01*
X284591431Y-130239886D01*
X284624814Y-130225371D01*
X284658197Y-130225371D01*
X284708271Y-130239886D01*
X284908569Y-130414057D01*
X284908569Y-130225371D01*
X283164057Y-127988569D02*
X283062457Y-127821654D01*
X282989885Y-127988569D02*
X282989885Y-127638049D01*
X283106000Y-127638049D01*
X283135028Y-127654740D01*
X283149543Y-127671431D01*
X283164057Y-127704814D01*
X283164057Y-127754889D01*
X283149543Y-127788271D01*
X283135028Y-127804963D01*
X283106000Y-127821654D01*
X282989885Y-127821654D01*
X283454343Y-127988569D02*
X283280171Y-127988569D01*
X283367257Y-127988569D02*
X283367257Y-127638049D01*
X283338228Y-127688123D01*
X283309200Y-127721506D01*
X283280171Y-127738197D01*
X283744629Y-127988569D02*
X283570457Y-127988569D01*
X283657543Y-127988569D02*
X283657543Y-127638049D01*
X283628514Y-127688123D01*
X283599486Y-127721506D01*
X283570457Y-127738197D01*
X288875186Y-126775943D02*
X288891877Y-126790457D01*
X288908569Y-126834000D01*
X288908569Y-126863029D01*
X288891877Y-126906572D01*
X288858494Y-126935600D01*
X288825111Y-126950115D01*
X288758346Y-126964629D01*
X288708271Y-126964629D01*
X288641506Y-126950115D01*
X288608123Y-126935600D01*
X288574740Y-126906572D01*
X288558049Y-126863029D01*
X288558049Y-126834000D01*
X288574740Y-126790457D01*
X288591431Y-126775943D01*
X288558049Y-126674343D02*
X288558049Y-126485657D01*
X288691580Y-126587257D01*
X288691580Y-126543715D01*
X288708271Y-126514686D01*
X288724963Y-126500172D01*
X288758346Y-126485657D01*
X288841803Y-126485657D01*
X288875186Y-126500172D01*
X288891877Y-126514686D01*
X288908569Y-126543715D01*
X288908569Y-126630800D01*
X288891877Y-126659829D01*
X288875186Y-126674343D01*
X288558049Y-126224400D02*
X288558049Y-126282457D01*
X288574740Y-126311486D01*
X288591431Y-126326000D01*
X288641506Y-126355029D01*
X288708271Y-126369543D01*
X288841803Y-126369543D01*
X288875186Y-126355029D01*
X288891877Y-126340514D01*
X288908569Y-126311486D01*
X288908569Y-126253429D01*
X288891877Y-126224400D01*
X288875186Y-126209886D01*
X288841803Y-126195371D01*
X288758346Y-126195371D01*
X288724963Y-126209886D01*
X288708271Y-126224400D01*
X288691580Y-126253429D01*
X288691580Y-126311486D01*
X288708271Y-126340514D01*
X288724963Y-126355029D01*
X288758346Y-126369543D01*
X288254057Y-128585186D02*
X288239543Y-128601877D01*
X288196000Y-128618569D01*
X288166971Y-128618569D01*
X288123428Y-128601877D01*
X288094400Y-128568494D01*
X288079885Y-128535111D01*
X288065371Y-128468346D01*
X288065371Y-128418271D01*
X288079885Y-128351506D01*
X288094400Y-128318123D01*
X288123428Y-128284740D01*
X288166971Y-128268049D01*
X288196000Y-128268049D01*
X288239543Y-128284740D01*
X288254057Y-128301431D01*
X288355657Y-128268049D02*
X288544343Y-128268049D01*
X288442743Y-128401580D01*
X288486285Y-128401580D01*
X288515314Y-128418271D01*
X288529828Y-128434963D01*
X288544343Y-128468346D01*
X288544343Y-128551803D01*
X288529828Y-128585186D01*
X288515314Y-128601877D01*
X288486285Y-128618569D01*
X288399200Y-128618569D01*
X288370171Y-128601877D01*
X288355657Y-128585186D01*
X288820114Y-128268049D02*
X288674971Y-128268049D01*
X288660457Y-128434963D01*
X288674971Y-128418271D01*
X288704000Y-128401580D01*
X288776571Y-128401580D01*
X288805600Y-128418271D01*
X288820114Y-128434963D01*
X288834629Y-128468346D01*
X288834629Y-128551803D01*
X288820114Y-128585186D01*
X288805600Y-128601877D01*
X288776571Y-128618569D01*
X288704000Y-128618569D01*
X288674971Y-128601877D01*
X288660457Y-128585186D01*
D12*
X277843334Y-127064286D02*
X277676668Y-127064286D01*
X277676668Y-127326190D02*
X277676668Y-126826190D01*
X277914763Y-126826190D01*
X278367143Y-127326190D02*
X278081429Y-127326190D01*
X278224286Y-127326190D02*
X278224286Y-126826190D01*
X278176667Y-126897619D01*
X278129048Y-126945238D01*
X278081429Y-126969048D01*
D18*
X275644057Y-129165186D02*
X275629543Y-129181877D01*
X275586000Y-129198569D01*
X275556971Y-129198569D01*
X275513428Y-129181877D01*
X275484400Y-129148494D01*
X275469885Y-129115111D01*
X275455371Y-129048346D01*
X275455371Y-128998271D01*
X275469885Y-128931506D01*
X275484400Y-128898123D01*
X275513428Y-128864740D01*
X275556971Y-128848049D01*
X275586000Y-128848049D01*
X275629543Y-128864740D01*
X275644057Y-128881431D01*
X275745657Y-128848049D02*
X275934343Y-128848049D01*
X275832743Y-128981580D01*
X275876285Y-128981580D01*
X275905314Y-128998271D01*
X275919828Y-129014963D01*
X275934343Y-129048346D01*
X275934343Y-129131803D01*
X275919828Y-129165186D01*
X275905314Y-129181877D01*
X275876285Y-129198569D01*
X275789200Y-129198569D01*
X275760171Y-129181877D01*
X275745657Y-129165186D01*
X276195600Y-128964889D02*
X276195600Y-129198569D01*
X276123029Y-128831357D02*
X276050457Y-129081729D01*
X276239143Y-129081729D01*
X273714057Y-130275186D02*
X273699543Y-130291877D01*
X273656000Y-130308569D01*
X273626971Y-130308569D01*
X273583428Y-130291877D01*
X273554400Y-130258494D01*
X273539885Y-130225111D01*
X273525371Y-130158346D01*
X273525371Y-130108271D01*
X273539885Y-130041506D01*
X273554400Y-130008123D01*
X273583428Y-129974740D01*
X273626971Y-129958049D01*
X273656000Y-129958049D01*
X273699543Y-129974740D01*
X273714057Y-129991431D01*
X273815657Y-129958049D02*
X274004343Y-129958049D01*
X273902743Y-130091580D01*
X273946285Y-130091580D01*
X273975314Y-130108271D01*
X273989828Y-130124963D01*
X274004343Y-130158346D01*
X274004343Y-130241803D01*
X273989828Y-130275186D01*
X273975314Y-130291877D01*
X273946285Y-130308569D01*
X273859200Y-130308569D01*
X273830171Y-130291877D01*
X273815657Y-130275186D01*
X274105943Y-129958049D02*
X274294629Y-129958049D01*
X274193029Y-130091580D01*
X274236571Y-130091580D01*
X274265600Y-130108271D01*
X274280114Y-130124963D01*
X274294629Y-130158346D01*
X274294629Y-130241803D01*
X274280114Y-130275186D01*
X274265600Y-130291877D01*
X274236571Y-130308569D01*
X274149486Y-130308569D01*
X274120457Y-130291877D01*
X274105943Y-130275186D01*
D12*
X280120953Y-139526190D02*
X280120953Y-139026190D01*
X280240000Y-139026190D01*
X280311429Y-139050000D01*
X280359048Y-139097619D01*
X280382857Y-139145238D01*
X280406667Y-139240476D01*
X280406667Y-139311905D01*
X280382857Y-139407143D01*
X280359048Y-139454762D01*
X280311429Y-139502381D01*
X280240000Y-139526190D01*
X280120953Y-139526190D01*
X280597143Y-139073810D02*
X280620953Y-139050000D01*
X280668572Y-139026190D01*
X280787619Y-139026190D01*
X280835238Y-139050000D01*
X280859048Y-139073810D01*
X280882857Y-139121429D01*
X280882857Y-139169048D01*
X280859048Y-139240476D01*
X280573334Y-139526190D01*
X280882857Y-139526190D01*
D18*
X285575186Y-138985943D02*
X285591877Y-139000457D01*
X285608569Y-139044000D01*
X285608569Y-139073029D01*
X285591877Y-139116572D01*
X285558494Y-139145600D01*
X285525111Y-139160115D01*
X285458346Y-139174629D01*
X285408271Y-139174629D01*
X285341506Y-139160115D01*
X285308123Y-139145600D01*
X285274740Y-139116572D01*
X285258049Y-139073029D01*
X285258049Y-139044000D01*
X285274740Y-139000457D01*
X285291431Y-138985943D01*
X285608569Y-138695657D02*
X285608569Y-138869829D01*
X285608569Y-138782743D02*
X285258049Y-138782743D01*
X285308123Y-138811772D01*
X285341506Y-138840800D01*
X285358197Y-138869829D01*
X285608569Y-138405371D02*
X285608569Y-138579543D01*
X285608569Y-138492457D02*
X285258049Y-138492457D01*
X285308123Y-138521486D01*
X285341506Y-138550514D01*
X285358197Y-138579543D01*
X289474200Y-130795186D02*
X289459686Y-130811877D01*
X289416143Y-130828569D01*
X289387114Y-130828569D01*
X289343571Y-130811877D01*
X289314543Y-130778494D01*
X289300028Y-130745111D01*
X289285514Y-130678346D01*
X289285514Y-130628271D01*
X289300028Y-130561506D01*
X289314543Y-130528123D01*
X289343571Y-130494740D01*
X289387114Y-130478049D01*
X289416143Y-130478049D01*
X289459686Y-130494740D01*
X289474200Y-130511431D01*
X289735457Y-130478049D02*
X289677400Y-130478049D01*
X289648371Y-130494740D01*
X289633857Y-130511431D01*
X289604828Y-130561506D01*
X289590314Y-130628271D01*
X289590314Y-130761803D01*
X289604828Y-130795186D01*
X289619343Y-130811877D01*
X289648371Y-130828569D01*
X289706428Y-130828569D01*
X289735457Y-130811877D01*
X289749971Y-130795186D01*
X289764486Y-130761803D01*
X289764486Y-130678346D01*
X289749971Y-130644963D01*
X289735457Y-130628271D01*
X289706428Y-130611580D01*
X289648371Y-130611580D01*
X289619343Y-130628271D01*
X289604828Y-130644963D01*
X289590314Y-130678346D01*
X271019200Y-142535186D02*
X271004686Y-142551877D01*
X270961143Y-142568569D01*
X270932114Y-142568569D01*
X270888571Y-142551877D01*
X270859543Y-142518494D01*
X270845028Y-142485111D01*
X270830514Y-142418346D01*
X270830514Y-142368271D01*
X270845028Y-142301506D01*
X270859543Y-142268123D01*
X270888571Y-142234740D01*
X270932114Y-142218049D01*
X270961143Y-142218049D01*
X271004686Y-142234740D01*
X271019200Y-142251431D01*
X271135314Y-142251431D02*
X271149828Y-142234740D01*
X271178857Y-142218049D01*
X271251428Y-142218049D01*
X271280457Y-142234740D01*
X271294971Y-142251431D01*
X271309486Y-142284814D01*
X271309486Y-142318197D01*
X271294971Y-142368271D01*
X271120800Y-142568569D01*
X271309486Y-142568569D01*
X272079200Y-142615186D02*
X272064686Y-142631877D01*
X272021143Y-142648569D01*
X271992114Y-142648569D01*
X271948571Y-142631877D01*
X271919543Y-142598494D01*
X271905028Y-142565111D01*
X271890514Y-142498346D01*
X271890514Y-142448271D01*
X271905028Y-142381506D01*
X271919543Y-142348123D01*
X271948571Y-142314740D01*
X271992114Y-142298049D01*
X272021143Y-142298049D01*
X272064686Y-142314740D01*
X272079200Y-142331431D01*
X272369486Y-142648569D02*
X272195314Y-142648569D01*
X272282400Y-142648569D02*
X272282400Y-142298049D01*
X272253371Y-142348123D01*
X272224343Y-142381506D01*
X272195314Y-142398197D01*
X292449200Y-139628569D02*
X292347600Y-139461654D01*
X292275028Y-139628569D02*
X292275028Y-139278049D01*
X292391143Y-139278049D01*
X292420171Y-139294740D01*
X292434686Y-139311431D01*
X292449200Y-139344814D01*
X292449200Y-139394889D01*
X292434686Y-139428271D01*
X292420171Y-139444963D01*
X292391143Y-139461654D01*
X292275028Y-139461654D01*
X292710457Y-139278049D02*
X292652400Y-139278049D01*
X292623371Y-139294740D01*
X292608857Y-139311431D01*
X292579828Y-139361506D01*
X292565314Y-139428271D01*
X292565314Y-139561803D01*
X292579828Y-139595186D01*
X292594343Y-139611877D01*
X292623371Y-139628569D01*
X292681428Y-139628569D01*
X292710457Y-139611877D01*
X292724971Y-139595186D01*
X292739486Y-139561803D01*
X292739486Y-139478346D01*
X292724971Y-139444963D01*
X292710457Y-139428271D01*
X292681428Y-139411580D01*
X292623371Y-139411580D01*
X292594343Y-139428271D01*
X292579828Y-139444963D01*
X292565314Y-139478346D01*
X291369200Y-133688569D02*
X291267600Y-133521654D01*
X291195028Y-133688569D02*
X291195028Y-133338049D01*
X291311143Y-133338049D01*
X291340171Y-133354740D01*
X291354686Y-133371431D01*
X291369200Y-133404814D01*
X291369200Y-133454889D01*
X291354686Y-133488271D01*
X291340171Y-133504963D01*
X291311143Y-133521654D01*
X291195028Y-133521654D01*
X291630457Y-133454889D02*
X291630457Y-133688569D01*
X291557886Y-133321357D02*
X291485314Y-133571729D01*
X291674000Y-133571729D01*
X292529200Y-134738569D02*
X292427600Y-134571654D01*
X292355028Y-134738569D02*
X292355028Y-134388049D01*
X292471143Y-134388049D01*
X292500171Y-134404740D01*
X292514686Y-134421431D01*
X292529200Y-134454814D01*
X292529200Y-134504889D01*
X292514686Y-134538271D01*
X292500171Y-134554963D01*
X292471143Y-134571654D01*
X292355028Y-134571654D01*
X292630800Y-134388049D02*
X292819486Y-134388049D01*
X292717886Y-134521580D01*
X292761428Y-134521580D01*
X292790457Y-134538271D01*
X292804971Y-134554963D01*
X292819486Y-134588346D01*
X292819486Y-134671803D01*
X292804971Y-134705186D01*
X292790457Y-134721877D01*
X292761428Y-134738569D01*
X292674343Y-134738569D01*
X292645314Y-134721877D01*
X292630800Y-134705186D01*
X290749200Y-135818569D02*
X290647600Y-135651654D01*
X290575028Y-135818569D02*
X290575028Y-135468049D01*
X290691143Y-135468049D01*
X290720171Y-135484740D01*
X290734686Y-135501431D01*
X290749200Y-135534814D01*
X290749200Y-135584889D01*
X290734686Y-135618271D01*
X290720171Y-135634963D01*
X290691143Y-135651654D01*
X290575028Y-135651654D01*
X290865314Y-135501431D02*
X290879828Y-135484740D01*
X290908857Y-135468049D01*
X290981428Y-135468049D01*
X291010457Y-135484740D01*
X291024971Y-135501431D01*
X291039486Y-135534814D01*
X291039486Y-135568197D01*
X291024971Y-135618271D01*
X290850800Y-135818569D01*
X291039486Y-135818569D01*
X292559200Y-136728569D02*
X292457600Y-136561654D01*
X292385028Y-136728569D02*
X292385028Y-136378049D01*
X292501143Y-136378049D01*
X292530171Y-136394740D01*
X292544686Y-136411431D01*
X292559200Y-136444814D01*
X292559200Y-136494889D01*
X292544686Y-136528271D01*
X292530171Y-136544963D01*
X292501143Y-136561654D01*
X292385028Y-136561654D01*
X292849486Y-136728569D02*
X292675314Y-136728569D01*
X292762400Y-136728569D02*
X292762400Y-136378049D01*
X292733371Y-136428123D01*
X292704343Y-136461506D01*
X292675314Y-136478197D01*
D12*
X278895953Y-139526190D02*
X278895953Y-139026190D01*
X279015000Y-139026190D01*
X279086429Y-139050000D01*
X279134048Y-139097619D01*
X279157857Y-139145238D01*
X279181667Y-139240476D01*
X279181667Y-139311905D01*
X279157857Y-139407143D01*
X279134048Y-139454762D01*
X279086429Y-139502381D01*
X279015000Y-139526190D01*
X278895953Y-139526190D01*
X279657857Y-139526190D02*
X279372143Y-139526190D01*
X279515000Y-139526190D02*
X279515000Y-139026190D01*
X279467381Y-139097619D01*
X279419762Y-139145238D01*
X279372143Y-139169048D01*
D22*
X270799810Y-138696200D02*
X270799810Y-138913914D01*
X270291810Y-138913914D01*
X270461143Y-138347857D02*
X270799810Y-138347857D01*
X270267619Y-138456714D02*
X270630476Y-138565571D01*
X270630476Y-138282543D01*
D23*
X270445239Y-132476190D02*
X270778572Y-132976190D01*
X270778572Y-132476190D02*
X270445239Y-132976190D01*
X271230952Y-132976190D02*
X270945238Y-132976190D01*
X271088095Y-132976190D02*
X271088095Y-132476190D01*
X271040476Y-132547619D01*
X270992857Y-132595238D01*
X270945238Y-132619048D01*
D18*
X274925186Y-140745943D02*
X274941877Y-140760457D01*
X274958569Y-140804000D01*
X274958569Y-140833029D01*
X274941877Y-140876572D01*
X274908494Y-140905600D01*
X274875111Y-140920115D01*
X274808346Y-140934629D01*
X274758271Y-140934629D01*
X274691506Y-140920115D01*
X274658123Y-140905600D01*
X274624740Y-140876572D01*
X274608049Y-140833029D01*
X274608049Y-140804000D01*
X274624740Y-140760457D01*
X274641431Y-140745943D01*
X274641431Y-140629829D02*
X274624740Y-140615315D01*
X274608049Y-140586286D01*
X274608049Y-140513715D01*
X274624740Y-140484686D01*
X274641431Y-140470172D01*
X274674814Y-140455657D01*
X274708197Y-140455657D01*
X274758271Y-140470172D01*
X274958569Y-140644343D01*
X274958569Y-140455657D01*
X274758271Y-140281486D02*
X274741580Y-140310514D01*
X274724889Y-140325029D01*
X274691506Y-140339543D01*
X274674814Y-140339543D01*
X274641431Y-140325029D01*
X274624740Y-140310514D01*
X274608049Y-140281486D01*
X274608049Y-140223429D01*
X274624740Y-140194400D01*
X274641431Y-140179886D01*
X274674814Y-140165371D01*
X274691506Y-140165371D01*
X274724889Y-140179886D01*
X274741580Y-140194400D01*
X274758271Y-140223429D01*
X274758271Y-140281486D01*
X274774963Y-140310514D01*
X274791654Y-140325029D01*
X274825037Y-140339543D01*
X274891803Y-140339543D01*
X274925186Y-140325029D01*
X274941877Y-140310514D01*
X274958569Y-140281486D01*
X274958569Y-140223429D01*
X274941877Y-140194400D01*
X274925186Y-140179886D01*
X274891803Y-140165371D01*
X274825037Y-140165371D01*
X274791654Y-140179886D01*
X274774963Y-140194400D01*
X274758271Y-140223429D01*
X273265186Y-140395943D02*
X273281877Y-140410457D01*
X273298569Y-140454000D01*
X273298569Y-140483029D01*
X273281877Y-140526572D01*
X273248494Y-140555600D01*
X273215111Y-140570115D01*
X273148346Y-140584629D01*
X273098271Y-140584629D01*
X273031506Y-140570115D01*
X272998123Y-140555600D01*
X272964740Y-140526572D01*
X272948049Y-140483029D01*
X272948049Y-140454000D01*
X272964740Y-140410457D01*
X272981431Y-140395943D01*
X272981431Y-140279829D02*
X272964740Y-140265315D01*
X272948049Y-140236286D01*
X272948049Y-140163715D01*
X272964740Y-140134686D01*
X272981431Y-140120172D01*
X273014814Y-140105657D01*
X273048197Y-140105657D01*
X273098271Y-140120172D01*
X273298569Y-140294343D01*
X273298569Y-140105657D01*
X272948049Y-139844400D02*
X272948049Y-139902457D01*
X272964740Y-139931486D01*
X272981431Y-139946000D01*
X273031506Y-139975029D01*
X273098271Y-139989543D01*
X273231803Y-139989543D01*
X273265186Y-139975029D01*
X273281877Y-139960514D01*
X273298569Y-139931486D01*
X273298569Y-139873429D01*
X273281877Y-139844400D01*
X273265186Y-139829886D01*
X273231803Y-139815371D01*
X273148346Y-139815371D01*
X273114963Y-139829886D01*
X273098271Y-139844400D01*
X273081580Y-139873429D01*
X273081580Y-139931486D01*
X273098271Y-139960514D01*
X273114963Y-139975029D01*
X273148346Y-139989543D01*
X269925186Y-133095943D02*
X269941877Y-133110457D01*
X269958569Y-133154000D01*
X269958569Y-133183029D01*
X269941877Y-133226572D01*
X269908494Y-133255600D01*
X269875111Y-133270115D01*
X269808346Y-133284629D01*
X269758271Y-133284629D01*
X269691506Y-133270115D01*
X269658123Y-133255600D01*
X269624740Y-133226572D01*
X269608049Y-133183029D01*
X269608049Y-133154000D01*
X269624740Y-133110457D01*
X269641431Y-133095943D01*
X269641431Y-132979829D02*
X269624740Y-132965315D01*
X269608049Y-132936286D01*
X269608049Y-132863715D01*
X269624740Y-132834686D01*
X269641431Y-132820172D01*
X269674814Y-132805657D01*
X269708197Y-132805657D01*
X269758271Y-132820172D01*
X269958569Y-132994343D01*
X269958569Y-132805657D01*
X269724889Y-132544400D02*
X269958569Y-132544400D01*
X269591357Y-132616971D02*
X269841729Y-132689543D01*
X269841729Y-132500857D01*
X273325186Y-132995943D02*
X273341877Y-133010457D01*
X273358569Y-133054000D01*
X273358569Y-133083029D01*
X273341877Y-133126572D01*
X273308494Y-133155600D01*
X273275111Y-133170115D01*
X273208346Y-133184629D01*
X273158271Y-133184629D01*
X273091506Y-133170115D01*
X273058123Y-133155600D01*
X273024740Y-133126572D01*
X273008049Y-133083029D01*
X273008049Y-133054000D01*
X273024740Y-133010457D01*
X273041431Y-132995943D01*
X273041431Y-132879829D02*
X273024740Y-132865315D01*
X273008049Y-132836286D01*
X273008049Y-132763715D01*
X273024740Y-132734686D01*
X273041431Y-132720172D01*
X273074814Y-132705657D01*
X273108197Y-132705657D01*
X273158271Y-132720172D01*
X273358569Y-132894343D01*
X273358569Y-132705657D01*
X273008049Y-132429886D02*
X273008049Y-132575029D01*
X273174963Y-132589543D01*
X273158271Y-132575029D01*
X273141580Y-132546000D01*
X273141580Y-132473429D01*
X273158271Y-132444400D01*
X273174963Y-132429886D01*
X273208346Y-132415371D01*
X273291803Y-132415371D01*
X273325186Y-132429886D01*
X273341877Y-132444400D01*
X273358569Y-132473429D01*
X273358569Y-132546000D01*
X273341877Y-132575029D01*
X273325186Y-132589543D01*
X276614057Y-140675186D02*
X276599543Y-140691877D01*
X276556000Y-140708569D01*
X276526971Y-140708569D01*
X276483428Y-140691877D01*
X276454400Y-140658494D01*
X276439885Y-140625111D01*
X276425371Y-140558346D01*
X276425371Y-140508271D01*
X276439885Y-140441506D01*
X276454400Y-140408123D01*
X276483428Y-140374740D01*
X276526971Y-140358049D01*
X276556000Y-140358049D01*
X276599543Y-140374740D01*
X276614057Y-140391431D01*
X276730171Y-140391431D02*
X276744685Y-140374740D01*
X276773714Y-140358049D01*
X276846285Y-140358049D01*
X276875314Y-140374740D01*
X276889828Y-140391431D01*
X276904343Y-140424814D01*
X276904343Y-140458197D01*
X276889828Y-140508271D01*
X276715657Y-140708569D01*
X276904343Y-140708569D01*
X277049486Y-140708569D02*
X277107543Y-140708569D01*
X277136571Y-140691877D01*
X277151086Y-140675186D01*
X277180114Y-140625111D01*
X277194629Y-140558346D01*
X277194629Y-140424814D01*
X277180114Y-140391431D01*
X277165600Y-140374740D01*
X277136571Y-140358049D01*
X277078514Y-140358049D01*
X277049486Y-140374740D01*
X277034971Y-140391431D01*
X277020457Y-140424814D01*
X277020457Y-140508271D01*
X277034971Y-140541654D01*
X277049486Y-140558346D01*
X277078514Y-140575037D01*
X277136571Y-140575037D01*
X277165600Y-140558346D01*
X277180114Y-140541654D01*
X277194629Y-140508271D01*
X271899200Y-128558569D02*
X271754057Y-128558569D01*
X271754057Y-128208049D01*
X272131429Y-128208049D02*
X272073372Y-128208049D01*
X272044343Y-128224740D01*
X272029829Y-128241431D01*
X272000800Y-128291506D01*
X271986286Y-128358271D01*
X271986286Y-128491803D01*
X272000800Y-128525186D01*
X272015315Y-128541877D01*
X272044343Y-128558569D01*
X272102400Y-128558569D01*
X272131429Y-128541877D01*
X272145943Y-128525186D01*
X272160458Y-128491803D01*
X272160458Y-128408346D01*
X272145943Y-128374963D01*
X272131429Y-128358271D01*
X272102400Y-128341580D01*
X272044343Y-128341580D01*
X272015315Y-128358271D01*
X272000800Y-128374963D01*
X271986286Y-128408346D01*
X273969200Y-127248569D02*
X273824057Y-127248569D01*
X273824057Y-126898049D01*
X274215943Y-126898049D02*
X274070800Y-126898049D01*
X274056286Y-127064963D01*
X274070800Y-127048271D01*
X274099829Y-127031580D01*
X274172400Y-127031580D01*
X274201429Y-127048271D01*
X274215943Y-127064963D01*
X274230458Y-127098346D01*
X274230458Y-127181803D01*
X274215943Y-127215186D01*
X274201429Y-127231877D01*
X274172400Y-127248569D01*
X274099829Y-127248569D01*
X274070800Y-127231877D01*
X274056286Y-127215186D01*
X275404057Y-127165186D02*
X275389543Y-127181877D01*
X275346000Y-127198569D01*
X275316971Y-127198569D01*
X275273428Y-127181877D01*
X275244400Y-127148494D01*
X275229885Y-127115111D01*
X275215371Y-127048346D01*
X275215371Y-126998271D01*
X275229885Y-126931506D01*
X275244400Y-126898123D01*
X275273428Y-126864740D01*
X275316971Y-126848049D01*
X275346000Y-126848049D01*
X275389543Y-126864740D01*
X275404057Y-126881431D01*
X275505657Y-126848049D02*
X275694343Y-126848049D01*
X275592743Y-126981580D01*
X275636285Y-126981580D01*
X275665314Y-126998271D01*
X275679828Y-127014963D01*
X275694343Y-127048346D01*
X275694343Y-127131803D01*
X275679828Y-127165186D01*
X275665314Y-127181877D01*
X275636285Y-127198569D01*
X275549200Y-127198569D01*
X275520171Y-127181877D01*
X275505657Y-127165186D01*
X275883029Y-126848049D02*
X275912057Y-126848049D01*
X275941086Y-126864740D01*
X275955600Y-126881431D01*
X275970114Y-126914814D01*
X275984629Y-126981580D01*
X275984629Y-127065037D01*
X275970114Y-127131803D01*
X275955600Y-127165186D01*
X275941086Y-127181877D01*
X275912057Y-127198569D01*
X275883029Y-127198569D01*
X275854000Y-127181877D01*
X275839486Y-127165186D01*
X275824971Y-127131803D01*
X275810457Y-127065037D01*
X275810457Y-126981580D01*
X275824971Y-126914814D01*
X275839486Y-126881431D01*
X275854000Y-126864740D01*
X275883029Y-126848049D01*
X271288569Y-137270800D02*
X271288569Y-137415943D01*
X270938049Y-137415943D01*
X270938049Y-137198228D02*
X270938049Y-137009542D01*
X271071580Y-137111142D01*
X271071580Y-137067600D01*
X271088271Y-137038571D01*
X271104963Y-137024057D01*
X271138346Y-137009542D01*
X271221803Y-137009542D01*
X271255186Y-137024057D01*
X271271877Y-137038571D01*
X271288569Y-137067600D01*
X271288569Y-137154685D01*
X271271877Y-137183714D01*
X271255186Y-137198228D01*
D22*
X271151429Y-136313915D02*
X271175619Y-136335686D01*
X271199810Y-136401000D01*
X271199810Y-136444543D01*
X271175619Y-136509858D01*
X271127238Y-136553400D01*
X271078857Y-136575172D01*
X270982095Y-136596943D01*
X270909524Y-136596943D01*
X270812762Y-136575172D01*
X270764381Y-136553400D01*
X270716000Y-136509858D01*
X270691810Y-136444543D01*
X270691810Y-136401000D01*
X270716000Y-136335686D01*
X270740190Y-136313915D01*
X270740190Y-136139743D02*
X270716000Y-136117972D01*
X270691810Y-136074429D01*
X270691810Y-135965572D01*
X270716000Y-135922029D01*
X270740190Y-135900258D01*
X270788571Y-135878486D01*
X270836952Y-135878486D01*
X270909524Y-135900258D01*
X271199810Y-136161515D01*
X271199810Y-135878486D01*
X270691810Y-135726086D02*
X270691810Y-135443057D01*
X270885333Y-135595457D01*
X270885333Y-135530143D01*
X270909524Y-135486600D01*
X270933714Y-135464829D01*
X270982095Y-135443057D01*
X271103048Y-135443057D01*
X271151429Y-135464829D01*
X271175619Y-135486600D01*
X271199810Y-135530143D01*
X271199810Y-135660771D01*
X271175619Y-135704314D01*
X271151429Y-135726086D01*
D24*
X273696190Y-131730952D02*
X274100952Y-131730952D01*
X274148571Y-131707143D01*
X274172381Y-131683333D01*
X274196190Y-131635714D01*
X274196190Y-131540476D01*
X274172381Y-131492857D01*
X274148571Y-131469048D01*
X274100952Y-131445238D01*
X273696190Y-131445238D01*
X273696190Y-131254761D02*
X273696190Y-130945238D01*
X273886667Y-131111904D01*
X273886667Y-131040476D01*
X273910476Y-130992857D01*
X273934286Y-130969047D01*
X273981905Y-130945238D01*
X274100952Y-130945238D01*
X274148571Y-130969047D01*
X274172381Y-130992857D01*
X274196190Y-131040476D01*
X274196190Y-131183333D01*
X274172381Y-131230952D01*
X274148571Y-131254761D01*
D12*
X275930952Y-139223809D02*
X276330952Y-138957142D01*
X275930952Y-138957142D02*
X276330952Y-139223809D01*
X275969048Y-138823810D02*
X275950000Y-138804762D01*
X275930952Y-138766667D01*
X275930952Y-138671429D01*
X275950000Y-138633333D01*
X275969048Y-138614286D01*
X276007143Y-138595238D01*
X276045238Y-138595238D01*
X276102381Y-138614286D01*
X276330952Y-138842857D01*
X276330952Y-138595238D01*
D11*
X288166667Y-130018571D02*
X288142857Y-130042381D01*
X288071429Y-130066190D01*
X288023810Y-130066190D01*
X287952381Y-130042381D01*
X287904762Y-129994762D01*
X287880953Y-129947143D01*
X287857143Y-129851905D01*
X287857143Y-129780476D01*
X287880953Y-129685238D01*
X287904762Y-129637619D01*
X287952381Y-129590000D01*
X288023810Y-129566190D01*
X288071429Y-129566190D01*
X288142857Y-129590000D01*
X288166667Y-129613810D01*
X288404762Y-130066190D02*
X288500000Y-130066190D01*
X288547619Y-130042381D01*
X288571429Y-130018571D01*
X288619048Y-129947143D01*
X288642857Y-129851905D01*
X288642857Y-129661429D01*
X288619048Y-129613810D01*
X288595238Y-129590000D01*
X288547619Y-129566190D01*
X288452381Y-129566190D01*
X288404762Y-129590000D01*
X288380953Y-129613810D01*
X288357143Y-129661429D01*
X288357143Y-129780476D01*
X288380953Y-129828095D01*
X288404762Y-129851905D01*
X288452381Y-129875714D01*
X288547619Y-129875714D01*
X288595238Y-129851905D01*
X288619048Y-129828095D01*
X288642857Y-129780476D01*
D21*
X285722857Y-143391429D02*
X285722857Y-143877143D01*
X285751429Y-143934286D01*
X285780000Y-143962857D01*
X285837143Y-143991429D01*
X285951429Y-143991429D01*
X286008571Y-143962857D01*
X286037143Y-143934286D01*
X286065714Y-143877143D01*
X286065714Y-143391429D01*
X286608571Y-143391429D02*
X286494285Y-143391429D01*
X286437142Y-143420000D01*
X286408571Y-143448571D01*
X286351428Y-143534286D01*
X286322857Y-143648571D01*
X286322857Y-143877143D01*
X286351428Y-143934286D01*
X286380000Y-143962857D01*
X286437142Y-143991429D01*
X286551428Y-143991429D01*
X286608571Y-143962857D01*
X286637142Y-143934286D01*
X286665714Y-143877143D01*
X286665714Y-143734286D01*
X286637142Y-143677143D01*
X286608571Y-143648571D01*
X286551428Y-143620000D01*
X286437142Y-143620000D01*
X286380000Y-143648571D01*
X286351428Y-143677143D01*
X286322857Y-143734286D01*
X288362381Y-142163810D02*
X288314762Y-142140000D01*
X288267143Y-142092381D01*
X288195714Y-142020952D01*
X288148095Y-141997143D01*
X288100476Y-141997143D01*
X288124286Y-142116190D02*
X288076667Y-142092381D01*
X288029048Y-142044762D01*
X288005238Y-141949524D01*
X288005238Y-141782857D01*
X288029048Y-141687619D01*
X288076667Y-141640000D01*
X288124286Y-141616190D01*
X288219524Y-141616190D01*
X288267143Y-141640000D01*
X288314762Y-141687619D01*
X288338571Y-141782857D01*
X288338571Y-141949524D01*
X288314762Y-142044762D01*
X288267143Y-142092381D01*
X288219524Y-142116190D01*
X288124286Y-142116190D01*
X288814762Y-142116190D02*
X288529048Y-142116190D01*
X288671905Y-142116190D02*
X288671905Y-141616190D01*
X288624286Y-141687619D01*
X288576667Y-141735238D01*
X288529048Y-141759048D01*
M02*
