G04 #@! TF.FileFunction,Copper,L2,Bot,Signal*
%FSLAX46Y46*%
G04 Gerber Fmt 4.6, Leading zero omitted, Abs format (unit mm)*
G04 Created by KiCad (PCBNEW 4.0.4-stable) date 06/27/18 00:46:23*
%MOMM*%
%LPD*%
G01*
G04 APERTURE LIST*
%ADD10C,0.150000*%
%ADD11R,1.700000X1.700000*%
%ADD12O,1.700000X1.700000*%
%ADD13R,1.524000X1.524000*%
%ADD14C,1.524000*%
%ADD15C,0.508000*%
%ADD16C,0.457200*%
%ADD17C,0.152000*%
%ADD18C,0.229000*%
%ADD19C,0.254000*%
G04 APERTURE END LIST*
D10*
D11*
X295990000Y-144510000D03*
D12*
X295990000Y-141970000D03*
D11*
X296270000Y-126950000D03*
D12*
X296270000Y-129490000D03*
X296270000Y-132030000D03*
X296270000Y-134570000D03*
D13*
X281500000Y-129560000D03*
D14*
X281500000Y-127020000D03*
D13*
X292380000Y-144450000D03*
D14*
X292380000Y-141910000D03*
D11*
X296270000Y-137280000D03*
D15*
X281380000Y-139390000D03*
X283330000Y-126550000D03*
X285179580Y-131429580D03*
X270070000Y-140110000D03*
X288240000Y-138300000D03*
X287570000Y-129800000D03*
X280880000Y-137160000D03*
X287340000Y-126490000D03*
X274640000Y-137010000D03*
X275120000Y-130980000D03*
X274580000Y-129450000D03*
X274870000Y-143370000D03*
X289520000Y-140520000D03*
X289860000Y-144040000D03*
X287740000Y-139830000D03*
X281100000Y-141780000D03*
X280000000Y-143270000D03*
X271200000Y-144600000D03*
X285030000Y-132840000D03*
X268940000Y-142137500D03*
X279070000Y-128500000D03*
X283750000Y-138380000D03*
X286070000Y-134870000D03*
X268986000Y-135610000D03*
X276820000Y-128420000D03*
X277520000Y-141870000D03*
X274870000Y-142070000D03*
X290000000Y-145010000D03*
X288340000Y-141140000D03*
D16*
X282185000Y-138585000D02*
X282305000Y-138585000D01*
X281380000Y-139390000D02*
X282185000Y-138585000D01*
X283330000Y-126550000D02*
X287280000Y-126550000D01*
X287280000Y-126550000D02*
X287340000Y-126490000D01*
X285179580Y-131429580D02*
X285179580Y-128399580D01*
X285179580Y-128399580D02*
X283330000Y-126550000D01*
X280880000Y-137160000D02*
X280880000Y-135729160D01*
X280880000Y-135729160D02*
X285179580Y-131429580D01*
X286809160Y-129800000D02*
X287570000Y-129800000D01*
X285179580Y-131429580D02*
X286809160Y-129800000D01*
X273170000Y-137010000D02*
X274640000Y-137010000D01*
X270070000Y-140110000D02*
X273170000Y-137010000D01*
X288240000Y-138300000D02*
X287390000Y-139150000D01*
X282870000Y-139150000D02*
X282305000Y-138585000D01*
X282305000Y-138585000D02*
X280880000Y-137160000D01*
X287390000Y-139150000D02*
X282870000Y-139150000D01*
X280730000Y-137010000D02*
X280880000Y-137160000D01*
X274640000Y-137010000D02*
X279270000Y-137010000D01*
X279270000Y-137010000D02*
X280730000Y-137010000D01*
X275120000Y-130980000D02*
X275120000Y-136450000D01*
X275120000Y-136450000D02*
X274640000Y-137010000D01*
X275120000Y-129990000D02*
X275120000Y-130980000D01*
X274580000Y-129450000D02*
X275120000Y-129990000D01*
D17*
X280390000Y-140520000D02*
X289520000Y-140520000D01*
X277780000Y-143130000D02*
X280390000Y-140520000D01*
X275110000Y-143130000D02*
X277780000Y-143130000D01*
X274870000Y-143370000D02*
X275110000Y-143130000D01*
X289520000Y-140520000D02*
X289860000Y-140860000D01*
X289860000Y-140860000D02*
X289860000Y-144040000D01*
D18*
X290000000Y-139530000D02*
X292380000Y-141910000D01*
X288040000Y-139530000D02*
X290000000Y-139530000D01*
X287740000Y-139830000D02*
X288040000Y-139530000D01*
D16*
X280000000Y-143270000D02*
X280000000Y-142880000D01*
X280000000Y-142880000D02*
X281100000Y-141780000D01*
D18*
X278670000Y-144600000D02*
X271200000Y-144600000D01*
X280000000Y-143270000D02*
X278670000Y-144600000D01*
D17*
X268940000Y-142340000D02*
X268940000Y-142137500D01*
X271200000Y-144600000D02*
X268940000Y-142340000D01*
D16*
X285030000Y-132840000D02*
X285030000Y-133830000D01*
X285030000Y-133830000D02*
X286070000Y-134870000D01*
X268986000Y-135610000D02*
X268986000Y-142091500D01*
D17*
X268986000Y-142091500D02*
X268940000Y-142137500D01*
X279070000Y-128500000D02*
X279040000Y-128500000D01*
D16*
X286070000Y-136060000D02*
X286070000Y-134870000D01*
X283750000Y-138380000D02*
X286070000Y-136060000D01*
D17*
X268986000Y-135610000D02*
X268990000Y-135610000D01*
X276810000Y-128430000D02*
X276800000Y-128430000D01*
X276820000Y-128420000D02*
X276810000Y-128430000D01*
X275070000Y-141870000D02*
X277520000Y-141870000D01*
X274870000Y-142070000D02*
X275070000Y-141870000D01*
X290000000Y-145010000D02*
X289940000Y-144950000D01*
X289940000Y-144950000D02*
X289370000Y-144960000D01*
X289370000Y-144960000D02*
X288340000Y-143930000D01*
X288340000Y-143930000D02*
X288340000Y-141140000D01*
D19*
G36*
X294772560Y-127800000D02*
X294816838Y-128035317D01*
X294955910Y-128251441D01*
X295168110Y-128396431D01*
X295235541Y-128410086D01*
X295190853Y-128439946D01*
X294868946Y-128921715D01*
X294755907Y-129490000D01*
X294868946Y-130058285D01*
X295190853Y-130540054D01*
X295520026Y-130760000D01*
X295190853Y-130979946D01*
X294868946Y-131461715D01*
X294755907Y-132030000D01*
X294868946Y-132598285D01*
X295190853Y-133080054D01*
X295520026Y-133300000D01*
X295190853Y-133519946D01*
X294868946Y-134001715D01*
X294755907Y-134570000D01*
X294868946Y-135138285D01*
X295190853Y-135620054D01*
X295434061Y-135782560D01*
X295420000Y-135782560D01*
X295184683Y-135826838D01*
X294968559Y-135965910D01*
X294823569Y-136178110D01*
X294772560Y-136430000D01*
X294772560Y-138130000D01*
X294816838Y-138365317D01*
X294955910Y-138581441D01*
X295168110Y-138726431D01*
X295420000Y-138777440D01*
X297120000Y-138777440D01*
X297355317Y-138733162D01*
X297415000Y-138694757D01*
X297415000Y-141573331D01*
X297261645Y-141203076D01*
X296871358Y-140774817D01*
X296346892Y-140528514D01*
X296117000Y-140649181D01*
X296117000Y-141843000D01*
X296137000Y-141843000D01*
X296137000Y-142097000D01*
X296117000Y-142097000D01*
X296117000Y-142117000D01*
X295863000Y-142117000D01*
X295863000Y-142097000D01*
X294669845Y-142097000D01*
X294548524Y-142326890D01*
X294718355Y-142736924D01*
X294994501Y-143039937D01*
X294904683Y-143056838D01*
X294688559Y-143195910D01*
X294543569Y-143408110D01*
X294492560Y-143660000D01*
X294492560Y-145295000D01*
X293772632Y-145295000D01*
X293789440Y-145212000D01*
X293789440Y-143688000D01*
X293745162Y-143452683D01*
X293606090Y-143236559D01*
X293393890Y-143091569D01*
X293142000Y-143040560D01*
X293137484Y-143040560D01*
X293180608Y-142890213D01*
X292380000Y-142089605D01*
X291579392Y-142890213D01*
X291622516Y-143040560D01*
X291618000Y-143040560D01*
X291382683Y-143084838D01*
X291166559Y-143223910D01*
X291021569Y-143436110D01*
X290970560Y-143688000D01*
X290970560Y-145212000D01*
X290986178Y-145295000D01*
X290844253Y-145295000D01*
X290888846Y-145187609D01*
X290889154Y-144833943D01*
X290754097Y-144507080D01*
X290665500Y-144418328D01*
X290748846Y-144217609D01*
X290749154Y-143863943D01*
X290614097Y-143537080D01*
X290571000Y-143493908D01*
X290571000Y-141702302D01*
X290970856Y-141702302D01*
X290998638Y-142257368D01*
X291157603Y-142641143D01*
X291399787Y-142710608D01*
X292200395Y-141910000D01*
X292559605Y-141910000D01*
X293360213Y-142710608D01*
X293602397Y-142641143D01*
X293789144Y-142117698D01*
X293763889Y-141613110D01*
X294548524Y-141613110D01*
X294669845Y-141843000D01*
X295863000Y-141843000D01*
X295863000Y-140649181D01*
X295633108Y-140528514D01*
X295108642Y-140774817D01*
X294718355Y-141203076D01*
X294548524Y-141613110D01*
X293763889Y-141613110D01*
X293761362Y-141562632D01*
X293602397Y-141178857D01*
X293360213Y-141109392D01*
X292559605Y-141910000D01*
X292200395Y-141910000D01*
X291399787Y-141109392D01*
X291157603Y-141178857D01*
X290970856Y-141702302D01*
X290571000Y-141702302D01*
X290571000Y-140929787D01*
X291579392Y-140929787D01*
X292380000Y-141730395D01*
X293180608Y-140929787D01*
X293111143Y-140687603D01*
X292587698Y-140500856D01*
X292032632Y-140528638D01*
X291648857Y-140687603D01*
X291579392Y-140929787D01*
X290571000Y-140929787D01*
X290571000Y-140860000D01*
X290516878Y-140587912D01*
X290409082Y-140426583D01*
X290409154Y-140343943D01*
X290274097Y-140017080D01*
X290024236Y-139766782D01*
X289697609Y-139631154D01*
X289343943Y-139630846D01*
X289017080Y-139765903D01*
X288973908Y-139809000D01*
X287928307Y-139809000D01*
X288000657Y-139760657D01*
X288682079Y-139079236D01*
X288742920Y-139054097D01*
X288993218Y-138804236D01*
X289128846Y-138477609D01*
X289129154Y-138123943D01*
X288994097Y-137797080D01*
X288744236Y-137546782D01*
X288417609Y-137411154D01*
X288063943Y-137410846D01*
X287737080Y-137545903D01*
X287486782Y-137795764D01*
X287461120Y-137857566D01*
X287032286Y-138286400D01*
X283227715Y-138286400D01*
X282915659Y-137974345D01*
X282915657Y-137974342D01*
X281743600Y-136802286D01*
X281743600Y-136086874D01*
X285621659Y-132208816D01*
X285682500Y-132183677D01*
X285932798Y-131933816D01*
X285958461Y-131872013D01*
X287166875Y-130663600D01*
X287331592Y-130663600D01*
X287392391Y-130688846D01*
X287746057Y-130689154D01*
X288072920Y-130554097D01*
X288323218Y-130304236D01*
X288458846Y-129977609D01*
X288459154Y-129623943D01*
X288324097Y-129297080D01*
X288074236Y-129046782D01*
X287747609Y-128911154D01*
X287393943Y-128910846D01*
X287332098Y-128936400D01*
X286809160Y-128936400D01*
X286533505Y-128991231D01*
X286478674Y-129002138D01*
X286198502Y-129189343D01*
X286043180Y-129344665D01*
X286043180Y-128399580D01*
X285977442Y-128069095D01*
X285977442Y-128069094D01*
X285790237Y-127788922D01*
X285414915Y-127413600D01*
X287280000Y-127413600D01*
X287453445Y-127379099D01*
X287516057Y-127379154D01*
X287574434Y-127355033D01*
X287610485Y-127347862D01*
X287640780Y-127327620D01*
X287842920Y-127244097D01*
X288093218Y-126994236D01*
X288228846Y-126667609D01*
X288229154Y-126313943D01*
X288175876Y-126185000D01*
X294772560Y-126185000D01*
X294772560Y-127800000D01*
X294772560Y-127800000D01*
G37*
X294772560Y-127800000D02*
X294816838Y-128035317D01*
X294955910Y-128251441D01*
X295168110Y-128396431D01*
X295235541Y-128410086D01*
X295190853Y-128439946D01*
X294868946Y-128921715D01*
X294755907Y-129490000D01*
X294868946Y-130058285D01*
X295190853Y-130540054D01*
X295520026Y-130760000D01*
X295190853Y-130979946D01*
X294868946Y-131461715D01*
X294755907Y-132030000D01*
X294868946Y-132598285D01*
X295190853Y-133080054D01*
X295520026Y-133300000D01*
X295190853Y-133519946D01*
X294868946Y-134001715D01*
X294755907Y-134570000D01*
X294868946Y-135138285D01*
X295190853Y-135620054D01*
X295434061Y-135782560D01*
X295420000Y-135782560D01*
X295184683Y-135826838D01*
X294968559Y-135965910D01*
X294823569Y-136178110D01*
X294772560Y-136430000D01*
X294772560Y-138130000D01*
X294816838Y-138365317D01*
X294955910Y-138581441D01*
X295168110Y-138726431D01*
X295420000Y-138777440D01*
X297120000Y-138777440D01*
X297355317Y-138733162D01*
X297415000Y-138694757D01*
X297415000Y-141573331D01*
X297261645Y-141203076D01*
X296871358Y-140774817D01*
X296346892Y-140528514D01*
X296117000Y-140649181D01*
X296117000Y-141843000D01*
X296137000Y-141843000D01*
X296137000Y-142097000D01*
X296117000Y-142097000D01*
X296117000Y-142117000D01*
X295863000Y-142117000D01*
X295863000Y-142097000D01*
X294669845Y-142097000D01*
X294548524Y-142326890D01*
X294718355Y-142736924D01*
X294994501Y-143039937D01*
X294904683Y-143056838D01*
X294688559Y-143195910D01*
X294543569Y-143408110D01*
X294492560Y-143660000D01*
X294492560Y-145295000D01*
X293772632Y-145295000D01*
X293789440Y-145212000D01*
X293789440Y-143688000D01*
X293745162Y-143452683D01*
X293606090Y-143236559D01*
X293393890Y-143091569D01*
X293142000Y-143040560D01*
X293137484Y-143040560D01*
X293180608Y-142890213D01*
X292380000Y-142089605D01*
X291579392Y-142890213D01*
X291622516Y-143040560D01*
X291618000Y-143040560D01*
X291382683Y-143084838D01*
X291166559Y-143223910D01*
X291021569Y-143436110D01*
X290970560Y-143688000D01*
X290970560Y-145212000D01*
X290986178Y-145295000D01*
X290844253Y-145295000D01*
X290888846Y-145187609D01*
X290889154Y-144833943D01*
X290754097Y-144507080D01*
X290665500Y-144418328D01*
X290748846Y-144217609D01*
X290749154Y-143863943D01*
X290614097Y-143537080D01*
X290571000Y-143493908D01*
X290571000Y-141702302D01*
X290970856Y-141702302D01*
X290998638Y-142257368D01*
X291157603Y-142641143D01*
X291399787Y-142710608D01*
X292200395Y-141910000D01*
X292559605Y-141910000D01*
X293360213Y-142710608D01*
X293602397Y-142641143D01*
X293789144Y-142117698D01*
X293763889Y-141613110D01*
X294548524Y-141613110D01*
X294669845Y-141843000D01*
X295863000Y-141843000D01*
X295863000Y-140649181D01*
X295633108Y-140528514D01*
X295108642Y-140774817D01*
X294718355Y-141203076D01*
X294548524Y-141613110D01*
X293763889Y-141613110D01*
X293761362Y-141562632D01*
X293602397Y-141178857D01*
X293360213Y-141109392D01*
X292559605Y-141910000D01*
X292200395Y-141910000D01*
X291399787Y-141109392D01*
X291157603Y-141178857D01*
X290970856Y-141702302D01*
X290571000Y-141702302D01*
X290571000Y-140929787D01*
X291579392Y-140929787D01*
X292380000Y-141730395D01*
X293180608Y-140929787D01*
X293111143Y-140687603D01*
X292587698Y-140500856D01*
X292032632Y-140528638D01*
X291648857Y-140687603D01*
X291579392Y-140929787D01*
X290571000Y-140929787D01*
X290571000Y-140860000D01*
X290516878Y-140587912D01*
X290409082Y-140426583D01*
X290409154Y-140343943D01*
X290274097Y-140017080D01*
X290024236Y-139766782D01*
X289697609Y-139631154D01*
X289343943Y-139630846D01*
X289017080Y-139765903D01*
X288973908Y-139809000D01*
X287928307Y-139809000D01*
X288000657Y-139760657D01*
X288682079Y-139079236D01*
X288742920Y-139054097D01*
X288993218Y-138804236D01*
X289128846Y-138477609D01*
X289129154Y-138123943D01*
X288994097Y-137797080D01*
X288744236Y-137546782D01*
X288417609Y-137411154D01*
X288063943Y-137410846D01*
X287737080Y-137545903D01*
X287486782Y-137795764D01*
X287461120Y-137857566D01*
X287032286Y-138286400D01*
X283227715Y-138286400D01*
X282915659Y-137974345D01*
X282915657Y-137974342D01*
X281743600Y-136802286D01*
X281743600Y-136086874D01*
X285621659Y-132208816D01*
X285682500Y-132183677D01*
X285932798Y-131933816D01*
X285958461Y-131872013D01*
X287166875Y-130663600D01*
X287331592Y-130663600D01*
X287392391Y-130688846D01*
X287746057Y-130689154D01*
X288072920Y-130554097D01*
X288323218Y-130304236D01*
X288458846Y-129977609D01*
X288459154Y-129623943D01*
X288324097Y-129297080D01*
X288074236Y-129046782D01*
X287747609Y-128911154D01*
X287393943Y-128910846D01*
X287332098Y-128936400D01*
X286809160Y-128936400D01*
X286533505Y-128991231D01*
X286478674Y-129002138D01*
X286198502Y-129189343D01*
X286043180Y-129344665D01*
X286043180Y-128399580D01*
X285977442Y-128069095D01*
X285977442Y-128069094D01*
X285790237Y-127788922D01*
X285414915Y-127413600D01*
X287280000Y-127413600D01*
X287453445Y-127379099D01*
X287516057Y-127379154D01*
X287574434Y-127355033D01*
X287610485Y-127347862D01*
X287640780Y-127327620D01*
X287842920Y-127244097D01*
X288093218Y-126994236D01*
X288228846Y-126667609D01*
X288229154Y-126313943D01*
X288175876Y-126185000D01*
X294772560Y-126185000D01*
X294772560Y-127800000D01*
G36*
X280316371Y-126227630D02*
X280103243Y-126740900D01*
X280102758Y-127296661D01*
X280314990Y-127810303D01*
X280667833Y-128163763D01*
X280502683Y-128194838D01*
X280286559Y-128333910D01*
X280141569Y-128546110D01*
X280090560Y-128798000D01*
X280090560Y-130322000D01*
X280134838Y-130557317D01*
X280273910Y-130773441D01*
X280486110Y-130918431D01*
X280738000Y-130969440D01*
X282262000Y-130969440D01*
X282497317Y-130925162D01*
X282713441Y-130786090D01*
X282858431Y-130573890D01*
X282909440Y-130322000D01*
X282909440Y-128798000D01*
X282865162Y-128562683D01*
X282726090Y-128346559D01*
X282513890Y-128201569D01*
X282330876Y-128164508D01*
X282683629Y-127812370D01*
X282884858Y-127327756D01*
X282887567Y-127328881D01*
X284315980Y-128757295D01*
X284315980Y-131071865D01*
X280269343Y-135118503D01*
X280082138Y-135398675D01*
X280016400Y-135729160D01*
X280016400Y-136146400D01*
X275983600Y-136146400D01*
X275983600Y-131218408D01*
X276008846Y-131157609D01*
X276009154Y-130803943D01*
X275983600Y-130742098D01*
X275983600Y-129990000D01*
X275917862Y-129659515D01*
X275917862Y-129659514D01*
X275730657Y-129379342D01*
X275359236Y-129007922D01*
X275334097Y-128947080D01*
X275084236Y-128696782D01*
X274757609Y-128561154D01*
X274403943Y-128560846D01*
X274077080Y-128695903D01*
X273826782Y-128945764D01*
X273691154Y-129272391D01*
X273690846Y-129626057D01*
X273825903Y-129952920D01*
X274075764Y-130203218D01*
X274137566Y-130228881D01*
X274256400Y-130347715D01*
X274256400Y-130741592D01*
X274231154Y-130802391D01*
X274230846Y-131156057D01*
X274256400Y-131217902D01*
X274256400Y-136130533D01*
X274242800Y-136146400D01*
X273170000Y-136146400D01*
X272839515Y-136212138D01*
X272559343Y-136399343D01*
X269627923Y-139330763D01*
X269567080Y-139355903D01*
X269316782Y-139605764D01*
X269181154Y-139932391D01*
X269180846Y-140286057D01*
X269315903Y-140612920D01*
X269565764Y-140863218D01*
X269892391Y-140998846D01*
X270246057Y-140999154D01*
X270572920Y-140864097D01*
X270823218Y-140614236D01*
X270848881Y-140552433D01*
X273527714Y-137873600D01*
X274401592Y-137873600D01*
X274462391Y-137898846D01*
X274816057Y-137899154D01*
X274877902Y-137873600D01*
X280336215Y-137873600D01*
X280375764Y-137913218D01*
X280437567Y-137938881D01*
X281023686Y-138525000D01*
X280937923Y-138610763D01*
X280877080Y-138635903D01*
X280626782Y-138885764D01*
X280491154Y-139212391D01*
X280490846Y-139566057D01*
X280591228Y-139809000D01*
X280390000Y-139809000D01*
X280117912Y-139863122D01*
X279887247Y-140017247D01*
X278351086Y-141553408D01*
X278274097Y-141367080D01*
X278024236Y-141116782D01*
X277697609Y-140981154D01*
X277343943Y-140980846D01*
X277017080Y-141115903D01*
X276973908Y-141159000D01*
X275070000Y-141159000D01*
X274959013Y-141181077D01*
X274693943Y-141180846D01*
X274367080Y-141315903D01*
X274116782Y-141565764D01*
X273981154Y-141892391D01*
X273980846Y-142246057D01*
X274115903Y-142572920D01*
X274262764Y-142720037D01*
X274116782Y-142865764D01*
X273981154Y-143192391D01*
X273980846Y-143546057D01*
X274115903Y-143872920D01*
X274365764Y-144123218D01*
X274692391Y-144258846D01*
X275046057Y-144259154D01*
X275372920Y-144124097D01*
X275623218Y-143874236D01*
X275637019Y-143841000D01*
X277780000Y-143841000D01*
X278052088Y-143786878D01*
X278282753Y-143632753D01*
X280684506Y-141231000D01*
X287450920Y-141231000D01*
X287450846Y-141316057D01*
X287585903Y-141642920D01*
X287629000Y-141686092D01*
X287629000Y-143930000D01*
X287683122Y-144202088D01*
X287837247Y-144432753D01*
X288699494Y-145295000D01*
X266585000Y-145295000D01*
X266585000Y-132127000D01*
X272550000Y-132127000D01*
X272599410Y-132116994D01*
X272641035Y-132088553D01*
X272668315Y-132046159D01*
X272677000Y-132000000D01*
X272677000Y-126185000D01*
X280359075Y-126185000D01*
X280316371Y-126227630D01*
X280316371Y-126227630D01*
G37*
X280316371Y-126227630D02*
X280103243Y-126740900D01*
X280102758Y-127296661D01*
X280314990Y-127810303D01*
X280667833Y-128163763D01*
X280502683Y-128194838D01*
X280286559Y-128333910D01*
X280141569Y-128546110D01*
X280090560Y-128798000D01*
X280090560Y-130322000D01*
X280134838Y-130557317D01*
X280273910Y-130773441D01*
X280486110Y-130918431D01*
X280738000Y-130969440D01*
X282262000Y-130969440D01*
X282497317Y-130925162D01*
X282713441Y-130786090D01*
X282858431Y-130573890D01*
X282909440Y-130322000D01*
X282909440Y-128798000D01*
X282865162Y-128562683D01*
X282726090Y-128346559D01*
X282513890Y-128201569D01*
X282330876Y-128164508D01*
X282683629Y-127812370D01*
X282884858Y-127327756D01*
X282887567Y-127328881D01*
X284315980Y-128757295D01*
X284315980Y-131071865D01*
X280269343Y-135118503D01*
X280082138Y-135398675D01*
X280016400Y-135729160D01*
X280016400Y-136146400D01*
X275983600Y-136146400D01*
X275983600Y-131218408D01*
X276008846Y-131157609D01*
X276009154Y-130803943D01*
X275983600Y-130742098D01*
X275983600Y-129990000D01*
X275917862Y-129659515D01*
X275917862Y-129659514D01*
X275730657Y-129379342D01*
X275359236Y-129007922D01*
X275334097Y-128947080D01*
X275084236Y-128696782D01*
X274757609Y-128561154D01*
X274403943Y-128560846D01*
X274077080Y-128695903D01*
X273826782Y-128945764D01*
X273691154Y-129272391D01*
X273690846Y-129626057D01*
X273825903Y-129952920D01*
X274075764Y-130203218D01*
X274137566Y-130228881D01*
X274256400Y-130347715D01*
X274256400Y-130741592D01*
X274231154Y-130802391D01*
X274230846Y-131156057D01*
X274256400Y-131217902D01*
X274256400Y-136130533D01*
X274242800Y-136146400D01*
X273170000Y-136146400D01*
X272839515Y-136212138D01*
X272559343Y-136399343D01*
X269627923Y-139330763D01*
X269567080Y-139355903D01*
X269316782Y-139605764D01*
X269181154Y-139932391D01*
X269180846Y-140286057D01*
X269315903Y-140612920D01*
X269565764Y-140863218D01*
X269892391Y-140998846D01*
X270246057Y-140999154D01*
X270572920Y-140864097D01*
X270823218Y-140614236D01*
X270848881Y-140552433D01*
X273527714Y-137873600D01*
X274401592Y-137873600D01*
X274462391Y-137898846D01*
X274816057Y-137899154D01*
X274877902Y-137873600D01*
X280336215Y-137873600D01*
X280375764Y-137913218D01*
X280437567Y-137938881D01*
X281023686Y-138525000D01*
X280937923Y-138610763D01*
X280877080Y-138635903D01*
X280626782Y-138885764D01*
X280491154Y-139212391D01*
X280490846Y-139566057D01*
X280591228Y-139809000D01*
X280390000Y-139809000D01*
X280117912Y-139863122D01*
X279887247Y-140017247D01*
X278351086Y-141553408D01*
X278274097Y-141367080D01*
X278024236Y-141116782D01*
X277697609Y-140981154D01*
X277343943Y-140980846D01*
X277017080Y-141115903D01*
X276973908Y-141159000D01*
X275070000Y-141159000D01*
X274959013Y-141181077D01*
X274693943Y-141180846D01*
X274367080Y-141315903D01*
X274116782Y-141565764D01*
X273981154Y-141892391D01*
X273980846Y-142246057D01*
X274115903Y-142572920D01*
X274262764Y-142720037D01*
X274116782Y-142865764D01*
X273981154Y-143192391D01*
X273980846Y-143546057D01*
X274115903Y-143872920D01*
X274365764Y-144123218D01*
X274692391Y-144258846D01*
X275046057Y-144259154D01*
X275372920Y-144124097D01*
X275623218Y-143874236D01*
X275637019Y-143841000D01*
X277780000Y-143841000D01*
X278052088Y-143786878D01*
X278282753Y-143632753D01*
X280684506Y-141231000D01*
X287450920Y-141231000D01*
X287450846Y-141316057D01*
X287585903Y-141642920D01*
X287629000Y-141686092D01*
X287629000Y-143930000D01*
X287683122Y-144202088D01*
X287837247Y-144432753D01*
X288699494Y-145295000D01*
X266585000Y-145295000D01*
X266585000Y-132127000D01*
X272550000Y-132127000D01*
X272599410Y-132116994D01*
X272641035Y-132088553D01*
X272668315Y-132046159D01*
X272677000Y-132000000D01*
X272677000Y-126185000D01*
X280359075Y-126185000D01*
X280316371Y-126227630D01*
M02*
