G04 #@! TF.FileFunction,Legend,Bot*
%FSLAX46Y46*%
G04 Gerber Fmt 4.6, Leading zero omitted, Abs format (unit mm)*
G04 Created by KiCad (PCBNEW 4.0.4-stable) date 06/27/18 00:46:23*
%MOMM*%
%LPD*%
G01*
G04 APERTURE LIST*
%ADD10C,0.150000*%
%ADD11C,0.127000*%
G04 APERTURE END LIST*
D10*
D11*
X280252428Y-141126714D02*
X280252428Y-141634714D01*
X280252428Y-141199286D02*
X280216143Y-141163000D01*
X280143571Y-141126714D01*
X280034714Y-141126714D01*
X279962143Y-141163000D01*
X279925857Y-141235571D01*
X279925857Y-141634714D01*
X279127571Y-141634714D02*
X279381571Y-141271857D01*
X279562999Y-141634714D02*
X279562999Y-140872714D01*
X279272714Y-140872714D01*
X279200142Y-140909000D01*
X279163857Y-140945286D01*
X279127571Y-141017857D01*
X279127571Y-141126714D01*
X279163857Y-141199286D01*
X279200142Y-141235571D01*
X279272714Y-141271857D01*
X279562999Y-141271857D01*
X278546999Y-141235571D02*
X278800999Y-141235571D01*
X278800999Y-141634714D02*
X278800999Y-140872714D01*
X278438142Y-140872714D01*
X277784999Y-140872714D02*
X278147856Y-140872714D01*
X278184142Y-141235571D01*
X278147856Y-141199286D01*
X278075285Y-141163000D01*
X277893856Y-141163000D01*
X277821285Y-141199286D01*
X277784999Y-141235571D01*
X277748714Y-141308143D01*
X277748714Y-141489571D01*
X277784999Y-141562143D01*
X277821285Y-141598429D01*
X277893856Y-141634714D01*
X278075285Y-141634714D01*
X278147856Y-141598429D01*
X278184142Y-141562143D01*
X277458428Y-140945286D02*
X277422142Y-140909000D01*
X277349571Y-140872714D01*
X277168142Y-140872714D01*
X277095571Y-140909000D01*
X277059285Y-140945286D01*
X277023000Y-141017857D01*
X277023000Y-141090429D01*
X277059285Y-141199286D01*
X277494714Y-141634714D01*
X277023000Y-141634714D01*
X276696428Y-141344429D02*
X276115857Y-141344429D01*
X275789285Y-141417000D02*
X275426428Y-141417000D01*
X275861857Y-141634714D02*
X275607857Y-140872714D01*
X275353857Y-141634714D01*
X275099856Y-141634714D02*
X275099856Y-140872714D01*
X274918428Y-140872714D01*
X274809571Y-140909000D01*
X274736999Y-140981571D01*
X274700714Y-141054143D01*
X274664428Y-141199286D01*
X274664428Y-141308143D01*
X274700714Y-141453286D01*
X274736999Y-141525857D01*
X274809571Y-141598429D01*
X274918428Y-141634714D01*
X275099856Y-141634714D01*
X274374142Y-141598429D02*
X274265285Y-141634714D01*
X274083856Y-141634714D01*
X274011285Y-141598429D01*
X273974999Y-141562143D01*
X273938714Y-141489571D01*
X273938714Y-141417000D01*
X273974999Y-141344429D01*
X274011285Y-141308143D01*
X274083856Y-141271857D01*
X274228999Y-141235571D01*
X274301571Y-141199286D01*
X274337856Y-141163000D01*
X274374142Y-141090429D01*
X274374142Y-141017857D01*
X274337856Y-140945286D01*
X274301571Y-140909000D01*
X274228999Y-140872714D01*
X274047571Y-140872714D01*
X273938714Y-140909000D01*
X273213000Y-141634714D02*
X273648428Y-141634714D01*
X273430714Y-141634714D02*
X273430714Y-140872714D01*
X273503285Y-140981571D01*
X273575857Y-141054143D01*
X273648428Y-141090429D01*
X272922714Y-140945286D02*
X272886428Y-140909000D01*
X272813857Y-140872714D01*
X272632428Y-140872714D01*
X272559857Y-140909000D01*
X272523571Y-140945286D01*
X272487286Y-141017857D01*
X272487286Y-141090429D01*
X272523571Y-141199286D01*
X272959000Y-141634714D01*
X272487286Y-141634714D01*
X272124429Y-141634714D02*
X271979286Y-141634714D01*
X271906714Y-141598429D01*
X271870429Y-141562143D01*
X271797857Y-141453286D01*
X271761572Y-141308143D01*
X271761572Y-141017857D01*
X271797857Y-140945286D01*
X271834143Y-140909000D01*
X271906714Y-140872714D01*
X272051857Y-140872714D01*
X272124429Y-140909000D01*
X272160714Y-140945286D01*
X272197000Y-141017857D01*
X272197000Y-141199286D01*
X272160714Y-141271857D01*
X272124429Y-141308143D01*
X272051857Y-141344429D01*
X271906714Y-141344429D01*
X271834143Y-141308143D01*
X271797857Y-141271857D01*
X271761572Y-141199286D01*
X271471286Y-140945286D02*
X271435000Y-140909000D01*
X271362429Y-140872714D01*
X271181000Y-140872714D01*
X271108429Y-140909000D01*
X271072143Y-140945286D01*
X271035858Y-141017857D01*
X271035858Y-141090429D01*
X271072143Y-141199286D01*
X271507572Y-141634714D01*
X271035858Y-141634714D01*
X270709286Y-141344429D02*
X270128715Y-141344429D01*
X269765857Y-141634714D02*
X269765857Y-140872714D01*
X269511857Y-141417000D01*
X269257857Y-140872714D01*
X269257857Y-141634714D01*
X268895000Y-141634714D02*
X268895000Y-140872714D01*
X268604715Y-140872714D01*
X268532143Y-140909000D01*
X268495858Y-140945286D01*
X268459572Y-141017857D01*
X268459572Y-141126714D01*
X268495858Y-141199286D01*
X268532143Y-141235571D01*
X268604715Y-141271857D01*
X268895000Y-141271857D01*
X268133000Y-140872714D02*
X268133000Y-141489571D01*
X268096715Y-141562143D01*
X268060429Y-141598429D01*
X267987858Y-141634714D01*
X267842715Y-141634714D01*
X267770143Y-141598429D01*
X267733858Y-141562143D01*
X267697572Y-141489571D01*
X267697572Y-140872714D01*
X281848999Y-142505571D02*
X281594999Y-142505571D01*
X281486142Y-142904714D02*
X281848999Y-142904714D01*
X281848999Y-142142714D01*
X281486142Y-142142714D01*
X281232142Y-142904714D02*
X280832999Y-142396714D01*
X281232142Y-142396714D02*
X280832999Y-142904714D01*
X280143571Y-142179000D02*
X280216142Y-142142714D01*
X280324999Y-142142714D01*
X280433856Y-142179000D01*
X280506428Y-142251571D01*
X280542713Y-142324143D01*
X280578999Y-142469286D01*
X280578999Y-142578143D01*
X280542713Y-142723286D01*
X280506428Y-142795857D01*
X280433856Y-142868429D01*
X280324999Y-142904714D01*
X280252428Y-142904714D01*
X280143571Y-142868429D01*
X280107285Y-142832143D01*
X280107285Y-142578143D01*
X280252428Y-142578143D01*
X279200142Y-142904714D02*
X279200142Y-142142714D01*
X278909857Y-142142714D01*
X278837285Y-142179000D01*
X278801000Y-142215286D01*
X278764714Y-142287857D01*
X278764714Y-142396714D01*
X278801000Y-142469286D01*
X278837285Y-142505571D01*
X278909857Y-142541857D01*
X279200142Y-142541857D01*
X278438142Y-142904714D02*
X278438142Y-142396714D01*
X278438142Y-142541857D02*
X278401857Y-142469286D01*
X278365571Y-142433000D01*
X278293000Y-142396714D01*
X278220428Y-142396714D01*
X277857571Y-142904714D02*
X277930143Y-142868429D01*
X277966428Y-142832143D01*
X278002714Y-142759571D01*
X278002714Y-142541857D01*
X277966428Y-142469286D01*
X277930143Y-142433000D01*
X277857571Y-142396714D01*
X277748714Y-142396714D01*
X277676143Y-142433000D01*
X277639857Y-142469286D01*
X277603571Y-142541857D01*
X277603571Y-142759571D01*
X277639857Y-142832143D01*
X277676143Y-142868429D01*
X277748714Y-142904714D01*
X277857571Y-142904714D01*
X277385857Y-142396714D02*
X277095571Y-142396714D01*
X277276999Y-142142714D02*
X277276999Y-142795857D01*
X277240714Y-142868429D01*
X277168142Y-142904714D01*
X277095571Y-142904714D01*
X276732713Y-142904714D02*
X276805285Y-142868429D01*
X276841570Y-142832143D01*
X276877856Y-142759571D01*
X276877856Y-142541857D01*
X276841570Y-142469286D01*
X276805285Y-142433000D01*
X276732713Y-142396714D01*
X276623856Y-142396714D01*
X276551285Y-142433000D01*
X276514999Y-142469286D01*
X276478713Y-142541857D01*
X276478713Y-142759571D01*
X276514999Y-142832143D01*
X276551285Y-142868429D01*
X276623856Y-142904714D01*
X276732713Y-142904714D01*
X276260999Y-142396714D02*
X275970713Y-142396714D01*
X276152141Y-142142714D02*
X276152141Y-142795857D01*
X276115856Y-142868429D01*
X276043284Y-142904714D01*
X275970713Y-142904714D01*
X275789284Y-142396714D02*
X275607855Y-142904714D01*
X275426427Y-142396714D02*
X275607855Y-142904714D01*
X275680427Y-143086143D01*
X275716712Y-143122429D01*
X275789284Y-143158714D01*
X275136141Y-142396714D02*
X275136141Y-143158714D01*
X275136141Y-142433000D02*
X275063570Y-142396714D01*
X274918427Y-142396714D01*
X274845856Y-142433000D01*
X274809570Y-142469286D01*
X274773284Y-142541857D01*
X274773284Y-142759571D01*
X274809570Y-142832143D01*
X274845856Y-142868429D01*
X274918427Y-142904714D01*
X275063570Y-142904714D01*
X275136141Y-142868429D01*
X274156427Y-142868429D02*
X274228998Y-142904714D01*
X274374141Y-142904714D01*
X274446712Y-142868429D01*
X274482998Y-142795857D01*
X274482998Y-142505571D01*
X274446712Y-142433000D01*
X274374141Y-142396714D01*
X274228998Y-142396714D01*
X274156427Y-142433000D01*
X274120141Y-142505571D01*
X274120141Y-142578143D01*
X274482998Y-142650714D01*
X273212998Y-142614429D02*
X272632427Y-142614429D01*
X271543856Y-142142714D02*
X271471284Y-142142714D01*
X271398713Y-142179000D01*
X271362427Y-142215286D01*
X271326141Y-142287857D01*
X271289856Y-142433000D01*
X271289856Y-142614429D01*
X271326141Y-142759571D01*
X271362427Y-142832143D01*
X271398713Y-142868429D01*
X271471284Y-142904714D01*
X271543856Y-142904714D01*
X271616427Y-142868429D01*
X271652713Y-142832143D01*
X271688998Y-142759571D01*
X271725284Y-142614429D01*
X271725284Y-142433000D01*
X271688998Y-142287857D01*
X271652713Y-142215286D01*
X271616427Y-142179000D01*
X271543856Y-142142714D01*
X270636713Y-142142714D02*
X270781856Y-142142714D01*
X270854427Y-142179000D01*
X270890713Y-142215286D01*
X270963284Y-142324143D01*
X270999570Y-142469286D01*
X270999570Y-142759571D01*
X270963284Y-142832143D01*
X270926999Y-142868429D01*
X270854427Y-142904714D01*
X270709284Y-142904714D01*
X270636713Y-142868429D01*
X270600427Y-142832143D01*
X270564142Y-142759571D01*
X270564142Y-142578143D01*
X270600427Y-142505571D01*
X270636713Y-142469286D01*
X270709284Y-142433000D01*
X270854427Y-142433000D01*
X270926999Y-142469286D01*
X270963284Y-142505571D01*
X270999570Y-142578143D01*
X269693285Y-142106429D02*
X270346428Y-143086143D01*
X269294142Y-142142714D02*
X269221570Y-142142714D01*
X269148999Y-142179000D01*
X269112713Y-142215286D01*
X269076427Y-142287857D01*
X269040142Y-142433000D01*
X269040142Y-142614429D01*
X269076427Y-142759571D01*
X269112713Y-142832143D01*
X269148999Y-142868429D01*
X269221570Y-142904714D01*
X269294142Y-142904714D01*
X269366713Y-142868429D01*
X269402999Y-142832143D01*
X269439284Y-142759571D01*
X269475570Y-142614429D01*
X269475570Y-142433000D01*
X269439284Y-142287857D01*
X269402999Y-142215286D01*
X269366713Y-142179000D01*
X269294142Y-142142714D01*
X268604713Y-142469286D02*
X268677285Y-142433000D01*
X268713570Y-142396714D01*
X268749856Y-142324143D01*
X268749856Y-142287857D01*
X268713570Y-142215286D01*
X268677285Y-142179000D01*
X268604713Y-142142714D01*
X268459570Y-142142714D01*
X268386999Y-142179000D01*
X268350713Y-142215286D01*
X268314428Y-142287857D01*
X268314428Y-142324143D01*
X268350713Y-142396714D01*
X268386999Y-142433000D01*
X268459570Y-142469286D01*
X268604713Y-142469286D01*
X268677285Y-142505571D01*
X268713570Y-142541857D01*
X268749856Y-142614429D01*
X268749856Y-142759571D01*
X268713570Y-142832143D01*
X268677285Y-142868429D01*
X268604713Y-142904714D01*
X268459570Y-142904714D01*
X268386999Y-142868429D01*
X268350713Y-142832143D01*
X268314428Y-142759571D01*
X268314428Y-142614429D01*
X268350713Y-142541857D01*
X268386999Y-142505571D01*
X268459570Y-142469286D01*
X267443571Y-142106429D02*
X268096714Y-143086143D01*
X266790428Y-142904714D02*
X267225856Y-142904714D01*
X267008142Y-142904714D02*
X267008142Y-142142714D01*
X267080713Y-142251571D01*
X267153285Y-142324143D01*
X267225856Y-142360429D01*
X266354999Y-142469286D02*
X266427571Y-142433000D01*
X266463856Y-142396714D01*
X266500142Y-142324143D01*
X266500142Y-142287857D01*
X266463856Y-142215286D01*
X266427571Y-142179000D01*
X266354999Y-142142714D01*
X266209856Y-142142714D01*
X266137285Y-142179000D01*
X266100999Y-142215286D01*
X266064714Y-142287857D01*
X266064714Y-142324143D01*
X266100999Y-142396714D01*
X266137285Y-142433000D01*
X266209856Y-142469286D01*
X266354999Y-142469286D01*
X266427571Y-142505571D01*
X266463856Y-142541857D01*
X266500142Y-142614429D01*
X266500142Y-142759571D01*
X266463856Y-142832143D01*
X266427571Y-142868429D01*
X266354999Y-142904714D01*
X266209856Y-142904714D01*
X266137285Y-142868429D01*
X266100999Y-142832143D01*
X266064714Y-142759571D01*
X266064714Y-142614429D01*
X266100999Y-142541857D01*
X266137285Y-142505571D01*
X266209856Y-142469286D01*
X279653715Y-143811857D02*
X279653715Y-144174714D01*
X279907715Y-143412714D02*
X279653715Y-143811857D01*
X279399715Y-143412714D01*
X278855429Y-144138429D02*
X278928000Y-144174714D01*
X279073143Y-144174714D01*
X279145714Y-144138429D01*
X279182000Y-144065857D01*
X279182000Y-143775571D01*
X279145714Y-143703000D01*
X279073143Y-143666714D01*
X278928000Y-143666714D01*
X278855429Y-143703000D01*
X278819143Y-143775571D01*
X278819143Y-143848143D01*
X279182000Y-143920714D01*
X278383714Y-144174714D02*
X278456286Y-144138429D01*
X278492571Y-144102143D01*
X278528857Y-144029571D01*
X278528857Y-143811857D01*
X278492571Y-143739286D01*
X278456286Y-143703000D01*
X278383714Y-143666714D01*
X278274857Y-143666714D01*
X278202286Y-143703000D01*
X278166000Y-143739286D01*
X278129714Y-143811857D01*
X278129714Y-144029571D01*
X278166000Y-144102143D01*
X278202286Y-144138429D01*
X278274857Y-144174714D01*
X278383714Y-144174714D01*
X276823429Y-143449000D02*
X276896000Y-143412714D01*
X277004857Y-143412714D01*
X277113714Y-143449000D01*
X277186286Y-143521571D01*
X277222571Y-143594143D01*
X277258857Y-143739286D01*
X277258857Y-143848143D01*
X277222571Y-143993286D01*
X277186286Y-144065857D01*
X277113714Y-144138429D01*
X277004857Y-144174714D01*
X276932286Y-144174714D01*
X276823429Y-144138429D01*
X276787143Y-144102143D01*
X276787143Y-143848143D01*
X276932286Y-143848143D01*
X276134000Y-144174714D02*
X276134000Y-143775571D01*
X276170286Y-143703000D01*
X276242857Y-143666714D01*
X276388000Y-143666714D01*
X276460571Y-143703000D01*
X276134000Y-144138429D02*
X276206571Y-144174714D01*
X276388000Y-144174714D01*
X276460571Y-144138429D01*
X276496857Y-144065857D01*
X276496857Y-143993286D01*
X276460571Y-143920714D01*
X276388000Y-143884429D01*
X276206571Y-143884429D01*
X276134000Y-143848143D01*
X275880000Y-143412714D02*
X275444571Y-143412714D01*
X275662285Y-144174714D02*
X275662285Y-143412714D01*
X274900286Y-144138429D02*
X274972857Y-144174714D01*
X275118000Y-144174714D01*
X275190571Y-144138429D01*
X275226857Y-144065857D01*
X275226857Y-143775571D01*
X275190571Y-143703000D01*
X275118000Y-143666714D01*
X274972857Y-143666714D01*
X274900286Y-143703000D01*
X274864000Y-143775571D01*
X274864000Y-143848143D01*
X275226857Y-143920714D01*
X274210857Y-144138429D02*
X274283428Y-144174714D01*
X274428571Y-144174714D01*
X274501143Y-144138429D01*
X274537428Y-144102143D01*
X274573714Y-144029571D01*
X274573714Y-143811857D01*
X274537428Y-143739286D01*
X274501143Y-143703000D01*
X274428571Y-143666714D01*
X274283428Y-143666714D01*
X274210857Y-143703000D01*
X273884285Y-144174714D02*
X273884285Y-143412714D01*
X273557714Y-144174714D02*
X273557714Y-143775571D01*
X273594000Y-143703000D01*
X273666571Y-143666714D01*
X273775428Y-143666714D01*
X273848000Y-143703000D01*
X273884285Y-143739286D01*
X272360285Y-143775571D02*
X272251428Y-143811857D01*
X272215143Y-143848143D01*
X272178857Y-143920714D01*
X272178857Y-144029571D01*
X272215143Y-144102143D01*
X272251428Y-144138429D01*
X272324000Y-144174714D01*
X272614285Y-144174714D01*
X272614285Y-143412714D01*
X272360285Y-143412714D01*
X272287714Y-143449000D01*
X272251428Y-143485286D01*
X272215143Y-143557857D01*
X272215143Y-143630429D01*
X272251428Y-143703000D01*
X272287714Y-143739286D01*
X272360285Y-143775571D01*
X272614285Y-143775571D01*
X271852285Y-144174714D02*
X271852285Y-143412714D01*
X271416857Y-144174714D01*
X271416857Y-143412714D01*
X271053999Y-143775571D02*
X270799999Y-143775571D01*
X270691142Y-144174714D02*
X271053999Y-144174714D01*
X271053999Y-143412714D01*
X270691142Y-143412714D01*
X269421142Y-144174714D02*
X269783999Y-144174714D01*
X269783999Y-143412714D01*
X268840571Y-144174714D02*
X268840571Y-143775571D01*
X268876857Y-143703000D01*
X268949428Y-143666714D01*
X269094571Y-143666714D01*
X269167142Y-143703000D01*
X268840571Y-144138429D02*
X268913142Y-144174714D01*
X269094571Y-144174714D01*
X269167142Y-144138429D01*
X269203428Y-144065857D01*
X269203428Y-143993286D01*
X269167142Y-143920714D01*
X269094571Y-143884429D01*
X268913142Y-143884429D01*
X268840571Y-143848143D01*
X268477713Y-144174714D02*
X268477713Y-143412714D01*
X268477713Y-143703000D02*
X268405142Y-143666714D01*
X268259999Y-143666714D01*
X268187428Y-143703000D01*
X268151142Y-143739286D01*
X268114856Y-143811857D01*
X268114856Y-144029571D01*
X268151142Y-144102143D01*
X268187428Y-144138429D01*
X268259999Y-144174714D01*
X268405142Y-144174714D01*
X268477713Y-144138429D01*
M02*
