G04 #@! TF.FileFunction,Copper,L1,Top,Signal*
%FSLAX46Y46*%
G04 Gerber Fmt 4.6, Leading zero omitted, Abs format (unit mm)*
G04 Created by KiCad (PCBNEW 4.0.4-stable) date 06/27/18 00:46:23*
%MOMM*%
%LPD*%
G01*
G04 APERTURE LIST*
%ADD10C,0.150000*%
%ADD11R,1.700000X1.700000*%
%ADD12O,1.700000X1.700000*%
%ADD13R,0.398780X0.599440*%
%ADD14R,0.650000X0.400000*%
%ADD15R,0.800000X0.800000*%
%ADD16R,0.599440X0.398780*%
%ADD17O,0.600000X0.200000*%
%ADD18R,0.600000X0.200000*%
%ADD19O,0.200000X0.600000*%
%ADD20R,0.200000X0.600000*%
%ADD21R,1.325000X1.325000*%
%ADD22R,0.300000X0.650000*%
%ADD23R,1.240000X0.775000*%
%ADD24R,0.200000X0.500000*%
%ADD25R,0.200000X0.550000*%
%ADD26R,0.500000X0.200000*%
%ADD27R,0.550000X0.200000*%
%ADD28R,0.700000X0.300000*%
%ADD29R,0.600000X0.600000*%
%ADD30R,1.524000X1.524000*%
%ADD31C,1.524000*%
%ADD32R,0.635000X1.143000*%
%ADD33R,0.900000X0.800000*%
%ADD34R,0.800000X1.600000*%
%ADD35R,0.200000X0.800000*%
%ADD36R,0.800000X0.200000*%
%ADD37R,1.112500X1.112500*%
%ADD38R,0.600000X1.100000*%
%ADD39R,0.500000X0.600000*%
%ADD40R,0.750000X0.300000*%
%ADD41R,0.875000X0.725000*%
%ADD42R,0.400000X0.700000*%
%ADD43R,0.400000X0.250000*%
%ADD44C,0.508000*%
%ADD45C,0.152000*%
%ADD46C,0.457200*%
%ADD47C,0.460000*%
%ADD48C,0.229000*%
%ADD49C,0.152400*%
%ADD50C,0.254000*%
G04 APERTURE END LIST*
D10*
D11*
X295990000Y-144510000D03*
D12*
X295990000Y-141970000D03*
D11*
X296270000Y-126950000D03*
D12*
X296270000Y-129490000D03*
X296270000Y-132030000D03*
X296270000Y-134570000D03*
D13*
X278480420Y-142290000D03*
X279379580Y-142290000D03*
D14*
X275900000Y-143360000D03*
X275900000Y-142060000D03*
X275900000Y-142710000D03*
X274000000Y-142060000D03*
X274000000Y-143360000D03*
D15*
X289520000Y-142980000D03*
X289520000Y-141380000D03*
D13*
X288310420Y-144010000D03*
X289209580Y-144010000D03*
X286530420Y-144010000D03*
X287429580Y-144010000D03*
X285199580Y-144020000D03*
X284300420Y-144020000D03*
D16*
X282140000Y-142639580D03*
X282140000Y-141740420D03*
X287490000Y-141469580D03*
X287490000Y-140570420D03*
D15*
X282240000Y-140050000D03*
X283840000Y-140050000D03*
D16*
X281800000Y-137320420D03*
X281800000Y-138219580D03*
D13*
X279379580Y-143270000D03*
X278480420Y-143270000D03*
D16*
X277310000Y-143549580D03*
X277310000Y-142650420D03*
D13*
X272849580Y-144260000D03*
X271950420Y-144260000D03*
D17*
X288660000Y-136870000D03*
D18*
X288660000Y-136470000D03*
X288660000Y-136070000D03*
X288660000Y-135670000D03*
X288660000Y-135270000D03*
X288660000Y-134870000D03*
X288660000Y-134470000D03*
D17*
X288660000Y-134070000D03*
D19*
X288160000Y-133570000D03*
D20*
X287760000Y-133570000D03*
X287360000Y-133570000D03*
X286960000Y-133570000D03*
X286560000Y-133570000D03*
X286160000Y-133570000D03*
X285760000Y-133570000D03*
D19*
X285360000Y-133570000D03*
D17*
X284860000Y-134070000D03*
D18*
X284860000Y-134470000D03*
X284860000Y-134870000D03*
X284860000Y-135270000D03*
X284860000Y-135670000D03*
X284860000Y-136070000D03*
X284860000Y-136470000D03*
D17*
X284860000Y-136870000D03*
D19*
X285360000Y-137370000D03*
D20*
X285760000Y-137370000D03*
X286160000Y-137370000D03*
X286560000Y-137370000D03*
X286960000Y-137370000D03*
X287360000Y-137370000D03*
X287760000Y-137370000D03*
D19*
X288160000Y-137370000D03*
D21*
X286097500Y-134807500D03*
X286097500Y-136132500D03*
X287422500Y-134807500D03*
X287422500Y-136132500D03*
D16*
X289890000Y-133899580D03*
X289890000Y-133000420D03*
X289600000Y-138359580D03*
X289600000Y-137460420D03*
X283830000Y-136610420D03*
X283830000Y-137509580D03*
X282840000Y-136610420D03*
X282840000Y-137509580D03*
D13*
X286320420Y-130570000D03*
X287219580Y-130570000D03*
D16*
X290600000Y-131190420D03*
X290600000Y-132089580D03*
D13*
X286320420Y-131520000D03*
X287219580Y-131520000D03*
D22*
X269320000Y-140200000D03*
X268820000Y-140200000D03*
X268320000Y-140200000D03*
X267820000Y-140200000D03*
X267320000Y-140200000D03*
X267320000Y-143300000D03*
X267820000Y-143300000D03*
X268320000Y-143300000D03*
X268820000Y-143300000D03*
X269320000Y-143300000D03*
D23*
X267700000Y-142137500D03*
X268940000Y-142137500D03*
X267700000Y-141362500D03*
X268940000Y-141362500D03*
D13*
X267990420Y-138970000D03*
X268889580Y-138970000D03*
D16*
X291385000Y-139909580D03*
X291385000Y-139010420D03*
X274070000Y-139049580D03*
X274070000Y-138150420D03*
D24*
X284750000Y-129580000D03*
D25*
X285150000Y-129580000D03*
X285550000Y-129580000D03*
X285950000Y-129580000D03*
X286350000Y-129580000D03*
D24*
X286750000Y-129580000D03*
D26*
X287250000Y-129080000D03*
D27*
X287250000Y-128680000D03*
X287250000Y-128280000D03*
X287250000Y-127880000D03*
X287250000Y-127480000D03*
D26*
X287250000Y-127080000D03*
D24*
X286750000Y-126580000D03*
D25*
X286350000Y-126580000D03*
X285950000Y-126580000D03*
X285550000Y-126580000D03*
X285150000Y-126580000D03*
D24*
X284750000Y-126580000D03*
D26*
X284250000Y-127080000D03*
D27*
X284250000Y-127480000D03*
X284250000Y-127880000D03*
X284250000Y-128280000D03*
X284250000Y-128680000D03*
D26*
X284250000Y-129080000D03*
D13*
X285179580Y-130610000D03*
X284280420Y-130610000D03*
D16*
X283340000Y-127360420D03*
X283340000Y-128259580D03*
D13*
X288260420Y-126590000D03*
X289159580Y-126590000D03*
D16*
X288390000Y-127960420D03*
X288390000Y-128859580D03*
D28*
X278326500Y-128500000D03*
D29*
X278000000Y-129112500D03*
X278000000Y-127887500D03*
D28*
X277637500Y-128500000D03*
D16*
X275840000Y-129489580D03*
X275840000Y-128590420D03*
D13*
X273150420Y-129450000D03*
X274049580Y-129450000D03*
D30*
X281500000Y-129560000D03*
D31*
X281500000Y-127020000D03*
D15*
X280490000Y-140050000D03*
X280490000Y-138450000D03*
D13*
X285889580Y-138790000D03*
X284990420Y-138790000D03*
D16*
X289500000Y-131220420D03*
X289500000Y-132119580D03*
X271040000Y-142899580D03*
X271040000Y-142000420D03*
X272140000Y-142909580D03*
X272140000Y-142010420D03*
X292485000Y-139909580D03*
X292485000Y-139010420D03*
D13*
X290940420Y-134190000D03*
X291839580Y-134190000D03*
X291520420Y-135270000D03*
X292419580Y-135270000D03*
X290950420Y-136290000D03*
X291849580Y-136290000D03*
X291560420Y-137280000D03*
X292459580Y-137280000D03*
D15*
X279240000Y-140050000D03*
X279240000Y-138450000D03*
D30*
X292380000Y-144450000D03*
D31*
X292380000Y-141910000D03*
D32*
X272932000Y-138620000D03*
X271408000Y-138620000D03*
D33*
X270800000Y-133500000D03*
X272200000Y-133500000D03*
X270800000Y-134600000D03*
X272200000Y-134600000D03*
D16*
X275450000Y-140100420D03*
X275450000Y-140999580D03*
D13*
X273649580Y-140200000D03*
X272750420Y-140200000D03*
D16*
X269800000Y-133750420D03*
X269800000Y-134649580D03*
X273200000Y-134549580D03*
X273200000Y-133650420D03*
X276850000Y-140100420D03*
X276850000Y-140999580D03*
D34*
X270745000Y-127673000D03*
X267345000Y-127673000D03*
D13*
X272849580Y-127700000D03*
X271950420Y-127700000D03*
D16*
X274000000Y-127650420D03*
X274000000Y-128549580D03*
D13*
X276049580Y-127700000D03*
X275150420Y-127700000D03*
X271730420Y-137270000D03*
X272629580Y-137270000D03*
D32*
X273262000Y-136000000D03*
X271738000Y-136000000D03*
D11*
X296270000Y-137280000D03*
D35*
X275600000Y-137000000D03*
X276000000Y-137000000D03*
X276400000Y-137000000D03*
X276800000Y-137000000D03*
X277200000Y-137000000D03*
X277600000Y-137000000D03*
X278000000Y-137000000D03*
X278400000Y-137000000D03*
X278800000Y-137000000D03*
X279200000Y-137000000D03*
X279600000Y-137000000D03*
X280000000Y-137000000D03*
D36*
X280800000Y-136200000D03*
X280800000Y-135800000D03*
X280800000Y-135400000D03*
X280800000Y-135000000D03*
X280800000Y-134600000D03*
X280800000Y-134200000D03*
X280800000Y-133800000D03*
X280800000Y-133400000D03*
X280800000Y-133000000D03*
X280800000Y-132600000D03*
X280800000Y-132200000D03*
X280800000Y-131800000D03*
D35*
X280000000Y-131000000D03*
X279600000Y-131000000D03*
X279200000Y-131000000D03*
X278800000Y-131000000D03*
X278400000Y-131000000D03*
X278000000Y-131000000D03*
X277600000Y-131000000D03*
X277200000Y-131000000D03*
X276800000Y-131000000D03*
X276400000Y-131000000D03*
X276000000Y-131000000D03*
X275600000Y-131000000D03*
D36*
X274800000Y-131800000D03*
X274800000Y-132200000D03*
X274800000Y-132600000D03*
X274800000Y-133000000D03*
X274800000Y-133400000D03*
X274800000Y-133800000D03*
X274800000Y-134200000D03*
X274800000Y-134600000D03*
X274800000Y-135000000D03*
X274800000Y-135400000D03*
X274800000Y-135800000D03*
X274800000Y-136200000D03*
D37*
X279468750Y-132331250D03*
X278356250Y-132331250D03*
X277243750Y-132331250D03*
X276131250Y-132331250D03*
X279468750Y-133443750D03*
X278356250Y-133443750D03*
X277243750Y-133443750D03*
X276131250Y-133443750D03*
X279468750Y-134556250D03*
X278356250Y-134556250D03*
X277243750Y-134556250D03*
X276131250Y-134556250D03*
X279468750Y-135668750D03*
X278356250Y-135668750D03*
X277243750Y-135668750D03*
X276131250Y-135668750D03*
D38*
X276850000Y-138850000D03*
X275450000Y-138850000D03*
D39*
X288280000Y-131610000D03*
X288280000Y-130510000D03*
D40*
X286210000Y-142890000D03*
X286210000Y-142390000D03*
X286210000Y-141890000D03*
X286210000Y-141390000D03*
X283310000Y-141390000D03*
X283310000Y-141890000D03*
X283310000Y-142390000D03*
X283310000Y-142890000D03*
D41*
X284322500Y-141777500D03*
X284322500Y-142502500D03*
X285197500Y-141777500D03*
X285197500Y-142502500D03*
D42*
X287610000Y-142730000D03*
D43*
X288310000Y-142955000D03*
X288310000Y-142505000D03*
D44*
X281380000Y-139390000D03*
X283330000Y-126550000D03*
X285179580Y-131429580D03*
X270070000Y-140110000D03*
X288240000Y-138300000D03*
X287570000Y-129800000D03*
X280880000Y-137160000D03*
X287340000Y-126490000D03*
X274640000Y-137010000D03*
X275120000Y-130980000D03*
X274580000Y-129450000D03*
X274870000Y-143370000D03*
X289520000Y-140520000D03*
X289860000Y-144040000D03*
X287740000Y-139830000D03*
X281100000Y-141780000D03*
X280000000Y-143270000D03*
X271200000Y-144600000D03*
X285030000Y-132840000D03*
X268940000Y-142137500D03*
X279070000Y-128500000D03*
X283750000Y-138380000D03*
X286070000Y-134870000D03*
X268986000Y-135610000D03*
X276820000Y-128420000D03*
X277520000Y-141870000D03*
X274870000Y-142070000D03*
X290000000Y-145010000D03*
X288340000Y-141140000D03*
D45*
X274100000Y-140200000D02*
X273649580Y-140200000D01*
X274730000Y-139570000D02*
X274100000Y-140200000D01*
X274730000Y-138010000D02*
X274730000Y-139570000D01*
X275600000Y-137140000D02*
X274730000Y-138010000D01*
X275600000Y-137000000D02*
X275600000Y-137140000D01*
X275600000Y-137000000D02*
X275550000Y-137000000D01*
D46*
X276049580Y-127700000D02*
X277800000Y-127700000D01*
X277800000Y-127700000D02*
X278000000Y-127900000D01*
D45*
X280800000Y-135000000D02*
X283390000Y-135000000D01*
X283660000Y-135270000D02*
X284860000Y-135270000D01*
X283390000Y-135000000D02*
X283660000Y-135270000D01*
X280800000Y-134200000D02*
X283840000Y-134200000D01*
X284110000Y-134470000D02*
X284860000Y-134470000D01*
X283840000Y-134200000D02*
X284110000Y-134470000D01*
X280000000Y-131000000D02*
X280920000Y-131000000D01*
X281500000Y-130420000D02*
X281500000Y-129560000D01*
X280920000Y-131000000D02*
X281500000Y-130420000D01*
X279600000Y-131000000D02*
X279600000Y-130480000D01*
X280360000Y-128160000D02*
X281500000Y-127020000D01*
X280360000Y-129720000D02*
X280360000Y-128160000D01*
X279600000Y-130480000D02*
X280360000Y-129720000D01*
X280800000Y-135800000D02*
X282750000Y-135800000D01*
X283020000Y-136070000D02*
X284860000Y-136070000D01*
X282750000Y-135800000D02*
X283020000Y-136070000D01*
D47*
X271950420Y-127700000D02*
X270772000Y-127700000D01*
X270772000Y-127700000D02*
X270745000Y-127673000D01*
D45*
X271408000Y-138620000D02*
X271408000Y-137592420D01*
X271408000Y-137592420D02*
X271730420Y-137270000D01*
X282240000Y-140050000D02*
X282040000Y-140050000D01*
X282040000Y-140050000D02*
X281380000Y-139390000D01*
X280490000Y-140050000D02*
X280720000Y-140050000D01*
X280720000Y-140050000D02*
X281380000Y-139390000D01*
X279240000Y-140050000D02*
X280490000Y-140050000D01*
X281800000Y-137320420D02*
X281800000Y-136800000D01*
X281989580Y-136610420D02*
X282840000Y-136610420D01*
X281800000Y-136800000D02*
X281989580Y-136610420D01*
X281800000Y-137320420D02*
X281040420Y-137320420D01*
X281040420Y-137320420D02*
X280880000Y-137160000D01*
D46*
X283340000Y-126560000D02*
X283340000Y-127360420D01*
X283330000Y-126550000D02*
X283340000Y-126560000D01*
D45*
X285179580Y-131370000D02*
X285179580Y-131429580D01*
X285179580Y-130610000D02*
X285179580Y-131370000D01*
X286160000Y-132410000D02*
X286160000Y-133570000D01*
X285179580Y-131429580D02*
X286160000Y-132410000D01*
X269320000Y-140200000D02*
X269980000Y-140200000D01*
X269980000Y-140200000D02*
X270070000Y-140110000D01*
D48*
X288160000Y-137370000D02*
X288160000Y-138220000D01*
X288160000Y-138220000D02*
X288240000Y-138300000D01*
D45*
X269320000Y-143300000D02*
X270639580Y-143300000D01*
X270639580Y-143300000D02*
X271040000Y-142899580D01*
D48*
X269320000Y-140200000D02*
X269560000Y-140200000D01*
D45*
X269900000Y-142720000D02*
X269320000Y-143300000D01*
X269900000Y-140540000D02*
X269900000Y-142720000D01*
X269560000Y-140200000D02*
X269900000Y-140540000D01*
X287219580Y-130570000D02*
X287219580Y-130150420D01*
X287219580Y-130150420D02*
X287570000Y-129800000D01*
X287219580Y-130570000D02*
X287219580Y-131520000D01*
X280880000Y-137160000D02*
X280880000Y-136970000D01*
X280880000Y-136970000D02*
X280800000Y-136890000D01*
X287760000Y-137370000D02*
X288160000Y-137370000D01*
X286960000Y-133570000D02*
X286960000Y-132330000D01*
X287219580Y-132070420D02*
X287219580Y-131520000D01*
X286960000Y-132330000D02*
X287219580Y-132070420D01*
X284860000Y-136470000D02*
X283970420Y-136470000D01*
X283970420Y-136470000D02*
X283830000Y-136610420D01*
X282840000Y-136610420D02*
X283830000Y-136610420D01*
X280800000Y-136200000D02*
X281760000Y-136200000D01*
X281760000Y-136200000D02*
X282170420Y-136610420D01*
X282170420Y-136610420D02*
X282840000Y-136610420D01*
X274070000Y-138150420D02*
X274070000Y-137580000D01*
X274070000Y-137580000D02*
X274640000Y-137010000D01*
X288260420Y-126590000D02*
X287440000Y-126590000D01*
X287440000Y-126590000D02*
X287340000Y-126490000D01*
X286750000Y-126580000D02*
X287250000Y-126580000D01*
X287250000Y-126580000D02*
X287340000Y-126490000D01*
X288250420Y-126580000D02*
X288260420Y-126590000D01*
X274660000Y-136990000D02*
X274800000Y-136200000D01*
X274640000Y-137010000D02*
X274660000Y-136990000D01*
X274049580Y-129450000D02*
X274580000Y-129450000D01*
X275140000Y-131000000D02*
X275600000Y-131000000D01*
X275120000Y-130980000D02*
X275140000Y-131000000D01*
X280800000Y-136200000D02*
X280800000Y-136890000D01*
X280800000Y-134600000D02*
X283610000Y-134600000D01*
X283860000Y-134850000D02*
X284840000Y-134850000D01*
X283610000Y-134600000D02*
X283860000Y-134850000D01*
X284840000Y-134850000D02*
X284860000Y-134870000D01*
X280800000Y-135400000D02*
X283190000Y-135400000D01*
X283460000Y-135670000D02*
X284860000Y-135670000D01*
X283190000Y-135400000D02*
X283460000Y-135670000D01*
X287360000Y-137370000D02*
X287360000Y-138120000D01*
X287360000Y-138120000D02*
X288250420Y-139010420D01*
X288250420Y-139010420D02*
X291385000Y-139010420D01*
X291385000Y-139010420D02*
X292485000Y-139010420D01*
X292485000Y-139010420D02*
X293189580Y-139010420D01*
X293189580Y-139010420D02*
X294920000Y-137280000D01*
X294920000Y-137280000D02*
X296270000Y-137280000D01*
X286960000Y-137370000D02*
X287360000Y-137370000D01*
X291839580Y-134190000D02*
X291839580Y-129030420D01*
X293920000Y-126950000D02*
X296270000Y-126950000D01*
X291839580Y-129030420D02*
X293920000Y-126950000D01*
X291849580Y-136290000D02*
X292500000Y-136290000D01*
X294920000Y-132030000D02*
X296270000Y-132030000D01*
X293590000Y-133360000D02*
X294920000Y-132030000D01*
X293590000Y-135200000D02*
X293590000Y-133360000D01*
X292500000Y-136290000D02*
X293590000Y-135200000D01*
X274000000Y-143360000D02*
X274860000Y-143360000D01*
X274860000Y-143360000D02*
X274870000Y-143370000D01*
X289520000Y-141380000D02*
X289520000Y-140520000D01*
X289830000Y-144010000D02*
X289209580Y-144010000D01*
X289860000Y-144040000D02*
X289830000Y-144010000D01*
X288310000Y-142505000D02*
X288310000Y-141930000D01*
X288860000Y-141380000D02*
X289520000Y-141380000D01*
X288310000Y-141930000D02*
X288860000Y-141380000D01*
X272140000Y-142909580D02*
X273099580Y-142909580D01*
X273099580Y-142909580D02*
X273550000Y-143360000D01*
X268320000Y-143300000D02*
X268320000Y-143730000D01*
X268320000Y-143730000D02*
X268670000Y-144080000D01*
X268670000Y-144080000D02*
X270969580Y-144080000D01*
X270969580Y-144080000D02*
X272140000Y-142909580D01*
X267910420Y-143390420D02*
X267820000Y-143300000D01*
X268320000Y-143300000D02*
X267820000Y-143300000D01*
X267320000Y-143300000D02*
X267820000Y-143300000D01*
X267320000Y-140200000D02*
X267320000Y-140240000D01*
X267320000Y-140240000D02*
X266660000Y-140900000D01*
X267100000Y-143300000D02*
X267320000Y-143300000D01*
X266660000Y-142860000D02*
X267100000Y-143300000D01*
X266660000Y-140900000D02*
X266660000Y-142860000D01*
X272849580Y-144260000D02*
X273100000Y-144260000D01*
X273100000Y-144260000D02*
X274000000Y-143360000D01*
X273550000Y-143360000D02*
X274000000Y-143360000D01*
X286560000Y-137370000D02*
X286560000Y-137800000D01*
X286560000Y-137800000D02*
X288669580Y-139909580D01*
X288669580Y-139909580D02*
X291385000Y-139909580D01*
X292485000Y-139909580D02*
X291385000Y-139909580D01*
D47*
X274000000Y-127699580D02*
X272850000Y-127699580D01*
X272850000Y-127699580D02*
X272849580Y-127700000D01*
X275150420Y-127700000D02*
X274000420Y-127700000D01*
X274000420Y-127700000D02*
X274000000Y-127699580D01*
D48*
X267820000Y-140200000D02*
X267820000Y-139140420D01*
X267820000Y-139140420D02*
X267990420Y-138970000D01*
D45*
X279600000Y-137000000D02*
X279600000Y-138090000D01*
X279600000Y-138090000D02*
X279240000Y-138450000D01*
X280000000Y-137000000D02*
X280000000Y-137960000D01*
X280000000Y-137960000D02*
X280490000Y-138450000D01*
X280800000Y-133800000D02*
X283730000Y-133800000D01*
X285760000Y-132720000D02*
X285760000Y-133570000D01*
X285160000Y-132120000D02*
X285760000Y-132720000D01*
X284600000Y-132120000D02*
X285160000Y-132120000D01*
X284260000Y-132460000D02*
X284600000Y-132120000D01*
X284260000Y-133270000D02*
X284260000Y-132460000D01*
X283730000Y-133800000D02*
X284260000Y-133270000D01*
X292459580Y-137280000D02*
X292650000Y-137280000D01*
X292650000Y-137280000D02*
X295360000Y-134570000D01*
X295360000Y-134570000D02*
X296270000Y-134570000D01*
X292419580Y-135270000D02*
X292419580Y-131550420D01*
X294480000Y-129490000D02*
X296270000Y-129490000D01*
X292419580Y-131550420D02*
X294480000Y-129490000D01*
X272629580Y-137270000D02*
X272629580Y-136632420D01*
X272629580Y-136632420D02*
X273262000Y-136000000D01*
X273262000Y-136000000D02*
X273350000Y-136000000D01*
X273350000Y-136000000D02*
X273950000Y-135400000D01*
X273950000Y-135400000D02*
X274800000Y-135400000D01*
X275000000Y-130040000D02*
X274720163Y-130049375D01*
X274720163Y-130049375D02*
X272760000Y-132040000D01*
X272760000Y-132040000D02*
X272770000Y-132030000D01*
X272770000Y-132030000D02*
X272770000Y-132830000D01*
X272770000Y-132830000D02*
X271600000Y-132830000D01*
X271600000Y-132830000D02*
X271490000Y-132940000D01*
X271490000Y-132940000D02*
X271490000Y-134310000D01*
X271490000Y-134310000D02*
X271200000Y-134600000D01*
X276400000Y-131000000D02*
X276400000Y-130330490D01*
X275395598Y-130045598D02*
X275000000Y-130040000D01*
X276115108Y-130045598D02*
X275395598Y-130045598D01*
X276400000Y-130330490D02*
X276115108Y-130045598D01*
X271200000Y-134600000D02*
X270800000Y-134600000D01*
X269800000Y-134649580D02*
X270750420Y-134649580D01*
X270800000Y-134600000D02*
X270950000Y-134600000D01*
X270750420Y-134649580D02*
X270800000Y-134600000D01*
D49*
X271050000Y-134650000D02*
X270800000Y-134650000D01*
X270799580Y-134649580D02*
X270800000Y-134650000D01*
D45*
X276000000Y-131000000D02*
X276000000Y-130450000D01*
X276000000Y-130450000D02*
X275900000Y-130350000D01*
X275900000Y-130350000D02*
X274900000Y-130350000D01*
X274900000Y-130350000D02*
X273200000Y-132050000D01*
X273200000Y-132050000D02*
X273200000Y-133650420D01*
X272200000Y-133500000D02*
X273049580Y-133500000D01*
X273049580Y-133500000D02*
X273200000Y-133650420D01*
X275450000Y-140100420D02*
X275450000Y-138850000D01*
X275450000Y-138850000D02*
X276000000Y-138300000D01*
X276000000Y-138300000D02*
X276000000Y-137000000D01*
X276850000Y-140100420D02*
X276850000Y-138850000D01*
X276400000Y-137000000D02*
X276400000Y-138400000D01*
X276400000Y-138400000D02*
X276850000Y-138850000D01*
X274800000Y-135800000D02*
X274240000Y-135800000D01*
X273200000Y-137640000D02*
X273200000Y-138352000D01*
X273840000Y-137000000D02*
X273200000Y-137640000D01*
X273840000Y-136200000D02*
X273840000Y-137000000D01*
X274240000Y-135800000D02*
X273840000Y-136200000D01*
X273200000Y-138352000D02*
X272932000Y-138620000D01*
D48*
X278000000Y-129100000D02*
X278000000Y-131000000D01*
D45*
X276800000Y-131000000D02*
X276800000Y-129850000D01*
X276439580Y-129489580D02*
X275840000Y-129489580D01*
X276800000Y-129850000D02*
X276439580Y-129489580D01*
X287250000Y-127880000D02*
X288309580Y-127880000D01*
X288309580Y-127880000D02*
X288390000Y-127960420D01*
X284250000Y-129080000D02*
X284250000Y-130579580D01*
X284250000Y-130579580D02*
X284280420Y-130610000D01*
X280800000Y-132200000D02*
X283200000Y-132200000D01*
X284280420Y-131119580D02*
X284280420Y-130610000D01*
X283200000Y-132200000D02*
X284280420Y-131119580D01*
X280800000Y-131800000D02*
X281550000Y-131800000D01*
X282710000Y-128889580D02*
X283340000Y-128259580D01*
X282710000Y-130640000D02*
X282710000Y-128889580D01*
X281550000Y-131800000D02*
X282710000Y-130640000D01*
X283340000Y-128259580D02*
X283340000Y-128310000D01*
X283340000Y-128310000D02*
X283710000Y-128680000D01*
X283710000Y-128680000D02*
X284250000Y-128680000D01*
X280900000Y-131800000D02*
X280950000Y-131800000D01*
D49*
X280900000Y-131800000D02*
X281100000Y-131800000D01*
D45*
X287490000Y-140570420D02*
X287490000Y-140080000D01*
X287490000Y-140080000D02*
X287740000Y-139830000D01*
X284300420Y-144020000D02*
X284300420Y-144370420D01*
X287429580Y-144420420D02*
X287429580Y-144010000D01*
X287180000Y-144670000D02*
X287429580Y-144420420D01*
X284600000Y-144670000D02*
X287180000Y-144670000D01*
X284300420Y-144370420D02*
X284600000Y-144670000D01*
X285197500Y-141777500D02*
X285197500Y-141042500D01*
X285669580Y-140570420D02*
X287490000Y-140570420D01*
X285197500Y-141042500D02*
X285669580Y-140570420D01*
D46*
X281139580Y-141740420D02*
X282140000Y-141740420D01*
X281100000Y-141780000D02*
X281139580Y-141740420D01*
D45*
X284990420Y-138790000D02*
X284990420Y-140449580D01*
X284322500Y-141117500D02*
X284322500Y-141777500D01*
X284990420Y-140449580D02*
X284322500Y-141117500D01*
X283310000Y-141890000D02*
X284210000Y-141890000D01*
X284210000Y-141890000D02*
X284322500Y-141777500D01*
X284322500Y-141777500D02*
X284322500Y-142502500D01*
X285197500Y-142502500D02*
X284322500Y-142502500D01*
X284322500Y-141777500D02*
X285197500Y-141777500D01*
X295990000Y-141970000D02*
X292440000Y-141970000D01*
X292440000Y-141970000D02*
X292380000Y-141910000D01*
X288310420Y-144010000D02*
X287429580Y-144010000D01*
X284300420Y-144020000D02*
X284300420Y-142524580D01*
X284300420Y-142524580D02*
X284322500Y-142502500D01*
X282140000Y-141740420D02*
X282440420Y-141740420D01*
X282440420Y-141740420D02*
X282590000Y-141890000D01*
X282590000Y-141890000D02*
X283310000Y-141890000D01*
D48*
X279379580Y-143270000D02*
X280000000Y-143270000D01*
D45*
X277310000Y-142650420D02*
X275959580Y-142650420D01*
X275959580Y-142650420D02*
X275900000Y-142710000D01*
X271950420Y-144260000D02*
X271540000Y-144260000D01*
X271540000Y-144260000D02*
X271200000Y-144600000D01*
X275900000Y-142710000D02*
X273520000Y-142710000D01*
X272569580Y-142440000D02*
X272140000Y-142010420D01*
X273250000Y-142440000D02*
X272569580Y-142440000D01*
X273520000Y-142710000D02*
X273250000Y-142440000D01*
X285360000Y-133170000D02*
X285030000Y-132840000D01*
X285360000Y-133570000D02*
X285360000Y-133170000D01*
X275840000Y-128590420D02*
X274800840Y-128590420D01*
X274800840Y-128590420D02*
X274760000Y-128549580D01*
X276820000Y-128420000D02*
X276010420Y-128420000D01*
X276010420Y-128420000D02*
X275840000Y-128590420D01*
X275909580Y-128800000D02*
X275729580Y-128620000D01*
X281800000Y-138219580D02*
X282130000Y-138219580D01*
X282130000Y-138219580D02*
X282840000Y-137509580D01*
X272140000Y-142010420D02*
X271050000Y-142010420D01*
X271050000Y-142010420D02*
X271040000Y-142000420D01*
D48*
X286097500Y-134807500D02*
X287422500Y-134807500D01*
D45*
X271040000Y-142000420D02*
X271040000Y-141910420D01*
X271040000Y-141910420D02*
X272750420Y-140200000D01*
X268820000Y-143300000D02*
X268820000Y-142257500D01*
X268820000Y-142257500D02*
X268940000Y-142137500D01*
X268809580Y-143310420D02*
X268820000Y-143300000D01*
X268940000Y-142137500D02*
X267700000Y-142137500D01*
X267700000Y-141362500D02*
X267700000Y-142137500D01*
X268940000Y-141362500D02*
X267700000Y-141362500D01*
X268320000Y-140200000D02*
X268320000Y-140742500D01*
X268320000Y-140742500D02*
X268940000Y-141362500D01*
D48*
X288390000Y-128859580D02*
X288390000Y-130400000D01*
X288390000Y-130400000D02*
X288280000Y-130510000D01*
D45*
X286320420Y-130570000D02*
X286320420Y-131520000D01*
X278326500Y-128500000D02*
X279070000Y-128500000D01*
X288280000Y-130510000D02*
X289290000Y-130510000D01*
X289500000Y-130720000D02*
X289500000Y-131220420D01*
X289290000Y-130510000D02*
X289500000Y-130720000D01*
X289500000Y-131220420D02*
X290570000Y-131220420D01*
X290570000Y-131220420D02*
X290600000Y-131190420D01*
X287760000Y-133570000D02*
X287760000Y-132910000D01*
X287760000Y-132910000D02*
X288260000Y-132410000D01*
X288260000Y-132410000D02*
X288630000Y-132410000D01*
X288630000Y-132410000D02*
X288930000Y-132110000D01*
X288930000Y-132110000D02*
X288930000Y-131380000D01*
X288930000Y-131380000D02*
X289089580Y-131220420D01*
X289089580Y-131220420D02*
X289500000Y-131220420D01*
X283750000Y-138380000D02*
X284580420Y-138380000D01*
X284580420Y-138380000D02*
X284990420Y-138790000D01*
X286560000Y-133570000D02*
X286560000Y-132250000D01*
X286320420Y-132010420D02*
X286320420Y-131520000D01*
X286560000Y-132250000D02*
X286320420Y-132010420D01*
X283830000Y-137509580D02*
X283830000Y-138300000D01*
X283830000Y-138300000D02*
X283750000Y-138380000D01*
X286070000Y-134870000D02*
X286097500Y-134842500D01*
X286097500Y-134842500D02*
X286097500Y-134807500D01*
X286560000Y-133570000D02*
X286560000Y-134345000D01*
X286560000Y-134345000D02*
X286097500Y-134807500D01*
X287760000Y-133570000D02*
X287760000Y-134470000D01*
X287760000Y-134470000D02*
X287422500Y-134807500D01*
X283830000Y-137509580D02*
X282840000Y-137509580D01*
X284860000Y-136870000D02*
X284469580Y-136870000D01*
X284469580Y-136870000D02*
X283830000Y-137509580D01*
D48*
X275450000Y-140999580D02*
X272999580Y-140999580D01*
X272750420Y-140750420D02*
X272750420Y-140200000D01*
X272999580Y-140999580D02*
X272750420Y-140750420D01*
D45*
X285597500Y-136112500D02*
X286922500Y-136112500D01*
X286922500Y-136112500D02*
X286922500Y-134787500D01*
X287260000Y-134450000D02*
X286922500Y-134787500D01*
X286060000Y-134325000D02*
X285597500Y-134787500D01*
D46*
X270230000Y-137508000D02*
X271738000Y-136000000D01*
X270230000Y-139280000D02*
X270230000Y-137508000D01*
D45*
X284750000Y-126580000D02*
X284750000Y-127040000D01*
X286460000Y-128280000D02*
X287250000Y-128280000D01*
X285720000Y-127540000D02*
X286460000Y-128280000D01*
X285250000Y-127540000D02*
X285720000Y-127540000D01*
X284750000Y-127040000D02*
X285250000Y-127540000D01*
X272750420Y-140200000D02*
X272750420Y-139709580D01*
X272750420Y-139709580D02*
X272950000Y-139510000D01*
X272950000Y-139510000D02*
X273609580Y-139510000D01*
X273609580Y-139510000D02*
X274070000Y-139049580D01*
X288390000Y-128859580D02*
X288760420Y-128859580D01*
X288760420Y-128859580D02*
X289159580Y-128460420D01*
X289159580Y-128460420D02*
X289159580Y-127160420D01*
X288390000Y-128859580D02*
X288540000Y-128859580D01*
X287250000Y-128280000D02*
X287810420Y-128280000D01*
X287810420Y-128280000D02*
X288390000Y-128859580D01*
X287250000Y-127080000D02*
X287660000Y-127080000D01*
X288900000Y-127420000D02*
X289159580Y-127160420D01*
X288000000Y-127420000D02*
X288900000Y-127420000D01*
X287660000Y-127080000D02*
X288000000Y-127420000D01*
X289159580Y-127160420D02*
X289159580Y-126590000D01*
D46*
X274000000Y-128549580D02*
X274760000Y-128549580D01*
X274760000Y-128549580D02*
X274830420Y-128620000D01*
D45*
X276900000Y-128500000D02*
X276820000Y-128420000D01*
X277637500Y-128500000D02*
X276900000Y-128500000D01*
X277637500Y-128500000D02*
X278326500Y-128500000D01*
X272750420Y-140200000D02*
X272750420Y-140375840D01*
D46*
X273150420Y-129450000D02*
X273150420Y-128799580D01*
X273400420Y-128549580D02*
X274000000Y-128549580D01*
X273150420Y-128799580D02*
X273400420Y-128549580D01*
X271150000Y-140200000D02*
X272750420Y-140200000D01*
X270230000Y-139280000D02*
X271150000Y-140200000D01*
D45*
X273200000Y-134549580D02*
X273449580Y-134549580D01*
X273449580Y-134549580D02*
X273900000Y-135000000D01*
X273900000Y-135000000D02*
X274800000Y-135000000D01*
X277600000Y-131000000D02*
X277600000Y-129700000D01*
X277350000Y-129450000D02*
X277350000Y-128500000D01*
X277600000Y-129700000D02*
X277350000Y-129450000D01*
X278356250Y-132331250D02*
X278356250Y-133443750D01*
X277243750Y-135668750D02*
X276131250Y-135668750D01*
X278356250Y-135668750D02*
X277243750Y-135668750D01*
X279468750Y-135668750D02*
X278356250Y-135668750D01*
X279468750Y-134556250D02*
X279468750Y-135668750D01*
X278356250Y-134556250D02*
X279468750Y-134556250D01*
X277243750Y-134556250D02*
X278356250Y-134556250D01*
X276131250Y-134556250D02*
X277243750Y-134556250D01*
X276131250Y-133443750D02*
X276131250Y-134556250D01*
X277243750Y-133443750D02*
X276131250Y-133443750D01*
X278356250Y-133443750D02*
X277243750Y-133443750D01*
X279468750Y-132331250D02*
X279468750Y-133443750D01*
X278356250Y-132331250D02*
X279468750Y-132331250D01*
X277243750Y-132331250D02*
X278356250Y-132331250D01*
X276131250Y-132331250D02*
X277243750Y-132331250D01*
X274800000Y-135000000D02*
X275687500Y-135000000D01*
X275687500Y-135000000D02*
X276131250Y-134556250D01*
X277600000Y-131000000D02*
X277600000Y-131975000D01*
X277600000Y-131975000D02*
X277243750Y-132331250D01*
D46*
X275450000Y-140999580D02*
X276100000Y-140999580D01*
X276100000Y-140999580D02*
X276850000Y-140999580D01*
D45*
X270800000Y-133500000D02*
X270050420Y-133500000D01*
X270050420Y-133500000D02*
X269800000Y-133750420D01*
X273200000Y-134549580D02*
X272250420Y-134549580D01*
X272250420Y-134549580D02*
X272200000Y-134600000D01*
X269800000Y-133750420D02*
X269093580Y-133750420D01*
X269093580Y-133750420D02*
X268986000Y-133858000D01*
X268986000Y-133858000D02*
X268986000Y-135610000D01*
X268986000Y-135610000D02*
X268986000Y-135636000D01*
X268986000Y-135636000D02*
X272034000Y-135636000D01*
X272034000Y-135636000D02*
X272200000Y-135470000D01*
X272200000Y-135470000D02*
X272200000Y-134650000D01*
D49*
X272300420Y-134549580D02*
X272200000Y-134650000D01*
D45*
X288660000Y-136870000D02*
X288660000Y-137419580D01*
X288660000Y-137419580D02*
X289600000Y-138359580D01*
X288660000Y-136470000D02*
X289130000Y-136470000D01*
X289600000Y-136940000D02*
X289600000Y-137460420D01*
X289130000Y-136470000D02*
X289600000Y-136940000D01*
X288660000Y-134470000D02*
X289319580Y-134470000D01*
X289319580Y-134470000D02*
X289890000Y-133899580D01*
X288660000Y-134070000D02*
X288660000Y-133870000D01*
X289529580Y-133000420D02*
X289890000Y-133000420D01*
X288660000Y-133870000D02*
X289529580Y-133000420D01*
X288160000Y-133570000D02*
X288160000Y-133070000D01*
X288869580Y-132750000D02*
X289500000Y-132119580D01*
X288480000Y-132750000D02*
X288869580Y-132750000D01*
X288160000Y-133070000D02*
X288480000Y-132750000D01*
X290600000Y-132089580D02*
X289530000Y-132089580D01*
X289530000Y-132089580D02*
X289500000Y-132119580D01*
X287360000Y-133570000D02*
X287360000Y-132670000D01*
X287360000Y-132670000D02*
X288280000Y-131750000D01*
X288280000Y-131750000D02*
X288280000Y-131610000D01*
X286160000Y-137370000D02*
X286160000Y-138060000D01*
X285889580Y-138330420D02*
X285889580Y-138790000D01*
X286160000Y-138060000D02*
X285889580Y-138330420D01*
D48*
X268820000Y-140200000D02*
X268820000Y-139039580D01*
X268820000Y-139039580D02*
X268889580Y-138970000D01*
D45*
X288660000Y-136070000D02*
X289600000Y-136070000D01*
X290810000Y-137280000D02*
X291560420Y-137280000D01*
X289600000Y-136070000D02*
X290810000Y-137280000D01*
X288660000Y-135670000D02*
X290330420Y-135670000D01*
X290330420Y-135670000D02*
X290950420Y-136290000D01*
X288660000Y-135270000D02*
X291520420Y-135270000D01*
X288660000Y-134870000D02*
X290260420Y-134870000D01*
X290260420Y-134870000D02*
X290940420Y-134190000D01*
X277310000Y-143549580D02*
X277459580Y-143549580D01*
X277459580Y-143549580D02*
X277910000Y-144000000D01*
X280180000Y-142290000D02*
X279379580Y-142290000D01*
X280520000Y-142630000D02*
X280180000Y-142290000D01*
X280520000Y-143670000D02*
X280520000Y-142630000D01*
X280190000Y-144000000D02*
X280520000Y-143670000D01*
X277910000Y-144000000D02*
X280190000Y-144000000D01*
X275900000Y-143360000D02*
X277120420Y-143360000D01*
X277120420Y-143360000D02*
X277310000Y-143549580D01*
X278000000Y-137000000D02*
X278000000Y-137830000D01*
X278480420Y-138310420D02*
X278480420Y-142290000D01*
X278000000Y-137830000D02*
X278480420Y-138310420D01*
X278480420Y-142290000D02*
X278480420Y-143270000D01*
X274000000Y-142060000D02*
X274860000Y-142060000D01*
X277600000Y-137820000D02*
X277600000Y-137000000D01*
X277690000Y-137910000D02*
X277600000Y-137820000D01*
X277690000Y-141700000D02*
X277690000Y-137910000D01*
X277520000Y-141870000D02*
X277690000Y-141700000D01*
X274860000Y-142060000D02*
X274870000Y-142070000D01*
X288310000Y-142955000D02*
X289495000Y-142955000D01*
X289495000Y-142955000D02*
X289520000Y-142980000D01*
X286530420Y-144010000D02*
X286530420Y-143719580D01*
X286530420Y-143719580D02*
X286880000Y-143370000D01*
X287895000Y-143370000D02*
X288310000Y-142955000D01*
X286880000Y-143370000D02*
X287895000Y-143370000D01*
X289520000Y-142980000D02*
X291740000Y-142980000D01*
X294720000Y-143240000D02*
X295990000Y-144510000D01*
X292000000Y-143240000D02*
X294720000Y-143240000D01*
X291740000Y-142980000D02*
X292000000Y-143240000D01*
X285199580Y-144020000D02*
X286520420Y-144020000D01*
X286520420Y-144020000D02*
X286530420Y-144010000D01*
X286530420Y-144010000D02*
X286530420Y-143210420D01*
X286530420Y-143210420D02*
X286210000Y-142890000D01*
X286210000Y-142390000D02*
X286210000Y-142890000D01*
X283310000Y-141390000D02*
X283310000Y-141240000D01*
X283310000Y-141240000D02*
X283840000Y-140710000D01*
X283840000Y-140710000D02*
X283840000Y-140050000D01*
X283310000Y-142890000D02*
X282390420Y-142890000D01*
X282390420Y-142890000D02*
X282140000Y-142639580D01*
X287490000Y-141469580D02*
X288010420Y-141469580D01*
X290930000Y-144450000D02*
X290000000Y-145010000D01*
X290930000Y-144450000D02*
X292380000Y-144450000D01*
X288010420Y-141469580D02*
X288340000Y-141140000D01*
X287490000Y-141469580D02*
X287490000Y-142610000D01*
X286210000Y-141890000D02*
X286210000Y-141390000D01*
X286210000Y-141390000D02*
X287410420Y-141390000D01*
X287410420Y-141390000D02*
X287490000Y-141469580D01*
X287490000Y-142610000D02*
X287610000Y-142730000D01*
D50*
G36*
X281237118Y-143074287D02*
X281376190Y-143290411D01*
X281588390Y-143435401D01*
X281840280Y-143486410D01*
X282027835Y-143486410D01*
X282118332Y-143546878D01*
X282390420Y-143601000D01*
X282631255Y-143601000D01*
X282683110Y-143636431D01*
X282935000Y-143687440D01*
X283466030Y-143687440D01*
X283466030Y-143734250D01*
X283624780Y-143893000D01*
X284200725Y-143893000D01*
X284200725Y-143873000D01*
X284352750Y-143873000D01*
X284352750Y-144319720D01*
X284397028Y-144555037D01*
X284400115Y-144559834D01*
X284400115Y-144795970D01*
X284558865Y-144954720D01*
X284626119Y-144954720D01*
X284737329Y-144908655D01*
X284748300Y-144916151D01*
X285000190Y-144967160D01*
X285398970Y-144967160D01*
X285634287Y-144922882D01*
X285850411Y-144783810D01*
X285866429Y-144760367D01*
X285866940Y-144761161D01*
X286079140Y-144906151D01*
X286331030Y-144957160D01*
X286729810Y-144957160D01*
X286965127Y-144912882D01*
X286989364Y-144897286D01*
X287103881Y-144944720D01*
X287171135Y-144944720D01*
X287329885Y-144785970D01*
X287329885Y-144543615D01*
X287377250Y-144309720D01*
X287377250Y-144081000D01*
X287476030Y-144081000D01*
X287476030Y-144137002D01*
X287529275Y-144137002D01*
X287529275Y-144242505D01*
X287476030Y-144295750D01*
X287476030Y-144436030D01*
X287529275Y-144564575D01*
X287529275Y-144785970D01*
X287688025Y-144944720D01*
X287755279Y-144944720D01*
X287870000Y-144897201D01*
X287984721Y-144944720D01*
X288051975Y-144944720D01*
X288210725Y-144785970D01*
X288210725Y-144564575D01*
X288263970Y-144436030D01*
X288263970Y-144295750D01*
X288210725Y-144242505D01*
X288210725Y-144137000D01*
X288163420Y-144137000D01*
X288163420Y-144027608D01*
X288167088Y-144026878D01*
X288362750Y-143896141D01*
X288362750Y-144309720D01*
X288407028Y-144545037D01*
X288410115Y-144549834D01*
X288410115Y-144785970D01*
X288568865Y-144944720D01*
X288636119Y-144944720D01*
X288747329Y-144898655D01*
X288758300Y-144906151D01*
X289010190Y-144957160D01*
X289111045Y-144957160D01*
X289110846Y-145186057D01*
X289155860Y-145295000D01*
X266585000Y-145295000D01*
X266585000Y-143888542D01*
X266705910Y-144076441D01*
X266918110Y-144221431D01*
X267170000Y-144272440D01*
X267470000Y-144272440D01*
X267573671Y-144252933D01*
X267670000Y-144272440D01*
X267856934Y-144272440D01*
X268167247Y-144582753D01*
X268397912Y-144736878D01*
X268670000Y-144791000D01*
X270969580Y-144791000D01*
X271145052Y-144756096D01*
X271212703Y-144919419D01*
X271391332Y-145098047D01*
X271624721Y-145194720D01*
X271691975Y-145194720D01*
X271850725Y-145035970D01*
X271850725Y-144387000D01*
X271803420Y-144387000D01*
X271803420Y-144251666D01*
X271942086Y-144113000D01*
X272002750Y-144113000D01*
X272002750Y-144559720D01*
X272047028Y-144795037D01*
X272050115Y-144799834D01*
X272050115Y-145035970D01*
X272208865Y-145194720D01*
X272276119Y-145194720D01*
X272387329Y-145148655D01*
X272398300Y-145156151D01*
X272650190Y-145207160D01*
X273048970Y-145207160D01*
X273284287Y-145162882D01*
X273500411Y-145023810D01*
X273645401Y-144811610D01*
X273668637Y-144696869D01*
X274158066Y-144207440D01*
X274325000Y-144207440D01*
X274492631Y-144175898D01*
X274692391Y-144258846D01*
X275046057Y-144259154D01*
X275312391Y-144149107D01*
X275323110Y-144156431D01*
X275575000Y-144207440D01*
X276225000Y-144207440D01*
X276460317Y-144163162D01*
X276504094Y-144134992D01*
X276546190Y-144200411D01*
X276758390Y-144345401D01*
X277010280Y-144396410D01*
X277300904Y-144396410D01*
X277407247Y-144502753D01*
X277637912Y-144656878D01*
X277910000Y-144711000D01*
X280190000Y-144711000D01*
X280462088Y-144656878D01*
X280692753Y-144502753D01*
X280889756Y-144305750D01*
X283466030Y-144305750D01*
X283466030Y-144446030D01*
X283562703Y-144679419D01*
X283741332Y-144858047D01*
X283974721Y-144954720D01*
X284041975Y-144954720D01*
X284200725Y-144795970D01*
X284200725Y-144147000D01*
X283624780Y-144147000D01*
X283466030Y-144305750D01*
X280889756Y-144305750D01*
X281022753Y-144172753D01*
X281176878Y-143942088D01*
X281231000Y-143670000D01*
X281231000Y-143041773D01*
X281237118Y-143074287D01*
X281237118Y-143074287D01*
G37*
X281237118Y-143074287D02*
X281376190Y-143290411D01*
X281588390Y-143435401D01*
X281840280Y-143486410D01*
X282027835Y-143486410D01*
X282118332Y-143546878D01*
X282390420Y-143601000D01*
X282631255Y-143601000D01*
X282683110Y-143636431D01*
X282935000Y-143687440D01*
X283466030Y-143687440D01*
X283466030Y-143734250D01*
X283624780Y-143893000D01*
X284200725Y-143893000D01*
X284200725Y-143873000D01*
X284352750Y-143873000D01*
X284352750Y-144319720D01*
X284397028Y-144555037D01*
X284400115Y-144559834D01*
X284400115Y-144795970D01*
X284558865Y-144954720D01*
X284626119Y-144954720D01*
X284737329Y-144908655D01*
X284748300Y-144916151D01*
X285000190Y-144967160D01*
X285398970Y-144967160D01*
X285634287Y-144922882D01*
X285850411Y-144783810D01*
X285866429Y-144760367D01*
X285866940Y-144761161D01*
X286079140Y-144906151D01*
X286331030Y-144957160D01*
X286729810Y-144957160D01*
X286965127Y-144912882D01*
X286989364Y-144897286D01*
X287103881Y-144944720D01*
X287171135Y-144944720D01*
X287329885Y-144785970D01*
X287329885Y-144543615D01*
X287377250Y-144309720D01*
X287377250Y-144081000D01*
X287476030Y-144081000D01*
X287476030Y-144137002D01*
X287529275Y-144137002D01*
X287529275Y-144242505D01*
X287476030Y-144295750D01*
X287476030Y-144436030D01*
X287529275Y-144564575D01*
X287529275Y-144785970D01*
X287688025Y-144944720D01*
X287755279Y-144944720D01*
X287870000Y-144897201D01*
X287984721Y-144944720D01*
X288051975Y-144944720D01*
X288210725Y-144785970D01*
X288210725Y-144564575D01*
X288263970Y-144436030D01*
X288263970Y-144295750D01*
X288210725Y-144242505D01*
X288210725Y-144137000D01*
X288163420Y-144137000D01*
X288163420Y-144027608D01*
X288167088Y-144026878D01*
X288362750Y-143896141D01*
X288362750Y-144309720D01*
X288407028Y-144545037D01*
X288410115Y-144549834D01*
X288410115Y-144785970D01*
X288568865Y-144944720D01*
X288636119Y-144944720D01*
X288747329Y-144898655D01*
X288758300Y-144906151D01*
X289010190Y-144957160D01*
X289111045Y-144957160D01*
X289110846Y-145186057D01*
X289155860Y-145295000D01*
X266585000Y-145295000D01*
X266585000Y-143888542D01*
X266705910Y-144076441D01*
X266918110Y-144221431D01*
X267170000Y-144272440D01*
X267470000Y-144272440D01*
X267573671Y-144252933D01*
X267670000Y-144272440D01*
X267856934Y-144272440D01*
X268167247Y-144582753D01*
X268397912Y-144736878D01*
X268670000Y-144791000D01*
X270969580Y-144791000D01*
X271145052Y-144756096D01*
X271212703Y-144919419D01*
X271391332Y-145098047D01*
X271624721Y-145194720D01*
X271691975Y-145194720D01*
X271850725Y-145035970D01*
X271850725Y-144387000D01*
X271803420Y-144387000D01*
X271803420Y-144251666D01*
X271942086Y-144113000D01*
X272002750Y-144113000D01*
X272002750Y-144559720D01*
X272047028Y-144795037D01*
X272050115Y-144799834D01*
X272050115Y-145035970D01*
X272208865Y-145194720D01*
X272276119Y-145194720D01*
X272387329Y-145148655D01*
X272398300Y-145156151D01*
X272650190Y-145207160D01*
X273048970Y-145207160D01*
X273284287Y-145162882D01*
X273500411Y-145023810D01*
X273645401Y-144811610D01*
X273668637Y-144696869D01*
X274158066Y-144207440D01*
X274325000Y-144207440D01*
X274492631Y-144175898D01*
X274692391Y-144258846D01*
X275046057Y-144259154D01*
X275312391Y-144149107D01*
X275323110Y-144156431D01*
X275575000Y-144207440D01*
X276225000Y-144207440D01*
X276460317Y-144163162D01*
X276504094Y-144134992D01*
X276546190Y-144200411D01*
X276758390Y-144345401D01*
X277010280Y-144396410D01*
X277300904Y-144396410D01*
X277407247Y-144502753D01*
X277637912Y-144656878D01*
X277910000Y-144711000D01*
X280190000Y-144711000D01*
X280462088Y-144656878D01*
X280692753Y-144502753D01*
X280889756Y-144305750D01*
X283466030Y-144305750D01*
X283466030Y-144446030D01*
X283562703Y-144679419D01*
X283741332Y-144858047D01*
X283974721Y-144954720D01*
X284041975Y-144954720D01*
X284200725Y-144795970D01*
X284200725Y-144147000D01*
X283624780Y-144147000D01*
X283466030Y-144305750D01*
X280889756Y-144305750D01*
X281022753Y-144172753D01*
X281176878Y-143942088D01*
X281231000Y-143670000D01*
X281231000Y-143041773D01*
X281237118Y-143074287D01*
G36*
X279526580Y-143289000D02*
X279327250Y-143289000D01*
X279327250Y-143237160D01*
X279526580Y-143237160D01*
X279526580Y-143289000D01*
X279526580Y-143289000D01*
G37*
X279526580Y-143289000D02*
X279327250Y-143289000D01*
X279327250Y-143237160D01*
X279526580Y-143237160D01*
X279526580Y-143289000D01*
G36*
X294955910Y-138581441D02*
X295168110Y-138726431D01*
X295420000Y-138777440D01*
X297120000Y-138777440D01*
X297355317Y-138733162D01*
X297415000Y-138694757D01*
X297415000Y-141573331D01*
X297261645Y-141203076D01*
X296871358Y-140774817D01*
X296346892Y-140528514D01*
X296117000Y-140649181D01*
X296117000Y-141843000D01*
X296137000Y-141843000D01*
X296137000Y-142097000D01*
X296117000Y-142097000D01*
X296117000Y-142117000D01*
X295863000Y-142117000D01*
X295863000Y-142097000D01*
X294669845Y-142097000D01*
X294548524Y-142326890D01*
X294632235Y-142529000D01*
X293642406Y-142529000D01*
X293789144Y-142117698D01*
X293763889Y-141613110D01*
X294548524Y-141613110D01*
X294669845Y-141843000D01*
X295863000Y-141843000D01*
X295863000Y-140649181D01*
X295633108Y-140528514D01*
X295108642Y-140774817D01*
X294718355Y-141203076D01*
X294548524Y-141613110D01*
X293763889Y-141613110D01*
X293761362Y-141562632D01*
X293602397Y-141178857D01*
X293360213Y-141109392D01*
X292559605Y-141910000D01*
X292573748Y-141924143D01*
X292394143Y-142103748D01*
X292380000Y-142089605D01*
X292365858Y-142103748D01*
X292186253Y-141924143D01*
X292200395Y-141910000D01*
X291399787Y-141109392D01*
X291157603Y-141178857D01*
X290970856Y-141702302D01*
X290998638Y-142257368D01*
X291003456Y-142269000D01*
X290474461Y-142269000D01*
X290416241Y-142178523D01*
X290516431Y-142031890D01*
X290567440Y-141780000D01*
X290567440Y-140980000D01*
X290523162Y-140744683D01*
X290443304Y-140620580D01*
X290709250Y-140620580D01*
X290833390Y-140705401D01*
X291085280Y-140756410D01*
X291629121Y-140756410D01*
X291579392Y-140929787D01*
X292380000Y-141730395D01*
X293180608Y-140929787D01*
X293111143Y-140687603D01*
X293077055Y-140675442D01*
X293236161Y-140573060D01*
X293381151Y-140360860D01*
X293432160Y-140108970D01*
X293432160Y-139710190D01*
X293425445Y-139674503D01*
X293461668Y-139667298D01*
X293692333Y-139513173D01*
X294825981Y-138379525D01*
X294955910Y-138581441D01*
X294955910Y-138581441D01*
G37*
X294955910Y-138581441D02*
X295168110Y-138726431D01*
X295420000Y-138777440D01*
X297120000Y-138777440D01*
X297355317Y-138733162D01*
X297415000Y-138694757D01*
X297415000Y-141573331D01*
X297261645Y-141203076D01*
X296871358Y-140774817D01*
X296346892Y-140528514D01*
X296117000Y-140649181D01*
X296117000Y-141843000D01*
X296137000Y-141843000D01*
X296137000Y-142097000D01*
X296117000Y-142097000D01*
X296117000Y-142117000D01*
X295863000Y-142117000D01*
X295863000Y-142097000D01*
X294669845Y-142097000D01*
X294548524Y-142326890D01*
X294632235Y-142529000D01*
X293642406Y-142529000D01*
X293789144Y-142117698D01*
X293763889Y-141613110D01*
X294548524Y-141613110D01*
X294669845Y-141843000D01*
X295863000Y-141843000D01*
X295863000Y-140649181D01*
X295633108Y-140528514D01*
X295108642Y-140774817D01*
X294718355Y-141203076D01*
X294548524Y-141613110D01*
X293763889Y-141613110D01*
X293761362Y-141562632D01*
X293602397Y-141178857D01*
X293360213Y-141109392D01*
X292559605Y-141910000D01*
X292573748Y-141924143D01*
X292394143Y-142103748D01*
X292380000Y-142089605D01*
X292365858Y-142103748D01*
X292186253Y-141924143D01*
X292200395Y-141910000D01*
X291399787Y-141109392D01*
X291157603Y-141178857D01*
X290970856Y-141702302D01*
X290998638Y-142257368D01*
X291003456Y-142269000D01*
X290474461Y-142269000D01*
X290416241Y-142178523D01*
X290516431Y-142031890D01*
X290567440Y-141780000D01*
X290567440Y-140980000D01*
X290523162Y-140744683D01*
X290443304Y-140620580D01*
X290709250Y-140620580D01*
X290833390Y-140705401D01*
X291085280Y-140756410D01*
X291629121Y-140756410D01*
X291579392Y-140929787D01*
X292380000Y-141730395D01*
X293180608Y-140929787D01*
X293111143Y-140687603D01*
X293077055Y-140675442D01*
X293236161Y-140573060D01*
X293381151Y-140360860D01*
X293432160Y-140108970D01*
X293432160Y-139710190D01*
X293425445Y-139674503D01*
X293461668Y-139667298D01*
X293692333Y-139513173D01*
X294825981Y-138379525D01*
X294955910Y-138581441D01*
G36*
X281375910Y-140901441D02*
X281507682Y-140991477D01*
X281480581Y-141002703D01*
X281301953Y-141181332D01*
X281205280Y-141414721D01*
X281205280Y-141481975D01*
X281364030Y-141640725D01*
X282013000Y-141640725D01*
X282013000Y-141593420D01*
X282267000Y-141593420D01*
X282267000Y-141640725D01*
X282287000Y-141640725D01*
X282287000Y-141792750D01*
X281840280Y-141792750D01*
X281604963Y-141837028D01*
X281600166Y-141840115D01*
X281364030Y-141840115D01*
X281205280Y-141998865D01*
X281205280Y-142066119D01*
X281251345Y-142177329D01*
X281243849Y-142188300D01*
X281193044Y-142439183D01*
X281176878Y-142357912D01*
X281022753Y-142127247D01*
X280682753Y-141787247D01*
X280452088Y-141633122D01*
X280180000Y-141579000D01*
X280068903Y-141579000D01*
X280043060Y-141538839D01*
X279830860Y-141393849D01*
X279578970Y-141342840D01*
X279191420Y-141342840D01*
X279191420Y-141097440D01*
X279640000Y-141097440D01*
X279873260Y-141053549D01*
X280090000Y-141097440D01*
X280890000Y-141097440D01*
X281125317Y-141053162D01*
X281341441Y-140914090D01*
X281363384Y-140881975D01*
X281375910Y-140901441D01*
X281375910Y-140901441D01*
G37*
X281375910Y-140901441D02*
X281507682Y-140991477D01*
X281480581Y-141002703D01*
X281301953Y-141181332D01*
X281205280Y-141414721D01*
X281205280Y-141481975D01*
X281364030Y-141640725D01*
X282013000Y-141640725D01*
X282013000Y-141593420D01*
X282267000Y-141593420D01*
X282267000Y-141640725D01*
X282287000Y-141640725D01*
X282287000Y-141792750D01*
X281840280Y-141792750D01*
X281604963Y-141837028D01*
X281600166Y-141840115D01*
X281364030Y-141840115D01*
X281205280Y-141998865D01*
X281205280Y-142066119D01*
X281251345Y-142177329D01*
X281243849Y-142188300D01*
X281193044Y-142439183D01*
X281176878Y-142357912D01*
X281022753Y-142127247D01*
X280682753Y-141787247D01*
X280452088Y-141633122D01*
X280180000Y-141579000D01*
X280068903Y-141579000D01*
X280043060Y-141538839D01*
X279830860Y-141393849D01*
X279578970Y-141342840D01*
X279191420Y-141342840D01*
X279191420Y-141097440D01*
X279640000Y-141097440D01*
X279873260Y-141053549D01*
X280090000Y-141097440D01*
X280890000Y-141097440D01*
X281125317Y-141053162D01*
X281341441Y-140914090D01*
X281363384Y-140881975D01*
X281375910Y-140901441D01*
G36*
X271090500Y-139838940D02*
X271725500Y-139838940D01*
X271916030Y-139803089D01*
X271916030Y-139914250D01*
X272074780Y-140073000D01*
X272650725Y-140073000D01*
X272650725Y-140053000D01*
X272802750Y-140053000D01*
X272802750Y-140499720D01*
X272847028Y-140735037D01*
X272850115Y-140739834D01*
X272850115Y-140975970D01*
X273008865Y-141134720D01*
X273076119Y-141134720D01*
X273187329Y-141088655D01*
X273198300Y-141096151D01*
X273450190Y-141147160D01*
X273848970Y-141147160D01*
X274084287Y-141102882D01*
X274300411Y-140963810D01*
X274374639Y-140855173D01*
X274527308Y-140753163D01*
X274674030Y-140899885D01*
X274916385Y-140899885D01*
X275150280Y-140947250D01*
X275749720Y-140947250D01*
X275985037Y-140902972D01*
X275989834Y-140899885D01*
X276316385Y-140899885D01*
X276550280Y-140947250D01*
X276979000Y-140947250D01*
X276979000Y-141099275D01*
X276977000Y-141099275D01*
X276977000Y-141146580D01*
X276723000Y-141146580D01*
X276723000Y-141099275D01*
X275577000Y-141099275D01*
X275577000Y-141146580D01*
X275323000Y-141146580D01*
X275323000Y-141099275D01*
X274674030Y-141099275D01*
X274521045Y-141252260D01*
X274325000Y-141212560D01*
X273675000Y-141212560D01*
X273439683Y-141256838D01*
X273223559Y-141395910D01*
X273078569Y-141608110D01*
X273066885Y-141665806D01*
X272978047Y-141451332D01*
X272799419Y-141272703D01*
X272566030Y-141176030D01*
X272425750Y-141176030D01*
X272267000Y-141334780D01*
X272267000Y-141910725D01*
X272287000Y-141910725D01*
X272287000Y-142062750D01*
X271840280Y-142062750D01*
X271641702Y-142100115D01*
X271573615Y-142100115D01*
X271339720Y-142052750D01*
X270893000Y-142052750D01*
X270893000Y-141900725D01*
X270913000Y-141900725D01*
X270913000Y-141324780D01*
X271167000Y-141324780D01*
X271167000Y-141900725D01*
X271354030Y-141900725D01*
X271364030Y-141910725D01*
X272013000Y-141910725D01*
X272013000Y-141334780D01*
X271854250Y-141176030D01*
X271713970Y-141176030D01*
X271602071Y-141222380D01*
X271466030Y-141166030D01*
X271325750Y-141166030D01*
X271167000Y-141324780D01*
X270913000Y-141324780D01*
X270754250Y-141166030D01*
X270613970Y-141166030D01*
X270611000Y-141167260D01*
X270611000Y-140826083D01*
X270823218Y-140614236D01*
X270876570Y-140485750D01*
X271916030Y-140485750D01*
X271916030Y-140626030D01*
X272012703Y-140859419D01*
X272191332Y-141038047D01*
X272424721Y-141134720D01*
X272491975Y-141134720D01*
X272650725Y-140975970D01*
X272650725Y-140327000D01*
X272074780Y-140327000D01*
X271916030Y-140485750D01*
X270876570Y-140485750D01*
X270958846Y-140287609D01*
X270959154Y-139933943D01*
X270904321Y-139801238D01*
X271090500Y-139838940D01*
X271090500Y-139838940D01*
G37*
X271090500Y-139838940D02*
X271725500Y-139838940D01*
X271916030Y-139803089D01*
X271916030Y-139914250D01*
X272074780Y-140073000D01*
X272650725Y-140073000D01*
X272650725Y-140053000D01*
X272802750Y-140053000D01*
X272802750Y-140499720D01*
X272847028Y-140735037D01*
X272850115Y-140739834D01*
X272850115Y-140975970D01*
X273008865Y-141134720D01*
X273076119Y-141134720D01*
X273187329Y-141088655D01*
X273198300Y-141096151D01*
X273450190Y-141147160D01*
X273848970Y-141147160D01*
X274084287Y-141102882D01*
X274300411Y-140963810D01*
X274374639Y-140855173D01*
X274527308Y-140753163D01*
X274674030Y-140899885D01*
X274916385Y-140899885D01*
X275150280Y-140947250D01*
X275749720Y-140947250D01*
X275985037Y-140902972D01*
X275989834Y-140899885D01*
X276316385Y-140899885D01*
X276550280Y-140947250D01*
X276979000Y-140947250D01*
X276979000Y-141099275D01*
X276977000Y-141099275D01*
X276977000Y-141146580D01*
X276723000Y-141146580D01*
X276723000Y-141099275D01*
X275577000Y-141099275D01*
X275577000Y-141146580D01*
X275323000Y-141146580D01*
X275323000Y-141099275D01*
X274674030Y-141099275D01*
X274521045Y-141252260D01*
X274325000Y-141212560D01*
X273675000Y-141212560D01*
X273439683Y-141256838D01*
X273223559Y-141395910D01*
X273078569Y-141608110D01*
X273066885Y-141665806D01*
X272978047Y-141451332D01*
X272799419Y-141272703D01*
X272566030Y-141176030D01*
X272425750Y-141176030D01*
X272267000Y-141334780D01*
X272267000Y-141910725D01*
X272287000Y-141910725D01*
X272287000Y-142062750D01*
X271840280Y-142062750D01*
X271641702Y-142100115D01*
X271573615Y-142100115D01*
X271339720Y-142052750D01*
X270893000Y-142052750D01*
X270893000Y-141900725D01*
X270913000Y-141900725D01*
X270913000Y-141324780D01*
X271167000Y-141324780D01*
X271167000Y-141900725D01*
X271354030Y-141900725D01*
X271364030Y-141910725D01*
X272013000Y-141910725D01*
X272013000Y-141334780D01*
X271854250Y-141176030D01*
X271713970Y-141176030D01*
X271602071Y-141222380D01*
X271466030Y-141166030D01*
X271325750Y-141166030D01*
X271167000Y-141324780D01*
X270913000Y-141324780D01*
X270754250Y-141166030D01*
X270613970Y-141166030D01*
X270611000Y-141167260D01*
X270611000Y-140826083D01*
X270823218Y-140614236D01*
X270876570Y-140485750D01*
X271916030Y-140485750D01*
X271916030Y-140626030D01*
X272012703Y-140859419D01*
X272191332Y-141038047D01*
X272424721Y-141134720D01*
X272491975Y-141134720D01*
X272650725Y-140975970D01*
X272650725Y-140327000D01*
X272074780Y-140327000D01*
X271916030Y-140485750D01*
X270876570Y-140485750D01*
X270958846Y-140287609D01*
X270959154Y-139933943D01*
X270904321Y-139801238D01*
X271090500Y-139838940D01*
G36*
X283530280Y-137457250D02*
X283977000Y-137457250D01*
X283977000Y-137609275D01*
X283957000Y-137609275D01*
X283957000Y-138185220D01*
X284115750Y-138343970D01*
X284164314Y-138343970D01*
X284156030Y-138363970D01*
X284156030Y-138504250D01*
X284314780Y-138663000D01*
X284890725Y-138663000D01*
X284890725Y-138643000D01*
X285042750Y-138643000D01*
X285042750Y-139089720D01*
X285087028Y-139325037D01*
X285090115Y-139329834D01*
X285090115Y-139565970D01*
X285248865Y-139724720D01*
X285316119Y-139724720D01*
X285427329Y-139678655D01*
X285438300Y-139686151D01*
X285690190Y-139737160D01*
X286088970Y-139737160D01*
X286324287Y-139692882D01*
X286540411Y-139553810D01*
X286685401Y-139341610D01*
X286736410Y-139089720D01*
X286736410Y-138981916D01*
X287633137Y-139878643D01*
X287617000Y-139894780D01*
X287617000Y-140470725D01*
X287637000Y-140470725D01*
X287637000Y-140585634D01*
X287599819Y-140622750D01*
X287190280Y-140622750D01*
X286954963Y-140667028D01*
X286950166Y-140670115D01*
X286875741Y-140670115D01*
X286836890Y-140643569D01*
X286585000Y-140592560D01*
X285835000Y-140592560D01*
X285599683Y-140636838D01*
X285383559Y-140775910D01*
X285238569Y-140988110D01*
X285237317Y-140994292D01*
X285119698Y-140876673D01*
X284929740Y-140797990D01*
X284911750Y-140780000D01*
X284783061Y-140780000D01*
X284836431Y-140701890D01*
X284887440Y-140450000D01*
X284887440Y-140244721D01*
X286555280Y-140244721D01*
X286555280Y-140311975D01*
X286714030Y-140470725D01*
X287363000Y-140470725D01*
X287363000Y-139894780D01*
X287204250Y-139736030D01*
X287063970Y-139736030D01*
X286830581Y-139832703D01*
X286651953Y-140011332D01*
X286555280Y-140244721D01*
X284887440Y-140244721D01*
X284887440Y-139650000D01*
X284874653Y-139582042D01*
X284890725Y-139565970D01*
X284890725Y-138917000D01*
X284314780Y-138917000D01*
X284229220Y-139002560D01*
X283440000Y-139002560D01*
X283204683Y-139046838D01*
X283038523Y-139153759D01*
X282891890Y-139053569D01*
X282640000Y-139002560D01*
X282350145Y-139002560D01*
X282459419Y-138957297D01*
X282638047Y-138778668D01*
X282734720Y-138545279D01*
X282734720Y-138478025D01*
X282577458Y-138320763D01*
X282713000Y-138185220D01*
X282713000Y-137982855D01*
X282734720Y-137961135D01*
X282734720Y-137893881D01*
X282713000Y-137841444D01*
X282713000Y-137768025D01*
X282895280Y-137768025D01*
X282895280Y-137835279D01*
X282967000Y-138008426D01*
X282967000Y-138185220D01*
X283125750Y-138343970D01*
X283266030Y-138343970D01*
X283335000Y-138315402D01*
X283403970Y-138343970D01*
X283544250Y-138343970D01*
X283703000Y-138185220D01*
X283703000Y-138008426D01*
X283774720Y-137835279D01*
X283774720Y-137768025D01*
X283703000Y-137696305D01*
X283703000Y-137609275D01*
X282967000Y-137609275D01*
X282967000Y-137696305D01*
X282895280Y-137768025D01*
X282713000Y-137768025D01*
X282713000Y-137688497D01*
X282747160Y-137519810D01*
X282747160Y-137457250D01*
X283139720Y-137457250D01*
X283342169Y-137419157D01*
X283530280Y-137457250D01*
X283530280Y-137457250D01*
G37*
X283530280Y-137457250D02*
X283977000Y-137457250D01*
X283977000Y-137609275D01*
X283957000Y-137609275D01*
X283957000Y-138185220D01*
X284115750Y-138343970D01*
X284164314Y-138343970D01*
X284156030Y-138363970D01*
X284156030Y-138504250D01*
X284314780Y-138663000D01*
X284890725Y-138663000D01*
X284890725Y-138643000D01*
X285042750Y-138643000D01*
X285042750Y-139089720D01*
X285087028Y-139325037D01*
X285090115Y-139329834D01*
X285090115Y-139565970D01*
X285248865Y-139724720D01*
X285316119Y-139724720D01*
X285427329Y-139678655D01*
X285438300Y-139686151D01*
X285690190Y-139737160D01*
X286088970Y-139737160D01*
X286324287Y-139692882D01*
X286540411Y-139553810D01*
X286685401Y-139341610D01*
X286736410Y-139089720D01*
X286736410Y-138981916D01*
X287633137Y-139878643D01*
X287617000Y-139894780D01*
X287617000Y-140470725D01*
X287637000Y-140470725D01*
X287637000Y-140585634D01*
X287599819Y-140622750D01*
X287190280Y-140622750D01*
X286954963Y-140667028D01*
X286950166Y-140670115D01*
X286875741Y-140670115D01*
X286836890Y-140643569D01*
X286585000Y-140592560D01*
X285835000Y-140592560D01*
X285599683Y-140636838D01*
X285383559Y-140775910D01*
X285238569Y-140988110D01*
X285237317Y-140994292D01*
X285119698Y-140876673D01*
X284929740Y-140797990D01*
X284911750Y-140780000D01*
X284783061Y-140780000D01*
X284836431Y-140701890D01*
X284887440Y-140450000D01*
X284887440Y-140244721D01*
X286555280Y-140244721D01*
X286555280Y-140311975D01*
X286714030Y-140470725D01*
X287363000Y-140470725D01*
X287363000Y-139894780D01*
X287204250Y-139736030D01*
X287063970Y-139736030D01*
X286830581Y-139832703D01*
X286651953Y-140011332D01*
X286555280Y-140244721D01*
X284887440Y-140244721D01*
X284887440Y-139650000D01*
X284874653Y-139582042D01*
X284890725Y-139565970D01*
X284890725Y-138917000D01*
X284314780Y-138917000D01*
X284229220Y-139002560D01*
X283440000Y-139002560D01*
X283204683Y-139046838D01*
X283038523Y-139153759D01*
X282891890Y-139053569D01*
X282640000Y-139002560D01*
X282350145Y-139002560D01*
X282459419Y-138957297D01*
X282638047Y-138778668D01*
X282734720Y-138545279D01*
X282734720Y-138478025D01*
X282577458Y-138320763D01*
X282713000Y-138185220D01*
X282713000Y-137982855D01*
X282734720Y-137961135D01*
X282734720Y-137893881D01*
X282713000Y-137841444D01*
X282713000Y-137768025D01*
X282895280Y-137768025D01*
X282895280Y-137835279D01*
X282967000Y-138008426D01*
X282967000Y-138185220D01*
X283125750Y-138343970D01*
X283266030Y-138343970D01*
X283335000Y-138315402D01*
X283403970Y-138343970D01*
X283544250Y-138343970D01*
X283703000Y-138185220D01*
X283703000Y-138008426D01*
X283774720Y-137835279D01*
X283774720Y-137768025D01*
X283703000Y-137696305D01*
X283703000Y-137609275D01*
X282967000Y-137609275D01*
X282967000Y-137696305D01*
X282895280Y-137768025D01*
X282713000Y-137768025D01*
X282713000Y-137688497D01*
X282747160Y-137519810D01*
X282747160Y-137457250D01*
X283139720Y-137457250D01*
X283342169Y-137419157D01*
X283530280Y-137457250D01*
G36*
X271327912Y-132173122D02*
X271097247Y-132327247D01*
X270987247Y-132437247D01*
X270833122Y-132667912D01*
X270779000Y-132940000D01*
X270779000Y-133552560D01*
X270674135Y-133552560D01*
X270734720Y-133491975D01*
X270734720Y-133424721D01*
X270673000Y-133275716D01*
X270673000Y-132623750D01*
X270514250Y-132465000D01*
X270223691Y-132465000D01*
X269990302Y-132561673D01*
X269811673Y-132740301D01*
X269738884Y-132916030D01*
X269672998Y-132916030D01*
X269672998Y-133074778D01*
X269514250Y-132916030D01*
X269373970Y-132916030D01*
X269140581Y-133012703D01*
X268961953Y-133191332D01*
X268865280Y-133424721D01*
X268865280Y-133491975D01*
X269024030Y-133650725D01*
X269673000Y-133650725D01*
X269673000Y-133603420D01*
X269927000Y-133603420D01*
X269927000Y-133627000D01*
X269873750Y-133627000D01*
X269715000Y-133785750D01*
X269715000Y-133802750D01*
X269500280Y-133802750D01*
X269264963Y-133847028D01*
X269260166Y-133850115D01*
X269024030Y-133850115D01*
X268865280Y-134008865D01*
X268865280Y-134076119D01*
X268911345Y-134187329D01*
X268903849Y-134198300D01*
X268852840Y-134450190D01*
X268852840Y-134848970D01*
X268897118Y-135084287D01*
X269036190Y-135300411D01*
X269248390Y-135445401D01*
X269500280Y-135496410D01*
X269951724Y-135496410D01*
X270098110Y-135596431D01*
X270350000Y-135647440D01*
X270785500Y-135647440D01*
X270785500Y-135714250D01*
X270944250Y-135873000D01*
X271611000Y-135873000D01*
X271611000Y-135853000D01*
X271865000Y-135853000D01*
X271865000Y-135873000D01*
X271885000Y-135873000D01*
X271885000Y-136127000D01*
X271865000Y-136127000D01*
X271865000Y-136147000D01*
X271611000Y-136147000D01*
X271611000Y-136127000D01*
X270944250Y-136127000D01*
X270785500Y-136285750D01*
X270785500Y-136697810D01*
X270882173Y-136931199D01*
X270889933Y-136938959D01*
X270883590Y-136970280D01*
X270883590Y-137122079D01*
X270751122Y-137320332D01*
X270707332Y-137540477D01*
X270639059Y-137584410D01*
X270494069Y-137796610D01*
X270443060Y-138048500D01*
X270443060Y-139191500D01*
X270465678Y-139311705D01*
X270247609Y-139221154D01*
X269893943Y-139220846D01*
X269734082Y-139286899D01*
X269733071Y-139286209D01*
X269736410Y-139269720D01*
X269736410Y-138670280D01*
X269692132Y-138434963D01*
X269553060Y-138218839D01*
X269340860Y-138073849D01*
X269088970Y-138022840D01*
X268690190Y-138022840D01*
X268454873Y-138067118D01*
X268443016Y-138074748D01*
X268441700Y-138073849D01*
X268189810Y-138022840D01*
X267791030Y-138022840D01*
X267555713Y-138067118D01*
X267339589Y-138206190D01*
X267194599Y-138418390D01*
X267143590Y-138670280D01*
X267143590Y-138829595D01*
X267127552Y-138853598D01*
X267070499Y-139140420D01*
X267070500Y-139140425D01*
X267070500Y-139246282D01*
X266934683Y-139271838D01*
X266718559Y-139410910D01*
X266585000Y-139606380D01*
X266585000Y-132127000D01*
X271559782Y-132127000D01*
X271327912Y-132173122D01*
X271327912Y-132173122D01*
G37*
X271327912Y-132173122D02*
X271097247Y-132327247D01*
X270987247Y-132437247D01*
X270833122Y-132667912D01*
X270779000Y-132940000D01*
X270779000Y-133552560D01*
X270674135Y-133552560D01*
X270734720Y-133491975D01*
X270734720Y-133424721D01*
X270673000Y-133275716D01*
X270673000Y-132623750D01*
X270514250Y-132465000D01*
X270223691Y-132465000D01*
X269990302Y-132561673D01*
X269811673Y-132740301D01*
X269738884Y-132916030D01*
X269672998Y-132916030D01*
X269672998Y-133074778D01*
X269514250Y-132916030D01*
X269373970Y-132916030D01*
X269140581Y-133012703D01*
X268961953Y-133191332D01*
X268865280Y-133424721D01*
X268865280Y-133491975D01*
X269024030Y-133650725D01*
X269673000Y-133650725D01*
X269673000Y-133603420D01*
X269927000Y-133603420D01*
X269927000Y-133627000D01*
X269873750Y-133627000D01*
X269715000Y-133785750D01*
X269715000Y-133802750D01*
X269500280Y-133802750D01*
X269264963Y-133847028D01*
X269260166Y-133850115D01*
X269024030Y-133850115D01*
X268865280Y-134008865D01*
X268865280Y-134076119D01*
X268911345Y-134187329D01*
X268903849Y-134198300D01*
X268852840Y-134450190D01*
X268852840Y-134848970D01*
X268897118Y-135084287D01*
X269036190Y-135300411D01*
X269248390Y-135445401D01*
X269500280Y-135496410D01*
X269951724Y-135496410D01*
X270098110Y-135596431D01*
X270350000Y-135647440D01*
X270785500Y-135647440D01*
X270785500Y-135714250D01*
X270944250Y-135873000D01*
X271611000Y-135873000D01*
X271611000Y-135853000D01*
X271865000Y-135853000D01*
X271865000Y-135873000D01*
X271885000Y-135873000D01*
X271885000Y-136127000D01*
X271865000Y-136127000D01*
X271865000Y-136147000D01*
X271611000Y-136147000D01*
X271611000Y-136127000D01*
X270944250Y-136127000D01*
X270785500Y-136285750D01*
X270785500Y-136697810D01*
X270882173Y-136931199D01*
X270889933Y-136938959D01*
X270883590Y-136970280D01*
X270883590Y-137122079D01*
X270751122Y-137320332D01*
X270707332Y-137540477D01*
X270639059Y-137584410D01*
X270494069Y-137796610D01*
X270443060Y-138048500D01*
X270443060Y-139191500D01*
X270465678Y-139311705D01*
X270247609Y-139221154D01*
X269893943Y-139220846D01*
X269734082Y-139286899D01*
X269733071Y-139286209D01*
X269736410Y-139269720D01*
X269736410Y-138670280D01*
X269692132Y-138434963D01*
X269553060Y-138218839D01*
X269340860Y-138073849D01*
X269088970Y-138022840D01*
X268690190Y-138022840D01*
X268454873Y-138067118D01*
X268443016Y-138074748D01*
X268441700Y-138073849D01*
X268189810Y-138022840D01*
X267791030Y-138022840D01*
X267555713Y-138067118D01*
X267339589Y-138206190D01*
X267194599Y-138418390D01*
X267143590Y-138670280D01*
X267143590Y-138829595D01*
X267127552Y-138853598D01*
X267070499Y-139140420D01*
X267070500Y-139140425D01*
X267070500Y-139246282D01*
X266934683Y-139271838D01*
X266718559Y-139410910D01*
X266585000Y-139606380D01*
X266585000Y-132127000D01*
X271559782Y-132127000D01*
X271327912Y-132173122D01*
G36*
X282180581Y-138247297D02*
X282354351Y-138319275D01*
X281927000Y-138319275D01*
X281927000Y-138366580D01*
X281673000Y-138366580D01*
X281673000Y-138319275D01*
X281653000Y-138319275D01*
X281653000Y-138167250D01*
X282099720Y-138167250D01*
X282100405Y-138167121D01*
X282180581Y-138247297D01*
X282180581Y-138247297D01*
G37*
X282180581Y-138247297D02*
X282354351Y-138319275D01*
X281927000Y-138319275D01*
X281927000Y-138366580D01*
X281673000Y-138366580D01*
X281673000Y-138319275D01*
X281653000Y-138319275D01*
X281653000Y-138167250D01*
X282099720Y-138167250D01*
X282100405Y-138167121D01*
X282180581Y-138247297D01*
G36*
X286224500Y-134680500D02*
X287295500Y-134680500D01*
X287295500Y-134660500D01*
X287549500Y-134660500D01*
X287549500Y-134680500D01*
X287569500Y-134680500D01*
X287569500Y-134934500D01*
X287549500Y-134934500D01*
X287549500Y-136005500D01*
X287569500Y-136005500D01*
X287569500Y-136259500D01*
X287549500Y-136259500D01*
X287549500Y-136279500D01*
X287295500Y-136279500D01*
X287295500Y-136259500D01*
X286224500Y-136259500D01*
X286224500Y-136279500D01*
X285970500Y-136279500D01*
X285970500Y-136259500D01*
X285950500Y-136259500D01*
X285950500Y-136005500D01*
X285970500Y-136005500D01*
X285970500Y-135093250D01*
X286125000Y-135093250D01*
X286125000Y-135846750D01*
X286224500Y-135946250D01*
X286224500Y-136005500D01*
X286283750Y-136005500D01*
X286383250Y-136105000D01*
X287136750Y-136105000D01*
X287236250Y-136005500D01*
X287295500Y-136005500D01*
X287295500Y-135946250D01*
X287395000Y-135846750D01*
X287395000Y-135093250D01*
X287295500Y-134993750D01*
X287295500Y-134934500D01*
X287236250Y-134934500D01*
X287136750Y-134835000D01*
X286383250Y-134835000D01*
X286283750Y-134934500D01*
X286224500Y-134934500D01*
X286224500Y-134993750D01*
X286125000Y-135093250D01*
X285970500Y-135093250D01*
X285970500Y-134934500D01*
X285950500Y-134934500D01*
X285950500Y-134680500D01*
X285970500Y-134680500D01*
X285970500Y-134660500D01*
X286224500Y-134660500D01*
X286224500Y-134680500D01*
X286224500Y-134680500D01*
G37*
X286224500Y-134680500D02*
X287295500Y-134680500D01*
X287295500Y-134660500D01*
X287549500Y-134660500D01*
X287549500Y-134680500D01*
X287569500Y-134680500D01*
X287569500Y-134934500D01*
X287549500Y-134934500D01*
X287549500Y-136005500D01*
X287569500Y-136005500D01*
X287569500Y-136259500D01*
X287549500Y-136259500D01*
X287549500Y-136279500D01*
X287295500Y-136279500D01*
X287295500Y-136259500D01*
X286224500Y-136259500D01*
X286224500Y-136279500D01*
X285970500Y-136279500D01*
X285970500Y-136259500D01*
X285950500Y-136259500D01*
X285950500Y-136005500D01*
X285970500Y-136005500D01*
X285970500Y-135093250D01*
X286125000Y-135093250D01*
X286125000Y-135846750D01*
X286224500Y-135946250D01*
X286224500Y-136005500D01*
X286283750Y-136005500D01*
X286383250Y-136105000D01*
X287136750Y-136105000D01*
X287236250Y-136005500D01*
X287295500Y-136005500D01*
X287295500Y-135946250D01*
X287395000Y-135846750D01*
X287395000Y-135093250D01*
X287295500Y-134993750D01*
X287295500Y-134934500D01*
X287236250Y-134934500D01*
X287136750Y-134835000D01*
X286383250Y-134835000D01*
X286283750Y-134934500D01*
X286224500Y-134934500D01*
X286224500Y-134993750D01*
X286125000Y-135093250D01*
X285970500Y-135093250D01*
X285970500Y-134934500D01*
X285950500Y-134934500D01*
X285950500Y-134680500D01*
X285970500Y-134680500D01*
X285970500Y-134660500D01*
X286224500Y-134660500D01*
X286224500Y-134680500D01*
G36*
X276211250Y-132204250D02*
X277163750Y-132204250D01*
X277183750Y-132184250D01*
X277303750Y-132184250D01*
X277323750Y-132204250D01*
X278276250Y-132204250D01*
X278296250Y-132184250D01*
X278416250Y-132184250D01*
X278436250Y-132204250D01*
X279388750Y-132204250D01*
X279408750Y-132184250D01*
X279595750Y-132184250D01*
X279595750Y-132204250D01*
X279615750Y-132204250D01*
X279615750Y-132391250D01*
X279595750Y-132411250D01*
X279595750Y-133363750D01*
X279615750Y-133383750D01*
X279615750Y-133503750D01*
X279595750Y-133523750D01*
X279595750Y-134476250D01*
X279615750Y-134496250D01*
X279615750Y-134616250D01*
X279595750Y-134636250D01*
X279595750Y-135588750D01*
X279615750Y-135608750D01*
X279615750Y-135795750D01*
X279595750Y-135795750D01*
X279595750Y-135815750D01*
X279408750Y-135815750D01*
X279388750Y-135795750D01*
X278436250Y-135795750D01*
X278416250Y-135815750D01*
X278296250Y-135815750D01*
X278276250Y-135795750D01*
X277323750Y-135795750D01*
X277303750Y-135815750D01*
X277183750Y-135815750D01*
X277163750Y-135795750D01*
X276211250Y-135795750D01*
X276191250Y-135815750D01*
X276004250Y-135815750D01*
X276004250Y-135795750D01*
X275984250Y-135795750D01*
X275984250Y-135608750D01*
X276004250Y-135588750D01*
X276004250Y-134636250D01*
X275984250Y-134616250D01*
X275984250Y-134496250D01*
X276004250Y-134476250D01*
X276004250Y-133523750D01*
X275984250Y-133503750D01*
X275984250Y-133383750D01*
X276004250Y-133363750D01*
X276004250Y-132617000D01*
X276052500Y-132617000D01*
X276052500Y-133158000D01*
X276211250Y-133316750D01*
X276218725Y-133316750D01*
X276258250Y-133356276D01*
X276258250Y-133363750D01*
X276338250Y-133443750D01*
X276258250Y-133523750D01*
X276258250Y-133531224D01*
X276218725Y-133570750D01*
X276211250Y-133570750D01*
X276052500Y-133729500D01*
X276052500Y-134270500D01*
X276211250Y-134429250D01*
X276218725Y-134429250D01*
X276258250Y-134468776D01*
X276258250Y-134476250D01*
X276338250Y-134556250D01*
X276258250Y-134636250D01*
X276258250Y-134643724D01*
X276218725Y-134683250D01*
X276211250Y-134683250D01*
X276052500Y-134842000D01*
X276052500Y-135383000D01*
X276211250Y-135541750D01*
X276218725Y-135541750D01*
X276258250Y-135581276D01*
X276258250Y-135588750D01*
X276417000Y-135747500D01*
X276958000Y-135747500D01*
X277116750Y-135588750D01*
X277116750Y-135581276D01*
X277156275Y-135541750D01*
X277163750Y-135541750D01*
X277243750Y-135461750D01*
X277323750Y-135541750D01*
X277331225Y-135541750D01*
X277370750Y-135581276D01*
X277370750Y-135588750D01*
X277529500Y-135747500D01*
X278070500Y-135747500D01*
X278229250Y-135588750D01*
X278229250Y-135581276D01*
X278268775Y-135541750D01*
X278276250Y-135541750D01*
X278356250Y-135461750D01*
X278436250Y-135541750D01*
X278443725Y-135541750D01*
X278483250Y-135581276D01*
X278483250Y-135588750D01*
X278642000Y-135747500D01*
X279183000Y-135747500D01*
X279341750Y-135588750D01*
X279341750Y-135581276D01*
X279381275Y-135541750D01*
X279388750Y-135541750D01*
X279547500Y-135383000D01*
X279547500Y-134842000D01*
X279388750Y-134683250D01*
X279381275Y-134683250D01*
X279341750Y-134643724D01*
X279341750Y-134636250D01*
X279261750Y-134556250D01*
X279341750Y-134476250D01*
X279341750Y-134468776D01*
X279381275Y-134429250D01*
X279388750Y-134429250D01*
X279547500Y-134270500D01*
X279547500Y-133729500D01*
X279388750Y-133570750D01*
X279381275Y-133570750D01*
X279341750Y-133531224D01*
X279341750Y-133523750D01*
X279261750Y-133443750D01*
X279341750Y-133363750D01*
X279341750Y-133356276D01*
X279381275Y-133316750D01*
X279388750Y-133316750D01*
X279547500Y-133158000D01*
X279547500Y-132617000D01*
X279388750Y-132458250D01*
X279381275Y-132458250D01*
X279341750Y-132418724D01*
X279341750Y-132411250D01*
X279183000Y-132252500D01*
X278642000Y-132252500D01*
X278483250Y-132411250D01*
X278483250Y-132418724D01*
X278443725Y-132458250D01*
X278436250Y-132458250D01*
X278356250Y-132538250D01*
X278276250Y-132458250D01*
X278268775Y-132458250D01*
X278229250Y-132418724D01*
X278229250Y-132411250D01*
X278070500Y-132252500D01*
X277529500Y-132252500D01*
X277370750Y-132411250D01*
X277370750Y-132418724D01*
X277331225Y-132458250D01*
X277323750Y-132458250D01*
X277243750Y-132538250D01*
X277163750Y-132458250D01*
X277156275Y-132458250D01*
X277116750Y-132418724D01*
X277116750Y-132411250D01*
X276958000Y-132252500D01*
X276417000Y-132252500D01*
X276258250Y-132411250D01*
X276258250Y-132418724D01*
X276218725Y-132458250D01*
X276211250Y-132458250D01*
X276052500Y-132617000D01*
X276004250Y-132617000D01*
X276004250Y-132411250D01*
X275984250Y-132391250D01*
X275984250Y-132204250D01*
X276004250Y-132204250D01*
X276004250Y-132184250D01*
X276191250Y-132184250D01*
X276211250Y-132204250D01*
X276211250Y-132204250D01*
G37*
X276211250Y-132204250D02*
X277163750Y-132204250D01*
X277183750Y-132184250D01*
X277303750Y-132184250D01*
X277323750Y-132204250D01*
X278276250Y-132204250D01*
X278296250Y-132184250D01*
X278416250Y-132184250D01*
X278436250Y-132204250D01*
X279388750Y-132204250D01*
X279408750Y-132184250D01*
X279595750Y-132184250D01*
X279595750Y-132204250D01*
X279615750Y-132204250D01*
X279615750Y-132391250D01*
X279595750Y-132411250D01*
X279595750Y-133363750D01*
X279615750Y-133383750D01*
X279615750Y-133503750D01*
X279595750Y-133523750D01*
X279595750Y-134476250D01*
X279615750Y-134496250D01*
X279615750Y-134616250D01*
X279595750Y-134636250D01*
X279595750Y-135588750D01*
X279615750Y-135608750D01*
X279615750Y-135795750D01*
X279595750Y-135795750D01*
X279595750Y-135815750D01*
X279408750Y-135815750D01*
X279388750Y-135795750D01*
X278436250Y-135795750D01*
X278416250Y-135815750D01*
X278296250Y-135815750D01*
X278276250Y-135795750D01*
X277323750Y-135795750D01*
X277303750Y-135815750D01*
X277183750Y-135815750D01*
X277163750Y-135795750D01*
X276211250Y-135795750D01*
X276191250Y-135815750D01*
X276004250Y-135815750D01*
X276004250Y-135795750D01*
X275984250Y-135795750D01*
X275984250Y-135608750D01*
X276004250Y-135588750D01*
X276004250Y-134636250D01*
X275984250Y-134616250D01*
X275984250Y-134496250D01*
X276004250Y-134476250D01*
X276004250Y-133523750D01*
X275984250Y-133503750D01*
X275984250Y-133383750D01*
X276004250Y-133363750D01*
X276004250Y-132617000D01*
X276052500Y-132617000D01*
X276052500Y-133158000D01*
X276211250Y-133316750D01*
X276218725Y-133316750D01*
X276258250Y-133356276D01*
X276258250Y-133363750D01*
X276338250Y-133443750D01*
X276258250Y-133523750D01*
X276258250Y-133531224D01*
X276218725Y-133570750D01*
X276211250Y-133570750D01*
X276052500Y-133729500D01*
X276052500Y-134270500D01*
X276211250Y-134429250D01*
X276218725Y-134429250D01*
X276258250Y-134468776D01*
X276258250Y-134476250D01*
X276338250Y-134556250D01*
X276258250Y-134636250D01*
X276258250Y-134643724D01*
X276218725Y-134683250D01*
X276211250Y-134683250D01*
X276052500Y-134842000D01*
X276052500Y-135383000D01*
X276211250Y-135541750D01*
X276218725Y-135541750D01*
X276258250Y-135581276D01*
X276258250Y-135588750D01*
X276417000Y-135747500D01*
X276958000Y-135747500D01*
X277116750Y-135588750D01*
X277116750Y-135581276D01*
X277156275Y-135541750D01*
X277163750Y-135541750D01*
X277243750Y-135461750D01*
X277323750Y-135541750D01*
X277331225Y-135541750D01*
X277370750Y-135581276D01*
X277370750Y-135588750D01*
X277529500Y-135747500D01*
X278070500Y-135747500D01*
X278229250Y-135588750D01*
X278229250Y-135581276D01*
X278268775Y-135541750D01*
X278276250Y-135541750D01*
X278356250Y-135461750D01*
X278436250Y-135541750D01*
X278443725Y-135541750D01*
X278483250Y-135581276D01*
X278483250Y-135588750D01*
X278642000Y-135747500D01*
X279183000Y-135747500D01*
X279341750Y-135588750D01*
X279341750Y-135581276D01*
X279381275Y-135541750D01*
X279388750Y-135541750D01*
X279547500Y-135383000D01*
X279547500Y-134842000D01*
X279388750Y-134683250D01*
X279381275Y-134683250D01*
X279341750Y-134643724D01*
X279341750Y-134636250D01*
X279261750Y-134556250D01*
X279341750Y-134476250D01*
X279341750Y-134468776D01*
X279381275Y-134429250D01*
X279388750Y-134429250D01*
X279547500Y-134270500D01*
X279547500Y-133729500D01*
X279388750Y-133570750D01*
X279381275Y-133570750D01*
X279341750Y-133531224D01*
X279341750Y-133523750D01*
X279261750Y-133443750D01*
X279341750Y-133363750D01*
X279341750Y-133356276D01*
X279381275Y-133316750D01*
X279388750Y-133316750D01*
X279547500Y-133158000D01*
X279547500Y-132617000D01*
X279388750Y-132458250D01*
X279381275Y-132458250D01*
X279341750Y-132418724D01*
X279341750Y-132411250D01*
X279183000Y-132252500D01*
X278642000Y-132252500D01*
X278483250Y-132411250D01*
X278483250Y-132418724D01*
X278443725Y-132458250D01*
X278436250Y-132458250D01*
X278356250Y-132538250D01*
X278276250Y-132458250D01*
X278268775Y-132458250D01*
X278229250Y-132418724D01*
X278229250Y-132411250D01*
X278070500Y-132252500D01*
X277529500Y-132252500D01*
X277370750Y-132411250D01*
X277370750Y-132418724D01*
X277331225Y-132458250D01*
X277323750Y-132458250D01*
X277243750Y-132538250D01*
X277163750Y-132458250D01*
X277156275Y-132458250D01*
X277116750Y-132418724D01*
X277116750Y-132411250D01*
X276958000Y-132252500D01*
X276417000Y-132252500D01*
X276258250Y-132411250D01*
X276258250Y-132418724D01*
X276218725Y-132458250D01*
X276211250Y-132458250D01*
X276052500Y-132617000D01*
X276004250Y-132617000D01*
X276004250Y-132411250D01*
X275984250Y-132391250D01*
X275984250Y-132204250D01*
X276004250Y-132204250D01*
X276004250Y-132184250D01*
X276191250Y-132184250D01*
X276211250Y-132204250D01*
G36*
X278436250Y-134429250D02*
X278443725Y-134429250D01*
X278483250Y-134468776D01*
X278483250Y-134476250D01*
X278563250Y-134556250D01*
X278483250Y-134636250D01*
X278483250Y-134643724D01*
X278443725Y-134683250D01*
X278436250Y-134683250D01*
X278356250Y-134763250D01*
X278276250Y-134683250D01*
X278268775Y-134683250D01*
X278229250Y-134643724D01*
X278229250Y-134636250D01*
X278149250Y-134556250D01*
X278229250Y-134476250D01*
X278229250Y-134468776D01*
X278268775Y-134429250D01*
X278276250Y-134429250D01*
X278356250Y-134349250D01*
X278436250Y-134429250D01*
X278436250Y-134429250D01*
G37*
X278436250Y-134429250D02*
X278443725Y-134429250D01*
X278483250Y-134468776D01*
X278483250Y-134476250D01*
X278563250Y-134556250D01*
X278483250Y-134636250D01*
X278483250Y-134643724D01*
X278443725Y-134683250D01*
X278436250Y-134683250D01*
X278356250Y-134763250D01*
X278276250Y-134683250D01*
X278268775Y-134683250D01*
X278229250Y-134643724D01*
X278229250Y-134636250D01*
X278149250Y-134556250D01*
X278229250Y-134476250D01*
X278229250Y-134468776D01*
X278268775Y-134429250D01*
X278276250Y-134429250D01*
X278356250Y-134349250D01*
X278436250Y-134429250D01*
G36*
X277323750Y-134429250D02*
X277331225Y-134429250D01*
X277370750Y-134468776D01*
X277370750Y-134476250D01*
X277450750Y-134556250D01*
X277370750Y-134636250D01*
X277370750Y-134643724D01*
X277331225Y-134683250D01*
X277323750Y-134683250D01*
X277243750Y-134763250D01*
X277163750Y-134683250D01*
X277156275Y-134683250D01*
X277116750Y-134643724D01*
X277116750Y-134636250D01*
X277036750Y-134556250D01*
X277116750Y-134476250D01*
X277116750Y-134468776D01*
X277156275Y-134429250D01*
X277163750Y-134429250D01*
X277243750Y-134349250D01*
X277323750Y-134429250D01*
X277323750Y-134429250D01*
G37*
X277323750Y-134429250D02*
X277331225Y-134429250D01*
X277370750Y-134468776D01*
X277370750Y-134476250D01*
X277450750Y-134556250D01*
X277370750Y-134636250D01*
X277370750Y-134643724D01*
X277331225Y-134683250D01*
X277323750Y-134683250D01*
X277243750Y-134763250D01*
X277163750Y-134683250D01*
X277156275Y-134683250D01*
X277116750Y-134643724D01*
X277116750Y-134636250D01*
X277036750Y-134556250D01*
X277116750Y-134476250D01*
X277116750Y-134468776D01*
X277156275Y-134429250D01*
X277163750Y-134429250D01*
X277243750Y-134349250D01*
X277323750Y-134429250D01*
G36*
X277323750Y-133316750D02*
X277331225Y-133316750D01*
X277370750Y-133356276D01*
X277370750Y-133363750D01*
X277450750Y-133443750D01*
X277370750Y-133523750D01*
X277370750Y-133531224D01*
X277331225Y-133570750D01*
X277323750Y-133570750D01*
X277243750Y-133650750D01*
X277163750Y-133570750D01*
X277156275Y-133570750D01*
X277116750Y-133531224D01*
X277116750Y-133523750D01*
X277036750Y-133443750D01*
X277116750Y-133363750D01*
X277116750Y-133356276D01*
X277156275Y-133316750D01*
X277163750Y-133316750D01*
X277243750Y-133236750D01*
X277323750Y-133316750D01*
X277323750Y-133316750D01*
G37*
X277323750Y-133316750D02*
X277331225Y-133316750D01*
X277370750Y-133356276D01*
X277370750Y-133363750D01*
X277450750Y-133443750D01*
X277370750Y-133523750D01*
X277370750Y-133531224D01*
X277331225Y-133570750D01*
X277323750Y-133570750D01*
X277243750Y-133650750D01*
X277163750Y-133570750D01*
X277156275Y-133570750D01*
X277116750Y-133531224D01*
X277116750Y-133523750D01*
X277036750Y-133443750D01*
X277116750Y-133363750D01*
X277116750Y-133356276D01*
X277156275Y-133316750D01*
X277163750Y-133316750D01*
X277243750Y-133236750D01*
X277323750Y-133316750D01*
G36*
X278436250Y-133316750D02*
X278443725Y-133316750D01*
X278483250Y-133356276D01*
X278483250Y-133363750D01*
X278563250Y-133443750D01*
X278483250Y-133523750D01*
X278483250Y-133531224D01*
X278443725Y-133570750D01*
X278436250Y-133570750D01*
X278356250Y-133650750D01*
X278276250Y-133570750D01*
X278268775Y-133570750D01*
X278229250Y-133531224D01*
X278229250Y-133523750D01*
X278149250Y-133443750D01*
X278229250Y-133363750D01*
X278229250Y-133356276D01*
X278268775Y-133316750D01*
X278276250Y-133316750D01*
X278356250Y-133236750D01*
X278436250Y-133316750D01*
X278436250Y-133316750D01*
G37*
X278436250Y-133316750D02*
X278443725Y-133316750D01*
X278483250Y-133356276D01*
X278483250Y-133363750D01*
X278563250Y-133443750D01*
X278483250Y-133523750D01*
X278483250Y-133531224D01*
X278443725Y-133570750D01*
X278436250Y-133570750D01*
X278356250Y-133650750D01*
X278276250Y-133570750D01*
X278268775Y-133570750D01*
X278229250Y-133531224D01*
X278229250Y-133523750D01*
X278149250Y-133443750D01*
X278229250Y-133363750D01*
X278229250Y-133356276D01*
X278268775Y-133316750D01*
X278276250Y-133316750D01*
X278356250Y-133236750D01*
X278436250Y-133316750D01*
G36*
X272900280Y-134497250D02*
X273347000Y-134497250D01*
X273347000Y-134649275D01*
X273327000Y-134649275D01*
X273327000Y-134696580D01*
X273073000Y-134696580D01*
X273073000Y-134649275D01*
X272424030Y-134649275D01*
X272346305Y-134727000D01*
X272327000Y-134727000D01*
X272327000Y-134746305D01*
X272326305Y-134747000D01*
X272073000Y-134747000D01*
X272073000Y-134727000D01*
X272053000Y-134727000D01*
X272053000Y-134722587D01*
X272146878Y-134582088D01*
X272153770Y-134547440D01*
X272650000Y-134547440D01*
X272885317Y-134503162D01*
X272895887Y-134496360D01*
X272900280Y-134497250D01*
X272900280Y-134497250D01*
G37*
X272900280Y-134497250D02*
X273347000Y-134497250D01*
X273347000Y-134649275D01*
X273327000Y-134649275D01*
X273327000Y-134696580D01*
X273073000Y-134696580D01*
X273073000Y-134649275D01*
X272424030Y-134649275D01*
X272346305Y-134727000D01*
X272327000Y-134727000D01*
X272327000Y-134746305D01*
X272326305Y-134747000D01*
X272073000Y-134747000D01*
X272073000Y-134727000D01*
X272053000Y-134727000D01*
X272053000Y-134722587D01*
X272146878Y-134582088D01*
X272153770Y-134547440D01*
X272650000Y-134547440D01*
X272885317Y-134503162D01*
X272895887Y-134496360D01*
X272900280Y-134497250D01*
G36*
X286250000Y-130502440D02*
X286372750Y-130502440D01*
X286372750Y-130869720D01*
X286406942Y-131051435D01*
X286372750Y-131220280D01*
X286372750Y-131617244D01*
X286173420Y-131417914D01*
X286173420Y-131393275D01*
X286173695Y-131393000D01*
X286220725Y-131393000D01*
X286220725Y-130697000D01*
X286173695Y-130697000D01*
X286173420Y-130696725D01*
X286173420Y-130486932D01*
X286250000Y-130502440D01*
X286250000Y-130502440D01*
G37*
X286250000Y-130502440D02*
X286372750Y-130502440D01*
X286372750Y-130869720D01*
X286406942Y-131051435D01*
X286372750Y-131220280D01*
X286372750Y-131617244D01*
X286173420Y-131417914D01*
X286173420Y-131393275D01*
X286173695Y-131393000D01*
X286220725Y-131393000D01*
X286220725Y-130697000D01*
X286173695Y-130697000D01*
X286173420Y-130696725D01*
X286173420Y-130486932D01*
X286250000Y-130502440D01*
G36*
X294772560Y-126239000D02*
X293920000Y-126239000D01*
X293647912Y-126293122D01*
X293417247Y-126447247D01*
X291336827Y-128527667D01*
X291182702Y-128758332D01*
X291128580Y-129030420D01*
X291128580Y-130398508D01*
X291026030Y-130356030D01*
X290885750Y-130356030D01*
X290727000Y-130514780D01*
X290727000Y-131090725D01*
X290747000Y-131090725D01*
X290747000Y-131242750D01*
X290300280Y-131242750D01*
X290064963Y-131287028D01*
X290060166Y-131290115D01*
X289885471Y-131290115D01*
X289799720Y-131272750D01*
X289353000Y-131272750D01*
X289353000Y-131120725D01*
X289373000Y-131120725D01*
X289373000Y-130544780D01*
X289627000Y-130544780D01*
X289627000Y-131120725D01*
X290275970Y-131120725D01*
X290305970Y-131090725D01*
X290473000Y-131090725D01*
X290473000Y-130514780D01*
X290314250Y-130356030D01*
X290173970Y-130356030D01*
X290013787Y-130422380D01*
X289926030Y-130386030D01*
X289785750Y-130386030D01*
X289627000Y-130544780D01*
X289373000Y-130544780D01*
X289214250Y-130386030D01*
X289165000Y-130386030D01*
X289165000Y-130382998D01*
X289006252Y-130382998D01*
X289165000Y-130224250D01*
X289165000Y-130083691D01*
X289068327Y-129850302D01*
X288889699Y-129671673D01*
X288879779Y-129667564D01*
X289049419Y-129597297D01*
X289228047Y-129418668D01*
X289324720Y-129185279D01*
X289324720Y-129118025D01*
X289165970Y-128959275D01*
X288517000Y-128959275D01*
X288517000Y-129006580D01*
X288263000Y-129006580D01*
X288263000Y-128959275D01*
X288243000Y-128959275D01*
X288243000Y-128807250D01*
X288689720Y-128807250D01*
X288925037Y-128762972D01*
X288929834Y-128759885D01*
X289165970Y-128759885D01*
X289324720Y-128601135D01*
X289324720Y-128533881D01*
X289278655Y-128422671D01*
X289286151Y-128411700D01*
X289337160Y-128159810D01*
X289337160Y-127761030D01*
X289292882Y-127525713D01*
X289286582Y-127515923D01*
X289286582Y-127393277D01*
X289418025Y-127524720D01*
X289485279Y-127524720D01*
X289718668Y-127428047D01*
X289897297Y-127249419D01*
X289993970Y-127016030D01*
X289993970Y-126875750D01*
X289835220Y-126717000D01*
X289259275Y-126717000D01*
X289259275Y-126737000D01*
X289107250Y-126737000D01*
X289107250Y-126443000D01*
X289259275Y-126443000D01*
X289259275Y-126463000D01*
X289835220Y-126463000D01*
X289993970Y-126304250D01*
X289993970Y-126185000D01*
X294772560Y-126185000D01*
X294772560Y-126239000D01*
X294772560Y-126239000D01*
G37*
X294772560Y-126239000D02*
X293920000Y-126239000D01*
X293647912Y-126293122D01*
X293417247Y-126447247D01*
X291336827Y-128527667D01*
X291182702Y-128758332D01*
X291128580Y-129030420D01*
X291128580Y-130398508D01*
X291026030Y-130356030D01*
X290885750Y-130356030D01*
X290727000Y-130514780D01*
X290727000Y-131090725D01*
X290747000Y-131090725D01*
X290747000Y-131242750D01*
X290300280Y-131242750D01*
X290064963Y-131287028D01*
X290060166Y-131290115D01*
X289885471Y-131290115D01*
X289799720Y-131272750D01*
X289353000Y-131272750D01*
X289353000Y-131120725D01*
X289373000Y-131120725D01*
X289373000Y-130544780D01*
X289627000Y-130544780D01*
X289627000Y-131120725D01*
X290275970Y-131120725D01*
X290305970Y-131090725D01*
X290473000Y-131090725D01*
X290473000Y-130514780D01*
X290314250Y-130356030D01*
X290173970Y-130356030D01*
X290013787Y-130422380D01*
X289926030Y-130386030D01*
X289785750Y-130386030D01*
X289627000Y-130544780D01*
X289373000Y-130544780D01*
X289214250Y-130386030D01*
X289165000Y-130386030D01*
X289165000Y-130382998D01*
X289006252Y-130382998D01*
X289165000Y-130224250D01*
X289165000Y-130083691D01*
X289068327Y-129850302D01*
X288889699Y-129671673D01*
X288879779Y-129667564D01*
X289049419Y-129597297D01*
X289228047Y-129418668D01*
X289324720Y-129185279D01*
X289324720Y-129118025D01*
X289165970Y-128959275D01*
X288517000Y-128959275D01*
X288517000Y-129006580D01*
X288263000Y-129006580D01*
X288263000Y-128959275D01*
X288243000Y-128959275D01*
X288243000Y-128807250D01*
X288689720Y-128807250D01*
X288925037Y-128762972D01*
X288929834Y-128759885D01*
X289165970Y-128759885D01*
X289324720Y-128601135D01*
X289324720Y-128533881D01*
X289278655Y-128422671D01*
X289286151Y-128411700D01*
X289337160Y-128159810D01*
X289337160Y-127761030D01*
X289292882Y-127525713D01*
X289286582Y-127515923D01*
X289286582Y-127393277D01*
X289418025Y-127524720D01*
X289485279Y-127524720D01*
X289718668Y-127428047D01*
X289897297Y-127249419D01*
X289993970Y-127016030D01*
X289993970Y-126875750D01*
X289835220Y-126717000D01*
X289259275Y-126717000D01*
X289259275Y-126737000D01*
X289107250Y-126737000D01*
X289107250Y-126443000D01*
X289259275Y-126443000D01*
X289259275Y-126463000D01*
X289835220Y-126463000D01*
X289993970Y-126304250D01*
X289993970Y-126185000D01*
X294772560Y-126185000D01*
X294772560Y-126239000D01*
G36*
X273202750Y-129749720D02*
X273247028Y-129985037D01*
X273250115Y-129989834D01*
X273250115Y-130225970D01*
X273400422Y-130376277D01*
X272677000Y-131110941D01*
X272677000Y-130323532D01*
X272824721Y-130384720D01*
X272891975Y-130384720D01*
X273050725Y-130225970D01*
X273050725Y-129577000D01*
X273003420Y-129577000D01*
X273003420Y-129323000D01*
X273050725Y-129323000D01*
X273050725Y-129303000D01*
X273202750Y-129303000D01*
X273202750Y-129749720D01*
X273202750Y-129749720D01*
G37*
X273202750Y-129749720D02*
X273247028Y-129985037D01*
X273250115Y-129989834D01*
X273250115Y-130225970D01*
X273400422Y-130376277D01*
X272677000Y-131110941D01*
X272677000Y-130323532D01*
X272824721Y-130384720D01*
X272891975Y-130384720D01*
X273050725Y-130225970D01*
X273050725Y-129577000D01*
X273003420Y-129577000D01*
X273003420Y-129323000D01*
X273050725Y-129323000D01*
X273050725Y-129303000D01*
X273202750Y-129303000D01*
X273202750Y-129749720D01*
G36*
X288405000Y-130383000D02*
X288427000Y-130383000D01*
X288427000Y-130637000D01*
X288405000Y-130637000D01*
X288405000Y-130657000D01*
X288155000Y-130657000D01*
X288155000Y-130637000D01*
X288133000Y-130637000D01*
X288133000Y-130494122D01*
X288264351Y-130363000D01*
X288405000Y-130363000D01*
X288405000Y-130383000D01*
X288405000Y-130383000D01*
G37*
X288405000Y-130383000D02*
X288427000Y-130383000D01*
X288427000Y-130637000D01*
X288405000Y-130637000D01*
X288405000Y-130657000D01*
X288155000Y-130657000D01*
X288155000Y-130637000D01*
X288133000Y-130637000D01*
X288133000Y-130494122D01*
X288264351Y-130363000D01*
X288405000Y-130363000D01*
X288405000Y-130383000D01*
G36*
X280316371Y-126227630D02*
X280103243Y-126740900D01*
X280102758Y-127296661D01*
X280136404Y-127378090D01*
X279857247Y-127657247D01*
X279703122Y-127887912D01*
X279649000Y-128160000D01*
X279649000Y-129425494D01*
X279121934Y-129952560D01*
X279100000Y-129952560D01*
X278996329Y-129972067D01*
X278900000Y-129952560D01*
X278749500Y-129952560D01*
X278749500Y-129877839D01*
X278751441Y-129876590D01*
X278896431Y-129664390D01*
X278947440Y-129412500D01*
X278947440Y-129225092D01*
X279036199Y-129188327D01*
X279214827Y-129009698D01*
X279311500Y-128776309D01*
X279311500Y-128733750D01*
X279152750Y-128575000D01*
X278901757Y-128575000D01*
X278854234Y-128501147D01*
X278896431Y-128439390D01*
X278899345Y-128425000D01*
X279152750Y-128425000D01*
X279311500Y-128266250D01*
X279311500Y-128223691D01*
X279214827Y-127990302D01*
X279036199Y-127811673D01*
X278947440Y-127774908D01*
X278947440Y-127587500D01*
X278903162Y-127352183D01*
X278764090Y-127136059D01*
X278551890Y-126991069D01*
X278300000Y-126940060D01*
X278187239Y-126940060D01*
X278130485Y-126902138D01*
X278121868Y-126900424D01*
X277800000Y-126836400D01*
X276548500Y-126836400D01*
X276500860Y-126803849D01*
X276248970Y-126752840D01*
X275850190Y-126752840D01*
X275614873Y-126797118D01*
X275603016Y-126804748D01*
X275601700Y-126803849D01*
X275349810Y-126752840D01*
X274951030Y-126752840D01*
X274715713Y-126797118D01*
X274656843Y-126835000D01*
X274454827Y-126835000D01*
X274299720Y-126803590D01*
X273700280Y-126803590D01*
X273535583Y-126834580D01*
X273345836Y-126834580D01*
X273300860Y-126803849D01*
X273048970Y-126752840D01*
X272677000Y-126752840D01*
X272677000Y-126185000D01*
X280359075Y-126185000D01*
X280316371Y-126227630D01*
X280316371Y-126227630D01*
G37*
X280316371Y-126227630D02*
X280103243Y-126740900D01*
X280102758Y-127296661D01*
X280136404Y-127378090D01*
X279857247Y-127657247D01*
X279703122Y-127887912D01*
X279649000Y-128160000D01*
X279649000Y-129425494D01*
X279121934Y-129952560D01*
X279100000Y-129952560D01*
X278996329Y-129972067D01*
X278900000Y-129952560D01*
X278749500Y-129952560D01*
X278749500Y-129877839D01*
X278751441Y-129876590D01*
X278896431Y-129664390D01*
X278947440Y-129412500D01*
X278947440Y-129225092D01*
X279036199Y-129188327D01*
X279214827Y-129009698D01*
X279311500Y-128776309D01*
X279311500Y-128733750D01*
X279152750Y-128575000D01*
X278901757Y-128575000D01*
X278854234Y-128501147D01*
X278896431Y-128439390D01*
X278899345Y-128425000D01*
X279152750Y-128425000D01*
X279311500Y-128266250D01*
X279311500Y-128223691D01*
X279214827Y-127990302D01*
X279036199Y-127811673D01*
X278947440Y-127774908D01*
X278947440Y-127587500D01*
X278903162Y-127352183D01*
X278764090Y-127136059D01*
X278551890Y-126991069D01*
X278300000Y-126940060D01*
X278187239Y-126940060D01*
X278130485Y-126902138D01*
X278121868Y-126900424D01*
X277800000Y-126836400D01*
X276548500Y-126836400D01*
X276500860Y-126803849D01*
X276248970Y-126752840D01*
X275850190Y-126752840D01*
X275614873Y-126797118D01*
X275603016Y-126804748D01*
X275601700Y-126803849D01*
X275349810Y-126752840D01*
X274951030Y-126752840D01*
X274715713Y-126797118D01*
X274656843Y-126835000D01*
X274454827Y-126835000D01*
X274299720Y-126803590D01*
X273700280Y-126803590D01*
X273535583Y-126834580D01*
X273345836Y-126834580D01*
X273300860Y-126803849D01*
X273048970Y-126752840D01*
X272677000Y-126752840D01*
X272677000Y-126185000D01*
X280359075Y-126185000D01*
X280316371Y-126227630D01*
G36*
X286250000Y-127502440D02*
X286327560Y-127502440D01*
X286327560Y-127580000D01*
X286347067Y-127683671D01*
X286327560Y-127780000D01*
X286327560Y-127980000D01*
X286340980Y-128051323D01*
X286340000Y-128053690D01*
X286340000Y-128071250D01*
X286345826Y-128077076D01*
X286371838Y-128215317D01*
X286412481Y-128278478D01*
X286378569Y-128328110D01*
X286347572Y-128481178D01*
X286340000Y-128488750D01*
X286340000Y-128506310D01*
X286341667Y-128510335D01*
X286327560Y-128580000D01*
X286327560Y-128657560D01*
X286250000Y-128657560D01*
X286146329Y-128677067D01*
X286050000Y-128657560D01*
X285850000Y-128657560D01*
X285746329Y-128677067D01*
X285650000Y-128657560D01*
X285450000Y-128657560D01*
X285346329Y-128677067D01*
X285250000Y-128657560D01*
X285172440Y-128657560D01*
X285172440Y-128580000D01*
X285152933Y-128476329D01*
X285172440Y-128380000D01*
X285172440Y-128180000D01*
X285152933Y-128076329D01*
X285172440Y-127980000D01*
X285172440Y-127780000D01*
X285152933Y-127676329D01*
X285172440Y-127580000D01*
X285172440Y-127502440D01*
X285250000Y-127502440D01*
X285353671Y-127482933D01*
X285450000Y-127502440D01*
X285650000Y-127502440D01*
X285753671Y-127482933D01*
X285850000Y-127502440D01*
X286050000Y-127502440D01*
X286153671Y-127482933D01*
X286250000Y-127502440D01*
X286250000Y-127502440D01*
G37*
X286250000Y-127502440D02*
X286327560Y-127502440D01*
X286327560Y-127580000D01*
X286347067Y-127683671D01*
X286327560Y-127780000D01*
X286327560Y-127980000D01*
X286340980Y-128051323D01*
X286340000Y-128053690D01*
X286340000Y-128071250D01*
X286345826Y-128077076D01*
X286371838Y-128215317D01*
X286412481Y-128278478D01*
X286378569Y-128328110D01*
X286347572Y-128481178D01*
X286340000Y-128488750D01*
X286340000Y-128506310D01*
X286341667Y-128510335D01*
X286327560Y-128580000D01*
X286327560Y-128657560D01*
X286250000Y-128657560D01*
X286146329Y-128677067D01*
X286050000Y-128657560D01*
X285850000Y-128657560D01*
X285746329Y-128677067D01*
X285650000Y-128657560D01*
X285450000Y-128657560D01*
X285346329Y-128677067D01*
X285250000Y-128657560D01*
X285172440Y-128657560D01*
X285172440Y-128580000D01*
X285152933Y-128476329D01*
X285172440Y-128380000D01*
X285172440Y-128180000D01*
X285152933Y-128076329D01*
X285172440Y-127980000D01*
X285172440Y-127780000D01*
X285152933Y-127676329D01*
X285172440Y-127580000D01*
X285172440Y-127502440D01*
X285250000Y-127502440D01*
X285353671Y-127482933D01*
X285450000Y-127502440D01*
X285650000Y-127502440D01*
X285753671Y-127482933D01*
X285850000Y-127502440D01*
X286050000Y-127502440D01*
X286153671Y-127482933D01*
X286250000Y-127502440D01*
M02*
