G04 #@! TF.FileFunction,Soldermask,Top*
%FSLAX46Y46*%
G04 Gerber Fmt 4.6, Leading zero omitted, Abs format (unit mm)*
G04 Created by KiCad (PCBNEW 4.0.4-stable) date 06/27/18 00:46:24*
%MOMM*%
%LPD*%
G01*
G04 APERTURE LIST*
%ADD10C,0.150000*%
%ADD11R,1.730000X1.730000*%
%ADD12O,1.730000X1.730000*%
%ADD13R,0.428780X0.629440*%
%ADD14R,0.680000X0.430000*%
%ADD15R,0.830000X0.830000*%
%ADD16R,0.629440X0.428780*%
%ADD17O,0.630000X0.230000*%
%ADD18R,0.630000X0.230000*%
%ADD19O,0.230000X0.630000*%
%ADD20R,0.230000X0.630000*%
%ADD21R,1.355000X1.355000*%
%ADD22R,0.330000X0.680000*%
%ADD23R,1.270000X0.805000*%
%ADD24R,0.230000X0.530000*%
%ADD25R,0.230000X0.580000*%
%ADD26R,0.530000X0.230000*%
%ADD27R,0.580000X0.230000*%
%ADD28R,0.730000X0.330000*%
%ADD29R,0.630000X0.630000*%
%ADD30R,1.554000X1.554000*%
%ADD31C,1.554000*%
%ADD32R,0.665000X1.173000*%
%ADD33R,0.930000X0.830000*%
%ADD34R,0.830000X1.630000*%
%ADD35R,0.230000X0.830000*%
%ADD36R,0.830000X0.230000*%
%ADD37R,1.142500X1.142500*%
%ADD38R,0.630000X1.130000*%
%ADD39R,0.530000X0.630000*%
%ADD40R,0.780000X0.330000*%
%ADD41R,0.905000X0.755000*%
%ADD42R,0.430000X0.730000*%
%ADD43R,0.430000X0.280000*%
G04 APERTURE END LIST*
D10*
D11*
X295990000Y-144510000D03*
D12*
X295990000Y-141970000D03*
D11*
X296270000Y-126950000D03*
D12*
X296270000Y-129490000D03*
X296270000Y-132030000D03*
X296270000Y-134570000D03*
D13*
X278480420Y-142290000D03*
X279379580Y-142290000D03*
D14*
X275900000Y-143360000D03*
X275900000Y-142060000D03*
X275900000Y-142710000D03*
X274000000Y-142060000D03*
X274000000Y-143360000D03*
D15*
X289520000Y-142980000D03*
X289520000Y-141380000D03*
D13*
X288310420Y-144010000D03*
X289209580Y-144010000D03*
X286530420Y-144010000D03*
X287429580Y-144010000D03*
X285199580Y-144020000D03*
X284300420Y-144020000D03*
D16*
X282140000Y-142639580D03*
X282140000Y-141740420D03*
X287490000Y-141469580D03*
X287490000Y-140570420D03*
D15*
X282240000Y-140050000D03*
X283840000Y-140050000D03*
D16*
X281800000Y-137320420D03*
X281800000Y-138219580D03*
D13*
X279379580Y-143270000D03*
X278480420Y-143270000D03*
D16*
X277310000Y-143549580D03*
X277310000Y-142650420D03*
D13*
X272849580Y-144260000D03*
X271950420Y-144260000D03*
D17*
X288660000Y-136870000D03*
D18*
X288660000Y-136470000D03*
X288660000Y-136070000D03*
X288660000Y-135670000D03*
X288660000Y-135270000D03*
X288660000Y-134870000D03*
X288660000Y-134470000D03*
D17*
X288660000Y-134070000D03*
D19*
X288160000Y-133570000D03*
D20*
X287760000Y-133570000D03*
X287360000Y-133570000D03*
X286960000Y-133570000D03*
X286560000Y-133570000D03*
X286160000Y-133570000D03*
X285760000Y-133570000D03*
D19*
X285360000Y-133570000D03*
D17*
X284860000Y-134070000D03*
D18*
X284860000Y-134470000D03*
X284860000Y-134870000D03*
X284860000Y-135270000D03*
X284860000Y-135670000D03*
X284860000Y-136070000D03*
X284860000Y-136470000D03*
D17*
X284860000Y-136870000D03*
D19*
X285360000Y-137370000D03*
D20*
X285760000Y-137370000D03*
X286160000Y-137370000D03*
X286560000Y-137370000D03*
X286960000Y-137370000D03*
X287360000Y-137370000D03*
X287760000Y-137370000D03*
D19*
X288160000Y-137370000D03*
D21*
X286097500Y-134807500D03*
X286097500Y-136132500D03*
X287422500Y-134807500D03*
X287422500Y-136132500D03*
D16*
X289890000Y-133899580D03*
X289890000Y-133000420D03*
X289600000Y-138359580D03*
X289600000Y-137460420D03*
X283830000Y-136610420D03*
X283830000Y-137509580D03*
X282840000Y-136610420D03*
X282840000Y-137509580D03*
D13*
X286320420Y-130570000D03*
X287219580Y-130570000D03*
D16*
X290600000Y-131190420D03*
X290600000Y-132089580D03*
D13*
X286320420Y-131520000D03*
X287219580Y-131520000D03*
D22*
X269320000Y-140200000D03*
X268820000Y-140200000D03*
X268320000Y-140200000D03*
X267820000Y-140200000D03*
X267320000Y-140200000D03*
X267320000Y-143300000D03*
X267820000Y-143300000D03*
X268320000Y-143300000D03*
X268820000Y-143300000D03*
X269320000Y-143300000D03*
D23*
X267700000Y-142137500D03*
X268940000Y-142137500D03*
X267700000Y-141362500D03*
X268940000Y-141362500D03*
D13*
X267990420Y-138970000D03*
X268889580Y-138970000D03*
D16*
X291385000Y-139909580D03*
X291385000Y-139010420D03*
X274070000Y-139049580D03*
X274070000Y-138150420D03*
D24*
X284750000Y-129580000D03*
D25*
X285150000Y-129580000D03*
X285550000Y-129580000D03*
X285950000Y-129580000D03*
X286350000Y-129580000D03*
D24*
X286750000Y-129580000D03*
D26*
X287250000Y-129080000D03*
D27*
X287250000Y-128680000D03*
X287250000Y-128280000D03*
X287250000Y-127880000D03*
X287250000Y-127480000D03*
D26*
X287250000Y-127080000D03*
D24*
X286750000Y-126580000D03*
D25*
X286350000Y-126580000D03*
X285950000Y-126580000D03*
X285550000Y-126580000D03*
X285150000Y-126580000D03*
D24*
X284750000Y-126580000D03*
D26*
X284250000Y-127080000D03*
D27*
X284250000Y-127480000D03*
X284250000Y-127880000D03*
X284250000Y-128280000D03*
X284250000Y-128680000D03*
D26*
X284250000Y-129080000D03*
D13*
X285179580Y-130610000D03*
X284280420Y-130610000D03*
D16*
X283340000Y-127360420D03*
X283340000Y-128259580D03*
D13*
X288260420Y-126590000D03*
X289159580Y-126590000D03*
D16*
X288390000Y-127960420D03*
X288390000Y-128859580D03*
D28*
X278326500Y-128500000D03*
D29*
X278000000Y-129112500D03*
X278000000Y-127887500D03*
D28*
X277637500Y-128500000D03*
D16*
X275840000Y-129489580D03*
X275840000Y-128590420D03*
D13*
X273150420Y-129450000D03*
X274049580Y-129450000D03*
D30*
X281500000Y-129560000D03*
D31*
X281500000Y-127020000D03*
D15*
X280490000Y-140050000D03*
X280490000Y-138450000D03*
D13*
X285889580Y-138790000D03*
X284990420Y-138790000D03*
D16*
X289500000Y-131220420D03*
X289500000Y-132119580D03*
X271040000Y-142899580D03*
X271040000Y-142000420D03*
X272140000Y-142909580D03*
X272140000Y-142010420D03*
X292485000Y-139909580D03*
X292485000Y-139010420D03*
D13*
X290940420Y-134190000D03*
X291839580Y-134190000D03*
X291520420Y-135270000D03*
X292419580Y-135270000D03*
X290950420Y-136290000D03*
X291849580Y-136290000D03*
X291560420Y-137280000D03*
X292459580Y-137280000D03*
D15*
X279240000Y-140050000D03*
X279240000Y-138450000D03*
D30*
X292380000Y-144450000D03*
D31*
X292380000Y-141910000D03*
D32*
X272932000Y-138620000D03*
X271408000Y-138620000D03*
D33*
X270800000Y-133500000D03*
X272200000Y-133500000D03*
X270800000Y-134600000D03*
X272200000Y-134600000D03*
D16*
X275450000Y-140100420D03*
X275450000Y-140999580D03*
D13*
X273649580Y-140200000D03*
X272750420Y-140200000D03*
D16*
X269800000Y-133750420D03*
X269800000Y-134649580D03*
X273200000Y-134549580D03*
X273200000Y-133650420D03*
X276850000Y-140100420D03*
X276850000Y-140999580D03*
D34*
X270745000Y-127673000D03*
X267345000Y-127673000D03*
D13*
X272849580Y-127700000D03*
X271950420Y-127700000D03*
D16*
X274000000Y-127650420D03*
X274000000Y-128549580D03*
D13*
X276049580Y-127700000D03*
X275150420Y-127700000D03*
X271730420Y-137270000D03*
X272629580Y-137270000D03*
D32*
X273262000Y-136000000D03*
X271738000Y-136000000D03*
D11*
X296270000Y-137280000D03*
D35*
X275600000Y-137000000D03*
X276000000Y-137000000D03*
X276400000Y-137000000D03*
X276800000Y-137000000D03*
X277200000Y-137000000D03*
X277600000Y-137000000D03*
X278000000Y-137000000D03*
X278400000Y-137000000D03*
X278800000Y-137000000D03*
X279200000Y-137000000D03*
X279600000Y-137000000D03*
X280000000Y-137000000D03*
D36*
X280800000Y-136200000D03*
X280800000Y-135800000D03*
X280800000Y-135400000D03*
X280800000Y-135000000D03*
X280800000Y-134600000D03*
X280800000Y-134200000D03*
X280800000Y-133800000D03*
X280800000Y-133400000D03*
X280800000Y-133000000D03*
X280800000Y-132600000D03*
X280800000Y-132200000D03*
X280800000Y-131800000D03*
D35*
X280000000Y-131000000D03*
X279600000Y-131000000D03*
X279200000Y-131000000D03*
X278800000Y-131000000D03*
X278400000Y-131000000D03*
X278000000Y-131000000D03*
X277600000Y-131000000D03*
X277200000Y-131000000D03*
X276800000Y-131000000D03*
X276400000Y-131000000D03*
X276000000Y-131000000D03*
X275600000Y-131000000D03*
D36*
X274800000Y-131800000D03*
X274800000Y-132200000D03*
X274800000Y-132600000D03*
X274800000Y-133000000D03*
X274800000Y-133400000D03*
X274800000Y-133800000D03*
X274800000Y-134200000D03*
X274800000Y-134600000D03*
X274800000Y-135000000D03*
X274800000Y-135400000D03*
X274800000Y-135800000D03*
X274800000Y-136200000D03*
D37*
X279468750Y-132331250D03*
X278356250Y-132331250D03*
X277243750Y-132331250D03*
X276131250Y-132331250D03*
X279468750Y-133443750D03*
X278356250Y-133443750D03*
X277243750Y-133443750D03*
X276131250Y-133443750D03*
X279468750Y-134556250D03*
X278356250Y-134556250D03*
X277243750Y-134556250D03*
X276131250Y-134556250D03*
X279468750Y-135668750D03*
X278356250Y-135668750D03*
X277243750Y-135668750D03*
X276131250Y-135668750D03*
D38*
X276850000Y-138850000D03*
X275450000Y-138850000D03*
D39*
X288280000Y-131610000D03*
X288280000Y-130510000D03*
D40*
X286210000Y-142890000D03*
X286210000Y-142390000D03*
X286210000Y-141890000D03*
X286210000Y-141390000D03*
X283310000Y-141390000D03*
X283310000Y-141890000D03*
X283310000Y-142390000D03*
X283310000Y-142890000D03*
D41*
X284322500Y-141777500D03*
X284322500Y-142502500D03*
X285197500Y-141777500D03*
X285197500Y-142502500D03*
D42*
X287610000Y-142730000D03*
D43*
X288310000Y-142955000D03*
X288310000Y-142505000D03*
M02*
