G04 #@! TF.GenerationSoftware,KiCad,Pcbnew,(5.0.0)*
G04 #@! TF.CreationDate,2019-07-19T00:06:37-04:00*
G04 #@! TF.ProjectId,lp_ecg,6C705F6563672E6B696361645F706362,rev?*
G04 #@! TF.SameCoordinates,Original*
G04 #@! TF.FileFunction,Soldermask,Top*
G04 #@! TF.FilePolarity,Negative*
%FSLAX46Y46*%
G04 Gerber Fmt 4.6, Leading zero omitted, Abs format (unit mm)*
G04 Created by KiCad (PCBNEW (5.0.0)) date 07/19/19 00:06:37*
%MOMM*%
%LPD*%
G01*
G04 APERTURE LIST*
%ADD10O,1.730000X1.730000*%
%ADD11R,1.730000X1.730000*%
%ADD12R,0.428780X0.629440*%
%ADD13R,0.629440X0.428780*%
%ADD14R,0.505000X0.280000*%
%ADD15R,0.280000X0.505000*%
%ADD16C,0.330000*%
%ADD17R,0.830000X0.830000*%
%ADD18R,0.730000X0.330000*%
%ADD19R,0.630000X0.630000*%
%ADD20R,1.554000X1.554000*%
%ADD21C,1.554000*%
%ADD22R,0.665000X1.173000*%
%ADD23R,0.930000X0.830000*%
%ADD24R,0.830000X1.630000*%
%ADD25R,0.230000X0.830000*%
%ADD26R,0.830000X0.230000*%
%ADD27R,1.142500X1.142500*%
%ADD28R,0.630000X1.130000*%
%ADD29R,0.780000X0.330000*%
%ADD30R,0.905000X0.755000*%
%ADD31R,0.430000X0.730000*%
%ADD32R,0.430000X0.280000*%
%ADD33C,0.150000*%
%ADD34C,0.905000*%
%ADD35R,0.630000X0.430000*%
%ADD36R,1.030000X0.330000*%
%ADD37R,0.330000X1.030000*%
%ADD38R,3.380000X3.380000*%
%ADD39R,0.830000X0.930000*%
%ADD40R,0.730000X0.930000*%
%ADD41R,0.540000X0.630000*%
G04 APERTURE END LIST*
D10*
G04 #@! TO.C,J1*
X296450000Y-127160000D03*
D11*
X296450000Y-129700000D03*
G04 #@! TD*
D12*
G04 #@! TO.C,C15*
X292350420Y-129525000D03*
X293249580Y-129525000D03*
G04 #@! TD*
D13*
G04 #@! TO.C,C14*
X290875000Y-126925000D03*
X290875000Y-127824160D03*
G04 #@! TD*
G04 #@! TO.C,C13*
X290600000Y-131550000D03*
X290600000Y-130650840D03*
G04 #@! TD*
G04 #@! TO.C,C12*
X289575000Y-131549160D03*
X289575000Y-130650000D03*
G04 #@! TD*
D12*
G04 #@! TO.C,C11*
X288975420Y-138950000D03*
X289874580Y-138950000D03*
G04 #@! TD*
G04 #@! TO.C,C10*
X288975420Y-137974580D03*
X289874580Y-137974580D03*
G04 #@! TD*
D13*
G04 #@! TO.C,C9*
X294150000Y-129525840D03*
X294150000Y-130425000D03*
G04 #@! TD*
D12*
G04 #@! TO.C,C8*
X294000000Y-131425000D03*
X294899160Y-131425000D03*
G04 #@! TD*
G04 #@! TO.C,C7*
X295649580Y-138925000D03*
X294750420Y-138925000D03*
G04 #@! TD*
G04 #@! TO.C,C6*
X291025420Y-138950000D03*
X291924580Y-138950000D03*
G04 #@! TD*
G04 #@! TO.C,C4*
X293624580Y-138950000D03*
X292725420Y-138950000D03*
G04 #@! TD*
D14*
G04 #@! TO.C,IC1*
X284638000Y-128800000D03*
X284638000Y-129300000D03*
X284638000Y-129800000D03*
X284638000Y-130300000D03*
D15*
X285300000Y-130462000D03*
X285800000Y-130462000D03*
X286300000Y-130462000D03*
D14*
X286962000Y-130300000D03*
X286962000Y-129800000D03*
X286962000Y-129300000D03*
X286962000Y-128800000D03*
D15*
X286300000Y-128638000D03*
X285800000Y-128638000D03*
X285300000Y-128638000D03*
G04 #@! TD*
D12*
G04 #@! TO.C,C1*
X287125420Y-127600000D03*
X288024580Y-127600000D03*
G04 #@! TD*
G04 #@! TO.C,C2*
X286450420Y-131625000D03*
X287349580Y-131625000D03*
G04 #@! TD*
D16*
G04 #@! TO.C,U2*
X275620000Y-142840000D03*
X275220000Y-142840000D03*
X275220000Y-143240000D03*
X275620000Y-143240000D03*
X275620000Y-143640000D03*
X275220000Y-143640000D03*
X275220000Y-144040000D03*
X275620000Y-144040000D03*
G04 #@! TD*
D13*
G04 #@! TO.C,C5*
X277430000Y-142390000D03*
X277430000Y-143289160D03*
G04 #@! TD*
G04 #@! TO.C,C3*
X276550000Y-143000840D03*
X276550000Y-143900000D03*
G04 #@! TD*
D11*
G04 #@! TO.C,P3*
X295990000Y-144510000D03*
D10*
X295990000Y-141970000D03*
G04 #@! TD*
D12*
G04 #@! TO.C,R5*
X278420420Y-143320000D03*
X279319580Y-143320000D03*
G04 #@! TD*
D17*
G04 #@! TO.C,D4*
X289520000Y-142980000D03*
X289520000Y-141380000D03*
G04 #@! TD*
D12*
G04 #@! TO.C,C18*
X288310420Y-144010000D03*
X289209580Y-144010000D03*
G04 #@! TD*
G04 #@! TO.C,R10*
X286530420Y-144010000D03*
X287429580Y-144010000D03*
G04 #@! TD*
G04 #@! TO.C,C16*
X285199580Y-144020000D03*
X284300420Y-144020000D03*
G04 #@! TD*
D13*
G04 #@! TO.C,R9*
X282140000Y-142639580D03*
X282140000Y-141740420D03*
G04 #@! TD*
G04 #@! TO.C,C17*
X287490000Y-141469580D03*
X287490000Y-140570420D03*
G04 #@! TD*
D17*
G04 #@! TO.C,D3*
X282725000Y-139975000D03*
X284325000Y-139975000D03*
G04 #@! TD*
D13*
G04 #@! TO.C,C22*
X282050000Y-137525420D03*
X282050000Y-138424580D03*
G04 #@! TD*
D12*
G04 #@! TO.C,R7*
X278420840Y-142360000D03*
X279320000Y-142360000D03*
G04 #@! TD*
D13*
G04 #@! TO.C,C21*
X274070000Y-139049580D03*
X274070000Y-138150420D03*
G04 #@! TD*
D18*
G04 #@! TO.C,F1*
X278326500Y-128500000D03*
D19*
X278000000Y-129112500D03*
X278000000Y-127887500D03*
D18*
X277637500Y-128500000D03*
G04 #@! TD*
D13*
G04 #@! TO.C,C34*
X275840000Y-129489580D03*
X275840000Y-128590420D03*
G04 #@! TD*
D12*
G04 #@! TO.C,C33*
X273150420Y-129450000D03*
X274049580Y-129450000D03*
G04 #@! TD*
D20*
G04 #@! TO.C,P2*
X281500000Y-129560000D03*
D21*
X281500000Y-127020000D03*
G04 #@! TD*
D17*
G04 #@! TO.C,D2*
X280490000Y-140050000D03*
X280490000Y-138450000D03*
G04 #@! TD*
G04 #@! TO.C,D1*
X279240000Y-140050000D03*
X279240000Y-138450000D03*
G04 #@! TD*
D20*
G04 #@! TO.C,P1*
X292380000Y-144450000D03*
D21*
X292380000Y-141910000D03*
G04 #@! TD*
D22*
G04 #@! TO.C,L4*
X272932000Y-138620000D03*
X271408000Y-138620000D03*
G04 #@! TD*
D23*
G04 #@! TO.C,X1*
X270800000Y-133500000D03*
X272200000Y-133500000D03*
X270800000Y-134600000D03*
X272200000Y-134600000D03*
G04 #@! TD*
D13*
G04 #@! TO.C,C28*
X275450000Y-140100420D03*
X275450000Y-140999580D03*
G04 #@! TD*
D12*
G04 #@! TO.C,C26*
X273649580Y-140200000D03*
X272750420Y-140200000D03*
G04 #@! TD*
D13*
G04 #@! TO.C,C24*
X269800000Y-133750420D03*
X269800000Y-134649580D03*
G04 #@! TD*
G04 #@! TO.C,C25*
X273200000Y-134549580D03*
X273200000Y-133650420D03*
G04 #@! TD*
G04 #@! TO.C,C29*
X276850000Y-140100420D03*
X276850000Y-140999580D03*
G04 #@! TD*
D24*
G04 #@! TO.C,A1*
X270745000Y-127673000D03*
X267345000Y-127673000D03*
G04 #@! TD*
D12*
G04 #@! TO.C,L6*
X272849580Y-127700000D03*
X271950420Y-127700000D03*
G04 #@! TD*
D13*
G04 #@! TO.C,L5*
X274000000Y-127650420D03*
X274000000Y-128549580D03*
G04 #@! TD*
D12*
G04 #@! TO.C,C30*
X276049580Y-127700000D03*
X275150420Y-127700000D03*
G04 #@! TD*
G04 #@! TO.C,L3*
X271730420Y-137270000D03*
X272629580Y-137270000D03*
G04 #@! TD*
D22*
G04 #@! TO.C,C23*
X273262000Y-136000000D03*
X271738000Y-136000000D03*
G04 #@! TD*
D25*
G04 #@! TO.C,U3*
X275600000Y-137000000D03*
X276000000Y-137000000D03*
X276400000Y-137000000D03*
X276800000Y-137000000D03*
X277200000Y-137000000D03*
X277600000Y-137000000D03*
X278000000Y-137000000D03*
X278400000Y-137000000D03*
X278800000Y-137000000D03*
X279200000Y-137000000D03*
X279600000Y-137000000D03*
X280000000Y-137000000D03*
D26*
X280800000Y-136200000D03*
X280800000Y-135800000D03*
X280800000Y-135400000D03*
X280800000Y-135000000D03*
X280800000Y-134600000D03*
X280800000Y-134200000D03*
X280800000Y-133800000D03*
X280800000Y-133400000D03*
X280800000Y-133000000D03*
X280800000Y-132600000D03*
X280800000Y-132200000D03*
X280800000Y-131800000D03*
D25*
X280000000Y-131000000D03*
X279600000Y-131000000D03*
X279200000Y-131000000D03*
X278800000Y-131000000D03*
X278400000Y-131000000D03*
X278000000Y-131000000D03*
X277600000Y-131000000D03*
X277200000Y-131000000D03*
X276800000Y-131000000D03*
X276400000Y-131000000D03*
X276000000Y-131000000D03*
X275600000Y-131000000D03*
D26*
X274800000Y-131800000D03*
X274800000Y-132200000D03*
X274800000Y-132600000D03*
X274800000Y-133000000D03*
X274800000Y-133400000D03*
X274800000Y-133800000D03*
X274800000Y-134200000D03*
X274800000Y-134600000D03*
X274800000Y-135000000D03*
X274800000Y-135400000D03*
X274800000Y-135800000D03*
X274800000Y-136200000D03*
D27*
X279468750Y-132331250D03*
X278356250Y-132331250D03*
X277243750Y-132331250D03*
X276131250Y-132331250D03*
X279468750Y-133443750D03*
X278356250Y-133443750D03*
X277243750Y-133443750D03*
X276131250Y-133443750D03*
X279468750Y-134556250D03*
X278356250Y-134556250D03*
X277243750Y-134556250D03*
X276131250Y-134556250D03*
X279468750Y-135668750D03*
X278356250Y-135668750D03*
X277243750Y-135668750D03*
X276131250Y-135668750D03*
G04 #@! TD*
D28*
G04 #@! TO.C,X2*
X276850000Y-138850000D03*
X275450000Y-138850000D03*
G04 #@! TD*
D29*
G04 #@! TO.C,U6*
X286210000Y-142890000D03*
X286210000Y-142390000D03*
X286210000Y-141890000D03*
X286210000Y-141390000D03*
X283310000Y-141390000D03*
X283310000Y-141890000D03*
X283310000Y-142390000D03*
X283310000Y-142890000D03*
D30*
X284322500Y-141777500D03*
X284322500Y-142502500D03*
X285197500Y-141777500D03*
X285197500Y-142502500D03*
G04 #@! TD*
D31*
G04 #@! TO.C,Q1*
X287610000Y-142730000D03*
D32*
X288310000Y-142955000D03*
X288310000Y-142505000D03*
G04 #@! TD*
D33*
G04 #@! TO.C,L2*
G36*
X274035926Y-143946089D02*
X274057889Y-143949347D01*
X274079427Y-143954742D01*
X274100332Y-143962222D01*
X274120404Y-143971715D01*
X274139448Y-143983130D01*
X274157281Y-143996356D01*
X274173733Y-144011267D01*
X274188644Y-144027719D01*
X274201870Y-144045552D01*
X274213285Y-144064596D01*
X274222778Y-144084668D01*
X274230258Y-144105573D01*
X274235653Y-144127111D01*
X274238911Y-144149074D01*
X274240000Y-144171250D01*
X274240000Y-144623750D01*
X274238911Y-144645926D01*
X274235653Y-144667889D01*
X274230258Y-144689427D01*
X274222778Y-144710332D01*
X274213285Y-144730404D01*
X274201870Y-144749448D01*
X274188644Y-144767281D01*
X274173733Y-144783733D01*
X274157281Y-144798644D01*
X274139448Y-144811870D01*
X274120404Y-144823285D01*
X274100332Y-144832778D01*
X274079427Y-144840258D01*
X274057889Y-144845653D01*
X274035926Y-144848911D01*
X274013750Y-144850000D01*
X273486250Y-144850000D01*
X273464074Y-144848911D01*
X273442111Y-144845653D01*
X273420573Y-144840258D01*
X273399668Y-144832778D01*
X273379596Y-144823285D01*
X273360552Y-144811870D01*
X273342719Y-144798644D01*
X273326267Y-144783733D01*
X273311356Y-144767281D01*
X273298130Y-144749448D01*
X273286715Y-144730404D01*
X273277222Y-144710332D01*
X273269742Y-144689427D01*
X273264347Y-144667889D01*
X273261089Y-144645926D01*
X273260000Y-144623750D01*
X273260000Y-144171250D01*
X273261089Y-144149074D01*
X273264347Y-144127111D01*
X273269742Y-144105573D01*
X273277222Y-144084668D01*
X273286715Y-144064596D01*
X273298130Y-144045552D01*
X273311356Y-144027719D01*
X273326267Y-144011267D01*
X273342719Y-143996356D01*
X273360552Y-143983130D01*
X273379596Y-143971715D01*
X273399668Y-143962222D01*
X273420573Y-143954742D01*
X273442111Y-143949347D01*
X273464074Y-143946089D01*
X273486250Y-143945000D01*
X274013750Y-143945000D01*
X274035926Y-143946089D01*
X274035926Y-143946089D01*
G37*
D34*
X273750000Y-144397500D03*
D33*
G36*
X274035926Y-142371089D02*
X274057889Y-142374347D01*
X274079427Y-142379742D01*
X274100332Y-142387222D01*
X274120404Y-142396715D01*
X274139448Y-142408130D01*
X274157281Y-142421356D01*
X274173733Y-142436267D01*
X274188644Y-142452719D01*
X274201870Y-142470552D01*
X274213285Y-142489596D01*
X274222778Y-142509668D01*
X274230258Y-142530573D01*
X274235653Y-142552111D01*
X274238911Y-142574074D01*
X274240000Y-142596250D01*
X274240000Y-143048750D01*
X274238911Y-143070926D01*
X274235653Y-143092889D01*
X274230258Y-143114427D01*
X274222778Y-143135332D01*
X274213285Y-143155404D01*
X274201870Y-143174448D01*
X274188644Y-143192281D01*
X274173733Y-143208733D01*
X274157281Y-143223644D01*
X274139448Y-143236870D01*
X274120404Y-143248285D01*
X274100332Y-143257778D01*
X274079427Y-143265258D01*
X274057889Y-143270653D01*
X274035926Y-143273911D01*
X274013750Y-143275000D01*
X273486250Y-143275000D01*
X273464074Y-143273911D01*
X273442111Y-143270653D01*
X273420573Y-143265258D01*
X273399668Y-143257778D01*
X273379596Y-143248285D01*
X273360552Y-143236870D01*
X273342719Y-143223644D01*
X273326267Y-143208733D01*
X273311356Y-143192281D01*
X273298130Y-143174448D01*
X273286715Y-143155404D01*
X273277222Y-143135332D01*
X273269742Y-143114427D01*
X273264347Y-143092889D01*
X273261089Y-143070926D01*
X273260000Y-143048750D01*
X273260000Y-142596250D01*
X273261089Y-142574074D01*
X273264347Y-142552111D01*
X273269742Y-142530573D01*
X273277222Y-142509668D01*
X273286715Y-142489596D01*
X273298130Y-142470552D01*
X273311356Y-142452719D01*
X273326267Y-142436267D01*
X273342719Y-142421356D01*
X273360552Y-142408130D01*
X273379596Y-142396715D01*
X273399668Y-142387222D01*
X273420573Y-142379742D01*
X273442111Y-142374347D01*
X273464074Y-142371089D01*
X273486250Y-142370000D01*
X274013750Y-142370000D01*
X274035926Y-142371089D01*
X274035926Y-142371089D01*
G37*
D34*
X273750000Y-142822500D03*
G04 #@! TD*
D35*
G04 #@! TO.C,R1*
X286025000Y-126750000D03*
X286025000Y-127650000D03*
G04 #@! TD*
G04 #@! TO.C,R2*
X284750000Y-127650000D03*
X284750000Y-126750000D03*
G04 #@! TD*
D36*
G04 #@! TO.C,IC2*
X295725000Y-136500000D03*
X295725000Y-136000000D03*
X295725000Y-135500000D03*
X295725000Y-135000000D03*
X295725000Y-134500000D03*
X295725000Y-134000000D03*
X295725000Y-133500000D03*
D37*
X294875000Y-132650000D03*
X294375000Y-132650000D03*
X293875000Y-132650000D03*
X293375000Y-132650000D03*
X292875000Y-132650000D03*
X292375000Y-132650000D03*
X291875000Y-132650000D03*
D36*
X291025000Y-133500000D03*
X291025000Y-134000000D03*
X291025000Y-134500000D03*
X291025000Y-135000000D03*
X291025000Y-135500000D03*
X291025000Y-136000000D03*
X291025000Y-136500000D03*
D37*
X291875000Y-137350000D03*
X292375000Y-137350000D03*
X292875000Y-137350000D03*
X293375000Y-137350000D03*
X293875000Y-137350000D03*
X294375000Y-137350000D03*
X294875000Y-137350000D03*
D38*
X293375000Y-135000000D03*
G04 #@! TD*
D39*
G04 #@! TO.C,X3*
X293300000Y-126825000D03*
X293300000Y-128225000D03*
X292200000Y-128225000D03*
X292200000Y-126825000D03*
G04 #@! TD*
D40*
G04 #@! TO.C,SW1*
X267175000Y-145100000D03*
X267175000Y-139100000D03*
D41*
X268530000Y-141100000D03*
X268530000Y-143100000D03*
X268530000Y-142100000D03*
G04 #@! TD*
M02*
