G04 #@! TF.GenerationSoftware,KiCad,Pcbnew,(5.0.0)*
G04 #@! TF.CreationDate,2019-07-19T00:06:37-04:00*
G04 #@! TF.ProjectId,lp_ecg,6C705F6563672E6B696361645F706362,rev?*
G04 #@! TF.SameCoordinates,Original*
G04 #@! TF.FileFunction,Legend,Top*
G04 #@! TF.FilePolarity,Positive*
%FSLAX46Y46*%
G04 Gerber Fmt 4.6, Leading zero omitted, Abs format (unit mm)*
G04 Created by KiCad (PCBNEW (5.0.0)) date 07/19/19 00:06:37*
%MOMM*%
%LPD*%
G01*
G04 APERTURE LIST*
%ADD10C,0.100000*%
%ADD11C,0.070000*%
%ADD12C,0.200000*%
%ADD13C,0.150000*%
%ADD14C,0.125000*%
%ADD15C,0.500000*%
%ADD16C,0.120000*%
%ADD17C,0.071120*%
%ADD18C,0.152400*%
%ADD19C,0.127000*%
%ADD20C,0.254000*%
%ADD21C,0.090000*%
%ADD22C,0.114300*%
%ADD23C,0.092000*%
%ADD24C,0.095000*%
%ADD25C,0.080000*%
G04 APERTURE END LIST*
D10*
X294664285Y-128091666D02*
X294664285Y-127925000D01*
X294926190Y-127853571D02*
X294926190Y-128091666D01*
X294426190Y-128091666D01*
X294426190Y-127853571D01*
X294878571Y-127353571D02*
X294902380Y-127377380D01*
X294926190Y-127448809D01*
X294926190Y-127496428D01*
X294902380Y-127567857D01*
X294854761Y-127615476D01*
X294807142Y-127639285D01*
X294711904Y-127663095D01*
X294640476Y-127663095D01*
X294545238Y-127639285D01*
X294497619Y-127615476D01*
X294450000Y-127567857D01*
X294426190Y-127496428D01*
X294426190Y-127448809D01*
X294450000Y-127377380D01*
X294473809Y-127353571D01*
X294450000Y-126877380D02*
X294426190Y-126925000D01*
X294426190Y-126996428D01*
X294450000Y-127067857D01*
X294497619Y-127115476D01*
X294545238Y-127139285D01*
X294640476Y-127163095D01*
X294711904Y-127163095D01*
X294807142Y-127139285D01*
X294854761Y-127115476D01*
X294902380Y-127067857D01*
X294926190Y-126996428D01*
X294926190Y-126948809D01*
X294902380Y-126877380D01*
X294878571Y-126853571D01*
X294711904Y-126853571D01*
X294711904Y-126948809D01*
X294735714Y-126639285D02*
X294735714Y-126258333D01*
X294939285Y-130516666D02*
X294939285Y-130350000D01*
X295201190Y-130278571D02*
X295201190Y-130516666D01*
X294701190Y-130516666D01*
X294701190Y-130278571D01*
X295153571Y-129778571D02*
X295177380Y-129802380D01*
X295201190Y-129873809D01*
X295201190Y-129921428D01*
X295177380Y-129992857D01*
X295129761Y-130040476D01*
X295082142Y-130064285D01*
X294986904Y-130088095D01*
X294915476Y-130088095D01*
X294820238Y-130064285D01*
X294772619Y-130040476D01*
X294725000Y-129992857D01*
X294701190Y-129921428D01*
X294701190Y-129873809D01*
X294725000Y-129802380D01*
X294748809Y-129778571D01*
X294725000Y-129302380D02*
X294701190Y-129350000D01*
X294701190Y-129421428D01*
X294725000Y-129492857D01*
X294772619Y-129540476D01*
X294820238Y-129564285D01*
X294915476Y-129588095D01*
X294986904Y-129588095D01*
X295082142Y-129564285D01*
X295129761Y-129540476D01*
X295177380Y-129492857D01*
X295201190Y-129421428D01*
X295201190Y-129373809D01*
X295177380Y-129302380D01*
X295153571Y-129278571D01*
X294986904Y-129278571D01*
X294986904Y-129373809D01*
X295010714Y-129064285D02*
X295010714Y-128683333D01*
X295201190Y-128873809D02*
X294820238Y-128873809D01*
X293875000Y-142491428D02*
X293839285Y-142562857D01*
X293839285Y-142670000D01*
X293875000Y-142777142D01*
X293946428Y-142848571D01*
X294017857Y-142884285D01*
X294160714Y-142920000D01*
X294267857Y-142920000D01*
X294410714Y-142884285D01*
X294482142Y-142848571D01*
X294553571Y-142777142D01*
X294589285Y-142670000D01*
X294589285Y-142598571D01*
X294553571Y-142491428D01*
X294517857Y-142455714D01*
X294267857Y-142455714D01*
X294267857Y-142598571D01*
X294589285Y-142134285D02*
X293839285Y-142134285D01*
X294589285Y-141705714D01*
X293839285Y-141705714D01*
X294589285Y-141348571D02*
X293839285Y-141348571D01*
X293839285Y-141170000D01*
X293875000Y-141062857D01*
X293946428Y-140991428D01*
X294017857Y-140955714D01*
X294160714Y-140920000D01*
X294267857Y-140920000D01*
X294410714Y-140955714D01*
X294482142Y-140991428D01*
X294553571Y-141062857D01*
X294589285Y-141170000D01*
X294589285Y-141348571D01*
D11*
X290637142Y-145482857D02*
X290665714Y-145397142D01*
X290694285Y-145368571D01*
X290751428Y-145340000D01*
X290837142Y-145340000D01*
X290894285Y-145368571D01*
X290922857Y-145397142D01*
X290951428Y-145454285D01*
X290951428Y-145682857D01*
X290351428Y-145682857D01*
X290351428Y-145482857D01*
X290380000Y-145425714D01*
X290408571Y-145397142D01*
X290465714Y-145368571D01*
X290522857Y-145368571D01*
X290580000Y-145397142D01*
X290608571Y-145425714D01*
X290637142Y-145482857D01*
X290637142Y-145682857D01*
X290780000Y-145111428D02*
X290780000Y-144825714D01*
X290951428Y-145168571D02*
X290351428Y-144968571D01*
X290951428Y-144768571D01*
X290351428Y-144654285D02*
X290351428Y-144311428D01*
X290951428Y-144482857D02*
X290351428Y-144482857D01*
X290351428Y-144197142D02*
X290351428Y-143854285D01*
X290951428Y-144025714D02*
X290351428Y-144025714D01*
X290722857Y-143654285D02*
X290722857Y-143197142D01*
X290951428Y-143425714D02*
X290494285Y-143425714D01*
D10*
X294029285Y-144712857D02*
X294029285Y-145070000D01*
X294386428Y-145105714D01*
X294350714Y-145070000D01*
X294315000Y-144998571D01*
X294315000Y-144820000D01*
X294350714Y-144748571D01*
X294386428Y-144712857D01*
X294457857Y-144677142D01*
X294636428Y-144677142D01*
X294707857Y-144712857D01*
X294743571Y-144748571D01*
X294779285Y-144820000D01*
X294779285Y-144998571D01*
X294743571Y-145070000D01*
X294707857Y-145105714D01*
X294029285Y-144462857D02*
X294779285Y-144212857D01*
X294029285Y-143962857D01*
X290205000Y-142221428D02*
X290169285Y-142292857D01*
X290169285Y-142400000D01*
X290205000Y-142507142D01*
X290276428Y-142578571D01*
X290347857Y-142614285D01*
X290490714Y-142650000D01*
X290597857Y-142650000D01*
X290740714Y-142614285D01*
X290812142Y-142578571D01*
X290883571Y-142507142D01*
X290919285Y-142400000D01*
X290919285Y-142328571D01*
X290883571Y-142221428D01*
X290847857Y-142185714D01*
X290597857Y-142185714D01*
X290597857Y-142328571D01*
X290919285Y-141864285D02*
X290169285Y-141864285D01*
X290919285Y-141435714D01*
X290169285Y-141435714D01*
X290919285Y-141078571D02*
X290169285Y-141078571D01*
X290169285Y-140900000D01*
X290205000Y-140792857D01*
X290276428Y-140721428D01*
X290347857Y-140685714D01*
X290490714Y-140650000D01*
X290597857Y-140650000D01*
X290740714Y-140685714D01*
X290812142Y-140721428D01*
X290883571Y-140792857D01*
X290919285Y-140900000D01*
X290919285Y-141078571D01*
D12*
X277550000Y-129140000D02*
X278460000Y-129140000D01*
X277980000Y-128770000D02*
X277980000Y-128700000D01*
X278000000Y-130530000D02*
X278000000Y-129530000D01*
D10*
X279976666Y-127633333D02*
X279276666Y-127633333D01*
X279243333Y-126800000D02*
X280143333Y-127400000D01*
X279276666Y-126433333D02*
X279276666Y-126300000D01*
X279310000Y-126233333D01*
X279376666Y-126166666D01*
X279510000Y-126133333D01*
X279743333Y-126133333D01*
X279876666Y-126166666D01*
X279943333Y-126233333D01*
X279976666Y-126300000D01*
X279976666Y-126433333D01*
X279943333Y-126500000D01*
X279876666Y-126566666D01*
X279743333Y-126600000D01*
X279510000Y-126600000D01*
X279376666Y-126566666D01*
X279310000Y-126500000D01*
X279276666Y-126433333D01*
D12*
X265900000Y-132000000D02*
X265900000Y-125500000D01*
X272400000Y-132000000D02*
X265900000Y-132000000D01*
X272400000Y-125500000D02*
X272400000Y-132000000D01*
X265900000Y-125500000D02*
X272400000Y-125500000D01*
X284232500Y-149712500D02*
X284332500Y-149612500D01*
X284232500Y-149812500D02*
X284332500Y-149812500D01*
D13*
X285032500Y-149712500D02*
X283332500Y-149712500D01*
X283932500Y-150112500D02*
X283932500Y-149312500D01*
D12*
X284432500Y-149312500D02*
X284032500Y-149712500D01*
X284432500Y-150112500D02*
X284032500Y-149712500D01*
X284432500Y-149312500D02*
X284432500Y-150112500D01*
D14*
X282254285Y-131504761D02*
X281587619Y-131504761D01*
X282159047Y-131504761D02*
X282206666Y-131552380D01*
X282254285Y-131647619D01*
X282254285Y-131790476D01*
X282206666Y-131885714D01*
X282111428Y-131933333D01*
X281587619Y-131933333D01*
X281587619Y-132980952D02*
X282063809Y-132647619D01*
X281587619Y-132409523D02*
X282587619Y-132409523D01*
X282587619Y-132790476D01*
X282540000Y-132885714D01*
X282492380Y-132933333D01*
X282397142Y-132980952D01*
X282254285Y-132980952D01*
X282159047Y-132933333D01*
X282111428Y-132885714D01*
X282063809Y-132790476D01*
X282063809Y-132409523D01*
X282111428Y-133742857D02*
X282111428Y-133409523D01*
X281587619Y-133409523D02*
X282587619Y-133409523D01*
X282587619Y-133885714D01*
X282587619Y-134742857D02*
X282587619Y-134266666D01*
X282111428Y-134219047D01*
X282159047Y-134266666D01*
X282206666Y-134361904D01*
X282206666Y-134600000D01*
X282159047Y-134695238D01*
X282111428Y-134742857D01*
X282016190Y-134790476D01*
X281778095Y-134790476D01*
X281682857Y-134742857D01*
X281635238Y-134695238D01*
X281587619Y-134600000D01*
X281587619Y-134361904D01*
X281635238Y-134266666D01*
X281682857Y-134219047D01*
X282492380Y-135171428D02*
X282540000Y-135219047D01*
X282587619Y-135314285D01*
X282587619Y-135552380D01*
X282540000Y-135647619D01*
X282492380Y-135695238D01*
X282397142Y-135742857D01*
X282301904Y-135742857D01*
X282159047Y-135695238D01*
X281587619Y-135123809D01*
X281587619Y-135742857D01*
D12*
X270243607Y-139655000D02*
G75*
G03X270243607Y-139655000I-223607J0D01*
G01*
X275033113Y-137010000D02*
G75*
G03X275033113Y-137010000I-403113J0D01*
G01*
D10*
X280000000Y-129816666D02*
X280033333Y-129850000D01*
X280066666Y-129950000D01*
X280066666Y-130016666D01*
X280033333Y-130116666D01*
X279966666Y-130183333D01*
X279900000Y-130216666D01*
X279766666Y-130250000D01*
X279666666Y-130250000D01*
X279533333Y-130216666D01*
X279466666Y-130183333D01*
X279400000Y-130116666D01*
X279366666Y-130016666D01*
X279366666Y-129950000D01*
X279400000Y-129850000D01*
X279433333Y-129816666D01*
X280066666Y-129183333D02*
X280066666Y-129516666D01*
X279366666Y-129516666D01*
X280066666Y-128950000D02*
X279366666Y-128950000D01*
X280066666Y-128550000D02*
X279666666Y-128850000D01*
X279366666Y-128550000D02*
X279766666Y-128950000D01*
D15*
X269900000Y-127673000D02*
X269320000Y-127673000D01*
D16*
G04 #@! TO.C,J1*
X297780000Y-131030000D02*
X296450000Y-131030000D01*
X297780000Y-129700000D02*
X297780000Y-131030000D01*
X297780000Y-128430000D02*
X295120000Y-128430000D01*
X295120000Y-128430000D02*
X295120000Y-125830000D01*
X297780000Y-128430000D02*
X297780000Y-125830000D01*
X297780000Y-125830000D02*
X295120000Y-125830000D01*
D17*
G04 #@! TO.C,C15*
X292038000Y-129144000D02*
X292546000Y-129144000D01*
X292038000Y-129906000D02*
X292038000Y-129144000D01*
X292546000Y-129906000D02*
X292038000Y-129906000D01*
X293562000Y-129144000D02*
X293054000Y-129144000D01*
X293562000Y-129906000D02*
X293562000Y-129144000D01*
X293054000Y-129906000D02*
X293562000Y-129906000D01*
G04 #@! TO.C,C14*
X291256000Y-127120580D02*
X291256000Y-126612580D01*
X291256000Y-126612580D02*
X290494000Y-126612580D01*
X290494000Y-126612580D02*
X290494000Y-127120580D01*
X291256000Y-127628580D02*
X291256000Y-128136580D01*
X291256000Y-128136580D02*
X290494000Y-128136580D01*
X290494000Y-128136580D02*
X290494000Y-127628580D01*
G04 #@! TO.C,C13*
X290219000Y-131862420D02*
X290219000Y-131354420D01*
X290981000Y-131862420D02*
X290219000Y-131862420D01*
X290981000Y-131354420D02*
X290981000Y-131862420D01*
X290219000Y-130338420D02*
X290219000Y-130846420D01*
X290981000Y-130338420D02*
X290219000Y-130338420D01*
X290981000Y-130846420D02*
X290981000Y-130338420D01*
G04 #@! TO.C,C12*
X289194000Y-131353580D02*
X289194000Y-131861580D01*
X289194000Y-131861580D02*
X289956000Y-131861580D01*
X289956000Y-131861580D02*
X289956000Y-131353580D01*
X289194000Y-130845580D02*
X289194000Y-130337580D01*
X289194000Y-130337580D02*
X289956000Y-130337580D01*
X289956000Y-130337580D02*
X289956000Y-130845580D01*
G04 #@! TO.C,C11*
X288663000Y-138569000D02*
X289171000Y-138569000D01*
X288663000Y-139331000D02*
X288663000Y-138569000D01*
X289171000Y-139331000D02*
X288663000Y-139331000D01*
X290187000Y-138569000D02*
X289679000Y-138569000D01*
X290187000Y-139331000D02*
X290187000Y-138569000D01*
X289679000Y-139331000D02*
X290187000Y-139331000D01*
G04 #@! TO.C,C10*
X289171000Y-137593580D02*
X288663000Y-137593580D01*
X288663000Y-137593580D02*
X288663000Y-138355580D01*
X288663000Y-138355580D02*
X289171000Y-138355580D01*
X289679000Y-137593580D02*
X290187000Y-137593580D01*
X290187000Y-137593580D02*
X290187000Y-138355580D01*
X290187000Y-138355580D02*
X289679000Y-138355580D01*
G04 #@! TO.C,C9*
X294531000Y-129213420D02*
X294531000Y-129721420D01*
X293769000Y-129213420D02*
X294531000Y-129213420D01*
X293769000Y-129721420D02*
X293769000Y-129213420D01*
X294531000Y-130737420D02*
X294531000Y-130229420D01*
X293769000Y-130737420D02*
X294531000Y-130737420D01*
X293769000Y-130229420D02*
X293769000Y-130737420D01*
G04 #@! TO.C,C8*
X294195580Y-131044000D02*
X293687580Y-131044000D01*
X293687580Y-131044000D02*
X293687580Y-131806000D01*
X293687580Y-131806000D02*
X294195580Y-131806000D01*
X294703580Y-131044000D02*
X295211580Y-131044000D01*
X295211580Y-131044000D02*
X295211580Y-131806000D01*
X295211580Y-131806000D02*
X294703580Y-131806000D01*
G04 #@! TO.C,C7*
X295962000Y-139306000D02*
X295454000Y-139306000D01*
X295962000Y-138544000D02*
X295962000Y-139306000D01*
X295454000Y-138544000D02*
X295962000Y-138544000D01*
X294438000Y-139306000D02*
X294946000Y-139306000D01*
X294438000Y-138544000D02*
X294438000Y-139306000D01*
X294946000Y-138544000D02*
X294438000Y-138544000D01*
G04 #@! TO.C,C6*
X291221000Y-138569000D02*
X290713000Y-138569000D01*
X290713000Y-138569000D02*
X290713000Y-139331000D01*
X290713000Y-139331000D02*
X291221000Y-139331000D01*
X291729000Y-138569000D02*
X292237000Y-138569000D01*
X292237000Y-138569000D02*
X292237000Y-139331000D01*
X292237000Y-139331000D02*
X291729000Y-139331000D01*
G04 #@! TO.C,C4*
X293937000Y-139331000D02*
X293429000Y-139331000D01*
X293937000Y-138569000D02*
X293937000Y-139331000D01*
X293429000Y-138569000D02*
X293937000Y-138569000D01*
X292413000Y-139331000D02*
X292921000Y-139331000D01*
X292413000Y-138569000D02*
X292413000Y-139331000D01*
X292921000Y-138569000D02*
X292413000Y-138569000D01*
D10*
G04 #@! TO.C,IC1*
X284000000Y-128800000D02*
X284000000Y-128800000D01*
X283900000Y-128800000D02*
X283900000Y-128800000D01*
X284300000Y-130650000D02*
X284300000Y-130800000D01*
X284300000Y-130800000D02*
X284400000Y-130800000D01*
X287300000Y-130650000D02*
X287300000Y-130800000D01*
X287300000Y-130800000D02*
X287200000Y-130800000D01*
X284300000Y-128450000D02*
X284300000Y-128300000D01*
X284300000Y-128300000D02*
X284400000Y-128300000D01*
X287300000Y-128450000D02*
X287300000Y-128300000D01*
X287300000Y-128300000D02*
X287200000Y-128300000D01*
X283900000Y-128800000D02*
G75*
G02X284000000Y-128800000I50000J0D01*
G01*
X284000000Y-128800000D02*
G75*
G02X283900000Y-128800000I-50000J0D01*
G01*
D17*
G04 #@! TO.C,C1*
X287321000Y-127219000D02*
X286813000Y-127219000D01*
X286813000Y-127219000D02*
X286813000Y-127981000D01*
X286813000Y-127981000D02*
X287321000Y-127981000D01*
X287829000Y-127219000D02*
X288337000Y-127219000D01*
X288337000Y-127219000D02*
X288337000Y-127981000D01*
X288337000Y-127981000D02*
X287829000Y-127981000D01*
G04 #@! TO.C,C2*
X286138000Y-131244000D02*
X286646000Y-131244000D01*
X286138000Y-132006000D02*
X286138000Y-131244000D01*
X286646000Y-132006000D02*
X286138000Y-132006000D01*
X287662000Y-131244000D02*
X287154000Y-131244000D01*
X287662000Y-132006000D02*
X287662000Y-131244000D01*
X287154000Y-132006000D02*
X287662000Y-132006000D01*
D16*
G04 #@! TO.C,U2*
X274670000Y-142190000D02*
X274670000Y-142940000D01*
X274670000Y-142190000D02*
X274670000Y-142190000D01*
X275420000Y-142190000D02*
X274670000Y-142190000D01*
X274870000Y-144490000D02*
X275970000Y-144490000D01*
X275970000Y-142390000D02*
X275970000Y-144490000D01*
X275970000Y-142390000D02*
X274870000Y-142390000D01*
X274870000Y-142390000D02*
X274870000Y-144490000D01*
D17*
G04 #@! TO.C,C5*
X277811000Y-142585580D02*
X277811000Y-142077580D01*
X277811000Y-142077580D02*
X277049000Y-142077580D01*
X277049000Y-142077580D02*
X277049000Y-142585580D01*
X277811000Y-143093580D02*
X277811000Y-143601580D01*
X277811000Y-143601580D02*
X277049000Y-143601580D01*
X277049000Y-143601580D02*
X277049000Y-143093580D01*
G04 #@! TO.C,C3*
X276931000Y-142688420D02*
X276931000Y-143196420D01*
X276169000Y-142688420D02*
X276931000Y-142688420D01*
X276169000Y-143196420D02*
X276169000Y-142688420D01*
X276931000Y-144212420D02*
X276931000Y-143704420D01*
X276169000Y-144212420D02*
X276931000Y-144212420D01*
X276169000Y-143704420D02*
X276169000Y-144212420D01*
D16*
G04 #@! TO.C,P3*
X297320000Y-140640000D02*
X294660000Y-140640000D01*
X297320000Y-143240000D02*
X297320000Y-140640000D01*
X294660000Y-143240000D02*
X294660000Y-140640000D01*
X297320000Y-143240000D02*
X294660000Y-143240000D01*
X297320000Y-144510000D02*
X297320000Y-145840000D01*
X297320000Y-145840000D02*
X295990000Y-145840000D01*
D17*
G04 #@! TO.C,R5*
X278616000Y-142939000D02*
X278108000Y-142939000D01*
X278108000Y-142939000D02*
X278108000Y-143701000D01*
X278108000Y-143701000D02*
X278616000Y-143701000D01*
X279124000Y-142939000D02*
X279632000Y-142939000D01*
X279632000Y-142939000D02*
X279632000Y-143701000D01*
X279632000Y-143701000D02*
X279124000Y-143701000D01*
D16*
G04 #@! TO.C,D4*
X290020000Y-140880000D02*
X289020000Y-140880000D01*
X289020000Y-140880000D02*
X289020000Y-142980000D01*
X290020000Y-140880000D02*
X290020000Y-142980000D01*
D17*
G04 #@! TO.C,C18*
X288506000Y-143629000D02*
X287998000Y-143629000D01*
X287998000Y-143629000D02*
X287998000Y-144391000D01*
X287998000Y-144391000D02*
X288506000Y-144391000D01*
X289014000Y-143629000D02*
X289522000Y-143629000D01*
X289522000Y-143629000D02*
X289522000Y-144391000D01*
X289522000Y-144391000D02*
X289014000Y-144391000D01*
G04 #@! TO.C,R10*
X286726000Y-143629000D02*
X286218000Y-143629000D01*
X286218000Y-143629000D02*
X286218000Y-144391000D01*
X286218000Y-144391000D02*
X286726000Y-144391000D01*
X287234000Y-143629000D02*
X287742000Y-143629000D01*
X287742000Y-143629000D02*
X287742000Y-144391000D01*
X287742000Y-144391000D02*
X287234000Y-144391000D01*
G04 #@! TO.C,C16*
X285004000Y-144401000D02*
X285512000Y-144401000D01*
X285512000Y-144401000D02*
X285512000Y-143639000D01*
X285512000Y-143639000D02*
X285004000Y-143639000D01*
X284496000Y-144401000D02*
X283988000Y-144401000D01*
X283988000Y-144401000D02*
X283988000Y-143639000D01*
X283988000Y-143639000D02*
X284496000Y-143639000D01*
G04 #@! TO.C,R9*
X281759000Y-142444000D02*
X281759000Y-142952000D01*
X281759000Y-142952000D02*
X282521000Y-142952000D01*
X282521000Y-142952000D02*
X282521000Y-142444000D01*
X281759000Y-141936000D02*
X281759000Y-141428000D01*
X281759000Y-141428000D02*
X282521000Y-141428000D01*
X282521000Y-141428000D02*
X282521000Y-141936000D01*
G04 #@! TO.C,C17*
X287109000Y-141274000D02*
X287109000Y-141782000D01*
X287109000Y-141782000D02*
X287871000Y-141782000D01*
X287871000Y-141782000D02*
X287871000Y-141274000D01*
X287109000Y-140766000D02*
X287109000Y-140258000D01*
X287109000Y-140258000D02*
X287871000Y-140258000D01*
X287871000Y-140258000D02*
X287871000Y-140766000D01*
D16*
G04 #@! TO.C,D3*
X284825000Y-140475000D02*
X284825000Y-139475000D01*
X284825000Y-139475000D02*
X282725000Y-139475000D01*
X284825000Y-140475000D02*
X282725000Y-140475000D01*
D17*
G04 #@! TO.C,C22*
X282431000Y-137721000D02*
X282431000Y-137213000D01*
X282431000Y-137213000D02*
X281669000Y-137213000D01*
X281669000Y-137213000D02*
X281669000Y-137721000D01*
X282431000Y-138229000D02*
X282431000Y-138737000D01*
X282431000Y-138737000D02*
X281669000Y-138737000D01*
X281669000Y-138737000D02*
X281669000Y-138229000D01*
G04 #@! TO.C,R7*
X278616420Y-141979000D02*
X278108420Y-141979000D01*
X278108420Y-141979000D02*
X278108420Y-142741000D01*
X278108420Y-142741000D02*
X278616420Y-142741000D01*
X279124420Y-141979000D02*
X279632420Y-141979000D01*
X279632420Y-141979000D02*
X279632420Y-142741000D01*
X279632420Y-142741000D02*
X279124420Y-142741000D01*
G04 #@! TO.C,C21*
X273689000Y-138854000D02*
X273689000Y-139362000D01*
X273689000Y-139362000D02*
X274451000Y-139362000D01*
X274451000Y-139362000D02*
X274451000Y-138854000D01*
X273689000Y-138346000D02*
X273689000Y-137838000D01*
X273689000Y-137838000D02*
X274451000Y-137838000D01*
X274451000Y-137838000D02*
X274451000Y-138346000D01*
D16*
G04 #@! TO.C,F1*
X277470000Y-128250000D02*
X277470000Y-128750000D01*
X278530000Y-128750000D02*
X278530000Y-128250000D01*
D17*
G04 #@! TO.C,C34*
X275459000Y-129294000D02*
X275459000Y-129802000D01*
X275459000Y-129802000D02*
X276221000Y-129802000D01*
X276221000Y-129802000D02*
X276221000Y-129294000D01*
X275459000Y-128786000D02*
X275459000Y-128278000D01*
X275459000Y-128278000D02*
X276221000Y-128278000D01*
X276221000Y-128278000D02*
X276221000Y-128786000D01*
G04 #@! TO.C,C33*
X273346000Y-129069000D02*
X272838000Y-129069000D01*
X272838000Y-129069000D02*
X272838000Y-129831000D01*
X272838000Y-129831000D02*
X273346000Y-129831000D01*
X273854000Y-129069000D02*
X274362000Y-129069000D01*
X274362000Y-129069000D02*
X274362000Y-129831000D01*
X274362000Y-129831000D02*
X273854000Y-129831000D01*
D18*
G04 #@! TO.C,P2*
X282770000Y-130830000D02*
X280230000Y-130830000D01*
X280230000Y-130830000D02*
X280230000Y-125750000D01*
X280230000Y-125750000D02*
X282770000Y-125750000D01*
X282770000Y-125750000D02*
X282770000Y-130830000D01*
D16*
G04 #@! TO.C,D2*
X280990000Y-137950000D02*
X279990000Y-137950000D01*
X279990000Y-137950000D02*
X279990000Y-140050000D01*
X280990000Y-137950000D02*
X280990000Y-140050000D01*
G04 #@! TO.C,D1*
X279740000Y-137950000D02*
X278740000Y-137950000D01*
X278740000Y-137950000D02*
X278740000Y-140050000D01*
X279740000Y-137950000D02*
X279740000Y-140050000D01*
D18*
G04 #@! TO.C,P1*
X293650000Y-145720000D02*
X291110000Y-145720000D01*
X291110000Y-145720000D02*
X291110000Y-140640000D01*
X291110000Y-140640000D02*
X293650000Y-140640000D01*
X293650000Y-140640000D02*
X293650000Y-145720000D01*
D19*
G04 #@! TO.C,L4*
X273313000Y-139255000D02*
X271027000Y-139255000D01*
X271027000Y-139255000D02*
X271027000Y-137985000D01*
X271027000Y-137985000D02*
X273313000Y-137985000D01*
X273313000Y-137985000D02*
X273313000Y-139255000D01*
D13*
G04 #@! TO.C,X1*
X272500000Y-134050000D02*
X272500000Y-134100000D01*
X272500000Y-134050000D02*
X272500000Y-134000000D01*
X270500000Y-134050000D02*
X270500000Y-134100000D01*
X270500000Y-134050000D02*
X270500000Y-134000000D01*
X271500000Y-134850000D02*
X271650000Y-134850000D01*
X271500000Y-134850000D02*
X271350000Y-134850000D01*
X271500000Y-133250000D02*
X271650000Y-133250000D01*
X271500000Y-133250000D02*
X271350000Y-133250000D01*
D17*
G04 #@! TO.C,C28*
X275831000Y-140296000D02*
X275831000Y-139788000D01*
X275831000Y-139788000D02*
X275069000Y-139788000D01*
X275069000Y-139788000D02*
X275069000Y-140296000D01*
X275831000Y-140804000D02*
X275831000Y-141312000D01*
X275831000Y-141312000D02*
X275069000Y-141312000D01*
X275069000Y-141312000D02*
X275069000Y-140804000D01*
G04 #@! TO.C,C26*
X273454000Y-140581000D02*
X273962000Y-140581000D01*
X273962000Y-140581000D02*
X273962000Y-139819000D01*
X273962000Y-139819000D02*
X273454000Y-139819000D01*
X272946000Y-140581000D02*
X272438000Y-140581000D01*
X272438000Y-140581000D02*
X272438000Y-139819000D01*
X272438000Y-139819000D02*
X272946000Y-139819000D01*
G04 #@! TO.C,C24*
X270181000Y-133946000D02*
X270181000Y-133438000D01*
X270181000Y-133438000D02*
X269419000Y-133438000D01*
X269419000Y-133438000D02*
X269419000Y-133946000D01*
X270181000Y-134454000D02*
X270181000Y-134962000D01*
X270181000Y-134962000D02*
X269419000Y-134962000D01*
X269419000Y-134962000D02*
X269419000Y-134454000D01*
G04 #@! TO.C,C25*
X272819000Y-134354000D02*
X272819000Y-134862000D01*
X272819000Y-134862000D02*
X273581000Y-134862000D01*
X273581000Y-134862000D02*
X273581000Y-134354000D01*
X272819000Y-133846000D02*
X272819000Y-133338000D01*
X272819000Y-133338000D02*
X273581000Y-133338000D01*
X273581000Y-133338000D02*
X273581000Y-133846000D01*
G04 #@! TO.C,C29*
X277231000Y-140296000D02*
X277231000Y-139788000D01*
X277231000Y-139788000D02*
X276469000Y-139788000D01*
X276469000Y-139788000D02*
X276469000Y-140296000D01*
X277231000Y-140804000D02*
X277231000Y-141312000D01*
X277231000Y-141312000D02*
X276469000Y-141312000D01*
X276469000Y-141312000D02*
X276469000Y-140804000D01*
D13*
G04 #@! TO.C,A1*
X266645000Y-126673000D02*
X271445000Y-126673000D01*
X271445000Y-126673000D02*
X271445000Y-128673000D01*
X271345000Y-128673000D02*
X266645000Y-128673000D01*
X266645000Y-128673000D02*
X266645000Y-126673000D01*
X271445000Y-128673000D02*
X271345000Y-128673000D01*
D17*
G04 #@! TO.C,L6*
X272654000Y-128081000D02*
X273162000Y-128081000D01*
X273162000Y-128081000D02*
X273162000Y-127319000D01*
X273162000Y-127319000D02*
X272654000Y-127319000D01*
X272146000Y-128081000D02*
X271638000Y-128081000D01*
X271638000Y-128081000D02*
X271638000Y-127319000D01*
X271638000Y-127319000D02*
X272146000Y-127319000D01*
G04 #@! TO.C,L5*
X274381000Y-127846000D02*
X274381000Y-127338000D01*
X274381000Y-127338000D02*
X273619000Y-127338000D01*
X273619000Y-127338000D02*
X273619000Y-127846000D01*
X274381000Y-128354000D02*
X274381000Y-128862000D01*
X274381000Y-128862000D02*
X273619000Y-128862000D01*
X273619000Y-128862000D02*
X273619000Y-128354000D01*
G04 #@! TO.C,C30*
X275854000Y-128081000D02*
X276362000Y-128081000D01*
X276362000Y-128081000D02*
X276362000Y-127319000D01*
X276362000Y-127319000D02*
X275854000Y-127319000D01*
X275346000Y-128081000D02*
X274838000Y-128081000D01*
X274838000Y-128081000D02*
X274838000Y-127319000D01*
X274838000Y-127319000D02*
X275346000Y-127319000D01*
G04 #@! TO.C,L3*
X271926000Y-136889000D02*
X271418000Y-136889000D01*
X271418000Y-136889000D02*
X271418000Y-137651000D01*
X271418000Y-137651000D02*
X271926000Y-137651000D01*
X272434000Y-136889000D02*
X272942000Y-136889000D01*
X272942000Y-136889000D02*
X272942000Y-137651000D01*
X272942000Y-137651000D02*
X272434000Y-137651000D01*
D19*
G04 #@! TO.C,C23*
X273643000Y-136635000D02*
X271357000Y-136635000D01*
X271357000Y-136635000D02*
X271357000Y-135365000D01*
X271357000Y-135365000D02*
X273643000Y-135365000D01*
X273643000Y-135365000D02*
X273643000Y-136635000D01*
D13*
G04 #@! TO.C,U3*
X274675000Y-130875000D02*
X275275000Y-130875000D01*
X280925000Y-137125000D02*
X280325000Y-137125000D01*
X280925000Y-130875000D02*
X280325000Y-130875000D01*
X274675000Y-137125000D02*
X274675000Y-136525000D01*
X280925000Y-137125000D02*
X280925000Y-136525000D01*
X280925000Y-130875000D02*
X280925000Y-131475000D01*
X274675000Y-130875000D02*
X274675000Y-131475000D01*
D16*
G04 #@! TO.C,X2*
X274950000Y-139650000D02*
X277350000Y-139650000D01*
X277350000Y-139650000D02*
X277350000Y-138050000D01*
X277350000Y-138050000D02*
X274950000Y-138050000D01*
D13*
G04 #@! TO.C,U6*
X285835000Y-141015000D02*
X283685000Y-141015000D01*
X286660000Y-143265000D02*
X283685000Y-143265000D01*
D10*
G04 #@! TO.C,Q1*
X288590000Y-143080000D02*
X288590000Y-142380000D01*
X288460000Y-143155000D02*
X287460000Y-143155000D01*
D16*
G04 #@! TO.C,L2*
X273240000Y-143447221D02*
X273240000Y-143772779D01*
X274260000Y-143447221D02*
X274260000Y-143772779D01*
G04 #@! TO.C,R1*
X286555000Y-127450000D02*
X286555000Y-126950000D01*
X285495000Y-126950000D02*
X285495000Y-127450000D01*
G04 #@! TO.C,R2*
X284220000Y-126950000D02*
X284220000Y-127450000D01*
X285280000Y-127450000D02*
X285280000Y-126950000D01*
D20*
G04 #@! TO.C,IC2*
X296350000Y-137250000D02*
G75*
G03X296350000Y-137250000I-125000J0D01*
G01*
D16*
G04 #@! TO.C,X3*
X291600000Y-126175000D02*
X291600000Y-128875000D01*
X293900000Y-126175000D02*
X291600000Y-126175000D01*
D10*
G04 #@! TO.C,SW1*
X268495000Y-139350000D02*
X267775000Y-139350000D01*
X265995000Y-139350000D02*
X266575000Y-139350000D01*
X265995000Y-144850000D02*
X265995000Y-139350000D01*
X265995000Y-144850000D02*
X266575000Y-144850000D01*
X268495000Y-144850000D02*
X267775000Y-144850000D01*
X268495000Y-144850000D02*
X268495000Y-143700000D01*
X268495000Y-139350000D02*
X268495000Y-140500000D01*
G04 #@! TO.C,J1*
D13*
X299712380Y-128133333D02*
X300426666Y-128133333D01*
X300569523Y-128180952D01*
X300664761Y-128276190D01*
X300712380Y-128419047D01*
X300712380Y-128514285D01*
X300712380Y-127133333D02*
X300712380Y-127704761D01*
X300712380Y-127419047D02*
X299712380Y-127419047D01*
X299855238Y-127514285D01*
X299950476Y-127609523D01*
X299998095Y-127704761D01*
G04 #@! TO.C,C15*
D17*
X292925185Y-129680942D02*
X292941877Y-129695457D01*
X292958568Y-129739000D01*
X292958568Y-129768028D01*
X292941877Y-129811571D01*
X292908494Y-129840600D01*
X292875111Y-129855114D01*
X292808345Y-129869628D01*
X292758271Y-129869628D01*
X292691505Y-129855114D01*
X292658122Y-129840600D01*
X292624740Y-129811571D01*
X292608048Y-129768028D01*
X292608048Y-129739000D01*
X292624740Y-129695457D01*
X292641431Y-129680942D01*
X292958568Y-129390657D02*
X292958568Y-129564828D01*
X292958568Y-129477742D02*
X292608048Y-129477742D01*
X292658122Y-129506771D01*
X292691505Y-129535800D01*
X292708197Y-129564828D01*
X292608048Y-129114885D02*
X292608048Y-129260028D01*
X292774962Y-129274542D01*
X292758271Y-129260028D01*
X292741580Y-129231000D01*
X292741580Y-129158428D01*
X292758271Y-129129400D01*
X292774962Y-129114885D01*
X292808345Y-129100371D01*
X292891802Y-129100371D01*
X292925185Y-129114885D01*
X292941877Y-129129400D01*
X292958568Y-129158428D01*
X292958568Y-129231000D01*
X292941877Y-129260028D01*
X292925185Y-129274542D01*
G04 #@! TO.C,C14*
X290639057Y-127499765D02*
X290624542Y-127516457D01*
X290581000Y-127533148D01*
X290551971Y-127533148D01*
X290508428Y-127516457D01*
X290479400Y-127483074D01*
X290464885Y-127449691D01*
X290450371Y-127382925D01*
X290450371Y-127332851D01*
X290464885Y-127266085D01*
X290479400Y-127232702D01*
X290508428Y-127199320D01*
X290551971Y-127182628D01*
X290581000Y-127182628D01*
X290624542Y-127199320D01*
X290639057Y-127216011D01*
X290929342Y-127533148D02*
X290755171Y-127533148D01*
X290842257Y-127533148D02*
X290842257Y-127182628D01*
X290813228Y-127232702D01*
X290784200Y-127266085D01*
X290755171Y-127282777D01*
X291190600Y-127299468D02*
X291190600Y-127533148D01*
X291118028Y-127165937D02*
X291045457Y-127416308D01*
X291234142Y-127416308D01*
G04 #@! TO.C,C13*
X290364057Y-131225605D02*
X290349542Y-131242297D01*
X290306000Y-131258988D01*
X290276971Y-131258988D01*
X290233428Y-131242297D01*
X290204400Y-131208914D01*
X290189885Y-131175531D01*
X290175371Y-131108765D01*
X290175371Y-131058691D01*
X290189885Y-130991925D01*
X290204400Y-130958542D01*
X290233428Y-130925160D01*
X290276971Y-130908468D01*
X290306000Y-130908468D01*
X290349542Y-130925160D01*
X290364057Y-130941851D01*
X290654342Y-131258988D02*
X290480171Y-131258988D01*
X290567257Y-131258988D02*
X290567257Y-130908468D01*
X290538228Y-130958542D01*
X290509200Y-130991925D01*
X290480171Y-131008617D01*
X290755942Y-130908468D02*
X290944628Y-130908468D01*
X290843028Y-131042000D01*
X290886571Y-131042000D01*
X290915600Y-131058691D01*
X290930114Y-131075382D01*
X290944628Y-131108765D01*
X290944628Y-131192222D01*
X290930114Y-131225605D01*
X290915600Y-131242297D01*
X290886571Y-131258988D01*
X290799485Y-131258988D01*
X290770457Y-131242297D01*
X290755942Y-131225605D01*
G04 #@! TO.C,C12*
X289419057Y-131224765D02*
X289404542Y-131241457D01*
X289361000Y-131258148D01*
X289331971Y-131258148D01*
X289288428Y-131241457D01*
X289259400Y-131208074D01*
X289244885Y-131174691D01*
X289230371Y-131107925D01*
X289230371Y-131057851D01*
X289244885Y-130991085D01*
X289259400Y-130957702D01*
X289288428Y-130924320D01*
X289331971Y-130907628D01*
X289361000Y-130907628D01*
X289404542Y-130924320D01*
X289419057Y-130941011D01*
X289709342Y-131258148D02*
X289535171Y-131258148D01*
X289622257Y-131258148D02*
X289622257Y-130907628D01*
X289593228Y-130957702D01*
X289564200Y-130991085D01*
X289535171Y-131007777D01*
X289825457Y-130941011D02*
X289839971Y-130924320D01*
X289869000Y-130907628D01*
X289941571Y-130907628D01*
X289970600Y-130924320D01*
X289985114Y-130941011D01*
X289999628Y-130974394D01*
X289999628Y-131007777D01*
X289985114Y-131057851D01*
X289810942Y-131258148D01*
X289999628Y-131258148D01*
G04 #@! TO.C,C11*
X289550185Y-139105942D02*
X289566877Y-139120457D01*
X289583568Y-139164000D01*
X289583568Y-139193028D01*
X289566877Y-139236571D01*
X289533494Y-139265600D01*
X289500111Y-139280114D01*
X289433345Y-139294628D01*
X289383271Y-139294628D01*
X289316505Y-139280114D01*
X289283122Y-139265600D01*
X289249740Y-139236571D01*
X289233048Y-139193028D01*
X289233048Y-139164000D01*
X289249740Y-139120457D01*
X289266431Y-139105942D01*
X289583568Y-138815657D02*
X289583568Y-138989828D01*
X289583568Y-138902742D02*
X289233048Y-138902742D01*
X289283122Y-138931771D01*
X289316505Y-138960800D01*
X289333197Y-138989828D01*
X289583568Y-138525371D02*
X289583568Y-138699542D01*
X289583568Y-138612457D02*
X289233048Y-138612457D01*
X289283122Y-138641485D01*
X289316505Y-138670514D01*
X289333197Y-138699542D01*
G04 #@! TO.C,C10*
X289550185Y-138210522D02*
X289566877Y-138225037D01*
X289583568Y-138268580D01*
X289583568Y-138297608D01*
X289566877Y-138341151D01*
X289533494Y-138370180D01*
X289500111Y-138384694D01*
X289433345Y-138399208D01*
X289383271Y-138399208D01*
X289316505Y-138384694D01*
X289283122Y-138370180D01*
X289249740Y-138341151D01*
X289233048Y-138297608D01*
X289233048Y-138268580D01*
X289249740Y-138225037D01*
X289266431Y-138210522D01*
X289583568Y-137920237D02*
X289583568Y-138094408D01*
X289583568Y-138007322D02*
X289233048Y-138007322D01*
X289283122Y-138036351D01*
X289316505Y-138065380D01*
X289333197Y-138094408D01*
X289233048Y-137731551D02*
X289233048Y-137702522D01*
X289249740Y-137673494D01*
X289266431Y-137658980D01*
X289299814Y-137644465D01*
X289366580Y-137629951D01*
X289450037Y-137629951D01*
X289516802Y-137644465D01*
X289550185Y-137658980D01*
X289566877Y-137673494D01*
X289583568Y-137702522D01*
X289583568Y-137731551D01*
X289566877Y-137760580D01*
X289550185Y-137775094D01*
X289516802Y-137789608D01*
X289450037Y-137804122D01*
X289366580Y-137804122D01*
X289299814Y-137789608D01*
X289266431Y-137775094D01*
X289249740Y-137760580D01*
X289233048Y-137731551D01*
G04 #@! TO.C,C9*
X294139200Y-130100605D02*
X294124685Y-130117297D01*
X294081142Y-130133988D01*
X294052114Y-130133988D01*
X294008571Y-130117297D01*
X293979542Y-130083914D01*
X293965028Y-130050531D01*
X293950514Y-129983765D01*
X293950514Y-129933691D01*
X293965028Y-129866925D01*
X293979542Y-129833542D01*
X294008571Y-129800160D01*
X294052114Y-129783468D01*
X294081142Y-129783468D01*
X294124685Y-129800160D01*
X294139200Y-129816851D01*
X294284342Y-130133988D02*
X294342400Y-130133988D01*
X294371428Y-130117297D01*
X294385942Y-130100605D01*
X294414971Y-130050531D01*
X294429485Y-129983765D01*
X294429485Y-129850234D01*
X294414971Y-129816851D01*
X294400457Y-129800160D01*
X294371428Y-129783468D01*
X294313371Y-129783468D01*
X294284342Y-129800160D01*
X294269828Y-129816851D01*
X294255314Y-129850234D01*
X294255314Y-129933691D01*
X294269828Y-129967074D01*
X294284342Y-129983765D01*
X294313371Y-130000457D01*
X294371428Y-130000457D01*
X294400457Y-129983765D01*
X294414971Y-129967074D01*
X294429485Y-129933691D01*
G04 #@! TO.C,C8*
X294574765Y-131515800D02*
X294591457Y-131530314D01*
X294608148Y-131573857D01*
X294608148Y-131602885D01*
X294591457Y-131646428D01*
X294558074Y-131675457D01*
X294524691Y-131689971D01*
X294457925Y-131704485D01*
X294407851Y-131704485D01*
X294341085Y-131689971D01*
X294307702Y-131675457D01*
X294274320Y-131646428D01*
X294257628Y-131602885D01*
X294257628Y-131573857D01*
X294274320Y-131530314D01*
X294291011Y-131515800D01*
X294407851Y-131341628D02*
X294391160Y-131370657D01*
X294374468Y-131385171D01*
X294341085Y-131399685D01*
X294324394Y-131399685D01*
X294291011Y-131385171D01*
X294274320Y-131370657D01*
X294257628Y-131341628D01*
X294257628Y-131283571D01*
X294274320Y-131254542D01*
X294291011Y-131240028D01*
X294324394Y-131225514D01*
X294341085Y-131225514D01*
X294374468Y-131240028D01*
X294391160Y-131254542D01*
X294407851Y-131283571D01*
X294407851Y-131341628D01*
X294424542Y-131370657D01*
X294441234Y-131385171D01*
X294474617Y-131399685D01*
X294541382Y-131399685D01*
X294574765Y-131385171D01*
X294591457Y-131370657D01*
X294608148Y-131341628D01*
X294608148Y-131283571D01*
X294591457Y-131254542D01*
X294574765Y-131240028D01*
X294541382Y-131225514D01*
X294474617Y-131225514D01*
X294441234Y-131240028D01*
X294424542Y-131254542D01*
X294407851Y-131283571D01*
G04 #@! TO.C,C7*
X295325185Y-139015800D02*
X295341877Y-139030314D01*
X295358568Y-139073857D01*
X295358568Y-139102885D01*
X295341877Y-139146428D01*
X295308494Y-139175457D01*
X295275111Y-139189971D01*
X295208345Y-139204485D01*
X295158271Y-139204485D01*
X295091505Y-139189971D01*
X295058122Y-139175457D01*
X295024740Y-139146428D01*
X295008048Y-139102885D01*
X295008048Y-139073857D01*
X295024740Y-139030314D01*
X295041431Y-139015800D01*
X295008048Y-138914200D02*
X295008048Y-138711000D01*
X295358568Y-138841628D01*
G04 #@! TO.C,C6*
X291600185Y-139040800D02*
X291616877Y-139055314D01*
X291633568Y-139098857D01*
X291633568Y-139127885D01*
X291616877Y-139171428D01*
X291583494Y-139200457D01*
X291550111Y-139214971D01*
X291483345Y-139229485D01*
X291433271Y-139229485D01*
X291366505Y-139214971D01*
X291333122Y-139200457D01*
X291299740Y-139171428D01*
X291283048Y-139127885D01*
X291283048Y-139098857D01*
X291299740Y-139055314D01*
X291316431Y-139040800D01*
X291283048Y-138779542D02*
X291283048Y-138837600D01*
X291299740Y-138866628D01*
X291316431Y-138881142D01*
X291366505Y-138910171D01*
X291433271Y-138924685D01*
X291566802Y-138924685D01*
X291600185Y-138910171D01*
X291616877Y-138895657D01*
X291633568Y-138866628D01*
X291633568Y-138808571D01*
X291616877Y-138779542D01*
X291600185Y-138765028D01*
X291566802Y-138750514D01*
X291483345Y-138750514D01*
X291449962Y-138765028D01*
X291433271Y-138779542D01*
X291416580Y-138808571D01*
X291416580Y-138866628D01*
X291433271Y-138895657D01*
X291449962Y-138910171D01*
X291483345Y-138924685D01*
G04 #@! TO.C,C4*
X293300185Y-139040800D02*
X293316877Y-139055314D01*
X293333568Y-139098857D01*
X293333568Y-139127885D01*
X293316877Y-139171428D01*
X293283494Y-139200457D01*
X293250111Y-139214971D01*
X293183345Y-139229485D01*
X293133271Y-139229485D01*
X293066505Y-139214971D01*
X293033122Y-139200457D01*
X292999740Y-139171428D01*
X292983048Y-139127885D01*
X292983048Y-139098857D01*
X292999740Y-139055314D01*
X293016431Y-139040800D01*
X293099888Y-138779542D02*
X293333568Y-138779542D01*
X292966357Y-138852114D02*
X293216728Y-138924685D01*
X293216728Y-138736000D01*
G04 #@! TO.C,IC1*
D10*
X285311904Y-129776190D02*
X285311904Y-129276190D01*
X285835714Y-129728571D02*
X285811904Y-129752380D01*
X285740476Y-129776190D01*
X285692857Y-129776190D01*
X285621428Y-129752380D01*
X285573809Y-129704761D01*
X285550000Y-129657142D01*
X285526190Y-129561904D01*
X285526190Y-129490476D01*
X285550000Y-129395238D01*
X285573809Y-129347619D01*
X285621428Y-129300000D01*
X285692857Y-129276190D01*
X285740476Y-129276190D01*
X285811904Y-129300000D01*
X285835714Y-129323809D01*
X286311904Y-129776190D02*
X286026190Y-129776190D01*
X286169047Y-129776190D02*
X286169047Y-129276190D01*
X286121428Y-129347619D01*
X286073809Y-129395238D01*
X286026190Y-129419047D01*
G04 #@! TO.C,C1*
D17*
X287700185Y-127690800D02*
X287716877Y-127705314D01*
X287733568Y-127748857D01*
X287733568Y-127777885D01*
X287716877Y-127821428D01*
X287683494Y-127850457D01*
X287650111Y-127864971D01*
X287583345Y-127879485D01*
X287533271Y-127879485D01*
X287466505Y-127864971D01*
X287433122Y-127850457D01*
X287399740Y-127821428D01*
X287383048Y-127777885D01*
X287383048Y-127748857D01*
X287399740Y-127705314D01*
X287416431Y-127690800D01*
X287733568Y-127400514D02*
X287733568Y-127574685D01*
X287733568Y-127487600D02*
X287383048Y-127487600D01*
X287433122Y-127516628D01*
X287466505Y-127545657D01*
X287483197Y-127574685D01*
G04 #@! TO.C,C2*
X287025185Y-131635800D02*
X287041877Y-131650314D01*
X287058568Y-131693857D01*
X287058568Y-131722885D01*
X287041877Y-131766428D01*
X287008494Y-131795457D01*
X286975111Y-131809971D01*
X286908345Y-131824485D01*
X286858271Y-131824485D01*
X286791505Y-131809971D01*
X286758122Y-131795457D01*
X286724740Y-131766428D01*
X286708048Y-131722885D01*
X286708048Y-131693857D01*
X286724740Y-131650314D01*
X286741431Y-131635800D01*
X286741431Y-131519685D02*
X286724740Y-131505171D01*
X286708048Y-131476142D01*
X286708048Y-131403571D01*
X286724740Y-131374542D01*
X286741431Y-131360028D01*
X286774814Y-131345514D01*
X286808197Y-131345514D01*
X286858271Y-131360028D01*
X287058568Y-131534200D01*
X287058568Y-131345514D01*
G04 #@! TO.C,U2*
D21*
X275370952Y-141498809D02*
X275370952Y-141944047D01*
X275397142Y-141996428D01*
X275423333Y-142022619D01*
X275475714Y-142048809D01*
X275580476Y-142048809D01*
X275632857Y-142022619D01*
X275659047Y-141996428D01*
X275685238Y-141944047D01*
X275685238Y-141498809D01*
X275920952Y-141551190D02*
X275947142Y-141525000D01*
X275999523Y-141498809D01*
X276130476Y-141498809D01*
X276182857Y-141525000D01*
X276209047Y-141551190D01*
X276235238Y-141603571D01*
X276235238Y-141655952D01*
X276209047Y-141734523D01*
X275894761Y-142048809D01*
X276235238Y-142048809D01*
G04 #@! TO.C,C5*
D17*
X277339200Y-142964765D02*
X277324685Y-142981457D01*
X277281142Y-142998148D01*
X277252114Y-142998148D01*
X277208571Y-142981457D01*
X277179542Y-142948074D01*
X277165028Y-142914691D01*
X277150514Y-142847925D01*
X277150514Y-142797851D01*
X277165028Y-142731085D01*
X277179542Y-142697702D01*
X277208571Y-142664320D01*
X277252114Y-142647628D01*
X277281142Y-142647628D01*
X277324685Y-142664320D01*
X277339200Y-142681011D01*
X277614971Y-142647628D02*
X277469828Y-142647628D01*
X277455314Y-142814542D01*
X277469828Y-142797851D01*
X277498857Y-142781160D01*
X277571428Y-142781160D01*
X277600457Y-142797851D01*
X277614971Y-142814542D01*
X277629485Y-142847925D01*
X277629485Y-142931382D01*
X277614971Y-142964765D01*
X277600457Y-142981457D01*
X277571428Y-142998148D01*
X277498857Y-142998148D01*
X277469828Y-142981457D01*
X277455314Y-142964765D01*
G04 #@! TO.C,C3*
X276539200Y-143575605D02*
X276524685Y-143592297D01*
X276481142Y-143608988D01*
X276452114Y-143608988D01*
X276408571Y-143592297D01*
X276379542Y-143558914D01*
X276365028Y-143525531D01*
X276350514Y-143458765D01*
X276350514Y-143408691D01*
X276365028Y-143341925D01*
X276379542Y-143308542D01*
X276408571Y-143275160D01*
X276452114Y-143258468D01*
X276481142Y-143258468D01*
X276524685Y-143275160D01*
X276539200Y-143291851D01*
X276640800Y-143258468D02*
X276829485Y-143258468D01*
X276727885Y-143392000D01*
X276771428Y-143392000D01*
X276800457Y-143408691D01*
X276814971Y-143425382D01*
X276829485Y-143458765D01*
X276829485Y-143542222D01*
X276814971Y-143575605D01*
X276800457Y-143592297D01*
X276771428Y-143608988D01*
X276684342Y-143608988D01*
X276655314Y-143592297D01*
X276640800Y-143575605D01*
G04 #@! TO.C,P3*
D13*
X300252380Y-143348095D02*
X299252380Y-143348095D01*
X299252380Y-142967142D01*
X299300000Y-142871904D01*
X299347619Y-142824285D01*
X299442857Y-142776666D01*
X299585714Y-142776666D01*
X299680952Y-142824285D01*
X299728571Y-142871904D01*
X299776190Y-142967142D01*
X299776190Y-143348095D01*
X299252380Y-142443333D02*
X299252380Y-141824285D01*
X299633333Y-142157619D01*
X299633333Y-142014761D01*
X299680952Y-141919523D01*
X299728571Y-141871904D01*
X299823809Y-141824285D01*
X300061904Y-141824285D01*
X300157142Y-141871904D01*
X300204761Y-141919523D01*
X300252380Y-142014761D01*
X300252380Y-142300476D01*
X300204761Y-142395714D01*
X300157142Y-142443333D01*
G04 #@! TO.C,R5*
D17*
X279048568Y-143400800D02*
X278881654Y-143502400D01*
X279048568Y-143574971D02*
X278698048Y-143574971D01*
X278698048Y-143458857D01*
X278714740Y-143429828D01*
X278731431Y-143415314D01*
X278764814Y-143400800D01*
X278814888Y-143400800D01*
X278848271Y-143415314D01*
X278864962Y-143429828D01*
X278881654Y-143458857D01*
X278881654Y-143574971D01*
X278698048Y-143125028D02*
X278698048Y-143270171D01*
X278864962Y-143284685D01*
X278848271Y-143270171D01*
X278831580Y-143241142D01*
X278831580Y-143168571D01*
X278848271Y-143139542D01*
X278864962Y-143125028D01*
X278898345Y-143110514D01*
X278981802Y-143110514D01*
X279015185Y-143125028D01*
X279031877Y-143139542D01*
X279048568Y-143168571D01*
X279048568Y-143241142D01*
X279031877Y-143270171D01*
X279015185Y-143284685D01*
G04 #@! TO.C,D4*
D10*
X289150952Y-142456190D02*
X289150952Y-141956190D01*
X289270000Y-141956190D01*
X289341428Y-141980000D01*
X289389047Y-142027619D01*
X289412857Y-142075238D01*
X289436666Y-142170476D01*
X289436666Y-142241904D01*
X289412857Y-142337142D01*
X289389047Y-142384761D01*
X289341428Y-142432380D01*
X289270000Y-142456190D01*
X289150952Y-142456190D01*
X289865238Y-142122857D02*
X289865238Y-142456190D01*
X289746190Y-141932380D02*
X289627142Y-142289523D01*
X289936666Y-142289523D01*
G04 #@! TO.C,C18*
D17*
X288935185Y-144205942D02*
X288951877Y-144220457D01*
X288968568Y-144264000D01*
X288968568Y-144293028D01*
X288951877Y-144336571D01*
X288918494Y-144365600D01*
X288885111Y-144380114D01*
X288818345Y-144394628D01*
X288768271Y-144394628D01*
X288701505Y-144380114D01*
X288668122Y-144365600D01*
X288634740Y-144336571D01*
X288618048Y-144293028D01*
X288618048Y-144264000D01*
X288634740Y-144220457D01*
X288651431Y-144205942D01*
X288968568Y-143915657D02*
X288968568Y-144089828D01*
X288968568Y-144002742D02*
X288618048Y-144002742D01*
X288668122Y-144031771D01*
X288701505Y-144060800D01*
X288718197Y-144089828D01*
X288768271Y-143741485D02*
X288751580Y-143770514D01*
X288734888Y-143785028D01*
X288701505Y-143799542D01*
X288684814Y-143799542D01*
X288651431Y-143785028D01*
X288634740Y-143770514D01*
X288618048Y-143741485D01*
X288618048Y-143683428D01*
X288634740Y-143654400D01*
X288651431Y-143639885D01*
X288684814Y-143625371D01*
X288701505Y-143625371D01*
X288734888Y-143639885D01*
X288751580Y-143654400D01*
X288768271Y-143683428D01*
X288768271Y-143741485D01*
X288784962Y-143770514D01*
X288801654Y-143785028D01*
X288835037Y-143799542D01*
X288901802Y-143799542D01*
X288935185Y-143785028D01*
X288951877Y-143770514D01*
X288968568Y-143741485D01*
X288968568Y-143683428D01*
X288951877Y-143654400D01*
X288935185Y-143639885D01*
X288901802Y-143625371D01*
X288835037Y-143625371D01*
X288801654Y-143639885D01*
X288784962Y-143654400D01*
X288768271Y-143683428D01*
G04 #@! TO.C,R10*
X287188568Y-144205942D02*
X287021654Y-144307542D01*
X287188568Y-144380114D02*
X286838048Y-144380114D01*
X286838048Y-144264000D01*
X286854740Y-144234971D01*
X286871431Y-144220457D01*
X286904814Y-144205942D01*
X286954888Y-144205942D01*
X286988271Y-144220457D01*
X287004962Y-144234971D01*
X287021654Y-144264000D01*
X287021654Y-144380114D01*
X287188568Y-143915657D02*
X287188568Y-144089828D01*
X287188568Y-144002742D02*
X286838048Y-144002742D01*
X286888122Y-144031771D01*
X286921505Y-144060800D01*
X286938197Y-144089828D01*
X286838048Y-143726971D02*
X286838048Y-143697942D01*
X286854740Y-143668914D01*
X286871431Y-143654400D01*
X286904814Y-143639885D01*
X286971580Y-143625371D01*
X287055037Y-143625371D01*
X287121802Y-143639885D01*
X287155185Y-143654400D01*
X287171877Y-143668914D01*
X287188568Y-143697942D01*
X287188568Y-143726971D01*
X287171877Y-143756000D01*
X287155185Y-143770514D01*
X287121802Y-143785028D01*
X287055037Y-143799542D01*
X286971580Y-143799542D01*
X286904814Y-143785028D01*
X286871431Y-143770514D01*
X286854740Y-143756000D01*
X286838048Y-143726971D01*
G04 #@! TO.C,C16*
X284875185Y-144175942D02*
X284891877Y-144190457D01*
X284908568Y-144234000D01*
X284908568Y-144263028D01*
X284891877Y-144306571D01*
X284858494Y-144335600D01*
X284825111Y-144350114D01*
X284758345Y-144364628D01*
X284708271Y-144364628D01*
X284641505Y-144350114D01*
X284608122Y-144335600D01*
X284574740Y-144306571D01*
X284558048Y-144263028D01*
X284558048Y-144234000D01*
X284574740Y-144190457D01*
X284591431Y-144175942D01*
X284908568Y-143885657D02*
X284908568Y-144059828D01*
X284908568Y-143972742D02*
X284558048Y-143972742D01*
X284608122Y-144001771D01*
X284641505Y-144030800D01*
X284658197Y-144059828D01*
X284558048Y-143624400D02*
X284558048Y-143682457D01*
X284574740Y-143711485D01*
X284591431Y-143726000D01*
X284641505Y-143755028D01*
X284708271Y-143769542D01*
X284841802Y-143769542D01*
X284875185Y-143755028D01*
X284891877Y-143740514D01*
X284908568Y-143711485D01*
X284908568Y-143653428D01*
X284891877Y-143624400D01*
X284875185Y-143609885D01*
X284841802Y-143595371D01*
X284758345Y-143595371D01*
X284724962Y-143609885D01*
X284708271Y-143624400D01*
X284691580Y-143653428D01*
X284691580Y-143711485D01*
X284708271Y-143740514D01*
X284724962Y-143755028D01*
X284758345Y-143769542D01*
G04 #@! TO.C,R9*
X282089200Y-142298568D02*
X281987600Y-142131654D01*
X281915028Y-142298568D02*
X281915028Y-141948048D01*
X282031142Y-141948048D01*
X282060171Y-141964740D01*
X282074685Y-141981431D01*
X282089200Y-142014814D01*
X282089200Y-142064888D01*
X282074685Y-142098271D01*
X282060171Y-142114962D01*
X282031142Y-142131654D01*
X281915028Y-142131654D01*
X282234342Y-142298568D02*
X282292400Y-142298568D01*
X282321428Y-142281877D01*
X282335942Y-142265185D01*
X282364971Y-142215111D01*
X282379485Y-142148345D01*
X282379485Y-142014814D01*
X282364971Y-141981431D01*
X282350457Y-141964740D01*
X282321428Y-141948048D01*
X282263371Y-141948048D01*
X282234342Y-141964740D01*
X282219828Y-141981431D01*
X282205314Y-142014814D01*
X282205314Y-142098271D01*
X282219828Y-142131654D01*
X282234342Y-142148345D01*
X282263371Y-142165037D01*
X282321428Y-142165037D01*
X282350457Y-142148345D01*
X282364971Y-142131654D01*
X282379485Y-142098271D01*
G04 #@! TO.C,C17*
X287334057Y-141145185D02*
X287319542Y-141161877D01*
X287276000Y-141178568D01*
X287246971Y-141178568D01*
X287203428Y-141161877D01*
X287174400Y-141128494D01*
X287159885Y-141095111D01*
X287145371Y-141028345D01*
X287145371Y-140978271D01*
X287159885Y-140911505D01*
X287174400Y-140878122D01*
X287203428Y-140844740D01*
X287246971Y-140828048D01*
X287276000Y-140828048D01*
X287319542Y-140844740D01*
X287334057Y-140861431D01*
X287624342Y-141178568D02*
X287450171Y-141178568D01*
X287537257Y-141178568D02*
X287537257Y-140828048D01*
X287508228Y-140878122D01*
X287479200Y-140911505D01*
X287450171Y-140928197D01*
X287725942Y-140828048D02*
X287929142Y-140828048D01*
X287798514Y-141178568D01*
G04 #@! TO.C,D3*
D10*
X283701190Y-140344047D02*
X283201190Y-140344047D01*
X283201190Y-140225000D01*
X283225000Y-140153571D01*
X283272619Y-140105952D01*
X283320238Y-140082142D01*
X283415476Y-140058333D01*
X283486904Y-140058333D01*
X283582142Y-140082142D01*
X283629761Y-140105952D01*
X283677380Y-140153571D01*
X283701190Y-140225000D01*
X283701190Y-140344047D01*
X283201190Y-139891666D02*
X283201190Y-139582142D01*
X283391666Y-139748809D01*
X283391666Y-139677380D01*
X283415476Y-139629761D01*
X283439285Y-139605952D01*
X283486904Y-139582142D01*
X283605952Y-139582142D01*
X283653571Y-139605952D01*
X283677380Y-139629761D01*
X283701190Y-139677380D01*
X283701190Y-139820238D01*
X283677380Y-139867857D01*
X283653571Y-139891666D01*
G04 #@! TO.C,C22*
D17*
X281834057Y-138100185D02*
X281819542Y-138116877D01*
X281776000Y-138133568D01*
X281746971Y-138133568D01*
X281703428Y-138116877D01*
X281674400Y-138083494D01*
X281659885Y-138050111D01*
X281645371Y-137983345D01*
X281645371Y-137933271D01*
X281659885Y-137866505D01*
X281674400Y-137833122D01*
X281703428Y-137799740D01*
X281746971Y-137783048D01*
X281776000Y-137783048D01*
X281819542Y-137799740D01*
X281834057Y-137816431D01*
X281950171Y-137816431D02*
X281964685Y-137799740D01*
X281993714Y-137783048D01*
X282066285Y-137783048D01*
X282095314Y-137799740D01*
X282109828Y-137816431D01*
X282124342Y-137849814D01*
X282124342Y-137883197D01*
X282109828Y-137933271D01*
X281935657Y-138133568D01*
X282124342Y-138133568D01*
X282240457Y-137816431D02*
X282254971Y-137799740D01*
X282284000Y-137783048D01*
X282356571Y-137783048D01*
X282385600Y-137799740D01*
X282400114Y-137816431D01*
X282414628Y-137849814D01*
X282414628Y-137883197D01*
X282400114Y-137933271D01*
X282225942Y-138133568D01*
X282414628Y-138133568D01*
G04 #@! TO.C,R7*
X278998988Y-142400800D02*
X278832074Y-142502400D01*
X278998988Y-142574971D02*
X278648468Y-142574971D01*
X278648468Y-142458857D01*
X278665160Y-142429828D01*
X278681851Y-142415314D01*
X278715234Y-142400800D01*
X278765308Y-142400800D01*
X278798691Y-142415314D01*
X278815382Y-142429828D01*
X278832074Y-142458857D01*
X278832074Y-142574971D01*
X278648468Y-142299200D02*
X278648468Y-142096000D01*
X278998988Y-142226628D01*
G04 #@! TO.C,C21*
X273874057Y-138745185D02*
X273859542Y-138761877D01*
X273816000Y-138778568D01*
X273786971Y-138778568D01*
X273743428Y-138761877D01*
X273714400Y-138728494D01*
X273699885Y-138695111D01*
X273685371Y-138628345D01*
X273685371Y-138578271D01*
X273699885Y-138511505D01*
X273714400Y-138478122D01*
X273743428Y-138444740D01*
X273786971Y-138428048D01*
X273816000Y-138428048D01*
X273859542Y-138444740D01*
X273874057Y-138461431D01*
X273990171Y-138461431D02*
X274004685Y-138444740D01*
X274033714Y-138428048D01*
X274106285Y-138428048D01*
X274135314Y-138444740D01*
X274149828Y-138461431D01*
X274164342Y-138494814D01*
X274164342Y-138528197D01*
X274149828Y-138578271D01*
X273975657Y-138778568D01*
X274164342Y-138778568D01*
X274454628Y-138778568D02*
X274280457Y-138778568D01*
X274367542Y-138778568D02*
X274367542Y-138428048D01*
X274338514Y-138478122D01*
X274309485Y-138511505D01*
X274280457Y-138528197D01*
G04 #@! TO.C,F1*
D10*
X277843333Y-127064285D02*
X277676666Y-127064285D01*
X277676666Y-127326190D02*
X277676666Y-126826190D01*
X277914761Y-126826190D01*
X278367142Y-127326190D02*
X278081428Y-127326190D01*
X278224285Y-127326190D02*
X278224285Y-126826190D01*
X278176666Y-126897619D01*
X278129047Y-126945238D01*
X278081428Y-126969047D01*
G04 #@! TO.C,C34*
D17*
X275644057Y-129165185D02*
X275629542Y-129181877D01*
X275586000Y-129198568D01*
X275556971Y-129198568D01*
X275513428Y-129181877D01*
X275484400Y-129148494D01*
X275469885Y-129115111D01*
X275455371Y-129048345D01*
X275455371Y-128998271D01*
X275469885Y-128931505D01*
X275484400Y-128898122D01*
X275513428Y-128864740D01*
X275556971Y-128848048D01*
X275586000Y-128848048D01*
X275629542Y-128864740D01*
X275644057Y-128881431D01*
X275745657Y-128848048D02*
X275934342Y-128848048D01*
X275832742Y-128981580D01*
X275876285Y-128981580D01*
X275905314Y-128998271D01*
X275919828Y-129014962D01*
X275934342Y-129048345D01*
X275934342Y-129131802D01*
X275919828Y-129165185D01*
X275905314Y-129181877D01*
X275876285Y-129198568D01*
X275789200Y-129198568D01*
X275760171Y-129181877D01*
X275745657Y-129165185D01*
X276195600Y-128964888D02*
X276195600Y-129198568D01*
X276123028Y-128831357D02*
X276050457Y-129081728D01*
X276239142Y-129081728D01*
G04 #@! TO.C,C33*
X273714057Y-130275185D02*
X273699542Y-130291877D01*
X273656000Y-130308568D01*
X273626971Y-130308568D01*
X273583428Y-130291877D01*
X273554400Y-130258494D01*
X273539885Y-130225111D01*
X273525371Y-130158345D01*
X273525371Y-130108271D01*
X273539885Y-130041505D01*
X273554400Y-130008122D01*
X273583428Y-129974740D01*
X273626971Y-129958048D01*
X273656000Y-129958048D01*
X273699542Y-129974740D01*
X273714057Y-129991431D01*
X273815657Y-129958048D02*
X274004342Y-129958048D01*
X273902742Y-130091580D01*
X273946285Y-130091580D01*
X273975314Y-130108271D01*
X273989828Y-130124962D01*
X274004342Y-130158345D01*
X274004342Y-130241802D01*
X273989828Y-130275185D01*
X273975314Y-130291877D01*
X273946285Y-130308568D01*
X273859200Y-130308568D01*
X273830171Y-130291877D01*
X273815657Y-130275185D01*
X274105942Y-129958048D02*
X274294628Y-129958048D01*
X274193028Y-130091580D01*
X274236571Y-130091580D01*
X274265600Y-130108271D01*
X274280114Y-130124962D01*
X274294628Y-130158345D01*
X274294628Y-130241802D01*
X274280114Y-130275185D01*
X274265600Y-130291877D01*
X274236571Y-130308568D01*
X274149485Y-130308568D01*
X274120457Y-130291877D01*
X274105942Y-130275185D01*
G04 #@! TO.C,D2*
D10*
X280120952Y-139526190D02*
X280120952Y-139026190D01*
X280240000Y-139026190D01*
X280311428Y-139050000D01*
X280359047Y-139097619D01*
X280382857Y-139145238D01*
X280406666Y-139240476D01*
X280406666Y-139311904D01*
X280382857Y-139407142D01*
X280359047Y-139454761D01*
X280311428Y-139502380D01*
X280240000Y-139526190D01*
X280120952Y-139526190D01*
X280597142Y-139073809D02*
X280620952Y-139050000D01*
X280668571Y-139026190D01*
X280787619Y-139026190D01*
X280835238Y-139050000D01*
X280859047Y-139073809D01*
X280882857Y-139121428D01*
X280882857Y-139169047D01*
X280859047Y-139240476D01*
X280573333Y-139526190D01*
X280882857Y-139526190D01*
G04 #@! TO.C,D1*
X278895952Y-139526190D02*
X278895952Y-139026190D01*
X279015000Y-139026190D01*
X279086428Y-139050000D01*
X279134047Y-139097619D01*
X279157857Y-139145238D01*
X279181666Y-139240476D01*
X279181666Y-139311904D01*
X279157857Y-139407142D01*
X279134047Y-139454761D01*
X279086428Y-139502380D01*
X279015000Y-139526190D01*
X278895952Y-139526190D01*
X279657857Y-139526190D02*
X279372142Y-139526190D01*
X279515000Y-139526190D02*
X279515000Y-139026190D01*
X279467380Y-139097619D01*
X279419761Y-139145238D01*
X279372142Y-139169047D01*
G04 #@! TO.C,L4*
D22*
X270799809Y-138696200D02*
X270799809Y-138913914D01*
X270291809Y-138913914D01*
X270461142Y-138347857D02*
X270799809Y-138347857D01*
X270267619Y-138456714D02*
X270630476Y-138565571D01*
X270630476Y-138282542D01*
G04 #@! TO.C,X1*
D23*
X270445238Y-132476190D02*
X270778571Y-132976190D01*
X270778571Y-132476190D02*
X270445238Y-132976190D01*
X271230952Y-132976190D02*
X270945238Y-132976190D01*
X271088095Y-132976190D02*
X271088095Y-132476190D01*
X271040476Y-132547619D01*
X270992857Y-132595238D01*
X270945238Y-132619047D01*
G04 #@! TO.C,C28*
D17*
X274925185Y-140745942D02*
X274941877Y-140760457D01*
X274958568Y-140804000D01*
X274958568Y-140833028D01*
X274941877Y-140876571D01*
X274908494Y-140905600D01*
X274875111Y-140920114D01*
X274808345Y-140934628D01*
X274758271Y-140934628D01*
X274691505Y-140920114D01*
X274658122Y-140905600D01*
X274624740Y-140876571D01*
X274608048Y-140833028D01*
X274608048Y-140804000D01*
X274624740Y-140760457D01*
X274641431Y-140745942D01*
X274641431Y-140629828D02*
X274624740Y-140615314D01*
X274608048Y-140586285D01*
X274608048Y-140513714D01*
X274624740Y-140484685D01*
X274641431Y-140470171D01*
X274674814Y-140455657D01*
X274708197Y-140455657D01*
X274758271Y-140470171D01*
X274958568Y-140644342D01*
X274958568Y-140455657D01*
X274758271Y-140281485D02*
X274741580Y-140310514D01*
X274724888Y-140325028D01*
X274691505Y-140339542D01*
X274674814Y-140339542D01*
X274641431Y-140325028D01*
X274624740Y-140310514D01*
X274608048Y-140281485D01*
X274608048Y-140223428D01*
X274624740Y-140194400D01*
X274641431Y-140179885D01*
X274674814Y-140165371D01*
X274691505Y-140165371D01*
X274724888Y-140179885D01*
X274741580Y-140194400D01*
X274758271Y-140223428D01*
X274758271Y-140281485D01*
X274774962Y-140310514D01*
X274791654Y-140325028D01*
X274825037Y-140339542D01*
X274891802Y-140339542D01*
X274925185Y-140325028D01*
X274941877Y-140310514D01*
X274958568Y-140281485D01*
X274958568Y-140223428D01*
X274941877Y-140194400D01*
X274925185Y-140179885D01*
X274891802Y-140165371D01*
X274825037Y-140165371D01*
X274791654Y-140179885D01*
X274774962Y-140194400D01*
X274758271Y-140223428D01*
G04 #@! TO.C,C26*
X273265185Y-140395942D02*
X273281877Y-140410457D01*
X273298568Y-140454000D01*
X273298568Y-140483028D01*
X273281877Y-140526571D01*
X273248494Y-140555600D01*
X273215111Y-140570114D01*
X273148345Y-140584628D01*
X273098271Y-140584628D01*
X273031505Y-140570114D01*
X272998122Y-140555600D01*
X272964740Y-140526571D01*
X272948048Y-140483028D01*
X272948048Y-140454000D01*
X272964740Y-140410457D01*
X272981431Y-140395942D01*
X272981431Y-140279828D02*
X272964740Y-140265314D01*
X272948048Y-140236285D01*
X272948048Y-140163714D01*
X272964740Y-140134685D01*
X272981431Y-140120171D01*
X273014814Y-140105657D01*
X273048197Y-140105657D01*
X273098271Y-140120171D01*
X273298568Y-140294342D01*
X273298568Y-140105657D01*
X272948048Y-139844400D02*
X272948048Y-139902457D01*
X272964740Y-139931485D01*
X272981431Y-139946000D01*
X273031505Y-139975028D01*
X273098271Y-139989542D01*
X273231802Y-139989542D01*
X273265185Y-139975028D01*
X273281877Y-139960514D01*
X273298568Y-139931485D01*
X273298568Y-139873428D01*
X273281877Y-139844400D01*
X273265185Y-139829885D01*
X273231802Y-139815371D01*
X273148345Y-139815371D01*
X273114962Y-139829885D01*
X273098271Y-139844400D01*
X273081580Y-139873428D01*
X273081580Y-139931485D01*
X273098271Y-139960514D01*
X273114962Y-139975028D01*
X273148345Y-139989542D01*
G04 #@! TO.C,C24*
X269925185Y-133095942D02*
X269941877Y-133110457D01*
X269958568Y-133154000D01*
X269958568Y-133183028D01*
X269941877Y-133226571D01*
X269908494Y-133255600D01*
X269875111Y-133270114D01*
X269808345Y-133284628D01*
X269758271Y-133284628D01*
X269691505Y-133270114D01*
X269658122Y-133255600D01*
X269624740Y-133226571D01*
X269608048Y-133183028D01*
X269608048Y-133154000D01*
X269624740Y-133110457D01*
X269641431Y-133095942D01*
X269641431Y-132979828D02*
X269624740Y-132965314D01*
X269608048Y-132936285D01*
X269608048Y-132863714D01*
X269624740Y-132834685D01*
X269641431Y-132820171D01*
X269674814Y-132805657D01*
X269708197Y-132805657D01*
X269758271Y-132820171D01*
X269958568Y-132994342D01*
X269958568Y-132805657D01*
X269724888Y-132544400D02*
X269958568Y-132544400D01*
X269591357Y-132616971D02*
X269841728Y-132689542D01*
X269841728Y-132500857D01*
G04 #@! TO.C,C25*
X273325185Y-132995942D02*
X273341877Y-133010457D01*
X273358568Y-133054000D01*
X273358568Y-133083028D01*
X273341877Y-133126571D01*
X273308494Y-133155600D01*
X273275111Y-133170114D01*
X273208345Y-133184628D01*
X273158271Y-133184628D01*
X273091505Y-133170114D01*
X273058122Y-133155600D01*
X273024740Y-133126571D01*
X273008048Y-133083028D01*
X273008048Y-133054000D01*
X273024740Y-133010457D01*
X273041431Y-132995942D01*
X273041431Y-132879828D02*
X273024740Y-132865314D01*
X273008048Y-132836285D01*
X273008048Y-132763714D01*
X273024740Y-132734685D01*
X273041431Y-132720171D01*
X273074814Y-132705657D01*
X273108197Y-132705657D01*
X273158271Y-132720171D01*
X273358568Y-132894342D01*
X273358568Y-132705657D01*
X273008048Y-132429885D02*
X273008048Y-132575028D01*
X273174962Y-132589542D01*
X273158271Y-132575028D01*
X273141580Y-132546000D01*
X273141580Y-132473428D01*
X273158271Y-132444400D01*
X273174962Y-132429885D01*
X273208345Y-132415371D01*
X273291802Y-132415371D01*
X273325185Y-132429885D01*
X273341877Y-132444400D01*
X273358568Y-132473428D01*
X273358568Y-132546000D01*
X273341877Y-132575028D01*
X273325185Y-132589542D01*
G04 #@! TO.C,C29*
X276614057Y-140675185D02*
X276599542Y-140691877D01*
X276556000Y-140708568D01*
X276526971Y-140708568D01*
X276483428Y-140691877D01*
X276454400Y-140658494D01*
X276439885Y-140625111D01*
X276425371Y-140558345D01*
X276425371Y-140508271D01*
X276439885Y-140441505D01*
X276454400Y-140408122D01*
X276483428Y-140374740D01*
X276526971Y-140358048D01*
X276556000Y-140358048D01*
X276599542Y-140374740D01*
X276614057Y-140391431D01*
X276730171Y-140391431D02*
X276744685Y-140374740D01*
X276773714Y-140358048D01*
X276846285Y-140358048D01*
X276875314Y-140374740D01*
X276889828Y-140391431D01*
X276904342Y-140424814D01*
X276904342Y-140458197D01*
X276889828Y-140508271D01*
X276715657Y-140708568D01*
X276904342Y-140708568D01*
X277049485Y-140708568D02*
X277107542Y-140708568D01*
X277136571Y-140691877D01*
X277151085Y-140675185D01*
X277180114Y-140625111D01*
X277194628Y-140558345D01*
X277194628Y-140424814D01*
X277180114Y-140391431D01*
X277165600Y-140374740D01*
X277136571Y-140358048D01*
X277078514Y-140358048D01*
X277049485Y-140374740D01*
X277034971Y-140391431D01*
X277020457Y-140424814D01*
X277020457Y-140508271D01*
X277034971Y-140541654D01*
X277049485Y-140558345D01*
X277078514Y-140575037D01*
X277136571Y-140575037D01*
X277165600Y-140558345D01*
X277180114Y-140541654D01*
X277194628Y-140508271D01*
G04 #@! TO.C,L6*
X271899200Y-128558568D02*
X271754057Y-128558568D01*
X271754057Y-128208048D01*
X272131428Y-128208048D02*
X272073371Y-128208048D01*
X272044342Y-128224740D01*
X272029828Y-128241431D01*
X272000800Y-128291505D01*
X271986285Y-128358271D01*
X271986285Y-128491802D01*
X272000800Y-128525185D01*
X272015314Y-128541877D01*
X272044342Y-128558568D01*
X272102400Y-128558568D01*
X272131428Y-128541877D01*
X272145942Y-128525185D01*
X272160457Y-128491802D01*
X272160457Y-128408345D01*
X272145942Y-128374962D01*
X272131428Y-128358271D01*
X272102400Y-128341580D01*
X272044342Y-128341580D01*
X272015314Y-128358271D01*
X272000800Y-128374962D01*
X271986285Y-128408345D01*
G04 #@! TO.C,L5*
X273969200Y-127248568D02*
X273824057Y-127248568D01*
X273824057Y-126898048D01*
X274215942Y-126898048D02*
X274070800Y-126898048D01*
X274056285Y-127064962D01*
X274070800Y-127048271D01*
X274099828Y-127031580D01*
X274172400Y-127031580D01*
X274201428Y-127048271D01*
X274215942Y-127064962D01*
X274230457Y-127098345D01*
X274230457Y-127181802D01*
X274215942Y-127215185D01*
X274201428Y-127231877D01*
X274172400Y-127248568D01*
X274099828Y-127248568D01*
X274070800Y-127231877D01*
X274056285Y-127215185D01*
G04 #@! TO.C,C30*
X275404057Y-127165185D02*
X275389542Y-127181877D01*
X275346000Y-127198568D01*
X275316971Y-127198568D01*
X275273428Y-127181877D01*
X275244400Y-127148494D01*
X275229885Y-127115111D01*
X275215371Y-127048345D01*
X275215371Y-126998271D01*
X275229885Y-126931505D01*
X275244400Y-126898122D01*
X275273428Y-126864740D01*
X275316971Y-126848048D01*
X275346000Y-126848048D01*
X275389542Y-126864740D01*
X275404057Y-126881431D01*
X275505657Y-126848048D02*
X275694342Y-126848048D01*
X275592742Y-126981580D01*
X275636285Y-126981580D01*
X275665314Y-126998271D01*
X275679828Y-127014962D01*
X275694342Y-127048345D01*
X275694342Y-127131802D01*
X275679828Y-127165185D01*
X275665314Y-127181877D01*
X275636285Y-127198568D01*
X275549200Y-127198568D01*
X275520171Y-127181877D01*
X275505657Y-127165185D01*
X275883028Y-126848048D02*
X275912057Y-126848048D01*
X275941085Y-126864740D01*
X275955600Y-126881431D01*
X275970114Y-126914814D01*
X275984628Y-126981580D01*
X275984628Y-127065037D01*
X275970114Y-127131802D01*
X275955600Y-127165185D01*
X275941085Y-127181877D01*
X275912057Y-127198568D01*
X275883028Y-127198568D01*
X275854000Y-127181877D01*
X275839485Y-127165185D01*
X275824971Y-127131802D01*
X275810457Y-127065037D01*
X275810457Y-126981580D01*
X275824971Y-126914814D01*
X275839485Y-126881431D01*
X275854000Y-126864740D01*
X275883028Y-126848048D01*
G04 #@! TO.C,L3*
X271288568Y-137270800D02*
X271288568Y-137415942D01*
X270938048Y-137415942D01*
X270938048Y-137198228D02*
X270938048Y-137009542D01*
X271071580Y-137111142D01*
X271071580Y-137067600D01*
X271088271Y-137038571D01*
X271104962Y-137024057D01*
X271138345Y-137009542D01*
X271221802Y-137009542D01*
X271255185Y-137024057D01*
X271271877Y-137038571D01*
X271288568Y-137067600D01*
X271288568Y-137154685D01*
X271271877Y-137183714D01*
X271255185Y-137198228D01*
G04 #@! TO.C,C23*
D22*
X271151428Y-136313914D02*
X271175619Y-136335685D01*
X271199809Y-136401000D01*
X271199809Y-136444542D01*
X271175619Y-136509857D01*
X271127238Y-136553400D01*
X271078857Y-136575171D01*
X270982095Y-136596942D01*
X270909523Y-136596942D01*
X270812761Y-136575171D01*
X270764380Y-136553400D01*
X270716000Y-136509857D01*
X270691809Y-136444542D01*
X270691809Y-136401000D01*
X270716000Y-136335685D01*
X270740190Y-136313914D01*
X270740190Y-136139742D02*
X270716000Y-136117971D01*
X270691809Y-136074428D01*
X270691809Y-135965571D01*
X270716000Y-135922028D01*
X270740190Y-135900257D01*
X270788571Y-135878485D01*
X270836952Y-135878485D01*
X270909523Y-135900257D01*
X271199809Y-136161514D01*
X271199809Y-135878485D01*
X270691809Y-135726085D02*
X270691809Y-135443057D01*
X270885333Y-135595457D01*
X270885333Y-135530142D01*
X270909523Y-135486600D01*
X270933714Y-135464828D01*
X270982095Y-135443057D01*
X271103047Y-135443057D01*
X271151428Y-135464828D01*
X271175619Y-135486600D01*
X271199809Y-135530142D01*
X271199809Y-135660771D01*
X271175619Y-135704314D01*
X271151428Y-135726085D01*
G04 #@! TO.C,U3*
D24*
X273696190Y-131730952D02*
X274100952Y-131730952D01*
X274148571Y-131707142D01*
X274172380Y-131683333D01*
X274196190Y-131635714D01*
X274196190Y-131540476D01*
X274172380Y-131492857D01*
X274148571Y-131469047D01*
X274100952Y-131445238D01*
X273696190Y-131445238D01*
X273696190Y-131254761D02*
X273696190Y-130945238D01*
X273886666Y-131111904D01*
X273886666Y-131040476D01*
X273910476Y-130992857D01*
X273934285Y-130969047D01*
X273981904Y-130945238D01*
X274100952Y-130945238D01*
X274148571Y-130969047D01*
X274172380Y-130992857D01*
X274196190Y-131040476D01*
X274196190Y-131183333D01*
X274172380Y-131230952D01*
X274148571Y-131254761D01*
G04 #@! TO.C,X2*
D10*
X275930952Y-139223809D02*
X276330952Y-138957142D01*
X275930952Y-138957142D02*
X276330952Y-139223809D01*
X275969047Y-138823809D02*
X275950000Y-138804761D01*
X275930952Y-138766666D01*
X275930952Y-138671428D01*
X275950000Y-138633333D01*
X275969047Y-138614285D01*
X276007142Y-138595238D01*
X276045238Y-138595238D01*
X276102380Y-138614285D01*
X276330952Y-138842857D01*
X276330952Y-138595238D01*
G04 #@! TO.C,U6*
D25*
X285722857Y-143391428D02*
X285722857Y-143877142D01*
X285751428Y-143934285D01*
X285780000Y-143962857D01*
X285837142Y-143991428D01*
X285951428Y-143991428D01*
X286008571Y-143962857D01*
X286037142Y-143934285D01*
X286065714Y-143877142D01*
X286065714Y-143391428D01*
X286608571Y-143391428D02*
X286494285Y-143391428D01*
X286437142Y-143420000D01*
X286408571Y-143448571D01*
X286351428Y-143534285D01*
X286322857Y-143648571D01*
X286322857Y-143877142D01*
X286351428Y-143934285D01*
X286380000Y-143962857D01*
X286437142Y-143991428D01*
X286551428Y-143991428D01*
X286608571Y-143962857D01*
X286637142Y-143934285D01*
X286665714Y-143877142D01*
X286665714Y-143734285D01*
X286637142Y-143677142D01*
X286608571Y-143648571D01*
X286551428Y-143620000D01*
X286437142Y-143620000D01*
X286380000Y-143648571D01*
X286351428Y-143677142D01*
X286322857Y-143734285D01*
G04 #@! TO.C,Q1*
X288362380Y-142163809D02*
X288314761Y-142140000D01*
X288267142Y-142092380D01*
X288195714Y-142020952D01*
X288148095Y-141997142D01*
X288100476Y-141997142D01*
X288124285Y-142116190D02*
X288076666Y-142092380D01*
X288029047Y-142044761D01*
X288005238Y-141949523D01*
X288005238Y-141782857D01*
X288029047Y-141687619D01*
X288076666Y-141640000D01*
X288124285Y-141616190D01*
X288219523Y-141616190D01*
X288267142Y-141640000D01*
X288314761Y-141687619D01*
X288338571Y-141782857D01*
X288338571Y-141949523D01*
X288314761Y-142044761D01*
X288267142Y-142092380D01*
X288219523Y-142116190D01*
X288124285Y-142116190D01*
X288814761Y-142116190D02*
X288529047Y-142116190D01*
X288671904Y-142116190D02*
X288671904Y-141616190D01*
X288624285Y-141687619D01*
X288576666Y-141735238D01*
X288529047Y-141759047D01*
G04 #@! TO.C,L2*
D21*
X273688333Y-143828809D02*
X273426428Y-143828809D01*
X273426428Y-143278809D01*
X273845476Y-143331190D02*
X273871666Y-143305000D01*
X273924047Y-143278809D01*
X274055000Y-143278809D01*
X274107380Y-143305000D01*
X274133571Y-143331190D01*
X274159761Y-143383571D01*
X274159761Y-143435952D01*
X274133571Y-143514523D01*
X273819285Y-143828809D01*
X274159761Y-143828809D01*
G04 #@! TO.C,R1*
D10*
X286016666Y-126326190D02*
X285850000Y-126088095D01*
X285730952Y-126326190D02*
X285730952Y-125826190D01*
X285921428Y-125826190D01*
X285969047Y-125850000D01*
X285992857Y-125873809D01*
X286016666Y-125921428D01*
X286016666Y-125992857D01*
X285992857Y-126040476D01*
X285969047Y-126064285D01*
X285921428Y-126088095D01*
X285730952Y-126088095D01*
X286492857Y-126326190D02*
X286207142Y-126326190D01*
X286350000Y-126326190D02*
X286350000Y-125826190D01*
X286302380Y-125897619D01*
X286254761Y-125945238D01*
X286207142Y-125969047D01*
G04 #@! TO.C,R2*
X284666666Y-126276190D02*
X284500000Y-126038095D01*
X284380952Y-126276190D02*
X284380952Y-125776190D01*
X284571428Y-125776190D01*
X284619047Y-125800000D01*
X284642857Y-125823809D01*
X284666666Y-125871428D01*
X284666666Y-125942857D01*
X284642857Y-125990476D01*
X284619047Y-126014285D01*
X284571428Y-126038095D01*
X284380952Y-126038095D01*
X284857142Y-125823809D02*
X284880952Y-125800000D01*
X284928571Y-125776190D01*
X285047619Y-125776190D01*
X285095238Y-125800000D01*
X285119047Y-125823809D01*
X285142857Y-125871428D01*
X285142857Y-125919047D01*
X285119047Y-125990476D01*
X284833333Y-126276190D01*
X285142857Y-126276190D01*
G04 #@! TO.C,IC2*
X295840476Y-138196428D02*
X295840476Y-137596428D01*
X296521428Y-138139285D02*
X296490476Y-138167857D01*
X296397619Y-138196428D01*
X296335714Y-138196428D01*
X296242857Y-138167857D01*
X296180952Y-138110714D01*
X296150000Y-138053571D01*
X296119047Y-137939285D01*
X296119047Y-137853571D01*
X296150000Y-137739285D01*
X296180952Y-137682142D01*
X296242857Y-137625000D01*
X296335714Y-137596428D01*
X296397619Y-137596428D01*
X296490476Y-137625000D01*
X296521428Y-137653571D01*
X296769047Y-137653571D02*
X296800000Y-137625000D01*
X296861904Y-137596428D01*
X297016666Y-137596428D01*
X297078571Y-137625000D01*
X297109523Y-137653571D01*
X297140476Y-137710714D01*
X297140476Y-137767857D01*
X297109523Y-137853571D01*
X296738095Y-138196428D01*
X297140476Y-138196428D01*
G04 #@! TO.C,X3*
X290801190Y-129154761D02*
X291301190Y-128821428D01*
X290801190Y-128821428D02*
X291301190Y-129154761D01*
X290801190Y-128678571D02*
X290801190Y-128369047D01*
X290991666Y-128535714D01*
X290991666Y-128464285D01*
X291015476Y-128416666D01*
X291039285Y-128392857D01*
X291086904Y-128369047D01*
X291205952Y-128369047D01*
X291253571Y-128392857D01*
X291277380Y-128416666D01*
X291301190Y-128464285D01*
X291301190Y-128607142D01*
X291277380Y-128654761D01*
X291253571Y-128678571D01*
G04 #@! TO.C,SW1*
X267432380Y-142466666D02*
X267456190Y-142395238D01*
X267456190Y-142276190D01*
X267432380Y-142228571D01*
X267408571Y-142204761D01*
X267360952Y-142180952D01*
X267313333Y-142180952D01*
X267265714Y-142204761D01*
X267241904Y-142228571D01*
X267218095Y-142276190D01*
X267194285Y-142371428D01*
X267170476Y-142419047D01*
X267146666Y-142442857D01*
X267099047Y-142466666D01*
X267051428Y-142466666D01*
X267003809Y-142442857D01*
X266980000Y-142419047D01*
X266956190Y-142371428D01*
X266956190Y-142252380D01*
X266980000Y-142180952D01*
X266956190Y-142014285D02*
X267456190Y-141895238D01*
X267099047Y-141800000D01*
X267456190Y-141704761D01*
X266956190Y-141585714D01*
X267456190Y-141133333D02*
X267456190Y-141419047D01*
X267456190Y-141276190D02*
X266956190Y-141276190D01*
X267027619Y-141323809D01*
X267075238Y-141371428D01*
X267099047Y-141419047D01*
G04 #@! TD*
M02*
