G04 #@! TF.GenerationSoftware,KiCad,Pcbnew,(5.0.0)*
G04 #@! TF.CreationDate,2019-07-19T00:06:37-04:00*
G04 #@! TF.ProjectId,lp_ecg,6C705F6563672E6B696361645F706362,rev?*
G04 #@! TF.SameCoordinates,Original*
G04 #@! TF.FileFunction,Copper,L2,Bot,Signal*
G04 #@! TF.FilePolarity,Positive*
%FSLAX46Y46*%
G04 Gerber Fmt 4.6, Leading zero omitted, Abs format (unit mm)*
G04 Created by KiCad (PCBNEW (5.0.0)) date 07/19/19 00:06:37*
%MOMM*%
%LPD*%
G01*
G04 APERTURE LIST*
G04 #@! TA.AperFunction,ComponentPad*
%ADD10O,1.700000X1.700000*%
G04 #@! TD*
G04 #@! TA.AperFunction,ComponentPad*
%ADD11R,1.700000X1.700000*%
G04 #@! TD*
G04 #@! TA.AperFunction,ComponentPad*
%ADD12R,1.524000X1.524000*%
G04 #@! TD*
G04 #@! TA.AperFunction,ComponentPad*
%ADD13C,1.524000*%
G04 #@! TD*
G04 #@! TA.AperFunction,ViaPad*
%ADD14C,0.508000*%
G04 #@! TD*
G04 #@! TA.AperFunction,Conductor*
%ADD15C,0.152000*%
G04 #@! TD*
G04 #@! TA.AperFunction,Conductor*
%ADD16C,0.457200*%
G04 #@! TD*
G04 #@! TA.AperFunction,Conductor*
%ADD17C,0.229000*%
G04 #@! TD*
G04 #@! TA.AperFunction,Conductor*
%ADD18C,0.254000*%
G04 #@! TD*
G04 APERTURE END LIST*
D10*
G04 #@! TO.P,J1,2*
G04 #@! TO.N,Net-(IC2-Pad7)*
X296450000Y-127160000D03*
D11*
G04 #@! TO.P,J1,1*
G04 #@! TO.N,Net-(IC2-Pad6)*
X296450000Y-129700000D03*
G04 #@! TD*
G04 #@! TO.P,P3,1*
G04 #@! TO.N,5V_in_charge*
X295990000Y-144510000D03*
D10*
G04 #@! TO.P,P3,2*
G04 #@! TO.N,DGND*
X295990000Y-141970000D03*
G04 #@! TD*
D12*
G04 #@! TO.P,P2,1*
G04 #@! TO.N,/SWDCLK*
X281500000Y-129560000D03*
D13*
G04 #@! TO.P,P2,2*
G04 #@! TO.N,/SWDIO*
X281500000Y-127020000D03*
G04 #@! TD*
D12*
G04 #@! TO.P,P1,1*
G04 #@! TO.N,/BATT_IN*
X292380000Y-144450000D03*
D13*
G04 #@! TO.P,P1,2*
G04 #@! TO.N,DGND*
X292380000Y-141910000D03*
G04 #@! TD*
D14*
G04 #@! TO.N,VccSwitch*
X289520000Y-140520000D03*
X289860000Y-144040000D03*
G04 #@! TO.N,DGND*
X279070000Y-128500000D03*
X268986000Y-135610000D03*
X276820000Y-128420000D03*
X282050000Y-141125000D03*
X278000000Y-141486046D03*
X283477609Y-129152609D03*
X285850000Y-129650000D03*
X288050000Y-128450000D03*
X292175000Y-130275000D03*
X293050000Y-131450000D03*
X294400000Y-128475000D03*
X282925000Y-138450000D03*
G04 #@! TO.N,/LOAD_SW_CTRL*
X277940000Y-140010000D03*
X275210000Y-144910000D03*
G04 #@! TO.N,/BATT_IN*
X290000000Y-145010000D03*
X288340000Y-141140000D03*
G04 #@! TO.N,1.8V*
X276550000Y-144420000D03*
X272990000Y-144160000D03*
X274660000Y-136990000D03*
X275050000Y-131125000D03*
X274725000Y-129450000D03*
X281275000Y-136800000D03*
X284875000Y-131150000D03*
X287175000Y-126750000D03*
X292375000Y-131550000D03*
X290675000Y-137500000D03*
X289975000Y-135525000D03*
X291300000Y-131600000D03*
G04 #@! TO.N,DGND*
X269350000Y-145025000D03*
G04 #@! TO.N,VccSwitch*
X272150000Y-141125000D03*
G04 #@! TD*
D15*
G04 #@! TO.N,VccSwitch*
X289520000Y-140520000D02*
X289860000Y-140860000D01*
X289860000Y-140860000D02*
X289860000Y-144040000D01*
G04 #@! TO.N,DGND*
X279070000Y-128500000D02*
X279040000Y-128500000D01*
X268986000Y-135610000D02*
X268990000Y-135610000D01*
X276810000Y-128430000D02*
X276800000Y-128430000D01*
X276820000Y-128420000D02*
X276810000Y-128430000D01*
X283975000Y-129650000D02*
X283477609Y-129152609D01*
X285850000Y-129650000D02*
X283975000Y-129650000D01*
X282825000Y-128500000D02*
X283477609Y-129152609D01*
X279070000Y-128500000D02*
X282825000Y-128500000D01*
X285850000Y-129650000D02*
X286850000Y-129650000D01*
X286850000Y-129650000D02*
X288050000Y-128450000D01*
X292175000Y-130275000D02*
X293050000Y-131150000D01*
X293050000Y-131150000D02*
X293050000Y-131450000D01*
X292600000Y-130275000D02*
X292175000Y-130275000D01*
X294400000Y-128475000D02*
X292600000Y-130275000D01*
X282925000Y-140250000D02*
X282050000Y-141125000D01*
X282925000Y-138450000D02*
X282925000Y-140250000D01*
G04 #@! TO.N,/LOAD_SW_CTRL*
X276773954Y-144910000D02*
X275210000Y-144910000D01*
X277032401Y-144651553D02*
X276773954Y-144910000D01*
X277032401Y-140917599D02*
X277940000Y-140010000D01*
X277032401Y-144651553D02*
X277032401Y-140917599D01*
G04 #@! TO.N,/BATT_IN*
X290000000Y-145010000D02*
X289940000Y-144950000D01*
X289940000Y-144950000D02*
X289370000Y-144960000D01*
X289370000Y-144960000D02*
X288340000Y-143930000D01*
X288340000Y-143930000D02*
X288340000Y-141140000D01*
G04 #@! TO.N,1.8V*
X276550000Y-144420000D02*
X273250000Y-144420000D01*
X273250000Y-144420000D02*
X272990000Y-144160000D01*
D16*
X272990000Y-144160000D02*
X272990000Y-138660000D01*
X272990000Y-138660000D02*
X274660000Y-136990000D01*
X274660000Y-136990000D02*
X274660000Y-131515000D01*
X274660000Y-131515000D02*
X275050000Y-131125000D01*
X275050000Y-131125000D02*
X275050000Y-129775000D01*
X275050000Y-129775000D02*
X274725000Y-129450000D01*
X281021001Y-137053999D02*
X281275000Y-136800000D01*
X280831001Y-137243999D02*
X281021001Y-137053999D01*
X274913999Y-137243999D02*
X280831001Y-137243999D01*
X274660000Y-136990000D02*
X274913999Y-137243999D01*
X284850000Y-131125000D02*
X284875000Y-131150000D01*
X275050000Y-131125000D02*
X284850000Y-131125000D01*
D17*
X285234210Y-131150000D02*
X284875000Y-131150000D01*
X286120934Y-131150000D02*
X285234210Y-131150000D01*
X288570901Y-128700033D02*
X286120934Y-131150000D01*
X287175000Y-126750000D02*
X288570901Y-128145901D01*
X290675000Y-137500000D02*
X292375000Y-135800000D01*
X289400000Y-128575000D02*
X292375000Y-131550000D01*
X288570901Y-128575000D02*
X289400000Y-128575000D01*
X288570901Y-128575000D02*
X288570901Y-128700033D01*
X288570901Y-128145901D02*
X288570901Y-128575000D01*
X292275000Y-135525000D02*
X292375000Y-135625000D01*
X289975000Y-135525000D02*
X292275000Y-135525000D01*
X292375000Y-135800000D02*
X292375000Y-135625000D01*
X292375000Y-135625000D02*
X292375000Y-131550000D01*
D15*
X292375000Y-131550000D02*
X291350000Y-131550000D01*
X291350000Y-131550000D02*
X291300000Y-131600000D01*
D16*
G04 #@! TO.N,VccSwitch*
X289266001Y-140266001D02*
X289520000Y-140520000D01*
X288274197Y-140266001D02*
X289266001Y-140266001D01*
X282995197Y-145545001D02*
X288274197Y-140266001D01*
X273435199Y-145545001D02*
X282995197Y-145545001D01*
X271896001Y-144005803D02*
X273435199Y-145545001D01*
X271896001Y-141378999D02*
X271896001Y-144005803D01*
X272150000Y-141125000D02*
X271896001Y-141378999D01*
G04 #@! TD*
D18*
G04 #@! TO.N,DGND*
G36*
X280315680Y-126228663D02*
X280103000Y-126742119D01*
X280103000Y-127297881D01*
X280315680Y-127811337D01*
X280668690Y-128164347D01*
X280490235Y-128199843D01*
X280280191Y-128340191D01*
X280139843Y-128550235D01*
X280090560Y-128798000D01*
X280090560Y-130261400D01*
X275913600Y-130261400D01*
X275913600Y-129860047D01*
X275930517Y-129774999D01*
X275913600Y-129689951D01*
X275913600Y-129689947D01*
X275863493Y-129438040D01*
X275672620Y-129152380D01*
X275600513Y-129104200D01*
X275504059Y-129007745D01*
X275478658Y-128946422D01*
X275228578Y-128696342D01*
X274901833Y-128561000D01*
X274548167Y-128561000D01*
X274221422Y-128696342D01*
X273971342Y-128946422D01*
X273836000Y-129273167D01*
X273836000Y-129626833D01*
X273971342Y-129953578D01*
X274186401Y-130168637D01*
X274186400Y-130767286D01*
X274109486Y-130844201D01*
X274037381Y-130892380D01*
X273959029Y-131009641D01*
X273846507Y-131178041D01*
X273779483Y-131515000D01*
X273796401Y-131600054D01*
X273796400Y-136632285D01*
X272439486Y-137989200D01*
X272367381Y-138037380D01*
X272254704Y-138206012D01*
X272176507Y-138323041D01*
X272109483Y-138660000D01*
X272126401Y-138745054D01*
X272126401Y-140236000D01*
X271973167Y-140236000D01*
X271646422Y-140371342D01*
X271396342Y-140621422D01*
X271370941Y-140682746D01*
X271345489Y-140708198D01*
X271273381Y-140756379D01*
X271082508Y-141042040D01*
X271032401Y-141293947D01*
X271032401Y-141293950D01*
X271015484Y-141378999D01*
X271032401Y-141464048D01*
X271032402Y-143920749D01*
X271015484Y-144005803D01*
X271082508Y-144342762D01*
X271082509Y-144342763D01*
X271273382Y-144628423D01*
X271345487Y-144676603D01*
X271963884Y-145295000D01*
X266585000Y-145295000D01*
X266585000Y-132127000D01*
X272550000Y-132127000D01*
X272598601Y-132117333D01*
X272639803Y-132089803D01*
X272667333Y-132048601D01*
X272677000Y-132000000D01*
X272677000Y-126185000D01*
X280359343Y-126185000D01*
X280315680Y-126228663D01*
X280315680Y-126228663D01*
G37*
X280315680Y-126228663D02*
X280103000Y-126742119D01*
X280103000Y-127297881D01*
X280315680Y-127811337D01*
X280668690Y-128164347D01*
X280490235Y-128199843D01*
X280280191Y-128340191D01*
X280139843Y-128550235D01*
X280090560Y-128798000D01*
X280090560Y-130261400D01*
X275913600Y-130261400D01*
X275913600Y-129860047D01*
X275930517Y-129774999D01*
X275913600Y-129689951D01*
X275913600Y-129689947D01*
X275863493Y-129438040D01*
X275672620Y-129152380D01*
X275600513Y-129104200D01*
X275504059Y-129007745D01*
X275478658Y-128946422D01*
X275228578Y-128696342D01*
X274901833Y-128561000D01*
X274548167Y-128561000D01*
X274221422Y-128696342D01*
X273971342Y-128946422D01*
X273836000Y-129273167D01*
X273836000Y-129626833D01*
X273971342Y-129953578D01*
X274186401Y-130168637D01*
X274186400Y-130767286D01*
X274109486Y-130844201D01*
X274037381Y-130892380D01*
X273959029Y-131009641D01*
X273846507Y-131178041D01*
X273779483Y-131515000D01*
X273796401Y-131600054D01*
X273796400Y-136632285D01*
X272439486Y-137989200D01*
X272367381Y-138037380D01*
X272254704Y-138206012D01*
X272176507Y-138323041D01*
X272109483Y-138660000D01*
X272126401Y-138745054D01*
X272126401Y-140236000D01*
X271973167Y-140236000D01*
X271646422Y-140371342D01*
X271396342Y-140621422D01*
X271370941Y-140682746D01*
X271345489Y-140708198D01*
X271273381Y-140756379D01*
X271082508Y-141042040D01*
X271032401Y-141293947D01*
X271032401Y-141293950D01*
X271015484Y-141378999D01*
X271032401Y-141464048D01*
X271032402Y-143920749D01*
X271015484Y-144005803D01*
X271082508Y-144342762D01*
X271082509Y-144342763D01*
X271273382Y-144628423D01*
X271345487Y-144676603D01*
X271963884Y-145295000D01*
X266585000Y-145295000D01*
X266585000Y-132127000D01*
X272550000Y-132127000D01*
X272598601Y-132117333D01*
X272639803Y-132089803D01*
X272667333Y-132048601D01*
X272677000Y-132000000D01*
X272677000Y-126185000D01*
X280359343Y-126185000D01*
X280315680Y-126228663D01*
G36*
X295051161Y-126580582D02*
X294935908Y-127160000D01*
X295051161Y-127739418D01*
X295379375Y-128230625D01*
X295397619Y-128242816D01*
X295352235Y-128251843D01*
X295142191Y-128392191D01*
X295001843Y-128602235D01*
X294952560Y-128850000D01*
X294952560Y-130550000D01*
X295001843Y-130797765D01*
X295142191Y-131007809D01*
X295352235Y-131148157D01*
X295600000Y-131197440D01*
X297300000Y-131197440D01*
X297415001Y-131174565D01*
X297415000Y-141573331D01*
X297261645Y-141203076D01*
X296871358Y-140774817D01*
X296346892Y-140528514D01*
X296117000Y-140649181D01*
X296117000Y-141843000D01*
X296137000Y-141843000D01*
X296137000Y-142097000D01*
X296117000Y-142097000D01*
X296117000Y-142117000D01*
X295863000Y-142117000D01*
X295863000Y-142097000D01*
X294669845Y-142097000D01*
X294548524Y-142326890D01*
X294718355Y-142736924D01*
X294995708Y-143041261D01*
X294892235Y-143061843D01*
X294682191Y-143202191D01*
X294541843Y-143412235D01*
X294492560Y-143660000D01*
X294492560Y-145295000D01*
X293772930Y-145295000D01*
X293789440Y-145212000D01*
X293789440Y-143688000D01*
X293740157Y-143440235D01*
X293599809Y-143230191D01*
X293389765Y-143089843D01*
X293142000Y-143040560D01*
X293137484Y-143040560D01*
X293180608Y-142890213D01*
X292380000Y-142089605D01*
X291579392Y-142890213D01*
X291622516Y-143040560D01*
X291618000Y-143040560D01*
X291370235Y-143089843D01*
X291160191Y-143230191D01*
X291019843Y-143440235D01*
X290970560Y-143688000D01*
X290970560Y-145212000D01*
X290987070Y-145295000D01*
X290844196Y-145295000D01*
X290889000Y-145186833D01*
X290889000Y-144833167D01*
X290753658Y-144506422D01*
X290665546Y-144418310D01*
X290749000Y-144216833D01*
X290749000Y-143863167D01*
X290613658Y-143536422D01*
X290571000Y-143493764D01*
X290571000Y-141702302D01*
X290970856Y-141702302D01*
X290998638Y-142257368D01*
X291157603Y-142641143D01*
X291399787Y-142710608D01*
X292200395Y-141910000D01*
X292559605Y-141910000D01*
X293360213Y-142710608D01*
X293602397Y-142641143D01*
X293789144Y-142117698D01*
X293763889Y-141613110D01*
X294548524Y-141613110D01*
X294669845Y-141843000D01*
X295863000Y-141843000D01*
X295863000Y-140649181D01*
X295633108Y-140528514D01*
X295108642Y-140774817D01*
X294718355Y-141203076D01*
X294548524Y-141613110D01*
X293763889Y-141613110D01*
X293761362Y-141562632D01*
X293602397Y-141178857D01*
X293360213Y-141109392D01*
X292559605Y-141910000D01*
X292200395Y-141910000D01*
X291399787Y-141109392D01*
X291157603Y-141178857D01*
X290970856Y-141702302D01*
X290571000Y-141702302D01*
X290571000Y-140930022D01*
X290571046Y-140929787D01*
X291579392Y-140929787D01*
X292380000Y-141730395D01*
X293180608Y-140929787D01*
X293111143Y-140687603D01*
X292587698Y-140500856D01*
X292032632Y-140528638D01*
X291648857Y-140687603D01*
X291579392Y-140929787D01*
X290571046Y-140929787D01*
X290584928Y-140860000D01*
X290571000Y-140789978D01*
X290571000Y-140789974D01*
X290533801Y-140602961D01*
X290529747Y-140582581D01*
X290412269Y-140406764D01*
X290412267Y-140406762D01*
X290409000Y-140401873D01*
X290409000Y-140343167D01*
X290273658Y-140016422D01*
X290023578Y-139766342D01*
X289962254Y-139740941D01*
X289936802Y-139715489D01*
X289888621Y-139643381D01*
X289602961Y-139452508D01*
X289351054Y-139402401D01*
X289351050Y-139402401D01*
X289266001Y-139385484D01*
X289180952Y-139402401D01*
X288359244Y-139402401D01*
X288274196Y-139385484D01*
X288189148Y-139402401D01*
X288189144Y-139402401D01*
X287937237Y-139452508D01*
X287651577Y-139643381D01*
X287603399Y-139715484D01*
X282637484Y-144681401D01*
X277751392Y-144681401D01*
X277757329Y-144651554D01*
X277743401Y-144581533D01*
X277743401Y-141212104D01*
X278056505Y-140899000D01*
X278116833Y-140899000D01*
X278443578Y-140763658D01*
X278693658Y-140513578D01*
X278829000Y-140186833D01*
X278829000Y-139833167D01*
X278693658Y-139506422D01*
X278443578Y-139256342D01*
X278116833Y-139121000D01*
X277763167Y-139121000D01*
X277436422Y-139256342D01*
X277186342Y-139506422D01*
X277051000Y-139833167D01*
X277051000Y-139893495D01*
X276579163Y-140365332D01*
X276519800Y-140404997D01*
X276480135Y-140464360D01*
X276480133Y-140464362D01*
X276412551Y-140565506D01*
X276362655Y-140640181D01*
X276331379Y-140797418D01*
X276307473Y-140917599D01*
X276321402Y-140987624D01*
X276321401Y-143552442D01*
X276046422Y-143666342D01*
X276003764Y-143709000D01*
X273853600Y-143709000D01*
X273853600Y-139017713D01*
X274774538Y-138096777D01*
X274828946Y-138107599D01*
X274828950Y-138107599D01*
X274913999Y-138124516D01*
X274999048Y-138107599D01*
X280745952Y-138107599D01*
X280831001Y-138124516D01*
X280916050Y-138107599D01*
X280916054Y-138107599D01*
X281167961Y-138057492D01*
X281453621Y-137866619D01*
X281501802Y-137794511D01*
X281691800Y-137604514D01*
X281691801Y-137604512D01*
X281717254Y-137579059D01*
X281778578Y-137553658D01*
X282028658Y-137303578D01*
X282164000Y-136976833D01*
X282164000Y-136623167D01*
X282028658Y-136296422D01*
X281778578Y-136046342D01*
X281451833Y-135911000D01*
X281098167Y-135911000D01*
X280771422Y-136046342D01*
X280521342Y-136296422D01*
X280495941Y-136357746D01*
X280473288Y-136380399D01*
X275523600Y-136380399D01*
X275523600Y-131988600D01*
X284576490Y-131988600D01*
X284698167Y-132039000D01*
X285051833Y-132039000D01*
X285378578Y-131903658D01*
X285382736Y-131899500D01*
X286047119Y-131899500D01*
X286120934Y-131914183D01*
X286194749Y-131899500D01*
X286194750Y-131899500D01*
X286413374Y-131856013D01*
X286661293Y-131690359D01*
X286703109Y-131627777D01*
X289006387Y-129324500D01*
X289089548Y-129324500D01*
X290703906Y-130938858D01*
X290546342Y-131096422D01*
X290411000Y-131423167D01*
X290411000Y-131776833D01*
X290546342Y-132103578D01*
X290796422Y-132353658D01*
X291123167Y-132489000D01*
X291476833Y-132489000D01*
X291625501Y-132427420D01*
X291625500Y-134775500D01*
X290482736Y-134775500D01*
X290478578Y-134771342D01*
X290151833Y-134636000D01*
X289798167Y-134636000D01*
X289471422Y-134771342D01*
X289221342Y-135021422D01*
X289086000Y-135348167D01*
X289086000Y-135701833D01*
X289221342Y-136028578D01*
X289471422Y-136278658D01*
X289798167Y-136414000D01*
X290151833Y-136414000D01*
X290478578Y-136278658D01*
X290482736Y-136274500D01*
X290840548Y-136274500D01*
X290504048Y-136611000D01*
X290498167Y-136611000D01*
X290171422Y-136746342D01*
X289921342Y-136996422D01*
X289786000Y-137323167D01*
X289786000Y-137676833D01*
X289921342Y-138003578D01*
X290171422Y-138253658D01*
X290498167Y-138389000D01*
X290851833Y-138389000D01*
X291178578Y-138253658D01*
X291428658Y-138003578D01*
X291564000Y-137676833D01*
X291564000Y-137670952D01*
X292852781Y-136382172D01*
X292915359Y-136340359D01*
X293081013Y-136092440D01*
X293124500Y-135873816D01*
X293124500Y-135873812D01*
X293139182Y-135800001D01*
X293124500Y-135726189D01*
X293124500Y-135698811D01*
X293139182Y-135624999D01*
X293124500Y-135551188D01*
X293124500Y-132057736D01*
X293128658Y-132053578D01*
X293264000Y-131726833D01*
X293264000Y-131373167D01*
X293128658Y-131046422D01*
X292878578Y-130796342D01*
X292551833Y-130661000D01*
X292545953Y-130661000D01*
X289982175Y-128097223D01*
X289940359Y-128034641D01*
X289692440Y-127868987D01*
X289473816Y-127825500D01*
X289473815Y-127825500D01*
X289400000Y-127810817D01*
X289326185Y-127825500D01*
X289258231Y-127825500D01*
X289111260Y-127605542D01*
X289048682Y-127563729D01*
X288064000Y-126579048D01*
X288064000Y-126573167D01*
X287928658Y-126246422D01*
X287867236Y-126185000D01*
X295315480Y-126185000D01*
X295051161Y-126580582D01*
X295051161Y-126580582D01*
G37*
X295051161Y-126580582D02*
X294935908Y-127160000D01*
X295051161Y-127739418D01*
X295379375Y-128230625D01*
X295397619Y-128242816D01*
X295352235Y-128251843D01*
X295142191Y-128392191D01*
X295001843Y-128602235D01*
X294952560Y-128850000D01*
X294952560Y-130550000D01*
X295001843Y-130797765D01*
X295142191Y-131007809D01*
X295352235Y-131148157D01*
X295600000Y-131197440D01*
X297300000Y-131197440D01*
X297415001Y-131174565D01*
X297415000Y-141573331D01*
X297261645Y-141203076D01*
X296871358Y-140774817D01*
X296346892Y-140528514D01*
X296117000Y-140649181D01*
X296117000Y-141843000D01*
X296137000Y-141843000D01*
X296137000Y-142097000D01*
X296117000Y-142097000D01*
X296117000Y-142117000D01*
X295863000Y-142117000D01*
X295863000Y-142097000D01*
X294669845Y-142097000D01*
X294548524Y-142326890D01*
X294718355Y-142736924D01*
X294995708Y-143041261D01*
X294892235Y-143061843D01*
X294682191Y-143202191D01*
X294541843Y-143412235D01*
X294492560Y-143660000D01*
X294492560Y-145295000D01*
X293772930Y-145295000D01*
X293789440Y-145212000D01*
X293789440Y-143688000D01*
X293740157Y-143440235D01*
X293599809Y-143230191D01*
X293389765Y-143089843D01*
X293142000Y-143040560D01*
X293137484Y-143040560D01*
X293180608Y-142890213D01*
X292380000Y-142089605D01*
X291579392Y-142890213D01*
X291622516Y-143040560D01*
X291618000Y-143040560D01*
X291370235Y-143089843D01*
X291160191Y-143230191D01*
X291019843Y-143440235D01*
X290970560Y-143688000D01*
X290970560Y-145212000D01*
X290987070Y-145295000D01*
X290844196Y-145295000D01*
X290889000Y-145186833D01*
X290889000Y-144833167D01*
X290753658Y-144506422D01*
X290665546Y-144418310D01*
X290749000Y-144216833D01*
X290749000Y-143863167D01*
X290613658Y-143536422D01*
X290571000Y-143493764D01*
X290571000Y-141702302D01*
X290970856Y-141702302D01*
X290998638Y-142257368D01*
X291157603Y-142641143D01*
X291399787Y-142710608D01*
X292200395Y-141910000D01*
X292559605Y-141910000D01*
X293360213Y-142710608D01*
X293602397Y-142641143D01*
X293789144Y-142117698D01*
X293763889Y-141613110D01*
X294548524Y-141613110D01*
X294669845Y-141843000D01*
X295863000Y-141843000D01*
X295863000Y-140649181D01*
X295633108Y-140528514D01*
X295108642Y-140774817D01*
X294718355Y-141203076D01*
X294548524Y-141613110D01*
X293763889Y-141613110D01*
X293761362Y-141562632D01*
X293602397Y-141178857D01*
X293360213Y-141109392D01*
X292559605Y-141910000D01*
X292200395Y-141910000D01*
X291399787Y-141109392D01*
X291157603Y-141178857D01*
X290970856Y-141702302D01*
X290571000Y-141702302D01*
X290571000Y-140930022D01*
X290571046Y-140929787D01*
X291579392Y-140929787D01*
X292380000Y-141730395D01*
X293180608Y-140929787D01*
X293111143Y-140687603D01*
X292587698Y-140500856D01*
X292032632Y-140528638D01*
X291648857Y-140687603D01*
X291579392Y-140929787D01*
X290571046Y-140929787D01*
X290584928Y-140860000D01*
X290571000Y-140789978D01*
X290571000Y-140789974D01*
X290533801Y-140602961D01*
X290529747Y-140582581D01*
X290412269Y-140406764D01*
X290412267Y-140406762D01*
X290409000Y-140401873D01*
X290409000Y-140343167D01*
X290273658Y-140016422D01*
X290023578Y-139766342D01*
X289962254Y-139740941D01*
X289936802Y-139715489D01*
X289888621Y-139643381D01*
X289602961Y-139452508D01*
X289351054Y-139402401D01*
X289351050Y-139402401D01*
X289266001Y-139385484D01*
X289180952Y-139402401D01*
X288359244Y-139402401D01*
X288274196Y-139385484D01*
X288189148Y-139402401D01*
X288189144Y-139402401D01*
X287937237Y-139452508D01*
X287651577Y-139643381D01*
X287603399Y-139715484D01*
X282637484Y-144681401D01*
X277751392Y-144681401D01*
X277757329Y-144651554D01*
X277743401Y-144581533D01*
X277743401Y-141212104D01*
X278056505Y-140899000D01*
X278116833Y-140899000D01*
X278443578Y-140763658D01*
X278693658Y-140513578D01*
X278829000Y-140186833D01*
X278829000Y-139833167D01*
X278693658Y-139506422D01*
X278443578Y-139256342D01*
X278116833Y-139121000D01*
X277763167Y-139121000D01*
X277436422Y-139256342D01*
X277186342Y-139506422D01*
X277051000Y-139833167D01*
X277051000Y-139893495D01*
X276579163Y-140365332D01*
X276519800Y-140404997D01*
X276480135Y-140464360D01*
X276480133Y-140464362D01*
X276412551Y-140565506D01*
X276362655Y-140640181D01*
X276331379Y-140797418D01*
X276307473Y-140917599D01*
X276321402Y-140987624D01*
X276321401Y-143552442D01*
X276046422Y-143666342D01*
X276003764Y-143709000D01*
X273853600Y-143709000D01*
X273853600Y-139017713D01*
X274774538Y-138096777D01*
X274828946Y-138107599D01*
X274828950Y-138107599D01*
X274913999Y-138124516D01*
X274999048Y-138107599D01*
X280745952Y-138107599D01*
X280831001Y-138124516D01*
X280916050Y-138107599D01*
X280916054Y-138107599D01*
X281167961Y-138057492D01*
X281453621Y-137866619D01*
X281501802Y-137794511D01*
X281691800Y-137604514D01*
X281691801Y-137604512D01*
X281717254Y-137579059D01*
X281778578Y-137553658D01*
X282028658Y-137303578D01*
X282164000Y-136976833D01*
X282164000Y-136623167D01*
X282028658Y-136296422D01*
X281778578Y-136046342D01*
X281451833Y-135911000D01*
X281098167Y-135911000D01*
X280771422Y-136046342D01*
X280521342Y-136296422D01*
X280495941Y-136357746D01*
X280473288Y-136380399D01*
X275523600Y-136380399D01*
X275523600Y-131988600D01*
X284576490Y-131988600D01*
X284698167Y-132039000D01*
X285051833Y-132039000D01*
X285378578Y-131903658D01*
X285382736Y-131899500D01*
X286047119Y-131899500D01*
X286120934Y-131914183D01*
X286194749Y-131899500D01*
X286194750Y-131899500D01*
X286413374Y-131856013D01*
X286661293Y-131690359D01*
X286703109Y-131627777D01*
X289006387Y-129324500D01*
X289089548Y-129324500D01*
X290703906Y-130938858D01*
X290546342Y-131096422D01*
X290411000Y-131423167D01*
X290411000Y-131776833D01*
X290546342Y-132103578D01*
X290796422Y-132353658D01*
X291123167Y-132489000D01*
X291476833Y-132489000D01*
X291625501Y-132427420D01*
X291625500Y-134775500D01*
X290482736Y-134775500D01*
X290478578Y-134771342D01*
X290151833Y-134636000D01*
X289798167Y-134636000D01*
X289471422Y-134771342D01*
X289221342Y-135021422D01*
X289086000Y-135348167D01*
X289086000Y-135701833D01*
X289221342Y-136028578D01*
X289471422Y-136278658D01*
X289798167Y-136414000D01*
X290151833Y-136414000D01*
X290478578Y-136278658D01*
X290482736Y-136274500D01*
X290840548Y-136274500D01*
X290504048Y-136611000D01*
X290498167Y-136611000D01*
X290171422Y-136746342D01*
X289921342Y-136996422D01*
X289786000Y-137323167D01*
X289786000Y-137676833D01*
X289921342Y-138003578D01*
X290171422Y-138253658D01*
X290498167Y-138389000D01*
X290851833Y-138389000D01*
X291178578Y-138253658D01*
X291428658Y-138003578D01*
X291564000Y-137676833D01*
X291564000Y-137670952D01*
X292852781Y-136382172D01*
X292915359Y-136340359D01*
X293081013Y-136092440D01*
X293124500Y-135873816D01*
X293124500Y-135873812D01*
X293139182Y-135800001D01*
X293124500Y-135726189D01*
X293124500Y-135698811D01*
X293139182Y-135624999D01*
X293124500Y-135551188D01*
X293124500Y-132057736D01*
X293128658Y-132053578D01*
X293264000Y-131726833D01*
X293264000Y-131373167D01*
X293128658Y-131046422D01*
X292878578Y-130796342D01*
X292551833Y-130661000D01*
X292545953Y-130661000D01*
X289982175Y-128097223D01*
X289940359Y-128034641D01*
X289692440Y-127868987D01*
X289473816Y-127825500D01*
X289473815Y-127825500D01*
X289400000Y-127810817D01*
X289326185Y-127825500D01*
X289258231Y-127825500D01*
X289111260Y-127605542D01*
X289048682Y-127563729D01*
X288064000Y-126579048D01*
X288064000Y-126573167D01*
X287928658Y-126246422D01*
X287867236Y-126185000D01*
X295315480Y-126185000D01*
X295051161Y-126580582D01*
G36*
X286421342Y-126246422D02*
X286286000Y-126573167D01*
X286286000Y-126926833D01*
X286421342Y-127253578D01*
X286671422Y-127503658D01*
X286998167Y-127639000D01*
X287004048Y-127639000D01*
X287788014Y-128422967D01*
X285810482Y-130400500D01*
X285382736Y-130400500D01*
X285378578Y-130396342D01*
X285208476Y-130325883D01*
X285186960Y-130311507D01*
X285161580Y-130306459D01*
X285051833Y-130261000D01*
X284933038Y-130261000D01*
X284850000Y-130244483D01*
X284766962Y-130261000D01*
X284698167Y-130261000D01*
X284697201Y-130261400D01*
X282909440Y-130261400D01*
X282909440Y-128798000D01*
X282860157Y-128550235D01*
X282719809Y-128340191D01*
X282509765Y-128199843D01*
X282331310Y-128164347D01*
X282684320Y-127811337D01*
X282897000Y-127297881D01*
X282897000Y-126742119D01*
X282684320Y-126228663D01*
X282640657Y-126185000D01*
X286482764Y-126185000D01*
X286421342Y-126246422D01*
X286421342Y-126246422D01*
G37*
X286421342Y-126246422D02*
X286286000Y-126573167D01*
X286286000Y-126926833D01*
X286421342Y-127253578D01*
X286671422Y-127503658D01*
X286998167Y-127639000D01*
X287004048Y-127639000D01*
X287788014Y-128422967D01*
X285810482Y-130400500D01*
X285382736Y-130400500D01*
X285378578Y-130396342D01*
X285208476Y-130325883D01*
X285186960Y-130311507D01*
X285161580Y-130306459D01*
X285051833Y-130261000D01*
X284933038Y-130261000D01*
X284850000Y-130244483D01*
X284766962Y-130261000D01*
X284698167Y-130261000D01*
X284697201Y-130261400D01*
X282909440Y-130261400D01*
X282909440Y-128798000D01*
X282860157Y-128550235D01*
X282719809Y-128340191D01*
X282509765Y-128199843D01*
X282331310Y-128164347D01*
X282684320Y-127811337D01*
X282897000Y-127297881D01*
X282897000Y-126742119D01*
X282684320Y-126228663D01*
X282640657Y-126185000D01*
X286482764Y-126185000D01*
X286421342Y-126246422D01*
G04 #@! TD*
M02*
