M48
;DRILL file {KiCad (5.0.0)} date 07/19/19 00:07:00
;FORMAT={-:-/ absolute / inch / decimal}
FMAT,2
INCH,TZ
T1C0.0130
T2C0.0394
T3C0.0400
%
G90
G05
M72
T1
X10.59Y-5.339
X10.6043Y-5.7096
X10.7146Y-5.5561
X10.7476Y-5.6756
X10.8134Y-5.3933
X10.8159Y-5.0965
X10.8287Y-5.1624
X10.835Y-5.7051
X10.8878Y-5.6858
X10.8984Y-5.0559
X10.9425Y-5.5122
X10.9449Y-5.5703
X10.987Y-5.0591
X11.0738Y-5.3858
X11.1043Y-5.5561
X11.1388Y-5.4508
X11.1605Y-5.0847
X11.2156Y-5.1634
X11.2539Y-5.1043
X11.3061Y-4.9902
X11.3406Y-5.0571
X11.352Y-5.5567
X11.3984Y-5.5323
X11.4118Y-5.6709
X11.4163Y-5.3356
X11.4173Y-5.7091
X11.4439Y-5.4134
X11.4685Y-5.1811
X11.503Y-5.1289
X11.5108Y-5.1791
X11.5374Y-5.1752
X11.5906Y-5.0581
T2
X11.6531Y-5.5894
X11.6531Y-5.6894
X11.6713Y-5.0063
X11.6713Y-5.1063
T3
X11.511Y-5.587
X11.511Y-5.687
X11.0827Y-5.0008
X11.0827Y-5.1008
T0
M30
