G04 #@! TF.GenerationSoftware,KiCad,Pcbnew,(5.0.0)*
G04 #@! TF.CreationDate,2019-07-19T00:06:37-04:00*
G04 #@! TF.ProjectId,lp_ecg,6C705F6563672E6B696361645F706362,rev?*
G04 #@! TF.SameCoordinates,Original*
G04 #@! TF.FileFunction,Legend,Bot*
G04 #@! TF.FilePolarity,Positive*
%FSLAX46Y46*%
G04 Gerber Fmt 4.6, Leading zero omitted, Abs format (unit mm)*
G04 Created by KiCad (PCBNEW (5.0.0)) date 07/19/19 00:06:37*
%MOMM*%
%LPD*%
G01*
G04 APERTURE LIST*
%ADD10C,0.127000*%
G04 APERTURE END LIST*
D10*
X286457571Y-133124714D02*
X286820428Y-133124714D01*
X286820428Y-132362714D01*
X286094714Y-133124714D02*
X286167285Y-133088428D01*
X286203571Y-133052142D01*
X286239857Y-132979571D01*
X286239857Y-132761857D01*
X286203571Y-132689285D01*
X286167285Y-132653000D01*
X286094714Y-132616714D01*
X285985857Y-132616714D01*
X285913285Y-132653000D01*
X285877000Y-132689285D01*
X285840714Y-132761857D01*
X285840714Y-132979571D01*
X285877000Y-133052142D01*
X285913285Y-133088428D01*
X285985857Y-133124714D01*
X286094714Y-133124714D01*
X285586714Y-132616714D02*
X285441571Y-133124714D01*
X285296428Y-132761857D01*
X285151285Y-133124714D01*
X285006142Y-132616714D01*
X284135285Y-133124714D02*
X284135285Y-132362714D01*
X283845000Y-132362714D01*
X283772428Y-132399000D01*
X283736142Y-132435285D01*
X283699857Y-132507857D01*
X283699857Y-132616714D01*
X283736142Y-132689285D01*
X283772428Y-132725571D01*
X283845000Y-132761857D01*
X284135285Y-132761857D01*
X283264428Y-133124714D02*
X283337000Y-133088428D01*
X283373285Y-133052142D01*
X283409571Y-132979571D01*
X283409571Y-132761857D01*
X283373285Y-132689285D01*
X283337000Y-132653000D01*
X283264428Y-132616714D01*
X283155571Y-132616714D01*
X283083000Y-132653000D01*
X283046714Y-132689285D01*
X283010428Y-132761857D01*
X283010428Y-132979571D01*
X283046714Y-133052142D01*
X283083000Y-133088428D01*
X283155571Y-133124714D01*
X283264428Y-133124714D01*
X282756428Y-132616714D02*
X282611285Y-133124714D01*
X282466142Y-132761857D01*
X282321000Y-133124714D01*
X282175857Y-132616714D01*
X281595285Y-133088428D02*
X281667857Y-133124714D01*
X281813000Y-133124714D01*
X281885571Y-133088428D01*
X281921857Y-133015857D01*
X281921857Y-132725571D01*
X281885571Y-132653000D01*
X281813000Y-132616714D01*
X281667857Y-132616714D01*
X281595285Y-132653000D01*
X281559000Y-132725571D01*
X281559000Y-132798142D01*
X281921857Y-132870714D01*
X281232428Y-133124714D02*
X281232428Y-132616714D01*
X281232428Y-132761857D02*
X281196142Y-132689285D01*
X281159857Y-132653000D01*
X281087285Y-132616714D01*
X281014714Y-132616714D01*
X280180142Y-132725571D02*
X279926142Y-132725571D01*
X279817285Y-133124714D02*
X280180142Y-133124714D01*
X280180142Y-132362714D01*
X279817285Y-132362714D01*
X279055285Y-133052142D02*
X279091571Y-133088428D01*
X279200428Y-133124714D01*
X279273000Y-133124714D01*
X279381857Y-133088428D01*
X279454428Y-133015857D01*
X279490714Y-132943285D01*
X279527000Y-132798142D01*
X279527000Y-132689285D01*
X279490714Y-132544142D01*
X279454428Y-132471571D01*
X279381857Y-132399000D01*
X279273000Y-132362714D01*
X279200428Y-132362714D01*
X279091571Y-132399000D01*
X279055285Y-132435285D01*
X278329571Y-132399000D02*
X278402142Y-132362714D01*
X278511000Y-132362714D01*
X278619857Y-132399000D01*
X278692428Y-132471571D01*
X278728714Y-132544142D01*
X278765000Y-132689285D01*
X278765000Y-132798142D01*
X278728714Y-132943285D01*
X278692428Y-133015857D01*
X278619857Y-133088428D01*
X278511000Y-133124714D01*
X278438428Y-133124714D01*
X278329571Y-133088428D01*
X278293285Y-133052142D01*
X278293285Y-132798142D01*
X278438428Y-132798142D01*
X288253714Y-134031857D02*
X288253714Y-134394714D01*
X288507714Y-133632714D02*
X288253714Y-134031857D01*
X287999714Y-133632714D01*
X287455428Y-134358428D02*
X287528000Y-134394714D01*
X287673142Y-134394714D01*
X287745714Y-134358428D01*
X287782000Y-134285857D01*
X287782000Y-133995571D01*
X287745714Y-133923000D01*
X287673142Y-133886714D01*
X287528000Y-133886714D01*
X287455428Y-133923000D01*
X287419142Y-133995571D01*
X287419142Y-134068142D01*
X287782000Y-134140714D01*
X286983714Y-134394714D02*
X287056285Y-134358428D01*
X287092571Y-134322142D01*
X287128857Y-134249571D01*
X287128857Y-134031857D01*
X287092571Y-133959285D01*
X287056285Y-133923000D01*
X286983714Y-133886714D01*
X286874857Y-133886714D01*
X286802285Y-133923000D01*
X286766000Y-133959285D01*
X286729714Y-134031857D01*
X286729714Y-134249571D01*
X286766000Y-134322142D01*
X286802285Y-134358428D01*
X286874857Y-134394714D01*
X286983714Y-134394714D01*
X285423428Y-133669000D02*
X285496000Y-133632714D01*
X285604857Y-133632714D01*
X285713714Y-133669000D01*
X285786285Y-133741571D01*
X285822571Y-133814142D01*
X285858857Y-133959285D01*
X285858857Y-134068142D01*
X285822571Y-134213285D01*
X285786285Y-134285857D01*
X285713714Y-134358428D01*
X285604857Y-134394714D01*
X285532285Y-134394714D01*
X285423428Y-134358428D01*
X285387142Y-134322142D01*
X285387142Y-134068142D01*
X285532285Y-134068142D01*
X284734000Y-134394714D02*
X284734000Y-133995571D01*
X284770285Y-133923000D01*
X284842857Y-133886714D01*
X284988000Y-133886714D01*
X285060571Y-133923000D01*
X284734000Y-134358428D02*
X284806571Y-134394714D01*
X284988000Y-134394714D01*
X285060571Y-134358428D01*
X285096857Y-134285857D01*
X285096857Y-134213285D01*
X285060571Y-134140714D01*
X284988000Y-134104428D01*
X284806571Y-134104428D01*
X284734000Y-134068142D01*
X284480000Y-133632714D02*
X284044571Y-133632714D01*
X284262285Y-134394714D02*
X284262285Y-133632714D01*
X283500285Y-134358428D02*
X283572857Y-134394714D01*
X283718000Y-134394714D01*
X283790571Y-134358428D01*
X283826857Y-134285857D01*
X283826857Y-133995571D01*
X283790571Y-133923000D01*
X283718000Y-133886714D01*
X283572857Y-133886714D01*
X283500285Y-133923000D01*
X283464000Y-133995571D01*
X283464000Y-134068142D01*
X283826857Y-134140714D01*
X282810857Y-134358428D02*
X282883428Y-134394714D01*
X283028571Y-134394714D01*
X283101142Y-134358428D01*
X283137428Y-134322142D01*
X283173714Y-134249571D01*
X283173714Y-134031857D01*
X283137428Y-133959285D01*
X283101142Y-133923000D01*
X283028571Y-133886714D01*
X282883428Y-133886714D01*
X282810857Y-133923000D01*
X282484285Y-134394714D02*
X282484285Y-133632714D01*
X282157714Y-134394714D02*
X282157714Y-133995571D01*
X282194000Y-133923000D01*
X282266571Y-133886714D01*
X282375428Y-133886714D01*
X282448000Y-133923000D01*
X282484285Y-133959285D01*
X280960285Y-133995571D02*
X280851428Y-134031857D01*
X280815142Y-134068142D01*
X280778857Y-134140714D01*
X280778857Y-134249571D01*
X280815142Y-134322142D01*
X280851428Y-134358428D01*
X280924000Y-134394714D01*
X281214285Y-134394714D01*
X281214285Y-133632714D01*
X280960285Y-133632714D01*
X280887714Y-133669000D01*
X280851428Y-133705285D01*
X280815142Y-133777857D01*
X280815142Y-133850428D01*
X280851428Y-133923000D01*
X280887714Y-133959285D01*
X280960285Y-133995571D01*
X281214285Y-133995571D01*
X280452285Y-134394714D02*
X280452285Y-133632714D01*
X280016857Y-134394714D01*
X280016857Y-133632714D01*
X279654000Y-133995571D02*
X279400000Y-133995571D01*
X279291142Y-134394714D02*
X279654000Y-134394714D01*
X279654000Y-133632714D01*
X279291142Y-133632714D01*
X278021142Y-134394714D02*
X278384000Y-134394714D01*
X278384000Y-133632714D01*
X277440571Y-134394714D02*
X277440571Y-133995571D01*
X277476857Y-133923000D01*
X277549428Y-133886714D01*
X277694571Y-133886714D01*
X277767142Y-133923000D01*
X277440571Y-134358428D02*
X277513142Y-134394714D01*
X277694571Y-134394714D01*
X277767142Y-134358428D01*
X277803428Y-134285857D01*
X277803428Y-134213285D01*
X277767142Y-134140714D01*
X277694571Y-134104428D01*
X277513142Y-134104428D01*
X277440571Y-134068142D01*
X277077714Y-134394714D02*
X277077714Y-133632714D01*
X277077714Y-133923000D02*
X277005142Y-133886714D01*
X276860000Y-133886714D01*
X276787428Y-133923000D01*
X276751142Y-133959285D01*
X276714857Y-134031857D01*
X276714857Y-134249571D01*
X276751142Y-134322142D01*
X276787428Y-134358428D01*
X276860000Y-134394714D01*
X277005142Y-134394714D01*
X277077714Y-134358428D01*
X285949571Y-134902714D02*
X285877000Y-134902714D01*
X285804428Y-134939000D01*
X285768142Y-134975285D01*
X285731857Y-135047857D01*
X285695571Y-135193000D01*
X285695571Y-135374428D01*
X285731857Y-135519571D01*
X285768142Y-135592142D01*
X285804428Y-135628428D01*
X285877000Y-135664714D01*
X285949571Y-135664714D01*
X286022142Y-135628428D01*
X286058428Y-135592142D01*
X286094714Y-135519571D01*
X286131000Y-135374428D01*
X286131000Y-135193000D01*
X286094714Y-135047857D01*
X286058428Y-134975285D01*
X286022142Y-134939000D01*
X285949571Y-134902714D01*
X285441571Y-134902714D02*
X284933571Y-134902714D01*
X285260142Y-135664714D01*
X284099000Y-134866428D02*
X284752142Y-135846142D01*
X283445857Y-135664714D02*
X283881285Y-135664714D01*
X283663571Y-135664714D02*
X283663571Y-134902714D01*
X283736142Y-135011571D01*
X283808714Y-135084142D01*
X283881285Y-135120428D01*
X283010428Y-135229285D02*
X283083000Y-135193000D01*
X283119285Y-135156714D01*
X283155571Y-135084142D01*
X283155571Y-135047857D01*
X283119285Y-134975285D01*
X283083000Y-134939000D01*
X283010428Y-134902714D01*
X282865285Y-134902714D01*
X282792714Y-134939000D01*
X282756428Y-134975285D01*
X282720142Y-135047857D01*
X282720142Y-135084142D01*
X282756428Y-135156714D01*
X282792714Y-135193000D01*
X282865285Y-135229285D01*
X283010428Y-135229285D01*
X283083000Y-135265571D01*
X283119285Y-135301857D01*
X283155571Y-135374428D01*
X283155571Y-135519571D01*
X283119285Y-135592142D01*
X283083000Y-135628428D01*
X283010428Y-135664714D01*
X282865285Y-135664714D01*
X282792714Y-135628428D01*
X282756428Y-135592142D01*
X282720142Y-135519571D01*
X282720142Y-135374428D01*
X282756428Y-135301857D01*
X282792714Y-135265571D01*
X282865285Y-135229285D01*
X281849285Y-134866428D02*
X282502428Y-135846142D01*
X281631571Y-134975285D02*
X281595285Y-134939000D01*
X281522714Y-134902714D01*
X281341285Y-134902714D01*
X281268714Y-134939000D01*
X281232428Y-134975285D01*
X281196142Y-135047857D01*
X281196142Y-135120428D01*
X281232428Y-135229285D01*
X281667857Y-135664714D01*
X281196142Y-135664714D01*
X280724428Y-134902714D02*
X280651857Y-134902714D01*
X280579285Y-134939000D01*
X280543000Y-134975285D01*
X280506714Y-135047857D01*
X280470428Y-135193000D01*
X280470428Y-135374428D01*
X280506714Y-135519571D01*
X280543000Y-135592142D01*
X280579285Y-135628428D01*
X280651857Y-135664714D01*
X280724428Y-135664714D01*
X280797000Y-135628428D01*
X280833285Y-135592142D01*
X280869571Y-135519571D01*
X280905857Y-135374428D01*
X280905857Y-135193000D01*
X280869571Y-135047857D01*
X280833285Y-134975285D01*
X280797000Y-134939000D01*
X280724428Y-134902714D01*
X279744714Y-135664714D02*
X280180142Y-135664714D01*
X279962428Y-135664714D02*
X279962428Y-134902714D01*
X280035000Y-135011571D01*
X280107571Y-135084142D01*
X280180142Y-135120428D01*
X279381857Y-135664714D02*
X279236714Y-135664714D01*
X279164142Y-135628428D01*
X279127857Y-135592142D01*
X279055285Y-135483285D01*
X279019000Y-135338142D01*
X279019000Y-135047857D01*
X279055285Y-134975285D01*
X279091571Y-134939000D01*
X279164142Y-134902714D01*
X279309285Y-134902714D01*
X279381857Y-134939000D01*
X279418142Y-134975285D01*
X279454428Y-135047857D01*
X279454428Y-135229285D01*
X279418142Y-135301857D01*
X279381857Y-135338142D01*
X279309285Y-135374428D01*
X279164142Y-135374428D01*
X279091571Y-135338142D01*
X279055285Y-135301857D01*
X279019000Y-135229285D01*
M02*
