G04 #@! TF.GenerationSoftware,KiCad,Pcbnew,(5.0.0)*
G04 #@! TF.CreationDate,2019-07-19T00:06:37-04:00*
G04 #@! TF.ProjectId,lp_ecg,6C705F6563672E6B696361645F706362,rev?*
G04 #@! TF.SameCoordinates,Original*
G04 #@! TF.FileFunction,Copper,L1,Top,Signal*
G04 #@! TF.FilePolarity,Positive*
%FSLAX46Y46*%
G04 Gerber Fmt 4.6, Leading zero omitted, Abs format (unit mm)*
G04 Created by KiCad (PCBNEW (5.0.0)) date 07/19/19 00:06:37*
%MOMM*%
%LPD*%
G01*
G04 APERTURE LIST*
G04 #@! TA.AperFunction,ComponentPad*
%ADD10O,1.700000X1.700000*%
G04 #@! TD*
G04 #@! TA.AperFunction,ComponentPad*
%ADD11R,1.700000X1.700000*%
G04 #@! TD*
G04 #@! TA.AperFunction,SMDPad,CuDef*
%ADD12R,0.398780X0.599440*%
G04 #@! TD*
G04 #@! TA.AperFunction,SMDPad,CuDef*
%ADD13R,0.599440X0.398780*%
G04 #@! TD*
G04 #@! TA.AperFunction,SMDPad,CuDef*
%ADD14R,0.475000X0.250000*%
G04 #@! TD*
G04 #@! TA.AperFunction,SMDPad,CuDef*
%ADD15R,0.250000X0.475000*%
G04 #@! TD*
G04 #@! TA.AperFunction,BGAPad,CuDef*
%ADD16C,0.230000*%
G04 #@! TD*
G04 #@! TA.AperFunction,SMDPad,CuDef*
%ADD17R,0.800000X0.800000*%
G04 #@! TD*
G04 #@! TA.AperFunction,SMDPad,CuDef*
%ADD18R,0.700000X0.300000*%
G04 #@! TD*
G04 #@! TA.AperFunction,SMDPad,CuDef*
%ADD19R,0.600000X0.600000*%
G04 #@! TD*
G04 #@! TA.AperFunction,ComponentPad*
%ADD20R,1.524000X1.524000*%
G04 #@! TD*
G04 #@! TA.AperFunction,ComponentPad*
%ADD21C,1.524000*%
G04 #@! TD*
G04 #@! TA.AperFunction,SMDPad,CuDef*
%ADD22R,0.635000X1.143000*%
G04 #@! TD*
G04 #@! TA.AperFunction,SMDPad,CuDef*
%ADD23R,0.900000X0.800000*%
G04 #@! TD*
G04 #@! TA.AperFunction,SMDPad,CuDef*
%ADD24R,0.800000X1.600000*%
G04 #@! TD*
G04 #@! TA.AperFunction,SMDPad,CuDef*
%ADD25R,0.200000X0.800000*%
G04 #@! TD*
G04 #@! TA.AperFunction,SMDPad,CuDef*
%ADD26R,0.800000X0.200000*%
G04 #@! TD*
G04 #@! TA.AperFunction,SMDPad,CuDef*
%ADD27R,1.112500X1.112500*%
G04 #@! TD*
G04 #@! TA.AperFunction,SMDPad,CuDef*
%ADD28R,0.600000X1.100000*%
G04 #@! TD*
G04 #@! TA.AperFunction,SMDPad,CuDef*
%ADD29R,0.750000X0.300000*%
G04 #@! TD*
G04 #@! TA.AperFunction,SMDPad,CuDef*
%ADD30R,0.875000X0.725000*%
G04 #@! TD*
G04 #@! TA.AperFunction,SMDPad,CuDef*
%ADD31R,0.400000X0.700000*%
G04 #@! TD*
G04 #@! TA.AperFunction,SMDPad,CuDef*
%ADD32R,0.400000X0.250000*%
G04 #@! TD*
G04 #@! TA.AperFunction,Conductor*
%ADD33C,0.150000*%
G04 #@! TD*
G04 #@! TA.AperFunction,SMDPad,CuDef*
%ADD34C,0.875000*%
G04 #@! TD*
G04 #@! TA.AperFunction,SMDPad,CuDef*
%ADD35R,0.600000X0.400000*%
G04 #@! TD*
G04 #@! TA.AperFunction,SMDPad,CuDef*
%ADD36R,1.000000X0.300000*%
G04 #@! TD*
G04 #@! TA.AperFunction,SMDPad,CuDef*
%ADD37R,0.300000X1.000000*%
G04 #@! TD*
G04 #@! TA.AperFunction,SMDPad,CuDef*
%ADD38R,3.350000X3.350000*%
G04 #@! TD*
G04 #@! TA.AperFunction,SMDPad,CuDef*
%ADD39R,0.800000X0.900000*%
G04 #@! TD*
G04 #@! TA.AperFunction,SMDPad,CuDef*
%ADD40R,0.700000X0.900000*%
G04 #@! TD*
G04 #@! TA.AperFunction,SMDPad,CuDef*
%ADD41R,0.510000X0.600000*%
G04 #@! TD*
G04 #@! TA.AperFunction,ViaPad*
%ADD42C,0.508000*%
G04 #@! TD*
G04 #@! TA.AperFunction,Conductor*
%ADD43C,0.152000*%
G04 #@! TD*
G04 #@! TA.AperFunction,Conductor*
%ADD44C,0.457200*%
G04 #@! TD*
G04 #@! TA.AperFunction,Conductor*
%ADD45C,0.460000*%
G04 #@! TD*
G04 #@! TA.AperFunction,Conductor*
%ADD46C,0.152400*%
G04 #@! TD*
G04 #@! TA.AperFunction,Conductor*
%ADD47C,0.229000*%
G04 #@! TD*
G04 #@! TA.AperFunction,Conductor*
%ADD48C,0.254000*%
G04 #@! TD*
G04 APERTURE END LIST*
D10*
G04 #@! TO.P,J1,2*
G04 #@! TO.N,Net-(IC2-Pad7)*
X296450000Y-127160000D03*
D11*
G04 #@! TO.P,J1,1*
G04 #@! TO.N,Net-(IC2-Pad6)*
X296450000Y-129700000D03*
G04 #@! TD*
D12*
G04 #@! TO.P,C15,2*
G04 #@! TO.N,DGND*
X292350420Y-129525000D03*
G04 #@! TO.P,C15,1*
G04 #@! TO.N,/MAX30003_FCLK*
X293249580Y-129525000D03*
G04 #@! TD*
D13*
G04 #@! TO.P,C14,1*
G04 #@! TO.N,1.8V*
X290875000Y-126925000D03*
G04 #@! TO.P,C14,2*
G04 #@! TO.N,DGND*
X290875000Y-127824160D03*
G04 #@! TD*
G04 #@! TO.P,C13,2*
G04 #@! TO.N,1.8V*
X290600000Y-131550000D03*
G04 #@! TO.P,C13,1*
G04 #@! TO.N,DGND*
X290600000Y-130650840D03*
G04 #@! TD*
G04 #@! TO.P,C12,1*
G04 #@! TO.N,1.8V*
X289575000Y-131549160D03*
G04 #@! TO.P,C12,2*
G04 #@! TO.N,DGND*
X289575000Y-130650000D03*
G04 #@! TD*
D12*
G04 #@! TO.P,C11,2*
G04 #@! TO.N,DGND*
X288975420Y-138950000D03*
G04 #@! TO.P,C11,1*
G04 #@! TO.N,1.8V*
X289874580Y-138950000D03*
G04 #@! TD*
G04 #@! TO.P,C10,1*
G04 #@! TO.N,DGND*
X288975420Y-137974580D03*
G04 #@! TO.P,C10,2*
G04 #@! TO.N,1.8V*
X289874580Y-137974580D03*
G04 #@! TD*
D13*
G04 #@! TO.P,C9,2*
G04 #@! TO.N,DGND*
X294150000Y-129525840D03*
G04 #@! TO.P,C9,1*
G04 #@! TO.N,Net-(C9-Pad1)*
X294150000Y-130425000D03*
G04 #@! TD*
D12*
G04 #@! TO.P,C8,1*
G04 #@! TO.N,Net-(C8-Pad1)*
X294000000Y-131425000D03*
G04 #@! TO.P,C8,2*
G04 #@! TO.N,Net-(C8-Pad2)*
X294899160Y-131425000D03*
G04 #@! TD*
G04 #@! TO.P,C7,2*
G04 #@! TO.N,DGND*
X295649580Y-138925000D03*
G04 #@! TO.P,C7,1*
G04 #@! TO.N,Net-(C7-Pad1)*
X294750420Y-138925000D03*
G04 #@! TD*
G04 #@! TO.P,C6,1*
G04 #@! TO.N,Net-(C6-Pad1)*
X291025420Y-138950000D03*
G04 #@! TO.P,C6,2*
G04 #@! TO.N,DGND*
X291924580Y-138950000D03*
G04 #@! TD*
G04 #@! TO.P,C4,2*
G04 #@! TO.N,Net-(C4-Pad2)*
X293624580Y-138950000D03*
G04 #@! TO.P,C4,1*
G04 #@! TO.N,DGND*
X292725420Y-138950000D03*
G04 #@! TD*
D14*
G04 #@! TO.P,IC1,1*
G04 #@! TO.N,DGND*
X284638000Y-128800000D03*
G04 #@! TO.P,IC1,2*
G04 #@! TO.N,Net-(IC1-Pad2)*
X284638000Y-129300000D03*
G04 #@! TO.P,IC1,3*
G04 #@! TO.N,Net-(IC1-Pad3)*
X284638000Y-129800000D03*
G04 #@! TO.P,IC1,4*
G04 #@! TO.N,/BMI_INT1*
X284638000Y-130300000D03*
D15*
G04 #@! TO.P,IC1,5*
G04 #@! TO.N,1.8V*
X285300000Y-130462000D03*
G04 #@! TO.P,IC1,6*
G04 #@! TO.N,DGND*
X285800000Y-130462000D03*
G04 #@! TO.P,IC1,7*
X286300000Y-130462000D03*
D14*
G04 #@! TO.P,IC1,8*
G04 #@! TO.N,1.8V*
X286962000Y-130300000D03*
G04 #@! TO.P,IC1,9*
G04 #@! TO.N,/BMI_INT2*
X286962000Y-129800000D03*
G04 #@! TO.P,IC1,10*
G04 #@! TO.N,Net-(IC1-Pad10)*
X286962000Y-129300000D03*
G04 #@! TO.P,IC1,11*
G04 #@! TO.N,Net-(IC1-Pad11)*
X286962000Y-128800000D03*
D15*
G04 #@! TO.P,IC1,12*
G04 #@! TO.N,1.8V*
X286300000Y-128638000D03*
G04 #@! TO.P,IC1,13*
G04 #@! TO.N,/BMI_SCL*
X285800000Y-128638000D03*
G04 #@! TO.P,IC1,14*
G04 #@! TO.N,/BMI_SDA*
X285300000Y-128638000D03*
G04 #@! TD*
D12*
G04 #@! TO.P,C1,1*
G04 #@! TO.N,1.8V*
X287125420Y-127600000D03*
G04 #@! TO.P,C1,2*
G04 #@! TO.N,DGND*
X288024580Y-127600000D03*
G04 #@! TD*
G04 #@! TO.P,C2,2*
G04 #@! TO.N,DGND*
X286450420Y-131625000D03*
G04 #@! TO.P,C2,1*
G04 #@! TO.N,1.8V*
X287349580Y-131625000D03*
G04 #@! TD*
D16*
G04 #@! TO.P,U2,A2*
G04 #@! TO.N,VCC*
X275620000Y-142840000D03*
G04 #@! TO.P,U2,A1*
G04 #@! TO.N,Net-(L2-Pad1)*
X275220000Y-142840000D03*
G04 #@! TO.P,U2,B1*
G04 #@! TO.N,VCC*
X275220000Y-143240000D03*
G04 #@! TO.P,U2,B2*
G04 #@! TO.N,DGND*
X275620000Y-143240000D03*
G04 #@! TO.P,U2,C2*
G04 #@! TO.N,1.8V*
X275620000Y-143640000D03*
G04 #@! TO.P,U2,C1*
G04 #@! TO.N,VCC*
X275220000Y-143640000D03*
G04 #@! TO.P,U2,D1*
G04 #@! TO.N,/LOAD_SW_CTRL*
X275220000Y-144040000D03*
G04 #@! TO.P,U2,D2*
G04 #@! TO.N,Net-(R5-Pad1)*
X275620000Y-144040000D03*
G04 #@! TD*
D13*
G04 #@! TO.P,C5,1*
G04 #@! TO.N,VCC*
X277430000Y-142390000D03*
G04 #@! TO.P,C5,2*
G04 #@! TO.N,DGND*
X277430000Y-143289160D03*
G04 #@! TD*
G04 #@! TO.P,C3,2*
G04 #@! TO.N,DGND*
X276550000Y-143000840D03*
G04 #@! TO.P,C3,1*
G04 #@! TO.N,1.8V*
X276550000Y-143900000D03*
G04 #@! TD*
D11*
G04 #@! TO.P,P3,1*
G04 #@! TO.N,5V_in_charge*
X295990000Y-144510000D03*
D10*
G04 #@! TO.P,P3,2*
G04 #@! TO.N,DGND*
X295990000Y-141970000D03*
G04 #@! TD*
D12*
G04 #@! TO.P,R5,1*
G04 #@! TO.N,Net-(R5-Pad1)*
X278420420Y-143320000D03*
G04 #@! TO.P,R5,2*
G04 #@! TO.N,/AIN_BAT_DIV_VOLTAGE*
X279319580Y-143320000D03*
G04 #@! TD*
D17*
G04 #@! TO.P,D4,2*
G04 #@! TO.N,5V_in_charge*
X289520000Y-142980000D03*
G04 #@! TO.P,D4,1*
G04 #@! TO.N,VccSwitch*
X289520000Y-141380000D03*
G04 #@! TD*
D12*
G04 #@! TO.P,C18,1*
G04 #@! TO.N,DGND*
X288310420Y-144010000D03*
G04 #@! TO.P,C18,2*
G04 #@! TO.N,VccSwitch*
X289209580Y-144010000D03*
G04 #@! TD*
G04 #@! TO.P,R10,1*
G04 #@! TO.N,5V_in_charge*
X286530420Y-144010000D03*
G04 #@! TO.P,R10,2*
G04 #@! TO.N,DGND*
X287429580Y-144010000D03*
G04 #@! TD*
G04 #@! TO.P,C16,1*
G04 #@! TO.N,5V_in_charge*
X285199580Y-144020000D03*
G04 #@! TO.P,C16,2*
G04 #@! TO.N,DGND*
X284300420Y-144020000D03*
G04 #@! TD*
D13*
G04 #@! TO.P,R9,1*
G04 #@! TO.N,Net-(R9-Pad1)*
X282140000Y-142639580D03*
G04 #@! TO.P,R9,2*
G04 #@! TO.N,DGND*
X282140000Y-141740420D03*
G04 #@! TD*
G04 #@! TO.P,C17,1*
G04 #@! TO.N,/BATT_IN*
X287490000Y-141469580D03*
G04 #@! TO.P,C17,2*
G04 #@! TO.N,DGND*
X287490000Y-140570420D03*
G04 #@! TD*
D17*
G04 #@! TO.P,D3,2*
G04 #@! TO.N,1.8V*
X282725000Y-139975000D03*
G04 #@! TO.P,D3,1*
G04 #@! TO.N,Net-(D3-Pad1)*
X284325000Y-139975000D03*
G04 #@! TD*
D13*
G04 #@! TO.P,C22,1*
G04 #@! TO.N,1.8V*
X282050000Y-137525420D03*
G04 #@! TO.P,C22,2*
G04 #@! TO.N,DGND*
X282050000Y-138424580D03*
G04 #@! TD*
D12*
G04 #@! TO.P,R7,1*
G04 #@! TO.N,DGND*
X278420840Y-142360000D03*
G04 #@! TO.P,R7,2*
G04 #@! TO.N,/AIN_BAT_DIV_VOLTAGE*
X279320000Y-142360000D03*
G04 #@! TD*
D13*
G04 #@! TO.P,C21,1*
G04 #@! TO.N,DGND*
X274070000Y-139049580D03*
G04 #@! TO.P,C21,2*
G04 #@! TO.N,1.8V*
X274070000Y-138150420D03*
G04 #@! TD*
D18*
G04 #@! TO.P,F1,1*
G04 #@! TO.N,DGND*
X278326500Y-128500000D03*
D19*
G04 #@! TO.P,F1,2*
G04 #@! TO.N,Net-(F1-Pad2)*
X278000000Y-129112500D03*
G04 #@! TO.P,F1,4*
G04 #@! TO.N,/RF*
X278000000Y-127887500D03*
D18*
G04 #@! TO.P,F1,3*
G04 #@! TO.N,DGND*
X277637500Y-128500000D03*
G04 #@! TD*
D13*
G04 #@! TO.P,C34,1*
G04 #@! TO.N,/DEC3*
X275840000Y-129489580D03*
G04 #@! TO.P,C34,2*
G04 #@! TO.N,DGND*
X275840000Y-128590420D03*
G04 #@! TD*
D12*
G04 #@! TO.P,C33,1*
G04 #@! TO.N,DGND*
X273150420Y-129450000D03*
G04 #@! TO.P,C33,2*
G04 #@! TO.N,1.8V*
X274049580Y-129450000D03*
G04 #@! TD*
D20*
G04 #@! TO.P,P2,1*
G04 #@! TO.N,/SWDCLK*
X281500000Y-129560000D03*
D21*
G04 #@! TO.P,P2,2*
G04 #@! TO.N,/SWDIO*
X281500000Y-127020000D03*
G04 #@! TD*
D17*
G04 #@! TO.P,D2,2*
G04 #@! TO.N,1.8V*
X280490000Y-140050000D03*
G04 #@! TO.P,D2,1*
G04 #@! TO.N,/LED3*
X280490000Y-138450000D03*
G04 #@! TD*
G04 #@! TO.P,D1,2*
G04 #@! TO.N,1.8V*
X279240000Y-140050000D03*
G04 #@! TO.P,D1,1*
G04 #@! TO.N,/LED2*
X279240000Y-138450000D03*
G04 #@! TD*
D20*
G04 #@! TO.P,P1,1*
G04 #@! TO.N,/BATT_IN*
X292380000Y-144450000D03*
D21*
G04 #@! TO.P,P1,2*
G04 #@! TO.N,DGND*
X292380000Y-141910000D03*
G04 #@! TD*
D22*
G04 #@! TO.P,L4,1*
G04 #@! TO.N,Net-(L4-Pad1)*
X272932000Y-138620000D03*
G04 #@! TO.P,L4,2*
G04 #@! TO.N,Net-(L3-Pad1)*
X271408000Y-138620000D03*
G04 #@! TD*
D23*
G04 #@! TO.P,X1,4*
G04 #@! TO.N,DGND*
X270800000Y-133500000D03*
G04 #@! TO.P,X1,3*
G04 #@! TO.N,Net-(C25-Pad2)*
X272200000Y-133500000D03*
G04 #@! TO.P,X1,1*
G04 #@! TO.N,Net-(C24-Pad2)*
X270800000Y-134600000D03*
G04 #@! TO.P,X1,2*
G04 #@! TO.N,DGND*
X272200000Y-134600000D03*
G04 #@! TD*
D13*
G04 #@! TO.P,C28,1*
G04 #@! TO.N,Net-(C28-Pad1)*
X275450000Y-140100420D03*
G04 #@! TO.P,C28,2*
G04 #@! TO.N,DGND*
X275450000Y-140999580D03*
G04 #@! TD*
D12*
G04 #@! TO.P,C26,1*
G04 #@! TO.N,/DEC1*
X273649580Y-140200000D03*
G04 #@! TO.P,C26,2*
G04 #@! TO.N,DGND*
X272750420Y-140200000D03*
G04 #@! TD*
D13*
G04 #@! TO.P,C24,1*
G04 #@! TO.N,DGND*
X269800000Y-133750420D03*
G04 #@! TO.P,C24,2*
G04 #@! TO.N,Net-(C24-Pad2)*
X269800000Y-134649580D03*
G04 #@! TD*
G04 #@! TO.P,C25,1*
G04 #@! TO.N,DGND*
X273200000Y-134549580D03*
G04 #@! TO.P,C25,2*
G04 #@! TO.N,Net-(C25-Pad2)*
X273200000Y-133650420D03*
G04 #@! TD*
G04 #@! TO.P,C29,1*
G04 #@! TO.N,Net-(C29-Pad1)*
X276850000Y-140100420D03*
G04 #@! TO.P,C29,2*
G04 #@! TO.N,DGND*
X276850000Y-140999580D03*
G04 #@! TD*
D24*
G04 #@! TO.P,A1,1*
G04 #@! TO.N,Net-(A1-Pad1)*
X270745000Y-127673000D03*
G04 #@! TO.P,A1,2*
G04 #@! TO.N,Net-(A1-Pad2)*
X267345000Y-127673000D03*
G04 #@! TD*
D12*
G04 #@! TO.P,L6,1*
G04 #@! TO.N,Net-(C30-Pad2)*
X272849580Y-127700000D03*
G04 #@! TO.P,L6,2*
G04 #@! TO.N,Net-(A1-Pad1)*
X271950420Y-127700000D03*
G04 #@! TD*
D13*
G04 #@! TO.P,L5,1*
G04 #@! TO.N,Net-(C30-Pad2)*
X274000000Y-127650420D03*
G04 #@! TO.P,L5,2*
G04 #@! TO.N,DGND*
X274000000Y-128549580D03*
G04 #@! TD*
D12*
G04 #@! TO.P,C30,1*
G04 #@! TO.N,/RF*
X276049580Y-127700000D03*
G04 #@! TO.P,C30,2*
G04 #@! TO.N,Net-(C30-Pad2)*
X275150420Y-127700000D03*
G04 #@! TD*
G04 #@! TO.P,L3,1*
G04 #@! TO.N,Net-(L3-Pad1)*
X271730420Y-137270000D03*
G04 #@! TO.P,L3,2*
G04 #@! TO.N,Net-(C23-Pad1)*
X272629580Y-137270000D03*
G04 #@! TD*
D22*
G04 #@! TO.P,C23,1*
G04 #@! TO.N,Net-(C23-Pad1)*
X273262000Y-136000000D03*
G04 #@! TO.P,C23,2*
G04 #@! TO.N,DGND*
X271738000Y-136000000D03*
G04 #@! TD*
D25*
G04 #@! TO.P,U3,1*
G04 #@! TO.N,/DEC1*
X275600000Y-137000000D03*
G04 #@! TO.P,U3,2*
G04 #@! TO.N,Net-(C28-Pad1)*
X276000000Y-137000000D03*
G04 #@! TO.P,U3,3*
G04 #@! TO.N,Net-(C29-Pad1)*
X276400000Y-137000000D03*
G04 #@! TO.P,U3,4*
G04 #@! TO.N,Net-(U3-Pad4)*
X276800000Y-137000000D03*
G04 #@! TO.P,U3,5*
G04 #@! TO.N,/LOAD_SW_CTRL*
X277200000Y-137000000D03*
G04 #@! TO.P,U3,6*
G04 #@! TO.N,/AIN_BAT_DIV_VOLTAGE*
X277600000Y-137000000D03*
G04 #@! TO.P,U3,7*
G04 #@! TO.N,Net-(U3-Pad7)*
X278000000Y-137000000D03*
G04 #@! TO.P,U3,8*
G04 #@! TO.N,Net-(U3-Pad8)*
X278400000Y-137000000D03*
G04 #@! TO.P,U3,9*
G04 #@! TO.N,Net-(U3-Pad9)*
X278800000Y-137000000D03*
G04 #@! TO.P,U3,10*
G04 #@! TO.N,Net-(U3-Pad10)*
X279200000Y-137000000D03*
G04 #@! TO.P,U3,11*
G04 #@! TO.N,/LED2*
X279600000Y-137000000D03*
G04 #@! TO.P,U3,12*
G04 #@! TO.N,/LED3*
X280000000Y-137000000D03*
D26*
G04 #@! TO.P,U3,13*
G04 #@! TO.N,1.8V*
X280800000Y-136200000D03*
G04 #@! TO.P,U3,14*
G04 #@! TO.N,/MAX30003_INT*
X280800000Y-135800000D03*
G04 #@! TO.P,U3,15*
G04 #@! TO.N,/MAX30003_INT2*
X280800000Y-135400000D03*
G04 #@! TO.P,U3,16*
G04 #@! TO.N,/MAX30003_SDO*
X280800000Y-135000000D03*
G04 #@! TO.P,U3,17*
G04 #@! TO.N,/MAX30003_SDI*
X280800000Y-134600000D03*
G04 #@! TO.P,U3,18*
G04 #@! TO.N,/MAX30003_SCLK*
X280800000Y-134200000D03*
G04 #@! TO.P,U3,19*
G04 #@! TO.N,/MAX30003_CSB*
X280800000Y-133800000D03*
G04 #@! TO.P,U3,20*
G04 #@! TO.N,Net-(U3-Pad20)*
X280800000Y-133400000D03*
G04 #@! TO.P,U3,21*
G04 #@! TO.N,/BMI_INT2*
X280800000Y-133000000D03*
G04 #@! TO.P,U3,22*
G04 #@! TO.N,/BMI_INT1*
X280800000Y-132600000D03*
G04 #@! TO.P,U3,23*
G04 #@! TO.N,/BMI_SDA*
X280800000Y-132200000D03*
G04 #@! TO.P,U3,24*
G04 #@! TO.N,/BMI_SCL*
X280800000Y-131800000D03*
D25*
G04 #@! TO.P,U3,25*
G04 #@! TO.N,/SWDCLK*
X280000000Y-131000000D03*
G04 #@! TO.P,U3,26*
G04 #@! TO.N,/SWDIO*
X279600000Y-131000000D03*
G04 #@! TO.P,U3,27*
G04 #@! TO.N,Net-(U3-Pad27)*
X279200000Y-131000000D03*
G04 #@! TO.P,U3,28*
G04 #@! TO.N,Net-(U3-Pad28)*
X278800000Y-131000000D03*
G04 #@! TO.P,U3,29*
G04 #@! TO.N,Net-(U3-Pad29)*
X278400000Y-131000000D03*
G04 #@! TO.P,U3,30*
G04 #@! TO.N,Net-(F1-Pad2)*
X278000000Y-131000000D03*
G04 #@! TO.P,U3,31*
G04 #@! TO.N,DGND*
X277600000Y-131000000D03*
G04 #@! TO.P,U3,32*
G04 #@! TO.N,/DEC2*
X277200000Y-131000000D03*
G04 #@! TO.P,U3,33*
G04 #@! TO.N,/DEC3*
X276800000Y-131000000D03*
G04 #@! TO.P,U3,34*
G04 #@! TO.N,Net-(C24-Pad2)*
X276400000Y-131000000D03*
G04 #@! TO.P,U3,35*
G04 #@! TO.N,Net-(C25-Pad2)*
X276000000Y-131000000D03*
G04 #@! TO.P,U3,36*
G04 #@! TO.N,1.8V*
X275600000Y-131000000D03*
D26*
G04 #@! TO.P,U3,37*
G04 #@! TO.N,Net-(U3-Pad37)*
X274800000Y-131800000D03*
G04 #@! TO.P,U3,38*
G04 #@! TO.N,Net-(U3-Pad38)*
X274800000Y-132200000D03*
G04 #@! TO.P,U3,39*
G04 #@! TO.N,Net-(U3-Pad39)*
X274800000Y-132600000D03*
G04 #@! TO.P,U3,40*
G04 #@! TO.N,Net-(U3-Pad40)*
X274800000Y-133000000D03*
G04 #@! TO.P,U3,41*
G04 #@! TO.N,Net-(U3-Pad41)*
X274800000Y-133400000D03*
G04 #@! TO.P,U3,42*
G04 #@! TO.N,Net-(U3-Pad42)*
X274800000Y-133800000D03*
G04 #@! TO.P,U3,43*
G04 #@! TO.N,Net-(U3-Pad43)*
X274800000Y-134200000D03*
G04 #@! TO.P,U3,44*
G04 #@! TO.N,Net-(U3-Pad44)*
X274800000Y-134600000D03*
G04 #@! TO.P,U3,45*
G04 #@! TO.N,DGND*
X274800000Y-135000000D03*
G04 #@! TO.P,U3,46*
G04 #@! TO.N,Net-(C23-Pad1)*
X274800000Y-135400000D03*
G04 #@! TO.P,U3,47*
G04 #@! TO.N,Net-(L4-Pad1)*
X274800000Y-135800000D03*
G04 #@! TO.P,U3,48*
G04 #@! TO.N,1.8V*
X274800000Y-136200000D03*
D27*
G04 #@! TO.P,U3,49*
G04 #@! TO.N,DGND*
X279468750Y-132331250D03*
X278356250Y-132331250D03*
X277243750Y-132331250D03*
X276131250Y-132331250D03*
X279468750Y-133443750D03*
X278356250Y-133443750D03*
X277243750Y-133443750D03*
X276131250Y-133443750D03*
X279468750Y-134556250D03*
X278356250Y-134556250D03*
X277243750Y-134556250D03*
X276131250Y-134556250D03*
X279468750Y-135668750D03*
X278356250Y-135668750D03*
X277243750Y-135668750D03*
X276131250Y-135668750D03*
G04 #@! TD*
D28*
G04 #@! TO.P,X2,1*
G04 #@! TO.N,Net-(C29-Pad1)*
X276850000Y-138850000D03*
G04 #@! TO.P,X2,2*
G04 #@! TO.N,Net-(C28-Pad1)*
X275450000Y-138850000D03*
G04 #@! TD*
D29*
G04 #@! TO.P,U6,1*
G04 #@! TO.N,5V_in_charge*
X286210000Y-142890000D03*
G04 #@! TO.P,U6,2*
X286210000Y-142390000D03*
G04 #@! TO.P,U6,3*
G04 #@! TO.N,/BATT_IN*
X286210000Y-141890000D03*
G04 #@! TO.P,U6,4*
X286210000Y-141390000D03*
G04 #@! TO.P,U6,5*
G04 #@! TO.N,Net-(D3-Pad1)*
X283310000Y-141390000D03*
G04 #@! TO.P,U6,6*
G04 #@! TO.N,DGND*
X283310000Y-141890000D03*
G04 #@! TO.P,U6,7*
G04 #@! TO.N,Net-(U6-Pad7)*
X283310000Y-142390000D03*
G04 #@! TO.P,U6,8*
G04 #@! TO.N,Net-(R9-Pad1)*
X283310000Y-142890000D03*
D30*
G04 #@! TO.P,U6,9*
G04 #@! TO.N,DGND*
X284322500Y-141777500D03*
X284322500Y-142502500D03*
X285197500Y-141777500D03*
X285197500Y-142502500D03*
G04 #@! TD*
D31*
G04 #@! TO.P,Q1,2*
G04 #@! TO.N,/BATT_IN*
X287610000Y-142730000D03*
D32*
G04 #@! TO.P,Q1,1*
G04 #@! TO.N,5V_in_charge*
X288310000Y-142955000D03*
G04 #@! TO.P,Q1,3*
G04 #@! TO.N,VccSwitch*
X288310000Y-142505000D03*
G04 #@! TD*
D33*
G04 #@! TO.N,1.8V*
G04 #@! TO.C,L2*
G36*
X274027691Y-143961053D02*
X274048926Y-143964203D01*
X274069750Y-143969419D01*
X274089962Y-143976651D01*
X274109368Y-143985830D01*
X274127781Y-143996866D01*
X274145024Y-144009654D01*
X274160930Y-144024070D01*
X274175346Y-144039976D01*
X274188134Y-144057219D01*
X274199170Y-144075632D01*
X274208349Y-144095038D01*
X274215581Y-144115250D01*
X274220797Y-144136074D01*
X274223947Y-144157309D01*
X274225000Y-144178750D01*
X274225000Y-144616250D01*
X274223947Y-144637691D01*
X274220797Y-144658926D01*
X274215581Y-144679750D01*
X274208349Y-144699962D01*
X274199170Y-144719368D01*
X274188134Y-144737781D01*
X274175346Y-144755024D01*
X274160930Y-144770930D01*
X274145024Y-144785346D01*
X274127781Y-144798134D01*
X274109368Y-144809170D01*
X274089962Y-144818349D01*
X274069750Y-144825581D01*
X274048926Y-144830797D01*
X274027691Y-144833947D01*
X274006250Y-144835000D01*
X273493750Y-144835000D01*
X273472309Y-144833947D01*
X273451074Y-144830797D01*
X273430250Y-144825581D01*
X273410038Y-144818349D01*
X273390632Y-144809170D01*
X273372219Y-144798134D01*
X273354976Y-144785346D01*
X273339070Y-144770930D01*
X273324654Y-144755024D01*
X273311866Y-144737781D01*
X273300830Y-144719368D01*
X273291651Y-144699962D01*
X273284419Y-144679750D01*
X273279203Y-144658926D01*
X273276053Y-144637691D01*
X273275000Y-144616250D01*
X273275000Y-144178750D01*
X273276053Y-144157309D01*
X273279203Y-144136074D01*
X273284419Y-144115250D01*
X273291651Y-144095038D01*
X273300830Y-144075632D01*
X273311866Y-144057219D01*
X273324654Y-144039976D01*
X273339070Y-144024070D01*
X273354976Y-144009654D01*
X273372219Y-143996866D01*
X273390632Y-143985830D01*
X273410038Y-143976651D01*
X273430250Y-143969419D01*
X273451074Y-143964203D01*
X273472309Y-143961053D01*
X273493750Y-143960000D01*
X274006250Y-143960000D01*
X274027691Y-143961053D01*
X274027691Y-143961053D01*
G37*
D34*
G04 #@! TD*
G04 #@! TO.P,L2,2*
G04 #@! TO.N,1.8V*
X273750000Y-144397500D03*
D33*
G04 #@! TO.N,Net-(L2-Pad1)*
G04 #@! TO.C,L2*
G36*
X274027691Y-142386053D02*
X274048926Y-142389203D01*
X274069750Y-142394419D01*
X274089962Y-142401651D01*
X274109368Y-142410830D01*
X274127781Y-142421866D01*
X274145024Y-142434654D01*
X274160930Y-142449070D01*
X274175346Y-142464976D01*
X274188134Y-142482219D01*
X274199170Y-142500632D01*
X274208349Y-142520038D01*
X274215581Y-142540250D01*
X274220797Y-142561074D01*
X274223947Y-142582309D01*
X274225000Y-142603750D01*
X274225000Y-143041250D01*
X274223947Y-143062691D01*
X274220797Y-143083926D01*
X274215581Y-143104750D01*
X274208349Y-143124962D01*
X274199170Y-143144368D01*
X274188134Y-143162781D01*
X274175346Y-143180024D01*
X274160930Y-143195930D01*
X274145024Y-143210346D01*
X274127781Y-143223134D01*
X274109368Y-143234170D01*
X274089962Y-143243349D01*
X274069750Y-143250581D01*
X274048926Y-143255797D01*
X274027691Y-143258947D01*
X274006250Y-143260000D01*
X273493750Y-143260000D01*
X273472309Y-143258947D01*
X273451074Y-143255797D01*
X273430250Y-143250581D01*
X273410038Y-143243349D01*
X273390632Y-143234170D01*
X273372219Y-143223134D01*
X273354976Y-143210346D01*
X273339070Y-143195930D01*
X273324654Y-143180024D01*
X273311866Y-143162781D01*
X273300830Y-143144368D01*
X273291651Y-143124962D01*
X273284419Y-143104750D01*
X273279203Y-143083926D01*
X273276053Y-143062691D01*
X273275000Y-143041250D01*
X273275000Y-142603750D01*
X273276053Y-142582309D01*
X273279203Y-142561074D01*
X273284419Y-142540250D01*
X273291651Y-142520038D01*
X273300830Y-142500632D01*
X273311866Y-142482219D01*
X273324654Y-142464976D01*
X273339070Y-142449070D01*
X273354976Y-142434654D01*
X273372219Y-142421866D01*
X273390632Y-142410830D01*
X273410038Y-142401651D01*
X273430250Y-142394419D01*
X273451074Y-142389203D01*
X273472309Y-142386053D01*
X273493750Y-142385000D01*
X274006250Y-142385000D01*
X274027691Y-142386053D01*
X274027691Y-142386053D01*
G37*
D34*
G04 #@! TD*
G04 #@! TO.P,L2,1*
G04 #@! TO.N,Net-(L2-Pad1)*
X273750000Y-142822500D03*
D35*
G04 #@! TO.P,R1,1*
G04 #@! TO.N,1.8V*
X286025000Y-126750000D03*
G04 #@! TO.P,R1,2*
G04 #@! TO.N,/BMI_SCL*
X286025000Y-127650000D03*
G04 #@! TD*
G04 #@! TO.P,R2,2*
G04 #@! TO.N,/BMI_SDA*
X284750000Y-127650000D03*
G04 #@! TO.P,R2,1*
G04 #@! TO.N,1.8V*
X284750000Y-126750000D03*
G04 #@! TD*
D36*
G04 #@! TO.P,IC2,1*
G04 #@! TO.N,DGND*
X295725000Y-136500000D03*
G04 #@! TO.P,IC2,2*
X295725000Y-136000000D03*
G04 #@! TO.P,IC2,3*
X295725000Y-135500000D03*
G04 #@! TO.P,IC2,4*
X295725000Y-135000000D03*
G04 #@! TO.P,IC2,5*
X295725000Y-134500000D03*
G04 #@! TO.P,IC2,6*
G04 #@! TO.N,Net-(IC2-Pad6)*
X295725000Y-134000000D03*
G04 #@! TO.P,IC2,7*
G04 #@! TO.N,Net-(IC2-Pad7)*
X295725000Y-133500000D03*
D37*
G04 #@! TO.P,IC2,8*
G04 #@! TO.N,DGND*
X294875000Y-132650000D03*
G04 #@! TO.P,IC2,9*
G04 #@! TO.N,Net-(C8-Pad2)*
X294375000Y-132650000D03*
G04 #@! TO.P,IC2,10*
G04 #@! TO.N,Net-(C8-Pad1)*
X293875000Y-132650000D03*
G04 #@! TO.P,IC2,11*
G04 #@! TO.N,Net-(C9-Pad1)*
X293375000Y-132650000D03*
G04 #@! TO.P,IC2,12*
G04 #@! TO.N,DGND*
X292875000Y-132650000D03*
G04 #@! TO.P,IC2,13*
G04 #@! TO.N,1.8V*
X292375000Y-132650000D03*
G04 #@! TO.P,IC2,14*
G04 #@! TO.N,/MAX30003_FCLK*
X291875000Y-132650000D03*
D36*
G04 #@! TO.P,IC2,15*
G04 #@! TO.N,/MAX30003_CSB*
X291025000Y-133500000D03*
G04 #@! TO.P,IC2,16*
G04 #@! TO.N,/MAX30003_SCLK*
X291025000Y-134000000D03*
G04 #@! TO.P,IC2,17*
G04 #@! TO.N,/MAX30003_SDI*
X291025000Y-134500000D03*
G04 #@! TO.P,IC2,18*
G04 #@! TO.N,/MAX30003_SDO*
X291025000Y-135000000D03*
G04 #@! TO.P,IC2,19*
G04 #@! TO.N,1.8V*
X291025000Y-135500000D03*
G04 #@! TO.P,IC2,20*
G04 #@! TO.N,/MAX30003_INT2*
X291025000Y-136000000D03*
G04 #@! TO.P,IC2,21*
G04 #@! TO.N,/MAX30003_INT*
X291025000Y-136500000D03*
D37*
G04 #@! TO.P,IC2,22*
G04 #@! TO.N,1.8V*
X291875000Y-137350000D03*
G04 #@! TO.P,IC2,23*
G04 #@! TO.N,Net-(C6-Pad1)*
X292375000Y-137350000D03*
G04 #@! TO.P,IC2,24*
G04 #@! TO.N,DGND*
X292875000Y-137350000D03*
G04 #@! TO.P,IC2,25*
G04 #@! TO.N,Net-(C4-Pad2)*
X293375000Y-137350000D03*
G04 #@! TO.P,IC2,26*
G04 #@! TO.N,DGND*
X293875000Y-137350000D03*
G04 #@! TO.P,IC2,27*
G04 #@! TO.N,Net-(C7-Pad1)*
X294375000Y-137350000D03*
G04 #@! TO.P,IC2,28*
G04 #@! TO.N,DGND*
X294875000Y-137350000D03*
D38*
G04 #@! TO.P,IC2,29*
X293375000Y-135000000D03*
G04 #@! TD*
D39*
G04 #@! TO.P,X3,4*
G04 #@! TO.N,1.8V*
X293300000Y-126825000D03*
G04 #@! TO.P,X3,3*
G04 #@! TO.N,/MAX30003_FCLK*
X293300000Y-128225000D03*
G04 #@! TO.P,X3,2*
G04 #@! TO.N,DGND*
X292200000Y-128225000D03*
G04 #@! TO.P,X3,1*
G04 #@! TO.N,1.8V*
X292200000Y-126825000D03*
G04 #@! TD*
D40*
G04 #@! TO.P,SW1,5*
G04 #@! TO.N,DGND*
X267175000Y-145100000D03*
G04 #@! TO.P,SW1,4*
X267175000Y-139100000D03*
D41*
G04 #@! TO.P,SW1,1*
G04 #@! TO.N,VccSwitch*
X268530000Y-141100000D03*
G04 #@! TO.P,SW1,2*
G04 #@! TO.N,Net-(SW1-Pad2)*
X268530000Y-143100000D03*
G04 #@! TO.P,SW1,3*
G04 #@! TO.N,VCC*
X268530000Y-142100000D03*
G04 #@! TD*
D42*
G04 #@! TO.N,VccSwitch*
X289520000Y-140520000D03*
X289860000Y-144040000D03*
G04 #@! TO.N,DGND*
X279070000Y-128500000D03*
X268986000Y-135610000D03*
X276820000Y-128420000D03*
X282050000Y-141125000D03*
X278000000Y-141486046D03*
X283477609Y-129152609D03*
X285850000Y-129650000D03*
X288050000Y-128450000D03*
X292175000Y-130275000D03*
X293050000Y-131450000D03*
X294400000Y-128475000D03*
X282925000Y-138450000D03*
G04 #@! TO.N,/LOAD_SW_CTRL*
X277940000Y-140010000D03*
X275210000Y-144910000D03*
G04 #@! TO.N,/BATT_IN*
X290000000Y-145010000D03*
X288340000Y-141140000D03*
G04 #@! TO.N,1.8V*
X276550000Y-144420000D03*
X272990000Y-144160000D03*
X274660000Y-136990000D03*
X275050000Y-131125000D03*
X274725000Y-129450000D03*
X281275000Y-136800000D03*
X284875000Y-131150000D03*
X287175000Y-126750000D03*
X292375000Y-131550000D03*
X290675000Y-137500000D03*
X289975000Y-135525000D03*
X291300000Y-131600000D03*
G04 #@! TO.N,DGND*
X269350000Y-145025000D03*
G04 #@! TO.N,VccSwitch*
X272150000Y-141125000D03*
G04 #@! TD*
D43*
G04 #@! TO.N,/DEC1*
X274100000Y-140200000D02*
X273649580Y-140200000D01*
X274730000Y-139570000D02*
X274100000Y-140200000D01*
X274730000Y-138010000D02*
X274730000Y-139570000D01*
X275600000Y-137140000D02*
X274730000Y-138010000D01*
X275600000Y-137000000D02*
X275600000Y-137140000D01*
X275600000Y-137000000D02*
X275550000Y-137000000D01*
D44*
G04 #@! TO.N,/RF*
X276049580Y-127700000D02*
X277800000Y-127700000D01*
X277800000Y-127700000D02*
X278000000Y-127900000D01*
D43*
G04 #@! TO.N,/SWDCLK*
X280000000Y-131000000D02*
X280920000Y-131000000D01*
X281500000Y-130420000D02*
X281500000Y-129560000D01*
X280920000Y-131000000D02*
X281500000Y-130420000D01*
G04 #@! TO.N,/SWDIO*
X279600000Y-131000000D02*
X279600000Y-130480000D01*
X280360000Y-128160000D02*
X281500000Y-127020000D01*
X280360000Y-129720000D02*
X280360000Y-128160000D01*
X279600000Y-130480000D02*
X280360000Y-129720000D01*
D45*
G04 #@! TO.N,Net-(A1-Pad1)*
X271950420Y-127700000D02*
X270772000Y-127700000D01*
X270772000Y-127700000D02*
X270745000Y-127673000D01*
D43*
G04 #@! TO.N,Net-(L3-Pad1)*
X271408000Y-138620000D02*
X271408000Y-137592420D01*
X271408000Y-137592420D02*
X271730420Y-137270000D01*
G04 #@! TO.N,VccSwitch*
X289520000Y-141380000D02*
X289520000Y-140520000D01*
X289830000Y-144010000D02*
X289209580Y-144010000D01*
X289860000Y-144040000D02*
X289830000Y-144010000D01*
X288310000Y-142505000D02*
X288310000Y-141930000D01*
X288860000Y-141380000D02*
X289520000Y-141380000D01*
X288310000Y-141930000D02*
X288860000Y-141380000D01*
D45*
G04 #@! TO.N,Net-(C30-Pad2)*
X274000000Y-127699580D02*
X272850000Y-127699580D01*
X272850000Y-127699580D02*
X272849580Y-127700000D01*
X275150420Y-127700000D02*
X274000420Y-127700000D01*
X274000420Y-127700000D02*
X274000000Y-127699580D01*
D43*
G04 #@! TO.N,/LED2*
X279600000Y-137000000D02*
X279600000Y-138090000D01*
X279600000Y-138090000D02*
X279240000Y-138450000D01*
G04 #@! TO.N,/LED3*
X280000000Y-137000000D02*
X280000000Y-137960000D01*
X280000000Y-137960000D02*
X280490000Y-138450000D01*
G04 #@! TO.N,Net-(C23-Pad1)*
X272629580Y-137270000D02*
X272629580Y-136632420D01*
X272629580Y-136632420D02*
X273262000Y-136000000D01*
X273262000Y-136000000D02*
X273350000Y-136000000D01*
X273350000Y-136000000D02*
X273950000Y-135400000D01*
X273950000Y-135400000D02*
X274800000Y-135400000D01*
G04 #@! TO.N,Net-(C24-Pad2)*
X275000000Y-130040000D02*
X274720163Y-130049375D01*
X274720163Y-130049375D02*
X272760000Y-132040000D01*
X272760000Y-132040000D02*
X272770000Y-132030000D01*
X272770000Y-132030000D02*
X272770000Y-132830000D01*
X272770000Y-132830000D02*
X271600000Y-132830000D01*
X271600000Y-132830000D02*
X271490000Y-132940000D01*
X271490000Y-132940000D02*
X271490000Y-134310000D01*
X271490000Y-134310000D02*
X271200000Y-134600000D01*
X276400000Y-131000000D02*
X276400000Y-130330490D01*
X275395598Y-130045598D02*
X275000000Y-130040000D01*
X276115108Y-130045598D02*
X275395598Y-130045598D01*
X276400000Y-130330490D02*
X276115108Y-130045598D01*
X271200000Y-134600000D02*
X270800000Y-134600000D01*
X269800000Y-134649580D02*
X270750420Y-134649580D01*
X270800000Y-134600000D02*
X270950000Y-134600000D01*
X270750420Y-134649580D02*
X270800000Y-134600000D01*
D46*
X271050000Y-134650000D02*
X270800000Y-134650000D01*
X270799580Y-134649580D02*
X270800000Y-134650000D01*
D43*
G04 #@! TO.N,Net-(C25-Pad2)*
X276000000Y-131000000D02*
X276000000Y-130450000D01*
X276000000Y-130450000D02*
X275900000Y-130350000D01*
X275900000Y-130350000D02*
X274900000Y-130350000D01*
X274900000Y-130350000D02*
X273200000Y-132050000D01*
X273200000Y-132050000D02*
X273200000Y-133650420D01*
X272200000Y-133500000D02*
X273049580Y-133500000D01*
X273049580Y-133500000D02*
X273200000Y-133650420D01*
G04 #@! TO.N,Net-(C28-Pad1)*
X275450000Y-140100420D02*
X275450000Y-138850000D01*
X275450000Y-138850000D02*
X276000000Y-138300000D01*
X276000000Y-138300000D02*
X276000000Y-137000000D01*
G04 #@! TO.N,Net-(C29-Pad1)*
X276850000Y-140100420D02*
X276850000Y-138850000D01*
X276400000Y-137000000D02*
X276400000Y-138400000D01*
X276400000Y-138400000D02*
X276850000Y-138850000D01*
G04 #@! TO.N,Net-(L4-Pad1)*
X274800000Y-135800000D02*
X274240000Y-135800000D01*
X273200000Y-137640000D02*
X273200000Y-138352000D01*
X273840000Y-137000000D02*
X273200000Y-137640000D01*
X273840000Y-136200000D02*
X273840000Y-137000000D01*
X274240000Y-135800000D02*
X273840000Y-136200000D01*
X273200000Y-138352000D02*
X272932000Y-138620000D01*
D47*
G04 #@! TO.N,Net-(F1-Pad2)*
X278000000Y-129100000D02*
X278000000Y-131000000D01*
D43*
G04 #@! TO.N,/DEC3*
X276800000Y-131000000D02*
X276800000Y-129850000D01*
X276439580Y-129489580D02*
X275840000Y-129489580D01*
X276800000Y-129850000D02*
X276439580Y-129489580D01*
G04 #@! TO.N,DGND*
X284300420Y-144020000D02*
X284300420Y-144370420D01*
X287429580Y-144420420D02*
X287429580Y-144010000D01*
X287180000Y-144670000D02*
X287429580Y-144420420D01*
X284600000Y-144670000D02*
X287180000Y-144670000D01*
X284300420Y-144370420D02*
X284600000Y-144670000D01*
X285197500Y-141777500D02*
X285197500Y-141042500D01*
X285669580Y-140570420D02*
X287490000Y-140570420D01*
X285197500Y-141042500D02*
X285669580Y-140570420D01*
X283310000Y-141890000D02*
X284210000Y-141890000D01*
X284210000Y-141890000D02*
X284322500Y-141777500D01*
X284322500Y-141777500D02*
X284322500Y-142502500D01*
X285197500Y-142502500D02*
X284322500Y-142502500D01*
X284322500Y-141777500D02*
X285197500Y-141777500D01*
X288310420Y-144010000D02*
X287429580Y-144010000D01*
X284300420Y-144020000D02*
X284300420Y-142524580D01*
X284300420Y-142524580D02*
X284322500Y-142502500D01*
X282140000Y-141740420D02*
X282440420Y-141740420D01*
X282440420Y-141740420D02*
X282590000Y-141890000D01*
X282590000Y-141890000D02*
X283310000Y-141890000D01*
X275840000Y-128590420D02*
X274800840Y-128590420D01*
X274800840Y-128590420D02*
X274760000Y-128549580D01*
X276820000Y-128420000D02*
X276010420Y-128420000D01*
X276010420Y-128420000D02*
X275840000Y-128590420D01*
X275909580Y-128800000D02*
X275729580Y-128620000D01*
X278326500Y-128500000D02*
X279070000Y-128500000D01*
D47*
X275450000Y-140999580D02*
X272999580Y-140999580D01*
X272750420Y-140750420D02*
X272750420Y-140200000D01*
X272999580Y-140999580D02*
X272750420Y-140750420D01*
D44*
X270230000Y-137508000D02*
X271738000Y-136000000D01*
X270230000Y-139280000D02*
X270230000Y-137508000D01*
D43*
X272750420Y-140200000D02*
X272750420Y-139709580D01*
X272750420Y-139709580D02*
X272950000Y-139510000D01*
X272950000Y-139510000D02*
X273609580Y-139510000D01*
X273609580Y-139510000D02*
X274070000Y-139049580D01*
D44*
X274000000Y-128549580D02*
X274760000Y-128549580D01*
X274760000Y-128549580D02*
X274830420Y-128620000D01*
D43*
X276900000Y-128500000D02*
X276820000Y-128420000D01*
X277637500Y-128500000D02*
X276900000Y-128500000D01*
X277637500Y-128500000D02*
X278326500Y-128500000D01*
X272750420Y-140200000D02*
X272750420Y-140375840D01*
D44*
X273150420Y-129450000D02*
X273150420Y-128799580D01*
X273400420Y-128549580D02*
X274000000Y-128549580D01*
X273150420Y-128799580D02*
X273400420Y-128549580D01*
X271150000Y-140200000D02*
X272750420Y-140200000D01*
X270230000Y-139280000D02*
X271150000Y-140200000D01*
D43*
X273200000Y-134549580D02*
X273449580Y-134549580D01*
X273449580Y-134549580D02*
X273900000Y-135000000D01*
X273900000Y-135000000D02*
X274800000Y-135000000D01*
X277600000Y-131000000D02*
X277600000Y-129700000D01*
X277350000Y-129450000D02*
X277350000Y-128500000D01*
X277600000Y-129700000D02*
X277350000Y-129450000D01*
X278356250Y-132331250D02*
X278356250Y-133443750D01*
X277243750Y-135668750D02*
X276131250Y-135668750D01*
X278356250Y-135668750D02*
X277243750Y-135668750D01*
X279468750Y-135668750D02*
X278356250Y-135668750D01*
X279468750Y-134556250D02*
X279468750Y-135668750D01*
X278356250Y-134556250D02*
X279468750Y-134556250D01*
X277243750Y-134556250D02*
X278356250Y-134556250D01*
X276131250Y-134556250D02*
X277243750Y-134556250D01*
X276131250Y-133443750D02*
X276131250Y-134556250D01*
X277243750Y-133443750D02*
X276131250Y-133443750D01*
X278356250Y-133443750D02*
X277243750Y-133443750D01*
X279468750Y-132331250D02*
X279468750Y-133443750D01*
X278356250Y-132331250D02*
X279468750Y-132331250D01*
X277243750Y-132331250D02*
X278356250Y-132331250D01*
X276131250Y-132331250D02*
X277243750Y-132331250D01*
X274800000Y-135000000D02*
X275687500Y-135000000D01*
X275687500Y-135000000D02*
X276131250Y-134556250D01*
X277600000Y-131000000D02*
X277600000Y-131975000D01*
X277600000Y-131975000D02*
X277243750Y-132331250D01*
D44*
X275450000Y-140999580D02*
X276100000Y-140999580D01*
X276100000Y-140999580D02*
X276850000Y-140999580D01*
D43*
X270800000Y-133500000D02*
X270050420Y-133500000D01*
X270050420Y-133500000D02*
X269800000Y-133750420D01*
X273200000Y-134549580D02*
X272250420Y-134549580D01*
X272250420Y-134549580D02*
X272200000Y-134600000D01*
X269800000Y-133750420D02*
X269093580Y-133750420D01*
X269093580Y-133750420D02*
X268986000Y-133858000D01*
X268986000Y-133858000D02*
X268986000Y-135610000D01*
X268986000Y-135610000D02*
X268986000Y-135636000D01*
X268986000Y-135636000D02*
X272034000Y-135636000D01*
X272034000Y-135636000D02*
X272200000Y-135470000D01*
X272200000Y-135470000D02*
X272200000Y-134650000D01*
D46*
X272300420Y-134549580D02*
X272200000Y-134650000D01*
D43*
X277491680Y-143289160D02*
X278420840Y-142360000D01*
X277430000Y-143289160D02*
X277491680Y-143289160D01*
X278420840Y-141908280D02*
X278420840Y-142360000D01*
X278420840Y-141906886D02*
X278420840Y-141908280D01*
X276850000Y-140999580D02*
X277513534Y-140999580D01*
D47*
X292440000Y-141970000D02*
X292380000Y-141910000D01*
D43*
X276310840Y-143240000D02*
X276550000Y-143000840D01*
X275620000Y-143240000D02*
X276310840Y-143240000D01*
X277141680Y-143000840D02*
X277430000Y-143289160D01*
X276550000Y-143000840D02*
X277141680Y-143000840D01*
X282140000Y-141740420D02*
X282140000Y-141215000D01*
X282140000Y-141215000D02*
X282050000Y-141125000D01*
X278000000Y-141486046D02*
X278420840Y-141906886D01*
X277513534Y-140999580D02*
X278000000Y-141486046D01*
D47*
X295990000Y-141970000D02*
X292440000Y-141970000D01*
D43*
X284638000Y-128800000D02*
X284575000Y-128800000D01*
X284638000Y-128800000D02*
X283830218Y-128800000D01*
X283830218Y-128800000D02*
X283477609Y-129152609D01*
X285800000Y-130462000D02*
X286300000Y-130462000D01*
X286450420Y-130612420D02*
X286300000Y-130462000D01*
X286450420Y-131625000D02*
X286450420Y-130612420D01*
X285800000Y-130462000D02*
X285800000Y-129700000D01*
X285800000Y-129700000D02*
X285850000Y-129650000D01*
X288050000Y-127625420D02*
X288024580Y-127600000D01*
X288050000Y-128450000D02*
X288050000Y-127625420D01*
X291799160Y-127824160D02*
X292200000Y-128225000D01*
X290875000Y-127824160D02*
X291799160Y-127824160D01*
X290650840Y-127600000D02*
X290875000Y-127824160D01*
X288024580Y-127600000D02*
X290650840Y-127600000D01*
X292200000Y-129374580D02*
X292350420Y-129525000D01*
X292200000Y-128225000D02*
X292200000Y-129374580D01*
X292350420Y-129525000D02*
X292350420Y-130099580D01*
X292350420Y-130099580D02*
X292175000Y-130275000D01*
X292875000Y-131625000D02*
X292875000Y-132650000D01*
X293050000Y-131450000D02*
X292875000Y-131625000D01*
X294875000Y-133500000D02*
X293375000Y-135000000D01*
X294875000Y-132650000D02*
X294875000Y-133500000D01*
X292875000Y-134500000D02*
X293375000Y-135000000D01*
X292875000Y-132650000D02*
X292875000Y-134500000D01*
X293875000Y-134500000D02*
X293375000Y-135000000D01*
X295725000Y-134500000D02*
X293875000Y-134500000D01*
X295725000Y-134500000D02*
X295725000Y-135000000D01*
X295725000Y-135000000D02*
X295725000Y-135500000D01*
X295725000Y-135500000D02*
X295725000Y-136000000D01*
X295725000Y-136000000D02*
X295725000Y-136500000D01*
X294875000Y-137350000D02*
X295725000Y-136500000D01*
X293875000Y-135500000D02*
X293375000Y-135000000D01*
X293875000Y-137350000D02*
X293875000Y-135500000D01*
X292875000Y-135500000D02*
X293375000Y-135000000D01*
X292875000Y-137350000D02*
X292875000Y-135500000D01*
X295649580Y-138473280D02*
X295649580Y-138925000D01*
X295649580Y-137822580D02*
X295649580Y-138473280D01*
X295177000Y-137350000D02*
X295649580Y-137822580D01*
X294875000Y-137350000D02*
X295177000Y-137350000D01*
X292875000Y-138800420D02*
X292725420Y-138950000D01*
X292875000Y-137350000D02*
X292875000Y-138800420D01*
X291924580Y-138950000D02*
X292725420Y-138950000D01*
D47*
X288975420Y-137974580D02*
X288975420Y-138950000D01*
X288975420Y-139050330D02*
X289550090Y-139625000D01*
X288975420Y-138950000D02*
X288975420Y-139050330D01*
X291924580Y-139050330D02*
X291924580Y-138950000D01*
X291349910Y-139625000D02*
X291924580Y-139050330D01*
X289550090Y-139625000D02*
X291349910Y-139625000D01*
X291349910Y-140879910D02*
X292380000Y-141910000D01*
X291349910Y-139625000D02*
X291349910Y-140879910D01*
D43*
X291799160Y-130650840D02*
X292175000Y-130275000D01*
X290600000Y-130650840D02*
X291799160Y-130650840D01*
X290599160Y-130650000D02*
X290600000Y-130650840D01*
X289575000Y-130650000D02*
X290599160Y-130650000D01*
X294150000Y-129525840D02*
X294150000Y-128725000D01*
X294150000Y-128725000D02*
X294400000Y-128475000D01*
X288975420Y-139185330D02*
X288975420Y-138950000D01*
X287590330Y-140570420D02*
X288975420Y-139185330D01*
X287490000Y-140570420D02*
X287590330Y-140570420D01*
X282050000Y-138424580D02*
X282899580Y-138424580D01*
X282899580Y-138424580D02*
X282925000Y-138450000D01*
G04 #@! TO.N,/AIN_BAT_DIV_VOLTAGE*
X279319580Y-142360420D02*
X279320000Y-142360000D01*
X279319580Y-143320000D02*
X279319580Y-142360420D01*
X279320000Y-142259670D02*
X279320000Y-142360000D01*
X278480420Y-141420090D02*
X279320000Y-142259670D01*
X278480420Y-138788798D02*
X278480420Y-141420090D01*
X277600000Y-137908378D02*
X278480420Y-138788798D01*
X277600000Y-137000000D02*
X277600000Y-137908378D01*
G04 #@! TO.N,/LOAD_SW_CTRL*
X275210000Y-144050000D02*
X275220000Y-144040000D01*
X275210000Y-144910000D02*
X275210000Y-144050000D01*
X277940000Y-139650790D02*
X277940000Y-140010000D01*
X277940000Y-138678878D02*
X277940000Y-139650790D01*
X277200000Y-137938878D02*
X277940000Y-138678878D01*
X277200000Y-137000000D02*
X277200000Y-137938878D01*
G04 #@! TO.N,5V_in_charge*
X288310000Y-142955000D02*
X289495000Y-142955000D01*
X289495000Y-142955000D02*
X289520000Y-142980000D01*
X286530420Y-144010000D02*
X286530420Y-143719580D01*
X286530420Y-143719580D02*
X286880000Y-143370000D01*
X287895000Y-143370000D02*
X288310000Y-142955000D01*
X286880000Y-143370000D02*
X287895000Y-143370000D01*
X285199580Y-144020000D02*
X286520420Y-144020000D01*
X286520420Y-144020000D02*
X286530420Y-144010000D01*
X286530420Y-144010000D02*
X286530420Y-143210420D01*
X286530420Y-143210420D02*
X286210000Y-142890000D01*
X286210000Y-142390000D02*
X286210000Y-142890000D01*
X291740000Y-142980000D02*
X292000000Y-143240000D01*
X292000000Y-143240000D02*
X294720000Y-143240000D01*
X289520000Y-142980000D02*
X291740000Y-142980000D01*
X294720000Y-143240000D02*
X295990000Y-144510000D01*
G04 #@! TO.N,Net-(D3-Pad1)*
X283310000Y-140990000D02*
X284325000Y-139975000D01*
X283310000Y-141390000D02*
X283310000Y-140990000D01*
G04 #@! TO.N,Net-(R9-Pad1)*
X283310000Y-142890000D02*
X282390420Y-142890000D01*
X282390420Y-142890000D02*
X282140000Y-142639580D01*
G04 #@! TO.N,/BATT_IN*
X287490000Y-141469580D02*
X288010420Y-141469580D01*
X290930000Y-144450000D02*
X290000000Y-145010000D01*
X290930000Y-144450000D02*
X292380000Y-144450000D01*
X288010420Y-141469580D02*
X288340000Y-141140000D01*
X287490000Y-141469580D02*
X287490000Y-142610000D01*
X286210000Y-141890000D02*
X286210000Y-141390000D01*
X286210000Y-141390000D02*
X287410420Y-141390000D01*
X287410420Y-141390000D02*
X287490000Y-141469580D01*
X287490000Y-142610000D02*
X287610000Y-142730000D01*
G04 #@! TO.N,Net-(R5-Pad1)*
X278420420Y-143420330D02*
X278420420Y-143320000D01*
X276938349Y-144902401D02*
X278420420Y-143420330D01*
X276319767Y-144902401D02*
X276938349Y-144902401D01*
X275620000Y-144202634D02*
X276319767Y-144902401D01*
X275620000Y-144040000D02*
X275620000Y-144202634D01*
G04 #@! TO.N,1.8V*
X274049580Y-129450000D02*
X274580000Y-129450000D01*
X274070000Y-138150420D02*
X274070000Y-137580000D01*
X274070000Y-137580000D02*
X274640000Y-137010000D01*
X274660000Y-136990000D02*
X274800000Y-136200000D01*
X274640000Y-137010000D02*
X274660000Y-136990000D01*
X275620000Y-143640000D02*
X276290000Y-143640000D01*
X276290000Y-143640000D02*
X276285741Y-143722400D01*
X276285741Y-143722400D02*
X276550000Y-143900000D01*
X276550000Y-143900000D02*
X276550000Y-144420000D01*
X273512500Y-144160000D02*
X273750000Y-144397500D01*
X272990000Y-144160000D02*
X273512500Y-144160000D01*
X275175000Y-131000000D02*
X275050000Y-131125000D01*
X275600000Y-131000000D02*
X275175000Y-131000000D01*
D47*
X274725000Y-129450000D02*
X274049580Y-129450000D01*
D43*
X280800000Y-136200000D02*
X280800000Y-136325000D01*
X280800000Y-136325000D02*
X281275000Y-136800000D01*
D44*
X281275000Y-136800000D02*
X281324580Y-136800000D01*
D43*
X279240000Y-140050000D02*
X280490000Y-140050000D01*
D44*
X281324580Y-136800000D02*
X281674580Y-137150000D01*
X281674580Y-137150000D02*
X282050000Y-137525420D01*
D43*
X284750000Y-126750000D02*
X286025000Y-126750000D01*
X286275420Y-126750000D02*
X287125420Y-127600000D01*
X286025000Y-126750000D02*
X286275420Y-126750000D01*
X286300000Y-128425420D02*
X287125420Y-127600000D01*
X286300000Y-128638000D02*
X286300000Y-128425420D01*
X285300000Y-130462000D02*
X285300000Y-130725000D01*
X285300000Y-130725000D02*
X284875000Y-131150000D01*
X286962000Y-130300000D02*
X286962000Y-130712000D01*
X287349580Y-131099580D02*
X287349580Y-131625000D01*
X286962000Y-130712000D02*
X287349580Y-131099580D01*
X284875000Y-131509210D02*
X285715790Y-132350000D01*
X284875000Y-131150000D02*
X284875000Y-131509210D01*
X287349580Y-131725330D02*
X287349580Y-131625000D01*
X286724910Y-132350000D02*
X287349580Y-131725330D01*
X285715790Y-132350000D02*
X286724910Y-132350000D01*
X287125420Y-127600000D02*
X287125420Y-126799580D01*
X287125420Y-126799580D02*
X287175000Y-126750000D01*
X292100000Y-126925000D02*
X292200000Y-126825000D01*
X290875000Y-126925000D02*
X292100000Y-126925000D01*
X281042000Y-140050000D02*
X280490000Y-140050000D01*
X281275000Y-139817000D02*
X281042000Y-140050000D01*
X281275000Y-136800000D02*
X281275000Y-139817000D01*
X292200000Y-126825000D02*
X293300000Y-126825000D01*
X290700000Y-126750000D02*
X290875000Y-126925000D01*
X287175000Y-126750000D02*
X290700000Y-126750000D01*
X292375000Y-132650000D02*
X292375000Y-131550000D01*
X289874580Y-137974580D02*
X289874580Y-138950000D01*
X289874580Y-137974580D02*
X290200420Y-137974580D01*
X290200420Y-137974580D02*
X290675000Y-137500000D01*
D47*
X291725000Y-137500000D02*
X291875000Y-137350000D01*
X290675000Y-137500000D02*
X291725000Y-137500000D01*
X291025000Y-135500000D02*
X290000000Y-135500000D01*
X290000000Y-135500000D02*
X289975000Y-135525000D01*
D43*
X290650000Y-131600000D02*
X290600000Y-131550000D01*
X291300000Y-131600000D02*
X290650000Y-131600000D01*
X289575840Y-131550000D02*
X289575000Y-131549160D01*
X290600000Y-131550000D02*
X289575840Y-131550000D01*
X281433000Y-139975000D02*
X282725000Y-139975000D01*
X281275000Y-139817000D02*
X281433000Y-139975000D01*
G04 #@! TO.N,Net-(L2-Pad1)*
X275202500Y-142822500D02*
X275220000Y-142840000D01*
X273750000Y-142822500D02*
X275202500Y-142822500D01*
G04 #@! TO.N,VCC*
X275220000Y-143240000D02*
X275220000Y-143640000D01*
X276070000Y-142390000D02*
X277430000Y-142390000D01*
X275620000Y-142840000D02*
X276070000Y-142390000D01*
X273370118Y-143550000D02*
X272975000Y-143154882D01*
X275220000Y-143240000D02*
X274910000Y-143550000D01*
X274910000Y-143550000D02*
X273370118Y-143550000D01*
X275836590Y-142156590D02*
X276070000Y-142390000D01*
X272975000Y-142490118D02*
X273308528Y-142156590D01*
X272975000Y-143154882D02*
X272975000Y-142490118D01*
D44*
X269242200Y-142100000D02*
X268530000Y-142100000D01*
X269342200Y-142000000D02*
X269242200Y-142100000D01*
X274618410Y-142000000D02*
X269342200Y-142000000D01*
X274775000Y-142156590D02*
X274618410Y-142000000D01*
D43*
X274775000Y-142156590D02*
X275836590Y-142156590D01*
X273308528Y-142156590D02*
X274775000Y-142156590D01*
D44*
G04 #@! TO.N,DGND*
X270050000Y-139100000D02*
X267175000Y-139100000D01*
X270230000Y-139280000D02*
X270050000Y-139100000D01*
X267175000Y-144192800D02*
X267175000Y-139100000D01*
X267175000Y-145100000D02*
X267175000Y-144192800D01*
X267175000Y-145100000D02*
X269275000Y-145100000D01*
X269275000Y-145100000D02*
X269350000Y-145025000D01*
D43*
G04 #@! TO.N,/BMI_INT1*
X281352000Y-132600000D02*
X280800000Y-132600000D01*
X281413000Y-132600000D02*
X281352000Y-132600000D01*
X283713000Y-130300000D02*
X281413000Y-132600000D01*
X284638000Y-130300000D02*
X283713000Y-130300000D01*
G04 #@! TO.N,/BMI_INT2*
X281447590Y-132904410D02*
X281770590Y-132904410D01*
X280800000Y-133000000D02*
X281352000Y-133000000D01*
X281352000Y-133000000D02*
X281447590Y-132904410D01*
X281770590Y-132904410D02*
X283450000Y-131225000D01*
X287351500Y-129800000D02*
X286962000Y-129800000D01*
X287777371Y-130225871D02*
X287351500Y-129800000D01*
X287777371Y-132107441D02*
X287777371Y-130225871D01*
X287230402Y-132654410D02*
X287777371Y-132107441D01*
X285589700Y-132654410D02*
X287230402Y-132654410D01*
X284160290Y-131225000D02*
X285589700Y-132654410D01*
X283450000Y-131225000D02*
X284160290Y-131225000D01*
G04 #@! TO.N,/BMI_SCL*
X280900000Y-131800000D02*
X280950000Y-131800000D01*
D46*
X280900000Y-131800000D02*
X281100000Y-131800000D01*
D43*
X285800000Y-127875000D02*
X286025000Y-127650000D01*
X285800000Y-128638000D02*
X285800000Y-127875000D01*
X281352000Y-131800000D02*
X280800000Y-131800000D01*
X282490401Y-130661599D02*
X281352000Y-131800000D01*
X282490401Y-128870645D02*
X282490401Y-130661599D01*
X284139447Y-127221599D02*
X282490401Y-128870645D01*
X285496599Y-127221599D02*
X284139447Y-127221599D01*
X285925000Y-127650000D02*
X285496599Y-127221599D01*
X286025000Y-127650000D02*
X285925000Y-127650000D01*
G04 #@! TO.N,/BMI_SDA*
X285300000Y-128200000D02*
X284750000Y-127650000D01*
X285300000Y-128638000D02*
X285300000Y-128200000D01*
X281352000Y-132200000D02*
X280800000Y-132200000D01*
X281382500Y-132200000D02*
X281352000Y-132200000D01*
X282794810Y-130787690D02*
X281382500Y-132200000D01*
X282794811Y-129153189D02*
X282794810Y-130787690D01*
X284298000Y-127650000D02*
X282794811Y-129153189D01*
X284750000Y-127650000D02*
X284298000Y-127650000D01*
G04 #@! TO.N,Net-(C4-Pad2)*
X293375000Y-138700420D02*
X293624580Y-138950000D01*
X293375000Y-137350000D02*
X293375000Y-138700420D01*
G04 #@! TO.N,Net-(C6-Pad1)*
X291025420Y-138849670D02*
X291625090Y-138250000D01*
X291025420Y-138950000D02*
X291025420Y-138849670D01*
X292375000Y-138002000D02*
X292375000Y-137350000D01*
X292127000Y-138250000D02*
X292375000Y-138002000D01*
X291625090Y-138250000D02*
X292127000Y-138250000D01*
G04 #@! TO.N,Net-(C7-Pad1)*
X294399030Y-138925000D02*
X294750420Y-138925000D01*
X294375000Y-138900970D02*
X294399030Y-138925000D01*
X294375000Y-137350000D02*
X294375000Y-138900970D01*
G04 #@! TO.N,Net-(C8-Pad1)*
X293875000Y-131550000D02*
X293875000Y-132650000D01*
X294000000Y-131425000D02*
X293875000Y-131550000D01*
G04 #@! TO.N,Net-(C8-Pad2)*
X294375000Y-131949160D02*
X294899160Y-131425000D01*
X294375000Y-132650000D02*
X294375000Y-131949160D01*
G04 #@! TO.N,Net-(C9-Pad1)*
X293375000Y-131998000D02*
X293375000Y-132650000D01*
X293532401Y-131840599D02*
X293375000Y-131998000D01*
X293532401Y-130590879D02*
X293532401Y-131840599D01*
X293698280Y-130425000D02*
X293532401Y-130590879D01*
X294150000Y-130425000D02*
X293698280Y-130425000D01*
G04 #@! TO.N,Net-(IC2-Pad6)*
X296453401Y-133923599D02*
X296453401Y-133228401D01*
X295725000Y-134000000D02*
X296377000Y-134000000D01*
X296377000Y-134000000D02*
X296453401Y-133923599D01*
X296450000Y-133225000D02*
X296450000Y-129700000D01*
X296453401Y-133228401D02*
X296450000Y-133225000D01*
G04 #@! TO.N,Net-(IC2-Pad7)*
X295725000Y-133198000D02*
X295725000Y-133500000D01*
X295371599Y-132844599D02*
X295725000Y-133198000D01*
X295371599Y-128238401D02*
X295371599Y-132844599D01*
X296450000Y-127160000D02*
X295371599Y-128238401D01*
G04 #@! TO.N,/MAX30003_FCLK*
X293300000Y-129474580D02*
X293249580Y-129525000D01*
X293300000Y-128225000D02*
X293300000Y-129474580D01*
X291875000Y-131336046D02*
X292711046Y-130500000D01*
X291875000Y-132650000D02*
X291875000Y-131336046D01*
X292726300Y-130500000D02*
X292711046Y-130500000D01*
X293249580Y-129976720D02*
X292726300Y-130500000D01*
X293249580Y-129525000D02*
X293249580Y-129976720D01*
G04 #@! TO.N,/MAX30003_CSB*
X291025000Y-133500000D02*
X289350000Y-133500000D01*
X289050000Y-133800000D02*
X280800000Y-133800000D01*
X289350000Y-133500000D02*
X289050000Y-133800000D01*
G04 #@! TO.N,/MAX30003_SCLK*
X291025000Y-134000000D02*
X289425000Y-134000000D01*
X289225000Y-134200000D02*
X280800000Y-134200000D01*
X289425000Y-134000000D02*
X289225000Y-134200000D01*
G04 #@! TO.N,/MAX30003_SDI*
X280800000Y-134600000D02*
X289500000Y-134600000D01*
X289600000Y-134500000D02*
X291025000Y-134500000D01*
X289500000Y-134600000D02*
X289600000Y-134500000D01*
G04 #@! TO.N,/MAX30003_SDO*
X291025000Y-135000000D02*
X280800000Y-135000000D01*
G04 #@! TO.N,/MAX30003_INT2*
X290373000Y-136000000D02*
X291025000Y-136000000D01*
X290365599Y-136007401D02*
X290373000Y-136000000D01*
X289743447Y-136007401D02*
X290365599Y-136007401D01*
X289136046Y-135400000D02*
X289743447Y-136007401D01*
X280800000Y-135400000D02*
X289136046Y-135400000D01*
G04 #@! TO.N,/MAX30003_INT*
X281352000Y-135800000D02*
X280800000Y-135800000D01*
X281454320Y-135800000D02*
X281352000Y-135800000D01*
X282154320Y-136500000D02*
X281454320Y-135800000D01*
X291025000Y-136500000D02*
X282154320Y-136500000D01*
D44*
G04 #@! TO.N,VccSwitch*
X268530000Y-141100000D02*
X272125000Y-141100000D01*
X272125000Y-141100000D02*
X272150000Y-141125000D01*
G04 #@! TD*
D48*
G04 #@! TO.N,DGND*
G36*
X271322582Y-132160253D02*
X271087398Y-132317398D01*
X271047731Y-132376764D01*
X271036762Y-132387733D01*
X270977398Y-132427399D01*
X270937733Y-132486762D01*
X270937732Y-132486763D01*
X270893753Y-132552582D01*
X270820253Y-132662583D01*
X270779000Y-132869975D01*
X270779000Y-132869979D01*
X270765072Y-132940000D01*
X270779000Y-133010021D01*
X270779000Y-133552560D01*
X270674135Y-133552560D01*
X270734720Y-133491975D01*
X270734720Y-133424721D01*
X270673000Y-133275716D01*
X270673000Y-132623750D01*
X270514250Y-132465000D01*
X270223691Y-132465000D01*
X269990302Y-132561673D01*
X269811673Y-132740301D01*
X269738884Y-132916030D01*
X269672998Y-132916030D01*
X269672998Y-133074778D01*
X269514250Y-132916030D01*
X269373970Y-132916030D01*
X269140581Y-133012703D01*
X268961953Y-133191332D01*
X268865280Y-133424721D01*
X268865280Y-133491975D01*
X269024030Y-133650725D01*
X269673000Y-133650725D01*
X269673000Y-133603420D01*
X269927000Y-133603420D01*
X269927000Y-133627000D01*
X269873750Y-133627000D01*
X269715000Y-133785750D01*
X269715000Y-133802750D01*
X269500280Y-133802750D01*
X269262158Y-133850115D01*
X269024030Y-133850115D01*
X268865280Y-134008865D01*
X268865280Y-134076119D01*
X268911676Y-134188128D01*
X268902123Y-134202425D01*
X268852840Y-134450190D01*
X268852840Y-134848970D01*
X268902123Y-135096735D01*
X269042471Y-135306779D01*
X269252515Y-135447127D01*
X269500280Y-135496410D01*
X269949961Y-135496410D01*
X270102235Y-135598157D01*
X270350000Y-135647440D01*
X270785500Y-135647440D01*
X270785500Y-135714250D01*
X270944250Y-135873000D01*
X271611000Y-135873000D01*
X271611000Y-135853000D01*
X271865000Y-135853000D01*
X271865000Y-135873000D01*
X271885000Y-135873000D01*
X271885000Y-136127000D01*
X271865000Y-136127000D01*
X271865000Y-136147000D01*
X271611000Y-136147000D01*
X271611000Y-136127000D01*
X270944250Y-136127000D01*
X270785500Y-136285750D01*
X270785500Y-136697810D01*
X270882173Y-136931199D01*
X270889839Y-136938865D01*
X270883590Y-136970280D01*
X270883590Y-137097491D01*
X270855734Y-137139181D01*
X270855732Y-137139183D01*
X270768903Y-137269132D01*
X270738254Y-137315002D01*
X270701456Y-137500000D01*
X270691191Y-137551602D01*
X270632691Y-137590691D01*
X270492343Y-137800735D01*
X270443060Y-138048500D01*
X270443060Y-139191500D01*
X270492343Y-139439265D01*
X270632691Y-139649309D01*
X270842735Y-139789657D01*
X271090500Y-139838940D01*
X271725500Y-139838940D01*
X271916030Y-139801042D01*
X271916030Y-139914250D01*
X272074780Y-140073000D01*
X272650725Y-140073000D01*
X272650725Y-140053000D01*
X272802750Y-140053000D01*
X272802750Y-140347000D01*
X272650725Y-140347000D01*
X272650725Y-140327000D01*
X272546527Y-140327000D01*
X272483476Y-140300883D01*
X272461960Y-140286507D01*
X272436580Y-140281459D01*
X272326833Y-140236000D01*
X272208038Y-140236000D01*
X272125000Y-140219483D01*
X272041962Y-140236000D01*
X271973167Y-140236000D01*
X271972201Y-140236400D01*
X269084483Y-140236400D01*
X269032765Y-140201843D01*
X268785000Y-140152560D01*
X268275000Y-140152560D01*
X268027235Y-140201843D01*
X267817191Y-140342191D01*
X267676843Y-140552235D01*
X267627560Y-140800000D01*
X267627560Y-141400000D01*
X267667342Y-141600000D01*
X267627560Y-141800000D01*
X267627560Y-142400000D01*
X267667342Y-142600000D01*
X267627560Y-142800000D01*
X267627560Y-143400000D01*
X267676843Y-143647765D01*
X267817191Y-143857809D01*
X268027235Y-143998157D01*
X268275000Y-144047440D01*
X268785000Y-144047440D01*
X269032765Y-143998157D01*
X269242809Y-143857809D01*
X269383157Y-143647765D01*
X269432440Y-143400000D01*
X269432440Y-142942677D01*
X269579160Y-142913493D01*
X269653830Y-142863600D01*
X272264000Y-142863600D01*
X272264000Y-143084861D01*
X272250072Y-143154882D01*
X272264000Y-143224903D01*
X272264000Y-143224907D01*
X272305253Y-143432299D01*
X272362128Y-143517418D01*
X272367422Y-143525342D01*
X272236342Y-143656422D01*
X272101000Y-143983167D01*
X272101000Y-144336833D01*
X272236342Y-144663578D01*
X272486422Y-144913658D01*
X272741263Y-145019216D01*
X272881261Y-145228739D01*
X272980428Y-145295000D01*
X268069250Y-145295000D01*
X268001250Y-145227000D01*
X267302000Y-145227000D01*
X267302000Y-145247000D01*
X267048000Y-145247000D01*
X267048000Y-145227000D01*
X267028000Y-145227000D01*
X267028000Y-144973000D01*
X267048000Y-144973000D01*
X267048000Y-144173750D01*
X267302000Y-144173750D01*
X267302000Y-144973000D01*
X268001250Y-144973000D01*
X268160000Y-144814250D01*
X268160000Y-144523690D01*
X268063327Y-144290301D01*
X267884698Y-144111673D01*
X267651309Y-144015000D01*
X267460750Y-144015000D01*
X267302000Y-144173750D01*
X267048000Y-144173750D01*
X266889250Y-144015000D01*
X266698691Y-144015000D01*
X266585000Y-144062092D01*
X266585000Y-140137908D01*
X266698691Y-140185000D01*
X266889250Y-140185000D01*
X267048000Y-140026250D01*
X267048000Y-139227000D01*
X267302000Y-139227000D01*
X267302000Y-140026250D01*
X267460750Y-140185000D01*
X267651309Y-140185000D01*
X267884698Y-140088327D01*
X268063327Y-139909699D01*
X268160000Y-139676310D01*
X268160000Y-139385750D01*
X268001250Y-139227000D01*
X267302000Y-139227000D01*
X267048000Y-139227000D01*
X267028000Y-139227000D01*
X267028000Y-138973000D01*
X267048000Y-138973000D01*
X267048000Y-138173750D01*
X267302000Y-138173750D01*
X267302000Y-138973000D01*
X268001250Y-138973000D01*
X268160000Y-138814250D01*
X268160000Y-138523690D01*
X268063327Y-138290301D01*
X267884698Y-138111673D01*
X267651309Y-138015000D01*
X267460750Y-138015000D01*
X267302000Y-138173750D01*
X267048000Y-138173750D01*
X266889250Y-138015000D01*
X266698691Y-138015000D01*
X266585000Y-138062092D01*
X266585000Y-132127000D01*
X271489755Y-132127000D01*
X271322582Y-132160253D01*
X271322582Y-132160253D01*
G37*
X271322582Y-132160253D02*
X271087398Y-132317398D01*
X271047731Y-132376764D01*
X271036762Y-132387733D01*
X270977398Y-132427399D01*
X270937733Y-132486762D01*
X270937732Y-132486763D01*
X270893753Y-132552582D01*
X270820253Y-132662583D01*
X270779000Y-132869975D01*
X270779000Y-132869979D01*
X270765072Y-132940000D01*
X270779000Y-133010021D01*
X270779000Y-133552560D01*
X270674135Y-133552560D01*
X270734720Y-133491975D01*
X270734720Y-133424721D01*
X270673000Y-133275716D01*
X270673000Y-132623750D01*
X270514250Y-132465000D01*
X270223691Y-132465000D01*
X269990302Y-132561673D01*
X269811673Y-132740301D01*
X269738884Y-132916030D01*
X269672998Y-132916030D01*
X269672998Y-133074778D01*
X269514250Y-132916030D01*
X269373970Y-132916030D01*
X269140581Y-133012703D01*
X268961953Y-133191332D01*
X268865280Y-133424721D01*
X268865280Y-133491975D01*
X269024030Y-133650725D01*
X269673000Y-133650725D01*
X269673000Y-133603420D01*
X269927000Y-133603420D01*
X269927000Y-133627000D01*
X269873750Y-133627000D01*
X269715000Y-133785750D01*
X269715000Y-133802750D01*
X269500280Y-133802750D01*
X269262158Y-133850115D01*
X269024030Y-133850115D01*
X268865280Y-134008865D01*
X268865280Y-134076119D01*
X268911676Y-134188128D01*
X268902123Y-134202425D01*
X268852840Y-134450190D01*
X268852840Y-134848970D01*
X268902123Y-135096735D01*
X269042471Y-135306779D01*
X269252515Y-135447127D01*
X269500280Y-135496410D01*
X269949961Y-135496410D01*
X270102235Y-135598157D01*
X270350000Y-135647440D01*
X270785500Y-135647440D01*
X270785500Y-135714250D01*
X270944250Y-135873000D01*
X271611000Y-135873000D01*
X271611000Y-135853000D01*
X271865000Y-135853000D01*
X271865000Y-135873000D01*
X271885000Y-135873000D01*
X271885000Y-136127000D01*
X271865000Y-136127000D01*
X271865000Y-136147000D01*
X271611000Y-136147000D01*
X271611000Y-136127000D01*
X270944250Y-136127000D01*
X270785500Y-136285750D01*
X270785500Y-136697810D01*
X270882173Y-136931199D01*
X270889839Y-136938865D01*
X270883590Y-136970280D01*
X270883590Y-137097491D01*
X270855734Y-137139181D01*
X270855732Y-137139183D01*
X270768903Y-137269132D01*
X270738254Y-137315002D01*
X270701456Y-137500000D01*
X270691191Y-137551602D01*
X270632691Y-137590691D01*
X270492343Y-137800735D01*
X270443060Y-138048500D01*
X270443060Y-139191500D01*
X270492343Y-139439265D01*
X270632691Y-139649309D01*
X270842735Y-139789657D01*
X271090500Y-139838940D01*
X271725500Y-139838940D01*
X271916030Y-139801042D01*
X271916030Y-139914250D01*
X272074780Y-140073000D01*
X272650725Y-140073000D01*
X272650725Y-140053000D01*
X272802750Y-140053000D01*
X272802750Y-140347000D01*
X272650725Y-140347000D01*
X272650725Y-140327000D01*
X272546527Y-140327000D01*
X272483476Y-140300883D01*
X272461960Y-140286507D01*
X272436580Y-140281459D01*
X272326833Y-140236000D01*
X272208038Y-140236000D01*
X272125000Y-140219483D01*
X272041962Y-140236000D01*
X271973167Y-140236000D01*
X271972201Y-140236400D01*
X269084483Y-140236400D01*
X269032765Y-140201843D01*
X268785000Y-140152560D01*
X268275000Y-140152560D01*
X268027235Y-140201843D01*
X267817191Y-140342191D01*
X267676843Y-140552235D01*
X267627560Y-140800000D01*
X267627560Y-141400000D01*
X267667342Y-141600000D01*
X267627560Y-141800000D01*
X267627560Y-142400000D01*
X267667342Y-142600000D01*
X267627560Y-142800000D01*
X267627560Y-143400000D01*
X267676843Y-143647765D01*
X267817191Y-143857809D01*
X268027235Y-143998157D01*
X268275000Y-144047440D01*
X268785000Y-144047440D01*
X269032765Y-143998157D01*
X269242809Y-143857809D01*
X269383157Y-143647765D01*
X269432440Y-143400000D01*
X269432440Y-142942677D01*
X269579160Y-142913493D01*
X269653830Y-142863600D01*
X272264000Y-142863600D01*
X272264000Y-143084861D01*
X272250072Y-143154882D01*
X272264000Y-143224903D01*
X272264000Y-143224907D01*
X272305253Y-143432299D01*
X272362128Y-143517418D01*
X272367422Y-143525342D01*
X272236342Y-143656422D01*
X272101000Y-143983167D01*
X272101000Y-144336833D01*
X272236342Y-144663578D01*
X272486422Y-144913658D01*
X272741263Y-145019216D01*
X272881261Y-145228739D01*
X272980428Y-145295000D01*
X268069250Y-145295000D01*
X268001250Y-145227000D01*
X267302000Y-145227000D01*
X267302000Y-145247000D01*
X267048000Y-145247000D01*
X267048000Y-145227000D01*
X267028000Y-145227000D01*
X267028000Y-144973000D01*
X267048000Y-144973000D01*
X267048000Y-144173750D01*
X267302000Y-144173750D01*
X267302000Y-144973000D01*
X268001250Y-144973000D01*
X268160000Y-144814250D01*
X268160000Y-144523690D01*
X268063327Y-144290301D01*
X267884698Y-144111673D01*
X267651309Y-144015000D01*
X267460750Y-144015000D01*
X267302000Y-144173750D01*
X267048000Y-144173750D01*
X266889250Y-144015000D01*
X266698691Y-144015000D01*
X266585000Y-144062092D01*
X266585000Y-140137908D01*
X266698691Y-140185000D01*
X266889250Y-140185000D01*
X267048000Y-140026250D01*
X267048000Y-139227000D01*
X267302000Y-139227000D01*
X267302000Y-140026250D01*
X267460750Y-140185000D01*
X267651309Y-140185000D01*
X267884698Y-140088327D01*
X268063327Y-139909699D01*
X268160000Y-139676310D01*
X268160000Y-139385750D01*
X268001250Y-139227000D01*
X267302000Y-139227000D01*
X267048000Y-139227000D01*
X267028000Y-139227000D01*
X267028000Y-138973000D01*
X267048000Y-138973000D01*
X267048000Y-138173750D01*
X267302000Y-138173750D01*
X267302000Y-138973000D01*
X268001250Y-138973000D01*
X268160000Y-138814250D01*
X268160000Y-138523690D01*
X268063327Y-138290301D01*
X267884698Y-138111673D01*
X267651309Y-138015000D01*
X267460750Y-138015000D01*
X267302000Y-138173750D01*
X267048000Y-138173750D01*
X266889250Y-138015000D01*
X266698691Y-138015000D01*
X266585000Y-138062092D01*
X266585000Y-132127000D01*
X271489755Y-132127000D01*
X271322582Y-132160253D01*
G36*
X281867191Y-140832809D02*
X282012998Y-140930235D01*
X282012998Y-141064778D01*
X281854250Y-140906030D01*
X281713970Y-140906030D01*
X281480581Y-141002703D01*
X281301953Y-141181332D01*
X281205280Y-141414721D01*
X281205280Y-141481975D01*
X281364030Y-141640725D01*
X282013000Y-141640725D01*
X282013000Y-141593420D01*
X282267000Y-141593420D01*
X282267000Y-141640725D01*
X282287000Y-141640725D01*
X282287000Y-141792750D01*
X281840280Y-141792750D01*
X281602158Y-141840115D01*
X281364030Y-141840115D01*
X281205280Y-141998865D01*
X281205280Y-142066119D01*
X281251676Y-142178128D01*
X281242123Y-142192425D01*
X281192840Y-142440190D01*
X281192840Y-142838970D01*
X281242123Y-143086735D01*
X281382471Y-143296779D01*
X281592515Y-143437127D01*
X281840280Y-143486410D01*
X282003245Y-143486410D01*
X282113002Y-143559747D01*
X282320394Y-143601000D01*
X282320399Y-143601000D01*
X282390419Y-143614928D01*
X282460440Y-143601000D01*
X282631626Y-143601000D01*
X282687235Y-143638157D01*
X282935000Y-143687440D01*
X283466030Y-143687440D01*
X283466030Y-143734250D01*
X283624780Y-143893000D01*
X284200725Y-143893000D01*
X284200725Y-143873000D01*
X284352750Y-143873000D01*
X284352750Y-144319720D01*
X284400115Y-144557842D01*
X284400115Y-144795970D01*
X284558865Y-144954720D01*
X284626119Y-144954720D01*
X284738128Y-144908324D01*
X284752425Y-144917877D01*
X285000190Y-144967160D01*
X285398970Y-144967160D01*
X285646735Y-144917877D01*
X285856779Y-144777529D01*
X285868341Y-144760225D01*
X285873221Y-144767529D01*
X286083265Y-144907877D01*
X286331030Y-144957160D01*
X286729810Y-144957160D01*
X286977575Y-144907877D01*
X286991872Y-144898324D01*
X287103881Y-144944720D01*
X287171135Y-144944720D01*
X287329885Y-144785970D01*
X287329885Y-144547842D01*
X287377250Y-144309720D01*
X287377250Y-144081000D01*
X287476030Y-144081000D01*
X287476030Y-144137002D01*
X287529275Y-144137002D01*
X287529275Y-144242505D01*
X287476030Y-144295750D01*
X287476030Y-144436030D01*
X287529275Y-144564575D01*
X287529275Y-144785970D01*
X287688025Y-144944720D01*
X287755279Y-144944720D01*
X287870000Y-144897201D01*
X287984721Y-144944720D01*
X288051975Y-144944720D01*
X288210725Y-144785970D01*
X288210725Y-144564575D01*
X288263970Y-144436030D01*
X288263970Y-144295750D01*
X288210725Y-144242505D01*
X288210725Y-144137000D01*
X288163420Y-144137000D01*
X288163420Y-144041537D01*
X288172418Y-144039747D01*
X288362750Y-143912571D01*
X288362750Y-144309720D01*
X288410115Y-144547842D01*
X288410115Y-144785970D01*
X288568865Y-144944720D01*
X288636119Y-144944720D01*
X288748128Y-144898324D01*
X288762425Y-144907877D01*
X289010190Y-144957160D01*
X289111000Y-144957160D01*
X289111000Y-145186833D01*
X289155804Y-145295000D01*
X277551255Y-145295000D01*
X278540505Y-144305750D01*
X283466030Y-144305750D01*
X283466030Y-144446030D01*
X283562703Y-144679419D01*
X283741332Y-144858047D01*
X283974721Y-144954720D01*
X284041975Y-144954720D01*
X284200725Y-144795970D01*
X284200725Y-144147000D01*
X283624780Y-144147000D01*
X283466030Y-144305750D01*
X278540505Y-144305750D01*
X278579095Y-144267160D01*
X278619810Y-144267160D01*
X278867575Y-144217877D01*
X278870000Y-144216257D01*
X278872425Y-144217877D01*
X279120190Y-144267160D01*
X279518970Y-144267160D01*
X279766735Y-144217877D01*
X279976779Y-144077529D01*
X280117127Y-143867485D01*
X280166410Y-143619720D01*
X280166410Y-143020280D01*
X280130760Y-142841056D01*
X280166830Y-142659720D01*
X280166830Y-142060280D01*
X280117547Y-141812515D01*
X279977199Y-141602471D01*
X279767155Y-141462123D01*
X279519390Y-141412840D01*
X279478676Y-141412840D01*
X279191420Y-141125585D01*
X279191420Y-141097440D01*
X279640000Y-141097440D01*
X279865000Y-141052685D01*
X280090000Y-141097440D01*
X280890000Y-141097440D01*
X281137765Y-141048157D01*
X281347809Y-140907809D01*
X281488157Y-140697765D01*
X281489981Y-140688594D01*
X281503021Y-140686000D01*
X281769096Y-140686000D01*
X281867191Y-140832809D01*
X281867191Y-140832809D01*
G37*
X281867191Y-140832809D02*
X282012998Y-140930235D01*
X282012998Y-141064778D01*
X281854250Y-140906030D01*
X281713970Y-140906030D01*
X281480581Y-141002703D01*
X281301953Y-141181332D01*
X281205280Y-141414721D01*
X281205280Y-141481975D01*
X281364030Y-141640725D01*
X282013000Y-141640725D01*
X282013000Y-141593420D01*
X282267000Y-141593420D01*
X282267000Y-141640725D01*
X282287000Y-141640725D01*
X282287000Y-141792750D01*
X281840280Y-141792750D01*
X281602158Y-141840115D01*
X281364030Y-141840115D01*
X281205280Y-141998865D01*
X281205280Y-142066119D01*
X281251676Y-142178128D01*
X281242123Y-142192425D01*
X281192840Y-142440190D01*
X281192840Y-142838970D01*
X281242123Y-143086735D01*
X281382471Y-143296779D01*
X281592515Y-143437127D01*
X281840280Y-143486410D01*
X282003245Y-143486410D01*
X282113002Y-143559747D01*
X282320394Y-143601000D01*
X282320399Y-143601000D01*
X282390419Y-143614928D01*
X282460440Y-143601000D01*
X282631626Y-143601000D01*
X282687235Y-143638157D01*
X282935000Y-143687440D01*
X283466030Y-143687440D01*
X283466030Y-143734250D01*
X283624780Y-143893000D01*
X284200725Y-143893000D01*
X284200725Y-143873000D01*
X284352750Y-143873000D01*
X284352750Y-144319720D01*
X284400115Y-144557842D01*
X284400115Y-144795970D01*
X284558865Y-144954720D01*
X284626119Y-144954720D01*
X284738128Y-144908324D01*
X284752425Y-144917877D01*
X285000190Y-144967160D01*
X285398970Y-144967160D01*
X285646735Y-144917877D01*
X285856779Y-144777529D01*
X285868341Y-144760225D01*
X285873221Y-144767529D01*
X286083265Y-144907877D01*
X286331030Y-144957160D01*
X286729810Y-144957160D01*
X286977575Y-144907877D01*
X286991872Y-144898324D01*
X287103881Y-144944720D01*
X287171135Y-144944720D01*
X287329885Y-144785970D01*
X287329885Y-144547842D01*
X287377250Y-144309720D01*
X287377250Y-144081000D01*
X287476030Y-144081000D01*
X287476030Y-144137002D01*
X287529275Y-144137002D01*
X287529275Y-144242505D01*
X287476030Y-144295750D01*
X287476030Y-144436030D01*
X287529275Y-144564575D01*
X287529275Y-144785970D01*
X287688025Y-144944720D01*
X287755279Y-144944720D01*
X287870000Y-144897201D01*
X287984721Y-144944720D01*
X288051975Y-144944720D01*
X288210725Y-144785970D01*
X288210725Y-144564575D01*
X288263970Y-144436030D01*
X288263970Y-144295750D01*
X288210725Y-144242505D01*
X288210725Y-144137000D01*
X288163420Y-144137000D01*
X288163420Y-144041537D01*
X288172418Y-144039747D01*
X288362750Y-143912571D01*
X288362750Y-144309720D01*
X288410115Y-144547842D01*
X288410115Y-144785970D01*
X288568865Y-144944720D01*
X288636119Y-144944720D01*
X288748128Y-144898324D01*
X288762425Y-144907877D01*
X289010190Y-144957160D01*
X289111000Y-144957160D01*
X289111000Y-145186833D01*
X289155804Y-145295000D01*
X277551255Y-145295000D01*
X278540505Y-144305750D01*
X283466030Y-144305750D01*
X283466030Y-144446030D01*
X283562703Y-144679419D01*
X283741332Y-144858047D01*
X283974721Y-144954720D01*
X284041975Y-144954720D01*
X284200725Y-144795970D01*
X284200725Y-144147000D01*
X283624780Y-144147000D01*
X283466030Y-144305750D01*
X278540505Y-144305750D01*
X278579095Y-144267160D01*
X278619810Y-144267160D01*
X278867575Y-144217877D01*
X278870000Y-144216257D01*
X278872425Y-144217877D01*
X279120190Y-144267160D01*
X279518970Y-144267160D01*
X279766735Y-144217877D01*
X279976779Y-144077529D01*
X280117127Y-143867485D01*
X280166410Y-143619720D01*
X280166410Y-143020280D01*
X280130760Y-142841056D01*
X280166830Y-142659720D01*
X280166830Y-142060280D01*
X280117547Y-141812515D01*
X279977199Y-141602471D01*
X279767155Y-141462123D01*
X279519390Y-141412840D01*
X279478676Y-141412840D01*
X279191420Y-141125585D01*
X279191420Y-141097440D01*
X279640000Y-141097440D01*
X279865000Y-141052685D01*
X280090000Y-141097440D01*
X280890000Y-141097440D01*
X281137765Y-141048157D01*
X281347809Y-140907809D01*
X281488157Y-140697765D01*
X281489981Y-140688594D01*
X281503021Y-140686000D01*
X281769096Y-140686000D01*
X281867191Y-140832809D01*
G36*
X277573590Y-143261655D02*
X277467759Y-143367486D01*
X277484720Y-143326539D01*
X277484720Y-143259285D01*
X277462265Y-143236830D01*
X277573590Y-143236830D01*
X277573590Y-143261655D01*
X277573590Y-143261655D01*
G37*
X277573590Y-143261655D02*
X277467759Y-143367486D01*
X277484720Y-143326539D01*
X277484720Y-143259285D01*
X277462265Y-143236830D01*
X277573590Y-143236830D01*
X277573590Y-143261655D01*
G36*
X297415000Y-141573331D02*
X297261645Y-141203076D01*
X296871358Y-140774817D01*
X296346892Y-140528514D01*
X296117000Y-140649181D01*
X296117000Y-141843000D01*
X296137000Y-141843000D01*
X296137000Y-142097000D01*
X296117000Y-142097000D01*
X296117000Y-142117000D01*
X295863000Y-142117000D01*
X295863000Y-142097000D01*
X294669845Y-142097000D01*
X294548524Y-142326890D01*
X294632235Y-142529000D01*
X293642406Y-142529000D01*
X293789144Y-142117698D01*
X293763889Y-141613110D01*
X294548524Y-141613110D01*
X294669845Y-141843000D01*
X295863000Y-141843000D01*
X295863000Y-140649181D01*
X295633108Y-140528514D01*
X295108642Y-140774817D01*
X294718355Y-141203076D01*
X294548524Y-141613110D01*
X293763889Y-141613110D01*
X293761362Y-141562632D01*
X293602397Y-141178857D01*
X293360213Y-141109392D01*
X292559605Y-141910000D01*
X292573748Y-141924143D01*
X292394143Y-142103748D01*
X292380000Y-142089605D01*
X292365858Y-142103748D01*
X292186253Y-141924143D01*
X292200395Y-141910000D01*
X291399787Y-141109392D01*
X291157603Y-141178857D01*
X290970856Y-141702302D01*
X290998638Y-142257368D01*
X291003456Y-142269000D01*
X290475904Y-142269000D01*
X290416436Y-142180000D01*
X290518157Y-142027765D01*
X290567440Y-141780000D01*
X290567440Y-140980000D01*
X290557453Y-140929787D01*
X291579392Y-140929787D01*
X292380000Y-141730395D01*
X293180608Y-140929787D01*
X293111143Y-140687603D01*
X292587698Y-140500856D01*
X292032632Y-140528638D01*
X291648857Y-140687603D01*
X291579392Y-140929787D01*
X290557453Y-140929787D01*
X290518157Y-140732235D01*
X290409000Y-140568871D01*
X290409000Y-140343167D01*
X290273658Y-140016422D01*
X290141053Y-139883817D01*
X290321735Y-139847877D01*
X290450000Y-139762172D01*
X290578265Y-139847877D01*
X290826030Y-139897160D01*
X291224810Y-139897160D01*
X291472575Y-139847877D01*
X291486872Y-139838324D01*
X291598881Y-139884720D01*
X291666135Y-139884720D01*
X291824885Y-139725970D01*
X291824885Y-139487842D01*
X291872250Y-139249720D01*
X291872250Y-139008346D01*
X291891030Y-138989566D01*
X291891030Y-139077002D01*
X292024275Y-139077002D01*
X292024275Y-139102505D01*
X291891030Y-139235750D01*
X291891030Y-139376030D01*
X291987703Y-139609419D01*
X292024275Y-139645991D01*
X292024275Y-139725970D01*
X292183025Y-139884720D01*
X292250279Y-139884720D01*
X292325000Y-139853770D01*
X292399721Y-139884720D01*
X292466975Y-139884720D01*
X292625725Y-139725970D01*
X292625725Y-139645991D01*
X292662297Y-139609419D01*
X292758970Y-139376030D01*
X292758970Y-139235750D01*
X292625725Y-139102505D01*
X292625725Y-139077002D01*
X292758970Y-139077002D01*
X292758970Y-139058230D01*
X292777750Y-139086336D01*
X292777750Y-139249720D01*
X292825115Y-139487842D01*
X292825115Y-139725970D01*
X292983865Y-139884720D01*
X293051119Y-139884720D01*
X293163128Y-139838324D01*
X293177425Y-139847877D01*
X293425190Y-139897160D01*
X293823970Y-139897160D01*
X294071735Y-139847877D01*
X294206207Y-139758025D01*
X294303265Y-139822877D01*
X294551030Y-139872160D01*
X294949810Y-139872160D01*
X295197575Y-139822877D01*
X295211872Y-139813324D01*
X295323881Y-139859720D01*
X295391135Y-139859720D01*
X295549885Y-139700970D01*
X295549885Y-139462842D01*
X295597250Y-139224720D01*
X295597250Y-139052000D01*
X295749275Y-139052000D01*
X295749275Y-139700970D01*
X295908025Y-139859720D01*
X295975279Y-139859720D01*
X296208668Y-139763047D01*
X296387297Y-139584419D01*
X296483970Y-139351030D01*
X296483970Y-139210750D01*
X296325220Y-139052000D01*
X295749275Y-139052000D01*
X295597250Y-139052000D01*
X295597250Y-138778000D01*
X295749275Y-138778000D01*
X295749275Y-138798000D01*
X296325220Y-138798000D01*
X296483970Y-138639250D01*
X296483970Y-138498970D01*
X296387297Y-138265581D01*
X296208668Y-138086953D01*
X295975279Y-137990280D01*
X295908025Y-137990280D01*
X295776582Y-138121723D01*
X295776582Y-137990280D01*
X295654213Y-137990280D01*
X295660000Y-137976310D01*
X295660000Y-137635750D01*
X295501250Y-137477000D01*
X295172440Y-137477000D01*
X295172440Y-137310000D01*
X295176309Y-137310000D01*
X295236664Y-137285000D01*
X295439250Y-137285000D01*
X295660000Y-137064250D01*
X295660000Y-136861665D01*
X295685000Y-136801310D01*
X295685000Y-135353000D01*
X295852000Y-135353000D01*
X295852000Y-137126250D01*
X296010750Y-137285000D01*
X296351310Y-137285000D01*
X296584699Y-137188327D01*
X296763327Y-137009698D01*
X296860000Y-136776309D01*
X296860000Y-136733750D01*
X296701250Y-136575000D01*
X296698025Y-136575000D01*
X296763327Y-136509698D01*
X296860000Y-136276309D01*
X296860000Y-136223691D01*
X296767344Y-136000000D01*
X296860000Y-135776309D01*
X296860000Y-135723691D01*
X296767344Y-135500000D01*
X296860000Y-135276309D01*
X296860000Y-135223691D01*
X296767344Y-135000000D01*
X296860000Y-134776309D01*
X296860000Y-134723691D01*
X296819950Y-134627002D01*
X296860000Y-134627002D01*
X296860000Y-134532381D01*
X296889602Y-134512602D01*
X296920205Y-134466802D01*
X296966002Y-134436201D01*
X297006061Y-134376250D01*
X297043535Y-134320166D01*
X297123148Y-134201017D01*
X297164401Y-133993625D01*
X297164401Y-133993620D01*
X297178329Y-133923600D01*
X297164401Y-133853579D01*
X297164401Y-133298422D01*
X297178329Y-133228401D01*
X297164401Y-133158380D01*
X297164401Y-133158375D01*
X297161000Y-133141277D01*
X297161000Y-131197440D01*
X297300000Y-131197440D01*
X297415001Y-131174565D01*
X297415000Y-141573331D01*
X297415000Y-141573331D01*
G37*
X297415000Y-141573331D02*
X297261645Y-141203076D01*
X296871358Y-140774817D01*
X296346892Y-140528514D01*
X296117000Y-140649181D01*
X296117000Y-141843000D01*
X296137000Y-141843000D01*
X296137000Y-142097000D01*
X296117000Y-142097000D01*
X296117000Y-142117000D01*
X295863000Y-142117000D01*
X295863000Y-142097000D01*
X294669845Y-142097000D01*
X294548524Y-142326890D01*
X294632235Y-142529000D01*
X293642406Y-142529000D01*
X293789144Y-142117698D01*
X293763889Y-141613110D01*
X294548524Y-141613110D01*
X294669845Y-141843000D01*
X295863000Y-141843000D01*
X295863000Y-140649181D01*
X295633108Y-140528514D01*
X295108642Y-140774817D01*
X294718355Y-141203076D01*
X294548524Y-141613110D01*
X293763889Y-141613110D01*
X293761362Y-141562632D01*
X293602397Y-141178857D01*
X293360213Y-141109392D01*
X292559605Y-141910000D01*
X292573748Y-141924143D01*
X292394143Y-142103748D01*
X292380000Y-142089605D01*
X292365858Y-142103748D01*
X292186253Y-141924143D01*
X292200395Y-141910000D01*
X291399787Y-141109392D01*
X291157603Y-141178857D01*
X290970856Y-141702302D01*
X290998638Y-142257368D01*
X291003456Y-142269000D01*
X290475904Y-142269000D01*
X290416436Y-142180000D01*
X290518157Y-142027765D01*
X290567440Y-141780000D01*
X290567440Y-140980000D01*
X290557453Y-140929787D01*
X291579392Y-140929787D01*
X292380000Y-141730395D01*
X293180608Y-140929787D01*
X293111143Y-140687603D01*
X292587698Y-140500856D01*
X292032632Y-140528638D01*
X291648857Y-140687603D01*
X291579392Y-140929787D01*
X290557453Y-140929787D01*
X290518157Y-140732235D01*
X290409000Y-140568871D01*
X290409000Y-140343167D01*
X290273658Y-140016422D01*
X290141053Y-139883817D01*
X290321735Y-139847877D01*
X290450000Y-139762172D01*
X290578265Y-139847877D01*
X290826030Y-139897160D01*
X291224810Y-139897160D01*
X291472575Y-139847877D01*
X291486872Y-139838324D01*
X291598881Y-139884720D01*
X291666135Y-139884720D01*
X291824885Y-139725970D01*
X291824885Y-139487842D01*
X291872250Y-139249720D01*
X291872250Y-139008346D01*
X291891030Y-138989566D01*
X291891030Y-139077002D01*
X292024275Y-139077002D01*
X292024275Y-139102505D01*
X291891030Y-139235750D01*
X291891030Y-139376030D01*
X291987703Y-139609419D01*
X292024275Y-139645991D01*
X292024275Y-139725970D01*
X292183025Y-139884720D01*
X292250279Y-139884720D01*
X292325000Y-139853770D01*
X292399721Y-139884720D01*
X292466975Y-139884720D01*
X292625725Y-139725970D01*
X292625725Y-139645991D01*
X292662297Y-139609419D01*
X292758970Y-139376030D01*
X292758970Y-139235750D01*
X292625725Y-139102505D01*
X292625725Y-139077002D01*
X292758970Y-139077002D01*
X292758970Y-139058230D01*
X292777750Y-139086336D01*
X292777750Y-139249720D01*
X292825115Y-139487842D01*
X292825115Y-139725970D01*
X292983865Y-139884720D01*
X293051119Y-139884720D01*
X293163128Y-139838324D01*
X293177425Y-139847877D01*
X293425190Y-139897160D01*
X293823970Y-139897160D01*
X294071735Y-139847877D01*
X294206207Y-139758025D01*
X294303265Y-139822877D01*
X294551030Y-139872160D01*
X294949810Y-139872160D01*
X295197575Y-139822877D01*
X295211872Y-139813324D01*
X295323881Y-139859720D01*
X295391135Y-139859720D01*
X295549885Y-139700970D01*
X295549885Y-139462842D01*
X295597250Y-139224720D01*
X295597250Y-139052000D01*
X295749275Y-139052000D01*
X295749275Y-139700970D01*
X295908025Y-139859720D01*
X295975279Y-139859720D01*
X296208668Y-139763047D01*
X296387297Y-139584419D01*
X296483970Y-139351030D01*
X296483970Y-139210750D01*
X296325220Y-139052000D01*
X295749275Y-139052000D01*
X295597250Y-139052000D01*
X295597250Y-138778000D01*
X295749275Y-138778000D01*
X295749275Y-138798000D01*
X296325220Y-138798000D01*
X296483970Y-138639250D01*
X296483970Y-138498970D01*
X296387297Y-138265581D01*
X296208668Y-138086953D01*
X295975279Y-137990280D01*
X295908025Y-137990280D01*
X295776582Y-138121723D01*
X295776582Y-137990280D01*
X295654213Y-137990280D01*
X295660000Y-137976310D01*
X295660000Y-137635750D01*
X295501250Y-137477000D01*
X295172440Y-137477000D01*
X295172440Y-137310000D01*
X295176309Y-137310000D01*
X295236664Y-137285000D01*
X295439250Y-137285000D01*
X295660000Y-137064250D01*
X295660000Y-136861665D01*
X295685000Y-136801310D01*
X295685000Y-135353000D01*
X295852000Y-135353000D01*
X295852000Y-137126250D01*
X296010750Y-137285000D01*
X296351310Y-137285000D01*
X296584699Y-137188327D01*
X296763327Y-137009698D01*
X296860000Y-136776309D01*
X296860000Y-136733750D01*
X296701250Y-136575000D01*
X296698025Y-136575000D01*
X296763327Y-136509698D01*
X296860000Y-136276309D01*
X296860000Y-136223691D01*
X296767344Y-136000000D01*
X296860000Y-135776309D01*
X296860000Y-135723691D01*
X296767344Y-135500000D01*
X296860000Y-135276309D01*
X296860000Y-135223691D01*
X296767344Y-135000000D01*
X296860000Y-134776309D01*
X296860000Y-134723691D01*
X296819950Y-134627002D01*
X296860000Y-134627002D01*
X296860000Y-134532381D01*
X296889602Y-134512602D01*
X296920205Y-134466802D01*
X296966002Y-134436201D01*
X297006061Y-134376250D01*
X297043535Y-134320166D01*
X297123148Y-134201017D01*
X297164401Y-133993625D01*
X297164401Y-133993620D01*
X297178329Y-133923600D01*
X297164401Y-133853579D01*
X297164401Y-133298422D01*
X297178329Y-133228401D01*
X297164401Y-133158380D01*
X297164401Y-133158375D01*
X297161000Y-133141277D01*
X297161000Y-131197440D01*
X297300000Y-131197440D01*
X297415001Y-131174565D01*
X297415000Y-141573331D01*
G36*
X278427664Y-142372840D02*
X278377160Y-142372840D01*
X278377160Y-142322335D01*
X278427664Y-142372840D01*
X278427664Y-142372840D01*
G37*
X278427664Y-142372840D02*
X278377160Y-142372840D01*
X278377160Y-142322335D01*
X278427664Y-142372840D01*
G36*
X277755492Y-141420090D02*
X277769421Y-141490116D01*
X277782044Y-141553578D01*
X277729720Y-141543170D01*
X277694466Y-141543170D01*
X277764772Y-141373439D01*
X277755492Y-141420090D01*
X277755492Y-141420090D01*
G37*
X277755492Y-141420090D02*
X277769421Y-141490116D01*
X277782044Y-141553578D01*
X277729720Y-141543170D01*
X277694466Y-141543170D01*
X277764772Y-141373439D01*
X277755492Y-141420090D01*
G36*
X277769421Y-141242726D02*
X277653277Y-141126582D01*
X277769421Y-141126582D01*
X277769421Y-141242726D01*
X277769421Y-141242726D01*
G37*
X277769421Y-141242726D02*
X277653277Y-141126582D01*
X277769421Y-141126582D01*
X277769421Y-141242726D01*
G36*
X274674030Y-140899885D02*
X274912158Y-140899885D01*
X275150280Y-140947250D01*
X275749720Y-140947250D01*
X275987842Y-140899885D01*
X276312158Y-140899885D01*
X276550280Y-140947250D01*
X276997000Y-140947250D01*
X276997000Y-141099275D01*
X276977000Y-141099275D01*
X276977000Y-141146580D01*
X276723000Y-141146580D01*
X276723000Y-141099275D01*
X275577000Y-141099275D01*
X275577000Y-141146580D01*
X275323000Y-141146580D01*
X275323000Y-141099275D01*
X274674030Y-141099275D01*
X274647947Y-141125358D01*
X274618410Y-141119483D01*
X274533361Y-141136400D01*
X273903065Y-141136400D01*
X274096735Y-141097877D01*
X274306779Y-140957529D01*
X274363596Y-140872496D01*
X274377418Y-140869747D01*
X274537157Y-140763012D01*
X274674030Y-140899885D01*
X274674030Y-140899885D01*
G37*
X274674030Y-140899885D02*
X274912158Y-140899885D01*
X275150280Y-140947250D01*
X275749720Y-140947250D01*
X275987842Y-140899885D01*
X276312158Y-140899885D01*
X276550280Y-140947250D01*
X276997000Y-140947250D01*
X276997000Y-141099275D01*
X276977000Y-141099275D01*
X276977000Y-141146580D01*
X276723000Y-141146580D01*
X276723000Y-141099275D01*
X275577000Y-141099275D01*
X275577000Y-141146580D01*
X275323000Y-141146580D01*
X275323000Y-141099275D01*
X274674030Y-141099275D01*
X274647947Y-141125358D01*
X274618410Y-141119483D01*
X274533361Y-141136400D01*
X273903065Y-141136400D01*
X274096735Y-141097877D01*
X274306779Y-140957529D01*
X274363596Y-140872496D01*
X274377418Y-140869747D01*
X274537157Y-140763012D01*
X274674030Y-140899885D01*
G36*
X273202425Y-141097877D02*
X273396095Y-141136400D01*
X273039000Y-141136400D01*
X273039000Y-141134720D01*
X273076119Y-141134720D01*
X273188128Y-141088324D01*
X273202425Y-141097877D01*
X273202425Y-141097877D01*
G37*
X273202425Y-141097877D02*
X273396095Y-141136400D01*
X273039000Y-141136400D01*
X273039000Y-141134720D01*
X273076119Y-141134720D01*
X273188128Y-141088324D01*
X273202425Y-141097877D01*
G36*
X282311938Y-141019842D02*
X282267002Y-141064778D01*
X282267002Y-141010904D01*
X282311938Y-141019842D01*
X282311938Y-141019842D01*
G37*
X282311938Y-141019842D02*
X282267002Y-141064778D01*
X282267002Y-141010904D01*
X282311938Y-141019842D01*
G36*
X277699379Y-140872578D02*
X277653277Y-140872578D01*
X277666780Y-140859075D01*
X277699379Y-140872578D01*
X277699379Y-140872578D01*
G37*
X277699379Y-140872578D02*
X277653277Y-140872578D01*
X277666780Y-140859075D01*
X277699379Y-140872578D01*
G36*
X288237703Y-137315161D02*
X288141030Y-137548550D01*
X288141030Y-137688830D01*
X288299780Y-137847580D01*
X288875725Y-137847580D01*
X288875725Y-137827580D01*
X289027750Y-137827580D01*
X289027750Y-138274300D01*
X289065143Y-138462290D01*
X289027750Y-138650280D01*
X289027750Y-139097000D01*
X288875725Y-139097000D01*
X288875725Y-139077000D01*
X288299780Y-139077000D01*
X288141030Y-139235750D01*
X288141030Y-139376030D01*
X288237703Y-139609419D01*
X288416332Y-139788047D01*
X288649721Y-139884720D01*
X288716975Y-139884720D01*
X288848418Y-139753277D01*
X288848418Y-139884720D01*
X288898044Y-139884720D01*
X288766342Y-140016422D01*
X288646867Y-140304862D01*
X288516833Y-140251000D01*
X288424720Y-140251000D01*
X288424720Y-140244721D01*
X288328047Y-140011332D01*
X288149419Y-139832703D01*
X287916030Y-139736030D01*
X287775750Y-139736030D01*
X287617000Y-139894780D01*
X287617000Y-140470725D01*
X287637000Y-140470725D01*
X287637000Y-140585764D01*
X287600014Y-140622750D01*
X287190280Y-140622750D01*
X286952158Y-140670115D01*
X286875077Y-140670115D01*
X286832765Y-140641843D01*
X286585000Y-140592560D01*
X285835000Y-140592560D01*
X285587235Y-140641843D01*
X285377191Y-140782191D01*
X285324502Y-140861045D01*
X285324502Y-140780000D01*
X285218095Y-140780000D01*
X285323157Y-140622765D01*
X285372440Y-140375000D01*
X285372440Y-140244721D01*
X286555280Y-140244721D01*
X286555280Y-140311975D01*
X286714030Y-140470725D01*
X287363000Y-140470725D01*
X287363000Y-139894780D01*
X287204250Y-139736030D01*
X287063970Y-139736030D01*
X286830581Y-139832703D01*
X286651953Y-140011332D01*
X286555280Y-140244721D01*
X285372440Y-140244721D01*
X285372440Y-139575000D01*
X285323157Y-139327235D01*
X285182809Y-139117191D01*
X284972765Y-138976843D01*
X284725000Y-138927560D01*
X283925000Y-138927560D01*
X283677235Y-138976843D01*
X283525000Y-139078564D01*
X283372765Y-138976843D01*
X283125000Y-138927560D01*
X282911288Y-138927560D01*
X282984720Y-138750279D01*
X282984720Y-138683025D01*
X282825970Y-138524275D01*
X282177000Y-138524275D01*
X282177000Y-138571580D01*
X281986000Y-138571580D01*
X281986000Y-138393207D01*
X282049999Y-138405937D01*
X282219359Y-138372250D01*
X282349720Y-138372250D01*
X282587842Y-138324885D01*
X282825970Y-138324885D01*
X282890525Y-138260330D01*
X288141030Y-138260330D01*
X288141030Y-138400610D01*
X288166579Y-138462290D01*
X288141030Y-138523970D01*
X288141030Y-138664250D01*
X288299780Y-138823000D01*
X288441375Y-138823000D01*
X288649721Y-138909300D01*
X288716975Y-138909300D01*
X288803275Y-138823000D01*
X288875725Y-138823000D01*
X288875725Y-138101580D01*
X288803275Y-138101580D01*
X288716975Y-138015280D01*
X288649721Y-138015280D01*
X288441375Y-138101580D01*
X288299780Y-138101580D01*
X288141030Y-138260330D01*
X282890525Y-138260330D01*
X282984720Y-138166135D01*
X282984720Y-138098881D01*
X282938324Y-137986872D01*
X282947877Y-137972575D01*
X282997160Y-137724810D01*
X282997160Y-137326030D01*
X282974279Y-137211000D01*
X288341865Y-137211000D01*
X288237703Y-137315161D01*
X288237703Y-137315161D01*
G37*
X288237703Y-137315161D02*
X288141030Y-137548550D01*
X288141030Y-137688830D01*
X288299780Y-137847580D01*
X288875725Y-137847580D01*
X288875725Y-137827580D01*
X289027750Y-137827580D01*
X289027750Y-138274300D01*
X289065143Y-138462290D01*
X289027750Y-138650280D01*
X289027750Y-139097000D01*
X288875725Y-139097000D01*
X288875725Y-139077000D01*
X288299780Y-139077000D01*
X288141030Y-139235750D01*
X288141030Y-139376030D01*
X288237703Y-139609419D01*
X288416332Y-139788047D01*
X288649721Y-139884720D01*
X288716975Y-139884720D01*
X288848418Y-139753277D01*
X288848418Y-139884720D01*
X288898044Y-139884720D01*
X288766342Y-140016422D01*
X288646867Y-140304862D01*
X288516833Y-140251000D01*
X288424720Y-140251000D01*
X288424720Y-140244721D01*
X288328047Y-140011332D01*
X288149419Y-139832703D01*
X287916030Y-139736030D01*
X287775750Y-139736030D01*
X287617000Y-139894780D01*
X287617000Y-140470725D01*
X287637000Y-140470725D01*
X287637000Y-140585764D01*
X287600014Y-140622750D01*
X287190280Y-140622750D01*
X286952158Y-140670115D01*
X286875077Y-140670115D01*
X286832765Y-140641843D01*
X286585000Y-140592560D01*
X285835000Y-140592560D01*
X285587235Y-140641843D01*
X285377191Y-140782191D01*
X285324502Y-140861045D01*
X285324502Y-140780000D01*
X285218095Y-140780000D01*
X285323157Y-140622765D01*
X285372440Y-140375000D01*
X285372440Y-140244721D01*
X286555280Y-140244721D01*
X286555280Y-140311975D01*
X286714030Y-140470725D01*
X287363000Y-140470725D01*
X287363000Y-139894780D01*
X287204250Y-139736030D01*
X287063970Y-139736030D01*
X286830581Y-139832703D01*
X286651953Y-140011332D01*
X286555280Y-140244721D01*
X285372440Y-140244721D01*
X285372440Y-139575000D01*
X285323157Y-139327235D01*
X285182809Y-139117191D01*
X284972765Y-138976843D01*
X284725000Y-138927560D01*
X283925000Y-138927560D01*
X283677235Y-138976843D01*
X283525000Y-139078564D01*
X283372765Y-138976843D01*
X283125000Y-138927560D01*
X282911288Y-138927560D01*
X282984720Y-138750279D01*
X282984720Y-138683025D01*
X282825970Y-138524275D01*
X282177000Y-138524275D01*
X282177000Y-138571580D01*
X281986000Y-138571580D01*
X281986000Y-138393207D01*
X282049999Y-138405937D01*
X282219359Y-138372250D01*
X282349720Y-138372250D01*
X282587842Y-138324885D01*
X282825970Y-138324885D01*
X282890525Y-138260330D01*
X288141030Y-138260330D01*
X288141030Y-138400610D01*
X288166579Y-138462290D01*
X288141030Y-138523970D01*
X288141030Y-138664250D01*
X288299780Y-138823000D01*
X288441375Y-138823000D01*
X288649721Y-138909300D01*
X288716975Y-138909300D01*
X288803275Y-138823000D01*
X288875725Y-138823000D01*
X288875725Y-138101580D01*
X288803275Y-138101580D01*
X288716975Y-138015280D01*
X288649721Y-138015280D01*
X288441375Y-138101580D01*
X288299780Y-138101580D01*
X288141030Y-138260330D01*
X282890525Y-138260330D01*
X282984720Y-138166135D01*
X282984720Y-138098881D01*
X282938324Y-137986872D01*
X282947877Y-137972575D01*
X282997160Y-137724810D01*
X282997160Y-137326030D01*
X282974279Y-137211000D01*
X288341865Y-137211000D01*
X288237703Y-137315161D01*
G36*
X274019001Y-139196580D02*
X273943000Y-139196580D01*
X273943000Y-139149275D01*
X273923000Y-139149275D01*
X273923000Y-138997250D01*
X274019001Y-138997250D01*
X274019001Y-139196580D01*
X274019001Y-139196580D01*
G37*
X274019001Y-139196580D02*
X273943000Y-139196580D01*
X273943000Y-139149275D01*
X273923000Y-139149275D01*
X273923000Y-138997250D01*
X274019001Y-138997250D01*
X274019001Y-139196580D01*
G36*
X292674454Y-138822998D02*
X292625725Y-138822998D01*
X292625725Y-138803000D01*
X292670476Y-138803000D01*
X292674454Y-138822998D01*
X292674454Y-138822998D01*
G37*
X292674454Y-138822998D02*
X292625725Y-138822998D01*
X292625725Y-138803000D01*
X292670476Y-138803000D01*
X292674454Y-138822998D01*
G36*
X276211250Y-132204250D02*
X277163750Y-132204250D01*
X277183750Y-132184250D01*
X277303750Y-132184250D01*
X277323750Y-132204250D01*
X278276250Y-132204250D01*
X278296250Y-132184250D01*
X278416250Y-132184250D01*
X278436250Y-132204250D01*
X279388750Y-132204250D01*
X279408750Y-132184250D01*
X279595750Y-132184250D01*
X279595750Y-132204250D01*
X279615750Y-132204250D01*
X279615750Y-132391250D01*
X279595750Y-132411250D01*
X279595750Y-133363750D01*
X279615750Y-133383750D01*
X279615750Y-133503750D01*
X279595750Y-133523750D01*
X279595750Y-134476250D01*
X279615750Y-134496250D01*
X279615750Y-134616250D01*
X279595750Y-134636250D01*
X279595750Y-135588750D01*
X279615750Y-135608750D01*
X279615750Y-135795750D01*
X279595750Y-135795750D01*
X279595750Y-135815750D01*
X279408750Y-135815750D01*
X279388750Y-135795750D01*
X278436250Y-135795750D01*
X278416250Y-135815750D01*
X278296250Y-135815750D01*
X278276250Y-135795750D01*
X277323750Y-135795750D01*
X277303750Y-135815750D01*
X277183750Y-135815750D01*
X277163750Y-135795750D01*
X276211250Y-135795750D01*
X276191250Y-135815750D01*
X276004250Y-135815750D01*
X276004250Y-135795750D01*
X275984250Y-135795750D01*
X275984250Y-135608750D01*
X276004250Y-135588750D01*
X276004250Y-134636250D01*
X275984250Y-134616250D01*
X275984250Y-134496250D01*
X276004250Y-134476250D01*
X276004250Y-133523750D01*
X275984250Y-133503750D01*
X275984250Y-133383750D01*
X276004250Y-133363750D01*
X276004250Y-132617000D01*
X276052500Y-132617000D01*
X276052500Y-133158000D01*
X276211250Y-133316750D01*
X276218725Y-133316750D01*
X276258250Y-133356276D01*
X276258250Y-133363750D01*
X276338250Y-133443750D01*
X276258250Y-133523750D01*
X276258250Y-133531224D01*
X276218725Y-133570750D01*
X276211250Y-133570750D01*
X276052500Y-133729500D01*
X276052500Y-134270500D01*
X276211250Y-134429250D01*
X276218725Y-134429250D01*
X276258250Y-134468776D01*
X276258250Y-134476250D01*
X276338250Y-134556250D01*
X276258250Y-134636250D01*
X276258250Y-134643724D01*
X276218725Y-134683250D01*
X276211250Y-134683250D01*
X276052500Y-134842000D01*
X276052500Y-135383000D01*
X276211250Y-135541750D01*
X276218725Y-135541750D01*
X276258250Y-135581276D01*
X276258250Y-135588750D01*
X276417000Y-135747500D01*
X276958000Y-135747500D01*
X277116750Y-135588750D01*
X277116750Y-135581276D01*
X277156275Y-135541750D01*
X277163750Y-135541750D01*
X277243750Y-135461750D01*
X277323750Y-135541750D01*
X277331225Y-135541750D01*
X277370750Y-135581276D01*
X277370750Y-135588750D01*
X277529500Y-135747500D01*
X278070500Y-135747500D01*
X278229250Y-135588750D01*
X278229250Y-135581276D01*
X278268775Y-135541750D01*
X278276250Y-135541750D01*
X278356250Y-135461750D01*
X278436250Y-135541750D01*
X278443725Y-135541750D01*
X278483250Y-135581276D01*
X278483250Y-135588750D01*
X278642000Y-135747500D01*
X279183000Y-135747500D01*
X279341750Y-135588750D01*
X279341750Y-135581276D01*
X279381275Y-135541750D01*
X279388750Y-135541750D01*
X279547500Y-135383000D01*
X279547500Y-134842000D01*
X279388750Y-134683250D01*
X279381275Y-134683250D01*
X279341750Y-134643724D01*
X279341750Y-134636250D01*
X279261750Y-134556250D01*
X279341750Y-134476250D01*
X279341750Y-134468776D01*
X279381275Y-134429250D01*
X279388750Y-134429250D01*
X279547500Y-134270500D01*
X279547500Y-133729500D01*
X279388750Y-133570750D01*
X279381275Y-133570750D01*
X279341750Y-133531224D01*
X279341750Y-133523750D01*
X279261750Y-133443750D01*
X279341750Y-133363750D01*
X279341750Y-133356276D01*
X279381275Y-133316750D01*
X279388750Y-133316750D01*
X279547500Y-133158000D01*
X279547500Y-132617000D01*
X279388750Y-132458250D01*
X279381275Y-132458250D01*
X279341750Y-132418724D01*
X279341750Y-132411250D01*
X279183000Y-132252500D01*
X278642000Y-132252500D01*
X278483250Y-132411250D01*
X278483250Y-132418724D01*
X278443725Y-132458250D01*
X278436250Y-132458250D01*
X278356250Y-132538250D01*
X278276250Y-132458250D01*
X278268775Y-132458250D01*
X278229250Y-132418724D01*
X278229250Y-132411250D01*
X278070500Y-132252500D01*
X277529500Y-132252500D01*
X277370750Y-132411250D01*
X277370750Y-132418724D01*
X277331225Y-132458250D01*
X277323750Y-132458250D01*
X277243750Y-132538250D01*
X277163750Y-132458250D01*
X277156275Y-132458250D01*
X277116750Y-132418724D01*
X277116750Y-132411250D01*
X276958000Y-132252500D01*
X276417000Y-132252500D01*
X276258250Y-132411250D01*
X276258250Y-132418724D01*
X276218725Y-132458250D01*
X276211250Y-132458250D01*
X276052500Y-132617000D01*
X276004250Y-132617000D01*
X276004250Y-132411250D01*
X275984250Y-132391250D01*
X275984250Y-132204250D01*
X276004250Y-132204250D01*
X276004250Y-132184250D01*
X276191250Y-132184250D01*
X276211250Y-132204250D01*
X276211250Y-132204250D01*
G37*
X276211250Y-132204250D02*
X277163750Y-132204250D01*
X277183750Y-132184250D01*
X277303750Y-132184250D01*
X277323750Y-132204250D01*
X278276250Y-132204250D01*
X278296250Y-132184250D01*
X278416250Y-132184250D01*
X278436250Y-132204250D01*
X279388750Y-132204250D01*
X279408750Y-132184250D01*
X279595750Y-132184250D01*
X279595750Y-132204250D01*
X279615750Y-132204250D01*
X279615750Y-132391250D01*
X279595750Y-132411250D01*
X279595750Y-133363750D01*
X279615750Y-133383750D01*
X279615750Y-133503750D01*
X279595750Y-133523750D01*
X279595750Y-134476250D01*
X279615750Y-134496250D01*
X279615750Y-134616250D01*
X279595750Y-134636250D01*
X279595750Y-135588750D01*
X279615750Y-135608750D01*
X279615750Y-135795750D01*
X279595750Y-135795750D01*
X279595750Y-135815750D01*
X279408750Y-135815750D01*
X279388750Y-135795750D01*
X278436250Y-135795750D01*
X278416250Y-135815750D01*
X278296250Y-135815750D01*
X278276250Y-135795750D01*
X277323750Y-135795750D01*
X277303750Y-135815750D01*
X277183750Y-135815750D01*
X277163750Y-135795750D01*
X276211250Y-135795750D01*
X276191250Y-135815750D01*
X276004250Y-135815750D01*
X276004250Y-135795750D01*
X275984250Y-135795750D01*
X275984250Y-135608750D01*
X276004250Y-135588750D01*
X276004250Y-134636250D01*
X275984250Y-134616250D01*
X275984250Y-134496250D01*
X276004250Y-134476250D01*
X276004250Y-133523750D01*
X275984250Y-133503750D01*
X275984250Y-133383750D01*
X276004250Y-133363750D01*
X276004250Y-132617000D01*
X276052500Y-132617000D01*
X276052500Y-133158000D01*
X276211250Y-133316750D01*
X276218725Y-133316750D01*
X276258250Y-133356276D01*
X276258250Y-133363750D01*
X276338250Y-133443750D01*
X276258250Y-133523750D01*
X276258250Y-133531224D01*
X276218725Y-133570750D01*
X276211250Y-133570750D01*
X276052500Y-133729500D01*
X276052500Y-134270500D01*
X276211250Y-134429250D01*
X276218725Y-134429250D01*
X276258250Y-134468776D01*
X276258250Y-134476250D01*
X276338250Y-134556250D01*
X276258250Y-134636250D01*
X276258250Y-134643724D01*
X276218725Y-134683250D01*
X276211250Y-134683250D01*
X276052500Y-134842000D01*
X276052500Y-135383000D01*
X276211250Y-135541750D01*
X276218725Y-135541750D01*
X276258250Y-135581276D01*
X276258250Y-135588750D01*
X276417000Y-135747500D01*
X276958000Y-135747500D01*
X277116750Y-135588750D01*
X277116750Y-135581276D01*
X277156275Y-135541750D01*
X277163750Y-135541750D01*
X277243750Y-135461750D01*
X277323750Y-135541750D01*
X277331225Y-135541750D01*
X277370750Y-135581276D01*
X277370750Y-135588750D01*
X277529500Y-135747500D01*
X278070500Y-135747500D01*
X278229250Y-135588750D01*
X278229250Y-135581276D01*
X278268775Y-135541750D01*
X278276250Y-135541750D01*
X278356250Y-135461750D01*
X278436250Y-135541750D01*
X278443725Y-135541750D01*
X278483250Y-135581276D01*
X278483250Y-135588750D01*
X278642000Y-135747500D01*
X279183000Y-135747500D01*
X279341750Y-135588750D01*
X279341750Y-135581276D01*
X279381275Y-135541750D01*
X279388750Y-135541750D01*
X279547500Y-135383000D01*
X279547500Y-134842000D01*
X279388750Y-134683250D01*
X279381275Y-134683250D01*
X279341750Y-134643724D01*
X279341750Y-134636250D01*
X279261750Y-134556250D01*
X279341750Y-134476250D01*
X279341750Y-134468776D01*
X279381275Y-134429250D01*
X279388750Y-134429250D01*
X279547500Y-134270500D01*
X279547500Y-133729500D01*
X279388750Y-133570750D01*
X279381275Y-133570750D01*
X279341750Y-133531224D01*
X279341750Y-133523750D01*
X279261750Y-133443750D01*
X279341750Y-133363750D01*
X279341750Y-133356276D01*
X279381275Y-133316750D01*
X279388750Y-133316750D01*
X279547500Y-133158000D01*
X279547500Y-132617000D01*
X279388750Y-132458250D01*
X279381275Y-132458250D01*
X279341750Y-132418724D01*
X279341750Y-132411250D01*
X279183000Y-132252500D01*
X278642000Y-132252500D01*
X278483250Y-132411250D01*
X278483250Y-132418724D01*
X278443725Y-132458250D01*
X278436250Y-132458250D01*
X278356250Y-132538250D01*
X278276250Y-132458250D01*
X278268775Y-132458250D01*
X278229250Y-132418724D01*
X278229250Y-132411250D01*
X278070500Y-132252500D01*
X277529500Y-132252500D01*
X277370750Y-132411250D01*
X277370750Y-132418724D01*
X277331225Y-132458250D01*
X277323750Y-132458250D01*
X277243750Y-132538250D01*
X277163750Y-132458250D01*
X277156275Y-132458250D01*
X277116750Y-132418724D01*
X277116750Y-132411250D01*
X276958000Y-132252500D01*
X276417000Y-132252500D01*
X276258250Y-132411250D01*
X276258250Y-132418724D01*
X276218725Y-132458250D01*
X276211250Y-132458250D01*
X276052500Y-132617000D01*
X276004250Y-132617000D01*
X276004250Y-132411250D01*
X275984250Y-132391250D01*
X275984250Y-132204250D01*
X276004250Y-132204250D01*
X276004250Y-132184250D01*
X276191250Y-132184250D01*
X276211250Y-132204250D01*
G36*
X277323750Y-134429250D02*
X277331225Y-134429250D01*
X277370750Y-134468776D01*
X277370750Y-134476250D01*
X277450750Y-134556250D01*
X277370750Y-134636250D01*
X277370750Y-134643724D01*
X277331225Y-134683250D01*
X277323750Y-134683250D01*
X277243750Y-134763250D01*
X277163750Y-134683250D01*
X277156275Y-134683250D01*
X277116750Y-134643724D01*
X277116750Y-134636250D01*
X277036750Y-134556250D01*
X277116750Y-134476250D01*
X277116750Y-134468776D01*
X277156275Y-134429250D01*
X277163750Y-134429250D01*
X277243750Y-134349250D01*
X277323750Y-134429250D01*
X277323750Y-134429250D01*
G37*
X277323750Y-134429250D02*
X277331225Y-134429250D01*
X277370750Y-134468776D01*
X277370750Y-134476250D01*
X277450750Y-134556250D01*
X277370750Y-134636250D01*
X277370750Y-134643724D01*
X277331225Y-134683250D01*
X277323750Y-134683250D01*
X277243750Y-134763250D01*
X277163750Y-134683250D01*
X277156275Y-134683250D01*
X277116750Y-134643724D01*
X277116750Y-134636250D01*
X277036750Y-134556250D01*
X277116750Y-134476250D01*
X277116750Y-134468776D01*
X277156275Y-134429250D01*
X277163750Y-134429250D01*
X277243750Y-134349250D01*
X277323750Y-134429250D01*
G36*
X278436250Y-134429250D02*
X278443725Y-134429250D01*
X278483250Y-134468776D01*
X278483250Y-134476250D01*
X278563250Y-134556250D01*
X278483250Y-134636250D01*
X278483250Y-134643724D01*
X278443725Y-134683250D01*
X278436250Y-134683250D01*
X278356250Y-134763250D01*
X278276250Y-134683250D01*
X278268775Y-134683250D01*
X278229250Y-134643724D01*
X278229250Y-134636250D01*
X278149250Y-134556250D01*
X278229250Y-134476250D01*
X278229250Y-134468776D01*
X278268775Y-134429250D01*
X278276250Y-134429250D01*
X278356250Y-134349250D01*
X278436250Y-134429250D01*
X278436250Y-134429250D01*
G37*
X278436250Y-134429250D02*
X278443725Y-134429250D01*
X278483250Y-134468776D01*
X278483250Y-134476250D01*
X278563250Y-134556250D01*
X278483250Y-134636250D01*
X278483250Y-134643724D01*
X278443725Y-134683250D01*
X278436250Y-134683250D01*
X278356250Y-134763250D01*
X278276250Y-134683250D01*
X278268775Y-134683250D01*
X278229250Y-134643724D01*
X278229250Y-134636250D01*
X278149250Y-134556250D01*
X278229250Y-134476250D01*
X278229250Y-134468776D01*
X278268775Y-134429250D01*
X278276250Y-134429250D01*
X278356250Y-134349250D01*
X278436250Y-134429250D01*
G36*
X277323750Y-133316750D02*
X277331225Y-133316750D01*
X277370750Y-133356276D01*
X277370750Y-133363750D01*
X277450750Y-133443750D01*
X277370750Y-133523750D01*
X277370750Y-133531224D01*
X277331225Y-133570750D01*
X277323750Y-133570750D01*
X277243750Y-133650750D01*
X277163750Y-133570750D01*
X277156275Y-133570750D01*
X277116750Y-133531224D01*
X277116750Y-133523750D01*
X277036750Y-133443750D01*
X277116750Y-133363750D01*
X277116750Y-133356276D01*
X277156275Y-133316750D01*
X277163750Y-133316750D01*
X277243750Y-133236750D01*
X277323750Y-133316750D01*
X277323750Y-133316750D01*
G37*
X277323750Y-133316750D02*
X277331225Y-133316750D01*
X277370750Y-133356276D01*
X277370750Y-133363750D01*
X277450750Y-133443750D01*
X277370750Y-133523750D01*
X277370750Y-133531224D01*
X277331225Y-133570750D01*
X277323750Y-133570750D01*
X277243750Y-133650750D01*
X277163750Y-133570750D01*
X277156275Y-133570750D01*
X277116750Y-133531224D01*
X277116750Y-133523750D01*
X277036750Y-133443750D01*
X277116750Y-133363750D01*
X277116750Y-133356276D01*
X277156275Y-133316750D01*
X277163750Y-133316750D01*
X277243750Y-133236750D01*
X277323750Y-133316750D01*
G36*
X278436250Y-133316750D02*
X278443725Y-133316750D01*
X278483250Y-133356276D01*
X278483250Y-133363750D01*
X278563250Y-133443750D01*
X278483250Y-133523750D01*
X278483250Y-133531224D01*
X278443725Y-133570750D01*
X278436250Y-133570750D01*
X278356250Y-133650750D01*
X278276250Y-133570750D01*
X278268775Y-133570750D01*
X278229250Y-133531224D01*
X278229250Y-133523750D01*
X278149250Y-133443750D01*
X278229250Y-133363750D01*
X278229250Y-133356276D01*
X278268775Y-133316750D01*
X278276250Y-133316750D01*
X278356250Y-133236750D01*
X278436250Y-133316750D01*
X278436250Y-133316750D01*
G37*
X278436250Y-133316750D02*
X278443725Y-133316750D01*
X278483250Y-133356276D01*
X278483250Y-133363750D01*
X278563250Y-133443750D01*
X278483250Y-133523750D01*
X278483250Y-133531224D01*
X278443725Y-133570750D01*
X278436250Y-133570750D01*
X278356250Y-133650750D01*
X278276250Y-133570750D01*
X278268775Y-133570750D01*
X278229250Y-133531224D01*
X278229250Y-133523750D01*
X278149250Y-133443750D01*
X278229250Y-133363750D01*
X278229250Y-133356276D01*
X278268775Y-133316750D01*
X278276250Y-133316750D01*
X278356250Y-133236750D01*
X278436250Y-133316750D01*
G36*
X293502000Y-134873000D02*
X294630051Y-134873000D01*
X294682656Y-135000000D01*
X294630051Y-135127000D01*
X293502000Y-135127000D01*
X293502000Y-135147000D01*
X293248000Y-135147000D01*
X293248000Y-135127000D01*
X293228000Y-135127000D01*
X293228000Y-134873000D01*
X293248000Y-134873000D01*
X293248000Y-134853000D01*
X293502000Y-134853000D01*
X293502000Y-134873000D01*
X293502000Y-134873000D01*
G37*
X293502000Y-134873000D02*
X294630051Y-134873000D01*
X294682656Y-135000000D01*
X294630051Y-135127000D01*
X293502000Y-135127000D01*
X293502000Y-135147000D01*
X293248000Y-135147000D01*
X293248000Y-135127000D01*
X293228000Y-135127000D01*
X293228000Y-134873000D01*
X293248000Y-134873000D01*
X293248000Y-134853000D01*
X293502000Y-134853000D01*
X293502000Y-134873000D01*
G36*
X272900280Y-134497250D02*
X273347000Y-134497250D01*
X273347000Y-134649275D01*
X273327000Y-134649275D01*
X273327000Y-134696580D01*
X273073000Y-134696580D01*
X273073000Y-134649275D01*
X272424030Y-134649275D01*
X272346305Y-134727000D01*
X272327000Y-134727000D01*
X272327000Y-134746305D01*
X272326305Y-134747000D01*
X272073000Y-134747000D01*
X272073000Y-134727000D01*
X272066481Y-134727000D01*
X272159747Y-134587418D01*
X272167699Y-134547440D01*
X272650000Y-134547440D01*
X272897765Y-134498157D01*
X272899388Y-134497073D01*
X272900280Y-134497250D01*
X272900280Y-134497250D01*
G37*
X272900280Y-134497250D02*
X273347000Y-134497250D01*
X273347000Y-134649275D01*
X273327000Y-134649275D01*
X273327000Y-134696580D01*
X273073000Y-134696580D01*
X273073000Y-134649275D01*
X272424030Y-134649275D01*
X272346305Y-134727000D01*
X272327000Y-134727000D01*
X272327000Y-134746305D01*
X272326305Y-134747000D01*
X272073000Y-134747000D01*
X272073000Y-134727000D01*
X272066481Y-134727000D01*
X272159747Y-134587418D01*
X272167699Y-134547440D01*
X272650000Y-134547440D01*
X272897765Y-134498157D01*
X272899388Y-134497073D01*
X272900280Y-134497250D01*
G36*
X288124275Y-127473000D02*
X288700220Y-127473000D01*
X288712220Y-127461000D01*
X289955797Y-127461000D01*
X289940280Y-127498461D01*
X289940280Y-127565715D01*
X290099030Y-127724465D01*
X290337158Y-127724465D01*
X290575280Y-127771830D01*
X291022000Y-127771830D01*
X291022000Y-127923855D01*
X291002000Y-127923855D01*
X291002000Y-128499800D01*
X291160750Y-128658550D01*
X291165000Y-128658550D01*
X291165000Y-128801309D01*
X291261673Y-129034698D01*
X291440301Y-129213327D01*
X291525325Y-129248545D01*
X291674780Y-129398000D01*
X292250725Y-129398000D01*
X292250725Y-129378000D01*
X292402750Y-129378000D01*
X292402750Y-129672000D01*
X292250725Y-129672000D01*
X292250725Y-129652000D01*
X291674780Y-129652000D01*
X291516030Y-129810750D01*
X291516030Y-129951030D01*
X291612703Y-130184419D01*
X291791332Y-130363047D01*
X291827509Y-130378032D01*
X291489354Y-130716186D01*
X291476833Y-130711000D01*
X291123167Y-130711000D01*
X291063447Y-130735737D01*
X290899720Y-130703170D01*
X290300280Y-130703170D01*
X290089612Y-130745074D01*
X289874720Y-130702330D01*
X289275280Y-130702330D01*
X289037158Y-130749695D01*
X288799030Y-130749695D01*
X288640280Y-130908445D01*
X288640280Y-130975699D01*
X288686676Y-131087708D01*
X288677123Y-131102005D01*
X288627840Y-131349770D01*
X288627840Y-131748550D01*
X288677123Y-131996315D01*
X288817471Y-132206359D01*
X289027515Y-132346707D01*
X289275280Y-132395990D01*
X289874720Y-132395990D01*
X290085388Y-132354086D01*
X290300280Y-132396830D01*
X290899720Y-132396830D01*
X290900347Y-132396705D01*
X291077560Y-132470109D01*
X291077560Y-132702560D01*
X290525000Y-132702560D01*
X290277235Y-132751843D01*
X290221626Y-132789000D01*
X289420020Y-132789000D01*
X289349999Y-132775072D01*
X289279978Y-132789000D01*
X289279974Y-132789000D01*
X289072582Y-132830253D01*
X288837398Y-132987398D01*
X288797731Y-133046764D01*
X288755495Y-133089000D01*
X287801317Y-133089000D01*
X288230611Y-132659707D01*
X288289972Y-132620043D01*
X288329636Y-132560682D01*
X288329639Y-132560679D01*
X288439680Y-132395990D01*
X288447118Y-132384859D01*
X288488371Y-132177467D01*
X288488371Y-132177462D01*
X288502299Y-132107441D01*
X288488371Y-132037420D01*
X288488371Y-130324301D01*
X288640280Y-130324301D01*
X288640280Y-130391555D01*
X288799030Y-130550305D01*
X289448000Y-130550305D01*
X289448000Y-130325141D01*
X289665280Y-130325141D01*
X289665280Y-130392395D01*
X289702000Y-130429115D01*
X289702000Y-130550305D01*
X289823190Y-130550305D01*
X289824030Y-130551145D01*
X290473000Y-130551145D01*
X290473000Y-130428275D01*
X290509720Y-130391555D01*
X290509720Y-130324301D01*
X290473000Y-130235651D01*
X290473000Y-129975200D01*
X290727000Y-129975200D01*
X290727000Y-130551145D01*
X291375970Y-130551145D01*
X291534720Y-130392395D01*
X291534720Y-130325141D01*
X291438047Y-130091752D01*
X291259419Y-129913123D01*
X291026030Y-129816450D01*
X290885750Y-129816450D01*
X290727000Y-129975200D01*
X290473000Y-129975200D01*
X290314250Y-129816450D01*
X290173970Y-129816450D01*
X290088514Y-129851847D01*
X290001030Y-129815610D01*
X289860750Y-129815610D01*
X289702000Y-129974360D01*
X289702000Y-130236491D01*
X289665280Y-130325141D01*
X289448000Y-130325141D01*
X289448000Y-129974360D01*
X289289250Y-129815610D01*
X289148970Y-129815610D01*
X288915581Y-129912283D01*
X288736953Y-130090912D01*
X288640280Y-130324301D01*
X288488371Y-130324301D01*
X288488371Y-130295897D01*
X288502300Y-130225871D01*
X288447118Y-129948452D01*
X288329640Y-129772635D01*
X288289973Y-129713269D01*
X288230607Y-129673602D01*
X287903769Y-129346764D01*
X287864102Y-129287398D01*
X287846940Y-129275931D01*
X287846940Y-129175000D01*
X287822076Y-129050000D01*
X287846940Y-128925000D01*
X287846940Y-128675000D01*
X287810260Y-128490595D01*
X287924885Y-128375970D01*
X287924885Y-128137842D01*
X287972250Y-127899720D01*
X287972250Y-127727000D01*
X288124275Y-127727000D01*
X288124275Y-128375970D01*
X288283025Y-128534720D01*
X288350279Y-128534720D01*
X288583668Y-128438047D01*
X288762297Y-128259419D01*
X288835535Y-128082605D01*
X289940280Y-128082605D01*
X289940280Y-128149859D01*
X290036953Y-128383248D01*
X290215581Y-128561877D01*
X290448970Y-128658550D01*
X290589250Y-128658550D01*
X290748000Y-128499800D01*
X290748000Y-127923855D01*
X290099030Y-127923855D01*
X289940280Y-128082605D01*
X288835535Y-128082605D01*
X288858970Y-128026030D01*
X288858970Y-127885750D01*
X288700220Y-127727000D01*
X288124275Y-127727000D01*
X287972250Y-127727000D01*
X287972250Y-127461000D01*
X288124275Y-127461000D01*
X288124275Y-127473000D01*
X288124275Y-127473000D01*
G37*
X288124275Y-127473000D02*
X288700220Y-127473000D01*
X288712220Y-127461000D01*
X289955797Y-127461000D01*
X289940280Y-127498461D01*
X289940280Y-127565715D01*
X290099030Y-127724465D01*
X290337158Y-127724465D01*
X290575280Y-127771830D01*
X291022000Y-127771830D01*
X291022000Y-127923855D01*
X291002000Y-127923855D01*
X291002000Y-128499800D01*
X291160750Y-128658550D01*
X291165000Y-128658550D01*
X291165000Y-128801309D01*
X291261673Y-129034698D01*
X291440301Y-129213327D01*
X291525325Y-129248545D01*
X291674780Y-129398000D01*
X292250725Y-129398000D01*
X292250725Y-129378000D01*
X292402750Y-129378000D01*
X292402750Y-129672000D01*
X292250725Y-129672000D01*
X292250725Y-129652000D01*
X291674780Y-129652000D01*
X291516030Y-129810750D01*
X291516030Y-129951030D01*
X291612703Y-130184419D01*
X291791332Y-130363047D01*
X291827509Y-130378032D01*
X291489354Y-130716186D01*
X291476833Y-130711000D01*
X291123167Y-130711000D01*
X291063447Y-130735737D01*
X290899720Y-130703170D01*
X290300280Y-130703170D01*
X290089612Y-130745074D01*
X289874720Y-130702330D01*
X289275280Y-130702330D01*
X289037158Y-130749695D01*
X288799030Y-130749695D01*
X288640280Y-130908445D01*
X288640280Y-130975699D01*
X288686676Y-131087708D01*
X288677123Y-131102005D01*
X288627840Y-131349770D01*
X288627840Y-131748550D01*
X288677123Y-131996315D01*
X288817471Y-132206359D01*
X289027515Y-132346707D01*
X289275280Y-132395990D01*
X289874720Y-132395990D01*
X290085388Y-132354086D01*
X290300280Y-132396830D01*
X290899720Y-132396830D01*
X290900347Y-132396705D01*
X291077560Y-132470109D01*
X291077560Y-132702560D01*
X290525000Y-132702560D01*
X290277235Y-132751843D01*
X290221626Y-132789000D01*
X289420020Y-132789000D01*
X289349999Y-132775072D01*
X289279978Y-132789000D01*
X289279974Y-132789000D01*
X289072582Y-132830253D01*
X288837398Y-132987398D01*
X288797731Y-133046764D01*
X288755495Y-133089000D01*
X287801317Y-133089000D01*
X288230611Y-132659707D01*
X288289972Y-132620043D01*
X288329636Y-132560682D01*
X288329639Y-132560679D01*
X288439680Y-132395990D01*
X288447118Y-132384859D01*
X288488371Y-132177467D01*
X288488371Y-132177462D01*
X288502299Y-132107441D01*
X288488371Y-132037420D01*
X288488371Y-130324301D01*
X288640280Y-130324301D01*
X288640280Y-130391555D01*
X288799030Y-130550305D01*
X289448000Y-130550305D01*
X289448000Y-130325141D01*
X289665280Y-130325141D01*
X289665280Y-130392395D01*
X289702000Y-130429115D01*
X289702000Y-130550305D01*
X289823190Y-130550305D01*
X289824030Y-130551145D01*
X290473000Y-130551145D01*
X290473000Y-130428275D01*
X290509720Y-130391555D01*
X290509720Y-130324301D01*
X290473000Y-130235651D01*
X290473000Y-129975200D01*
X290727000Y-129975200D01*
X290727000Y-130551145D01*
X291375970Y-130551145D01*
X291534720Y-130392395D01*
X291534720Y-130325141D01*
X291438047Y-130091752D01*
X291259419Y-129913123D01*
X291026030Y-129816450D01*
X290885750Y-129816450D01*
X290727000Y-129975200D01*
X290473000Y-129975200D01*
X290314250Y-129816450D01*
X290173970Y-129816450D01*
X290088514Y-129851847D01*
X290001030Y-129815610D01*
X289860750Y-129815610D01*
X289702000Y-129974360D01*
X289702000Y-130236491D01*
X289665280Y-130325141D01*
X289448000Y-130325141D01*
X289448000Y-129974360D01*
X289289250Y-129815610D01*
X289148970Y-129815610D01*
X288915581Y-129912283D01*
X288736953Y-130090912D01*
X288640280Y-130324301D01*
X288488371Y-130324301D01*
X288488371Y-130295897D01*
X288502300Y-130225871D01*
X288447118Y-129948452D01*
X288329640Y-129772635D01*
X288289973Y-129713269D01*
X288230607Y-129673602D01*
X287903769Y-129346764D01*
X287864102Y-129287398D01*
X287846940Y-129275931D01*
X287846940Y-129175000D01*
X287822076Y-129050000D01*
X287846940Y-128925000D01*
X287846940Y-128675000D01*
X287810260Y-128490595D01*
X287924885Y-128375970D01*
X287924885Y-128137842D01*
X287972250Y-127899720D01*
X287972250Y-127727000D01*
X288124275Y-127727000D01*
X288124275Y-128375970D01*
X288283025Y-128534720D01*
X288350279Y-128534720D01*
X288583668Y-128438047D01*
X288762297Y-128259419D01*
X288835535Y-128082605D01*
X289940280Y-128082605D01*
X289940280Y-128149859D01*
X290036953Y-128383248D01*
X290215581Y-128561877D01*
X290448970Y-128658550D01*
X290589250Y-128658550D01*
X290748000Y-128499800D01*
X290748000Y-127923855D01*
X290099030Y-127923855D01*
X289940280Y-128082605D01*
X288835535Y-128082605D01*
X288858970Y-128026030D01*
X288858970Y-127885750D01*
X288700220Y-127727000D01*
X288124275Y-127727000D01*
X287972250Y-127727000D01*
X287972250Y-127461000D01*
X288124275Y-127461000D01*
X288124275Y-127473000D01*
G36*
X286502750Y-131566655D02*
X286430405Y-131639000D01*
X286303420Y-131639000D01*
X286303420Y-131498000D01*
X286350725Y-131498000D01*
X286350725Y-131478000D01*
X286502750Y-131478000D01*
X286502750Y-131566655D01*
X286502750Y-131566655D01*
G37*
X286502750Y-131566655D02*
X286430405Y-131639000D01*
X286303420Y-131639000D01*
X286303420Y-131498000D01*
X286350725Y-131498000D01*
X286350725Y-131478000D01*
X286502750Y-131478000D01*
X286502750Y-131566655D01*
G36*
X273202750Y-129749720D02*
X273250115Y-129987842D01*
X273250115Y-130225970D01*
X273400422Y-130376277D01*
X272677000Y-131110942D01*
X272677000Y-130323532D01*
X272824721Y-130384720D01*
X272891975Y-130384720D01*
X273050725Y-130225970D01*
X273050725Y-129577000D01*
X273003420Y-129577000D01*
X273003420Y-129323000D01*
X273050725Y-129323000D01*
X273050725Y-129303000D01*
X273202750Y-129303000D01*
X273202750Y-129749720D01*
X273202750Y-129749720D01*
G37*
X273202750Y-129749720D02*
X273250115Y-129987842D01*
X273250115Y-130225970D01*
X273400422Y-130376277D01*
X272677000Y-131110942D01*
X272677000Y-130323532D01*
X272824721Y-130384720D01*
X272891975Y-130384720D01*
X273050725Y-130225970D01*
X273050725Y-129577000D01*
X273003420Y-129577000D01*
X273003420Y-129323000D01*
X273050725Y-129323000D01*
X273050725Y-129303000D01*
X273202750Y-129303000D01*
X273202750Y-129749720D01*
G36*
X280315680Y-126228663D02*
X280103000Y-126742119D01*
X280103000Y-127297881D01*
X280136277Y-127378218D01*
X279906762Y-127607733D01*
X279847399Y-127647398D01*
X279807734Y-127706761D01*
X279807732Y-127706763D01*
X279696552Y-127873157D01*
X279690254Y-127882582D01*
X279658942Y-128040000D01*
X279635072Y-128160000D01*
X279649001Y-128230025D01*
X279649000Y-129425494D01*
X279146762Y-129927733D01*
X279109606Y-129952560D01*
X279100000Y-129952560D01*
X279000000Y-129972451D01*
X278900000Y-129952560D01*
X278749500Y-129952560D01*
X278749500Y-129875861D01*
X278757809Y-129870309D01*
X278898157Y-129660265D01*
X278947440Y-129412500D01*
X278947440Y-129225092D01*
X279036199Y-129188327D01*
X279214827Y-129009698D01*
X279311500Y-128776309D01*
X279311500Y-128733750D01*
X279152750Y-128575000D01*
X278900199Y-128575000D01*
X278898157Y-128564735D01*
X278854902Y-128500000D01*
X278898157Y-128435265D01*
X278900199Y-128425000D01*
X279152750Y-128425000D01*
X279311500Y-128266250D01*
X279311500Y-128223691D01*
X279214827Y-127990302D01*
X279036199Y-127811673D01*
X278947440Y-127774908D01*
X278947440Y-127587500D01*
X278898157Y-127339735D01*
X278757809Y-127129691D01*
X278547765Y-126989343D01*
X278300000Y-126940060D01*
X278217107Y-126940060D01*
X278136960Y-126886507D01*
X277885053Y-126836400D01*
X277885049Y-126836400D01*
X277800000Y-126819483D01*
X277714951Y-126836400D01*
X276548034Y-126836400D01*
X276496735Y-126802123D01*
X276248970Y-126752840D01*
X275850190Y-126752840D01*
X275602425Y-126802123D01*
X275600000Y-126803743D01*
X275597575Y-126802123D01*
X275349810Y-126752840D01*
X274951030Y-126752840D01*
X274703265Y-126802123D01*
X274654061Y-126835000D01*
X274457630Y-126835000D01*
X274299720Y-126803590D01*
X273700280Y-126803590D01*
X273544481Y-126834580D01*
X273345310Y-126834580D01*
X273296735Y-126802123D01*
X273048970Y-126752840D01*
X272677000Y-126752840D01*
X272677000Y-126185000D01*
X280359343Y-126185000D01*
X280315680Y-126228663D01*
X280315680Y-126228663D01*
G37*
X280315680Y-126228663D02*
X280103000Y-126742119D01*
X280103000Y-127297881D01*
X280136277Y-127378218D01*
X279906762Y-127607733D01*
X279847399Y-127647398D01*
X279807734Y-127706761D01*
X279807732Y-127706763D01*
X279696552Y-127873157D01*
X279690254Y-127882582D01*
X279658942Y-128040000D01*
X279635072Y-128160000D01*
X279649001Y-128230025D01*
X279649000Y-129425494D01*
X279146762Y-129927733D01*
X279109606Y-129952560D01*
X279100000Y-129952560D01*
X279000000Y-129972451D01*
X278900000Y-129952560D01*
X278749500Y-129952560D01*
X278749500Y-129875861D01*
X278757809Y-129870309D01*
X278898157Y-129660265D01*
X278947440Y-129412500D01*
X278947440Y-129225092D01*
X279036199Y-129188327D01*
X279214827Y-129009698D01*
X279311500Y-128776309D01*
X279311500Y-128733750D01*
X279152750Y-128575000D01*
X278900199Y-128575000D01*
X278898157Y-128564735D01*
X278854902Y-128500000D01*
X278898157Y-128435265D01*
X278900199Y-128425000D01*
X279152750Y-128425000D01*
X279311500Y-128266250D01*
X279311500Y-128223691D01*
X279214827Y-127990302D01*
X279036199Y-127811673D01*
X278947440Y-127774908D01*
X278947440Y-127587500D01*
X278898157Y-127339735D01*
X278757809Y-127129691D01*
X278547765Y-126989343D01*
X278300000Y-126940060D01*
X278217107Y-126940060D01*
X278136960Y-126886507D01*
X277885053Y-126836400D01*
X277885049Y-126836400D01*
X277800000Y-126819483D01*
X277714951Y-126836400D01*
X276548034Y-126836400D01*
X276496735Y-126802123D01*
X276248970Y-126752840D01*
X275850190Y-126752840D01*
X275602425Y-126802123D01*
X275600000Y-126803743D01*
X275597575Y-126802123D01*
X275349810Y-126752840D01*
X274951030Y-126752840D01*
X274703265Y-126802123D01*
X274654061Y-126835000D01*
X274457630Y-126835000D01*
X274299720Y-126803590D01*
X273700280Y-126803590D01*
X273544481Y-126834580D01*
X273345310Y-126834580D01*
X273296735Y-126802123D01*
X273048970Y-126752840D01*
X272677000Y-126752840D01*
X272677000Y-126185000D01*
X280359343Y-126185000D01*
X280315680Y-126228663D01*
G36*
X286093309Y-129506691D02*
X286101924Y-129550000D01*
X286091526Y-129602276D01*
X286078750Y-129589500D01*
X286021250Y-129589500D01*
X286001846Y-129608904D01*
X285815302Y-129686173D01*
X285794075Y-129707400D01*
X285672765Y-129626343D01*
X285601397Y-129612147D01*
X285578750Y-129589500D01*
X285548691Y-129589500D01*
X285528853Y-129597717D01*
X285506691Y-129593309D01*
X285498076Y-129550000D01*
X285506691Y-129506691D01*
X285550000Y-129498076D01*
X285675000Y-129522940D01*
X285925000Y-129522940D01*
X286050000Y-129498076D01*
X286093309Y-129506691D01*
X286093309Y-129506691D01*
G37*
X286093309Y-129506691D02*
X286101924Y-129550000D01*
X286091526Y-129602276D01*
X286078750Y-129589500D01*
X286021250Y-129589500D01*
X286001846Y-129608904D01*
X285815302Y-129686173D01*
X285794075Y-129707400D01*
X285672765Y-129626343D01*
X285601397Y-129612147D01*
X285578750Y-129589500D01*
X285548691Y-129589500D01*
X285528853Y-129597717D01*
X285506691Y-129593309D01*
X285498076Y-129550000D01*
X285506691Y-129506691D01*
X285550000Y-129498076D01*
X285675000Y-129522940D01*
X285925000Y-129522940D01*
X286050000Y-129498076D01*
X286093309Y-129506691D01*
G36*
X283753060Y-129425000D02*
X283777924Y-129550000D01*
X283770655Y-129586541D01*
X283712999Y-129575072D01*
X283642978Y-129589000D01*
X283642974Y-129589000D01*
X283505810Y-129616284D01*
X283505811Y-129447695D01*
X283753060Y-129200445D01*
X283753060Y-129425000D01*
X283753060Y-129425000D01*
G37*
X283753060Y-129425000D02*
X283777924Y-129550000D01*
X283770655Y-129586541D01*
X283712999Y-129575072D01*
X283642978Y-129589000D01*
X283642974Y-129589000D01*
X283505810Y-129616284D01*
X283505811Y-129447695D01*
X283753060Y-129200445D01*
X283753060Y-129425000D01*
G36*
X294277000Y-129426145D02*
X294297000Y-129426145D01*
X294297000Y-129578170D01*
X294096410Y-129578170D01*
X294096410Y-129378840D01*
X294277000Y-129378840D01*
X294277000Y-129426145D01*
X294277000Y-129426145D01*
G37*
X294277000Y-129426145D02*
X294297000Y-129426145D01*
X294297000Y-129578170D01*
X294096410Y-129578170D01*
X294096410Y-129378840D01*
X294277000Y-129378840D01*
X294277000Y-129426145D01*
G36*
X295051161Y-126580582D02*
X294935908Y-127160000D01*
X295020288Y-127584207D01*
X294918361Y-127686134D01*
X294858997Y-127725800D01*
X294819332Y-127785163D01*
X294819331Y-127785164D01*
X294776136Y-127849810D01*
X294701852Y-127960984D01*
X294660599Y-128168376D01*
X294660599Y-128168380D01*
X294646671Y-128238401D01*
X294660599Y-128308422D01*
X294660599Y-128726480D01*
X294576030Y-128691450D01*
X294435750Y-128691450D01*
X294321428Y-128805772D01*
X294347440Y-128675000D01*
X294347440Y-127775000D01*
X294298157Y-127527235D01*
X294296664Y-127525000D01*
X294298157Y-127522765D01*
X294347440Y-127275000D01*
X294347440Y-126375000D01*
X294309647Y-126185000D01*
X295315480Y-126185000D01*
X295051161Y-126580582D01*
X295051161Y-126580582D01*
G37*
X295051161Y-126580582D02*
X294935908Y-127160000D01*
X295020288Y-127584207D01*
X294918361Y-127686134D01*
X294858997Y-127725800D01*
X294819332Y-127785163D01*
X294819331Y-127785164D01*
X294776136Y-127849810D01*
X294701852Y-127960984D01*
X294660599Y-128168376D01*
X294660599Y-128168380D01*
X294646671Y-128238401D01*
X294660599Y-128308422D01*
X294660599Y-128726480D01*
X294576030Y-128691450D01*
X294435750Y-128691450D01*
X294321428Y-128805772D01*
X294347440Y-128675000D01*
X294347440Y-127775000D01*
X294298157Y-127527235D01*
X294296664Y-127525000D01*
X294298157Y-127522765D01*
X294347440Y-127275000D01*
X294347440Y-126375000D01*
X294309647Y-126185000D01*
X295315480Y-126185000D01*
X295051161Y-126580582D01*
G36*
X276652500Y-128627002D02*
X276759248Y-128627002D01*
X276656053Y-128730198D01*
X276615970Y-128690115D01*
X276377842Y-128690115D01*
X276161891Y-128647160D01*
X276248970Y-128647160D01*
X276496735Y-128597877D01*
X276548034Y-128563600D01*
X276652500Y-128563600D01*
X276652500Y-128627002D01*
X276652500Y-128627002D01*
G37*
X276652500Y-128627002D02*
X276759248Y-128627002D01*
X276656053Y-128730198D01*
X276615970Y-128690115D01*
X276377842Y-128690115D01*
X276161891Y-128647160D01*
X276248970Y-128647160D01*
X276496735Y-128597877D01*
X276548034Y-128563600D01*
X276652500Y-128563600D01*
X276652500Y-128627002D01*
G36*
X275828019Y-128642750D02*
X275693000Y-128642750D01*
X275693000Y-128615893D01*
X275828019Y-128642750D01*
X275828019Y-128642750D01*
G37*
X275828019Y-128642750D02*
X275693000Y-128642750D01*
X275693000Y-128615893D01*
X275828019Y-128642750D01*
G36*
X292252560Y-128372000D02*
X292073000Y-128372000D01*
X292073000Y-128352000D01*
X292053000Y-128352000D01*
X292053000Y-128098000D01*
X292073000Y-128098000D01*
X292073000Y-128078000D01*
X292252560Y-128078000D01*
X292252560Y-128372000D01*
X292252560Y-128372000D01*
G37*
X292252560Y-128372000D02*
X292073000Y-128372000D01*
X292073000Y-128352000D01*
X292053000Y-128352000D01*
X292053000Y-128098000D01*
X292073000Y-128098000D01*
X292073000Y-128078000D01*
X292252560Y-128078000D01*
X292252560Y-128372000D01*
G04 #@! TD*
M02*
