G04 #@! TF.GenerationSoftware,KiCad,Pcbnew,(5.0.0)*
G04 #@! TF.CreationDate,2019-04-04T15:00:13-04:00*
G04 #@! TF.ProjectId,motion_ppg,6D6F74696F6E5F7070672E6B69636164,rev?*
G04 #@! TF.SameCoordinates,Original*
G04 #@! TF.FileFunction,Soldermask,Top*
G04 #@! TF.FilePolarity,Negative*
%FSLAX46Y46*%
G04 Gerber Fmt 4.6, Leading zero omitted, Abs format (unit mm)*
G04 Created by KiCad (PCBNEW (5.0.0)) date 04/04/19 15:00:13*
%MOMM*%
%LPD*%
G01*
G04 APERTURE LIST*
%ADD10R,0.680000X1.090000*%
%ADD11R,0.629440X0.428780*%
%ADD12R,0.428780X0.629440*%
%ADD13C,0.330000*%
%ADD14C,0.150000*%
%ADD15C,0.905000*%
%ADD16R,0.230000X0.530000*%
%ADD17R,0.230000X0.580000*%
%ADD18R,0.530000X0.230000*%
%ADD19R,0.580000X0.230000*%
%ADD20R,1.570000X1.570000*%
%ADD21R,1.730000X1.730000*%
%ADD22O,1.730000X1.730000*%
%ADD23R,0.830000X0.830000*%
%ADD24R,0.330000X0.680000*%
%ADD25R,1.270000X0.805000*%
%ADD26R,0.730000X0.330000*%
%ADD27R,0.630000X0.630000*%
%ADD28R,1.554000X1.554000*%
%ADD29C,1.554000*%
%ADD30R,0.665000X1.173000*%
%ADD31R,0.930000X0.830000*%
%ADD32R,0.830000X1.630000*%
%ADD33R,0.230000X0.830000*%
%ADD34R,0.830000X0.230000*%
%ADD35R,1.142500X1.142500*%
%ADD36R,0.630000X1.130000*%
%ADD37R,0.780000X0.330000*%
%ADD38R,0.905000X0.755000*%
%ADD39R,0.430000X0.730000*%
%ADD40R,0.430000X0.280000*%
G04 APERTURE END LIST*
D10*
G04 #@! TO.C,U5*
X283770000Y-136140000D03*
X285670000Y-136140000D03*
X285670000Y-138340000D03*
X284720000Y-138340000D03*
X283770000Y-138340000D03*
G04 #@! TD*
D11*
G04 #@! TO.C,C10*
X290220000Y-135380420D03*
X290220000Y-136279580D03*
G04 #@! TD*
G04 #@! TO.C,C9*
X288580000Y-134239580D03*
X288580000Y-133340420D03*
G04 #@! TD*
D12*
G04 #@! TO.C,C7*
X286590000Y-132700000D03*
X287489160Y-132700000D03*
G04 #@! TD*
G04 #@! TO.C,R8*
X285919160Y-139570000D03*
X285020000Y-139570000D03*
G04 #@! TD*
G04 #@! TO.C,R6*
X287240000Y-135150000D03*
X288139160Y-135150000D03*
G04 #@! TD*
D11*
G04 #@! TO.C,R4*
X287710000Y-138869580D03*
X287710000Y-137970420D03*
G04 #@! TD*
G04 #@! TO.C,R3*
X287700000Y-136140420D03*
X287700000Y-137039580D03*
G04 #@! TD*
D12*
G04 #@! TO.C,R2*
X286920000Y-133720000D03*
X286020840Y-133720000D03*
G04 #@! TD*
G04 #@! TO.C,C6*
X284450420Y-134780000D03*
X285349580Y-134780000D03*
G04 #@! TD*
G04 #@! TO.C,R1*
X286050840Y-131720000D03*
X286950000Y-131720000D03*
G04 #@! TD*
D13*
G04 #@! TO.C,U2*
X275620000Y-142840000D03*
X275220000Y-142840000D03*
X275220000Y-143240000D03*
X275620000Y-143240000D03*
X275620000Y-143640000D03*
X275220000Y-143640000D03*
X275220000Y-144040000D03*
X275620000Y-144040000D03*
G04 #@! TD*
D11*
G04 #@! TO.C,C5*
X277430000Y-142390000D03*
X277430000Y-143289160D03*
G04 #@! TD*
G04 #@! TO.C,C3*
X276550000Y-143000840D03*
X276550000Y-143900000D03*
G04 #@! TD*
D14*
G04 #@! TO.C,L1*
G36*
X267703426Y-138461089D02*
X267725389Y-138464347D01*
X267746927Y-138469742D01*
X267767832Y-138477222D01*
X267787904Y-138486715D01*
X267806948Y-138498130D01*
X267824781Y-138511356D01*
X267841233Y-138526267D01*
X267856144Y-138542719D01*
X267869370Y-138560552D01*
X267880785Y-138579596D01*
X267890278Y-138599668D01*
X267897758Y-138620573D01*
X267903153Y-138642111D01*
X267906411Y-138664074D01*
X267907500Y-138686250D01*
X267907500Y-139213750D01*
X267906411Y-139235926D01*
X267903153Y-139257889D01*
X267897758Y-139279427D01*
X267890278Y-139300332D01*
X267880785Y-139320404D01*
X267869370Y-139339448D01*
X267856144Y-139357281D01*
X267841233Y-139373733D01*
X267824781Y-139388644D01*
X267806948Y-139401870D01*
X267787904Y-139413285D01*
X267767832Y-139422778D01*
X267746927Y-139430258D01*
X267725389Y-139435653D01*
X267703426Y-139438911D01*
X267681250Y-139440000D01*
X267228750Y-139440000D01*
X267206574Y-139438911D01*
X267184611Y-139435653D01*
X267163073Y-139430258D01*
X267142168Y-139422778D01*
X267122096Y-139413285D01*
X267103052Y-139401870D01*
X267085219Y-139388644D01*
X267068767Y-139373733D01*
X267053856Y-139357281D01*
X267040630Y-139339448D01*
X267029215Y-139320404D01*
X267019722Y-139300332D01*
X267012242Y-139279427D01*
X267006847Y-139257889D01*
X267003589Y-139235926D01*
X267002500Y-139213750D01*
X267002500Y-138686250D01*
X267003589Y-138664074D01*
X267006847Y-138642111D01*
X267012242Y-138620573D01*
X267019722Y-138599668D01*
X267029215Y-138579596D01*
X267040630Y-138560552D01*
X267053856Y-138542719D01*
X267068767Y-138526267D01*
X267085219Y-138511356D01*
X267103052Y-138498130D01*
X267122096Y-138486715D01*
X267142168Y-138477222D01*
X267163073Y-138469742D01*
X267184611Y-138464347D01*
X267206574Y-138461089D01*
X267228750Y-138460000D01*
X267681250Y-138460000D01*
X267703426Y-138461089D01*
X267703426Y-138461089D01*
G37*
D15*
X267455000Y-138950000D03*
D14*
G36*
X269278426Y-138461089D02*
X269300389Y-138464347D01*
X269321927Y-138469742D01*
X269342832Y-138477222D01*
X269362904Y-138486715D01*
X269381948Y-138498130D01*
X269399781Y-138511356D01*
X269416233Y-138526267D01*
X269431144Y-138542719D01*
X269444370Y-138560552D01*
X269455785Y-138579596D01*
X269465278Y-138599668D01*
X269472758Y-138620573D01*
X269478153Y-138642111D01*
X269481411Y-138664074D01*
X269482500Y-138686250D01*
X269482500Y-139213750D01*
X269481411Y-139235926D01*
X269478153Y-139257889D01*
X269472758Y-139279427D01*
X269465278Y-139300332D01*
X269455785Y-139320404D01*
X269444370Y-139339448D01*
X269431144Y-139357281D01*
X269416233Y-139373733D01*
X269399781Y-139388644D01*
X269381948Y-139401870D01*
X269362904Y-139413285D01*
X269342832Y-139422778D01*
X269321927Y-139430258D01*
X269300389Y-139435653D01*
X269278426Y-139438911D01*
X269256250Y-139440000D01*
X268803750Y-139440000D01*
X268781574Y-139438911D01*
X268759611Y-139435653D01*
X268738073Y-139430258D01*
X268717168Y-139422778D01*
X268697096Y-139413285D01*
X268678052Y-139401870D01*
X268660219Y-139388644D01*
X268643767Y-139373733D01*
X268628856Y-139357281D01*
X268615630Y-139339448D01*
X268604215Y-139320404D01*
X268594722Y-139300332D01*
X268587242Y-139279427D01*
X268581847Y-139257889D01*
X268578589Y-139235926D01*
X268577500Y-139213750D01*
X268577500Y-138686250D01*
X268578589Y-138664074D01*
X268581847Y-138642111D01*
X268587242Y-138620573D01*
X268594722Y-138599668D01*
X268604215Y-138579596D01*
X268615630Y-138560552D01*
X268628856Y-138542719D01*
X268643767Y-138526267D01*
X268660219Y-138511356D01*
X268678052Y-138498130D01*
X268697096Y-138486715D01*
X268717168Y-138477222D01*
X268738073Y-138469742D01*
X268759611Y-138464347D01*
X268781574Y-138461089D01*
X268803750Y-138460000D01*
X269256250Y-138460000D01*
X269278426Y-138461089D01*
X269278426Y-138461089D01*
G37*
D15*
X269030000Y-138950000D03*
G04 #@! TD*
D12*
G04 #@! TO.C,C4*
X289040000Y-128760000D03*
X288140840Y-128760000D03*
G04 #@! TD*
G04 #@! TO.C,C35*
X289059160Y-127650000D03*
X288160000Y-127650000D03*
G04 #@! TD*
D16*
G04 #@! TO.C,U4*
X284750000Y-129580000D03*
D17*
X285150000Y-129580000D03*
X285550000Y-129580000D03*
X285950000Y-129580000D03*
X286350000Y-129580000D03*
D16*
X286750000Y-129580000D03*
D18*
X287250000Y-129080000D03*
D19*
X287250000Y-128680000D03*
X287250000Y-128280000D03*
X287250000Y-127880000D03*
X287250000Y-127480000D03*
D18*
X287250000Y-127080000D03*
D16*
X286750000Y-126580000D03*
D17*
X286350000Y-126580000D03*
X285950000Y-126580000D03*
X285550000Y-126580000D03*
X285150000Y-126580000D03*
D16*
X284750000Y-126580000D03*
D18*
X284250000Y-127080000D03*
D19*
X284250000Y-127480000D03*
X284250000Y-127880000D03*
X284250000Y-128280000D03*
X284250000Y-128680000D03*
D18*
X284250000Y-129080000D03*
D20*
X285750000Y-128080000D03*
G04 #@! TD*
D21*
G04 #@! TO.C,P3*
X295990000Y-144510000D03*
D22*
X295990000Y-141970000D03*
G04 #@! TD*
D12*
G04 #@! TO.C,R5*
X278420420Y-143320000D03*
X279319580Y-143320000D03*
G04 #@! TD*
D23*
G04 #@! TO.C,D4*
X289520000Y-142980000D03*
X289520000Y-141380000D03*
G04 #@! TD*
D12*
G04 #@! TO.C,C18*
X288310420Y-144010000D03*
X289209580Y-144010000D03*
G04 #@! TD*
G04 #@! TO.C,R10*
X286530420Y-144010000D03*
X287429580Y-144010000D03*
G04 #@! TD*
G04 #@! TO.C,C16*
X285199580Y-144020000D03*
X284300420Y-144020000D03*
G04 #@! TD*
D11*
G04 #@! TO.C,R9*
X282140000Y-142639580D03*
X282140000Y-141740420D03*
G04 #@! TD*
G04 #@! TO.C,C17*
X287490000Y-141469580D03*
X287490000Y-140570420D03*
G04 #@! TD*
D23*
G04 #@! TO.C,D3*
X282240000Y-140050000D03*
X283840000Y-140050000D03*
G04 #@! TD*
D11*
G04 #@! TO.C,C22*
X281800000Y-137320420D03*
X281800000Y-138219580D03*
G04 #@! TD*
D12*
G04 #@! TO.C,R7*
X278420840Y-142360000D03*
X279320000Y-142360000D03*
G04 #@! TD*
D24*
G04 #@! TO.C,U1*
X269320000Y-140200000D03*
X268820000Y-140200000D03*
X268320000Y-140200000D03*
X267820000Y-140200000D03*
X267320000Y-140200000D03*
X267320000Y-143300000D03*
X267820000Y-143300000D03*
X268320000Y-143300000D03*
X268820000Y-143300000D03*
X269320000Y-143300000D03*
D25*
X267700000Y-142137500D03*
X268940000Y-142137500D03*
X267700000Y-141362500D03*
X268940000Y-141362500D03*
G04 #@! TD*
D11*
G04 #@! TO.C,C21*
X274070000Y-139049580D03*
X274070000Y-138150420D03*
G04 #@! TD*
D12*
G04 #@! TO.C,R12*
X285179580Y-130610000D03*
X284280420Y-130610000D03*
G04 #@! TD*
D11*
G04 #@! TO.C,R11*
X283310000Y-128290000D03*
X283310000Y-129189160D03*
G04 #@! TD*
D12*
G04 #@! TO.C,C36*
X289060000Y-126530000D03*
X288160840Y-126530000D03*
G04 #@! TD*
D26*
G04 #@! TO.C,F1*
X278326500Y-128500000D03*
D27*
X278000000Y-129112500D03*
X278000000Y-127887500D03*
D26*
X277637500Y-128500000D03*
G04 #@! TD*
D11*
G04 #@! TO.C,C34*
X275840000Y-129489580D03*
X275840000Y-128590420D03*
G04 #@! TD*
D12*
G04 #@! TO.C,C33*
X273150420Y-129450000D03*
X274049580Y-129450000D03*
G04 #@! TD*
D28*
G04 #@! TO.C,P2*
X281500000Y-129560000D03*
D29*
X281500000Y-127020000D03*
G04 #@! TD*
D23*
G04 #@! TO.C,D2*
X280490000Y-140050000D03*
X280490000Y-138450000D03*
G04 #@! TD*
D11*
G04 #@! TO.C,C2*
X271040000Y-142899580D03*
X271040000Y-142000420D03*
G04 #@! TD*
G04 #@! TO.C,C1*
X272140000Y-142909580D03*
X272140000Y-142010420D03*
G04 #@! TD*
D23*
G04 #@! TO.C,D1*
X279240000Y-140050000D03*
X279240000Y-138450000D03*
G04 #@! TD*
D28*
G04 #@! TO.C,P1*
X292380000Y-144450000D03*
D29*
X292380000Y-141910000D03*
G04 #@! TD*
D30*
G04 #@! TO.C,L4*
X272932000Y-138620000D03*
X271408000Y-138620000D03*
G04 #@! TD*
D31*
G04 #@! TO.C,X1*
X270800000Y-133500000D03*
X272200000Y-133500000D03*
X270800000Y-134600000D03*
X272200000Y-134600000D03*
G04 #@! TD*
D11*
G04 #@! TO.C,C28*
X275450000Y-140100420D03*
X275450000Y-140999580D03*
G04 #@! TD*
D12*
G04 #@! TO.C,C26*
X273649580Y-140200000D03*
X272750420Y-140200000D03*
G04 #@! TD*
D11*
G04 #@! TO.C,C24*
X269800000Y-133750420D03*
X269800000Y-134649580D03*
G04 #@! TD*
G04 #@! TO.C,C25*
X273200000Y-134549580D03*
X273200000Y-133650420D03*
G04 #@! TD*
G04 #@! TO.C,C29*
X276850000Y-140100420D03*
X276850000Y-140999580D03*
G04 #@! TD*
D32*
G04 #@! TO.C,A1*
X270745000Y-127673000D03*
X267345000Y-127673000D03*
G04 #@! TD*
D12*
G04 #@! TO.C,L6*
X272849580Y-127700000D03*
X271950420Y-127700000D03*
G04 #@! TD*
D11*
G04 #@! TO.C,L5*
X274000000Y-127650420D03*
X274000000Y-128549580D03*
G04 #@! TD*
D12*
G04 #@! TO.C,C30*
X276049580Y-127700000D03*
X275150420Y-127700000D03*
G04 #@! TD*
G04 #@! TO.C,L3*
X271730420Y-137270000D03*
X272629580Y-137270000D03*
G04 #@! TD*
D30*
G04 #@! TO.C,C23*
X273262000Y-136000000D03*
X271738000Y-136000000D03*
G04 #@! TD*
D33*
G04 #@! TO.C,U3*
X275600000Y-137000000D03*
X276000000Y-137000000D03*
X276400000Y-137000000D03*
X276800000Y-137000000D03*
X277200000Y-137000000D03*
X277600000Y-137000000D03*
X278000000Y-137000000D03*
X278400000Y-137000000D03*
X278800000Y-137000000D03*
X279200000Y-137000000D03*
X279600000Y-137000000D03*
X280000000Y-137000000D03*
D34*
X280800000Y-136200000D03*
X280800000Y-135800000D03*
X280800000Y-135400000D03*
X280800000Y-135000000D03*
X280800000Y-134600000D03*
X280800000Y-134200000D03*
X280800000Y-133800000D03*
X280800000Y-133400000D03*
X280800000Y-133000000D03*
X280800000Y-132600000D03*
X280800000Y-132200000D03*
X280800000Y-131800000D03*
D33*
X280000000Y-131000000D03*
X279600000Y-131000000D03*
X279200000Y-131000000D03*
X278800000Y-131000000D03*
X278400000Y-131000000D03*
X278000000Y-131000000D03*
X277600000Y-131000000D03*
X277200000Y-131000000D03*
X276800000Y-131000000D03*
X276400000Y-131000000D03*
X276000000Y-131000000D03*
X275600000Y-131000000D03*
D34*
X274800000Y-131800000D03*
X274800000Y-132200000D03*
X274800000Y-132600000D03*
X274800000Y-133000000D03*
X274800000Y-133400000D03*
X274800000Y-133800000D03*
X274800000Y-134200000D03*
X274800000Y-134600000D03*
X274800000Y-135000000D03*
X274800000Y-135400000D03*
X274800000Y-135800000D03*
X274800000Y-136200000D03*
D35*
X279468750Y-132331250D03*
X278356250Y-132331250D03*
X277243750Y-132331250D03*
X276131250Y-132331250D03*
X279468750Y-133443750D03*
X278356250Y-133443750D03*
X277243750Y-133443750D03*
X276131250Y-133443750D03*
X279468750Y-134556250D03*
X278356250Y-134556250D03*
X277243750Y-134556250D03*
X276131250Y-134556250D03*
X279468750Y-135668750D03*
X278356250Y-135668750D03*
X277243750Y-135668750D03*
X276131250Y-135668750D03*
G04 #@! TD*
D36*
G04 #@! TO.C,X2*
X276850000Y-138850000D03*
X275450000Y-138850000D03*
G04 #@! TD*
D37*
G04 #@! TO.C,U6*
X286210000Y-142890000D03*
X286210000Y-142390000D03*
X286210000Y-141890000D03*
X286210000Y-141390000D03*
X283310000Y-141390000D03*
X283310000Y-141890000D03*
X283310000Y-142390000D03*
X283310000Y-142890000D03*
D38*
X284322500Y-141777500D03*
X284322500Y-142502500D03*
X285197500Y-141777500D03*
X285197500Y-142502500D03*
G04 #@! TD*
D39*
G04 #@! TO.C,Q1*
X287610000Y-142730000D03*
D40*
X288310000Y-142955000D03*
X288310000Y-142505000D03*
G04 #@! TD*
D14*
G04 #@! TO.C,L2*
G36*
X274035926Y-143946089D02*
X274057889Y-143949347D01*
X274079427Y-143954742D01*
X274100332Y-143962222D01*
X274120404Y-143971715D01*
X274139448Y-143983130D01*
X274157281Y-143996356D01*
X274173733Y-144011267D01*
X274188644Y-144027719D01*
X274201870Y-144045552D01*
X274213285Y-144064596D01*
X274222778Y-144084668D01*
X274230258Y-144105573D01*
X274235653Y-144127111D01*
X274238911Y-144149074D01*
X274240000Y-144171250D01*
X274240000Y-144623750D01*
X274238911Y-144645926D01*
X274235653Y-144667889D01*
X274230258Y-144689427D01*
X274222778Y-144710332D01*
X274213285Y-144730404D01*
X274201870Y-144749448D01*
X274188644Y-144767281D01*
X274173733Y-144783733D01*
X274157281Y-144798644D01*
X274139448Y-144811870D01*
X274120404Y-144823285D01*
X274100332Y-144832778D01*
X274079427Y-144840258D01*
X274057889Y-144845653D01*
X274035926Y-144848911D01*
X274013750Y-144850000D01*
X273486250Y-144850000D01*
X273464074Y-144848911D01*
X273442111Y-144845653D01*
X273420573Y-144840258D01*
X273399668Y-144832778D01*
X273379596Y-144823285D01*
X273360552Y-144811870D01*
X273342719Y-144798644D01*
X273326267Y-144783733D01*
X273311356Y-144767281D01*
X273298130Y-144749448D01*
X273286715Y-144730404D01*
X273277222Y-144710332D01*
X273269742Y-144689427D01*
X273264347Y-144667889D01*
X273261089Y-144645926D01*
X273260000Y-144623750D01*
X273260000Y-144171250D01*
X273261089Y-144149074D01*
X273264347Y-144127111D01*
X273269742Y-144105573D01*
X273277222Y-144084668D01*
X273286715Y-144064596D01*
X273298130Y-144045552D01*
X273311356Y-144027719D01*
X273326267Y-144011267D01*
X273342719Y-143996356D01*
X273360552Y-143983130D01*
X273379596Y-143971715D01*
X273399668Y-143962222D01*
X273420573Y-143954742D01*
X273442111Y-143949347D01*
X273464074Y-143946089D01*
X273486250Y-143945000D01*
X274013750Y-143945000D01*
X274035926Y-143946089D01*
X274035926Y-143946089D01*
G37*
D15*
X273750000Y-144397500D03*
D14*
G36*
X274035926Y-142371089D02*
X274057889Y-142374347D01*
X274079427Y-142379742D01*
X274100332Y-142387222D01*
X274120404Y-142396715D01*
X274139448Y-142408130D01*
X274157281Y-142421356D01*
X274173733Y-142436267D01*
X274188644Y-142452719D01*
X274201870Y-142470552D01*
X274213285Y-142489596D01*
X274222778Y-142509668D01*
X274230258Y-142530573D01*
X274235653Y-142552111D01*
X274238911Y-142574074D01*
X274240000Y-142596250D01*
X274240000Y-143048750D01*
X274238911Y-143070926D01*
X274235653Y-143092889D01*
X274230258Y-143114427D01*
X274222778Y-143135332D01*
X274213285Y-143155404D01*
X274201870Y-143174448D01*
X274188644Y-143192281D01*
X274173733Y-143208733D01*
X274157281Y-143223644D01*
X274139448Y-143236870D01*
X274120404Y-143248285D01*
X274100332Y-143257778D01*
X274079427Y-143265258D01*
X274057889Y-143270653D01*
X274035926Y-143273911D01*
X274013750Y-143275000D01*
X273486250Y-143275000D01*
X273464074Y-143273911D01*
X273442111Y-143270653D01*
X273420573Y-143265258D01*
X273399668Y-143257778D01*
X273379596Y-143248285D01*
X273360552Y-143236870D01*
X273342719Y-143223644D01*
X273326267Y-143208733D01*
X273311356Y-143192281D01*
X273298130Y-143174448D01*
X273286715Y-143155404D01*
X273277222Y-143135332D01*
X273269742Y-143114427D01*
X273264347Y-143092889D01*
X273261089Y-143070926D01*
X273260000Y-143048750D01*
X273260000Y-142596250D01*
X273261089Y-142574074D01*
X273264347Y-142552111D01*
X273269742Y-142530573D01*
X273277222Y-142509668D01*
X273286715Y-142489596D01*
X273298130Y-142470552D01*
X273311356Y-142452719D01*
X273326267Y-142436267D01*
X273342719Y-142421356D01*
X273360552Y-142408130D01*
X273379596Y-142396715D01*
X273399668Y-142387222D01*
X273420573Y-142379742D01*
X273442111Y-142374347D01*
X273464074Y-142371089D01*
X273486250Y-142370000D01*
X274013750Y-142370000D01*
X274035926Y-142371089D01*
X274035926Y-142371089D01*
G37*
D15*
X273750000Y-142822500D03*
G04 #@! TD*
M02*
