M48
;DRILL file {KiCad (5.0.0)} date 04/04/19 15:00:17
;FORMAT={-:-/ absolute / inch / decimal}
FMAT,2
INCH,TZ
T1C0.0130
T2C0.0394
T3C0.0400
%
G90
G05
M72
T1
X10.5882Y-5.596
X10.59Y-5.339
X10.6327Y-5.5161
X10.7291Y-5.7185
X10.7476Y-5.6756
X10.8102Y-5.0965
X10.8126Y-5.3941
X10.8315Y-5.1567
X10.835Y-5.7051
X10.8878Y-5.6858
X10.8984Y-5.0559
X10.9291Y-5.5827
X10.9425Y-5.5122
X10.9546Y-5.4278
X10.987Y-5.0591
X11.0583Y-5.4
X11.0992Y-5.4682
X11.1543Y-5.0276
X11.1563Y-5.0016
X11.1571Y-5.3366
X11.1626Y-5.424
X11.1957Y-5.2067
X11.2012Y-5.2409
X11.2275Y-5.1744
X11.2496Y-5.4096
X11.2617Y-5.0542
X11.2733Y-5.2916
X11.285Y-5.3449
X11.285Y-5.4551
X11.315Y-4.974
X11.3283Y-5.5051
X11.352Y-5.5567
X11.3976Y-4.976
X11.3984Y-5.5323
X11.4118Y-5.6709
X11.4173Y-5.7091
T2
X11.6531Y-5.5894
X11.6531Y-5.6894
T3
X11.0827Y-5.0008
X11.0827Y-5.1008
X11.511Y-5.587
X11.511Y-5.687
T0
M30
