G04 #@! TF.GenerationSoftware,KiCad,Pcbnew,(5.0.0)*
G04 #@! TF.CreationDate,2019-04-04T15:00:13-04:00*
G04 #@! TF.ProjectId,motion_ppg,6D6F74696F6E5F7070672E6B69636164,rev?*
G04 #@! TF.SameCoordinates,Original*
G04 #@! TF.FileFunction,Copper,L1,Top,Signal*
G04 #@! TF.FilePolarity,Positive*
%FSLAX46Y46*%
G04 Gerber Fmt 4.6, Leading zero omitted, Abs format (unit mm)*
G04 Created by KiCad (PCBNEW (5.0.0)) date 04/04/19 15:00:13*
%MOMM*%
%LPD*%
G01*
G04 APERTURE LIST*
G04 #@! TA.AperFunction,SMDPad,CuDef*
%ADD10R,0.650000X1.060000*%
G04 #@! TD*
G04 #@! TA.AperFunction,SMDPad,CuDef*
%ADD11R,0.599440X0.398780*%
G04 #@! TD*
G04 #@! TA.AperFunction,SMDPad,CuDef*
%ADD12R,0.398780X0.599440*%
G04 #@! TD*
G04 #@! TA.AperFunction,BGAPad,CuDef*
%ADD13C,0.230000*%
G04 #@! TD*
G04 #@! TA.AperFunction,Conductor*
%ADD14C,0.150000*%
G04 #@! TD*
G04 #@! TA.AperFunction,SMDPad,CuDef*
%ADD15C,0.875000*%
G04 #@! TD*
G04 #@! TA.AperFunction,SMDPad,CuDef*
%ADD16R,0.200000X0.500000*%
G04 #@! TD*
G04 #@! TA.AperFunction,SMDPad,CuDef*
%ADD17R,0.200000X0.550000*%
G04 #@! TD*
G04 #@! TA.AperFunction,SMDPad,CuDef*
%ADD18R,0.500000X0.200000*%
G04 #@! TD*
G04 #@! TA.AperFunction,SMDPad,CuDef*
%ADD19R,0.550000X0.200000*%
G04 #@! TD*
G04 #@! TA.AperFunction,SMDPad,CuDef*
%ADD20R,1.540000X1.540000*%
G04 #@! TD*
G04 #@! TA.AperFunction,ComponentPad*
%ADD21R,1.700000X1.700000*%
G04 #@! TD*
G04 #@! TA.AperFunction,ComponentPad*
%ADD22O,1.700000X1.700000*%
G04 #@! TD*
G04 #@! TA.AperFunction,SMDPad,CuDef*
%ADD23R,0.800000X0.800000*%
G04 #@! TD*
G04 #@! TA.AperFunction,SMDPad,CuDef*
%ADD24R,0.300000X0.650000*%
G04 #@! TD*
G04 #@! TA.AperFunction,SMDPad,CuDef*
%ADD25R,1.240000X0.775000*%
G04 #@! TD*
G04 #@! TA.AperFunction,SMDPad,CuDef*
%ADD26R,0.700000X0.300000*%
G04 #@! TD*
G04 #@! TA.AperFunction,SMDPad,CuDef*
%ADD27R,0.600000X0.600000*%
G04 #@! TD*
G04 #@! TA.AperFunction,ComponentPad*
%ADD28R,1.524000X1.524000*%
G04 #@! TD*
G04 #@! TA.AperFunction,ComponentPad*
%ADD29C,1.524000*%
G04 #@! TD*
G04 #@! TA.AperFunction,SMDPad,CuDef*
%ADD30R,0.635000X1.143000*%
G04 #@! TD*
G04 #@! TA.AperFunction,SMDPad,CuDef*
%ADD31R,0.900000X0.800000*%
G04 #@! TD*
G04 #@! TA.AperFunction,SMDPad,CuDef*
%ADD32R,0.800000X1.600000*%
G04 #@! TD*
G04 #@! TA.AperFunction,SMDPad,CuDef*
%ADD33R,0.200000X0.800000*%
G04 #@! TD*
G04 #@! TA.AperFunction,SMDPad,CuDef*
%ADD34R,0.800000X0.200000*%
G04 #@! TD*
G04 #@! TA.AperFunction,SMDPad,CuDef*
%ADD35R,1.112500X1.112500*%
G04 #@! TD*
G04 #@! TA.AperFunction,SMDPad,CuDef*
%ADD36R,0.600000X1.100000*%
G04 #@! TD*
G04 #@! TA.AperFunction,SMDPad,CuDef*
%ADD37R,0.750000X0.300000*%
G04 #@! TD*
G04 #@! TA.AperFunction,SMDPad,CuDef*
%ADD38R,0.875000X0.725000*%
G04 #@! TD*
G04 #@! TA.AperFunction,SMDPad,CuDef*
%ADD39R,0.400000X0.700000*%
G04 #@! TD*
G04 #@! TA.AperFunction,SMDPad,CuDef*
%ADD40R,0.400000X0.250000*%
G04 #@! TD*
G04 #@! TA.AperFunction,ViaPad*
%ADD41C,0.508000*%
G04 #@! TD*
G04 #@! TA.AperFunction,Conductor*
%ADD42C,0.152000*%
G04 #@! TD*
G04 #@! TA.AperFunction,Conductor*
%ADD43C,0.457200*%
G04 #@! TD*
G04 #@! TA.AperFunction,Conductor*
%ADD44C,0.460000*%
G04 #@! TD*
G04 #@! TA.AperFunction,Conductor*
%ADD45C,0.229000*%
G04 #@! TD*
G04 #@! TA.AperFunction,Conductor*
%ADD46C,0.152400*%
G04 #@! TD*
G04 #@! TA.AperFunction,Conductor*
%ADD47C,0.254000*%
G04 #@! TD*
G04 APERTURE END LIST*
D10*
G04 #@! TO.P,U5,5*
G04 #@! TO.N,DVDD*
X283770000Y-136140000D03*
G04 #@! TO.P,U5,4*
G04 #@! TO.N,Net-(R6-Pad2)*
X285670000Y-136140000D03*
G04 #@! TO.P,U5,3*
G04 #@! TO.N,Net-(C10-Pad1)*
X285670000Y-138340000D03*
G04 #@! TO.P,U5,2*
G04 #@! TO.N,DGND*
X284720000Y-138340000D03*
G04 #@! TO.P,U5,1*
G04 #@! TO.N,/ppg_amp_out*
X283770000Y-138340000D03*
G04 #@! TD*
D11*
G04 #@! TO.P,C10,2*
G04 #@! TO.N,Net-(C10-Pad2)*
X290220000Y-135380420D03*
G04 #@! TO.P,C10,1*
G04 #@! TO.N,Net-(C10-Pad1)*
X290220000Y-136279580D03*
G04 #@! TD*
G04 #@! TO.P,C9,1*
G04 #@! TO.N,Net-(C10-Pad2)*
X288580000Y-134239580D03*
G04 #@! TO.P,C9,2*
G04 #@! TO.N,Net-(C7-Pad1)*
X288580000Y-133340420D03*
G04 #@! TD*
D12*
G04 #@! TO.P,C7,2*
G04 #@! TO.N,Net-(C7-Pad2)*
X286590000Y-132700000D03*
G04 #@! TO.P,C7,1*
G04 #@! TO.N,Net-(C7-Pad1)*
X287489160Y-132700000D03*
G04 #@! TD*
G04 #@! TO.P,R8,1*
G04 #@! TO.N,Net-(R6-Pad2)*
X285919160Y-139570000D03*
G04 #@! TO.P,R8,2*
G04 #@! TO.N,/ppg_amp_out*
X285020000Y-139570000D03*
G04 #@! TD*
G04 #@! TO.P,R6,2*
G04 #@! TO.N,Net-(R6-Pad2)*
X287240000Y-135150000D03*
G04 #@! TO.P,R6,1*
G04 #@! TO.N,Net-(C10-Pad2)*
X288139160Y-135150000D03*
G04 #@! TD*
D11*
G04 #@! TO.P,R4,1*
G04 #@! TO.N,DGND*
X287710000Y-138869580D03*
G04 #@! TO.P,R4,2*
G04 #@! TO.N,Net-(C10-Pad1)*
X287710000Y-137970420D03*
G04 #@! TD*
G04 #@! TO.P,R3,2*
G04 #@! TO.N,DVDD*
X287700000Y-136140420D03*
G04 #@! TO.P,R3,1*
G04 #@! TO.N,Net-(C10-Pad1)*
X287700000Y-137039580D03*
G04 #@! TD*
D12*
G04 #@! TO.P,R2,1*
G04 #@! TO.N,DGND*
X286920000Y-133720000D03*
G04 #@! TO.P,R2,2*
G04 #@! TO.N,Net-(C7-Pad2)*
X286020840Y-133720000D03*
G04 #@! TD*
G04 #@! TO.P,C6,1*
G04 #@! TO.N,DVDD*
X284450420Y-134780000D03*
G04 #@! TO.P,C6,2*
G04 #@! TO.N,DGND*
X285349580Y-134780000D03*
G04 #@! TD*
G04 #@! TO.P,R1,2*
G04 #@! TO.N,Net-(IC1-Pad1)*
X286050840Y-131720000D03*
G04 #@! TO.P,R1,1*
G04 #@! TO.N,DGND*
X286950000Y-131720000D03*
G04 #@! TD*
D13*
G04 #@! TO.P,U2,A2*
G04 #@! TO.N,VCC*
X275620000Y-142840000D03*
G04 #@! TO.P,U2,A1*
G04 #@! TO.N,Net-(L2-Pad1)*
X275220000Y-142840000D03*
G04 #@! TO.P,U2,B1*
G04 #@! TO.N,VCC*
X275220000Y-143240000D03*
G04 #@! TO.P,U2,B2*
G04 #@! TO.N,DGND*
X275620000Y-143240000D03*
G04 #@! TO.P,U2,C2*
G04 #@! TO.N,1.8V*
X275620000Y-143640000D03*
G04 #@! TO.P,U2,C1*
G04 #@! TO.N,VCC*
X275220000Y-143640000D03*
G04 #@! TO.P,U2,D1*
G04 #@! TO.N,/LOAD_SW_CTRL*
X275220000Y-144040000D03*
G04 #@! TO.P,U2,D2*
G04 #@! TO.N,Net-(R5-Pad1)*
X275620000Y-144040000D03*
G04 #@! TD*
D11*
G04 #@! TO.P,C5,1*
G04 #@! TO.N,VCC*
X277430000Y-142390000D03*
G04 #@! TO.P,C5,2*
G04 #@! TO.N,DGND*
X277430000Y-143289160D03*
G04 #@! TD*
G04 #@! TO.P,C3,2*
G04 #@! TO.N,DGND*
X276550000Y-143000840D03*
G04 #@! TO.P,C3,1*
G04 #@! TO.N,1.8V*
X276550000Y-143900000D03*
G04 #@! TD*
D14*
G04 #@! TO.N,Net-(L1-Pad1)*
G04 #@! TO.C,L1*
G36*
X267695191Y-138476053D02*
X267716426Y-138479203D01*
X267737250Y-138484419D01*
X267757462Y-138491651D01*
X267776868Y-138500830D01*
X267795281Y-138511866D01*
X267812524Y-138524654D01*
X267828430Y-138539070D01*
X267842846Y-138554976D01*
X267855634Y-138572219D01*
X267866670Y-138590632D01*
X267875849Y-138610038D01*
X267883081Y-138630250D01*
X267888297Y-138651074D01*
X267891447Y-138672309D01*
X267892500Y-138693750D01*
X267892500Y-139206250D01*
X267891447Y-139227691D01*
X267888297Y-139248926D01*
X267883081Y-139269750D01*
X267875849Y-139289962D01*
X267866670Y-139309368D01*
X267855634Y-139327781D01*
X267842846Y-139345024D01*
X267828430Y-139360930D01*
X267812524Y-139375346D01*
X267795281Y-139388134D01*
X267776868Y-139399170D01*
X267757462Y-139408349D01*
X267737250Y-139415581D01*
X267716426Y-139420797D01*
X267695191Y-139423947D01*
X267673750Y-139425000D01*
X267236250Y-139425000D01*
X267214809Y-139423947D01*
X267193574Y-139420797D01*
X267172750Y-139415581D01*
X267152538Y-139408349D01*
X267133132Y-139399170D01*
X267114719Y-139388134D01*
X267097476Y-139375346D01*
X267081570Y-139360930D01*
X267067154Y-139345024D01*
X267054366Y-139327781D01*
X267043330Y-139309368D01*
X267034151Y-139289962D01*
X267026919Y-139269750D01*
X267021703Y-139248926D01*
X267018553Y-139227691D01*
X267017500Y-139206250D01*
X267017500Y-138693750D01*
X267018553Y-138672309D01*
X267021703Y-138651074D01*
X267026919Y-138630250D01*
X267034151Y-138610038D01*
X267043330Y-138590632D01*
X267054366Y-138572219D01*
X267067154Y-138554976D01*
X267081570Y-138539070D01*
X267097476Y-138524654D01*
X267114719Y-138511866D01*
X267133132Y-138500830D01*
X267152538Y-138491651D01*
X267172750Y-138484419D01*
X267193574Y-138479203D01*
X267214809Y-138476053D01*
X267236250Y-138475000D01*
X267673750Y-138475000D01*
X267695191Y-138476053D01*
X267695191Y-138476053D01*
G37*
D15*
G04 #@! TD*
G04 #@! TO.P,L1,1*
G04 #@! TO.N,Net-(L1-Pad1)*
X267455000Y-138950000D03*
D14*
G04 #@! TO.N,Net-(L1-Pad2)*
G04 #@! TO.C,L1*
G36*
X269270191Y-138476053D02*
X269291426Y-138479203D01*
X269312250Y-138484419D01*
X269332462Y-138491651D01*
X269351868Y-138500830D01*
X269370281Y-138511866D01*
X269387524Y-138524654D01*
X269403430Y-138539070D01*
X269417846Y-138554976D01*
X269430634Y-138572219D01*
X269441670Y-138590632D01*
X269450849Y-138610038D01*
X269458081Y-138630250D01*
X269463297Y-138651074D01*
X269466447Y-138672309D01*
X269467500Y-138693750D01*
X269467500Y-139206250D01*
X269466447Y-139227691D01*
X269463297Y-139248926D01*
X269458081Y-139269750D01*
X269450849Y-139289962D01*
X269441670Y-139309368D01*
X269430634Y-139327781D01*
X269417846Y-139345024D01*
X269403430Y-139360930D01*
X269387524Y-139375346D01*
X269370281Y-139388134D01*
X269351868Y-139399170D01*
X269332462Y-139408349D01*
X269312250Y-139415581D01*
X269291426Y-139420797D01*
X269270191Y-139423947D01*
X269248750Y-139425000D01*
X268811250Y-139425000D01*
X268789809Y-139423947D01*
X268768574Y-139420797D01*
X268747750Y-139415581D01*
X268727538Y-139408349D01*
X268708132Y-139399170D01*
X268689719Y-139388134D01*
X268672476Y-139375346D01*
X268656570Y-139360930D01*
X268642154Y-139345024D01*
X268629366Y-139327781D01*
X268618330Y-139309368D01*
X268609151Y-139289962D01*
X268601919Y-139269750D01*
X268596703Y-139248926D01*
X268593553Y-139227691D01*
X268592500Y-139206250D01*
X268592500Y-138693750D01*
X268593553Y-138672309D01*
X268596703Y-138651074D01*
X268601919Y-138630250D01*
X268609151Y-138610038D01*
X268618330Y-138590632D01*
X268629366Y-138572219D01*
X268642154Y-138554976D01*
X268656570Y-138539070D01*
X268672476Y-138524654D01*
X268689719Y-138511866D01*
X268708132Y-138500830D01*
X268727538Y-138491651D01*
X268747750Y-138484419D01*
X268768574Y-138479203D01*
X268789809Y-138476053D01*
X268811250Y-138475000D01*
X269248750Y-138475000D01*
X269270191Y-138476053D01*
X269270191Y-138476053D01*
G37*
D15*
G04 #@! TD*
G04 #@! TO.P,L1,2*
G04 #@! TO.N,Net-(L1-Pad2)*
X269030000Y-138950000D03*
D12*
G04 #@! TO.P,C4,2*
G04 #@! TO.N,DGND*
X289040000Y-128760000D03*
G04 #@! TO.P,C4,1*
G04 #@! TO.N,1.8V*
X288140840Y-128760000D03*
G04 #@! TD*
G04 #@! TO.P,C35,1*
G04 #@! TO.N,DGND*
X289059160Y-127650000D03*
G04 #@! TO.P,C35,2*
G04 #@! TO.N,Net-(C35-Pad2)*
X288160000Y-127650000D03*
G04 #@! TD*
D16*
G04 #@! TO.P,U4,1*
G04 #@! TO.N,Net-(U4-Pad1)*
X284750000Y-129580000D03*
D17*
G04 #@! TO.P,U4,2*
G04 #@! TO.N,Net-(U4-Pad2)*
X285150000Y-129580000D03*
G04 #@! TO.P,U4,3*
G04 #@! TO.N,Net-(U4-Pad3)*
X285550000Y-129580000D03*
G04 #@! TO.P,U4,4*
G04 #@! TO.N,Net-(U4-Pad4)*
X285950000Y-129580000D03*
G04 #@! TO.P,U4,5*
G04 #@! TO.N,Net-(U4-Pad5)*
X286350000Y-129580000D03*
D16*
G04 #@! TO.P,U4,6*
G04 #@! TO.N,Net-(U4-Pad6)*
X286750000Y-129580000D03*
D18*
G04 #@! TO.P,U4,7*
G04 #@! TO.N,Net-(U4-Pad7)*
X287250000Y-129080000D03*
D19*
G04 #@! TO.P,U4,8*
G04 #@! TO.N,1.8V*
X287250000Y-128680000D03*
G04 #@! TO.P,U4,9*
X287250000Y-128280000D03*
G04 #@! TO.P,U4,10*
G04 #@! TO.N,Net-(C35-Pad2)*
X287250000Y-127880000D03*
G04 #@! TO.P,U4,11*
G04 #@! TO.N,Net-(U4-Pad11)*
X287250000Y-127480000D03*
D18*
G04 #@! TO.P,U4,12*
G04 #@! TO.N,Net-(U4-Pad12)*
X287250000Y-127080000D03*
D16*
G04 #@! TO.P,U4,13*
G04 #@! TO.N,1.8V*
X286750000Y-126580000D03*
D17*
G04 #@! TO.P,U4,14*
G04 #@! TO.N,Net-(U4-Pad14)*
X286350000Y-126580000D03*
G04 #@! TO.P,U4,15*
G04 #@! TO.N,Net-(U4-Pad15)*
X285950000Y-126580000D03*
G04 #@! TO.P,U4,16*
G04 #@! TO.N,Net-(U4-Pad16)*
X285550000Y-126580000D03*
G04 #@! TO.P,U4,17*
G04 #@! TO.N,Net-(U4-Pad17)*
X285150000Y-126580000D03*
D16*
G04 #@! TO.P,U4,18*
G04 #@! TO.N,DGND*
X284750000Y-126580000D03*
D18*
G04 #@! TO.P,U4,19*
G04 #@! TO.N,Net-(U4-Pad19)*
X284250000Y-127080000D03*
D19*
G04 #@! TO.P,U4,20*
G04 #@! TO.N,DGND*
X284250000Y-127480000D03*
G04 #@! TO.P,U4,21*
G04 #@! TO.N,Net-(U4-Pad21)*
X284250000Y-127880000D03*
G04 #@! TO.P,U4,22*
G04 #@! TO.N,1.8V*
X284250000Y-128280000D03*
G04 #@! TO.P,U4,23*
G04 #@! TO.N,/SCL*
X284250000Y-128680000D03*
D18*
G04 #@! TO.P,U4,24*
G04 #@! TO.N,/SDI*
X284250000Y-129080000D03*
D20*
G04 #@! TO.P,U4,25*
G04 #@! TO.N,DGND*
X285750000Y-128080000D03*
G04 #@! TD*
D21*
G04 #@! TO.P,P3,1*
G04 #@! TO.N,5V_in_charge*
X295990000Y-144510000D03*
D22*
G04 #@! TO.P,P3,2*
G04 #@! TO.N,DGND*
X295990000Y-141970000D03*
G04 #@! TD*
D12*
G04 #@! TO.P,R5,1*
G04 #@! TO.N,Net-(R5-Pad1)*
X278420420Y-143320000D03*
G04 #@! TO.P,R5,2*
G04 #@! TO.N,/AIN_BAT_DIV_VOLTAGE*
X279319580Y-143320000D03*
G04 #@! TD*
D23*
G04 #@! TO.P,D4,2*
G04 #@! TO.N,5V_in_charge*
X289520000Y-142980000D03*
G04 #@! TO.P,D4,1*
G04 #@! TO.N,VCC*
X289520000Y-141380000D03*
G04 #@! TD*
D12*
G04 #@! TO.P,C18,1*
G04 #@! TO.N,DGND*
X288310420Y-144010000D03*
G04 #@! TO.P,C18,2*
G04 #@! TO.N,VCC*
X289209580Y-144010000D03*
G04 #@! TD*
G04 #@! TO.P,R10,1*
G04 #@! TO.N,5V_in_charge*
X286530420Y-144010000D03*
G04 #@! TO.P,R10,2*
G04 #@! TO.N,DGND*
X287429580Y-144010000D03*
G04 #@! TD*
G04 #@! TO.P,C16,1*
G04 #@! TO.N,5V_in_charge*
X285199580Y-144020000D03*
G04 #@! TO.P,C16,2*
G04 #@! TO.N,DGND*
X284300420Y-144020000D03*
G04 #@! TD*
D11*
G04 #@! TO.P,R9,1*
G04 #@! TO.N,Net-(R9-Pad1)*
X282140000Y-142639580D03*
G04 #@! TO.P,R9,2*
G04 #@! TO.N,DGND*
X282140000Y-141740420D03*
G04 #@! TD*
G04 #@! TO.P,C17,1*
G04 #@! TO.N,/BATT_IN*
X287490000Y-141469580D03*
G04 #@! TO.P,C17,2*
G04 #@! TO.N,DGND*
X287490000Y-140570420D03*
G04 #@! TD*
D23*
G04 #@! TO.P,D3,2*
G04 #@! TO.N,DVDD*
X282240000Y-140050000D03*
G04 #@! TO.P,D3,1*
G04 #@! TO.N,Net-(D3-Pad1)*
X283840000Y-140050000D03*
G04 #@! TD*
D11*
G04 #@! TO.P,C22,1*
G04 #@! TO.N,DVDD*
X281800000Y-137320420D03*
G04 #@! TO.P,C22,2*
G04 #@! TO.N,DGND*
X281800000Y-138219580D03*
G04 #@! TD*
D12*
G04 #@! TO.P,R7,1*
G04 #@! TO.N,DGND*
X278420840Y-142360000D03*
G04 #@! TO.P,R7,2*
G04 #@! TO.N,/AIN_BAT_DIV_VOLTAGE*
X279320000Y-142360000D03*
G04 #@! TD*
D24*
G04 #@! TO.P,U1,1*
G04 #@! TO.N,DVDD*
X269320000Y-140200000D03*
G04 #@! TO.P,U1,2*
G04 #@! TO.N,Net-(L1-Pad2)*
X268820000Y-140200000D03*
G04 #@! TO.P,U1,3*
G04 #@! TO.N,DGND*
X268320000Y-140200000D03*
G04 #@! TO.P,U1,4*
G04 #@! TO.N,Net-(L1-Pad1)*
X267820000Y-140200000D03*
G04 #@! TO.P,U1,5*
G04 #@! TO.N,VCC*
X267320000Y-140200000D03*
G04 #@! TO.P,U1,6*
X267320000Y-143300000D03*
G04 #@! TO.P,U1,7*
X267820000Y-143300000D03*
G04 #@! TO.P,U1,8*
X268320000Y-143300000D03*
G04 #@! TO.P,U1,9*
G04 #@! TO.N,DGND*
X268820000Y-143300000D03*
G04 #@! TO.P,U1,10*
G04 #@! TO.N,DVDD*
X269320000Y-143300000D03*
D25*
G04 #@! TO.P,U1,11*
G04 #@! TO.N,DGND*
X267700000Y-142137500D03*
X268940000Y-142137500D03*
X267700000Y-141362500D03*
X268940000Y-141362500D03*
G04 #@! TD*
D11*
G04 #@! TO.P,C21,1*
G04 #@! TO.N,DGND*
X274070000Y-139049580D03*
G04 #@! TO.P,C21,2*
G04 #@! TO.N,DVDD*
X274070000Y-138150420D03*
G04 #@! TD*
D12*
G04 #@! TO.P,R12,1*
G04 #@! TO.N,1.8V*
X285179580Y-130610000D03*
G04 #@! TO.P,R12,2*
G04 #@! TO.N,/SDI*
X284280420Y-130610000D03*
G04 #@! TD*
D11*
G04 #@! TO.P,R11,1*
G04 #@! TO.N,1.8V*
X283310000Y-128290000D03*
G04 #@! TO.P,R11,2*
G04 #@! TO.N,/SCL*
X283310000Y-129189160D03*
G04 #@! TD*
D12*
G04 #@! TO.P,C36,1*
G04 #@! TO.N,DGND*
X289060000Y-126530000D03*
G04 #@! TO.P,C36,2*
G04 #@! TO.N,1.8V*
X288160840Y-126530000D03*
G04 #@! TD*
D26*
G04 #@! TO.P,F1,1*
G04 #@! TO.N,DGND*
X278326500Y-128500000D03*
D27*
G04 #@! TO.P,F1,2*
G04 #@! TO.N,Net-(F1-Pad2)*
X278000000Y-129112500D03*
G04 #@! TO.P,F1,4*
G04 #@! TO.N,/RF*
X278000000Y-127887500D03*
D26*
G04 #@! TO.P,F1,3*
G04 #@! TO.N,DGND*
X277637500Y-128500000D03*
G04 #@! TD*
D11*
G04 #@! TO.P,C34,1*
G04 #@! TO.N,/DEC3*
X275840000Y-129489580D03*
G04 #@! TO.P,C34,2*
G04 #@! TO.N,DGND*
X275840000Y-128590420D03*
G04 #@! TD*
D12*
G04 #@! TO.P,C33,1*
G04 #@! TO.N,DGND*
X273150420Y-129450000D03*
G04 #@! TO.P,C33,2*
G04 #@! TO.N,DVDD*
X274049580Y-129450000D03*
G04 #@! TD*
D28*
G04 #@! TO.P,P2,1*
G04 #@! TO.N,/SWDCLK*
X281500000Y-129560000D03*
D29*
G04 #@! TO.P,P2,2*
G04 #@! TO.N,/SWDIO*
X281500000Y-127020000D03*
G04 #@! TD*
D23*
G04 #@! TO.P,D2,2*
G04 #@! TO.N,DVDD*
X280490000Y-140050000D03*
G04 #@! TO.P,D2,1*
G04 #@! TO.N,/LED3*
X280490000Y-138450000D03*
G04 #@! TD*
D11*
G04 #@! TO.P,C2,1*
G04 #@! TO.N,DVDD*
X271040000Y-142899580D03*
G04 #@! TO.P,C2,2*
G04 #@! TO.N,DGND*
X271040000Y-142000420D03*
G04 #@! TD*
G04 #@! TO.P,C1,1*
G04 #@! TO.N,VCC*
X272140000Y-142909580D03*
G04 #@! TO.P,C1,2*
G04 #@! TO.N,DGND*
X272140000Y-142010420D03*
G04 #@! TD*
D23*
G04 #@! TO.P,D1,2*
G04 #@! TO.N,DVDD*
X279240000Y-140050000D03*
G04 #@! TO.P,D1,1*
G04 #@! TO.N,/LED2*
X279240000Y-138450000D03*
G04 #@! TD*
D28*
G04 #@! TO.P,P1,1*
G04 #@! TO.N,/BATT_IN*
X292380000Y-144450000D03*
D29*
G04 #@! TO.P,P1,2*
G04 #@! TO.N,DGND*
X292380000Y-141910000D03*
G04 #@! TD*
D30*
G04 #@! TO.P,L4,1*
G04 #@! TO.N,Net-(L4-Pad1)*
X272932000Y-138620000D03*
G04 #@! TO.P,L4,2*
G04 #@! TO.N,Net-(L3-Pad1)*
X271408000Y-138620000D03*
G04 #@! TD*
D31*
G04 #@! TO.P,X1,4*
G04 #@! TO.N,DGND*
X270800000Y-133500000D03*
G04 #@! TO.P,X1,3*
G04 #@! TO.N,Net-(C25-Pad2)*
X272200000Y-133500000D03*
G04 #@! TO.P,X1,1*
G04 #@! TO.N,Net-(C24-Pad2)*
X270800000Y-134600000D03*
G04 #@! TO.P,X1,2*
G04 #@! TO.N,DGND*
X272200000Y-134600000D03*
G04 #@! TD*
D11*
G04 #@! TO.P,C28,1*
G04 #@! TO.N,Net-(C28-Pad1)*
X275450000Y-140100420D03*
G04 #@! TO.P,C28,2*
G04 #@! TO.N,DGND*
X275450000Y-140999580D03*
G04 #@! TD*
D12*
G04 #@! TO.P,C26,1*
G04 #@! TO.N,/DEC1*
X273649580Y-140200000D03*
G04 #@! TO.P,C26,2*
G04 #@! TO.N,DGND*
X272750420Y-140200000D03*
G04 #@! TD*
D11*
G04 #@! TO.P,C24,1*
G04 #@! TO.N,DGND*
X269800000Y-133750420D03*
G04 #@! TO.P,C24,2*
G04 #@! TO.N,Net-(C24-Pad2)*
X269800000Y-134649580D03*
G04 #@! TD*
G04 #@! TO.P,C25,1*
G04 #@! TO.N,DGND*
X273200000Y-134549580D03*
G04 #@! TO.P,C25,2*
G04 #@! TO.N,Net-(C25-Pad2)*
X273200000Y-133650420D03*
G04 #@! TD*
G04 #@! TO.P,C29,1*
G04 #@! TO.N,Net-(C29-Pad1)*
X276850000Y-140100420D03*
G04 #@! TO.P,C29,2*
G04 #@! TO.N,DGND*
X276850000Y-140999580D03*
G04 #@! TD*
D32*
G04 #@! TO.P,A1,1*
G04 #@! TO.N,Net-(A1-Pad1)*
X270745000Y-127673000D03*
G04 #@! TO.P,A1,2*
G04 #@! TO.N,Net-(A1-Pad2)*
X267345000Y-127673000D03*
G04 #@! TD*
D12*
G04 #@! TO.P,L6,1*
G04 #@! TO.N,Net-(C30-Pad2)*
X272849580Y-127700000D03*
G04 #@! TO.P,L6,2*
G04 #@! TO.N,Net-(A1-Pad1)*
X271950420Y-127700000D03*
G04 #@! TD*
D11*
G04 #@! TO.P,L5,1*
G04 #@! TO.N,Net-(C30-Pad2)*
X274000000Y-127650420D03*
G04 #@! TO.P,L5,2*
G04 #@! TO.N,DGND*
X274000000Y-128549580D03*
G04 #@! TD*
D12*
G04 #@! TO.P,C30,1*
G04 #@! TO.N,/RF*
X276049580Y-127700000D03*
G04 #@! TO.P,C30,2*
G04 #@! TO.N,Net-(C30-Pad2)*
X275150420Y-127700000D03*
G04 #@! TD*
G04 #@! TO.P,L3,1*
G04 #@! TO.N,Net-(L3-Pad1)*
X271730420Y-137270000D03*
G04 #@! TO.P,L3,2*
G04 #@! TO.N,Net-(C23-Pad1)*
X272629580Y-137270000D03*
G04 #@! TD*
D30*
G04 #@! TO.P,C23,1*
G04 #@! TO.N,Net-(C23-Pad1)*
X273262000Y-136000000D03*
G04 #@! TO.P,C23,2*
G04 #@! TO.N,DGND*
X271738000Y-136000000D03*
G04 #@! TD*
D33*
G04 #@! TO.P,U3,1*
G04 #@! TO.N,/DEC1*
X275600000Y-137000000D03*
G04 #@! TO.P,U3,2*
G04 #@! TO.N,Net-(C28-Pad1)*
X276000000Y-137000000D03*
G04 #@! TO.P,U3,3*
G04 #@! TO.N,Net-(C29-Pad1)*
X276400000Y-137000000D03*
G04 #@! TO.P,U3,4*
G04 #@! TO.N,Net-(U3-Pad4)*
X276800000Y-137000000D03*
G04 #@! TO.P,U3,5*
G04 #@! TO.N,/LOAD_SW_CTRL*
X277200000Y-137000000D03*
G04 #@! TO.P,U3,6*
G04 #@! TO.N,/AIN_BAT_DIV_VOLTAGE*
X277600000Y-137000000D03*
G04 #@! TO.P,U3,7*
G04 #@! TO.N,/ppg_amp_out*
X278000000Y-137000000D03*
G04 #@! TO.P,U3,8*
G04 #@! TO.N,Net-(U3-Pad8)*
X278400000Y-137000000D03*
G04 #@! TO.P,U3,9*
G04 #@! TO.N,Net-(U3-Pad9)*
X278800000Y-137000000D03*
G04 #@! TO.P,U3,10*
G04 #@! TO.N,Net-(U3-Pad10)*
X279200000Y-137000000D03*
G04 #@! TO.P,U3,11*
G04 #@! TO.N,/LED2*
X279600000Y-137000000D03*
G04 #@! TO.P,U3,12*
G04 #@! TO.N,/LED3*
X280000000Y-137000000D03*
D34*
G04 #@! TO.P,U3,13*
G04 #@! TO.N,DVDD*
X280800000Y-136200000D03*
G04 #@! TO.P,U3,14*
G04 #@! TO.N,/~DRDY*
X280800000Y-135800000D03*
G04 #@! TO.P,U3,15*
G04 #@! TO.N,/DOUT*
X280800000Y-135400000D03*
G04 #@! TO.P,U3,16*
G04 #@! TO.N,/SPI_SCLK*
X280800000Y-135000000D03*
G04 #@! TO.P,U3,17*
G04 #@! TO.N,/DIN*
X280800000Y-134600000D03*
G04 #@! TO.P,U3,18*
G04 #@! TO.N,/SPI_~CS*
X280800000Y-134200000D03*
G04 #@! TO.P,U3,19*
G04 #@! TO.N,/~PWDN/RESET*
X280800000Y-133800000D03*
G04 #@! TO.P,U3,20*
G04 #@! TO.N,Net-(U3-Pad20)*
X280800000Y-133400000D03*
G04 #@! TO.P,U3,21*
G04 #@! TO.N,Net-(U3-Pad21)*
X280800000Y-133000000D03*
G04 #@! TO.P,U3,22*
G04 #@! TO.N,Net-(U3-Pad22)*
X280800000Y-132600000D03*
G04 #@! TO.P,U3,23*
G04 #@! TO.N,/SDI*
X280800000Y-132200000D03*
G04 #@! TO.P,U3,24*
G04 #@! TO.N,/SCL*
X280800000Y-131800000D03*
D33*
G04 #@! TO.P,U3,25*
G04 #@! TO.N,/SWDCLK*
X280000000Y-131000000D03*
G04 #@! TO.P,U3,26*
G04 #@! TO.N,/SWDIO*
X279600000Y-131000000D03*
G04 #@! TO.P,U3,27*
G04 #@! TO.N,Net-(U3-Pad27)*
X279200000Y-131000000D03*
G04 #@! TO.P,U3,28*
G04 #@! TO.N,Net-(U3-Pad28)*
X278800000Y-131000000D03*
G04 #@! TO.P,U3,29*
G04 #@! TO.N,Net-(U3-Pad29)*
X278400000Y-131000000D03*
G04 #@! TO.P,U3,30*
G04 #@! TO.N,Net-(F1-Pad2)*
X278000000Y-131000000D03*
G04 #@! TO.P,U3,31*
G04 #@! TO.N,DGND*
X277600000Y-131000000D03*
G04 #@! TO.P,U3,32*
G04 #@! TO.N,/DEC2*
X277200000Y-131000000D03*
G04 #@! TO.P,U3,33*
G04 #@! TO.N,/DEC3*
X276800000Y-131000000D03*
G04 #@! TO.P,U3,34*
G04 #@! TO.N,Net-(C24-Pad2)*
X276400000Y-131000000D03*
G04 #@! TO.P,U3,35*
G04 #@! TO.N,Net-(C25-Pad2)*
X276000000Y-131000000D03*
G04 #@! TO.P,U3,36*
G04 #@! TO.N,DVDD*
X275600000Y-131000000D03*
D34*
G04 #@! TO.P,U3,37*
G04 #@! TO.N,Net-(U3-Pad37)*
X274800000Y-131800000D03*
G04 #@! TO.P,U3,38*
G04 #@! TO.N,Net-(U3-Pad38)*
X274800000Y-132200000D03*
G04 #@! TO.P,U3,39*
G04 #@! TO.N,Net-(U3-Pad39)*
X274800000Y-132600000D03*
G04 #@! TO.P,U3,40*
G04 #@! TO.N,Net-(U3-Pad40)*
X274800000Y-133000000D03*
G04 #@! TO.P,U3,41*
G04 #@! TO.N,Net-(U3-Pad41)*
X274800000Y-133400000D03*
G04 #@! TO.P,U3,42*
G04 #@! TO.N,Net-(U3-Pad42)*
X274800000Y-133800000D03*
G04 #@! TO.P,U3,43*
G04 #@! TO.N,Net-(U3-Pad43)*
X274800000Y-134200000D03*
G04 #@! TO.P,U3,44*
G04 #@! TO.N,Net-(U3-Pad44)*
X274800000Y-134600000D03*
G04 #@! TO.P,U3,45*
G04 #@! TO.N,DGND*
X274800000Y-135000000D03*
G04 #@! TO.P,U3,46*
G04 #@! TO.N,Net-(C23-Pad1)*
X274800000Y-135400000D03*
G04 #@! TO.P,U3,47*
G04 #@! TO.N,Net-(L4-Pad1)*
X274800000Y-135800000D03*
G04 #@! TO.P,U3,48*
G04 #@! TO.N,DVDD*
X274800000Y-136200000D03*
D35*
G04 #@! TO.P,U3,49*
G04 #@! TO.N,DGND*
X279468750Y-132331250D03*
X278356250Y-132331250D03*
X277243750Y-132331250D03*
X276131250Y-132331250D03*
X279468750Y-133443750D03*
X278356250Y-133443750D03*
X277243750Y-133443750D03*
X276131250Y-133443750D03*
X279468750Y-134556250D03*
X278356250Y-134556250D03*
X277243750Y-134556250D03*
X276131250Y-134556250D03*
X279468750Y-135668750D03*
X278356250Y-135668750D03*
X277243750Y-135668750D03*
X276131250Y-135668750D03*
G04 #@! TD*
D36*
G04 #@! TO.P,X2,1*
G04 #@! TO.N,Net-(C29-Pad1)*
X276850000Y-138850000D03*
G04 #@! TO.P,X2,2*
G04 #@! TO.N,Net-(C28-Pad1)*
X275450000Y-138850000D03*
G04 #@! TD*
D37*
G04 #@! TO.P,U6,1*
G04 #@! TO.N,5V_in_charge*
X286210000Y-142890000D03*
G04 #@! TO.P,U6,2*
X286210000Y-142390000D03*
G04 #@! TO.P,U6,3*
G04 #@! TO.N,/BATT_IN*
X286210000Y-141890000D03*
G04 #@! TO.P,U6,4*
X286210000Y-141390000D03*
G04 #@! TO.P,U6,5*
G04 #@! TO.N,Net-(D3-Pad1)*
X283310000Y-141390000D03*
G04 #@! TO.P,U6,6*
G04 #@! TO.N,DGND*
X283310000Y-141890000D03*
G04 #@! TO.P,U6,7*
G04 #@! TO.N,Net-(U6-Pad7)*
X283310000Y-142390000D03*
G04 #@! TO.P,U6,8*
G04 #@! TO.N,Net-(R9-Pad1)*
X283310000Y-142890000D03*
D38*
G04 #@! TO.P,U6,9*
G04 #@! TO.N,DGND*
X284322500Y-141777500D03*
X284322500Y-142502500D03*
X285197500Y-141777500D03*
X285197500Y-142502500D03*
G04 #@! TD*
D39*
G04 #@! TO.P,Q1,2*
G04 #@! TO.N,/BATT_IN*
X287610000Y-142730000D03*
D40*
G04 #@! TO.P,Q1,1*
G04 #@! TO.N,5V_in_charge*
X288310000Y-142955000D03*
G04 #@! TO.P,Q1,3*
G04 #@! TO.N,VCC*
X288310000Y-142505000D03*
G04 #@! TD*
D14*
G04 #@! TO.N,1.8V*
G04 #@! TO.C,L2*
G36*
X274027691Y-143961053D02*
X274048926Y-143964203D01*
X274069750Y-143969419D01*
X274089962Y-143976651D01*
X274109368Y-143985830D01*
X274127781Y-143996866D01*
X274145024Y-144009654D01*
X274160930Y-144024070D01*
X274175346Y-144039976D01*
X274188134Y-144057219D01*
X274199170Y-144075632D01*
X274208349Y-144095038D01*
X274215581Y-144115250D01*
X274220797Y-144136074D01*
X274223947Y-144157309D01*
X274225000Y-144178750D01*
X274225000Y-144616250D01*
X274223947Y-144637691D01*
X274220797Y-144658926D01*
X274215581Y-144679750D01*
X274208349Y-144699962D01*
X274199170Y-144719368D01*
X274188134Y-144737781D01*
X274175346Y-144755024D01*
X274160930Y-144770930D01*
X274145024Y-144785346D01*
X274127781Y-144798134D01*
X274109368Y-144809170D01*
X274089962Y-144818349D01*
X274069750Y-144825581D01*
X274048926Y-144830797D01*
X274027691Y-144833947D01*
X274006250Y-144835000D01*
X273493750Y-144835000D01*
X273472309Y-144833947D01*
X273451074Y-144830797D01*
X273430250Y-144825581D01*
X273410038Y-144818349D01*
X273390632Y-144809170D01*
X273372219Y-144798134D01*
X273354976Y-144785346D01*
X273339070Y-144770930D01*
X273324654Y-144755024D01*
X273311866Y-144737781D01*
X273300830Y-144719368D01*
X273291651Y-144699962D01*
X273284419Y-144679750D01*
X273279203Y-144658926D01*
X273276053Y-144637691D01*
X273275000Y-144616250D01*
X273275000Y-144178750D01*
X273276053Y-144157309D01*
X273279203Y-144136074D01*
X273284419Y-144115250D01*
X273291651Y-144095038D01*
X273300830Y-144075632D01*
X273311866Y-144057219D01*
X273324654Y-144039976D01*
X273339070Y-144024070D01*
X273354976Y-144009654D01*
X273372219Y-143996866D01*
X273390632Y-143985830D01*
X273410038Y-143976651D01*
X273430250Y-143969419D01*
X273451074Y-143964203D01*
X273472309Y-143961053D01*
X273493750Y-143960000D01*
X274006250Y-143960000D01*
X274027691Y-143961053D01*
X274027691Y-143961053D01*
G37*
D15*
G04 #@! TD*
G04 #@! TO.P,L2,2*
G04 #@! TO.N,1.8V*
X273750000Y-144397500D03*
D14*
G04 #@! TO.N,Net-(L2-Pad1)*
G04 #@! TO.C,L2*
G36*
X274027691Y-142386053D02*
X274048926Y-142389203D01*
X274069750Y-142394419D01*
X274089962Y-142401651D01*
X274109368Y-142410830D01*
X274127781Y-142421866D01*
X274145024Y-142434654D01*
X274160930Y-142449070D01*
X274175346Y-142464976D01*
X274188134Y-142482219D01*
X274199170Y-142500632D01*
X274208349Y-142520038D01*
X274215581Y-142540250D01*
X274220797Y-142561074D01*
X274223947Y-142582309D01*
X274225000Y-142603750D01*
X274225000Y-143041250D01*
X274223947Y-143062691D01*
X274220797Y-143083926D01*
X274215581Y-143104750D01*
X274208349Y-143124962D01*
X274199170Y-143144368D01*
X274188134Y-143162781D01*
X274175346Y-143180024D01*
X274160930Y-143195930D01*
X274145024Y-143210346D01*
X274127781Y-143223134D01*
X274109368Y-143234170D01*
X274089962Y-143243349D01*
X274069750Y-143250581D01*
X274048926Y-143255797D01*
X274027691Y-143258947D01*
X274006250Y-143260000D01*
X273493750Y-143260000D01*
X273472309Y-143258947D01*
X273451074Y-143255797D01*
X273430250Y-143250581D01*
X273410038Y-143243349D01*
X273390632Y-143234170D01*
X273372219Y-143223134D01*
X273354976Y-143210346D01*
X273339070Y-143195930D01*
X273324654Y-143180024D01*
X273311866Y-143162781D01*
X273300830Y-143144368D01*
X273291651Y-143124962D01*
X273284419Y-143104750D01*
X273279203Y-143083926D01*
X273276053Y-143062691D01*
X273275000Y-143041250D01*
X273275000Y-142603750D01*
X273276053Y-142582309D01*
X273279203Y-142561074D01*
X273284419Y-142540250D01*
X273291651Y-142520038D01*
X273300830Y-142500632D01*
X273311866Y-142482219D01*
X273324654Y-142464976D01*
X273339070Y-142449070D01*
X273354976Y-142434654D01*
X273372219Y-142421866D01*
X273390632Y-142410830D01*
X273410038Y-142401651D01*
X273430250Y-142394419D01*
X273451074Y-142389203D01*
X273472309Y-142386053D01*
X273493750Y-142385000D01*
X274006250Y-142385000D01*
X274027691Y-142386053D01*
X274027691Y-142386053D01*
G37*
D15*
G04 #@! TD*
G04 #@! TO.P,L2,1*
G04 #@! TO.N,Net-(L2-Pad1)*
X273750000Y-142822500D03*
D41*
G04 #@! TO.N,DVDD*
X270070000Y-140110000D03*
X280880000Y-137160000D03*
X274640000Y-137010000D03*
X275120000Y-130980000D03*
X274580000Y-129450000D03*
X283390000Y-135550000D03*
G04 #@! TO.N,VCC*
X289520000Y-140520000D03*
X289860000Y-144040000D03*
X277600000Y-141800000D03*
X272520000Y-145250000D03*
G04 #@! TO.N,DGND*
X287740000Y-139830000D03*
X268940000Y-142137500D03*
X279070000Y-128500000D03*
X268986000Y-135610000D03*
X276820000Y-128420000D03*
X283370650Y-127041543D03*
X286046109Y-128376109D03*
X289500000Y-126390000D03*
X281920000Y-138891801D03*
X286342621Y-134407254D03*
X285740000Y-137403598D03*
G04 #@! TO.N,/LOAD_SW_CTRL*
X277940000Y-140010000D03*
X275210000Y-144910000D03*
G04 #@! TO.N,/BATT_IN*
X290000000Y-145010000D03*
X288340000Y-141140000D03*
G04 #@! TO.N,1.8V*
X285179580Y-131429580D03*
X283320000Y-127700000D03*
X287400000Y-126340000D03*
X276550000Y-144420000D03*
X272990000Y-144160000D03*
G04 #@! TO.N,Net-(C7-Pad2)*
X284510000Y-133120000D03*
G04 #@! TO.N,Net-(IC1-Pad1)*
X284370000Y-132250000D03*
G04 #@! TO.N,Net-(R6-Pad2)*
X286640000Y-138560000D03*
X286640000Y-135760000D03*
G04 #@! TO.N,/ppg_amp_out*
X278246086Y-137866086D03*
X283530000Y-137770000D03*
G04 #@! TD*
D42*
G04 #@! TO.N,/DEC1*
X274100000Y-140200000D02*
X273649580Y-140200000D01*
X274730000Y-139570000D02*
X274100000Y-140200000D01*
X274730000Y-138010000D02*
X274730000Y-139570000D01*
X275600000Y-137140000D02*
X274730000Y-138010000D01*
X275600000Y-137000000D02*
X275600000Y-137140000D01*
X275600000Y-137000000D02*
X275550000Y-137000000D01*
D43*
G04 #@! TO.N,/RF*
X276049580Y-127700000D02*
X277800000Y-127700000D01*
X277800000Y-127700000D02*
X278000000Y-127900000D01*
D42*
G04 #@! TO.N,/SWDCLK*
X280000000Y-131000000D02*
X280920000Y-131000000D01*
X281500000Y-130420000D02*
X281500000Y-129560000D01*
X280920000Y-131000000D02*
X281500000Y-130420000D01*
G04 #@! TO.N,/SWDIO*
X279600000Y-131000000D02*
X279600000Y-130480000D01*
X280360000Y-128160000D02*
X281500000Y-127020000D01*
X280360000Y-129720000D02*
X280360000Y-128160000D01*
X279600000Y-130480000D02*
X280360000Y-129720000D01*
D44*
G04 #@! TO.N,Net-(A1-Pad1)*
X271950420Y-127700000D02*
X270772000Y-127700000D01*
X270772000Y-127700000D02*
X270745000Y-127673000D01*
D42*
G04 #@! TO.N,Net-(L3-Pad1)*
X271408000Y-138620000D02*
X271408000Y-137592420D01*
X271408000Y-137592420D02*
X271730420Y-137270000D01*
G04 #@! TO.N,DVDD*
X279240000Y-140050000D02*
X280490000Y-140050000D01*
X281800000Y-137320420D02*
X281040420Y-137320420D01*
X281040420Y-137320420D02*
X280880000Y-137160000D01*
X269320000Y-140200000D02*
X269980000Y-140200000D01*
X269980000Y-140200000D02*
X270070000Y-140110000D01*
X269320000Y-143300000D02*
X270639580Y-143300000D01*
X270639580Y-143300000D02*
X271040000Y-142899580D01*
D45*
X269320000Y-140200000D02*
X269560000Y-140200000D01*
D42*
X269900000Y-142720000D02*
X269320000Y-143300000D01*
X269900000Y-140540000D02*
X269900000Y-142720000D01*
X269560000Y-140200000D02*
X269900000Y-140540000D01*
X280880000Y-137160000D02*
X280880000Y-136970000D01*
X280880000Y-136970000D02*
X280800000Y-136890000D01*
X274070000Y-138150420D02*
X274070000Y-137580000D01*
X274070000Y-137580000D02*
X274640000Y-137010000D01*
X274660000Y-136990000D02*
X274800000Y-136200000D01*
X274640000Y-137010000D02*
X274660000Y-136990000D01*
X274049580Y-129450000D02*
X274580000Y-129450000D01*
X275140000Y-131000000D02*
X275600000Y-131000000D01*
X275120000Y-130980000D02*
X275140000Y-131000000D01*
X280800000Y-136200000D02*
X280800000Y-136890000D01*
X282240000Y-140050000D02*
X281688000Y-140050000D01*
X281133999Y-139993999D02*
X281190000Y-140050000D01*
X281133999Y-137413999D02*
X281133999Y-139993999D01*
X280880000Y-137160000D02*
X281133999Y-137413999D01*
X281688000Y-140050000D02*
X281190000Y-140050000D01*
X281190000Y-140050000D02*
X280490000Y-140050000D01*
X284160000Y-134780000D02*
X283390000Y-135550000D01*
X284450420Y-134780000D02*
X284160000Y-134780000D01*
X283390000Y-135760000D02*
X283770000Y-136140000D01*
X283390000Y-135550000D02*
X283390000Y-135760000D01*
X287599670Y-136140420D02*
X287700000Y-136140420D01*
X286841689Y-136898401D02*
X287599670Y-136140420D01*
X285005401Y-136898401D02*
X286841689Y-136898401D01*
X284247000Y-136140000D02*
X285005401Y-136898401D01*
X283770000Y-136140000D02*
X284247000Y-136140000D01*
G04 #@! TO.N,VCC*
X289520000Y-141380000D02*
X289520000Y-140520000D01*
X289830000Y-144010000D02*
X289209580Y-144010000D01*
X289860000Y-144040000D02*
X289830000Y-144010000D01*
X288310000Y-142505000D02*
X288310000Y-141930000D01*
X288860000Y-141380000D02*
X289520000Y-141380000D01*
X288310000Y-141930000D02*
X288860000Y-141380000D01*
X268320000Y-143300000D02*
X268320000Y-143730000D01*
X268320000Y-143730000D02*
X268670000Y-144080000D01*
X268670000Y-144080000D02*
X270969580Y-144080000D01*
X270969580Y-144080000D02*
X272140000Y-142909580D01*
X267910420Y-143390420D02*
X267820000Y-143300000D01*
X268320000Y-143300000D02*
X267820000Y-143300000D01*
X267320000Y-143300000D02*
X267820000Y-143300000D01*
X267320000Y-140200000D02*
X267320000Y-140240000D01*
X267320000Y-140240000D02*
X266660000Y-140900000D01*
X267100000Y-143300000D02*
X267320000Y-143300000D01*
X266660000Y-142860000D02*
X267100000Y-143300000D01*
X266660000Y-140900000D02*
X266660000Y-142860000D01*
X275220000Y-143240000D02*
X275220000Y-143640000D01*
X272140000Y-142909580D02*
X272140000Y-143260970D01*
X277430000Y-142390000D02*
X277430000Y-141970000D01*
X277430000Y-141970000D02*
X277600000Y-141800000D01*
D43*
X272140000Y-142909580D02*
X272140000Y-144870000D01*
X272140000Y-144870000D02*
X272520000Y-145250000D01*
D42*
X276070000Y-142390000D02*
X277430000Y-142390000D01*
X275620000Y-142840000D02*
X276070000Y-142390000D01*
X275057366Y-143640000D02*
X275220000Y-143640000D01*
X273183954Y-143640000D02*
X275057366Y-143640000D01*
X272453534Y-142909580D02*
X273183954Y-143640000D01*
X272140000Y-142909580D02*
X272453534Y-142909580D01*
D44*
G04 #@! TO.N,Net-(C30-Pad2)*
X274000000Y-127699580D02*
X272850000Y-127699580D01*
X272850000Y-127699580D02*
X272849580Y-127700000D01*
X275150420Y-127700000D02*
X274000420Y-127700000D01*
X274000420Y-127700000D02*
X274000000Y-127699580D01*
D42*
G04 #@! TO.N,Net-(L1-Pad1)*
X267820000Y-139315000D02*
X267455000Y-138950000D01*
X267820000Y-140200000D02*
X267820000Y-139315000D01*
G04 #@! TO.N,/LED2*
X279600000Y-137000000D02*
X279600000Y-138090000D01*
X279600000Y-138090000D02*
X279240000Y-138450000D01*
G04 #@! TO.N,/LED3*
X280000000Y-137000000D02*
X280000000Y-137960000D01*
X280000000Y-137960000D02*
X280490000Y-138450000D01*
G04 #@! TO.N,Net-(C23-Pad1)*
X272629580Y-137270000D02*
X272629580Y-136632420D01*
X272629580Y-136632420D02*
X273262000Y-136000000D01*
X273262000Y-136000000D02*
X273350000Y-136000000D01*
X273350000Y-136000000D02*
X273950000Y-135400000D01*
X273950000Y-135400000D02*
X274800000Y-135400000D01*
G04 #@! TO.N,Net-(C24-Pad2)*
X275000000Y-130040000D02*
X274720163Y-130049375D01*
X274720163Y-130049375D02*
X272760000Y-132040000D01*
X272760000Y-132040000D02*
X272770000Y-132030000D01*
X272770000Y-132030000D02*
X272770000Y-132830000D01*
X272770000Y-132830000D02*
X271600000Y-132830000D01*
X271600000Y-132830000D02*
X271490000Y-132940000D01*
X271490000Y-132940000D02*
X271490000Y-134310000D01*
X271490000Y-134310000D02*
X271200000Y-134600000D01*
X276400000Y-131000000D02*
X276400000Y-130330490D01*
X275395598Y-130045598D02*
X275000000Y-130040000D01*
X276115108Y-130045598D02*
X275395598Y-130045598D01*
X276400000Y-130330490D02*
X276115108Y-130045598D01*
X271200000Y-134600000D02*
X270800000Y-134600000D01*
X269800000Y-134649580D02*
X270750420Y-134649580D01*
X270800000Y-134600000D02*
X270950000Y-134600000D01*
X270750420Y-134649580D02*
X270800000Y-134600000D01*
D46*
X271050000Y-134650000D02*
X270800000Y-134650000D01*
X270799580Y-134649580D02*
X270800000Y-134650000D01*
D42*
G04 #@! TO.N,Net-(C25-Pad2)*
X276000000Y-131000000D02*
X276000000Y-130450000D01*
X276000000Y-130450000D02*
X275900000Y-130350000D01*
X275900000Y-130350000D02*
X274900000Y-130350000D01*
X274900000Y-130350000D02*
X273200000Y-132050000D01*
X273200000Y-132050000D02*
X273200000Y-133650420D01*
X272200000Y-133500000D02*
X273049580Y-133500000D01*
X273049580Y-133500000D02*
X273200000Y-133650420D01*
G04 #@! TO.N,Net-(C28-Pad1)*
X275450000Y-140100420D02*
X275450000Y-138850000D01*
X275450000Y-138850000D02*
X276000000Y-138300000D01*
X276000000Y-138300000D02*
X276000000Y-137000000D01*
G04 #@! TO.N,Net-(C29-Pad1)*
X276850000Y-140100420D02*
X276850000Y-138850000D01*
X276400000Y-137000000D02*
X276400000Y-138400000D01*
X276400000Y-138400000D02*
X276850000Y-138850000D01*
G04 #@! TO.N,Net-(L4-Pad1)*
X274800000Y-135800000D02*
X274240000Y-135800000D01*
X273200000Y-137640000D02*
X273200000Y-138352000D01*
X273840000Y-137000000D02*
X273200000Y-137640000D01*
X273840000Y-136200000D02*
X273840000Y-137000000D01*
X274240000Y-135800000D02*
X273840000Y-136200000D01*
X273200000Y-138352000D02*
X272932000Y-138620000D01*
D45*
G04 #@! TO.N,Net-(F1-Pad2)*
X278000000Y-129100000D02*
X278000000Y-131000000D01*
D42*
G04 #@! TO.N,/DEC3*
X276800000Y-131000000D02*
X276800000Y-129850000D01*
X276439580Y-129489580D02*
X275840000Y-129489580D01*
X276800000Y-129850000D02*
X276439580Y-129489580D01*
G04 #@! TO.N,/SDI*
X284250000Y-129080000D02*
X284250000Y-130579580D01*
X284250000Y-130579580D02*
X284280420Y-130610000D01*
X280800000Y-132200000D02*
X283200000Y-132200000D01*
X284280420Y-131119580D02*
X284280420Y-130610000D01*
X283200000Y-132200000D02*
X284280420Y-131119580D01*
G04 #@! TO.N,/SCL*
X280900000Y-131800000D02*
X280950000Y-131800000D01*
D46*
X280900000Y-131800000D02*
X281100000Y-131800000D01*
D42*
X280800000Y-131800000D02*
X282600000Y-131800000D01*
X283310000Y-131090000D02*
X283310000Y-129189160D01*
X282600000Y-131800000D02*
X283310000Y-131090000D01*
X283819160Y-128680000D02*
X284250000Y-128680000D01*
X283310000Y-129189160D02*
X283819160Y-128680000D01*
G04 #@! TO.N,DGND*
X287490000Y-140570420D02*
X287490000Y-140080000D01*
X287490000Y-140080000D02*
X287740000Y-139830000D01*
X284300420Y-144020000D02*
X284300420Y-144370420D01*
X287429580Y-144420420D02*
X287429580Y-144010000D01*
X287180000Y-144670000D02*
X287429580Y-144420420D01*
X284600000Y-144670000D02*
X287180000Y-144670000D01*
X284300420Y-144370420D02*
X284600000Y-144670000D01*
X285197500Y-141777500D02*
X285197500Y-141042500D01*
X285669580Y-140570420D02*
X287490000Y-140570420D01*
X285197500Y-141042500D02*
X285669580Y-140570420D01*
X283310000Y-141890000D02*
X284210000Y-141890000D01*
X284210000Y-141890000D02*
X284322500Y-141777500D01*
X284322500Y-141777500D02*
X284322500Y-142502500D01*
X285197500Y-142502500D02*
X284322500Y-142502500D01*
X284322500Y-141777500D02*
X285197500Y-141777500D01*
X295990000Y-141970000D02*
X292440000Y-141970000D01*
X292440000Y-141970000D02*
X292380000Y-141910000D01*
X288310420Y-144010000D02*
X287429580Y-144010000D01*
X284300420Y-144020000D02*
X284300420Y-142524580D01*
X284300420Y-142524580D02*
X284322500Y-142502500D01*
X282140000Y-141740420D02*
X282440420Y-141740420D01*
X282440420Y-141740420D02*
X282590000Y-141890000D01*
X282590000Y-141890000D02*
X283310000Y-141890000D01*
X275840000Y-128590420D02*
X274800840Y-128590420D01*
X274800840Y-128590420D02*
X274760000Y-128549580D01*
X276820000Y-128420000D02*
X276010420Y-128420000D01*
X276010420Y-128420000D02*
X275840000Y-128590420D01*
X275909580Y-128800000D02*
X275729580Y-128620000D01*
X272140000Y-142010420D02*
X271050000Y-142010420D01*
X271050000Y-142010420D02*
X271040000Y-142000420D01*
X271040000Y-142000420D02*
X271040000Y-141910420D01*
X271040000Y-141910420D02*
X272750420Y-140200000D01*
X268820000Y-143300000D02*
X268820000Y-142257500D01*
X268820000Y-142257500D02*
X268940000Y-142137500D01*
X268809580Y-143310420D02*
X268820000Y-143300000D01*
X268940000Y-142137500D02*
X267700000Y-142137500D01*
X267700000Y-141362500D02*
X267700000Y-142137500D01*
X268940000Y-141362500D02*
X267700000Y-141362500D01*
X268320000Y-140200000D02*
X268320000Y-140742500D01*
X268320000Y-140742500D02*
X268940000Y-141362500D01*
X278326500Y-128500000D02*
X279070000Y-128500000D01*
D45*
X275450000Y-140999580D02*
X272999580Y-140999580D01*
X272750420Y-140750420D02*
X272750420Y-140200000D01*
X272999580Y-140999580D02*
X272750420Y-140750420D01*
D43*
X270230000Y-137508000D02*
X271738000Y-136000000D01*
X270230000Y-139280000D02*
X270230000Y-137508000D01*
D42*
X284750000Y-126580000D02*
X284750000Y-127040000D01*
X285250000Y-127540000D02*
X285720000Y-127540000D01*
X284750000Y-127040000D02*
X285250000Y-127540000D01*
X272750420Y-140200000D02*
X272750420Y-139709580D01*
X272750420Y-139709580D02*
X272950000Y-139510000D01*
X272950000Y-139510000D02*
X273609580Y-139510000D01*
X273609580Y-139510000D02*
X274070000Y-139049580D01*
D43*
X274000000Y-128549580D02*
X274760000Y-128549580D01*
X274760000Y-128549580D02*
X274830420Y-128620000D01*
D42*
X276900000Y-128500000D02*
X276820000Y-128420000D01*
X277637500Y-128500000D02*
X276900000Y-128500000D01*
X277637500Y-128500000D02*
X278326500Y-128500000D01*
X272750420Y-140200000D02*
X272750420Y-140375840D01*
D43*
X273150420Y-129450000D02*
X273150420Y-128799580D01*
X273400420Y-128549580D02*
X274000000Y-128549580D01*
X273150420Y-128799580D02*
X273400420Y-128549580D01*
X271150000Y-140200000D02*
X272750420Y-140200000D01*
X270230000Y-139280000D02*
X271150000Y-140200000D01*
D42*
X273200000Y-134549580D02*
X273449580Y-134549580D01*
X273449580Y-134549580D02*
X273900000Y-135000000D01*
X273900000Y-135000000D02*
X274800000Y-135000000D01*
X277600000Y-131000000D02*
X277600000Y-129700000D01*
X277350000Y-129450000D02*
X277350000Y-128500000D01*
X277600000Y-129700000D02*
X277350000Y-129450000D01*
X278356250Y-132331250D02*
X278356250Y-133443750D01*
X277243750Y-135668750D02*
X276131250Y-135668750D01*
X278356250Y-135668750D02*
X277243750Y-135668750D01*
X279468750Y-135668750D02*
X278356250Y-135668750D01*
X279468750Y-134556250D02*
X279468750Y-135668750D01*
X278356250Y-134556250D02*
X279468750Y-134556250D01*
X277243750Y-134556250D02*
X278356250Y-134556250D01*
X276131250Y-134556250D02*
X277243750Y-134556250D01*
X276131250Y-133443750D02*
X276131250Y-134556250D01*
X277243750Y-133443750D02*
X276131250Y-133443750D01*
X278356250Y-133443750D02*
X277243750Y-133443750D01*
X279468750Y-132331250D02*
X279468750Y-133443750D01*
X278356250Y-132331250D02*
X279468750Y-132331250D01*
X277243750Y-132331250D02*
X278356250Y-132331250D01*
X276131250Y-132331250D02*
X277243750Y-132331250D01*
X274800000Y-135000000D02*
X275687500Y-135000000D01*
X275687500Y-135000000D02*
X276131250Y-134556250D01*
X277600000Y-131000000D02*
X277600000Y-131975000D01*
X277600000Y-131975000D02*
X277243750Y-132331250D01*
D43*
X275450000Y-140999580D02*
X276100000Y-140999580D01*
X276100000Y-140999580D02*
X276850000Y-140999580D01*
D42*
X270800000Y-133500000D02*
X270050420Y-133500000D01*
X270050420Y-133500000D02*
X269800000Y-133750420D01*
X273200000Y-134549580D02*
X272250420Y-134549580D01*
X272250420Y-134549580D02*
X272200000Y-134600000D01*
X269800000Y-133750420D02*
X269093580Y-133750420D01*
X269093580Y-133750420D02*
X268986000Y-133858000D01*
X268986000Y-133858000D02*
X268986000Y-135610000D01*
X268986000Y-135610000D02*
X268986000Y-135636000D01*
X268986000Y-135636000D02*
X272034000Y-135636000D01*
X272034000Y-135636000D02*
X272200000Y-135470000D01*
X272200000Y-135470000D02*
X272200000Y-134650000D01*
D46*
X272300420Y-134549580D02*
X272200000Y-134650000D01*
D42*
X285277000Y-128080000D02*
X285750000Y-128080000D01*
X284677000Y-127480000D02*
X285277000Y-128080000D01*
X284250000Y-127480000D02*
X284677000Y-127480000D01*
X284250000Y-127480000D02*
X283809107Y-127480000D01*
X283809107Y-127480000D02*
X283370650Y-127041543D01*
D45*
X289060000Y-127649160D02*
X289059160Y-127650000D01*
X289060000Y-126530000D02*
X289060000Y-127649160D01*
D42*
X285750000Y-128080000D02*
X286046109Y-128376109D01*
X289200000Y-126390000D02*
X289060000Y-126530000D01*
X289500000Y-126390000D02*
X289200000Y-126390000D01*
X289040000Y-127669160D02*
X289059160Y-127650000D01*
X289040000Y-128760000D02*
X289040000Y-127669160D01*
X277141680Y-143000840D02*
X277430000Y-143289160D01*
X276550000Y-143000840D02*
X277141680Y-143000840D01*
X276310840Y-143240000D02*
X276550000Y-143000840D01*
X275620000Y-143240000D02*
X276310840Y-143240000D01*
X277491680Y-143289160D02*
X278420840Y-142360000D01*
X277430000Y-143289160D02*
X277491680Y-143289160D01*
X278420840Y-141908280D02*
X278420840Y-142360000D01*
X278420840Y-141906886D02*
X278420840Y-141908280D01*
X277513534Y-140999580D02*
X278420840Y-141906886D01*
X276850000Y-140999580D02*
X277513534Y-140999580D01*
X281800000Y-138219580D02*
X281800000Y-138771801D01*
X281800000Y-138771801D02*
X281920000Y-138891801D01*
X287740000Y-138899580D02*
X287710000Y-138869580D01*
X287740000Y-139830000D02*
X287740000Y-138899580D01*
X286920000Y-133268280D02*
X286920000Y-133720000D01*
X287061369Y-133126911D02*
X286920000Y-133268280D01*
X287061369Y-132283089D02*
X287061369Y-133126911D01*
X286950000Y-132171720D02*
X287061369Y-132283089D01*
X286950000Y-131720000D02*
X286950000Y-132171720D01*
X286920000Y-133820330D02*
X286920000Y-133720000D01*
X285349580Y-134780000D02*
X285960330Y-134780000D01*
X286340330Y-134404963D02*
X286342621Y-134407254D01*
X286340330Y-134400000D02*
X286340330Y-134404963D01*
X286340330Y-134400000D02*
X286920000Y-133820330D01*
X285960330Y-134780000D02*
X286340330Y-134400000D01*
X284720000Y-137658000D02*
X284720000Y-138340000D01*
X284974402Y-137403598D02*
X284720000Y-137658000D01*
X285740000Y-137403598D02*
X284974402Y-137403598D01*
G04 #@! TO.N,Net-(L1-Pad2)*
X268820000Y-139160000D02*
X269030000Y-138950000D01*
X268820000Y-140200000D02*
X268820000Y-139160000D01*
G04 #@! TO.N,/AIN_BAT_DIV_VOLTAGE*
X279319580Y-142360420D02*
X279320000Y-142360000D01*
X279319580Y-143320000D02*
X279319580Y-142360420D01*
X279320000Y-142259670D02*
X279320000Y-142360000D01*
X278480420Y-141420090D02*
X279320000Y-142259670D01*
X278480420Y-138788798D02*
X278480420Y-141420090D01*
X277600000Y-137908378D02*
X278480420Y-138788798D01*
X277600000Y-137000000D02*
X277600000Y-137908378D01*
G04 #@! TO.N,/LOAD_SW_CTRL*
X275210000Y-144050000D02*
X275220000Y-144040000D01*
X275210000Y-144910000D02*
X275210000Y-144050000D01*
X277940000Y-139650790D02*
X277940000Y-140010000D01*
X277940000Y-138678878D02*
X277940000Y-139650790D01*
X277200000Y-137938878D02*
X277940000Y-138678878D01*
X277200000Y-137000000D02*
X277200000Y-137938878D01*
G04 #@! TO.N,5V_in_charge*
X288310000Y-142955000D02*
X289495000Y-142955000D01*
X289495000Y-142955000D02*
X289520000Y-142980000D01*
X286530420Y-144010000D02*
X286530420Y-143719580D01*
X286530420Y-143719580D02*
X286880000Y-143370000D01*
X287895000Y-143370000D02*
X288310000Y-142955000D01*
X286880000Y-143370000D02*
X287895000Y-143370000D01*
X289520000Y-142980000D02*
X291740000Y-142980000D01*
X294720000Y-143240000D02*
X295990000Y-144510000D01*
X292000000Y-143240000D02*
X294720000Y-143240000D01*
X291740000Y-142980000D02*
X292000000Y-143240000D01*
X285199580Y-144020000D02*
X286520420Y-144020000D01*
X286520420Y-144020000D02*
X286530420Y-144010000D01*
X286530420Y-144010000D02*
X286530420Y-143210420D01*
X286530420Y-143210420D02*
X286210000Y-142890000D01*
X286210000Y-142390000D02*
X286210000Y-142890000D01*
G04 #@! TO.N,Net-(D3-Pad1)*
X283310000Y-141390000D02*
X283310000Y-141240000D01*
X283310000Y-141240000D02*
X283840000Y-140710000D01*
X283840000Y-140710000D02*
X283840000Y-140050000D01*
G04 #@! TO.N,Net-(R9-Pad1)*
X283310000Y-142890000D02*
X282390420Y-142890000D01*
X282390420Y-142890000D02*
X282140000Y-142639580D01*
G04 #@! TO.N,/BATT_IN*
X287490000Y-141469580D02*
X288010420Y-141469580D01*
X290930000Y-144450000D02*
X290000000Y-145010000D01*
X290930000Y-144450000D02*
X292380000Y-144450000D01*
X288010420Y-141469580D02*
X288340000Y-141140000D01*
X287490000Y-141469580D02*
X287490000Y-142610000D01*
X286210000Y-141890000D02*
X286210000Y-141390000D01*
X286210000Y-141390000D02*
X287410420Y-141390000D01*
X287410420Y-141390000D02*
X287490000Y-141469580D01*
X287490000Y-142610000D02*
X287610000Y-142730000D01*
G04 #@! TO.N,Net-(C35-Pad2)*
X287930000Y-127880000D02*
X288160000Y-127650000D01*
X287250000Y-127880000D02*
X287930000Y-127880000D01*
G04 #@! TO.N,Net-(R5-Pad1)*
X278420420Y-143420330D02*
X278420420Y-143320000D01*
X276938349Y-144902401D02*
X278420420Y-143420330D01*
X276319767Y-144902401D02*
X276938349Y-144902401D01*
X275620000Y-144202634D02*
X276319767Y-144902401D01*
X275620000Y-144040000D02*
X275620000Y-144202634D01*
G04 #@! TO.N,1.8V*
X285179580Y-131370000D02*
X285179580Y-131429580D01*
X285179580Y-130610000D02*
X285179580Y-131370000D01*
X284240000Y-128290000D02*
X284250000Y-128280000D01*
X283310000Y-128290000D02*
X284240000Y-128290000D01*
X283310000Y-128290000D02*
X283310000Y-127710000D01*
X283310000Y-127710000D02*
X283320000Y-127700000D01*
X288110840Y-126580000D02*
X288160840Y-126530000D01*
X287410000Y-126350000D02*
X287410000Y-126580000D01*
X287400000Y-126340000D02*
X287410000Y-126350000D01*
X286750000Y-126580000D02*
X287410000Y-126580000D01*
X287410000Y-126580000D02*
X288110840Y-126580000D01*
X287789450Y-128760000D02*
X288140840Y-128760000D01*
X287499450Y-128470000D02*
X287789450Y-128760000D01*
X287250000Y-128470000D02*
X287499450Y-128470000D01*
X287250000Y-128470000D02*
X287250000Y-128680000D01*
X287250000Y-128280000D02*
X287250000Y-128470000D01*
X288140840Y-129211720D02*
X288140840Y-128760000D01*
X286742560Y-130610000D02*
X288140840Y-129211720D01*
X285179580Y-130610000D02*
X286742560Y-130610000D01*
X275620000Y-143640000D02*
X276290000Y-143640000D01*
X276290000Y-143640000D02*
X276285741Y-143722400D01*
X276285741Y-143722400D02*
X276550000Y-143900000D01*
X276550000Y-143900000D02*
X276550000Y-144420000D01*
X273512500Y-144160000D02*
X273750000Y-144397500D01*
X272990000Y-144160000D02*
X273512500Y-144160000D01*
G04 #@! TO.N,Net-(L2-Pad1)*
X275202500Y-142822500D02*
X275220000Y-142840000D01*
X273750000Y-142822500D02*
X275202500Y-142822500D01*
G04 #@! TO.N,Net-(C7-Pad2)*
X286020840Y-133619670D02*
X286020840Y-133720000D01*
X285521170Y-133120000D02*
X286020840Y-133619670D01*
X284510000Y-133120000D02*
X285521170Y-133120000D01*
X286590000Y-133150840D02*
X286020840Y-133720000D01*
X286590000Y-132700000D02*
X286590000Y-133150840D01*
G04 #@! TO.N,Net-(C7-Pad1)*
X288580000Y-132989030D02*
X288580000Y-133340420D01*
X288290970Y-132700000D02*
X288580000Y-132989030D01*
X287489160Y-132700000D02*
X288290970Y-132700000D01*
G04 #@! TO.N,Net-(C10-Pad2)*
X288580000Y-134590970D02*
X288580000Y-134239580D01*
X289369450Y-135380420D02*
X288580000Y-134590970D01*
X290220000Y-135380420D02*
X289369450Y-135380420D01*
X288139160Y-134680420D02*
X288580000Y-134239580D01*
X288139160Y-135150000D02*
X288139160Y-134680420D01*
G04 #@! TO.N,Net-(C10-Pad1)*
X287700000Y-137960420D02*
X287710000Y-137970420D01*
X287700000Y-137039580D02*
X287700000Y-137960420D01*
X287609580Y-137870000D02*
X287710000Y-137970420D01*
X290220000Y-136630970D02*
X290220000Y-136279580D01*
X289811390Y-137039580D02*
X290220000Y-136630970D01*
X287700000Y-137039580D02*
X289811390Y-137039580D01*
X286039580Y-137970420D02*
X285670000Y-138340000D01*
X287710000Y-137970420D02*
X286039580Y-137970420D01*
G04 #@! TO.N,Net-(IC1-Pad1)*
X284380000Y-132240000D02*
X284370000Y-132250000D01*
X286050840Y-131820330D02*
X286050840Y-131720000D01*
X285621170Y-132250000D02*
X286050840Y-131820330D01*
X284370000Y-132250000D02*
X285621170Y-132250000D01*
G04 #@! TO.N,Net-(R6-Pad2)*
X287240000Y-135250330D02*
X287240000Y-135150000D01*
X285670000Y-136140000D02*
X286350330Y-136140000D01*
X285919160Y-139469670D02*
X285919160Y-139570000D01*
X286640000Y-138849160D02*
X285919160Y-139570000D01*
X286640000Y-138560000D02*
X286640000Y-138849160D01*
X286730330Y-135760000D02*
X286640000Y-135760000D01*
X286730330Y-135760000D02*
X287240000Y-135250330D01*
X286350330Y-136140000D02*
X286730330Y-135760000D01*
G04 #@! TO.N,/ppg_amp_out*
X278000000Y-137000000D02*
X278000000Y-137620000D01*
X278000000Y-137620000D02*
X278246086Y-137866086D01*
X284668610Y-139570000D02*
X285020000Y-139570000D01*
X283770000Y-138671390D02*
X284668610Y-139570000D01*
X283770000Y-138340000D02*
X283770000Y-138671390D01*
X283530000Y-138100000D02*
X283770000Y-138340000D01*
X283530000Y-137770000D02*
X283530000Y-138100000D01*
G04 #@! TD*
D47*
G04 #@! TO.N,DGND*
G36*
X281382191Y-140907809D02*
X281507513Y-140991547D01*
X281480581Y-141002703D01*
X281301953Y-141181332D01*
X281205280Y-141414721D01*
X281205280Y-141481975D01*
X281364030Y-141640725D01*
X282013000Y-141640725D01*
X282013000Y-141593420D01*
X282267000Y-141593420D01*
X282267000Y-141640725D01*
X282287000Y-141640725D01*
X282287000Y-141792750D01*
X281840280Y-141792750D01*
X281602158Y-141840115D01*
X281364030Y-141840115D01*
X281205280Y-141998865D01*
X281205280Y-142066119D01*
X281251676Y-142178128D01*
X281242123Y-142192425D01*
X281192840Y-142440190D01*
X281192840Y-142838970D01*
X281242123Y-143086735D01*
X281382471Y-143296779D01*
X281592515Y-143437127D01*
X281840280Y-143486410D01*
X282003245Y-143486410D01*
X282113002Y-143559747D01*
X282320394Y-143601000D01*
X282320399Y-143601000D01*
X282390419Y-143614928D01*
X282460440Y-143601000D01*
X282631626Y-143601000D01*
X282687235Y-143638157D01*
X282935000Y-143687440D01*
X283466030Y-143687440D01*
X283466030Y-143734250D01*
X283624780Y-143893000D01*
X284200725Y-143893000D01*
X284200725Y-143873000D01*
X284352750Y-143873000D01*
X284352750Y-144319720D01*
X284400115Y-144557842D01*
X284400115Y-144795970D01*
X284558865Y-144954720D01*
X284626119Y-144954720D01*
X284738128Y-144908324D01*
X284752425Y-144917877D01*
X285000190Y-144967160D01*
X285398970Y-144967160D01*
X285646735Y-144917877D01*
X285856779Y-144777529D01*
X285868341Y-144760225D01*
X285873221Y-144767529D01*
X286083265Y-144907877D01*
X286331030Y-144957160D01*
X286729810Y-144957160D01*
X286977575Y-144907877D01*
X286991872Y-144898324D01*
X287103881Y-144944720D01*
X287171135Y-144944720D01*
X287329885Y-144785970D01*
X287329885Y-144547842D01*
X287377250Y-144309720D01*
X287377250Y-144081000D01*
X287476030Y-144081000D01*
X287476030Y-144137002D01*
X287529275Y-144137002D01*
X287529275Y-144242505D01*
X287476030Y-144295750D01*
X287476030Y-144436030D01*
X287529275Y-144564575D01*
X287529275Y-144785970D01*
X287688025Y-144944720D01*
X287755279Y-144944720D01*
X287870000Y-144897201D01*
X287984721Y-144944720D01*
X288051975Y-144944720D01*
X288210725Y-144785970D01*
X288210725Y-144564575D01*
X288263970Y-144436030D01*
X288263970Y-144295750D01*
X288210725Y-144242505D01*
X288210725Y-144137000D01*
X288163420Y-144137000D01*
X288163420Y-144041537D01*
X288172418Y-144039747D01*
X288362750Y-143912571D01*
X288362750Y-144309720D01*
X288410115Y-144547842D01*
X288410115Y-144785970D01*
X288568865Y-144944720D01*
X288636119Y-144944720D01*
X288748128Y-144898324D01*
X288762425Y-144907877D01*
X289010190Y-144957160D01*
X289111000Y-144957160D01*
X289111000Y-145186833D01*
X289155804Y-145295000D01*
X277551255Y-145295000D01*
X278540505Y-144305750D01*
X283466030Y-144305750D01*
X283466030Y-144446030D01*
X283562703Y-144679419D01*
X283741332Y-144858047D01*
X283974721Y-144954720D01*
X284041975Y-144954720D01*
X284200725Y-144795970D01*
X284200725Y-144147000D01*
X283624780Y-144147000D01*
X283466030Y-144305750D01*
X278540505Y-144305750D01*
X278579095Y-144267160D01*
X278619810Y-144267160D01*
X278867575Y-144217877D01*
X278870000Y-144216257D01*
X278872425Y-144217877D01*
X279120190Y-144267160D01*
X279518970Y-144267160D01*
X279766735Y-144217877D01*
X279976779Y-144077529D01*
X280117127Y-143867485D01*
X280166410Y-143619720D01*
X280166410Y-143020280D01*
X280130760Y-142841056D01*
X280166830Y-142659720D01*
X280166830Y-142060280D01*
X280117547Y-141812515D01*
X279977199Y-141602471D01*
X279767155Y-141462123D01*
X279519390Y-141412840D01*
X279478676Y-141412840D01*
X279191420Y-141125585D01*
X279191420Y-141097440D01*
X279640000Y-141097440D01*
X279865000Y-141052685D01*
X280090000Y-141097440D01*
X280890000Y-141097440D01*
X281137765Y-141048157D01*
X281347809Y-140907809D01*
X281365000Y-140882081D01*
X281382191Y-140907809D01*
X281382191Y-140907809D01*
G37*
X281382191Y-140907809D02*
X281507513Y-140991547D01*
X281480581Y-141002703D01*
X281301953Y-141181332D01*
X281205280Y-141414721D01*
X281205280Y-141481975D01*
X281364030Y-141640725D01*
X282013000Y-141640725D01*
X282013000Y-141593420D01*
X282267000Y-141593420D01*
X282267000Y-141640725D01*
X282287000Y-141640725D01*
X282287000Y-141792750D01*
X281840280Y-141792750D01*
X281602158Y-141840115D01*
X281364030Y-141840115D01*
X281205280Y-141998865D01*
X281205280Y-142066119D01*
X281251676Y-142178128D01*
X281242123Y-142192425D01*
X281192840Y-142440190D01*
X281192840Y-142838970D01*
X281242123Y-143086735D01*
X281382471Y-143296779D01*
X281592515Y-143437127D01*
X281840280Y-143486410D01*
X282003245Y-143486410D01*
X282113002Y-143559747D01*
X282320394Y-143601000D01*
X282320399Y-143601000D01*
X282390419Y-143614928D01*
X282460440Y-143601000D01*
X282631626Y-143601000D01*
X282687235Y-143638157D01*
X282935000Y-143687440D01*
X283466030Y-143687440D01*
X283466030Y-143734250D01*
X283624780Y-143893000D01*
X284200725Y-143893000D01*
X284200725Y-143873000D01*
X284352750Y-143873000D01*
X284352750Y-144319720D01*
X284400115Y-144557842D01*
X284400115Y-144795970D01*
X284558865Y-144954720D01*
X284626119Y-144954720D01*
X284738128Y-144908324D01*
X284752425Y-144917877D01*
X285000190Y-144967160D01*
X285398970Y-144967160D01*
X285646735Y-144917877D01*
X285856779Y-144777529D01*
X285868341Y-144760225D01*
X285873221Y-144767529D01*
X286083265Y-144907877D01*
X286331030Y-144957160D01*
X286729810Y-144957160D01*
X286977575Y-144907877D01*
X286991872Y-144898324D01*
X287103881Y-144944720D01*
X287171135Y-144944720D01*
X287329885Y-144785970D01*
X287329885Y-144547842D01*
X287377250Y-144309720D01*
X287377250Y-144081000D01*
X287476030Y-144081000D01*
X287476030Y-144137002D01*
X287529275Y-144137002D01*
X287529275Y-144242505D01*
X287476030Y-144295750D01*
X287476030Y-144436030D01*
X287529275Y-144564575D01*
X287529275Y-144785970D01*
X287688025Y-144944720D01*
X287755279Y-144944720D01*
X287870000Y-144897201D01*
X287984721Y-144944720D01*
X288051975Y-144944720D01*
X288210725Y-144785970D01*
X288210725Y-144564575D01*
X288263970Y-144436030D01*
X288263970Y-144295750D01*
X288210725Y-144242505D01*
X288210725Y-144137000D01*
X288163420Y-144137000D01*
X288163420Y-144041537D01*
X288172418Y-144039747D01*
X288362750Y-143912571D01*
X288362750Y-144309720D01*
X288410115Y-144547842D01*
X288410115Y-144785970D01*
X288568865Y-144944720D01*
X288636119Y-144944720D01*
X288748128Y-144898324D01*
X288762425Y-144907877D01*
X289010190Y-144957160D01*
X289111000Y-144957160D01*
X289111000Y-145186833D01*
X289155804Y-145295000D01*
X277551255Y-145295000D01*
X278540505Y-144305750D01*
X283466030Y-144305750D01*
X283466030Y-144446030D01*
X283562703Y-144679419D01*
X283741332Y-144858047D01*
X283974721Y-144954720D01*
X284041975Y-144954720D01*
X284200725Y-144795970D01*
X284200725Y-144147000D01*
X283624780Y-144147000D01*
X283466030Y-144305750D01*
X278540505Y-144305750D01*
X278579095Y-144267160D01*
X278619810Y-144267160D01*
X278867575Y-144217877D01*
X278870000Y-144216257D01*
X278872425Y-144217877D01*
X279120190Y-144267160D01*
X279518970Y-144267160D01*
X279766735Y-144217877D01*
X279976779Y-144077529D01*
X280117127Y-143867485D01*
X280166410Y-143619720D01*
X280166410Y-143020280D01*
X280130760Y-142841056D01*
X280166830Y-142659720D01*
X280166830Y-142060280D01*
X280117547Y-141812515D01*
X279977199Y-141602471D01*
X279767155Y-141462123D01*
X279519390Y-141412840D01*
X279478676Y-141412840D01*
X279191420Y-141125585D01*
X279191420Y-141097440D01*
X279640000Y-141097440D01*
X279865000Y-141052685D01*
X280090000Y-141097440D01*
X280890000Y-141097440D01*
X281137765Y-141048157D01*
X281347809Y-140907809D01*
X281365000Y-140882081D01*
X281382191Y-140907809D01*
G36*
X277573590Y-143261655D02*
X277467759Y-143367486D01*
X277484720Y-143326539D01*
X277484720Y-143259285D01*
X277462265Y-143236830D01*
X277573590Y-143236830D01*
X277573590Y-143261655D01*
X277573590Y-143261655D01*
G37*
X277573590Y-143261655D02*
X277467759Y-143367486D01*
X277484720Y-143326539D01*
X277484720Y-143259285D01*
X277462265Y-143236830D01*
X277573590Y-143236830D01*
X277573590Y-143261655D01*
G36*
X297415000Y-141573331D02*
X297261645Y-141203076D01*
X296871358Y-140774817D01*
X296346892Y-140528514D01*
X296117000Y-140649181D01*
X296117000Y-141843000D01*
X296137000Y-141843000D01*
X296137000Y-142097000D01*
X296117000Y-142097000D01*
X296117000Y-142117000D01*
X295863000Y-142117000D01*
X295863000Y-142097000D01*
X294669845Y-142097000D01*
X294548524Y-142326890D01*
X294632235Y-142529000D01*
X293642406Y-142529000D01*
X293789144Y-142117698D01*
X293763889Y-141613110D01*
X294548524Y-141613110D01*
X294669845Y-141843000D01*
X295863000Y-141843000D01*
X295863000Y-140649181D01*
X295633108Y-140528514D01*
X295108642Y-140774817D01*
X294718355Y-141203076D01*
X294548524Y-141613110D01*
X293763889Y-141613110D01*
X293761362Y-141562632D01*
X293602397Y-141178857D01*
X293360213Y-141109392D01*
X292559605Y-141910000D01*
X292573748Y-141924143D01*
X292394143Y-142103748D01*
X292380000Y-142089605D01*
X292365858Y-142103748D01*
X292186253Y-141924143D01*
X292200395Y-141910000D01*
X291399787Y-141109392D01*
X291157603Y-141178857D01*
X290970856Y-141702302D01*
X290998638Y-142257368D01*
X291003456Y-142269000D01*
X290475904Y-142269000D01*
X290416436Y-142180000D01*
X290518157Y-142027765D01*
X290567440Y-141780000D01*
X290567440Y-140980000D01*
X290557453Y-140929787D01*
X291579392Y-140929787D01*
X292380000Y-141730395D01*
X293180608Y-140929787D01*
X293111143Y-140687603D01*
X292587698Y-140500856D01*
X292032632Y-140528638D01*
X291648857Y-140687603D01*
X291579392Y-140929787D01*
X290557453Y-140929787D01*
X290518157Y-140732235D01*
X290409000Y-140568871D01*
X290409000Y-140343167D01*
X290273658Y-140016422D01*
X290023578Y-139766342D01*
X289696833Y-139631000D01*
X289343167Y-139631000D01*
X289016422Y-139766342D01*
X288766342Y-140016422D01*
X288646867Y-140304862D01*
X288516833Y-140251000D01*
X288424720Y-140251000D01*
X288424720Y-140244721D01*
X288328047Y-140011332D01*
X288149419Y-139832703D01*
X287916030Y-139736030D01*
X287775750Y-139736030D01*
X287617000Y-139894780D01*
X287617000Y-140470725D01*
X287637000Y-140470725D01*
X287637000Y-140585764D01*
X287600014Y-140622750D01*
X287190280Y-140622750D01*
X286952158Y-140670115D01*
X286875077Y-140670115D01*
X286832765Y-140641843D01*
X286585000Y-140592560D01*
X285835000Y-140592560D01*
X285587235Y-140641843D01*
X285377191Y-140782191D01*
X285236843Y-140992235D01*
X285236580Y-140993555D01*
X285119698Y-140876673D01*
X284929740Y-140797990D01*
X284911750Y-140780000D01*
X284783209Y-140780000D01*
X284838157Y-140697765D01*
X284874081Y-140517160D01*
X285219390Y-140517160D01*
X285467155Y-140467877D01*
X285469580Y-140466257D01*
X285472005Y-140467877D01*
X285719770Y-140517160D01*
X286118550Y-140517160D01*
X286366315Y-140467877D01*
X286573047Y-140329742D01*
X286714030Y-140470725D01*
X287363000Y-140470725D01*
X287363000Y-139894780D01*
X287204250Y-139736030D01*
X287063970Y-139736030D01*
X286830581Y-139832703D01*
X286759143Y-139904141D01*
X286765990Y-139869720D01*
X286765990Y-139728675D01*
X286968975Y-139525690D01*
X287050581Y-139607297D01*
X287283970Y-139703970D01*
X287424250Y-139703970D01*
X287583000Y-139545220D01*
X287583000Y-138969275D01*
X287837000Y-138969275D01*
X287837000Y-139545220D01*
X287995750Y-139703970D01*
X288136030Y-139703970D01*
X288369419Y-139607297D01*
X288548047Y-139428668D01*
X288644720Y-139195279D01*
X288644720Y-139128025D01*
X288485970Y-138969275D01*
X287837000Y-138969275D01*
X287583000Y-138969275D01*
X287563000Y-138969275D01*
X287563000Y-138817250D01*
X288009720Y-138817250D01*
X288247842Y-138769885D01*
X288485970Y-138769885D01*
X288644720Y-138611135D01*
X288644720Y-138543881D01*
X288598324Y-138431872D01*
X288607877Y-138417575D01*
X288657160Y-138169810D01*
X288657160Y-137771030D01*
X288653092Y-137750580D01*
X289741369Y-137750580D01*
X289811390Y-137764508D01*
X289881411Y-137750580D01*
X289881416Y-137750580D01*
X290088808Y-137709327D01*
X290323992Y-137552182D01*
X290363660Y-137492815D01*
X290673235Y-137183239D01*
X290732601Y-137143572D01*
X290784672Y-137065643D01*
X290977529Y-136936779D01*
X291117877Y-136726735D01*
X291167160Y-136478970D01*
X291167160Y-136080190D01*
X291117877Y-135832425D01*
X291116257Y-135830000D01*
X291117877Y-135827575D01*
X291167160Y-135579810D01*
X291167160Y-135181030D01*
X291117877Y-134933265D01*
X290977529Y-134723221D01*
X290767485Y-134582873D01*
X290519720Y-134533590D01*
X289920280Y-134533590D01*
X289672515Y-134582873D01*
X289615503Y-134620968D01*
X289511622Y-134517087D01*
X289527160Y-134438970D01*
X289527160Y-134040190D01*
X289477877Y-133792425D01*
X289476257Y-133790000D01*
X289477877Y-133787575D01*
X289527160Y-133539810D01*
X289527160Y-133141030D01*
X289477877Y-132893265D01*
X289337529Y-132683221D01*
X289144672Y-132554357D01*
X289132268Y-132535793D01*
X289132267Y-132535792D01*
X289092601Y-132476428D01*
X289033238Y-132436763D01*
X288843239Y-132246764D01*
X288803572Y-132187398D01*
X288568388Y-132030253D01*
X288360996Y-131989000D01*
X288360991Y-131989000D01*
X288290970Y-131975072D01*
X288220949Y-131989000D01*
X288177449Y-131989000D01*
X288146359Y-131942471D01*
X287936315Y-131802123D01*
X287688550Y-131752840D01*
X287289770Y-131752840D01*
X287042005Y-131802123D01*
X287039580Y-131803743D01*
X287037155Y-131802123D01*
X286897670Y-131774378D01*
X286897670Y-131573000D01*
X287049695Y-131573000D01*
X287049695Y-131593000D01*
X287625640Y-131593000D01*
X287784390Y-131434250D01*
X287784390Y-131293970D01*
X287687717Y-131060581D01*
X287509088Y-130881953D01*
X287485771Y-130872295D01*
X288594080Y-129763985D01*
X288653441Y-129724322D01*
X288682126Y-129681393D01*
X288714301Y-129694720D01*
X288781555Y-129694720D01*
X288940305Y-129535970D01*
X288940305Y-129297842D01*
X288987670Y-129059720D01*
X288987670Y-128887000D01*
X289139695Y-128887000D01*
X289139695Y-129535970D01*
X289298445Y-129694720D01*
X289365699Y-129694720D01*
X289599088Y-129598047D01*
X289777717Y-129419419D01*
X289874390Y-129186030D01*
X289874390Y-129045750D01*
X289715640Y-128887000D01*
X289139695Y-128887000D01*
X288987670Y-128887000D01*
X288987670Y-128460280D01*
X288959465Y-128318482D01*
X288959465Y-128187842D01*
X289000005Y-127984030D01*
X289139695Y-127984030D01*
X289139695Y-128633000D01*
X289715640Y-128633000D01*
X289874390Y-128474250D01*
X289874390Y-128333970D01*
X289830549Y-128228128D01*
X289893550Y-128076030D01*
X289893550Y-127935750D01*
X289734800Y-127777000D01*
X289158855Y-127777000D01*
X289158855Y-127964870D01*
X289139695Y-127984030D01*
X289000005Y-127984030D01*
X289006830Y-127949720D01*
X289006830Y-127350280D01*
X288960305Y-127116381D01*
X288960305Y-127067842D01*
X288998856Y-126874030D01*
X289158855Y-126874030D01*
X289158855Y-127523000D01*
X289734800Y-127523000D01*
X289893550Y-127364250D01*
X289893550Y-127223970D01*
X289838478Y-127091014D01*
X289894390Y-126956030D01*
X289894390Y-126815750D01*
X289735640Y-126657000D01*
X289159695Y-126657000D01*
X289159695Y-126873190D01*
X289158855Y-126874030D01*
X288998856Y-126874030D01*
X289007670Y-126829720D01*
X289007670Y-126383000D01*
X289159695Y-126383000D01*
X289159695Y-126403000D01*
X289735640Y-126403000D01*
X289894390Y-126244250D01*
X289894390Y-126185000D01*
X297415001Y-126185000D01*
X297415000Y-141573331D01*
X297415000Y-141573331D01*
G37*
X297415000Y-141573331D02*
X297261645Y-141203076D01*
X296871358Y-140774817D01*
X296346892Y-140528514D01*
X296117000Y-140649181D01*
X296117000Y-141843000D01*
X296137000Y-141843000D01*
X296137000Y-142097000D01*
X296117000Y-142097000D01*
X296117000Y-142117000D01*
X295863000Y-142117000D01*
X295863000Y-142097000D01*
X294669845Y-142097000D01*
X294548524Y-142326890D01*
X294632235Y-142529000D01*
X293642406Y-142529000D01*
X293789144Y-142117698D01*
X293763889Y-141613110D01*
X294548524Y-141613110D01*
X294669845Y-141843000D01*
X295863000Y-141843000D01*
X295863000Y-140649181D01*
X295633108Y-140528514D01*
X295108642Y-140774817D01*
X294718355Y-141203076D01*
X294548524Y-141613110D01*
X293763889Y-141613110D01*
X293761362Y-141562632D01*
X293602397Y-141178857D01*
X293360213Y-141109392D01*
X292559605Y-141910000D01*
X292573748Y-141924143D01*
X292394143Y-142103748D01*
X292380000Y-142089605D01*
X292365858Y-142103748D01*
X292186253Y-141924143D01*
X292200395Y-141910000D01*
X291399787Y-141109392D01*
X291157603Y-141178857D01*
X290970856Y-141702302D01*
X290998638Y-142257368D01*
X291003456Y-142269000D01*
X290475904Y-142269000D01*
X290416436Y-142180000D01*
X290518157Y-142027765D01*
X290567440Y-141780000D01*
X290567440Y-140980000D01*
X290557453Y-140929787D01*
X291579392Y-140929787D01*
X292380000Y-141730395D01*
X293180608Y-140929787D01*
X293111143Y-140687603D01*
X292587698Y-140500856D01*
X292032632Y-140528638D01*
X291648857Y-140687603D01*
X291579392Y-140929787D01*
X290557453Y-140929787D01*
X290518157Y-140732235D01*
X290409000Y-140568871D01*
X290409000Y-140343167D01*
X290273658Y-140016422D01*
X290023578Y-139766342D01*
X289696833Y-139631000D01*
X289343167Y-139631000D01*
X289016422Y-139766342D01*
X288766342Y-140016422D01*
X288646867Y-140304862D01*
X288516833Y-140251000D01*
X288424720Y-140251000D01*
X288424720Y-140244721D01*
X288328047Y-140011332D01*
X288149419Y-139832703D01*
X287916030Y-139736030D01*
X287775750Y-139736030D01*
X287617000Y-139894780D01*
X287617000Y-140470725D01*
X287637000Y-140470725D01*
X287637000Y-140585764D01*
X287600014Y-140622750D01*
X287190280Y-140622750D01*
X286952158Y-140670115D01*
X286875077Y-140670115D01*
X286832765Y-140641843D01*
X286585000Y-140592560D01*
X285835000Y-140592560D01*
X285587235Y-140641843D01*
X285377191Y-140782191D01*
X285236843Y-140992235D01*
X285236580Y-140993555D01*
X285119698Y-140876673D01*
X284929740Y-140797990D01*
X284911750Y-140780000D01*
X284783209Y-140780000D01*
X284838157Y-140697765D01*
X284874081Y-140517160D01*
X285219390Y-140517160D01*
X285467155Y-140467877D01*
X285469580Y-140466257D01*
X285472005Y-140467877D01*
X285719770Y-140517160D01*
X286118550Y-140517160D01*
X286366315Y-140467877D01*
X286573047Y-140329742D01*
X286714030Y-140470725D01*
X287363000Y-140470725D01*
X287363000Y-139894780D01*
X287204250Y-139736030D01*
X287063970Y-139736030D01*
X286830581Y-139832703D01*
X286759143Y-139904141D01*
X286765990Y-139869720D01*
X286765990Y-139728675D01*
X286968975Y-139525690D01*
X287050581Y-139607297D01*
X287283970Y-139703970D01*
X287424250Y-139703970D01*
X287583000Y-139545220D01*
X287583000Y-138969275D01*
X287837000Y-138969275D01*
X287837000Y-139545220D01*
X287995750Y-139703970D01*
X288136030Y-139703970D01*
X288369419Y-139607297D01*
X288548047Y-139428668D01*
X288644720Y-139195279D01*
X288644720Y-139128025D01*
X288485970Y-138969275D01*
X287837000Y-138969275D01*
X287583000Y-138969275D01*
X287563000Y-138969275D01*
X287563000Y-138817250D01*
X288009720Y-138817250D01*
X288247842Y-138769885D01*
X288485970Y-138769885D01*
X288644720Y-138611135D01*
X288644720Y-138543881D01*
X288598324Y-138431872D01*
X288607877Y-138417575D01*
X288657160Y-138169810D01*
X288657160Y-137771030D01*
X288653092Y-137750580D01*
X289741369Y-137750580D01*
X289811390Y-137764508D01*
X289881411Y-137750580D01*
X289881416Y-137750580D01*
X290088808Y-137709327D01*
X290323992Y-137552182D01*
X290363660Y-137492815D01*
X290673235Y-137183239D01*
X290732601Y-137143572D01*
X290784672Y-137065643D01*
X290977529Y-136936779D01*
X291117877Y-136726735D01*
X291167160Y-136478970D01*
X291167160Y-136080190D01*
X291117877Y-135832425D01*
X291116257Y-135830000D01*
X291117877Y-135827575D01*
X291167160Y-135579810D01*
X291167160Y-135181030D01*
X291117877Y-134933265D01*
X290977529Y-134723221D01*
X290767485Y-134582873D01*
X290519720Y-134533590D01*
X289920280Y-134533590D01*
X289672515Y-134582873D01*
X289615503Y-134620968D01*
X289511622Y-134517087D01*
X289527160Y-134438970D01*
X289527160Y-134040190D01*
X289477877Y-133792425D01*
X289476257Y-133790000D01*
X289477877Y-133787575D01*
X289527160Y-133539810D01*
X289527160Y-133141030D01*
X289477877Y-132893265D01*
X289337529Y-132683221D01*
X289144672Y-132554357D01*
X289132268Y-132535793D01*
X289132267Y-132535792D01*
X289092601Y-132476428D01*
X289033238Y-132436763D01*
X288843239Y-132246764D01*
X288803572Y-132187398D01*
X288568388Y-132030253D01*
X288360996Y-131989000D01*
X288360991Y-131989000D01*
X288290970Y-131975072D01*
X288220949Y-131989000D01*
X288177449Y-131989000D01*
X288146359Y-131942471D01*
X287936315Y-131802123D01*
X287688550Y-131752840D01*
X287289770Y-131752840D01*
X287042005Y-131802123D01*
X287039580Y-131803743D01*
X287037155Y-131802123D01*
X286897670Y-131774378D01*
X286897670Y-131573000D01*
X287049695Y-131573000D01*
X287049695Y-131593000D01*
X287625640Y-131593000D01*
X287784390Y-131434250D01*
X287784390Y-131293970D01*
X287687717Y-131060581D01*
X287509088Y-130881953D01*
X287485771Y-130872295D01*
X288594080Y-129763985D01*
X288653441Y-129724322D01*
X288682126Y-129681393D01*
X288714301Y-129694720D01*
X288781555Y-129694720D01*
X288940305Y-129535970D01*
X288940305Y-129297842D01*
X288987670Y-129059720D01*
X288987670Y-128887000D01*
X289139695Y-128887000D01*
X289139695Y-129535970D01*
X289298445Y-129694720D01*
X289365699Y-129694720D01*
X289599088Y-129598047D01*
X289777717Y-129419419D01*
X289874390Y-129186030D01*
X289874390Y-129045750D01*
X289715640Y-128887000D01*
X289139695Y-128887000D01*
X288987670Y-128887000D01*
X288987670Y-128460280D01*
X288959465Y-128318482D01*
X288959465Y-128187842D01*
X289000005Y-127984030D01*
X289139695Y-127984030D01*
X289139695Y-128633000D01*
X289715640Y-128633000D01*
X289874390Y-128474250D01*
X289874390Y-128333970D01*
X289830549Y-128228128D01*
X289893550Y-128076030D01*
X289893550Y-127935750D01*
X289734800Y-127777000D01*
X289158855Y-127777000D01*
X289158855Y-127964870D01*
X289139695Y-127984030D01*
X289000005Y-127984030D01*
X289006830Y-127949720D01*
X289006830Y-127350280D01*
X288960305Y-127116381D01*
X288960305Y-127067842D01*
X288998856Y-126874030D01*
X289158855Y-126874030D01*
X289158855Y-127523000D01*
X289734800Y-127523000D01*
X289893550Y-127364250D01*
X289893550Y-127223970D01*
X289838478Y-127091014D01*
X289894390Y-126956030D01*
X289894390Y-126815750D01*
X289735640Y-126657000D01*
X289159695Y-126657000D01*
X289159695Y-126873190D01*
X289158855Y-126874030D01*
X288998856Y-126874030D01*
X289007670Y-126829720D01*
X289007670Y-126383000D01*
X289159695Y-126383000D01*
X289159695Y-126403000D01*
X289735640Y-126403000D01*
X289894390Y-126244250D01*
X289894390Y-126185000D01*
X297415001Y-126185000D01*
X297415000Y-141573331D01*
G36*
X278427664Y-142372840D02*
X278377160Y-142372840D01*
X278377160Y-142322335D01*
X278427664Y-142372840D01*
X278427664Y-142372840D01*
G37*
X278427664Y-142372840D02*
X278377160Y-142372840D01*
X278377160Y-142322335D01*
X278427664Y-142372840D01*
G36*
X267572998Y-142264500D02*
X267553000Y-142264500D01*
X267553000Y-142246250D01*
X267572998Y-142226252D01*
X267572998Y-142264500D01*
X267572998Y-142264500D01*
G37*
X267572998Y-142264500D02*
X267553000Y-142264500D01*
X267553000Y-142246250D01*
X267572998Y-142226252D01*
X267572998Y-142264500D01*
G36*
X269087000Y-142246250D02*
X269087000Y-142264500D01*
X269067002Y-142264500D01*
X269067002Y-142226252D01*
X269087000Y-142246250D01*
X269087000Y-142246250D01*
G37*
X269087000Y-142246250D02*
X269087000Y-142264500D01*
X269067002Y-142264500D01*
X269067002Y-142226252D01*
X269087000Y-142246250D01*
G36*
X268812998Y-142264500D02*
X268774750Y-142264500D01*
X268812998Y-142226252D01*
X268812998Y-142264500D01*
X268812998Y-142264500D01*
G37*
X268812998Y-142264500D02*
X268774750Y-142264500D01*
X268812998Y-142226252D01*
X268812998Y-142264500D01*
G36*
X267865250Y-142264500D02*
X267827002Y-142264500D01*
X267827002Y-142226252D01*
X267865250Y-142264500D01*
X267865250Y-142264500D01*
G37*
X267865250Y-142264500D02*
X267827002Y-142264500D01*
X267827002Y-142226252D01*
X267865250Y-142264500D01*
G36*
X271916030Y-139914250D02*
X272074780Y-140073000D01*
X272650725Y-140073000D01*
X272650725Y-140053000D01*
X272802750Y-140053000D01*
X272802750Y-140499720D01*
X272850115Y-140737842D01*
X272850115Y-140975970D01*
X273008865Y-141134720D01*
X273076119Y-141134720D01*
X273188128Y-141088324D01*
X273202425Y-141097877D01*
X273450190Y-141147160D01*
X273848970Y-141147160D01*
X274096735Y-141097877D01*
X274306779Y-140957529D01*
X274363596Y-140872496D01*
X274377418Y-140869747D01*
X274537157Y-140763012D01*
X274674030Y-140899885D01*
X274912158Y-140899885D01*
X275150280Y-140947250D01*
X275749720Y-140947250D01*
X275987842Y-140899885D01*
X276312158Y-140899885D01*
X276550280Y-140947250D01*
X276997000Y-140947250D01*
X276997000Y-141099275D01*
X276977000Y-141099275D01*
X276977000Y-141146580D01*
X276723000Y-141146580D01*
X276723000Y-141099275D01*
X275577000Y-141099275D01*
X275577000Y-141675220D01*
X275690345Y-141788565D01*
X275557398Y-141877398D01*
X275517731Y-141936764D01*
X275364495Y-142090000D01*
X275070816Y-142090000D01*
X275018910Y-142111500D01*
X274699080Y-142111500D01*
X274618739Y-141991261D01*
X274337727Y-141803495D01*
X274006250Y-141737560D01*
X273493750Y-141737560D01*
X273162273Y-141803495D01*
X273042660Y-141883418D01*
X272943277Y-141883418D01*
X273074720Y-141751975D01*
X273074720Y-141684721D01*
X272978047Y-141451332D01*
X272799419Y-141272703D01*
X272763984Y-141258025D01*
X274515280Y-141258025D01*
X274515280Y-141325279D01*
X274611953Y-141558668D01*
X274790581Y-141737297D01*
X275023970Y-141833970D01*
X275164250Y-141833970D01*
X275323000Y-141675220D01*
X275323000Y-141099275D01*
X274674030Y-141099275D01*
X274515280Y-141258025D01*
X272763984Y-141258025D01*
X272566030Y-141176030D01*
X272425750Y-141176030D01*
X272267000Y-141334780D01*
X272267000Y-141910725D01*
X272287000Y-141910725D01*
X272287000Y-142058302D01*
X272140000Y-142029062D01*
X271970638Y-142062750D01*
X271840280Y-142062750D01*
X271652431Y-142100115D01*
X271577842Y-142100115D01*
X271339720Y-142052750D01*
X270893000Y-142052750D01*
X270893000Y-141900725D01*
X270913000Y-141900725D01*
X270913000Y-141324780D01*
X271167000Y-141324780D01*
X271167000Y-141900725D01*
X271354030Y-141900725D01*
X271364030Y-141910725D01*
X272013000Y-141910725D01*
X272013000Y-141334780D01*
X271854250Y-141176030D01*
X271713970Y-141176030D01*
X271602071Y-141222380D01*
X271466030Y-141166030D01*
X271325750Y-141166030D01*
X271167000Y-141324780D01*
X270913000Y-141324780D01*
X270754250Y-141166030D01*
X270613970Y-141166030D01*
X270611000Y-141167260D01*
X270611000Y-140826236D01*
X270823658Y-140613578D01*
X270876606Y-140485750D01*
X271916030Y-140485750D01*
X271916030Y-140626030D01*
X272012703Y-140859419D01*
X272191332Y-141038047D01*
X272424721Y-141134720D01*
X272491975Y-141134720D01*
X272650725Y-140975970D01*
X272650725Y-140327000D01*
X272074780Y-140327000D01*
X271916030Y-140485750D01*
X270876606Y-140485750D01*
X270959000Y-140286833D01*
X270959000Y-139933167D01*
X270904658Y-139801974D01*
X271090500Y-139838940D01*
X271725500Y-139838940D01*
X271916030Y-139801042D01*
X271916030Y-139914250D01*
X271916030Y-139914250D01*
G37*
X271916030Y-139914250D02*
X272074780Y-140073000D01*
X272650725Y-140073000D01*
X272650725Y-140053000D01*
X272802750Y-140053000D01*
X272802750Y-140499720D01*
X272850115Y-140737842D01*
X272850115Y-140975970D01*
X273008865Y-141134720D01*
X273076119Y-141134720D01*
X273188128Y-141088324D01*
X273202425Y-141097877D01*
X273450190Y-141147160D01*
X273848970Y-141147160D01*
X274096735Y-141097877D01*
X274306779Y-140957529D01*
X274363596Y-140872496D01*
X274377418Y-140869747D01*
X274537157Y-140763012D01*
X274674030Y-140899885D01*
X274912158Y-140899885D01*
X275150280Y-140947250D01*
X275749720Y-140947250D01*
X275987842Y-140899885D01*
X276312158Y-140899885D01*
X276550280Y-140947250D01*
X276997000Y-140947250D01*
X276997000Y-141099275D01*
X276977000Y-141099275D01*
X276977000Y-141146580D01*
X276723000Y-141146580D01*
X276723000Y-141099275D01*
X275577000Y-141099275D01*
X275577000Y-141675220D01*
X275690345Y-141788565D01*
X275557398Y-141877398D01*
X275517731Y-141936764D01*
X275364495Y-142090000D01*
X275070816Y-142090000D01*
X275018910Y-142111500D01*
X274699080Y-142111500D01*
X274618739Y-141991261D01*
X274337727Y-141803495D01*
X274006250Y-141737560D01*
X273493750Y-141737560D01*
X273162273Y-141803495D01*
X273042660Y-141883418D01*
X272943277Y-141883418D01*
X273074720Y-141751975D01*
X273074720Y-141684721D01*
X272978047Y-141451332D01*
X272799419Y-141272703D01*
X272763984Y-141258025D01*
X274515280Y-141258025D01*
X274515280Y-141325279D01*
X274611953Y-141558668D01*
X274790581Y-141737297D01*
X275023970Y-141833970D01*
X275164250Y-141833970D01*
X275323000Y-141675220D01*
X275323000Y-141099275D01*
X274674030Y-141099275D01*
X274515280Y-141258025D01*
X272763984Y-141258025D01*
X272566030Y-141176030D01*
X272425750Y-141176030D01*
X272267000Y-141334780D01*
X272267000Y-141910725D01*
X272287000Y-141910725D01*
X272287000Y-142058302D01*
X272140000Y-142029062D01*
X271970638Y-142062750D01*
X271840280Y-142062750D01*
X271652431Y-142100115D01*
X271577842Y-142100115D01*
X271339720Y-142052750D01*
X270893000Y-142052750D01*
X270893000Y-141900725D01*
X270913000Y-141900725D01*
X270913000Y-141324780D01*
X271167000Y-141324780D01*
X271167000Y-141900725D01*
X271354030Y-141900725D01*
X271364030Y-141910725D01*
X272013000Y-141910725D01*
X272013000Y-141334780D01*
X271854250Y-141176030D01*
X271713970Y-141176030D01*
X271602071Y-141222380D01*
X271466030Y-141166030D01*
X271325750Y-141166030D01*
X271167000Y-141324780D01*
X270913000Y-141324780D01*
X270754250Y-141166030D01*
X270613970Y-141166030D01*
X270611000Y-141167260D01*
X270611000Y-140826236D01*
X270823658Y-140613578D01*
X270876606Y-140485750D01*
X271916030Y-140485750D01*
X271916030Y-140626030D01*
X272012703Y-140859419D01*
X272191332Y-141038047D01*
X272424721Y-141134720D01*
X272491975Y-141134720D01*
X272650725Y-140975970D01*
X272650725Y-140327000D01*
X272074780Y-140327000D01*
X271916030Y-140485750D01*
X270876606Y-140485750D01*
X270959000Y-140286833D01*
X270959000Y-139933167D01*
X270904658Y-139801974D01*
X271090500Y-139838940D01*
X271725500Y-139838940D01*
X271916030Y-139801042D01*
X271916030Y-139914250D01*
G36*
X269087000Y-141253750D02*
X269067002Y-141273748D01*
X269067002Y-141235500D01*
X269087000Y-141235500D01*
X269087000Y-141253750D01*
X269087000Y-141253750D01*
G37*
X269087000Y-141253750D02*
X269067002Y-141273748D01*
X269067002Y-141235500D01*
X269087000Y-141235500D01*
X269087000Y-141253750D01*
G36*
X268812998Y-141273748D02*
X268774750Y-141235500D01*
X268812998Y-141235500D01*
X268812998Y-141273748D01*
X268812998Y-141273748D01*
G37*
X268812998Y-141273748D02*
X268774750Y-141235500D01*
X268812998Y-141235500D01*
X268812998Y-141273748D01*
G36*
X267827002Y-141273748D02*
X267827002Y-141235500D01*
X267865250Y-141235500D01*
X267827002Y-141273748D01*
X267827002Y-141273748D01*
G37*
X267827002Y-141273748D02*
X267827002Y-141235500D01*
X267865250Y-141235500D01*
X267827002Y-141273748D01*
G36*
X267572998Y-141273748D02*
X267553000Y-141253750D01*
X267553000Y-141235500D01*
X267572998Y-141235500D01*
X267572998Y-141273748D01*
X267572998Y-141273748D01*
G37*
X267572998Y-141273748D02*
X267553000Y-141253750D01*
X267553000Y-141235500D01*
X267572998Y-141235500D01*
X267572998Y-141273748D01*
G36*
X277699379Y-140872578D02*
X277653277Y-140872578D01*
X277666780Y-140859075D01*
X277699379Y-140872578D01*
X277699379Y-140872578D01*
G37*
X277699379Y-140872578D02*
X277653277Y-140872578D01*
X277666780Y-140859075D01*
X277699379Y-140872578D01*
G36*
X271322582Y-132160253D02*
X271087398Y-132317398D01*
X271047731Y-132376764D01*
X271036762Y-132387733D01*
X270977398Y-132427399D01*
X270937733Y-132486762D01*
X270937732Y-132486763D01*
X270921404Y-132511200D01*
X270820253Y-132662583D01*
X270779000Y-132869975D01*
X270779000Y-132869979D01*
X270765072Y-132940000D01*
X270779000Y-133010021D01*
X270779000Y-133552560D01*
X270674135Y-133552560D01*
X270734720Y-133491975D01*
X270734720Y-133424721D01*
X270673000Y-133275716D01*
X270673000Y-132623750D01*
X270514250Y-132465000D01*
X270223691Y-132465000D01*
X269990302Y-132561673D01*
X269811673Y-132740301D01*
X269738884Y-132916030D01*
X269672998Y-132916030D01*
X269672998Y-133074778D01*
X269514250Y-132916030D01*
X269373970Y-132916030D01*
X269140581Y-133012703D01*
X268961953Y-133191332D01*
X268865280Y-133424721D01*
X268865280Y-133491975D01*
X269024030Y-133650725D01*
X269673000Y-133650725D01*
X269673000Y-133603420D01*
X269927000Y-133603420D01*
X269927000Y-133627000D01*
X269873750Y-133627000D01*
X269715000Y-133785750D01*
X269715000Y-133802750D01*
X269500280Y-133802750D01*
X269262158Y-133850115D01*
X269024030Y-133850115D01*
X268865280Y-134008865D01*
X268865280Y-134076119D01*
X268911676Y-134188128D01*
X268902123Y-134202425D01*
X268852840Y-134450190D01*
X268852840Y-134848970D01*
X268902123Y-135096735D01*
X269042471Y-135306779D01*
X269252515Y-135447127D01*
X269500280Y-135496410D01*
X269949961Y-135496410D01*
X270102235Y-135598157D01*
X270350000Y-135647440D01*
X270785500Y-135647440D01*
X270785500Y-135714250D01*
X270944250Y-135873000D01*
X271611000Y-135873000D01*
X271611000Y-135853000D01*
X271865000Y-135853000D01*
X271865000Y-135873000D01*
X271885000Y-135873000D01*
X271885000Y-136127000D01*
X271865000Y-136127000D01*
X271865000Y-136147000D01*
X271611000Y-136147000D01*
X271611000Y-136127000D01*
X270944250Y-136127000D01*
X270785500Y-136285750D01*
X270785500Y-136697810D01*
X270882173Y-136931199D01*
X270889839Y-136938865D01*
X270883590Y-136970280D01*
X270883590Y-137097491D01*
X270855734Y-137139181D01*
X270855732Y-137139183D01*
X270738254Y-137315002D01*
X270691191Y-137551602D01*
X270632691Y-137590691D01*
X270492343Y-137800735D01*
X270443060Y-138048500D01*
X270443060Y-139191500D01*
X270467074Y-139312227D01*
X270246833Y-139221000D01*
X270112006Y-139221000D01*
X270114940Y-139206250D01*
X270114940Y-138693750D01*
X270049005Y-138362273D01*
X269861239Y-138081261D01*
X269580227Y-137893495D01*
X269248750Y-137827560D01*
X268811250Y-137827560D01*
X268479773Y-137893495D01*
X268242500Y-138052036D01*
X268005227Y-137893495D01*
X267673750Y-137827560D01*
X267236250Y-137827560D01*
X266904773Y-137893495D01*
X266623761Y-138081261D01*
X266585000Y-138139271D01*
X266585000Y-132127000D01*
X271489755Y-132127000D01*
X271322582Y-132160253D01*
X271322582Y-132160253D01*
G37*
X271322582Y-132160253D02*
X271087398Y-132317398D01*
X271047731Y-132376764D01*
X271036762Y-132387733D01*
X270977398Y-132427399D01*
X270937733Y-132486762D01*
X270937732Y-132486763D01*
X270921404Y-132511200D01*
X270820253Y-132662583D01*
X270779000Y-132869975D01*
X270779000Y-132869979D01*
X270765072Y-132940000D01*
X270779000Y-133010021D01*
X270779000Y-133552560D01*
X270674135Y-133552560D01*
X270734720Y-133491975D01*
X270734720Y-133424721D01*
X270673000Y-133275716D01*
X270673000Y-132623750D01*
X270514250Y-132465000D01*
X270223691Y-132465000D01*
X269990302Y-132561673D01*
X269811673Y-132740301D01*
X269738884Y-132916030D01*
X269672998Y-132916030D01*
X269672998Y-133074778D01*
X269514250Y-132916030D01*
X269373970Y-132916030D01*
X269140581Y-133012703D01*
X268961953Y-133191332D01*
X268865280Y-133424721D01*
X268865280Y-133491975D01*
X269024030Y-133650725D01*
X269673000Y-133650725D01*
X269673000Y-133603420D01*
X269927000Y-133603420D01*
X269927000Y-133627000D01*
X269873750Y-133627000D01*
X269715000Y-133785750D01*
X269715000Y-133802750D01*
X269500280Y-133802750D01*
X269262158Y-133850115D01*
X269024030Y-133850115D01*
X268865280Y-134008865D01*
X268865280Y-134076119D01*
X268911676Y-134188128D01*
X268902123Y-134202425D01*
X268852840Y-134450190D01*
X268852840Y-134848970D01*
X268902123Y-135096735D01*
X269042471Y-135306779D01*
X269252515Y-135447127D01*
X269500280Y-135496410D01*
X269949961Y-135496410D01*
X270102235Y-135598157D01*
X270350000Y-135647440D01*
X270785500Y-135647440D01*
X270785500Y-135714250D01*
X270944250Y-135873000D01*
X271611000Y-135873000D01*
X271611000Y-135853000D01*
X271865000Y-135853000D01*
X271865000Y-135873000D01*
X271885000Y-135873000D01*
X271885000Y-136127000D01*
X271865000Y-136127000D01*
X271865000Y-136147000D01*
X271611000Y-136147000D01*
X271611000Y-136127000D01*
X270944250Y-136127000D01*
X270785500Y-136285750D01*
X270785500Y-136697810D01*
X270882173Y-136931199D01*
X270889839Y-136938865D01*
X270883590Y-136970280D01*
X270883590Y-137097491D01*
X270855734Y-137139181D01*
X270855732Y-137139183D01*
X270738254Y-137315002D01*
X270691191Y-137551602D01*
X270632691Y-137590691D01*
X270492343Y-137800735D01*
X270443060Y-138048500D01*
X270443060Y-139191500D01*
X270467074Y-139312227D01*
X270246833Y-139221000D01*
X270112006Y-139221000D01*
X270114940Y-139206250D01*
X270114940Y-138693750D01*
X270049005Y-138362273D01*
X269861239Y-138081261D01*
X269580227Y-137893495D01*
X269248750Y-137827560D01*
X268811250Y-137827560D01*
X268479773Y-137893495D01*
X268242500Y-138052036D01*
X268005227Y-137893495D01*
X267673750Y-137827560D01*
X267236250Y-137827560D01*
X266904773Y-137893495D01*
X266623761Y-138081261D01*
X266585000Y-138139271D01*
X266585000Y-132127000D01*
X271489755Y-132127000D01*
X271322582Y-132160253D01*
G36*
X274019001Y-139196580D02*
X273943000Y-139196580D01*
X273943000Y-139149275D01*
X273923000Y-139149275D01*
X273923000Y-138997250D01*
X274019001Y-138997250D01*
X274019001Y-139196580D01*
X274019001Y-139196580D01*
G37*
X274019001Y-139196580D02*
X273943000Y-139196580D01*
X273943000Y-139149275D01*
X273923000Y-139149275D01*
X273923000Y-138997250D01*
X274019001Y-138997250D01*
X274019001Y-139196580D01*
G36*
X282776342Y-138273578D02*
X282797560Y-138294796D01*
X282797560Y-138870000D01*
X282831504Y-139040652D01*
X282640000Y-139002560D01*
X282350145Y-139002560D01*
X282459419Y-138957297D01*
X282638047Y-138778668D01*
X282734720Y-138545279D01*
X282734720Y-138478025D01*
X282575970Y-138319275D01*
X281927000Y-138319275D01*
X281927000Y-138366580D01*
X281844999Y-138366580D01*
X281844999Y-138167250D01*
X282099720Y-138167250D01*
X282337842Y-138119885D01*
X282575970Y-138119885D01*
X282672639Y-138023216D01*
X282776342Y-138273578D01*
X282776342Y-138273578D01*
G37*
X282776342Y-138273578D02*
X282797560Y-138294796D01*
X282797560Y-138870000D01*
X282831504Y-139040652D01*
X282640000Y-139002560D01*
X282350145Y-139002560D01*
X282459419Y-138957297D01*
X282638047Y-138778668D01*
X282734720Y-138545279D01*
X282734720Y-138478025D01*
X282575970Y-138319275D01*
X281927000Y-138319275D01*
X281927000Y-138366580D01*
X281844999Y-138366580D01*
X281844999Y-138167250D01*
X282099720Y-138167250D01*
X282337842Y-138119885D01*
X282575970Y-138119885D01*
X282672639Y-138023216D01*
X282776342Y-138273578D01*
G36*
X282034340Y-139002560D02*
X281927002Y-139002560D01*
X281927002Y-138895222D01*
X282034340Y-139002560D01*
X282034340Y-139002560D01*
G37*
X282034340Y-139002560D02*
X281927002Y-139002560D01*
X281927002Y-138895222D01*
X282034340Y-139002560D01*
G36*
X276211250Y-132204250D02*
X277163750Y-132204250D01*
X277183750Y-132184250D01*
X277303750Y-132184250D01*
X277323750Y-132204250D01*
X278276250Y-132204250D01*
X278296250Y-132184250D01*
X278416250Y-132184250D01*
X278436250Y-132204250D01*
X279388750Y-132204250D01*
X279408750Y-132184250D01*
X279595750Y-132184250D01*
X279595750Y-132204250D01*
X279615750Y-132204250D01*
X279615750Y-132391250D01*
X279595750Y-132411250D01*
X279595750Y-133363750D01*
X279615750Y-133383750D01*
X279615750Y-133503750D01*
X279595750Y-133523750D01*
X279595750Y-134476250D01*
X279615750Y-134496250D01*
X279615750Y-134616250D01*
X279595750Y-134636250D01*
X279595750Y-135588750D01*
X279615750Y-135608750D01*
X279615750Y-135795750D01*
X279595750Y-135795750D01*
X279595750Y-135815750D01*
X279408750Y-135815750D01*
X279388750Y-135795750D01*
X278436250Y-135795750D01*
X278416250Y-135815750D01*
X278296250Y-135815750D01*
X278276250Y-135795750D01*
X277323750Y-135795750D01*
X277303750Y-135815750D01*
X277183750Y-135815750D01*
X277163750Y-135795750D01*
X276211250Y-135795750D01*
X276191250Y-135815750D01*
X276004250Y-135815750D01*
X276004250Y-135795750D01*
X275984250Y-135795750D01*
X275984250Y-135608750D01*
X276004250Y-135588750D01*
X276004250Y-134636250D01*
X275984250Y-134616250D01*
X275984250Y-134496250D01*
X276004250Y-134476250D01*
X276004250Y-133523750D01*
X275984250Y-133503750D01*
X275984250Y-133383750D01*
X276004250Y-133363750D01*
X276004250Y-132617000D01*
X276052500Y-132617000D01*
X276052500Y-133158000D01*
X276211250Y-133316750D01*
X276218725Y-133316750D01*
X276258250Y-133356276D01*
X276258250Y-133363750D01*
X276338250Y-133443750D01*
X276258250Y-133523750D01*
X276258250Y-133531224D01*
X276218725Y-133570750D01*
X276211250Y-133570750D01*
X276052500Y-133729500D01*
X276052500Y-134270500D01*
X276211250Y-134429250D01*
X276218725Y-134429250D01*
X276258250Y-134468776D01*
X276258250Y-134476250D01*
X276338250Y-134556250D01*
X276258250Y-134636250D01*
X276258250Y-134643724D01*
X276218725Y-134683250D01*
X276211250Y-134683250D01*
X276052500Y-134842000D01*
X276052500Y-135383000D01*
X276211250Y-135541750D01*
X276218725Y-135541750D01*
X276258250Y-135581276D01*
X276258250Y-135588750D01*
X276417000Y-135747500D01*
X276958000Y-135747500D01*
X277116750Y-135588750D01*
X277116750Y-135581276D01*
X277156275Y-135541750D01*
X277163750Y-135541750D01*
X277243750Y-135461750D01*
X277323750Y-135541750D01*
X277331225Y-135541750D01*
X277370750Y-135581276D01*
X277370750Y-135588750D01*
X277529500Y-135747500D01*
X278070500Y-135747500D01*
X278229250Y-135588750D01*
X278229250Y-135581276D01*
X278268775Y-135541750D01*
X278276250Y-135541750D01*
X278356250Y-135461750D01*
X278436250Y-135541750D01*
X278443725Y-135541750D01*
X278483250Y-135581276D01*
X278483250Y-135588750D01*
X278642000Y-135747500D01*
X279183000Y-135747500D01*
X279341750Y-135588750D01*
X279341750Y-135581276D01*
X279381275Y-135541750D01*
X279388750Y-135541750D01*
X279547500Y-135383000D01*
X279547500Y-134842000D01*
X279388750Y-134683250D01*
X279381275Y-134683250D01*
X279341750Y-134643724D01*
X279341750Y-134636250D01*
X279261750Y-134556250D01*
X279341750Y-134476250D01*
X279341750Y-134468776D01*
X279381275Y-134429250D01*
X279388750Y-134429250D01*
X279547500Y-134270500D01*
X279547500Y-133729500D01*
X279388750Y-133570750D01*
X279381275Y-133570750D01*
X279341750Y-133531224D01*
X279341750Y-133523750D01*
X279261750Y-133443750D01*
X279341750Y-133363750D01*
X279341750Y-133356276D01*
X279381275Y-133316750D01*
X279388750Y-133316750D01*
X279547500Y-133158000D01*
X279547500Y-132617000D01*
X279388750Y-132458250D01*
X279381275Y-132458250D01*
X279341750Y-132418724D01*
X279341750Y-132411250D01*
X279183000Y-132252500D01*
X278642000Y-132252500D01*
X278483250Y-132411250D01*
X278483250Y-132418724D01*
X278443725Y-132458250D01*
X278436250Y-132458250D01*
X278356250Y-132538250D01*
X278276250Y-132458250D01*
X278268775Y-132458250D01*
X278229250Y-132418724D01*
X278229250Y-132411250D01*
X278070500Y-132252500D01*
X277529500Y-132252500D01*
X277370750Y-132411250D01*
X277370750Y-132418724D01*
X277331225Y-132458250D01*
X277323750Y-132458250D01*
X277243750Y-132538250D01*
X277163750Y-132458250D01*
X277156275Y-132458250D01*
X277116750Y-132418724D01*
X277116750Y-132411250D01*
X276958000Y-132252500D01*
X276417000Y-132252500D01*
X276258250Y-132411250D01*
X276258250Y-132418724D01*
X276218725Y-132458250D01*
X276211250Y-132458250D01*
X276052500Y-132617000D01*
X276004250Y-132617000D01*
X276004250Y-132411250D01*
X275984250Y-132391250D01*
X275984250Y-132204250D01*
X276004250Y-132204250D01*
X276004250Y-132184250D01*
X276191250Y-132184250D01*
X276211250Y-132204250D01*
X276211250Y-132204250D01*
G37*
X276211250Y-132204250D02*
X277163750Y-132204250D01*
X277183750Y-132184250D01*
X277303750Y-132184250D01*
X277323750Y-132204250D01*
X278276250Y-132204250D01*
X278296250Y-132184250D01*
X278416250Y-132184250D01*
X278436250Y-132204250D01*
X279388750Y-132204250D01*
X279408750Y-132184250D01*
X279595750Y-132184250D01*
X279595750Y-132204250D01*
X279615750Y-132204250D01*
X279615750Y-132391250D01*
X279595750Y-132411250D01*
X279595750Y-133363750D01*
X279615750Y-133383750D01*
X279615750Y-133503750D01*
X279595750Y-133523750D01*
X279595750Y-134476250D01*
X279615750Y-134496250D01*
X279615750Y-134616250D01*
X279595750Y-134636250D01*
X279595750Y-135588750D01*
X279615750Y-135608750D01*
X279615750Y-135795750D01*
X279595750Y-135795750D01*
X279595750Y-135815750D01*
X279408750Y-135815750D01*
X279388750Y-135795750D01*
X278436250Y-135795750D01*
X278416250Y-135815750D01*
X278296250Y-135815750D01*
X278276250Y-135795750D01*
X277323750Y-135795750D01*
X277303750Y-135815750D01*
X277183750Y-135815750D01*
X277163750Y-135795750D01*
X276211250Y-135795750D01*
X276191250Y-135815750D01*
X276004250Y-135815750D01*
X276004250Y-135795750D01*
X275984250Y-135795750D01*
X275984250Y-135608750D01*
X276004250Y-135588750D01*
X276004250Y-134636250D01*
X275984250Y-134616250D01*
X275984250Y-134496250D01*
X276004250Y-134476250D01*
X276004250Y-133523750D01*
X275984250Y-133503750D01*
X275984250Y-133383750D01*
X276004250Y-133363750D01*
X276004250Y-132617000D01*
X276052500Y-132617000D01*
X276052500Y-133158000D01*
X276211250Y-133316750D01*
X276218725Y-133316750D01*
X276258250Y-133356276D01*
X276258250Y-133363750D01*
X276338250Y-133443750D01*
X276258250Y-133523750D01*
X276258250Y-133531224D01*
X276218725Y-133570750D01*
X276211250Y-133570750D01*
X276052500Y-133729500D01*
X276052500Y-134270500D01*
X276211250Y-134429250D01*
X276218725Y-134429250D01*
X276258250Y-134468776D01*
X276258250Y-134476250D01*
X276338250Y-134556250D01*
X276258250Y-134636250D01*
X276258250Y-134643724D01*
X276218725Y-134683250D01*
X276211250Y-134683250D01*
X276052500Y-134842000D01*
X276052500Y-135383000D01*
X276211250Y-135541750D01*
X276218725Y-135541750D01*
X276258250Y-135581276D01*
X276258250Y-135588750D01*
X276417000Y-135747500D01*
X276958000Y-135747500D01*
X277116750Y-135588750D01*
X277116750Y-135581276D01*
X277156275Y-135541750D01*
X277163750Y-135541750D01*
X277243750Y-135461750D01*
X277323750Y-135541750D01*
X277331225Y-135541750D01*
X277370750Y-135581276D01*
X277370750Y-135588750D01*
X277529500Y-135747500D01*
X278070500Y-135747500D01*
X278229250Y-135588750D01*
X278229250Y-135581276D01*
X278268775Y-135541750D01*
X278276250Y-135541750D01*
X278356250Y-135461750D01*
X278436250Y-135541750D01*
X278443725Y-135541750D01*
X278483250Y-135581276D01*
X278483250Y-135588750D01*
X278642000Y-135747500D01*
X279183000Y-135747500D01*
X279341750Y-135588750D01*
X279341750Y-135581276D01*
X279381275Y-135541750D01*
X279388750Y-135541750D01*
X279547500Y-135383000D01*
X279547500Y-134842000D01*
X279388750Y-134683250D01*
X279381275Y-134683250D01*
X279341750Y-134643724D01*
X279341750Y-134636250D01*
X279261750Y-134556250D01*
X279341750Y-134476250D01*
X279341750Y-134468776D01*
X279381275Y-134429250D01*
X279388750Y-134429250D01*
X279547500Y-134270500D01*
X279547500Y-133729500D01*
X279388750Y-133570750D01*
X279381275Y-133570750D01*
X279341750Y-133531224D01*
X279341750Y-133523750D01*
X279261750Y-133443750D01*
X279341750Y-133363750D01*
X279341750Y-133356276D01*
X279381275Y-133316750D01*
X279388750Y-133316750D01*
X279547500Y-133158000D01*
X279547500Y-132617000D01*
X279388750Y-132458250D01*
X279381275Y-132458250D01*
X279341750Y-132418724D01*
X279341750Y-132411250D01*
X279183000Y-132252500D01*
X278642000Y-132252500D01*
X278483250Y-132411250D01*
X278483250Y-132418724D01*
X278443725Y-132458250D01*
X278436250Y-132458250D01*
X278356250Y-132538250D01*
X278276250Y-132458250D01*
X278268775Y-132458250D01*
X278229250Y-132418724D01*
X278229250Y-132411250D01*
X278070500Y-132252500D01*
X277529500Y-132252500D01*
X277370750Y-132411250D01*
X277370750Y-132418724D01*
X277331225Y-132458250D01*
X277323750Y-132458250D01*
X277243750Y-132538250D01*
X277163750Y-132458250D01*
X277156275Y-132458250D01*
X277116750Y-132418724D01*
X277116750Y-132411250D01*
X276958000Y-132252500D01*
X276417000Y-132252500D01*
X276258250Y-132411250D01*
X276258250Y-132418724D01*
X276218725Y-132458250D01*
X276211250Y-132458250D01*
X276052500Y-132617000D01*
X276004250Y-132617000D01*
X276004250Y-132411250D01*
X275984250Y-132391250D01*
X275984250Y-132204250D01*
X276004250Y-132204250D01*
X276004250Y-132184250D01*
X276191250Y-132184250D01*
X276211250Y-132204250D01*
G36*
X277323750Y-134429250D02*
X277331225Y-134429250D01*
X277370750Y-134468776D01*
X277370750Y-134476250D01*
X277450750Y-134556250D01*
X277370750Y-134636250D01*
X277370750Y-134643724D01*
X277331225Y-134683250D01*
X277323750Y-134683250D01*
X277243750Y-134763250D01*
X277163750Y-134683250D01*
X277156275Y-134683250D01*
X277116750Y-134643724D01*
X277116750Y-134636250D01*
X277036750Y-134556250D01*
X277116750Y-134476250D01*
X277116750Y-134468776D01*
X277156275Y-134429250D01*
X277163750Y-134429250D01*
X277243750Y-134349250D01*
X277323750Y-134429250D01*
X277323750Y-134429250D01*
G37*
X277323750Y-134429250D02*
X277331225Y-134429250D01*
X277370750Y-134468776D01*
X277370750Y-134476250D01*
X277450750Y-134556250D01*
X277370750Y-134636250D01*
X277370750Y-134643724D01*
X277331225Y-134683250D01*
X277323750Y-134683250D01*
X277243750Y-134763250D01*
X277163750Y-134683250D01*
X277156275Y-134683250D01*
X277116750Y-134643724D01*
X277116750Y-134636250D01*
X277036750Y-134556250D01*
X277116750Y-134476250D01*
X277116750Y-134468776D01*
X277156275Y-134429250D01*
X277163750Y-134429250D01*
X277243750Y-134349250D01*
X277323750Y-134429250D01*
G36*
X278436250Y-134429250D02*
X278443725Y-134429250D01*
X278483250Y-134468776D01*
X278483250Y-134476250D01*
X278563250Y-134556250D01*
X278483250Y-134636250D01*
X278483250Y-134643724D01*
X278443725Y-134683250D01*
X278436250Y-134683250D01*
X278356250Y-134763250D01*
X278276250Y-134683250D01*
X278268775Y-134683250D01*
X278229250Y-134643724D01*
X278229250Y-134636250D01*
X278149250Y-134556250D01*
X278229250Y-134476250D01*
X278229250Y-134468776D01*
X278268775Y-134429250D01*
X278276250Y-134429250D01*
X278356250Y-134349250D01*
X278436250Y-134429250D01*
X278436250Y-134429250D01*
G37*
X278436250Y-134429250D02*
X278443725Y-134429250D01*
X278483250Y-134468776D01*
X278483250Y-134476250D01*
X278563250Y-134556250D01*
X278483250Y-134636250D01*
X278483250Y-134643724D01*
X278443725Y-134683250D01*
X278436250Y-134683250D01*
X278356250Y-134763250D01*
X278276250Y-134683250D01*
X278268775Y-134683250D01*
X278229250Y-134643724D01*
X278229250Y-134636250D01*
X278149250Y-134556250D01*
X278229250Y-134476250D01*
X278229250Y-134468776D01*
X278268775Y-134429250D01*
X278276250Y-134429250D01*
X278356250Y-134349250D01*
X278436250Y-134429250D01*
G36*
X278436250Y-133316750D02*
X278443725Y-133316750D01*
X278483250Y-133356276D01*
X278483250Y-133363750D01*
X278563250Y-133443750D01*
X278483250Y-133523750D01*
X278483250Y-133531224D01*
X278443725Y-133570750D01*
X278436250Y-133570750D01*
X278356250Y-133650750D01*
X278276250Y-133570750D01*
X278268775Y-133570750D01*
X278229250Y-133531224D01*
X278229250Y-133523750D01*
X278149250Y-133443750D01*
X278229250Y-133363750D01*
X278229250Y-133356276D01*
X278268775Y-133316750D01*
X278276250Y-133316750D01*
X278356250Y-133236750D01*
X278436250Y-133316750D01*
X278436250Y-133316750D01*
G37*
X278436250Y-133316750D02*
X278443725Y-133316750D01*
X278483250Y-133356276D01*
X278483250Y-133363750D01*
X278563250Y-133443750D01*
X278483250Y-133523750D01*
X278483250Y-133531224D01*
X278443725Y-133570750D01*
X278436250Y-133570750D01*
X278356250Y-133650750D01*
X278276250Y-133570750D01*
X278268775Y-133570750D01*
X278229250Y-133531224D01*
X278229250Y-133523750D01*
X278149250Y-133443750D01*
X278229250Y-133363750D01*
X278229250Y-133356276D01*
X278268775Y-133316750D01*
X278276250Y-133316750D01*
X278356250Y-133236750D01*
X278436250Y-133316750D01*
G36*
X277323750Y-133316750D02*
X277331225Y-133316750D01*
X277370750Y-133356276D01*
X277370750Y-133363750D01*
X277450750Y-133443750D01*
X277370750Y-133523750D01*
X277370750Y-133531224D01*
X277331225Y-133570750D01*
X277323750Y-133570750D01*
X277243750Y-133650750D01*
X277163750Y-133570750D01*
X277156275Y-133570750D01*
X277116750Y-133531224D01*
X277116750Y-133523750D01*
X277036750Y-133443750D01*
X277116750Y-133363750D01*
X277116750Y-133356276D01*
X277156275Y-133316750D01*
X277163750Y-133316750D01*
X277243750Y-133236750D01*
X277323750Y-133316750D01*
X277323750Y-133316750D01*
G37*
X277323750Y-133316750D02*
X277331225Y-133316750D01*
X277370750Y-133356276D01*
X277370750Y-133363750D01*
X277450750Y-133443750D01*
X277370750Y-133523750D01*
X277370750Y-133531224D01*
X277331225Y-133570750D01*
X277323750Y-133570750D01*
X277243750Y-133650750D01*
X277163750Y-133570750D01*
X277156275Y-133570750D01*
X277116750Y-133531224D01*
X277116750Y-133523750D01*
X277036750Y-133443750D01*
X277116750Y-133363750D01*
X277116750Y-133356276D01*
X277156275Y-133316750D01*
X277163750Y-133316750D01*
X277243750Y-133236750D01*
X277323750Y-133316750D01*
G36*
X286393170Y-134850280D02*
X286393170Y-134899994D01*
X286161950Y-134995768D01*
X286102079Y-134983859D01*
X286025220Y-134907000D01*
X285449275Y-134907000D01*
X285449275Y-134927000D01*
X285297250Y-134927000D01*
X285297250Y-134633000D01*
X285449275Y-134633000D01*
X285449275Y-134653000D01*
X285750262Y-134653000D01*
X285821450Y-134667160D01*
X286220230Y-134667160D01*
X286438219Y-134623800D01*
X286393170Y-134850280D01*
X286393170Y-134850280D01*
G37*
X286393170Y-134850280D02*
X286393170Y-134899994D01*
X286161950Y-134995768D01*
X286102079Y-134983859D01*
X286025220Y-134907000D01*
X285449275Y-134907000D01*
X285449275Y-134927000D01*
X285297250Y-134927000D01*
X285297250Y-134633000D01*
X285449275Y-134633000D01*
X285449275Y-134653000D01*
X285750262Y-134653000D01*
X285821450Y-134667160D01*
X286220230Y-134667160D01*
X286438219Y-134623800D01*
X286393170Y-134850280D01*
G36*
X272900280Y-134497250D02*
X273347000Y-134497250D01*
X273347000Y-134649275D01*
X273327000Y-134649275D01*
X273327000Y-134696580D01*
X273073000Y-134696580D01*
X273073000Y-134649275D01*
X272424030Y-134649275D01*
X272346305Y-134727000D01*
X272327000Y-134727000D01*
X272327000Y-134746305D01*
X272326305Y-134747000D01*
X272073000Y-134747000D01*
X272073000Y-134727000D01*
X272066481Y-134727000D01*
X272159747Y-134587418D01*
X272167699Y-134547440D01*
X272650000Y-134547440D01*
X272897765Y-134498157D01*
X272899388Y-134497073D01*
X272900280Y-134497250D01*
X272900280Y-134497250D01*
G37*
X272900280Y-134497250D02*
X273347000Y-134497250D01*
X273347000Y-134649275D01*
X273327000Y-134649275D01*
X273327000Y-134696580D01*
X273073000Y-134696580D01*
X273073000Y-134649275D01*
X272424030Y-134649275D01*
X272346305Y-134727000D01*
X272327000Y-134727000D01*
X272327000Y-134746305D01*
X272326305Y-134747000D01*
X272073000Y-134747000D01*
X272073000Y-134727000D01*
X272066481Y-134727000D01*
X272159747Y-134587418D01*
X272167699Y-134547440D01*
X272650000Y-134547440D01*
X272897765Y-134498157D01*
X272899388Y-134497073D01*
X272900280Y-134497250D01*
G36*
X287067000Y-133847000D02*
X287019695Y-133847000D01*
X287019695Y-133867000D01*
X286879345Y-133867000D01*
X287043236Y-133703109D01*
X287067000Y-133687230D01*
X287067000Y-133847000D01*
X287067000Y-133847000D01*
G37*
X287067000Y-133847000D02*
X287019695Y-133847000D01*
X287019695Y-133867000D01*
X286879345Y-133867000D01*
X287043236Y-133703109D01*
X287067000Y-133687230D01*
X287067000Y-133847000D01*
G36*
X273202750Y-129749720D02*
X273250115Y-129987842D01*
X273250115Y-130225970D01*
X273400422Y-130376277D01*
X272677000Y-131110942D01*
X272677000Y-130323532D01*
X272824721Y-130384720D01*
X272891975Y-130384720D01*
X273050725Y-130225970D01*
X273050725Y-129577000D01*
X273003420Y-129577000D01*
X273003420Y-129323000D01*
X273050725Y-129323000D01*
X273050725Y-129303000D01*
X273202750Y-129303000D01*
X273202750Y-129749720D01*
X273202750Y-129749720D01*
G37*
X273202750Y-129749720D02*
X273250115Y-129987842D01*
X273250115Y-130225970D01*
X273400422Y-130376277D01*
X272677000Y-131110942D01*
X272677000Y-130323532D01*
X272824721Y-130384720D01*
X272891975Y-130384720D01*
X273050725Y-130225970D01*
X273050725Y-129577000D01*
X273003420Y-129577000D01*
X273003420Y-129323000D01*
X273050725Y-129323000D01*
X273050725Y-129303000D01*
X273202750Y-129303000D01*
X273202750Y-129749720D01*
G36*
X280315680Y-126228663D02*
X280103000Y-126742119D01*
X280103000Y-127297881D01*
X280136277Y-127378218D01*
X279906762Y-127607733D01*
X279847399Y-127647398D01*
X279807734Y-127706761D01*
X279807732Y-127706763D01*
X279703924Y-127862123D01*
X279690254Y-127882582D01*
X279666407Y-128002471D01*
X279635072Y-128160000D01*
X279649001Y-128230025D01*
X279649000Y-129425494D01*
X279146762Y-129927733D01*
X279109606Y-129952560D01*
X279100000Y-129952560D01*
X279000000Y-129972451D01*
X278900000Y-129952560D01*
X278749500Y-129952560D01*
X278749500Y-129875861D01*
X278757809Y-129870309D01*
X278898157Y-129660265D01*
X278947440Y-129412500D01*
X278947440Y-129225092D01*
X279036199Y-129188327D01*
X279214827Y-129009698D01*
X279311500Y-128776309D01*
X279311500Y-128733750D01*
X279152750Y-128575000D01*
X278900199Y-128575000D01*
X278898157Y-128564735D01*
X278854902Y-128500000D01*
X278898157Y-128435265D01*
X278900199Y-128425000D01*
X279152750Y-128425000D01*
X279311500Y-128266250D01*
X279311500Y-128223691D01*
X279214827Y-127990302D01*
X279036199Y-127811673D01*
X278947440Y-127774908D01*
X278947440Y-127587500D01*
X278898157Y-127339735D01*
X278757809Y-127129691D01*
X278547765Y-126989343D01*
X278300000Y-126940060D01*
X278217107Y-126940060D01*
X278136960Y-126886507D01*
X277885053Y-126836400D01*
X277885049Y-126836400D01*
X277800000Y-126819483D01*
X277714951Y-126836400D01*
X276548034Y-126836400D01*
X276496735Y-126802123D01*
X276248970Y-126752840D01*
X275850190Y-126752840D01*
X275602425Y-126802123D01*
X275600000Y-126803743D01*
X275597575Y-126802123D01*
X275349810Y-126752840D01*
X274951030Y-126752840D01*
X274703265Y-126802123D01*
X274654061Y-126835000D01*
X274457630Y-126835000D01*
X274299720Y-126803590D01*
X273700280Y-126803590D01*
X273544481Y-126834580D01*
X273345310Y-126834580D01*
X273296735Y-126802123D01*
X273048970Y-126752840D01*
X272677000Y-126752840D01*
X272677000Y-126185000D01*
X280359343Y-126185000D01*
X280315680Y-126228663D01*
X280315680Y-126228663D01*
G37*
X280315680Y-126228663D02*
X280103000Y-126742119D01*
X280103000Y-127297881D01*
X280136277Y-127378218D01*
X279906762Y-127607733D01*
X279847399Y-127647398D01*
X279807734Y-127706761D01*
X279807732Y-127706763D01*
X279703924Y-127862123D01*
X279690254Y-127882582D01*
X279666407Y-128002471D01*
X279635072Y-128160000D01*
X279649001Y-128230025D01*
X279649000Y-129425494D01*
X279146762Y-129927733D01*
X279109606Y-129952560D01*
X279100000Y-129952560D01*
X279000000Y-129972451D01*
X278900000Y-129952560D01*
X278749500Y-129952560D01*
X278749500Y-129875861D01*
X278757809Y-129870309D01*
X278898157Y-129660265D01*
X278947440Y-129412500D01*
X278947440Y-129225092D01*
X279036199Y-129188327D01*
X279214827Y-129009698D01*
X279311500Y-128776309D01*
X279311500Y-128733750D01*
X279152750Y-128575000D01*
X278900199Y-128575000D01*
X278898157Y-128564735D01*
X278854902Y-128500000D01*
X278898157Y-128435265D01*
X278900199Y-128425000D01*
X279152750Y-128425000D01*
X279311500Y-128266250D01*
X279311500Y-128223691D01*
X279214827Y-127990302D01*
X279036199Y-127811673D01*
X278947440Y-127774908D01*
X278947440Y-127587500D01*
X278898157Y-127339735D01*
X278757809Y-127129691D01*
X278547765Y-126989343D01*
X278300000Y-126940060D01*
X278217107Y-126940060D01*
X278136960Y-126886507D01*
X277885053Y-126836400D01*
X277885049Y-126836400D01*
X277800000Y-126819483D01*
X277714951Y-126836400D01*
X276548034Y-126836400D01*
X276496735Y-126802123D01*
X276248970Y-126752840D01*
X275850190Y-126752840D01*
X275602425Y-126802123D01*
X275600000Y-126803743D01*
X275597575Y-126802123D01*
X275349810Y-126752840D01*
X274951030Y-126752840D01*
X274703265Y-126802123D01*
X274654061Y-126835000D01*
X274457630Y-126835000D01*
X274299720Y-126803590D01*
X273700280Y-126803590D01*
X273544481Y-126834580D01*
X273345310Y-126834580D01*
X273296735Y-126802123D01*
X273048970Y-126752840D01*
X272677000Y-126752840D01*
X272677000Y-126185000D01*
X280359343Y-126185000D01*
X280315680Y-126228663D01*
G36*
X276652500Y-128627002D02*
X276759248Y-128627002D01*
X276656053Y-128730198D01*
X276615970Y-128690115D01*
X276377842Y-128690115D01*
X276161891Y-128647160D01*
X276248970Y-128647160D01*
X276496735Y-128597877D01*
X276548034Y-128563600D01*
X276652500Y-128563600D01*
X276652500Y-128627002D01*
X276652500Y-128627002D01*
G37*
X276652500Y-128627002D02*
X276759248Y-128627002D01*
X276656053Y-128730198D01*
X276615970Y-128690115D01*
X276377842Y-128690115D01*
X276161891Y-128647160D01*
X276248970Y-128647160D01*
X276496735Y-128597877D01*
X276548034Y-128563600D01*
X276652500Y-128563600D01*
X276652500Y-128627002D01*
G36*
X275828019Y-128642750D02*
X275693000Y-128642750D01*
X275693000Y-128615893D01*
X275828019Y-128642750D01*
X275828019Y-128642750D01*
G37*
X275828019Y-128642750D02*
X275693000Y-128642750D01*
X275693000Y-128615893D01*
X275828019Y-128642750D01*
G36*
X285877000Y-127953000D02*
X285897000Y-127953000D01*
X285897000Y-128207000D01*
X285877000Y-128207000D01*
X285877000Y-128227000D01*
X285623000Y-128227000D01*
X285623000Y-128207000D01*
X285603000Y-128207000D01*
X285603000Y-127953000D01*
X285623000Y-127953000D01*
X285623000Y-127933000D01*
X285877000Y-127933000D01*
X285877000Y-127953000D01*
X285877000Y-127953000D01*
G37*
X285877000Y-127953000D02*
X285897000Y-127953000D01*
X285897000Y-128207000D01*
X285877000Y-128207000D01*
X285877000Y-128227000D01*
X285623000Y-128227000D01*
X285623000Y-128207000D01*
X285603000Y-128207000D01*
X285603000Y-127953000D01*
X285623000Y-127953000D01*
X285623000Y-127933000D01*
X285877000Y-127933000D01*
X285877000Y-127953000D01*
G36*
X284015000Y-126203691D02*
X284015000Y-126296250D01*
X284051310Y-126332560D01*
X284000000Y-126332560D01*
X283752235Y-126381843D01*
X283542191Y-126522191D01*
X283401843Y-126732235D01*
X283386176Y-126811000D01*
X283143167Y-126811000D01*
X282897000Y-126912966D01*
X282897000Y-126742119D01*
X282684320Y-126228663D01*
X282640657Y-126185000D01*
X284022742Y-126185000D01*
X284015000Y-126203691D01*
X284015000Y-126203691D01*
G37*
X284015000Y-126203691D02*
X284015000Y-126296250D01*
X284051310Y-126332560D01*
X284000000Y-126332560D01*
X283752235Y-126381843D01*
X283542191Y-126522191D01*
X283401843Y-126732235D01*
X283386176Y-126811000D01*
X283143167Y-126811000D01*
X282897000Y-126912966D01*
X282897000Y-126742119D01*
X282684320Y-126228663D01*
X282640657Y-126185000D01*
X284022742Y-126185000D01*
X284015000Y-126203691D01*
G04 #@! TD*
M02*
