G04 #@! TF.GenerationSoftware,KiCad,Pcbnew,(5.0.0)*
G04 #@! TF.CreationDate,2019-04-04T15:00:13-04:00*
G04 #@! TF.ProjectId,motion_ppg,6D6F74696F6E5F7070672E6B69636164,rev?*
G04 #@! TF.SameCoordinates,Original*
G04 #@! TF.FileFunction,Legend,Top*
G04 #@! TF.FilePolarity,Positive*
%FSLAX46Y46*%
G04 Gerber Fmt 4.6, Leading zero omitted, Abs format (unit mm)*
G04 Created by KiCad (PCBNEW (5.0.0)) date 04/04/19 15:00:13*
%MOMM*%
%LPD*%
G01*
G04 APERTURE LIST*
%ADD10C,0.090000*%
%ADD11C,0.070000*%
%ADD12C,0.100000*%
%ADD13C,0.200000*%
%ADD14C,0.150000*%
%ADD15C,0.125000*%
%ADD16C,0.500000*%
%ADD17C,0.120000*%
%ADD18C,0.071120*%
%ADD19C,0.152400*%
%ADD20C,0.127000*%
%ADD21C,0.080000*%
%ADD22C,0.114300*%
%ADD23C,0.092000*%
%ADD24C,0.095000*%
G04 APERTURE END LIST*
D10*
X287817142Y-130381428D02*
X287817142Y-129781428D01*
X288445714Y-130324285D02*
X288417142Y-130352857D01*
X288331428Y-130381428D01*
X288274285Y-130381428D01*
X288188571Y-130352857D01*
X288131428Y-130295714D01*
X288102857Y-130238571D01*
X288074285Y-130124285D01*
X288074285Y-130038571D01*
X288102857Y-129924285D01*
X288131428Y-129867142D01*
X288188571Y-129810000D01*
X288274285Y-129781428D01*
X288331428Y-129781428D01*
X288417142Y-129810000D01*
X288445714Y-129838571D01*
X288702857Y-130381428D02*
X288702857Y-129781428D01*
X288902857Y-130210000D01*
X289102857Y-129781428D01*
X289102857Y-130381428D01*
D11*
X290637142Y-145482857D02*
X290665714Y-145397142D01*
X290694285Y-145368571D01*
X290751428Y-145340000D01*
X290837142Y-145340000D01*
X290894285Y-145368571D01*
X290922857Y-145397142D01*
X290951428Y-145454285D01*
X290951428Y-145682857D01*
X290351428Y-145682857D01*
X290351428Y-145482857D01*
X290380000Y-145425714D01*
X290408571Y-145397142D01*
X290465714Y-145368571D01*
X290522857Y-145368571D01*
X290580000Y-145397142D01*
X290608571Y-145425714D01*
X290637142Y-145482857D01*
X290637142Y-145682857D01*
X290780000Y-145111428D02*
X290780000Y-144825714D01*
X290951428Y-145168571D02*
X290351428Y-144968571D01*
X290951428Y-144768571D01*
X290351428Y-144654285D02*
X290351428Y-144311428D01*
X290951428Y-144482857D02*
X290351428Y-144482857D01*
X290351428Y-144197142D02*
X290351428Y-143854285D01*
X290951428Y-144025714D02*
X290351428Y-144025714D01*
X290722857Y-143654285D02*
X290722857Y-143197142D01*
X290951428Y-143425714D02*
X290494285Y-143425714D01*
D12*
X294029285Y-144712857D02*
X294029285Y-145070000D01*
X294386428Y-145105714D01*
X294350714Y-145070000D01*
X294315000Y-144998571D01*
X294315000Y-144820000D01*
X294350714Y-144748571D01*
X294386428Y-144712857D01*
X294457857Y-144677142D01*
X294636428Y-144677142D01*
X294707857Y-144712857D01*
X294743571Y-144748571D01*
X294779285Y-144820000D01*
X294779285Y-144998571D01*
X294743571Y-145070000D01*
X294707857Y-145105714D01*
X294029285Y-144462857D02*
X294779285Y-144212857D01*
X294029285Y-143962857D01*
X290205000Y-142221428D02*
X290169285Y-142292857D01*
X290169285Y-142400000D01*
X290205000Y-142507142D01*
X290276428Y-142578571D01*
X290347857Y-142614285D01*
X290490714Y-142650000D01*
X290597857Y-142650000D01*
X290740714Y-142614285D01*
X290812142Y-142578571D01*
X290883571Y-142507142D01*
X290919285Y-142400000D01*
X290919285Y-142328571D01*
X290883571Y-142221428D01*
X290847857Y-142185714D01*
X290597857Y-142185714D01*
X290597857Y-142328571D01*
X290919285Y-141864285D02*
X290169285Y-141864285D01*
X290919285Y-141435714D01*
X290169285Y-141435714D01*
X290919285Y-141078571D02*
X290169285Y-141078571D01*
X290169285Y-140900000D01*
X290205000Y-140792857D01*
X290276428Y-140721428D01*
X290347857Y-140685714D01*
X290490714Y-140650000D01*
X290597857Y-140650000D01*
X290740714Y-140685714D01*
X290812142Y-140721428D01*
X290883571Y-140792857D01*
X290919285Y-140900000D01*
X290919285Y-141078571D01*
D10*
X266484285Y-144201428D02*
X266827142Y-144201428D01*
X266655714Y-144801428D02*
X266655714Y-144201428D01*
X267027142Y-144801428D02*
X267027142Y-144201428D01*
X267255714Y-144201428D01*
X267312857Y-144230000D01*
X267341428Y-144258571D01*
X267370000Y-144315714D01*
X267370000Y-144401428D01*
X267341428Y-144458571D01*
X267312857Y-144487142D01*
X267255714Y-144515714D01*
X267027142Y-144515714D01*
X267598571Y-144772857D02*
X267684285Y-144801428D01*
X267827142Y-144801428D01*
X267884285Y-144772857D01*
X267912857Y-144744285D01*
X267941428Y-144687142D01*
X267941428Y-144630000D01*
X267912857Y-144572857D01*
X267884285Y-144544285D01*
X267827142Y-144515714D01*
X267712857Y-144487142D01*
X267655714Y-144458571D01*
X267627142Y-144430000D01*
X267598571Y-144372857D01*
X267598571Y-144315714D01*
X267627142Y-144258571D01*
X267655714Y-144230000D01*
X267712857Y-144201428D01*
X267855714Y-144201428D01*
X267941428Y-144230000D01*
X268455714Y-144201428D02*
X268341428Y-144201428D01*
X268284285Y-144230000D01*
X268255714Y-144258571D01*
X268198571Y-144344285D01*
X268170000Y-144458571D01*
X268170000Y-144687142D01*
X268198571Y-144744285D01*
X268227142Y-144772857D01*
X268284285Y-144801428D01*
X268398571Y-144801428D01*
X268455714Y-144772857D01*
X268484285Y-144744285D01*
X268512857Y-144687142D01*
X268512857Y-144544285D01*
X268484285Y-144487142D01*
X268455714Y-144458571D01*
X268398571Y-144430000D01*
X268284285Y-144430000D01*
X268227142Y-144458571D01*
X268198571Y-144487142D01*
X268170000Y-144544285D01*
X268712857Y-144201428D02*
X269084285Y-144201428D01*
X268884285Y-144430000D01*
X268970000Y-144430000D01*
X269027142Y-144458571D01*
X269055714Y-144487142D01*
X269084285Y-144544285D01*
X269084285Y-144687142D01*
X269055714Y-144744285D01*
X269027142Y-144772857D01*
X268970000Y-144801428D01*
X268798571Y-144801428D01*
X268741428Y-144772857D01*
X268712857Y-144744285D01*
X269455714Y-144201428D02*
X269512857Y-144201428D01*
X269570000Y-144230000D01*
X269598571Y-144258571D01*
X269627142Y-144315714D01*
X269655714Y-144430000D01*
X269655714Y-144572857D01*
X269627142Y-144687142D01*
X269598571Y-144744285D01*
X269570000Y-144772857D01*
X269512857Y-144801428D01*
X269455714Y-144801428D01*
X269398571Y-144772857D01*
X269370000Y-144744285D01*
X269341428Y-144687142D01*
X269312857Y-144572857D01*
X269312857Y-144430000D01*
X269341428Y-144315714D01*
X269370000Y-144258571D01*
X269398571Y-144230000D01*
X269455714Y-144201428D01*
X270027142Y-144201428D02*
X270084285Y-144201428D01*
X270141428Y-144230000D01*
X270170000Y-144258571D01*
X270198571Y-144315714D01*
X270227142Y-144430000D01*
X270227142Y-144572857D01*
X270198571Y-144687142D01*
X270170000Y-144744285D01*
X270141428Y-144772857D01*
X270084285Y-144801428D01*
X270027142Y-144801428D01*
X269970000Y-144772857D01*
X269941428Y-144744285D01*
X269912857Y-144687142D01*
X269884285Y-144572857D01*
X269884285Y-144430000D01*
X269912857Y-144315714D01*
X269941428Y-144258571D01*
X269970000Y-144230000D01*
X270027142Y-144201428D01*
X270798571Y-144801428D02*
X270455714Y-144801428D01*
X270627142Y-144801428D02*
X270627142Y-144201428D01*
X270570000Y-144287142D01*
X270512857Y-144344285D01*
X270455714Y-144372857D01*
D13*
X277550000Y-129140000D02*
X278460000Y-129140000D01*
X277980000Y-128770000D02*
X277980000Y-128700000D01*
X278000000Y-130530000D02*
X278000000Y-129530000D01*
D12*
X279976666Y-127633333D02*
X279276666Y-127633333D01*
X279243333Y-126800000D02*
X280143333Y-127400000D01*
X279276666Y-126433333D02*
X279276666Y-126300000D01*
X279310000Y-126233333D01*
X279376666Y-126166666D01*
X279510000Y-126133333D01*
X279743333Y-126133333D01*
X279876666Y-126166666D01*
X279943333Y-126233333D01*
X279976666Y-126300000D01*
X279976666Y-126433333D01*
X279943333Y-126500000D01*
X279876666Y-126566666D01*
X279743333Y-126600000D01*
X279510000Y-126600000D01*
X279376666Y-126566666D01*
X279310000Y-126500000D01*
X279276666Y-126433333D01*
D13*
X265900000Y-132000000D02*
X265900000Y-125500000D01*
X272400000Y-132000000D02*
X265900000Y-132000000D01*
X272400000Y-125500000D02*
X272400000Y-132000000D01*
X265900000Y-125500000D02*
X272400000Y-125500000D01*
X284232500Y-149712500D02*
X284332500Y-149612500D01*
X284232500Y-149812500D02*
X284332500Y-149812500D01*
D14*
X285032500Y-149712500D02*
X283332500Y-149712500D01*
X283932500Y-150112500D02*
X283932500Y-149312500D01*
D13*
X284432500Y-149312500D02*
X284032500Y-149712500D01*
X284432500Y-150112500D02*
X284032500Y-149712500D01*
X284432500Y-149312500D02*
X284432500Y-150112500D01*
D15*
X282254285Y-131504761D02*
X281587619Y-131504761D01*
X282159047Y-131504761D02*
X282206666Y-131552380D01*
X282254285Y-131647619D01*
X282254285Y-131790476D01*
X282206666Y-131885714D01*
X282111428Y-131933333D01*
X281587619Y-131933333D01*
X281587619Y-132980952D02*
X282063809Y-132647619D01*
X281587619Y-132409523D02*
X282587619Y-132409523D01*
X282587619Y-132790476D01*
X282540000Y-132885714D01*
X282492380Y-132933333D01*
X282397142Y-132980952D01*
X282254285Y-132980952D01*
X282159047Y-132933333D01*
X282111428Y-132885714D01*
X282063809Y-132790476D01*
X282063809Y-132409523D01*
X282111428Y-133742857D02*
X282111428Y-133409523D01*
X281587619Y-133409523D02*
X282587619Y-133409523D01*
X282587619Y-133885714D01*
X282587619Y-134742857D02*
X282587619Y-134266666D01*
X282111428Y-134219047D01*
X282159047Y-134266666D01*
X282206666Y-134361904D01*
X282206666Y-134600000D01*
X282159047Y-134695238D01*
X282111428Y-134742857D01*
X282016190Y-134790476D01*
X281778095Y-134790476D01*
X281682857Y-134742857D01*
X281635238Y-134695238D01*
X281587619Y-134600000D01*
X281587619Y-134361904D01*
X281635238Y-134266666D01*
X281682857Y-134219047D01*
X282492380Y-135171428D02*
X282540000Y-135219047D01*
X282587619Y-135314285D01*
X282587619Y-135552380D01*
X282540000Y-135647619D01*
X282492380Y-135695238D01*
X282397142Y-135742857D01*
X282301904Y-135742857D01*
X282159047Y-135695238D01*
X281587619Y-135123809D01*
X281587619Y-135742857D01*
D13*
X270243607Y-139655000D02*
G75*
G03X270243607Y-139655000I-223607J0D01*
G01*
X275033113Y-137010000D02*
G75*
G03X275033113Y-137010000I-403113J0D01*
G01*
D12*
X280000000Y-129816666D02*
X280033333Y-129850000D01*
X280066666Y-129950000D01*
X280066666Y-130016666D01*
X280033333Y-130116666D01*
X279966666Y-130183333D01*
X279900000Y-130216666D01*
X279766666Y-130250000D01*
X279666666Y-130250000D01*
X279533333Y-130216666D01*
X279466666Y-130183333D01*
X279400000Y-130116666D01*
X279366666Y-130016666D01*
X279366666Y-129950000D01*
X279400000Y-129850000D01*
X279433333Y-129816666D01*
X280066666Y-129183333D02*
X280066666Y-129516666D01*
X279366666Y-129516666D01*
X280066666Y-128950000D02*
X279366666Y-128950000D01*
X280066666Y-128550000D02*
X279666666Y-128850000D01*
X279366666Y-128550000D02*
X279766666Y-128950000D01*
X293875000Y-142491428D02*
X293839285Y-142562857D01*
X293839285Y-142670000D01*
X293875000Y-142777142D01*
X293946428Y-142848571D01*
X294017857Y-142884285D01*
X294160714Y-142920000D01*
X294267857Y-142920000D01*
X294410714Y-142884285D01*
X294482142Y-142848571D01*
X294553571Y-142777142D01*
X294589285Y-142670000D01*
X294589285Y-142598571D01*
X294553571Y-142491428D01*
X294517857Y-142455714D01*
X294267857Y-142455714D01*
X294267857Y-142598571D01*
X294589285Y-142134285D02*
X293839285Y-142134285D01*
X294589285Y-141705714D01*
X293839285Y-141705714D01*
X294589285Y-141348571D02*
X293839285Y-141348571D01*
X293839285Y-141170000D01*
X293875000Y-141062857D01*
X293946428Y-140991428D01*
X294017857Y-140955714D01*
X294160714Y-140920000D01*
X294267857Y-140920000D01*
X294410714Y-140955714D01*
X294482142Y-140991428D01*
X294553571Y-141062857D01*
X294589285Y-141170000D01*
X294589285Y-141348571D01*
X269199285Y-137921428D02*
X269949285Y-137671428D01*
X269199285Y-137421428D01*
X269949285Y-137171428D02*
X269199285Y-137171428D01*
X269949285Y-136814285D02*
X269199285Y-136814285D01*
X269949285Y-136385714D01*
X269199285Y-136385714D01*
D16*
X269900000Y-127673000D02*
X269320000Y-127673000D01*
D17*
G04 #@! TO.C,U5*
X283110000Y-136340000D02*
X283110000Y-138790000D01*
X286330000Y-138140000D02*
X286330000Y-136340000D01*
D18*
G04 #@! TO.C,C10*
X290601000Y-135068000D02*
X290601000Y-135576000D01*
X289839000Y-135068000D02*
X290601000Y-135068000D01*
X289839000Y-135576000D02*
X289839000Y-135068000D01*
X290601000Y-136592000D02*
X290601000Y-136084000D01*
X289839000Y-136592000D02*
X290601000Y-136592000D01*
X289839000Y-136084000D02*
X289839000Y-136592000D01*
G04 #@! TO.C,C9*
X288199000Y-134044000D02*
X288199000Y-134552000D01*
X288199000Y-134552000D02*
X288961000Y-134552000D01*
X288961000Y-134552000D02*
X288961000Y-134044000D01*
X288199000Y-133536000D02*
X288199000Y-133028000D01*
X288199000Y-133028000D02*
X288961000Y-133028000D01*
X288961000Y-133028000D02*
X288961000Y-133536000D01*
G04 #@! TO.C,C7*
X286277580Y-132319000D02*
X286785580Y-132319000D01*
X286277580Y-133081000D02*
X286277580Y-132319000D01*
X286785580Y-133081000D02*
X286277580Y-133081000D01*
X287801580Y-132319000D02*
X287293580Y-132319000D01*
X287801580Y-133081000D02*
X287801580Y-132319000D01*
X287293580Y-133081000D02*
X287801580Y-133081000D01*
G04 #@! TO.C,R8*
X285723580Y-139951000D02*
X286231580Y-139951000D01*
X286231580Y-139951000D02*
X286231580Y-139189000D01*
X286231580Y-139189000D02*
X285723580Y-139189000D01*
X285215580Y-139951000D02*
X284707580Y-139951000D01*
X284707580Y-139951000D02*
X284707580Y-139189000D01*
X284707580Y-139189000D02*
X285215580Y-139189000D01*
G04 #@! TO.C,R6*
X286927580Y-134769000D02*
X287435580Y-134769000D01*
X286927580Y-135531000D02*
X286927580Y-134769000D01*
X287435580Y-135531000D02*
X286927580Y-135531000D01*
X288451580Y-134769000D02*
X287943580Y-134769000D01*
X288451580Y-135531000D02*
X288451580Y-134769000D01*
X287943580Y-135531000D02*
X288451580Y-135531000D01*
G04 #@! TO.C,R4*
X287329000Y-138674000D02*
X287329000Y-139182000D01*
X287329000Y-139182000D02*
X288091000Y-139182000D01*
X288091000Y-139182000D02*
X288091000Y-138674000D01*
X287329000Y-138166000D02*
X287329000Y-137658000D01*
X287329000Y-137658000D02*
X288091000Y-137658000D01*
X288091000Y-137658000D02*
X288091000Y-138166000D01*
G04 #@! TO.C,R3*
X288081000Y-135828000D02*
X288081000Y-136336000D01*
X287319000Y-135828000D02*
X288081000Y-135828000D01*
X287319000Y-136336000D02*
X287319000Y-135828000D01*
X288081000Y-137352000D02*
X288081000Y-136844000D01*
X287319000Y-137352000D02*
X288081000Y-137352000D01*
X287319000Y-136844000D02*
X287319000Y-137352000D01*
G04 #@! TO.C,R2*
X286724420Y-134101000D02*
X287232420Y-134101000D01*
X287232420Y-134101000D02*
X287232420Y-133339000D01*
X287232420Y-133339000D02*
X286724420Y-133339000D01*
X286216420Y-134101000D02*
X285708420Y-134101000D01*
X285708420Y-134101000D02*
X285708420Y-133339000D01*
X285708420Y-133339000D02*
X286216420Y-133339000D01*
G04 #@! TO.C,C6*
X284646000Y-134399000D02*
X284138000Y-134399000D01*
X284138000Y-134399000D02*
X284138000Y-135161000D01*
X284138000Y-135161000D02*
X284646000Y-135161000D01*
X285154000Y-134399000D02*
X285662000Y-134399000D01*
X285662000Y-134399000D02*
X285662000Y-135161000D01*
X285662000Y-135161000D02*
X285154000Y-135161000D01*
G04 #@! TO.C,R1*
X285738420Y-131339000D02*
X286246420Y-131339000D01*
X285738420Y-132101000D02*
X285738420Y-131339000D01*
X286246420Y-132101000D02*
X285738420Y-132101000D01*
X287262420Y-131339000D02*
X286754420Y-131339000D01*
X287262420Y-132101000D02*
X287262420Y-131339000D01*
X286754420Y-132101000D02*
X287262420Y-132101000D01*
D17*
G04 #@! TO.C,U2*
X274670000Y-142190000D02*
X274670000Y-142940000D01*
X274670000Y-142190000D02*
X274670000Y-142190000D01*
X275420000Y-142190000D02*
X274670000Y-142190000D01*
X274870000Y-144490000D02*
X275970000Y-144490000D01*
X275970000Y-142390000D02*
X275970000Y-144490000D01*
X275970000Y-142390000D02*
X274870000Y-142390000D01*
X274870000Y-142390000D02*
X274870000Y-144490000D01*
D18*
G04 #@! TO.C,C5*
X277811000Y-142585580D02*
X277811000Y-142077580D01*
X277811000Y-142077580D02*
X277049000Y-142077580D01*
X277049000Y-142077580D02*
X277049000Y-142585580D01*
X277811000Y-143093580D02*
X277811000Y-143601580D01*
X277811000Y-143601580D02*
X277049000Y-143601580D01*
X277049000Y-143601580D02*
X277049000Y-143093580D01*
G04 #@! TO.C,C3*
X276931000Y-142688420D02*
X276931000Y-143196420D01*
X276169000Y-142688420D02*
X276931000Y-142688420D01*
X276169000Y-143196420D02*
X276169000Y-142688420D01*
X276931000Y-144212420D02*
X276931000Y-143704420D01*
X276169000Y-144212420D02*
X276931000Y-144212420D01*
X276169000Y-143704420D02*
X276169000Y-144212420D01*
D17*
G04 #@! TO.C,L1*
X268079721Y-138440000D02*
X268405279Y-138440000D01*
X268079721Y-139460000D02*
X268405279Y-139460000D01*
D18*
G04 #@! TO.C,C4*
X289352420Y-129141000D02*
X288844420Y-129141000D01*
X289352420Y-128379000D02*
X289352420Y-129141000D01*
X288844420Y-128379000D02*
X289352420Y-128379000D01*
X287828420Y-129141000D02*
X288336420Y-129141000D01*
X287828420Y-128379000D02*
X287828420Y-129141000D01*
X288336420Y-128379000D02*
X287828420Y-128379000D01*
G04 #@! TO.C,C35*
X288863580Y-128031000D02*
X289371580Y-128031000D01*
X289371580Y-128031000D02*
X289371580Y-127269000D01*
X289371580Y-127269000D02*
X288863580Y-127269000D01*
X288355580Y-128031000D02*
X287847580Y-128031000D01*
X287847580Y-128031000D02*
X287847580Y-127269000D01*
X287847580Y-127269000D02*
X288355580Y-127269000D01*
D14*
G04 #@! TO.C,U4*
X287350000Y-129680000D02*
X286950000Y-129680000D01*
X287350000Y-129680000D02*
X287350000Y-129280000D01*
X287350000Y-126480000D02*
X286950000Y-126480000D01*
X287350000Y-126480000D02*
X287350000Y-126880000D01*
X284150000Y-126480000D02*
X284550000Y-126480000D01*
X284150000Y-126480000D02*
X284150000Y-126880000D01*
X284150000Y-129680000D02*
X284150000Y-129280000D01*
D17*
G04 #@! TO.C,P3*
X297320000Y-140640000D02*
X294660000Y-140640000D01*
X297320000Y-143240000D02*
X297320000Y-140640000D01*
X294660000Y-143240000D02*
X294660000Y-140640000D01*
X297320000Y-143240000D02*
X294660000Y-143240000D01*
X297320000Y-144510000D02*
X297320000Y-145840000D01*
X297320000Y-145840000D02*
X295990000Y-145840000D01*
D18*
G04 #@! TO.C,R5*
X278616000Y-142939000D02*
X278108000Y-142939000D01*
X278108000Y-142939000D02*
X278108000Y-143701000D01*
X278108000Y-143701000D02*
X278616000Y-143701000D01*
X279124000Y-142939000D02*
X279632000Y-142939000D01*
X279632000Y-142939000D02*
X279632000Y-143701000D01*
X279632000Y-143701000D02*
X279124000Y-143701000D01*
D17*
G04 #@! TO.C,D4*
X290020000Y-140880000D02*
X289020000Y-140880000D01*
X289020000Y-140880000D02*
X289020000Y-142980000D01*
X290020000Y-140880000D02*
X290020000Y-142980000D01*
D18*
G04 #@! TO.C,C18*
X288506000Y-143629000D02*
X287998000Y-143629000D01*
X287998000Y-143629000D02*
X287998000Y-144391000D01*
X287998000Y-144391000D02*
X288506000Y-144391000D01*
X289014000Y-143629000D02*
X289522000Y-143629000D01*
X289522000Y-143629000D02*
X289522000Y-144391000D01*
X289522000Y-144391000D02*
X289014000Y-144391000D01*
G04 #@! TO.C,R10*
X286726000Y-143629000D02*
X286218000Y-143629000D01*
X286218000Y-143629000D02*
X286218000Y-144391000D01*
X286218000Y-144391000D02*
X286726000Y-144391000D01*
X287234000Y-143629000D02*
X287742000Y-143629000D01*
X287742000Y-143629000D02*
X287742000Y-144391000D01*
X287742000Y-144391000D02*
X287234000Y-144391000D01*
G04 #@! TO.C,C16*
X285004000Y-144401000D02*
X285512000Y-144401000D01*
X285512000Y-144401000D02*
X285512000Y-143639000D01*
X285512000Y-143639000D02*
X285004000Y-143639000D01*
X284496000Y-144401000D02*
X283988000Y-144401000D01*
X283988000Y-144401000D02*
X283988000Y-143639000D01*
X283988000Y-143639000D02*
X284496000Y-143639000D01*
G04 #@! TO.C,R9*
X281759000Y-142444000D02*
X281759000Y-142952000D01*
X281759000Y-142952000D02*
X282521000Y-142952000D01*
X282521000Y-142952000D02*
X282521000Y-142444000D01*
X281759000Y-141936000D02*
X281759000Y-141428000D01*
X281759000Y-141428000D02*
X282521000Y-141428000D01*
X282521000Y-141428000D02*
X282521000Y-141936000D01*
G04 #@! TO.C,C17*
X287109000Y-141274000D02*
X287109000Y-141782000D01*
X287109000Y-141782000D02*
X287871000Y-141782000D01*
X287871000Y-141782000D02*
X287871000Y-141274000D01*
X287109000Y-140766000D02*
X287109000Y-140258000D01*
X287109000Y-140258000D02*
X287871000Y-140258000D01*
X287871000Y-140258000D02*
X287871000Y-140766000D01*
D17*
G04 #@! TO.C,D3*
X284340000Y-140550000D02*
X284340000Y-139550000D01*
X284340000Y-139550000D02*
X282240000Y-139550000D01*
X284340000Y-140550000D02*
X282240000Y-140550000D01*
D18*
G04 #@! TO.C,C22*
X282181000Y-137516000D02*
X282181000Y-137008000D01*
X282181000Y-137008000D02*
X281419000Y-137008000D01*
X281419000Y-137008000D02*
X281419000Y-137516000D01*
X282181000Y-138024000D02*
X282181000Y-138532000D01*
X282181000Y-138532000D02*
X281419000Y-138532000D01*
X281419000Y-138532000D02*
X281419000Y-138024000D01*
G04 #@! TO.C,R7*
X278616420Y-141979000D02*
X278108420Y-141979000D01*
X278108420Y-141979000D02*
X278108420Y-142741000D01*
X278108420Y-142741000D02*
X278616420Y-142741000D01*
X279124420Y-141979000D02*
X279632420Y-141979000D01*
X279632420Y-141979000D02*
X279632420Y-142741000D01*
X279632420Y-142741000D02*
X279124420Y-142741000D01*
D14*
G04 #@! TO.C,U1*
X266670000Y-140525000D02*
X266670000Y-142975000D01*
X269970000Y-139800000D02*
X269970000Y-142975000D01*
D18*
G04 #@! TO.C,C21*
X273689000Y-138854000D02*
X273689000Y-139362000D01*
X273689000Y-139362000D02*
X274451000Y-139362000D01*
X274451000Y-139362000D02*
X274451000Y-138854000D01*
X273689000Y-138346000D02*
X273689000Y-137838000D01*
X273689000Y-137838000D02*
X274451000Y-137838000D01*
X274451000Y-137838000D02*
X274451000Y-138346000D01*
G04 #@! TO.C,R12*
X284984000Y-130991000D02*
X285492000Y-130991000D01*
X285492000Y-130991000D02*
X285492000Y-130229000D01*
X285492000Y-130229000D02*
X284984000Y-130229000D01*
X284476000Y-130991000D02*
X283968000Y-130991000D01*
X283968000Y-130991000D02*
X283968000Y-130229000D01*
X283968000Y-130229000D02*
X284476000Y-130229000D01*
G04 #@! TO.C,R11*
X283691000Y-128485580D02*
X283691000Y-127977580D01*
X283691000Y-127977580D02*
X282929000Y-127977580D01*
X282929000Y-127977580D02*
X282929000Y-128485580D01*
X283691000Y-128993580D02*
X283691000Y-129501580D01*
X283691000Y-129501580D02*
X282929000Y-129501580D01*
X282929000Y-129501580D02*
X282929000Y-128993580D01*
G04 #@! TO.C,C36*
X288864420Y-126911000D02*
X289372420Y-126911000D01*
X289372420Y-126911000D02*
X289372420Y-126149000D01*
X289372420Y-126149000D02*
X288864420Y-126149000D01*
X288356420Y-126911000D02*
X287848420Y-126911000D01*
X287848420Y-126911000D02*
X287848420Y-126149000D01*
X287848420Y-126149000D02*
X288356420Y-126149000D01*
D17*
G04 #@! TO.C,F1*
X277470000Y-128250000D02*
X277470000Y-128750000D01*
X278530000Y-128750000D02*
X278530000Y-128250000D01*
D18*
G04 #@! TO.C,C34*
X275459000Y-129294000D02*
X275459000Y-129802000D01*
X275459000Y-129802000D02*
X276221000Y-129802000D01*
X276221000Y-129802000D02*
X276221000Y-129294000D01*
X275459000Y-128786000D02*
X275459000Y-128278000D01*
X275459000Y-128278000D02*
X276221000Y-128278000D01*
X276221000Y-128278000D02*
X276221000Y-128786000D01*
G04 #@! TO.C,C33*
X273346000Y-129069000D02*
X272838000Y-129069000D01*
X272838000Y-129069000D02*
X272838000Y-129831000D01*
X272838000Y-129831000D02*
X273346000Y-129831000D01*
X273854000Y-129069000D02*
X274362000Y-129069000D01*
X274362000Y-129069000D02*
X274362000Y-129831000D01*
X274362000Y-129831000D02*
X273854000Y-129831000D01*
D19*
G04 #@! TO.C,P2*
X282770000Y-130830000D02*
X280230000Y-130830000D01*
X280230000Y-130830000D02*
X280230000Y-125750000D01*
X280230000Y-125750000D02*
X282770000Y-125750000D01*
X282770000Y-125750000D02*
X282770000Y-130830000D01*
D17*
G04 #@! TO.C,D2*
X280990000Y-137950000D02*
X279990000Y-137950000D01*
X279990000Y-137950000D02*
X279990000Y-140050000D01*
X280990000Y-137950000D02*
X280990000Y-140050000D01*
D18*
G04 #@! TO.C,C2*
X270659000Y-142704000D02*
X270659000Y-143212000D01*
X270659000Y-143212000D02*
X271421000Y-143212000D01*
X271421000Y-143212000D02*
X271421000Y-142704000D01*
X270659000Y-142196000D02*
X270659000Y-141688000D01*
X270659000Y-141688000D02*
X271421000Y-141688000D01*
X271421000Y-141688000D02*
X271421000Y-142196000D01*
G04 #@! TO.C,C1*
X271759000Y-142714000D02*
X271759000Y-143222000D01*
X271759000Y-143222000D02*
X272521000Y-143222000D01*
X272521000Y-143222000D02*
X272521000Y-142714000D01*
X271759000Y-142206000D02*
X271759000Y-141698000D01*
X271759000Y-141698000D02*
X272521000Y-141698000D01*
X272521000Y-141698000D02*
X272521000Y-142206000D01*
D17*
G04 #@! TO.C,D1*
X279740000Y-137950000D02*
X278740000Y-137950000D01*
X278740000Y-137950000D02*
X278740000Y-140050000D01*
X279740000Y-137950000D02*
X279740000Y-140050000D01*
D19*
G04 #@! TO.C,P1*
X293650000Y-145720000D02*
X291110000Y-145720000D01*
X291110000Y-145720000D02*
X291110000Y-140640000D01*
X291110000Y-140640000D02*
X293650000Y-140640000D01*
X293650000Y-140640000D02*
X293650000Y-145720000D01*
D20*
G04 #@! TO.C,L4*
X273313000Y-139255000D02*
X271027000Y-139255000D01*
X271027000Y-139255000D02*
X271027000Y-137985000D01*
X271027000Y-137985000D02*
X273313000Y-137985000D01*
X273313000Y-137985000D02*
X273313000Y-139255000D01*
D14*
G04 #@! TO.C,X1*
X272500000Y-134050000D02*
X272500000Y-134100000D01*
X272500000Y-134050000D02*
X272500000Y-134000000D01*
X270500000Y-134050000D02*
X270500000Y-134100000D01*
X270500000Y-134050000D02*
X270500000Y-134000000D01*
X271500000Y-134850000D02*
X271650000Y-134850000D01*
X271500000Y-134850000D02*
X271350000Y-134850000D01*
X271500000Y-133250000D02*
X271650000Y-133250000D01*
X271500000Y-133250000D02*
X271350000Y-133250000D01*
D18*
G04 #@! TO.C,C28*
X275831000Y-140296000D02*
X275831000Y-139788000D01*
X275831000Y-139788000D02*
X275069000Y-139788000D01*
X275069000Y-139788000D02*
X275069000Y-140296000D01*
X275831000Y-140804000D02*
X275831000Y-141312000D01*
X275831000Y-141312000D02*
X275069000Y-141312000D01*
X275069000Y-141312000D02*
X275069000Y-140804000D01*
G04 #@! TO.C,C26*
X273454000Y-140581000D02*
X273962000Y-140581000D01*
X273962000Y-140581000D02*
X273962000Y-139819000D01*
X273962000Y-139819000D02*
X273454000Y-139819000D01*
X272946000Y-140581000D02*
X272438000Y-140581000D01*
X272438000Y-140581000D02*
X272438000Y-139819000D01*
X272438000Y-139819000D02*
X272946000Y-139819000D01*
G04 #@! TO.C,C24*
X270181000Y-133946000D02*
X270181000Y-133438000D01*
X270181000Y-133438000D02*
X269419000Y-133438000D01*
X269419000Y-133438000D02*
X269419000Y-133946000D01*
X270181000Y-134454000D02*
X270181000Y-134962000D01*
X270181000Y-134962000D02*
X269419000Y-134962000D01*
X269419000Y-134962000D02*
X269419000Y-134454000D01*
G04 #@! TO.C,C25*
X272819000Y-134354000D02*
X272819000Y-134862000D01*
X272819000Y-134862000D02*
X273581000Y-134862000D01*
X273581000Y-134862000D02*
X273581000Y-134354000D01*
X272819000Y-133846000D02*
X272819000Y-133338000D01*
X272819000Y-133338000D02*
X273581000Y-133338000D01*
X273581000Y-133338000D02*
X273581000Y-133846000D01*
G04 #@! TO.C,C29*
X277231000Y-140296000D02*
X277231000Y-139788000D01*
X277231000Y-139788000D02*
X276469000Y-139788000D01*
X276469000Y-139788000D02*
X276469000Y-140296000D01*
X277231000Y-140804000D02*
X277231000Y-141312000D01*
X277231000Y-141312000D02*
X276469000Y-141312000D01*
X276469000Y-141312000D02*
X276469000Y-140804000D01*
D14*
G04 #@! TO.C,A1*
X266645000Y-126673000D02*
X271445000Y-126673000D01*
X271445000Y-126673000D02*
X271445000Y-128673000D01*
X271345000Y-128673000D02*
X266645000Y-128673000D01*
X266645000Y-128673000D02*
X266645000Y-126673000D01*
X271445000Y-128673000D02*
X271345000Y-128673000D01*
D18*
G04 #@! TO.C,L6*
X272654000Y-128081000D02*
X273162000Y-128081000D01*
X273162000Y-128081000D02*
X273162000Y-127319000D01*
X273162000Y-127319000D02*
X272654000Y-127319000D01*
X272146000Y-128081000D02*
X271638000Y-128081000D01*
X271638000Y-128081000D02*
X271638000Y-127319000D01*
X271638000Y-127319000D02*
X272146000Y-127319000D01*
G04 #@! TO.C,L5*
X274381000Y-127846000D02*
X274381000Y-127338000D01*
X274381000Y-127338000D02*
X273619000Y-127338000D01*
X273619000Y-127338000D02*
X273619000Y-127846000D01*
X274381000Y-128354000D02*
X274381000Y-128862000D01*
X274381000Y-128862000D02*
X273619000Y-128862000D01*
X273619000Y-128862000D02*
X273619000Y-128354000D01*
G04 #@! TO.C,C30*
X275854000Y-128081000D02*
X276362000Y-128081000D01*
X276362000Y-128081000D02*
X276362000Y-127319000D01*
X276362000Y-127319000D02*
X275854000Y-127319000D01*
X275346000Y-128081000D02*
X274838000Y-128081000D01*
X274838000Y-128081000D02*
X274838000Y-127319000D01*
X274838000Y-127319000D02*
X275346000Y-127319000D01*
G04 #@! TO.C,L3*
X271926000Y-136889000D02*
X271418000Y-136889000D01*
X271418000Y-136889000D02*
X271418000Y-137651000D01*
X271418000Y-137651000D02*
X271926000Y-137651000D01*
X272434000Y-136889000D02*
X272942000Y-136889000D01*
X272942000Y-136889000D02*
X272942000Y-137651000D01*
X272942000Y-137651000D02*
X272434000Y-137651000D01*
D20*
G04 #@! TO.C,C23*
X273643000Y-136635000D02*
X271357000Y-136635000D01*
X271357000Y-136635000D02*
X271357000Y-135365000D01*
X271357000Y-135365000D02*
X273643000Y-135365000D01*
X273643000Y-135365000D02*
X273643000Y-136635000D01*
D14*
G04 #@! TO.C,U3*
X274675000Y-130875000D02*
X275275000Y-130875000D01*
X280925000Y-137125000D02*
X280325000Y-137125000D01*
X280925000Y-130875000D02*
X280325000Y-130875000D01*
X274675000Y-137125000D02*
X274675000Y-136525000D01*
X280925000Y-137125000D02*
X280925000Y-136525000D01*
X280925000Y-130875000D02*
X280925000Y-131475000D01*
X274675000Y-130875000D02*
X274675000Y-131475000D01*
D17*
G04 #@! TO.C,X2*
X274950000Y-139650000D02*
X277350000Y-139650000D01*
X277350000Y-139650000D02*
X277350000Y-138050000D01*
X277350000Y-138050000D02*
X274950000Y-138050000D01*
D14*
G04 #@! TO.C,U6*
X285835000Y-141015000D02*
X283685000Y-141015000D01*
X286660000Y-143265000D02*
X283685000Y-143265000D01*
D12*
G04 #@! TO.C,Q1*
X288590000Y-143080000D02*
X288590000Y-142380000D01*
X288460000Y-143155000D02*
X287460000Y-143155000D01*
D17*
G04 #@! TO.C,L2*
X273240000Y-143447221D02*
X273240000Y-143772779D01*
X274260000Y-143447221D02*
X274260000Y-143772779D01*
G04 #@! TO.C,U5*
D10*
X282496190Y-137520952D02*
X282900952Y-137520952D01*
X282948571Y-137497142D01*
X282972380Y-137473333D01*
X282996190Y-137425714D01*
X282996190Y-137330476D01*
X282972380Y-137282857D01*
X282948571Y-137259047D01*
X282900952Y-137235238D01*
X282496190Y-137235238D01*
X282496190Y-136759047D02*
X282496190Y-136997142D01*
X282734285Y-137020952D01*
X282710476Y-136997142D01*
X282686666Y-136949523D01*
X282686666Y-136830476D01*
X282710476Y-136782857D01*
X282734285Y-136759047D01*
X282781904Y-136735238D01*
X282900952Y-136735238D01*
X282948571Y-136759047D01*
X282972380Y-136782857D01*
X282996190Y-136830476D01*
X282996190Y-136949523D01*
X282972380Y-136997142D01*
X282948571Y-137020952D01*
G04 #@! TO.C,C10*
D18*
X290044057Y-135955185D02*
X290029542Y-135971877D01*
X289986000Y-135988568D01*
X289956971Y-135988568D01*
X289913428Y-135971877D01*
X289884400Y-135938494D01*
X289869885Y-135905111D01*
X289855371Y-135838345D01*
X289855371Y-135788271D01*
X289869885Y-135721505D01*
X289884400Y-135688122D01*
X289913428Y-135654740D01*
X289956971Y-135638048D01*
X289986000Y-135638048D01*
X290029542Y-135654740D01*
X290044057Y-135671431D01*
X290334342Y-135988568D02*
X290160171Y-135988568D01*
X290247257Y-135988568D02*
X290247257Y-135638048D01*
X290218228Y-135688122D01*
X290189200Y-135721505D01*
X290160171Y-135738197D01*
X290523028Y-135638048D02*
X290552057Y-135638048D01*
X290581085Y-135654740D01*
X290595600Y-135671431D01*
X290610114Y-135704814D01*
X290624628Y-135771580D01*
X290624628Y-135855037D01*
X290610114Y-135921802D01*
X290595600Y-135955185D01*
X290581085Y-135971877D01*
X290552057Y-135988568D01*
X290523028Y-135988568D01*
X290494000Y-135971877D01*
X290479485Y-135955185D01*
X290464971Y-135921802D01*
X290450457Y-135855037D01*
X290450457Y-135771580D01*
X290464971Y-135704814D01*
X290479485Y-135671431D01*
X290494000Y-135654740D01*
X290523028Y-135638048D01*
G04 #@! TO.C,C9*
X288549200Y-133915185D02*
X288534685Y-133931877D01*
X288491142Y-133948568D01*
X288462114Y-133948568D01*
X288418571Y-133931877D01*
X288389542Y-133898494D01*
X288375028Y-133865111D01*
X288360514Y-133798345D01*
X288360514Y-133748271D01*
X288375028Y-133681505D01*
X288389542Y-133648122D01*
X288418571Y-133614740D01*
X288462114Y-133598048D01*
X288491142Y-133598048D01*
X288534685Y-133614740D01*
X288549200Y-133631431D01*
X288694342Y-133948568D02*
X288752400Y-133948568D01*
X288781428Y-133931877D01*
X288795942Y-133915185D01*
X288824971Y-133865111D01*
X288839485Y-133798345D01*
X288839485Y-133664814D01*
X288824971Y-133631431D01*
X288810457Y-133614740D01*
X288781428Y-133598048D01*
X288723371Y-133598048D01*
X288694342Y-133614740D01*
X288679828Y-133631431D01*
X288665314Y-133664814D01*
X288665314Y-133748271D01*
X288679828Y-133781654D01*
X288694342Y-133798345D01*
X288723371Y-133815037D01*
X288781428Y-133815037D01*
X288810457Y-133798345D01*
X288824971Y-133781654D01*
X288839485Y-133748271D01*
G04 #@! TO.C,C7*
X287164765Y-132730800D02*
X287181457Y-132745314D01*
X287198148Y-132788857D01*
X287198148Y-132817885D01*
X287181457Y-132861428D01*
X287148074Y-132890457D01*
X287114691Y-132904971D01*
X287047925Y-132919485D01*
X286997851Y-132919485D01*
X286931085Y-132904971D01*
X286897702Y-132890457D01*
X286864320Y-132861428D01*
X286847628Y-132817885D01*
X286847628Y-132788857D01*
X286864320Y-132745314D01*
X286881011Y-132730800D01*
X286847628Y-132629200D02*
X286847628Y-132426000D01*
X287198148Y-132556628D01*
G04 #@! TO.C,R8*
X285628148Y-139600800D02*
X285461234Y-139702400D01*
X285628148Y-139774971D02*
X285277628Y-139774971D01*
X285277628Y-139658857D01*
X285294320Y-139629828D01*
X285311011Y-139615314D01*
X285344394Y-139600800D01*
X285394468Y-139600800D01*
X285427851Y-139615314D01*
X285444542Y-139629828D01*
X285461234Y-139658857D01*
X285461234Y-139774971D01*
X285427851Y-139426628D02*
X285411160Y-139455657D01*
X285394468Y-139470171D01*
X285361085Y-139484685D01*
X285344394Y-139484685D01*
X285311011Y-139470171D01*
X285294320Y-139455657D01*
X285277628Y-139426628D01*
X285277628Y-139368571D01*
X285294320Y-139339542D01*
X285311011Y-139325028D01*
X285344394Y-139310514D01*
X285361085Y-139310514D01*
X285394468Y-139325028D01*
X285411160Y-139339542D01*
X285427851Y-139368571D01*
X285427851Y-139426628D01*
X285444542Y-139455657D01*
X285461234Y-139470171D01*
X285494617Y-139484685D01*
X285561382Y-139484685D01*
X285594765Y-139470171D01*
X285611457Y-139455657D01*
X285628148Y-139426628D01*
X285628148Y-139368571D01*
X285611457Y-139339542D01*
X285594765Y-139325028D01*
X285561382Y-139310514D01*
X285494617Y-139310514D01*
X285461234Y-139325028D01*
X285444542Y-139339542D01*
X285427851Y-139368571D01*
G04 #@! TO.C,R6*
X287848148Y-135180800D02*
X287681234Y-135282400D01*
X287848148Y-135354971D02*
X287497628Y-135354971D01*
X287497628Y-135238857D01*
X287514320Y-135209828D01*
X287531011Y-135195314D01*
X287564394Y-135180800D01*
X287614468Y-135180800D01*
X287647851Y-135195314D01*
X287664542Y-135209828D01*
X287681234Y-135238857D01*
X287681234Y-135354971D01*
X287497628Y-134919542D02*
X287497628Y-134977600D01*
X287514320Y-135006628D01*
X287531011Y-135021142D01*
X287581085Y-135050171D01*
X287647851Y-135064685D01*
X287781382Y-135064685D01*
X287814765Y-135050171D01*
X287831457Y-135035657D01*
X287848148Y-135006628D01*
X287848148Y-134948571D01*
X287831457Y-134919542D01*
X287814765Y-134905028D01*
X287781382Y-134890514D01*
X287697925Y-134890514D01*
X287664542Y-134905028D01*
X287647851Y-134919542D01*
X287631160Y-134948571D01*
X287631160Y-135006628D01*
X287647851Y-135035657D01*
X287664542Y-135050171D01*
X287697925Y-135064685D01*
G04 #@! TO.C,R4*
X287679200Y-138578568D02*
X287577600Y-138411654D01*
X287505028Y-138578568D02*
X287505028Y-138228048D01*
X287621142Y-138228048D01*
X287650171Y-138244740D01*
X287664685Y-138261431D01*
X287679200Y-138294814D01*
X287679200Y-138344888D01*
X287664685Y-138378271D01*
X287650171Y-138394962D01*
X287621142Y-138411654D01*
X287505028Y-138411654D01*
X287940457Y-138344888D02*
X287940457Y-138578568D01*
X287867885Y-138211357D02*
X287795314Y-138461728D01*
X287984000Y-138461728D01*
G04 #@! TO.C,R3*
X287669200Y-136748568D02*
X287567600Y-136581654D01*
X287495028Y-136748568D02*
X287495028Y-136398048D01*
X287611142Y-136398048D01*
X287640171Y-136414740D01*
X287654685Y-136431431D01*
X287669200Y-136464814D01*
X287669200Y-136514888D01*
X287654685Y-136548271D01*
X287640171Y-136564962D01*
X287611142Y-136581654D01*
X287495028Y-136581654D01*
X287770800Y-136398048D02*
X287959485Y-136398048D01*
X287857885Y-136531580D01*
X287901428Y-136531580D01*
X287930457Y-136548271D01*
X287944971Y-136564962D01*
X287959485Y-136598345D01*
X287959485Y-136681802D01*
X287944971Y-136715185D01*
X287930457Y-136731877D01*
X287901428Y-136748568D01*
X287814342Y-136748568D01*
X287785314Y-136731877D01*
X287770800Y-136715185D01*
G04 #@! TO.C,R2*
X286628988Y-133750800D02*
X286462074Y-133852400D01*
X286628988Y-133924971D02*
X286278468Y-133924971D01*
X286278468Y-133808857D01*
X286295160Y-133779828D01*
X286311851Y-133765314D01*
X286345234Y-133750800D01*
X286395308Y-133750800D01*
X286428691Y-133765314D01*
X286445382Y-133779828D01*
X286462074Y-133808857D01*
X286462074Y-133924971D01*
X286311851Y-133634685D02*
X286295160Y-133620171D01*
X286278468Y-133591142D01*
X286278468Y-133518571D01*
X286295160Y-133489542D01*
X286311851Y-133475028D01*
X286345234Y-133460514D01*
X286378617Y-133460514D01*
X286428691Y-133475028D01*
X286628988Y-133649200D01*
X286628988Y-133460514D01*
G04 #@! TO.C,C6*
X285025185Y-134850800D02*
X285041877Y-134865314D01*
X285058568Y-134908857D01*
X285058568Y-134937885D01*
X285041877Y-134981428D01*
X285008494Y-135010457D01*
X284975111Y-135024971D01*
X284908345Y-135039485D01*
X284858271Y-135039485D01*
X284791505Y-135024971D01*
X284758122Y-135010457D01*
X284724740Y-134981428D01*
X284708048Y-134937885D01*
X284708048Y-134908857D01*
X284724740Y-134865314D01*
X284741431Y-134850800D01*
X284708048Y-134589542D02*
X284708048Y-134647600D01*
X284724740Y-134676628D01*
X284741431Y-134691142D01*
X284791505Y-134720171D01*
X284858271Y-134734685D01*
X284991802Y-134734685D01*
X285025185Y-134720171D01*
X285041877Y-134705657D01*
X285058568Y-134676628D01*
X285058568Y-134618571D01*
X285041877Y-134589542D01*
X285025185Y-134575028D01*
X284991802Y-134560514D01*
X284908345Y-134560514D01*
X284874962Y-134575028D01*
X284858271Y-134589542D01*
X284841580Y-134618571D01*
X284841580Y-134676628D01*
X284858271Y-134705657D01*
X284874962Y-134720171D01*
X284908345Y-134734685D01*
G04 #@! TO.C,R1*
X286658988Y-131750800D02*
X286492074Y-131852400D01*
X286658988Y-131924971D02*
X286308468Y-131924971D01*
X286308468Y-131808857D01*
X286325160Y-131779828D01*
X286341851Y-131765314D01*
X286375234Y-131750800D01*
X286425308Y-131750800D01*
X286458691Y-131765314D01*
X286475382Y-131779828D01*
X286492074Y-131808857D01*
X286492074Y-131924971D01*
X286658988Y-131460514D02*
X286658988Y-131634685D01*
X286658988Y-131547600D02*
X286308468Y-131547600D01*
X286358542Y-131576628D01*
X286391925Y-131605657D01*
X286408617Y-131634685D01*
G04 #@! TO.C,U2*
D10*
X275370952Y-141498809D02*
X275370952Y-141944047D01*
X275397142Y-141996428D01*
X275423333Y-142022619D01*
X275475714Y-142048809D01*
X275580476Y-142048809D01*
X275632857Y-142022619D01*
X275659047Y-141996428D01*
X275685238Y-141944047D01*
X275685238Y-141498809D01*
X275920952Y-141551190D02*
X275947142Y-141525000D01*
X275999523Y-141498809D01*
X276130476Y-141498809D01*
X276182857Y-141525000D01*
X276209047Y-141551190D01*
X276235238Y-141603571D01*
X276235238Y-141655952D01*
X276209047Y-141734523D01*
X275894761Y-142048809D01*
X276235238Y-142048809D01*
G04 #@! TO.C,C5*
D18*
X277339200Y-142964765D02*
X277324685Y-142981457D01*
X277281142Y-142998148D01*
X277252114Y-142998148D01*
X277208571Y-142981457D01*
X277179542Y-142948074D01*
X277165028Y-142914691D01*
X277150514Y-142847925D01*
X277150514Y-142797851D01*
X277165028Y-142731085D01*
X277179542Y-142697702D01*
X277208571Y-142664320D01*
X277252114Y-142647628D01*
X277281142Y-142647628D01*
X277324685Y-142664320D01*
X277339200Y-142681011D01*
X277614971Y-142647628D02*
X277469828Y-142647628D01*
X277455314Y-142814542D01*
X277469828Y-142797851D01*
X277498857Y-142781160D01*
X277571428Y-142781160D01*
X277600457Y-142797851D01*
X277614971Y-142814542D01*
X277629485Y-142847925D01*
X277629485Y-142931382D01*
X277614971Y-142964765D01*
X277600457Y-142981457D01*
X277571428Y-142998148D01*
X277498857Y-142998148D01*
X277469828Y-142981457D01*
X277455314Y-142964765D01*
G04 #@! TO.C,C3*
X276539200Y-143575605D02*
X276524685Y-143592297D01*
X276481142Y-143608988D01*
X276452114Y-143608988D01*
X276408571Y-143592297D01*
X276379542Y-143558914D01*
X276365028Y-143525531D01*
X276350514Y-143458765D01*
X276350514Y-143408691D01*
X276365028Y-143341925D01*
X276379542Y-143308542D01*
X276408571Y-143275160D01*
X276452114Y-143258468D01*
X276481142Y-143258468D01*
X276524685Y-143275160D01*
X276539200Y-143291851D01*
X276640800Y-143258468D02*
X276829485Y-143258468D01*
X276727885Y-143392000D01*
X276771428Y-143392000D01*
X276800457Y-143408691D01*
X276814971Y-143425382D01*
X276829485Y-143458765D01*
X276829485Y-143542222D01*
X276814971Y-143575605D01*
X276800457Y-143592297D01*
X276771428Y-143608988D01*
X276684342Y-143608988D01*
X276655314Y-143592297D01*
X276640800Y-143575605D01*
G04 #@! TO.C,L1*
D10*
X268250833Y-138158809D02*
X267988928Y-138158809D01*
X267988928Y-137608809D01*
X268722261Y-138158809D02*
X268407976Y-138158809D01*
X268565119Y-138158809D02*
X268565119Y-137608809D01*
X268512738Y-137687380D01*
X268460357Y-137739761D01*
X268407976Y-137765952D01*
G04 #@! TO.C,C4*
D18*
X288515234Y-128649200D02*
X288498542Y-128634685D01*
X288481851Y-128591142D01*
X288481851Y-128562114D01*
X288498542Y-128518571D01*
X288531925Y-128489542D01*
X288565308Y-128475028D01*
X288632074Y-128460514D01*
X288682148Y-128460514D01*
X288748914Y-128475028D01*
X288782297Y-128489542D01*
X288815680Y-128518571D01*
X288832371Y-128562114D01*
X288832371Y-128591142D01*
X288815680Y-128634685D01*
X288798988Y-128649200D01*
X288715531Y-128910457D02*
X288481851Y-128910457D01*
X288849062Y-128837885D02*
X288598691Y-128765314D01*
X288598691Y-128954000D01*
G04 #@! TO.C,C35*
X288434394Y-127514057D02*
X288417702Y-127499542D01*
X288401011Y-127456000D01*
X288401011Y-127426971D01*
X288417702Y-127383428D01*
X288451085Y-127354400D01*
X288484468Y-127339885D01*
X288551234Y-127325371D01*
X288601308Y-127325371D01*
X288668074Y-127339885D01*
X288701457Y-127354400D01*
X288734840Y-127383428D01*
X288751531Y-127426971D01*
X288751531Y-127456000D01*
X288734840Y-127499542D01*
X288718148Y-127514057D01*
X288751531Y-127615657D02*
X288751531Y-127804342D01*
X288618000Y-127702742D01*
X288618000Y-127746285D01*
X288601308Y-127775314D01*
X288584617Y-127789828D01*
X288551234Y-127804342D01*
X288467777Y-127804342D01*
X288434394Y-127789828D01*
X288417702Y-127775314D01*
X288401011Y-127746285D01*
X288401011Y-127659200D01*
X288417702Y-127630171D01*
X288434394Y-127615657D01*
X288751531Y-128080114D02*
X288751531Y-127934971D01*
X288584617Y-127920457D01*
X288601308Y-127934971D01*
X288618000Y-127964000D01*
X288618000Y-128036571D01*
X288601308Y-128065600D01*
X288584617Y-128080114D01*
X288551234Y-128094628D01*
X288467777Y-128094628D01*
X288434394Y-128080114D01*
X288417702Y-128065600D01*
X288401011Y-128036571D01*
X288401011Y-127964000D01*
X288417702Y-127934971D01*
X288434394Y-127920457D01*
G04 #@! TO.C,U4*
D10*
X285176190Y-128300952D02*
X285580952Y-128300952D01*
X285628571Y-128277142D01*
X285652380Y-128253333D01*
X285676190Y-128205714D01*
X285676190Y-128110476D01*
X285652380Y-128062857D01*
X285628571Y-128039047D01*
X285580952Y-128015238D01*
X285176190Y-128015238D01*
X285342857Y-127562857D02*
X285676190Y-127562857D01*
X285152380Y-127681904D02*
X285509523Y-127800952D01*
X285509523Y-127491428D01*
G04 #@! TO.C,P3*
D14*
X300252380Y-143348095D02*
X299252380Y-143348095D01*
X299252380Y-142967142D01*
X299300000Y-142871904D01*
X299347619Y-142824285D01*
X299442857Y-142776666D01*
X299585714Y-142776666D01*
X299680952Y-142824285D01*
X299728571Y-142871904D01*
X299776190Y-142967142D01*
X299776190Y-143348095D01*
X299252380Y-142443333D02*
X299252380Y-141824285D01*
X299633333Y-142157619D01*
X299633333Y-142014761D01*
X299680952Y-141919523D01*
X299728571Y-141871904D01*
X299823809Y-141824285D01*
X300061904Y-141824285D01*
X300157142Y-141871904D01*
X300204761Y-141919523D01*
X300252380Y-142014761D01*
X300252380Y-142300476D01*
X300204761Y-142395714D01*
X300157142Y-142443333D01*
G04 #@! TO.C,R5*
D18*
X279048568Y-143400800D02*
X278881654Y-143502400D01*
X279048568Y-143574971D02*
X278698048Y-143574971D01*
X278698048Y-143458857D01*
X278714740Y-143429828D01*
X278731431Y-143415314D01*
X278764814Y-143400800D01*
X278814888Y-143400800D01*
X278848271Y-143415314D01*
X278864962Y-143429828D01*
X278881654Y-143458857D01*
X278881654Y-143574971D01*
X278698048Y-143125028D02*
X278698048Y-143270171D01*
X278864962Y-143284685D01*
X278848271Y-143270171D01*
X278831580Y-143241142D01*
X278831580Y-143168571D01*
X278848271Y-143139542D01*
X278864962Y-143125028D01*
X278898345Y-143110514D01*
X278981802Y-143110514D01*
X279015185Y-143125028D01*
X279031877Y-143139542D01*
X279048568Y-143168571D01*
X279048568Y-143241142D01*
X279031877Y-143270171D01*
X279015185Y-143284685D01*
G04 #@! TO.C,D4*
D12*
X289150952Y-142456190D02*
X289150952Y-141956190D01*
X289270000Y-141956190D01*
X289341428Y-141980000D01*
X289389047Y-142027619D01*
X289412857Y-142075238D01*
X289436666Y-142170476D01*
X289436666Y-142241904D01*
X289412857Y-142337142D01*
X289389047Y-142384761D01*
X289341428Y-142432380D01*
X289270000Y-142456190D01*
X289150952Y-142456190D01*
X289865238Y-142122857D02*
X289865238Y-142456190D01*
X289746190Y-141932380D02*
X289627142Y-142289523D01*
X289936666Y-142289523D01*
G04 #@! TO.C,C18*
D18*
X288935185Y-144205942D02*
X288951877Y-144220457D01*
X288968568Y-144264000D01*
X288968568Y-144293028D01*
X288951877Y-144336571D01*
X288918494Y-144365600D01*
X288885111Y-144380114D01*
X288818345Y-144394628D01*
X288768271Y-144394628D01*
X288701505Y-144380114D01*
X288668122Y-144365600D01*
X288634740Y-144336571D01*
X288618048Y-144293028D01*
X288618048Y-144264000D01*
X288634740Y-144220457D01*
X288651431Y-144205942D01*
X288968568Y-143915657D02*
X288968568Y-144089828D01*
X288968568Y-144002742D02*
X288618048Y-144002742D01*
X288668122Y-144031771D01*
X288701505Y-144060800D01*
X288718197Y-144089828D01*
X288768271Y-143741485D02*
X288751580Y-143770514D01*
X288734888Y-143785028D01*
X288701505Y-143799542D01*
X288684814Y-143799542D01*
X288651431Y-143785028D01*
X288634740Y-143770514D01*
X288618048Y-143741485D01*
X288618048Y-143683428D01*
X288634740Y-143654400D01*
X288651431Y-143639885D01*
X288684814Y-143625371D01*
X288701505Y-143625371D01*
X288734888Y-143639885D01*
X288751580Y-143654400D01*
X288768271Y-143683428D01*
X288768271Y-143741485D01*
X288784962Y-143770514D01*
X288801654Y-143785028D01*
X288835037Y-143799542D01*
X288901802Y-143799542D01*
X288935185Y-143785028D01*
X288951877Y-143770514D01*
X288968568Y-143741485D01*
X288968568Y-143683428D01*
X288951877Y-143654400D01*
X288935185Y-143639885D01*
X288901802Y-143625371D01*
X288835037Y-143625371D01*
X288801654Y-143639885D01*
X288784962Y-143654400D01*
X288768271Y-143683428D01*
G04 #@! TO.C,R10*
X287188568Y-144205942D02*
X287021654Y-144307542D01*
X287188568Y-144380114D02*
X286838048Y-144380114D01*
X286838048Y-144264000D01*
X286854740Y-144234971D01*
X286871431Y-144220457D01*
X286904814Y-144205942D01*
X286954888Y-144205942D01*
X286988271Y-144220457D01*
X287004962Y-144234971D01*
X287021654Y-144264000D01*
X287021654Y-144380114D01*
X287188568Y-143915657D02*
X287188568Y-144089828D01*
X287188568Y-144002742D02*
X286838048Y-144002742D01*
X286888122Y-144031771D01*
X286921505Y-144060800D01*
X286938197Y-144089828D01*
X286838048Y-143726971D02*
X286838048Y-143697942D01*
X286854740Y-143668914D01*
X286871431Y-143654400D01*
X286904814Y-143639885D01*
X286971580Y-143625371D01*
X287055037Y-143625371D01*
X287121802Y-143639885D01*
X287155185Y-143654400D01*
X287171877Y-143668914D01*
X287188568Y-143697942D01*
X287188568Y-143726971D01*
X287171877Y-143756000D01*
X287155185Y-143770514D01*
X287121802Y-143785028D01*
X287055037Y-143799542D01*
X286971580Y-143799542D01*
X286904814Y-143785028D01*
X286871431Y-143770514D01*
X286854740Y-143756000D01*
X286838048Y-143726971D01*
G04 #@! TO.C,C16*
X284875185Y-144175942D02*
X284891877Y-144190457D01*
X284908568Y-144234000D01*
X284908568Y-144263028D01*
X284891877Y-144306571D01*
X284858494Y-144335600D01*
X284825111Y-144350114D01*
X284758345Y-144364628D01*
X284708271Y-144364628D01*
X284641505Y-144350114D01*
X284608122Y-144335600D01*
X284574740Y-144306571D01*
X284558048Y-144263028D01*
X284558048Y-144234000D01*
X284574740Y-144190457D01*
X284591431Y-144175942D01*
X284908568Y-143885657D02*
X284908568Y-144059828D01*
X284908568Y-143972742D02*
X284558048Y-143972742D01*
X284608122Y-144001771D01*
X284641505Y-144030800D01*
X284658197Y-144059828D01*
X284558048Y-143624400D02*
X284558048Y-143682457D01*
X284574740Y-143711485D01*
X284591431Y-143726000D01*
X284641505Y-143755028D01*
X284708271Y-143769542D01*
X284841802Y-143769542D01*
X284875185Y-143755028D01*
X284891877Y-143740514D01*
X284908568Y-143711485D01*
X284908568Y-143653428D01*
X284891877Y-143624400D01*
X284875185Y-143609885D01*
X284841802Y-143595371D01*
X284758345Y-143595371D01*
X284724962Y-143609885D01*
X284708271Y-143624400D01*
X284691580Y-143653428D01*
X284691580Y-143711485D01*
X284708271Y-143740514D01*
X284724962Y-143755028D01*
X284758345Y-143769542D01*
G04 #@! TO.C,R9*
X282089200Y-142298568D02*
X281987600Y-142131654D01*
X281915028Y-142298568D02*
X281915028Y-141948048D01*
X282031142Y-141948048D01*
X282060171Y-141964740D01*
X282074685Y-141981431D01*
X282089200Y-142014814D01*
X282089200Y-142064888D01*
X282074685Y-142098271D01*
X282060171Y-142114962D01*
X282031142Y-142131654D01*
X281915028Y-142131654D01*
X282234342Y-142298568D02*
X282292400Y-142298568D01*
X282321428Y-142281877D01*
X282335942Y-142265185D01*
X282364971Y-142215111D01*
X282379485Y-142148345D01*
X282379485Y-142014814D01*
X282364971Y-141981431D01*
X282350457Y-141964740D01*
X282321428Y-141948048D01*
X282263371Y-141948048D01*
X282234342Y-141964740D01*
X282219828Y-141981431D01*
X282205314Y-142014814D01*
X282205314Y-142098271D01*
X282219828Y-142131654D01*
X282234342Y-142148345D01*
X282263371Y-142165037D01*
X282321428Y-142165037D01*
X282350457Y-142148345D01*
X282364971Y-142131654D01*
X282379485Y-142098271D01*
G04 #@! TO.C,C17*
X287334057Y-141145185D02*
X287319542Y-141161877D01*
X287276000Y-141178568D01*
X287246971Y-141178568D01*
X287203428Y-141161877D01*
X287174400Y-141128494D01*
X287159885Y-141095111D01*
X287145371Y-141028345D01*
X287145371Y-140978271D01*
X287159885Y-140911505D01*
X287174400Y-140878122D01*
X287203428Y-140844740D01*
X287246971Y-140828048D01*
X287276000Y-140828048D01*
X287319542Y-140844740D01*
X287334057Y-140861431D01*
X287624342Y-141178568D02*
X287450171Y-141178568D01*
X287537257Y-141178568D02*
X287537257Y-140828048D01*
X287508228Y-140878122D01*
X287479200Y-140911505D01*
X287450171Y-140928197D01*
X287725942Y-140828048D02*
X287929142Y-140828048D01*
X287798514Y-141178568D01*
G04 #@! TO.C,D3*
D12*
X283216190Y-140419047D02*
X282716190Y-140419047D01*
X282716190Y-140300000D01*
X282740000Y-140228571D01*
X282787619Y-140180952D01*
X282835238Y-140157142D01*
X282930476Y-140133333D01*
X283001904Y-140133333D01*
X283097142Y-140157142D01*
X283144761Y-140180952D01*
X283192380Y-140228571D01*
X283216190Y-140300000D01*
X283216190Y-140419047D01*
X282716190Y-139966666D02*
X282716190Y-139657142D01*
X282906666Y-139823809D01*
X282906666Y-139752380D01*
X282930476Y-139704761D01*
X282954285Y-139680952D01*
X283001904Y-139657142D01*
X283120952Y-139657142D01*
X283168571Y-139680952D01*
X283192380Y-139704761D01*
X283216190Y-139752380D01*
X283216190Y-139895238D01*
X283192380Y-139942857D01*
X283168571Y-139966666D01*
G04 #@! TO.C,C22*
D18*
X281584057Y-137895185D02*
X281569542Y-137911877D01*
X281526000Y-137928568D01*
X281496971Y-137928568D01*
X281453428Y-137911877D01*
X281424400Y-137878494D01*
X281409885Y-137845111D01*
X281395371Y-137778345D01*
X281395371Y-137728271D01*
X281409885Y-137661505D01*
X281424400Y-137628122D01*
X281453428Y-137594740D01*
X281496971Y-137578048D01*
X281526000Y-137578048D01*
X281569542Y-137594740D01*
X281584057Y-137611431D01*
X281700171Y-137611431D02*
X281714685Y-137594740D01*
X281743714Y-137578048D01*
X281816285Y-137578048D01*
X281845314Y-137594740D01*
X281859828Y-137611431D01*
X281874342Y-137644814D01*
X281874342Y-137678197D01*
X281859828Y-137728271D01*
X281685657Y-137928568D01*
X281874342Y-137928568D01*
X281990457Y-137611431D02*
X282004971Y-137594740D01*
X282034000Y-137578048D01*
X282106571Y-137578048D01*
X282135600Y-137594740D01*
X282150114Y-137611431D01*
X282164628Y-137644814D01*
X282164628Y-137678197D01*
X282150114Y-137728271D01*
X281975942Y-137928568D01*
X282164628Y-137928568D01*
G04 #@! TO.C,R7*
X278998988Y-142400800D02*
X278832074Y-142502400D01*
X278998988Y-142574971D02*
X278648468Y-142574971D01*
X278648468Y-142458857D01*
X278665160Y-142429828D01*
X278681851Y-142415314D01*
X278715234Y-142400800D01*
X278765308Y-142400800D01*
X278798691Y-142415314D01*
X278815382Y-142429828D01*
X278832074Y-142458857D01*
X278832074Y-142574971D01*
X278648468Y-142299200D02*
X278648468Y-142096000D01*
X278998988Y-142226628D01*
G04 #@! TO.C,U1*
D21*
X266241428Y-140247142D02*
X266727142Y-140247142D01*
X266784285Y-140218571D01*
X266812857Y-140190000D01*
X266841428Y-140132857D01*
X266841428Y-140018571D01*
X266812857Y-139961428D01*
X266784285Y-139932857D01*
X266727142Y-139904285D01*
X266241428Y-139904285D01*
X266841428Y-139304285D02*
X266841428Y-139647142D01*
X266841428Y-139475714D02*
X266241428Y-139475714D01*
X266327142Y-139532857D01*
X266384285Y-139590000D01*
X266412857Y-139647142D01*
G04 #@! TO.C,C21*
D18*
X273874057Y-138745185D02*
X273859542Y-138761877D01*
X273816000Y-138778568D01*
X273786971Y-138778568D01*
X273743428Y-138761877D01*
X273714400Y-138728494D01*
X273699885Y-138695111D01*
X273685371Y-138628345D01*
X273685371Y-138578271D01*
X273699885Y-138511505D01*
X273714400Y-138478122D01*
X273743428Y-138444740D01*
X273786971Y-138428048D01*
X273816000Y-138428048D01*
X273859542Y-138444740D01*
X273874057Y-138461431D01*
X273990171Y-138461431D02*
X274004685Y-138444740D01*
X274033714Y-138428048D01*
X274106285Y-138428048D01*
X274135314Y-138444740D01*
X274149828Y-138461431D01*
X274164342Y-138494814D01*
X274164342Y-138528197D01*
X274149828Y-138578271D01*
X273975657Y-138778568D01*
X274164342Y-138778568D01*
X274454628Y-138778568D02*
X274280457Y-138778568D01*
X274367542Y-138778568D02*
X274367542Y-138428048D01*
X274338514Y-138478122D01*
X274309485Y-138511505D01*
X274280457Y-138528197D01*
G04 #@! TO.C,R12*
X284908568Y-130805942D02*
X284741654Y-130907542D01*
X284908568Y-130980114D02*
X284558048Y-130980114D01*
X284558048Y-130864000D01*
X284574740Y-130834971D01*
X284591431Y-130820457D01*
X284624814Y-130805942D01*
X284674888Y-130805942D01*
X284708271Y-130820457D01*
X284724962Y-130834971D01*
X284741654Y-130864000D01*
X284741654Y-130980114D01*
X284908568Y-130515657D02*
X284908568Y-130689828D01*
X284908568Y-130602742D02*
X284558048Y-130602742D01*
X284608122Y-130631771D01*
X284641505Y-130660800D01*
X284658197Y-130689828D01*
X284591431Y-130399542D02*
X284574740Y-130385028D01*
X284558048Y-130356000D01*
X284558048Y-130283428D01*
X284574740Y-130254400D01*
X284591431Y-130239885D01*
X284624814Y-130225371D01*
X284658197Y-130225371D01*
X284708271Y-130239885D01*
X284908568Y-130414057D01*
X284908568Y-130225371D01*
G04 #@! TO.C,R11*
X283134057Y-128918148D02*
X283032457Y-128751234D01*
X282959885Y-128918148D02*
X282959885Y-128567628D01*
X283076000Y-128567628D01*
X283105028Y-128584320D01*
X283119542Y-128601011D01*
X283134057Y-128634394D01*
X283134057Y-128684468D01*
X283119542Y-128717851D01*
X283105028Y-128734542D01*
X283076000Y-128751234D01*
X282959885Y-128751234D01*
X283424342Y-128918148D02*
X283250171Y-128918148D01*
X283337257Y-128918148D02*
X283337257Y-128567628D01*
X283308228Y-128617702D01*
X283279200Y-128651085D01*
X283250171Y-128667777D01*
X283714628Y-128918148D02*
X283540457Y-128918148D01*
X283627542Y-128918148D02*
X283627542Y-128567628D01*
X283598514Y-128617702D01*
X283569485Y-128651085D01*
X283540457Y-128667777D01*
G04 #@! TO.C,C36*
X288695605Y-126735942D02*
X288712297Y-126750457D01*
X288728988Y-126794000D01*
X288728988Y-126823028D01*
X288712297Y-126866571D01*
X288678914Y-126895600D01*
X288645531Y-126910114D01*
X288578765Y-126924628D01*
X288528691Y-126924628D01*
X288461925Y-126910114D01*
X288428542Y-126895600D01*
X288395160Y-126866571D01*
X288378468Y-126823028D01*
X288378468Y-126794000D01*
X288395160Y-126750457D01*
X288411851Y-126735942D01*
X288378468Y-126634342D02*
X288378468Y-126445657D01*
X288512000Y-126547257D01*
X288512000Y-126503714D01*
X288528691Y-126474685D01*
X288545382Y-126460171D01*
X288578765Y-126445657D01*
X288662222Y-126445657D01*
X288695605Y-126460171D01*
X288712297Y-126474685D01*
X288728988Y-126503714D01*
X288728988Y-126590800D01*
X288712297Y-126619828D01*
X288695605Y-126634342D01*
X288378468Y-126184400D02*
X288378468Y-126242457D01*
X288395160Y-126271485D01*
X288411851Y-126286000D01*
X288461925Y-126315028D01*
X288528691Y-126329542D01*
X288662222Y-126329542D01*
X288695605Y-126315028D01*
X288712297Y-126300514D01*
X288728988Y-126271485D01*
X288728988Y-126213428D01*
X288712297Y-126184400D01*
X288695605Y-126169885D01*
X288662222Y-126155371D01*
X288578765Y-126155371D01*
X288545382Y-126169885D01*
X288528691Y-126184400D01*
X288512000Y-126213428D01*
X288512000Y-126271485D01*
X288528691Y-126300514D01*
X288545382Y-126315028D01*
X288578765Y-126329542D01*
G04 #@! TO.C,F1*
D12*
X277843333Y-127064285D02*
X277676666Y-127064285D01*
X277676666Y-127326190D02*
X277676666Y-126826190D01*
X277914761Y-126826190D01*
X278367142Y-127326190D02*
X278081428Y-127326190D01*
X278224285Y-127326190D02*
X278224285Y-126826190D01*
X278176666Y-126897619D01*
X278129047Y-126945238D01*
X278081428Y-126969047D01*
G04 #@! TO.C,C34*
D18*
X275644057Y-129165185D02*
X275629542Y-129181877D01*
X275586000Y-129198568D01*
X275556971Y-129198568D01*
X275513428Y-129181877D01*
X275484400Y-129148494D01*
X275469885Y-129115111D01*
X275455371Y-129048345D01*
X275455371Y-128998271D01*
X275469885Y-128931505D01*
X275484400Y-128898122D01*
X275513428Y-128864740D01*
X275556971Y-128848048D01*
X275586000Y-128848048D01*
X275629542Y-128864740D01*
X275644057Y-128881431D01*
X275745657Y-128848048D02*
X275934342Y-128848048D01*
X275832742Y-128981580D01*
X275876285Y-128981580D01*
X275905314Y-128998271D01*
X275919828Y-129014962D01*
X275934342Y-129048345D01*
X275934342Y-129131802D01*
X275919828Y-129165185D01*
X275905314Y-129181877D01*
X275876285Y-129198568D01*
X275789200Y-129198568D01*
X275760171Y-129181877D01*
X275745657Y-129165185D01*
X276195600Y-128964888D02*
X276195600Y-129198568D01*
X276123028Y-128831357D02*
X276050457Y-129081728D01*
X276239142Y-129081728D01*
G04 #@! TO.C,C33*
X273714057Y-130275185D02*
X273699542Y-130291877D01*
X273656000Y-130308568D01*
X273626971Y-130308568D01*
X273583428Y-130291877D01*
X273554400Y-130258494D01*
X273539885Y-130225111D01*
X273525371Y-130158345D01*
X273525371Y-130108271D01*
X273539885Y-130041505D01*
X273554400Y-130008122D01*
X273583428Y-129974740D01*
X273626971Y-129958048D01*
X273656000Y-129958048D01*
X273699542Y-129974740D01*
X273714057Y-129991431D01*
X273815657Y-129958048D02*
X274004342Y-129958048D01*
X273902742Y-130091580D01*
X273946285Y-130091580D01*
X273975314Y-130108271D01*
X273989828Y-130124962D01*
X274004342Y-130158345D01*
X274004342Y-130241802D01*
X273989828Y-130275185D01*
X273975314Y-130291877D01*
X273946285Y-130308568D01*
X273859200Y-130308568D01*
X273830171Y-130291877D01*
X273815657Y-130275185D01*
X274105942Y-129958048D02*
X274294628Y-129958048D01*
X274193028Y-130091580D01*
X274236571Y-130091580D01*
X274265600Y-130108271D01*
X274280114Y-130124962D01*
X274294628Y-130158345D01*
X274294628Y-130241802D01*
X274280114Y-130275185D01*
X274265600Y-130291877D01*
X274236571Y-130308568D01*
X274149485Y-130308568D01*
X274120457Y-130291877D01*
X274105942Y-130275185D01*
G04 #@! TO.C,D2*
D12*
X280120952Y-139526190D02*
X280120952Y-139026190D01*
X280240000Y-139026190D01*
X280311428Y-139050000D01*
X280359047Y-139097619D01*
X280382857Y-139145238D01*
X280406666Y-139240476D01*
X280406666Y-139311904D01*
X280382857Y-139407142D01*
X280359047Y-139454761D01*
X280311428Y-139502380D01*
X280240000Y-139526190D01*
X280120952Y-139526190D01*
X280597142Y-139073809D02*
X280620952Y-139050000D01*
X280668571Y-139026190D01*
X280787619Y-139026190D01*
X280835238Y-139050000D01*
X280859047Y-139073809D01*
X280882857Y-139121428D01*
X280882857Y-139169047D01*
X280859047Y-139240476D01*
X280573333Y-139526190D01*
X280882857Y-139526190D01*
G04 #@! TO.C,C2*
D18*
X271019200Y-142535185D02*
X271004685Y-142551877D01*
X270961142Y-142568568D01*
X270932114Y-142568568D01*
X270888571Y-142551877D01*
X270859542Y-142518494D01*
X270845028Y-142485111D01*
X270830514Y-142418345D01*
X270830514Y-142368271D01*
X270845028Y-142301505D01*
X270859542Y-142268122D01*
X270888571Y-142234740D01*
X270932114Y-142218048D01*
X270961142Y-142218048D01*
X271004685Y-142234740D01*
X271019200Y-142251431D01*
X271135314Y-142251431D02*
X271149828Y-142234740D01*
X271178857Y-142218048D01*
X271251428Y-142218048D01*
X271280457Y-142234740D01*
X271294971Y-142251431D01*
X271309485Y-142284814D01*
X271309485Y-142318197D01*
X271294971Y-142368271D01*
X271120800Y-142568568D01*
X271309485Y-142568568D01*
G04 #@! TO.C,C1*
X272079200Y-142615185D02*
X272064685Y-142631877D01*
X272021142Y-142648568D01*
X271992114Y-142648568D01*
X271948571Y-142631877D01*
X271919542Y-142598494D01*
X271905028Y-142565111D01*
X271890514Y-142498345D01*
X271890514Y-142448271D01*
X271905028Y-142381505D01*
X271919542Y-142348122D01*
X271948571Y-142314740D01*
X271992114Y-142298048D01*
X272021142Y-142298048D01*
X272064685Y-142314740D01*
X272079200Y-142331431D01*
X272369485Y-142648568D02*
X272195314Y-142648568D01*
X272282400Y-142648568D02*
X272282400Y-142298048D01*
X272253371Y-142348122D01*
X272224342Y-142381505D01*
X272195314Y-142398197D01*
G04 #@! TO.C,D1*
D12*
X278895952Y-139526190D02*
X278895952Y-139026190D01*
X279015000Y-139026190D01*
X279086428Y-139050000D01*
X279134047Y-139097619D01*
X279157857Y-139145238D01*
X279181666Y-139240476D01*
X279181666Y-139311904D01*
X279157857Y-139407142D01*
X279134047Y-139454761D01*
X279086428Y-139502380D01*
X279015000Y-139526190D01*
X278895952Y-139526190D01*
X279657857Y-139526190D02*
X279372142Y-139526190D01*
X279515000Y-139526190D02*
X279515000Y-139026190D01*
X279467380Y-139097619D01*
X279419761Y-139145238D01*
X279372142Y-139169047D01*
G04 #@! TO.C,L4*
D22*
X270799809Y-138696200D02*
X270799809Y-138913914D01*
X270291809Y-138913914D01*
X270461142Y-138347857D02*
X270799809Y-138347857D01*
X270267619Y-138456714D02*
X270630476Y-138565571D01*
X270630476Y-138282542D01*
G04 #@! TO.C,X1*
D23*
X270445238Y-132476190D02*
X270778571Y-132976190D01*
X270778571Y-132476190D02*
X270445238Y-132976190D01*
X271230952Y-132976190D02*
X270945238Y-132976190D01*
X271088095Y-132976190D02*
X271088095Y-132476190D01*
X271040476Y-132547619D01*
X270992857Y-132595238D01*
X270945238Y-132619047D01*
G04 #@! TO.C,C28*
D18*
X274925185Y-140745942D02*
X274941877Y-140760457D01*
X274958568Y-140804000D01*
X274958568Y-140833028D01*
X274941877Y-140876571D01*
X274908494Y-140905600D01*
X274875111Y-140920114D01*
X274808345Y-140934628D01*
X274758271Y-140934628D01*
X274691505Y-140920114D01*
X274658122Y-140905600D01*
X274624740Y-140876571D01*
X274608048Y-140833028D01*
X274608048Y-140804000D01*
X274624740Y-140760457D01*
X274641431Y-140745942D01*
X274641431Y-140629828D02*
X274624740Y-140615314D01*
X274608048Y-140586285D01*
X274608048Y-140513714D01*
X274624740Y-140484685D01*
X274641431Y-140470171D01*
X274674814Y-140455657D01*
X274708197Y-140455657D01*
X274758271Y-140470171D01*
X274958568Y-140644342D01*
X274958568Y-140455657D01*
X274758271Y-140281485D02*
X274741580Y-140310514D01*
X274724888Y-140325028D01*
X274691505Y-140339542D01*
X274674814Y-140339542D01*
X274641431Y-140325028D01*
X274624740Y-140310514D01*
X274608048Y-140281485D01*
X274608048Y-140223428D01*
X274624740Y-140194400D01*
X274641431Y-140179885D01*
X274674814Y-140165371D01*
X274691505Y-140165371D01*
X274724888Y-140179885D01*
X274741580Y-140194400D01*
X274758271Y-140223428D01*
X274758271Y-140281485D01*
X274774962Y-140310514D01*
X274791654Y-140325028D01*
X274825037Y-140339542D01*
X274891802Y-140339542D01*
X274925185Y-140325028D01*
X274941877Y-140310514D01*
X274958568Y-140281485D01*
X274958568Y-140223428D01*
X274941877Y-140194400D01*
X274925185Y-140179885D01*
X274891802Y-140165371D01*
X274825037Y-140165371D01*
X274791654Y-140179885D01*
X274774962Y-140194400D01*
X274758271Y-140223428D01*
G04 #@! TO.C,C26*
X273265185Y-140395942D02*
X273281877Y-140410457D01*
X273298568Y-140454000D01*
X273298568Y-140483028D01*
X273281877Y-140526571D01*
X273248494Y-140555600D01*
X273215111Y-140570114D01*
X273148345Y-140584628D01*
X273098271Y-140584628D01*
X273031505Y-140570114D01*
X272998122Y-140555600D01*
X272964740Y-140526571D01*
X272948048Y-140483028D01*
X272948048Y-140454000D01*
X272964740Y-140410457D01*
X272981431Y-140395942D01*
X272981431Y-140279828D02*
X272964740Y-140265314D01*
X272948048Y-140236285D01*
X272948048Y-140163714D01*
X272964740Y-140134685D01*
X272981431Y-140120171D01*
X273014814Y-140105657D01*
X273048197Y-140105657D01*
X273098271Y-140120171D01*
X273298568Y-140294342D01*
X273298568Y-140105657D01*
X272948048Y-139844400D02*
X272948048Y-139902457D01*
X272964740Y-139931485D01*
X272981431Y-139946000D01*
X273031505Y-139975028D01*
X273098271Y-139989542D01*
X273231802Y-139989542D01*
X273265185Y-139975028D01*
X273281877Y-139960514D01*
X273298568Y-139931485D01*
X273298568Y-139873428D01*
X273281877Y-139844400D01*
X273265185Y-139829885D01*
X273231802Y-139815371D01*
X273148345Y-139815371D01*
X273114962Y-139829885D01*
X273098271Y-139844400D01*
X273081580Y-139873428D01*
X273081580Y-139931485D01*
X273098271Y-139960514D01*
X273114962Y-139975028D01*
X273148345Y-139989542D01*
G04 #@! TO.C,C24*
X269925185Y-133095942D02*
X269941877Y-133110457D01*
X269958568Y-133154000D01*
X269958568Y-133183028D01*
X269941877Y-133226571D01*
X269908494Y-133255600D01*
X269875111Y-133270114D01*
X269808345Y-133284628D01*
X269758271Y-133284628D01*
X269691505Y-133270114D01*
X269658122Y-133255600D01*
X269624740Y-133226571D01*
X269608048Y-133183028D01*
X269608048Y-133154000D01*
X269624740Y-133110457D01*
X269641431Y-133095942D01*
X269641431Y-132979828D02*
X269624740Y-132965314D01*
X269608048Y-132936285D01*
X269608048Y-132863714D01*
X269624740Y-132834685D01*
X269641431Y-132820171D01*
X269674814Y-132805657D01*
X269708197Y-132805657D01*
X269758271Y-132820171D01*
X269958568Y-132994342D01*
X269958568Y-132805657D01*
X269724888Y-132544400D02*
X269958568Y-132544400D01*
X269591357Y-132616971D02*
X269841728Y-132689542D01*
X269841728Y-132500857D01*
G04 #@! TO.C,C25*
X273325185Y-132995942D02*
X273341877Y-133010457D01*
X273358568Y-133054000D01*
X273358568Y-133083028D01*
X273341877Y-133126571D01*
X273308494Y-133155600D01*
X273275111Y-133170114D01*
X273208345Y-133184628D01*
X273158271Y-133184628D01*
X273091505Y-133170114D01*
X273058122Y-133155600D01*
X273024740Y-133126571D01*
X273008048Y-133083028D01*
X273008048Y-133054000D01*
X273024740Y-133010457D01*
X273041431Y-132995942D01*
X273041431Y-132879828D02*
X273024740Y-132865314D01*
X273008048Y-132836285D01*
X273008048Y-132763714D01*
X273024740Y-132734685D01*
X273041431Y-132720171D01*
X273074814Y-132705657D01*
X273108197Y-132705657D01*
X273158271Y-132720171D01*
X273358568Y-132894342D01*
X273358568Y-132705657D01*
X273008048Y-132429885D02*
X273008048Y-132575028D01*
X273174962Y-132589542D01*
X273158271Y-132575028D01*
X273141580Y-132546000D01*
X273141580Y-132473428D01*
X273158271Y-132444400D01*
X273174962Y-132429885D01*
X273208345Y-132415371D01*
X273291802Y-132415371D01*
X273325185Y-132429885D01*
X273341877Y-132444400D01*
X273358568Y-132473428D01*
X273358568Y-132546000D01*
X273341877Y-132575028D01*
X273325185Y-132589542D01*
G04 #@! TO.C,C29*
X276614057Y-140675185D02*
X276599542Y-140691877D01*
X276556000Y-140708568D01*
X276526971Y-140708568D01*
X276483428Y-140691877D01*
X276454400Y-140658494D01*
X276439885Y-140625111D01*
X276425371Y-140558345D01*
X276425371Y-140508271D01*
X276439885Y-140441505D01*
X276454400Y-140408122D01*
X276483428Y-140374740D01*
X276526971Y-140358048D01*
X276556000Y-140358048D01*
X276599542Y-140374740D01*
X276614057Y-140391431D01*
X276730171Y-140391431D02*
X276744685Y-140374740D01*
X276773714Y-140358048D01*
X276846285Y-140358048D01*
X276875314Y-140374740D01*
X276889828Y-140391431D01*
X276904342Y-140424814D01*
X276904342Y-140458197D01*
X276889828Y-140508271D01*
X276715657Y-140708568D01*
X276904342Y-140708568D01*
X277049485Y-140708568D02*
X277107542Y-140708568D01*
X277136571Y-140691877D01*
X277151085Y-140675185D01*
X277180114Y-140625111D01*
X277194628Y-140558345D01*
X277194628Y-140424814D01*
X277180114Y-140391431D01*
X277165600Y-140374740D01*
X277136571Y-140358048D01*
X277078514Y-140358048D01*
X277049485Y-140374740D01*
X277034971Y-140391431D01*
X277020457Y-140424814D01*
X277020457Y-140508271D01*
X277034971Y-140541654D01*
X277049485Y-140558345D01*
X277078514Y-140575037D01*
X277136571Y-140575037D01*
X277165600Y-140558345D01*
X277180114Y-140541654D01*
X277194628Y-140508271D01*
G04 #@! TO.C,L6*
X271899200Y-128558568D02*
X271754057Y-128558568D01*
X271754057Y-128208048D01*
X272131428Y-128208048D02*
X272073371Y-128208048D01*
X272044342Y-128224740D01*
X272029828Y-128241431D01*
X272000800Y-128291505D01*
X271986285Y-128358271D01*
X271986285Y-128491802D01*
X272000800Y-128525185D01*
X272015314Y-128541877D01*
X272044342Y-128558568D01*
X272102400Y-128558568D01*
X272131428Y-128541877D01*
X272145942Y-128525185D01*
X272160457Y-128491802D01*
X272160457Y-128408345D01*
X272145942Y-128374962D01*
X272131428Y-128358271D01*
X272102400Y-128341580D01*
X272044342Y-128341580D01*
X272015314Y-128358271D01*
X272000800Y-128374962D01*
X271986285Y-128408345D01*
G04 #@! TO.C,L5*
X273969200Y-127248568D02*
X273824057Y-127248568D01*
X273824057Y-126898048D01*
X274215942Y-126898048D02*
X274070800Y-126898048D01*
X274056285Y-127064962D01*
X274070800Y-127048271D01*
X274099828Y-127031580D01*
X274172400Y-127031580D01*
X274201428Y-127048271D01*
X274215942Y-127064962D01*
X274230457Y-127098345D01*
X274230457Y-127181802D01*
X274215942Y-127215185D01*
X274201428Y-127231877D01*
X274172400Y-127248568D01*
X274099828Y-127248568D01*
X274070800Y-127231877D01*
X274056285Y-127215185D01*
G04 #@! TO.C,C30*
X275404057Y-127165185D02*
X275389542Y-127181877D01*
X275346000Y-127198568D01*
X275316971Y-127198568D01*
X275273428Y-127181877D01*
X275244400Y-127148494D01*
X275229885Y-127115111D01*
X275215371Y-127048345D01*
X275215371Y-126998271D01*
X275229885Y-126931505D01*
X275244400Y-126898122D01*
X275273428Y-126864740D01*
X275316971Y-126848048D01*
X275346000Y-126848048D01*
X275389542Y-126864740D01*
X275404057Y-126881431D01*
X275505657Y-126848048D02*
X275694342Y-126848048D01*
X275592742Y-126981580D01*
X275636285Y-126981580D01*
X275665314Y-126998271D01*
X275679828Y-127014962D01*
X275694342Y-127048345D01*
X275694342Y-127131802D01*
X275679828Y-127165185D01*
X275665314Y-127181877D01*
X275636285Y-127198568D01*
X275549200Y-127198568D01*
X275520171Y-127181877D01*
X275505657Y-127165185D01*
X275883028Y-126848048D02*
X275912057Y-126848048D01*
X275941085Y-126864740D01*
X275955600Y-126881431D01*
X275970114Y-126914814D01*
X275984628Y-126981580D01*
X275984628Y-127065037D01*
X275970114Y-127131802D01*
X275955600Y-127165185D01*
X275941085Y-127181877D01*
X275912057Y-127198568D01*
X275883028Y-127198568D01*
X275854000Y-127181877D01*
X275839485Y-127165185D01*
X275824971Y-127131802D01*
X275810457Y-127065037D01*
X275810457Y-126981580D01*
X275824971Y-126914814D01*
X275839485Y-126881431D01*
X275854000Y-126864740D01*
X275883028Y-126848048D01*
G04 #@! TO.C,L3*
X271288568Y-137270800D02*
X271288568Y-137415942D01*
X270938048Y-137415942D01*
X270938048Y-137198228D02*
X270938048Y-137009542D01*
X271071580Y-137111142D01*
X271071580Y-137067600D01*
X271088271Y-137038571D01*
X271104962Y-137024057D01*
X271138345Y-137009542D01*
X271221802Y-137009542D01*
X271255185Y-137024057D01*
X271271877Y-137038571D01*
X271288568Y-137067600D01*
X271288568Y-137154685D01*
X271271877Y-137183714D01*
X271255185Y-137198228D01*
G04 #@! TO.C,C23*
D22*
X271151428Y-136313914D02*
X271175619Y-136335685D01*
X271199809Y-136401000D01*
X271199809Y-136444542D01*
X271175619Y-136509857D01*
X271127238Y-136553400D01*
X271078857Y-136575171D01*
X270982095Y-136596942D01*
X270909523Y-136596942D01*
X270812761Y-136575171D01*
X270764380Y-136553400D01*
X270716000Y-136509857D01*
X270691809Y-136444542D01*
X270691809Y-136401000D01*
X270716000Y-136335685D01*
X270740190Y-136313914D01*
X270740190Y-136139742D02*
X270716000Y-136117971D01*
X270691809Y-136074428D01*
X270691809Y-135965571D01*
X270716000Y-135922028D01*
X270740190Y-135900257D01*
X270788571Y-135878485D01*
X270836952Y-135878485D01*
X270909523Y-135900257D01*
X271199809Y-136161514D01*
X271199809Y-135878485D01*
X270691809Y-135726085D02*
X270691809Y-135443057D01*
X270885333Y-135595457D01*
X270885333Y-135530142D01*
X270909523Y-135486600D01*
X270933714Y-135464828D01*
X270982095Y-135443057D01*
X271103047Y-135443057D01*
X271151428Y-135464828D01*
X271175619Y-135486600D01*
X271199809Y-135530142D01*
X271199809Y-135660771D01*
X271175619Y-135704314D01*
X271151428Y-135726085D01*
G04 #@! TO.C,U3*
D24*
X273696190Y-131730952D02*
X274100952Y-131730952D01*
X274148571Y-131707142D01*
X274172380Y-131683333D01*
X274196190Y-131635714D01*
X274196190Y-131540476D01*
X274172380Y-131492857D01*
X274148571Y-131469047D01*
X274100952Y-131445238D01*
X273696190Y-131445238D01*
X273696190Y-131254761D02*
X273696190Y-130945238D01*
X273886666Y-131111904D01*
X273886666Y-131040476D01*
X273910476Y-130992857D01*
X273934285Y-130969047D01*
X273981904Y-130945238D01*
X274100952Y-130945238D01*
X274148571Y-130969047D01*
X274172380Y-130992857D01*
X274196190Y-131040476D01*
X274196190Y-131183333D01*
X274172380Y-131230952D01*
X274148571Y-131254761D01*
G04 #@! TO.C,X2*
D12*
X275930952Y-139223809D02*
X276330952Y-138957142D01*
X275930952Y-138957142D02*
X276330952Y-139223809D01*
X275969047Y-138823809D02*
X275950000Y-138804761D01*
X275930952Y-138766666D01*
X275930952Y-138671428D01*
X275950000Y-138633333D01*
X275969047Y-138614285D01*
X276007142Y-138595238D01*
X276045238Y-138595238D01*
X276102380Y-138614285D01*
X276330952Y-138842857D01*
X276330952Y-138595238D01*
G04 #@! TO.C,U6*
D21*
X285722857Y-143391428D02*
X285722857Y-143877142D01*
X285751428Y-143934285D01*
X285780000Y-143962857D01*
X285837142Y-143991428D01*
X285951428Y-143991428D01*
X286008571Y-143962857D01*
X286037142Y-143934285D01*
X286065714Y-143877142D01*
X286065714Y-143391428D01*
X286608571Y-143391428D02*
X286494285Y-143391428D01*
X286437142Y-143420000D01*
X286408571Y-143448571D01*
X286351428Y-143534285D01*
X286322857Y-143648571D01*
X286322857Y-143877142D01*
X286351428Y-143934285D01*
X286380000Y-143962857D01*
X286437142Y-143991428D01*
X286551428Y-143991428D01*
X286608571Y-143962857D01*
X286637142Y-143934285D01*
X286665714Y-143877142D01*
X286665714Y-143734285D01*
X286637142Y-143677142D01*
X286608571Y-143648571D01*
X286551428Y-143620000D01*
X286437142Y-143620000D01*
X286380000Y-143648571D01*
X286351428Y-143677142D01*
X286322857Y-143734285D01*
G04 #@! TO.C,Q1*
X288362380Y-142163809D02*
X288314761Y-142140000D01*
X288267142Y-142092380D01*
X288195714Y-142020952D01*
X288148095Y-141997142D01*
X288100476Y-141997142D01*
X288124285Y-142116190D02*
X288076666Y-142092380D01*
X288029047Y-142044761D01*
X288005238Y-141949523D01*
X288005238Y-141782857D01*
X288029047Y-141687619D01*
X288076666Y-141640000D01*
X288124285Y-141616190D01*
X288219523Y-141616190D01*
X288267142Y-141640000D01*
X288314761Y-141687619D01*
X288338571Y-141782857D01*
X288338571Y-141949523D01*
X288314761Y-142044761D01*
X288267142Y-142092380D01*
X288219523Y-142116190D01*
X288124285Y-142116190D01*
X288814761Y-142116190D02*
X288529047Y-142116190D01*
X288671904Y-142116190D02*
X288671904Y-141616190D01*
X288624285Y-141687619D01*
X288576666Y-141735238D01*
X288529047Y-141759047D01*
G04 #@! TO.C,L2*
D10*
X273688333Y-143828809D02*
X273426428Y-143828809D01*
X273426428Y-143278809D01*
X273845476Y-143331190D02*
X273871666Y-143305000D01*
X273924047Y-143278809D01*
X274055000Y-143278809D01*
X274107380Y-143305000D01*
X274133571Y-143331190D01*
X274159761Y-143383571D01*
X274159761Y-143435952D01*
X274133571Y-143514523D01*
X273819285Y-143828809D01*
X274159761Y-143828809D01*
G04 #@! TD*
M02*
